<?xml version="1.0" encoding="utf-8" standalone="no"?>
<!DOCTYPE svg PUBLIC "-//W3C//DTD SVG 1.1//EN"
  "http://www.w3.org/Graphics/SVG/1.1/DTD/svg11.dtd">
<svg xmlns:xlink="http://www.w3.org/1999/xlink" width="452.801254pt" height="337.40125pt" viewBox="0 0 452.801254 337.40125" xmlns="http://www.w3.org/2000/svg" version="1.1">
 <metadata>
  <rdf:RDF xmlns:dc="http://purl.org/dc/elements/1.1/" xmlns:cc="http://creativecommons.org/ns#" xmlns:rdf="http://www.w3.org/1999/02/22-rdf-syntax-ns#">
   <cc:Work>
    <dc:type rdf:resource="http://purl.org/dc/dcmitype/StillImage"/>
    <dc:date>2025-12-01T11:21:24.800084</dc:date>
    <dc:format>image/svg+xml</dc:format>
    <dc:creator>
     <cc:Agent>
      <dc:title>Matplotlib v3.10.5, https://matplotlib.org/</dc:title>
     </cc:Agent>
    </dc:creator>
   </cc:Work>
  </rdf:RDF>
 </metadata>
 <defs>
  <style type="text/css">*{stroke-linejoin: round; stroke-linecap: butt}</style>
 </defs>
 <g id="figure_1">
  <g id="patch_1">
   <path d="M 0 337.40125 
L 452.801254 337.40125 
L 452.801254 0 
L 0 0 
z
" style="fill: #f5f5dc"/>
  </g>
  <g id="axes_1">
   <g id="patch_2">
    <path d="M 7.378117 314.12 
L 445.601254 314.12 
L 445.601254 7.2 
L 7.378117 7.2 
z
" style="fill: #f5f5dc"/>
   </g>
   <g id="matplotlib.axis_1">
    <g id="xtick_1">
     <g id="line2d_1">
      <defs>
       <path id="m2c24f4558a" d="M 0 0 
L 0 3.5 
" style="stroke: #808080; stroke-width: 0.8"/>
      </defs>
      <g>
       <use xlink:href="#m2c24f4558a" x="10.1" y="314.12" style="fill: #808080; stroke: #808080; stroke-width: 0.8"/>
      </g>
     </g>
     <g id="text_1">
      <!-- 0 -->
      <g style="fill: #808080" transform="translate(7.2 328.485625) scale(0.1 -0.1)">
       <defs>
        <path id="Lato-Regular-30" d="M 3520 2291 
Q 3520 1690 3390 1250 
Q 3261 810 3037 522 
Q 2813 234 2507 93 
Q 2202 -48 1853 -48 
Q 1501 -48 1198 93 
Q 896 234 672 522 
Q 448 810 320 1250 
Q 192 1690 192 2291 
Q 192 2893 320 3334 
Q 448 3776 672 4065 
Q 896 4355 1198 4496 
Q 1501 4637 1853 4637 
Q 2202 4637 2507 4496 
Q 2813 4355 3037 4065 
Q 3261 3776 3390 3334 
Q 3520 2893 3520 2291 
z
M 2928 2291 
Q 2928 2816 2840 3173 
Q 2752 3530 2603 3747 
Q 2454 3965 2259 4059 
Q 2064 4154 1853 4154 
Q 1642 4154 1446 4059 
Q 1251 3965 1104 3747 
Q 957 3530 869 3173 
Q 781 2816 781 2291 
Q 781 1766 869 1411 
Q 957 1056 1104 838 
Q 1251 621 1446 526 
Q 1642 432 1853 432 
Q 2064 432 2259 526 
Q 2454 621 2603 838 
Q 2752 1056 2840 1411 
Q 2928 1766 2928 2291 
z
" transform="scale(0.015625)"/>
       </defs>
       <use xlink:href="#Lato-Regular-30"/>
      </g>
     </g>
    </g>
    <g id="xtick_2">
     <g id="line2d_2">
      <g>
       <use xlink:href="#m2c24f4558a" x="78.147071" y="314.12" style="fill: #808080; stroke: #808080; stroke-width: 0.8"/>
      </g>
     </g>
     <g id="text_2">
      <!-- €250M -->
      <g style="fill: #808080" transform="translate(61.947071 328.485625) scale(0.1 -0.1)">
       <defs>
        <path id="Lato-Regular-20ac" d="M 109 2877 
L 579 2877 
Q 643 3280 795 3605 
Q 947 3930 1172 4158 
Q 1398 4387 1692 4508 
Q 1987 4630 2333 4630 
Q 2762 4630 3066 4470 
Q 3370 4310 3594 4029 
L 3398 3811 
Q 3373 3782 3347 3761 
Q 3322 3741 3277 3741 
Q 3222 3741 3163 3801 
Q 3104 3862 3005 3936 
Q 2906 4010 2750 4070 
Q 2595 4131 2355 4131 
Q 1888 4131 1579 3811 
Q 1270 3491 1168 2877 
L 2918 2877 
L 2918 2701 
Q 2918 2643 2875 2596 
Q 2832 2550 2755 2550 
L 1130 2550 
Q 1126 2486 1124 2422 
Q 1123 2358 1123 2291 
Q 1123 2240 1123 2192 
Q 1123 2144 1126 2096 
L 2621 2096 
L 2621 1917 
Q 2621 1862 2576 1816 
Q 2531 1770 2454 1770 
L 1155 1770 
Q 1245 1110 1552 780 
Q 1859 451 2326 451 
Q 2499 451 2630 484 
Q 2762 518 2858 569 
Q 2954 621 3022 680 
Q 3091 739 3142 790 
Q 3194 842 3234 875 
Q 3274 909 3312 909 
Q 3338 909 3357 897 
Q 3376 886 3402 864 
L 3642 640 
Q 3418 314 3085 133 
Q 2752 -48 2294 -48 
Q 1923 -48 1625 78 
Q 1328 205 1110 440 
Q 893 675 753 1012 
Q 614 1350 563 1770 
L 109 1770 
L 109 2096 
L 538 2096 
Q 534 2144 534 2192 
Q 534 2240 534 2291 
Q 534 2355 536 2420 
Q 538 2486 541 2550 
L 109 2550 
L 109 2877 
z
" transform="scale(0.015625)"/>
        <path id="Lato-Regular-32" d="M 1923 4637 
Q 2214 4637 2467 4550 
Q 2720 4464 2904 4299 
Q 3088 4134 3193 3897 
Q 3299 3661 3299 3360 
Q 3299 3104 3222 2886 
Q 3146 2669 3014 2469 
Q 2883 2269 2712 2081 
Q 2541 1894 2349 1699 
L 1142 464 
Q 1270 499 1401 520 
Q 1533 541 1654 541 
L 3190 541 
Q 3283 541 3337 486 
Q 3392 432 3392 346 
L 3392 0 
L 333 0 
L 333 195 
Q 333 256 357 320 
Q 381 384 435 438 
L 1904 1914 
Q 2086 2099 2236 2270 
Q 2387 2442 2494 2614 
Q 2602 2787 2659 2964 
Q 2717 3142 2717 3344 
Q 2717 3546 2653 3698 
Q 2589 3850 2477 3949 
Q 2365 4048 2214 4097 
Q 2064 4147 1891 4147 
Q 1718 4147 1571 4096 
Q 1424 4045 1310 3953 
Q 1197 3862 1118 3737 
Q 1040 3613 1008 3462 
Q 982 3370 931 3328 
Q 880 3286 797 3286 
Q 781 3286 763 3288 
Q 746 3290 723 3293 
L 426 3344 
Q 470 3658 598 3899 
Q 726 4141 923 4304 
Q 1120 4467 1374 4552 
Q 1629 4637 1923 4637 
z
" transform="scale(0.015625)"/>
        <path id="Lato-Regular-35" d="M 3130 4336 
Q 3130 4214 3053 4136 
Q 2976 4058 2794 4058 
L 1354 4058 
L 1142 2854 
Q 1501 2931 1805 2931 
Q 2163 2931 2436 2825 
Q 2710 2720 2896 2534 
Q 3082 2349 3176 2096 
Q 3270 1843 3270 1546 
Q 3270 1181 3142 886 
Q 3014 592 2792 382 
Q 2570 173 2269 61 
Q 1968 -51 1619 -51 
Q 1418 -51 1232 -11 
Q 1046 29 886 96 
Q 726 163 588 249 
Q 451 336 346 432 
L 518 675 
Q 576 758 672 758 
Q 733 758 814 708 
Q 896 659 1011 598 
Q 1126 538 1281 488 
Q 1437 438 1651 438 
Q 1891 438 2083 515 
Q 2275 592 2411 734 
Q 2547 877 2620 1075 
Q 2694 1274 2694 1520 
Q 2694 1734 2632 1907 
Q 2570 2080 2443 2201 
Q 2317 2323 2128 2390 
Q 1939 2458 1686 2458 
Q 1514 2458 1328 2429 
Q 1142 2400 944 2336 
L 586 2442 
L 957 4586 
L 3130 4586 
L 3130 4336 
z
" transform="scale(0.015625)"/>
        <path id="Lato-Regular-4d" d="M 2813 1658 
Q 2858 1581 2891 1496 
Q 2925 1411 2957 1325 
Q 2989 1414 3024 1496 
Q 3059 1578 3104 1661 
L 4656 4480 
Q 4698 4554 4742 4570 
Q 4787 4586 4870 4586 
L 5328 4586 
L 5328 0 
L 4784 0 
L 4784 3370 
Q 4784 3437 4787 3513 
Q 4790 3590 4797 3670 
L 3226 803 
Q 3146 659 3002 659 
L 2912 659 
Q 2768 659 2688 803 
L 1082 3680 
Q 1091 3597 1096 3517 
Q 1101 3437 1101 3370 
L 1101 0 
L 557 0 
L 557 4586 
L 1014 4586 
Q 1098 4586 1142 4570 
Q 1187 4554 1229 4480 
L 2813 1658 
L 2813 1658 
z
" transform="scale(0.015625)"/>
       </defs>
       <use xlink:href="#Lato-Regular-20ac"/>
       <use xlink:href="#Lato-Regular-32" transform="translate(58 0)"/>
       <use xlink:href="#Lato-Regular-35" transform="translate(116 0)"/>
       <use xlink:href="#Lato-Regular-30" transform="translate(174 0)"/>
       <use xlink:href="#Lato-Regular-4d" transform="translate(232 0)"/>
      </g>
     </g>
    </g>
    <g id="xtick_3">
     <g id="line2d_3">
      <g>
       <use xlink:href="#m2c24f4558a" x="146.194142" y="314.12" style="fill: #808080; stroke: #808080; stroke-width: 0.8"/>
      </g>
     </g>
     <g id="text_3">
      <!-- €500M -->
      <g style="fill: #808080" transform="translate(129.994142 328.485625) scale(0.1 -0.1)">
       <use xlink:href="#Lato-Regular-20ac"/>
       <use xlink:href="#Lato-Regular-35" transform="translate(58 0)"/>
       <use xlink:href="#Lato-Regular-30" transform="translate(116 0)"/>
       <use xlink:href="#Lato-Regular-30" transform="translate(174 0)"/>
       <use xlink:href="#Lato-Regular-4d" transform="translate(232 0)"/>
      </g>
     </g>
    </g>
    <g id="xtick_4">
     <g id="line2d_4">
      <g>
       <use xlink:href="#m2c24f4558a" x="214.241213" y="314.12" style="fill: #808080; stroke: #808080; stroke-width: 0.8"/>
      </g>
     </g>
     <g id="text_4">
      <!-- €750M -->
      <g style="fill: #808080" transform="translate(198.041213 328.485625) scale(0.1 -0.1)">
       <defs>
        <path id="Lato-Regular-37" d="M 3469 4586 
L 3469 4330 
Q 3469 4221 3445 4150 
Q 3421 4080 3395 4032 
L 1498 202 
Q 1456 118 1382 59 
Q 1309 0 1184 0 
L 778 0 
L 2704 3782 
Q 2746 3862 2789 3929 
Q 2832 3997 2886 4058 
L 493 4058 
Q 438 4058 395 4101 
Q 352 4144 352 4198 
L 352 4586 
L 3469 4586 
z
" transform="scale(0.015625)"/>
       </defs>
       <use xlink:href="#Lato-Regular-20ac"/>
       <use xlink:href="#Lato-Regular-37" transform="translate(58 0)"/>
       <use xlink:href="#Lato-Regular-35" transform="translate(116 0)"/>
       <use xlink:href="#Lato-Regular-30" transform="translate(174 0)"/>
       <use xlink:href="#Lato-Regular-4d" transform="translate(232 0)"/>
      </g>
     </g>
    </g>
    <g id="xtick_5">
     <g id="line2d_5">
      <g>
       <use xlink:href="#m2c24f4558a" x="282.288284" y="314.12" style="fill: #808080; stroke: #808080; stroke-width: 0.8"/>
      </g>
     </g>
     <g id="text_5">
      <!-- €1B -->
      <g style="fill: #808080" transform="translate(273.253127 328.485625) scale(0.1 -0.1)">
       <defs>
        <path id="Lato-Regular-31" d="M 918 435 
L 1904 435 
L 1904 3562 
Q 1904 3702 1914 3846 
L 1094 3146 
Q 1062 3120 1030 3109 
Q 998 3098 970 3098 
Q 922 3098 883 3118 
Q 845 3139 826 3168 
L 646 3414 
L 2010 4595 
L 2474 4595 
L 2474 435 
L 3376 435 
L 3376 0 
L 918 0 
L 918 435 
z
" transform="scale(0.015625)"/>
        <path id="Lato-Regular-42" d="M 557 0 
L 557 4586 
L 2019 4586 
Q 2442 4586 2747 4502 
Q 3053 4419 3249 4265 
Q 3446 4112 3540 3889 
Q 3635 3667 3635 3389 
Q 3635 3219 3582 3062 
Q 3530 2906 3422 2771 
Q 3315 2637 3153 2531 
Q 2992 2426 2774 2358 
Q 3277 2259 3533 1996 
Q 3789 1734 3789 1306 
Q 3789 1014 3681 774 
Q 3574 534 3368 361 
Q 3162 189 2862 94 
Q 2563 0 2179 0 
L 557 0 
z
M 1178 2090 
L 1178 493 
L 2170 493 
Q 2435 493 2625 553 
Q 2816 614 2939 724 
Q 3062 835 3120 987 
Q 3178 1139 3178 1322 
Q 3178 1677 2926 1883 
Q 2675 2090 2166 2090 
L 1178 2090 
z
M 1178 2531 
L 1997 2531 
Q 2259 2531 2451 2588 
Q 2643 2646 2769 2748 
Q 2896 2851 2957 2996 
Q 3018 3142 3018 3315 
Q 3018 3718 2774 3907 
Q 2531 4096 2019 4096 
L 1178 4096 
L 1178 2531 
z
" transform="scale(0.015625)"/>
       </defs>
       <use xlink:href="#Lato-Regular-20ac"/>
       <use xlink:href="#Lato-Regular-31" transform="translate(58 0)"/>
       <use xlink:href="#Lato-Regular-42" transform="translate(116 0)"/>
      </g>
     </g>
    </g>
    <g id="xtick_6">
     <g id="line2d_6">
      <g>
       <use xlink:href="#m2c24f4558a" x="350.335355" y="314.12" style="fill: #808080; stroke: #808080; stroke-width: 0.8"/>
      </g>
     </g>
     <g id="text_6">
      <!-- €1.25B -->
      <g style="fill: #808080" transform="translate(334.440042 328.485625) scale(0.1 -0.1)">
       <defs>
        <path id="Lato-Regular-2e" d="M 282 352 
Q 282 435 312 508 
Q 342 582 395 636 
Q 448 691 521 723 
Q 595 755 678 755 
Q 762 755 835 723 
Q 909 691 963 636 
Q 1018 582 1048 508 
Q 1078 435 1078 352 
Q 1078 266 1048 194 
Q 1018 122 963 67 
Q 909 13 835 -17 
Q 762 -48 678 -48 
Q 595 -48 521 -17 
Q 448 13 395 67 
Q 342 122 312 194 
Q 282 266 282 352 
z
" transform="scale(0.015625)"/>
       </defs>
       <use xlink:href="#Lato-Regular-20ac"/>
       <use xlink:href="#Lato-Regular-31" transform="translate(58 0)"/>
       <use xlink:href="#Lato-Regular-2e" transform="translate(116 0)"/>
       <use xlink:href="#Lato-Regular-32" transform="translate(137.199997 0)"/>
       <use xlink:href="#Lato-Regular-35" transform="translate(195.199997 0)"/>
       <use xlink:href="#Lato-Regular-42" transform="translate(253.199997 0)"/>
      </g>
     </g>
    </g>
    <g id="xtick_7">
     <g id="line2d_7">
      <g>
       <use xlink:href="#m2c24f4558a" x="418.382425" y="314.12" style="fill: #808080; stroke: #808080; stroke-width: 0.8"/>
      </g>
     </g>
     <g id="text_7">
      <!-- €1.5B -->
      <g style="fill: #808080" transform="translate(405.387113 328.485625) scale(0.1 -0.1)">
       <use xlink:href="#Lato-Regular-20ac"/>
       <use xlink:href="#Lato-Regular-31" transform="translate(58 0)"/>
       <use xlink:href="#Lato-Regular-2e" transform="translate(116 0)"/>
       <use xlink:href="#Lato-Regular-35" transform="translate(137.199997 0)"/>
       <use xlink:href="#Lato-Regular-42" transform="translate(195.199997 0)"/>
      </g>
     </g>
    </g>
   </g>
  </g>
  <g id="axes_2">
   <g id="FillBetweenPolyCollection_1">
    <defs>
     <path id="m0a12426d4c" d="M 14.22941 -265.85968 
L 14.22941 -265.85968 
L 15.558317 -265.85968 
L 16.887224 -265.85968 
L 18.216131 -265.85968 
L 19.545038 -265.85968 
L 20.873945 -265.85968 
L 22.202852 -265.85968 
L 23.531759 -265.85968 
L 24.860666 -265.85968 
L 26.189573 -265.85968 
L 27.51848 -265.85968 
L 28.847387 -265.85968 
L 30.176294 -265.85968 
L 31.505201 -265.85968 
L 32.834108 -265.85968 
L 34.163015 -265.85968 
L 35.491922 -265.85968 
L 36.820828 -265.85968 
L 38.149735 -265.85968 
L 39.478642 -265.85968 
L 40.807549 -265.85968 
L 42.136456 -265.85968 
L 43.465363 -265.85968 
L 44.79427 -265.85968 
L 46.123177 -265.85968 
L 47.452084 -265.85968 
L 47.452084 -265.85968 
L 47.452084 -265.85968 
L 46.123177 -281.179101 
L 44.79427 -265.85968 
L 43.465363 -265.85968 
L 42.136456 -265.85968 
L 40.807549 -265.85968 
L 39.478642 -265.85968 
L 38.149735 -281.179101 
L 36.820828 -265.85968 
L 35.491922 -265.85968 
L 34.163015 -265.85968 
L 32.834108 -281.179101 
L 31.505201 -281.179101 
L 30.176294 -265.85968 
L 28.847387 -265.85968 
L 27.51848 -265.85968 
L 26.189573 -281.179101 
L 24.860666 -311.817944 
L 23.531759 -311.817944 
L 22.202852 -265.85968 
L 20.873945 -281.179101 
L 19.545038 -327.137366 
L 18.216131 -281.179101 
L 16.887224 -296.498523 
L 15.558317 -281.179101 
L 14.22941 -265.85968 
z
" style="stroke: #b7e204; stroke-opacity: 0.427273"/>
    </defs>
    <g clip-path="url(#p3176b7351b)">
     <use xlink:href="#m0a12426d4c" x="0" y="337.40125" style="fill: #b7e204; fill-opacity: 0.427273; stroke: #b7e204; stroke-opacity: 0.427273"/>
    </g>
   </g>
   <g id="line2d_8">
    <path d="M 14.22941 71.54157 
L 15.558317 71.54157 
L 16.887224 71.54157 
L 18.216131 71.54157 
L 19.545038 71.54157 
L 20.873945 71.54157 
L 22.202852 71.54157 
L 23.531759 71.54157 
L 24.860666 71.54157 
L 26.189573 71.54157 
L 27.51848 71.54157 
L 28.847387 71.54157 
L 30.176294 71.54157 
L 31.505201 71.54157 
L 32.834108 71.54157 
L 34.163015 71.54157 
L 35.491922 71.54157 
L 36.820828 71.54157 
L 38.149735 71.54157 
L 39.478642 71.54157 
L 40.807549 71.54157 
L 42.136456 71.54157 
L 43.465363 71.54157 
L 44.79427 71.54157 
L 46.123177 71.54157 
L 47.452084 71.54157 
" clip-path="url(#p3176b7351b)" style="fill: none; stroke: #b7e204; stroke-opacity: 0.427273; stroke-width: 1.5; stroke-linecap: square"/>
   </g>
   <g id="line2d_9">
    <path d="M 14.22941 71.54157 
L 15.558317 56.222149 
L 16.887224 40.902727 
L 18.216131 56.222149 
L 19.545038 10.263884 
L 20.873945 56.222149 
L 22.202852 71.54157 
L 23.531759 25.583306 
L 24.860666 25.583306 
L 26.189573 56.222149 
L 27.51848 71.54157 
L 28.847387 71.54157 
L 30.176294 71.54157 
L 31.505201 56.222149 
L 32.834108 56.222149 
L 34.163015 71.54157 
L 35.491922 71.54157 
L 36.820828 71.54157 
L 38.149735 56.222149 
L 39.478642 71.54157 
L 40.807549 71.54157 
L 42.136456 71.54157 
L 43.465363 71.54157 
L 44.79427 71.54157 
L 46.123177 56.222149 
L 47.452084 71.54157 
" clip-path="url(#p3176b7351b)" style="fill: none; stroke: #000000; stroke-opacity: 0.427273; stroke-width: 1.5; stroke-linecap: square"/>
   </g>
  </g>
  <g id="axes_3">
   <g id="FillBetweenPolyCollection_2">
    <defs>
     <path id="m538d2f74ab" d="M 15.768871 -254.454225 
L 15.768871 -254.454225 
L 17.474685 -254.454225 
L 19.1805 -254.454225 
L 20.886314 -254.454225 
L 22.592128 -254.454225 
L 24.297943 -254.454225 
L 26.003757 -254.454225 
L 27.709572 -254.454225 
L 29.415386 -254.454225 
L 31.121201 -254.454225 
L 32.827015 -254.454225 
L 34.532829 -254.454225 
L 36.238644 -254.454225 
L 37.944458 -254.454225 
L 39.650273 -254.454225 
L 41.356087 -254.454225 
L 43.061902 -254.454225 
L 44.767716 -254.454225 
L 46.473531 -254.454225 
L 48.179345 -254.454225 
L 49.885159 -254.454225 
L 51.590974 -254.454225 
L 53.296788 -254.454225 
L 55.002603 -254.454225 
L 56.708417 -254.454225 
L 58.414232 -254.454225 
L 58.414232 -254.454225 
L 58.414232 -254.454225 
L 56.708417 -274.880121 
L 55.002603 -254.454225 
L 53.296788 -254.454225 
L 51.590974 -254.454225 
L 49.885159 -254.454225 
L 48.179345 -254.454225 
L 46.473531 -254.454225 
L 44.767716 -254.454225 
L 43.061902 -254.454225 
L 41.356087 -274.880121 
L 39.650273 -254.454225 
L 37.944458 -254.454225 
L 36.238644 -274.880121 
L 34.532829 -254.454225 
L 32.827015 -274.880121 
L 31.121201 -295.306016 
L 29.415386 -295.306016 
L 27.709572 -295.306016 
L 26.003757 -254.454225 
L 24.297943 -295.306016 
L 22.592128 -295.306016 
L 20.886314 -315.731911 
L 19.1805 -254.454225 
L 17.474685 -315.731911 
L 15.768871 -254.454225 
z
" style="stroke: #b7e204; stroke-opacity: 0.454545"/>
    </defs>
    <g clip-path="url(#pd83a98b06d)">
     <use xlink:href="#m538d2f74ab" x="0" y="337.40125" style="fill: #b7e204; fill-opacity: 0.454545; stroke: #b7e204; stroke-opacity: 0.454545"/>
    </g>
   </g>
   <g id="line2d_10">
    <path d="M 15.768871 82.947025 
L 17.474685 82.947025 
L 19.1805 82.947025 
L 20.886314 82.947025 
L 22.592128 82.947025 
L 24.297943 82.947025 
L 26.003757 82.947025 
L 27.709572 82.947025 
L 29.415386 82.947025 
L 31.121201 82.947025 
L 32.827015 82.947025 
L 34.532829 82.947025 
L 36.238644 82.947025 
L 37.944458 82.947025 
L 39.650273 82.947025 
L 41.356087 82.947025 
L 43.061902 82.947025 
L 44.767716 82.947025 
L 46.473531 82.947025 
L 48.179345 82.947025 
L 49.885159 82.947025 
L 51.590974 82.947025 
L 53.296788 82.947025 
L 55.002603 82.947025 
L 56.708417 82.947025 
L 58.414232 82.947025 
" clip-path="url(#pd83a98b06d)" style="fill: none; stroke: #b7e204; stroke-opacity: 0.454545; stroke-width: 1.5; stroke-linecap: square"/>
   </g>
   <g id="line2d_11">
    <path d="M 15.768871 82.947025 
L 17.474685 21.669339 
L 19.1805 82.947025 
L 20.886314 21.669339 
L 22.592128 42.095234 
L 24.297943 42.095234 
L 26.003757 82.947025 
L 27.709572 42.095234 
L 29.415386 42.095234 
L 31.121201 42.095234 
L 32.827015 62.521129 
L 34.532829 82.947025 
L 36.238644 62.521129 
L 37.944458 82.947025 
L 39.650273 82.947025 
L 41.356087 62.521129 
L 43.061902 82.947025 
L 44.767716 82.947025 
L 46.473531 82.947025 
L 48.179345 82.947025 
L 49.885159 82.947025 
L 51.590974 82.947025 
L 53.296788 82.947025 
L 55.002603 82.947025 
L 56.708417 62.521129 
L 58.414232 82.947025 
" clip-path="url(#pd83a98b06d)" style="fill: none; stroke: #000000; stroke-opacity: 0.454545; stroke-width: 1.5; stroke-linecap: square"/>
   </g>
  </g>
  <g id="axes_4">
   <g id="FillBetweenPolyCollection_3">
    <defs>
     <path id="m7713ae8d9f" d="M 14.874837 -243.048771 
L 14.874837 -243.048771 
L 17.325023 -243.048771 
L 19.77521 -243.048771 
L 22.225397 -243.048771 
L 24.675583 -243.048771 
L 27.12577 -243.048771 
L 29.575956 -243.048771 
L 32.026143 -243.048771 
L 34.476329 -243.048771 
L 36.926516 -243.048771 
L 39.376703 -243.048771 
L 41.826889 -243.048771 
L 44.277076 -243.048771 
L 46.727262 -243.048771 
L 49.177449 -243.048771 
L 51.627636 -243.048771 
L 54.077822 -243.048771 
L 56.528009 -243.048771 
L 58.978195 -243.048771 
L 61.428382 -243.048771 
L 63.878569 -243.048771 
L 66.328755 -243.048771 
L 68.778942 -243.048771 
L 71.229128 -243.048771 
L 73.679315 -243.048771 
L 76.129501 -243.048771 
L 76.129501 -243.048771 
L 76.129501 -243.048771 
L 73.679315 -255.304308 
L 71.229128 -243.048771 
L 68.778942 -243.048771 
L 66.328755 -243.048771 
L 63.878569 -243.048771 
L 61.428382 -243.048771 
L 58.978195 -243.048771 
L 56.528009 -243.048771 
L 54.077822 -243.048771 
L 51.627636 -243.048771 
L 49.177449 -243.048771 
L 46.727262 -243.048771 
L 44.277076 -243.048771 
L 41.826889 -255.304308 
L 39.376703 -243.048771 
L 36.926516 -267.559845 
L 34.476329 -267.559845 
L 32.026143 -279.815382 
L 29.575956 -255.304308 
L 27.12577 -243.048771 
L 24.675583 -255.304308 
L 22.225397 -304.326457 
L 19.77521 -243.048771 
L 17.325023 -292.070919 
L 14.874837 -243.048771 
z
" style="stroke: #b7e204; stroke-opacity: 0.481818"/>
    </defs>
    <g clip-path="url(#p17de670433)">
     <use xlink:href="#m7713ae8d9f" x="0" y="337.40125" style="fill: #b7e204; fill-opacity: 0.481818; stroke: #b7e204; stroke-opacity: 0.481818"/>
    </g>
   </g>
   <g id="line2d_12">
    <path d="M 14.874837 94.352479 
L 17.325023 94.352479 
L 19.77521 94.352479 
L 22.225397 94.352479 
L 24.675583 94.352479 
L 27.12577 94.352479 
L 29.575956 94.352479 
L 32.026143 94.352479 
L 34.476329 94.352479 
L 36.926516 94.352479 
L 39.376703 94.352479 
L 41.826889 94.352479 
L 44.277076 94.352479 
L 46.727262 94.352479 
L 49.177449 94.352479 
L 51.627636 94.352479 
L 54.077822 94.352479 
L 56.528009 94.352479 
L 58.978195 94.352479 
L 61.428382 94.352479 
L 63.878569 94.352479 
L 66.328755 94.352479 
L 68.778942 94.352479 
L 71.229128 94.352479 
L 73.679315 94.352479 
L 76.129501 94.352479 
" clip-path="url(#p17de670433)" style="fill: none; stroke: #b7e204; stroke-opacity: 0.481818; stroke-width: 1.5; stroke-linecap: square"/>
   </g>
   <g id="line2d_13">
    <path d="M 14.874837 94.352479 
L 17.325023 45.330331 
L 19.77521 94.352479 
L 22.225397 33.074793 
L 24.675583 82.096942 
L 27.12577 94.352479 
L 29.575956 82.096942 
L 32.026143 57.585868 
L 34.476329 69.841405 
L 36.926516 69.841405 
L 39.376703 94.352479 
L 41.826889 82.096942 
L 44.277076 94.352479 
L 46.727262 94.352479 
L 49.177449 94.352479 
L 51.627636 94.352479 
L 54.077822 94.352479 
L 56.528009 94.352479 
L 58.978195 94.352479 
L 61.428382 94.352479 
L 63.878569 94.352479 
L 66.328755 94.352479 
L 68.778942 94.352479 
L 71.229128 94.352479 
L 73.679315 82.096942 
L 76.129501 94.352479 
" clip-path="url(#p17de670433)" style="fill: none; stroke: #000000; stroke-opacity: 0.481818; stroke-width: 1.5; stroke-linecap: square"/>
   </g>
  </g>
  <g id="axes_5">
   <g id="FillBetweenPolyCollection_4">
    <defs>
     <path id="m54775d175f" d="M 17.092098 -231.643316 
L 17.092098 -231.643316 
L 19.192554 -231.643316 
L 21.29301 -231.643316 
L 23.393466 -231.643316 
L 25.493922 -231.643316 
L 27.594378 -231.643316 
L 29.694835 -231.643316 
L 31.795291 -231.643316 
L 33.895747 -231.643316 
L 35.996203 -231.643316 
L 38.096659 -231.643316 
L 40.197115 -231.643316 
L 42.297571 -231.643316 
L 44.398027 -231.643316 
L 46.498483 -231.643316 
L 48.598939 -231.643316 
L 50.699395 -231.643316 
L 52.799851 -231.643316 
L 54.900307 -231.643316 
L 57.000763 -231.643316 
L 59.101219 -231.643316 
L 61.201675 -231.643316 
L 63.302131 -231.643316 
L 65.402587 -231.643316 
L 67.503043 -231.643316 
L 69.603499 -231.643316 
L 69.603499 -231.643316 
L 69.603499 -231.643316 
L 67.503043 -243.898853 
L 65.402587 -231.643316 
L 63.302131 -231.643316 
L 61.201675 -231.643316 
L 59.101219 -231.643316 
L 57.000763 -231.643316 
L 54.900307 -231.643316 
L 52.799851 -231.643316 
L 50.699395 -231.643316 
L 48.598939 -243.898853 
L 46.498483 -231.643316 
L 44.398027 -231.643316 
L 42.297571 -231.643316 
L 40.197115 -231.643316 
L 38.096659 -243.898853 
L 35.996203 -231.643316 
L 33.895747 -243.898853 
L 31.795291 -256.15439 
L 29.694835 -292.921002 
L 27.594378 -256.15439 
L 25.493922 -256.15439 
L 23.393466 -243.898853 
L 21.29301 -268.409928 
L 19.192554 -243.898853 
L 17.092098 -231.643316 
z
" style="stroke: #b7e204; stroke-opacity: 0.509091"/>
    </defs>
    <g clip-path="url(#pdd48cb9479)">
     <use xlink:href="#m54775d175f" x="0" y="337.40125" style="fill: #b7e204; fill-opacity: 0.509091; stroke: #b7e204; stroke-opacity: 0.509091"/>
    </g>
   </g>
   <g id="line2d_14">
    <path d="M 17.092098 105.757934 
L 19.192554 105.757934 
L 21.29301 105.757934 
L 23.393466 105.757934 
L 25.493922 105.757934 
L 27.594378 105.757934 
L 29.694835 105.757934 
L 31.795291 105.757934 
L 33.895747 105.757934 
L 35.996203 105.757934 
L 38.096659 105.757934 
L 40.197115 105.757934 
L 42.297571 105.757934 
L 44.398027 105.757934 
L 46.498483 105.757934 
L 48.598939 105.757934 
L 50.699395 105.757934 
L 52.799851 105.757934 
L 54.900307 105.757934 
L 57.000763 105.757934 
L 59.101219 105.757934 
L 61.201675 105.757934 
L 63.302131 105.757934 
L 65.402587 105.757934 
L 67.503043 105.757934 
L 69.603499 105.757934 
" clip-path="url(#pdd48cb9479)" style="fill: none; stroke: #b7e204; stroke-opacity: 0.509091; stroke-width: 1.5; stroke-linecap: square"/>
   </g>
   <g id="line2d_15">
    <path d="M 17.092098 105.757934 
L 19.192554 93.502397 
L 21.29301 68.991322 
L 23.393466 93.502397 
L 25.493922 81.24686 
L 27.594378 81.24686 
L 29.694835 44.480248 
L 31.795291 81.24686 
L 33.895747 93.502397 
L 35.996203 105.757934 
L 38.096659 93.502397 
L 40.197115 105.757934 
L 42.297571 105.757934 
L 44.398027 105.757934 
L 46.498483 105.757934 
L 48.598939 93.502397 
L 50.699395 105.757934 
L 52.799851 105.757934 
L 54.900307 105.757934 
L 57.000763 105.757934 
L 59.101219 105.757934 
L 61.201675 105.757934 
L 63.302131 105.757934 
L 65.402587 105.757934 
L 67.503043 93.502397 
L 69.603499 105.757934 
" clip-path="url(#pdd48cb9479)" style="fill: none; stroke: #000000; stroke-opacity: 0.509091; stroke-width: 1.5; stroke-linecap: square"/>
   </g>
  </g>
  <g id="axes_6">
   <g id="FillBetweenPolyCollection_5">
    <defs>
     <path id="m58b3a7178d" d="M 17.301081 -220.237862 
L 17.301081 -220.237862 
L 19.374476 -220.237862 
L 21.44787 -220.237862 
L 23.521264 -220.237862 
L 25.594658 -220.237862 
L 27.668053 -220.237862 
L 29.741447 -220.237862 
L 31.814841 -220.237862 
L 33.888235 -220.237862 
L 35.96163 -220.237862 
L 38.035024 -220.237862 
L 40.108418 -220.237862 
L 42.181812 -220.237862 
L 44.255207 -220.237862 
L 46.328601 -220.237862 
L 48.401995 -220.237862 
L 50.475389 -220.237862 
L 52.548784 -220.237862 
L 54.622178 -220.237862 
L 56.695572 -220.237862 
L 58.768966 -220.237862 
L 60.842361 -220.237862 
L 62.915755 -220.237862 
L 64.989149 -220.237862 
L 67.062543 -220.237862 
L 69.135938 -220.237862 
L 69.135938 -220.237862 
L 69.135938 -220.237862 
L 67.062543 -235.557283 
L 64.989149 -220.237862 
L 62.915755 -220.237862 
L 60.842361 -220.237862 
L 58.768966 -220.237862 
L 56.695572 -220.237862 
L 54.622178 -220.237862 
L 52.548784 -220.237862 
L 50.475389 -235.557283 
L 48.401995 -220.237862 
L 46.328601 -220.237862 
L 44.255207 -235.557283 
L 42.181812 -220.237862 
L 40.108418 -220.237862 
L 38.035024 -220.237862 
L 35.96163 -235.557283 
L 33.888235 -220.237862 
L 31.814841 -281.515548 
L 29.741447 -235.557283 
L 27.668053 -220.237862 
L 25.594658 -266.196126 
L 23.521264 -266.196126 
L 21.44787 -266.196126 
L 19.374476 -250.876705 
L 17.301081 -220.237862 
z
" style="stroke: #b7e204; stroke-opacity: 0.536364"/>
    </defs>
    <g clip-path="url(#pee887f3808)">
     <use xlink:href="#m58b3a7178d" x="0" y="337.40125" style="fill: #b7e204; fill-opacity: 0.536364; stroke: #b7e204; stroke-opacity: 0.536364"/>
    </g>
   </g>
   <g id="line2d_16">
    <path d="M 17.301081 117.163388 
L 19.374476 117.163388 
L 21.44787 117.163388 
L 23.521264 117.163388 
L 25.594658 117.163388 
L 27.668053 117.163388 
L 29.741447 117.163388 
L 31.814841 117.163388 
L 33.888235 117.163388 
L 35.96163 117.163388 
L 38.035024 117.163388 
L 40.108418 117.163388 
L 42.181812 117.163388 
L 44.255207 117.163388 
L 46.328601 117.163388 
L 48.401995 117.163388 
L 50.475389 117.163388 
L 52.548784 117.163388 
L 54.622178 117.163388 
L 56.695572 117.163388 
L 58.768966 117.163388 
L 60.842361 117.163388 
L 62.915755 117.163388 
L 64.989149 117.163388 
L 67.062543 117.163388 
L 69.135938 117.163388 
" clip-path="url(#pee887f3808)" style="fill: none; stroke: #b7e204; stroke-opacity: 0.536364; stroke-width: 1.5; stroke-linecap: square"/>
   </g>
   <g id="line2d_17">
    <path d="M 17.301081 117.163388 
L 19.374476 86.524545 
L 21.44787 71.205124 
L 23.521264 71.205124 
L 25.594658 71.205124 
L 27.668053 117.163388 
L 29.741447 101.843967 
L 31.814841 55.885702 
L 33.888235 117.163388 
L 35.96163 101.843967 
L 38.035024 117.163388 
L 40.108418 117.163388 
L 42.181812 117.163388 
L 44.255207 101.843967 
L 46.328601 117.163388 
L 48.401995 117.163388 
L 50.475389 101.843967 
L 52.548784 117.163388 
L 54.622178 117.163388 
L 56.695572 117.163388 
L 58.768966 117.163388 
L 60.842361 117.163388 
L 62.915755 117.163388 
L 64.989149 117.163388 
L 67.062543 101.843967 
L 69.135938 117.163388 
" clip-path="url(#pee887f3808)" style="fill: none; stroke: #000000; stroke-opacity: 0.536364; stroke-width: 1.5; stroke-linecap: square"/>
   </g>
  </g>
  <g id="axes_7">
   <g id="FillBetweenPolyCollection_6">
    <defs>
     <path id="mbd78bf0218" d="M 17.005731 -208.832407 
L 17.005731 -208.832407 
L 19.053215 -208.832407 
L 21.100699 -208.832407 
L 23.148183 -208.832407 
L 25.195667 -208.832407 
L 27.243151 -208.832407 
L 29.290635 -208.832407 
L 31.338119 -208.832407 
L 33.385603 -208.832407 
L 35.433087 -208.832407 
L 37.480571 -208.832407 
L 39.528055 -208.832407 
L 41.575539 -208.832407 
L 43.623023 -208.832407 
L 45.670507 -208.832407 
L 47.717991 -208.832407 
L 49.765475 -208.832407 
L 51.812959 -208.832407 
L 53.860443 -208.832407 
L 55.907927 -208.832407 
L 57.955411 -208.832407 
L 60.002895 -208.832407 
L 62.050379 -208.832407 
L 64.097863 -208.832407 
L 66.145347 -208.832407 
L 68.192831 -208.832407 
L 68.192831 -208.832407 
L 68.192831 -208.832407 
L 66.145347 -229.258302 
L 64.097863 -208.832407 
L 62.050379 -208.832407 
L 60.002895 -208.832407 
L 57.955411 -208.832407 
L 55.907927 -208.832407 
L 53.860443 -208.832407 
L 51.812959 -208.832407 
L 49.765475 -249.684198 
L 47.717991 -208.832407 
L 45.670507 -208.832407 
L 43.623023 -208.832407 
L 41.575539 -208.832407 
L 39.528055 -229.258302 
L 37.480571 -208.832407 
L 35.433087 -249.684198 
L 33.385603 -249.684198 
L 31.338119 -229.258302 
L 29.290635 -208.832407 
L 27.243151 -270.110093 
L 25.195667 -270.110093 
L 23.148183 -270.110093 
L 21.100699 -208.832407 
L 19.053215 -249.684198 
L 17.005731 -208.832407 
z
" style="stroke: #b7e204; stroke-opacity: 0.563636"/>
    </defs>
    <g clip-path="url(#pf0a0b5fe5c)">
     <use xlink:href="#mbd78bf0218" x="0" y="337.40125" style="fill: #b7e204; fill-opacity: 0.563636; stroke: #b7e204; stroke-opacity: 0.563636"/>
    </g>
   </g>
   <g id="line2d_18">
    <path d="M 17.005731 128.568843 
L 19.053215 128.568843 
L 21.100699 128.568843 
L 23.148183 128.568843 
L 25.195667 128.568843 
L 27.243151 128.568843 
L 29.290635 128.568843 
L 31.338119 128.568843 
L 33.385603 128.568843 
L 35.433087 128.568843 
L 37.480571 128.568843 
L 39.528055 128.568843 
L 41.575539 128.568843 
L 43.623023 128.568843 
L 45.670507 128.568843 
L 47.717991 128.568843 
L 49.765475 128.568843 
L 51.812959 128.568843 
L 53.860443 128.568843 
L 55.907927 128.568843 
L 57.955411 128.568843 
L 60.002895 128.568843 
L 62.050379 128.568843 
L 64.097863 128.568843 
L 66.145347 128.568843 
L 68.192831 128.568843 
" clip-path="url(#pf0a0b5fe5c)" style="fill: none; stroke: #b7e204; stroke-opacity: 0.563636; stroke-width: 1.5; stroke-linecap: square"/>
   </g>
   <g id="line2d_19">
    <path d="M 17.005731 128.568843 
L 19.053215 87.717052 
L 21.100699 128.568843 
L 23.148183 67.291157 
L 25.195667 67.291157 
L 27.243151 67.291157 
L 29.290635 128.568843 
L 31.338119 108.142948 
L 33.385603 87.717052 
L 35.433087 87.717052 
L 37.480571 128.568843 
L 39.528055 108.142948 
L 41.575539 128.568843 
L 43.623023 128.568843 
L 45.670507 128.568843 
L 47.717991 128.568843 
L 49.765475 87.717052 
L 51.812959 128.568843 
L 53.860443 128.568843 
L 55.907927 128.568843 
L 57.955411 128.568843 
L 60.002895 128.568843 
L 62.050379 128.568843 
L 64.097863 128.568843 
L 66.145347 108.142948 
L 68.192831 128.568843 
" clip-path="url(#pf0a0b5fe5c)" style="fill: none; stroke: #000000; stroke-opacity: 0.563636; stroke-width: 1.5; stroke-linecap: square"/>
   </g>
  </g>
  <g id="axes_8">
   <g id="FillBetweenPolyCollection_7">
    <defs>
     <path id="m6b3a05da7f" d="M 14.193031 -197.426952 
L 14.193031 -197.426952 
L 16.154148 -197.426952 
L 18.115264 -197.426952 
L 20.076381 -197.426952 
L 22.037498 -197.426952 
L 23.998614 -197.426952 
L 25.959731 -197.426952 
L 27.920847 -197.426952 
L 29.881964 -197.426952 
L 31.843081 -197.426952 
L 33.804197 -197.426952 
L 35.765314 -197.426952 
L 37.72643 -197.426952 
L 39.687547 -197.426952 
L 41.648663 -197.426952 
L 43.60978 -197.426952 
L 45.570897 -197.426952 
L 47.532013 -197.426952 
L 49.49313 -197.426952 
L 51.454246 -197.426952 
L 53.415363 -197.426952 
L 55.37648 -197.426952 
L 57.337596 -197.426952 
L 59.298713 -197.426952 
L 61.259829 -197.426952 
L 63.220946 -197.426952 
L 63.220946 -197.426952 
L 63.220946 -197.426952 
L 61.259829 -217.852848 
L 59.298713 -197.426952 
L 57.337596 -197.426952 
L 55.37648 -217.852848 
L 53.415363 -197.426952 
L 51.454246 -197.426952 
L 49.49313 -197.426952 
L 47.532013 -197.426952 
L 45.570897 -217.852848 
L 43.60978 -217.852848 
L 41.648663 -197.426952 
L 39.687547 -217.852848 
L 37.72643 -217.852848 
L 35.765314 -197.426952 
L 33.804197 -197.426952 
L 31.843081 -217.852848 
L 29.881964 -238.278743 
L 27.920847 -258.704638 
L 25.959731 -238.278743 
L 23.998614 -238.278743 
L 22.037498 -217.852848 
L 20.076381 -238.278743 
L 18.115264 -197.426952 
L 16.154148 -217.852848 
L 14.193031 -197.426952 
z
" style="stroke: #b7e204; stroke-opacity: 0.590909"/>
    </defs>
    <g clip-path="url(#p4643e3be48)">
     <use xlink:href="#m6b3a05da7f" x="0" y="337.40125" style="fill: #b7e204; fill-opacity: 0.590909; stroke: #b7e204; stroke-opacity: 0.590909"/>
    </g>
   </g>
   <g id="line2d_20">
    <path d="M 14.193031 139.974298 
L 16.154148 139.974298 
L 18.115264 139.974298 
L 20.076381 139.974298 
L 22.037498 139.974298 
L 23.998614 139.974298 
L 25.959731 139.974298 
L 27.920847 139.974298 
L 29.881964 139.974298 
L 31.843081 139.974298 
L 33.804197 139.974298 
L 35.765314 139.974298 
L 37.72643 139.974298 
L 39.687547 139.974298 
L 41.648663 139.974298 
L 43.60978 139.974298 
L 45.570897 139.974298 
L 47.532013 139.974298 
L 49.49313 139.974298 
L 51.454246 139.974298 
L 53.415363 139.974298 
L 55.37648 139.974298 
L 57.337596 139.974298 
L 59.298713 139.974298 
L 61.259829 139.974298 
L 63.220946 139.974298 
" clip-path="url(#p4643e3be48)" style="fill: none; stroke: #b7e204; stroke-opacity: 0.590909; stroke-width: 1.5; stroke-linecap: square"/>
   </g>
   <g id="line2d_21">
    <path d="M 14.193031 139.974298 
L 16.154148 119.548402 
L 18.115264 139.974298 
L 20.076381 99.122507 
L 22.037498 119.548402 
L 23.998614 99.122507 
L 25.959731 99.122507 
L 27.920847 78.696612 
L 29.881964 99.122507 
L 31.843081 119.548402 
L 33.804197 139.974298 
L 35.765314 139.974298 
L 37.72643 119.548402 
L 39.687547 119.548402 
L 41.648663 139.974298 
L 43.60978 119.548402 
L 45.570897 119.548402 
L 47.532013 139.974298 
L 49.49313 139.974298 
L 51.454246 139.974298 
L 53.415363 139.974298 
L 55.37648 119.548402 
L 57.337596 139.974298 
L 59.298713 139.974298 
L 61.259829 119.548402 
L 63.220946 139.974298 
" clip-path="url(#p4643e3be48)" style="fill: none; stroke: #000000; stroke-opacity: 0.590909; stroke-width: 1.5; stroke-linecap: square"/>
   </g>
  </g>
  <g id="axes_9">
   <g id="FillBetweenPolyCollection_8">
    <defs>
     <path id="m92f583fe59" d="M 15.877589 -186.021498 
L 15.877589 -186.021498 
L 18.002804 -186.021498 
L 20.128018 -186.021498 
L 22.253233 -186.021498 
L 24.378448 -186.021498 
L 26.503662 -186.021498 
L 28.628877 -186.021498 
L 30.754092 -186.021498 
L 32.879307 -186.021498 
L 35.004521 -186.021498 
L 37.129736 -186.021498 
L 39.254951 -186.021498 
L 41.380165 -186.021498 
L 43.50538 -186.021498 
L 45.630595 -186.021498 
L 47.75581 -186.021498 
L 49.881024 -186.021498 
L 52.006239 -186.021498 
L 54.131454 -186.021498 
L 56.256668 -186.021498 
L 58.381883 -186.021498 
L 60.507098 -186.021498 
L 62.632313 -186.021498 
L 64.757527 -186.021498 
L 66.882742 -186.021498 
L 69.007957 -186.021498 
L 69.007957 -186.021498 
L 69.007957 -186.021498 
L 66.882742 -201.340919 
L 64.757527 -186.021498 
L 62.632313 -186.021498 
L 60.507098 -186.021498 
L 58.381883 -186.021498 
L 56.256668 -186.021498 
L 54.131454 -201.340919 
L 52.006239 -186.021498 
L 49.881024 -216.660341 
L 47.75581 -186.021498 
L 45.630595 -186.021498 
L 43.50538 -186.021498 
L 41.380165 -186.021498 
L 39.254951 -186.021498 
L 37.129736 -201.340919 
L 35.004521 -186.021498 
L 32.879307 -247.299184 
L 30.754092 -186.021498 
L 28.628877 -186.021498 
L 26.503662 -201.340919 
L 24.378448 -247.299184 
L 22.253233 -216.660341 
L 20.128018 -201.340919 
L 18.002804 -231.979762 
L 15.877589 -186.021498 
z
" style="stroke: #b7e204; stroke-opacity: 0.618182"/>
    </defs>
    <g clip-path="url(#p9bb8375d25)">
     <use xlink:href="#m92f583fe59" x="0" y="337.40125" style="fill: #b7e204; fill-opacity: 0.618182; stroke: #b7e204; stroke-opacity: 0.618182"/>
    </g>
   </g>
   <g id="line2d_22">
    <path d="M 15.877589 151.379752 
L 18.002804 151.379752 
L 20.128018 151.379752 
L 22.253233 151.379752 
L 24.378448 151.379752 
L 26.503662 151.379752 
L 28.628877 151.379752 
L 30.754092 151.379752 
L 32.879307 151.379752 
L 35.004521 151.379752 
L 37.129736 151.379752 
L 39.254951 151.379752 
L 41.380165 151.379752 
L 43.50538 151.379752 
L 45.630595 151.379752 
L 47.75581 151.379752 
L 49.881024 151.379752 
L 52.006239 151.379752 
L 54.131454 151.379752 
L 56.256668 151.379752 
L 58.381883 151.379752 
L 60.507098 151.379752 
L 62.632313 151.379752 
L 64.757527 151.379752 
L 66.882742 151.379752 
L 69.007957 151.379752 
" clip-path="url(#p9bb8375d25)" style="fill: none; stroke: #b7e204; stroke-opacity: 0.618182; stroke-width: 1.5; stroke-linecap: square"/>
   </g>
   <g id="line2d_23">
    <path d="M 15.877589 151.379752 
L 18.002804 105.421488 
L 20.128018 136.060331 
L 22.253233 120.740909 
L 24.378448 90.102066 
L 26.503662 136.060331 
L 28.628877 151.379752 
L 30.754092 151.379752 
L 32.879307 90.102066 
L 35.004521 151.379752 
L 37.129736 136.060331 
L 39.254951 151.379752 
L 41.380165 151.379752 
L 43.50538 151.379752 
L 45.630595 151.379752 
L 47.75581 151.379752 
L 49.881024 120.740909 
L 52.006239 151.379752 
L 54.131454 136.060331 
L 56.256668 151.379752 
L 58.381883 151.379752 
L 60.507098 151.379752 
L 62.632313 151.379752 
L 64.757527 151.379752 
L 66.882742 136.060331 
L 69.007957 151.379752 
" clip-path="url(#p9bb8375d25)" style="fill: none; stroke: #000000; stroke-opacity: 0.618182; stroke-width: 1.5; stroke-linecap: square"/>
   </g>
  </g>
  <g id="axes_10">
   <g id="FillBetweenPolyCollection_9">
    <defs>
     <path id="m0bc8bdbd65" d="M 13.742612 -174.616043 
L 13.742612 -174.616043 
L 17.102881 -174.616043 
L 20.46315 -174.616043 
L 23.823419 -174.616043 
L 27.183688 -174.616043 
L 30.543957 -174.616043 
L 33.904226 -174.616043 
L 37.264495 -174.616043 
L 40.624764 -174.616043 
L 43.985033 -174.616043 
L 47.345303 -174.616043 
L 50.705572 -174.616043 
L 54.065841 -174.616043 
L 57.42611 -174.616043 
L 60.786379 -174.616043 
L 64.146648 -174.616043 
L 67.506917 -174.616043 
L 70.867186 -174.616043 
L 74.227455 -174.616043 
L 77.587724 -174.616043 
L 80.947993 -174.616043 
L 84.308262 -174.616043 
L 87.668531 -174.616043 
L 91.0288 -174.616043 
L 94.389069 -174.616043 
L 97.749338 -174.616043 
L 97.749338 -174.616043 
L 97.749338 -174.616043 
L 94.389069 -186.871581 
L 91.0288 -174.616043 
L 87.668531 -174.616043 
L 84.308262 -174.616043 
L 80.947993 -174.616043 
L 77.587724 -174.616043 
L 74.227455 -174.616043 
L 70.867186 -174.616043 
L 67.506917 -174.616043 
L 64.146648 -174.616043 
L 60.786379 -174.616043 
L 57.42611 -174.616043 
L 54.065841 -186.871581 
L 50.705572 -186.871581 
L 47.345303 -174.616043 
L 43.985033 -174.616043 
L 40.624764 -186.871581 
L 37.264495 -199.127118 
L 33.904226 -186.871581 
L 30.543957 -199.127118 
L 27.183688 -199.127118 
L 23.823419 -199.127118 
L 20.46315 -235.893729 
L 17.102881 -199.127118 
L 13.742612 -174.616043 
z
" style="stroke: #b7e204; stroke-opacity: 0.645455"/>
    </defs>
    <g clip-path="url(#pa5564cd951)">
     <use xlink:href="#m0bc8bdbd65" x="0" y="337.40125" style="fill: #b7e204; fill-opacity: 0.645455; stroke: #b7e204; stroke-opacity: 0.645455"/>
    </g>
   </g>
   <g id="line2d_24">
    <path d="M 13.742612 162.785207 
L 17.102881 162.785207 
L 20.46315 162.785207 
L 23.823419 162.785207 
L 27.183688 162.785207 
L 30.543957 162.785207 
L 33.904226 162.785207 
L 37.264495 162.785207 
L 40.624764 162.785207 
L 43.985033 162.785207 
L 47.345303 162.785207 
L 50.705572 162.785207 
L 54.065841 162.785207 
L 57.42611 162.785207 
L 60.786379 162.785207 
L 64.146648 162.785207 
L 67.506917 162.785207 
L 70.867186 162.785207 
L 74.227455 162.785207 
L 77.587724 162.785207 
L 80.947993 162.785207 
L 84.308262 162.785207 
L 87.668531 162.785207 
L 91.0288 162.785207 
L 94.389069 162.785207 
L 97.749338 162.785207 
" clip-path="url(#pa5564cd951)" style="fill: none; stroke: #b7e204; stroke-opacity: 0.645455; stroke-width: 1.5; stroke-linecap: square"/>
   </g>
   <g id="line2d_25">
    <path d="M 13.742612 162.785207 
L 17.102881 138.274132 
L 20.46315 101.507521 
L 23.823419 138.274132 
L 27.183688 138.274132 
L 30.543957 138.274132 
L 33.904226 150.529669 
L 37.264495 138.274132 
L 40.624764 150.529669 
L 43.985033 162.785207 
L 47.345303 162.785207 
L 50.705572 150.529669 
L 54.065841 150.529669 
L 57.42611 162.785207 
L 60.786379 162.785207 
L 64.146648 162.785207 
L 67.506917 162.785207 
L 70.867186 162.785207 
L 74.227455 162.785207 
L 77.587724 162.785207 
L 80.947993 162.785207 
L 84.308262 162.785207 
L 87.668531 162.785207 
L 91.0288 162.785207 
L 94.389069 150.529669 
L 97.749338 162.785207 
" clip-path="url(#pa5564cd951)" style="fill: none; stroke: #000000; stroke-opacity: 0.645455; stroke-width: 1.5; stroke-linecap: square"/>
   </g>
  </g>
  <g id="axes_11">
   <g id="FillBetweenPolyCollection_10">
    <defs>
     <path id="m5edf6bb157" d="M 12.942562 -163.210589 
L 12.942562 -163.210589 
L 17.32853 -163.210589 
L 21.714499 -163.210589 
L 26.100468 -163.210589 
L 30.486437 -163.210589 
L 34.872405 -163.210589 
L 39.258374 -163.210589 
L 43.644343 -163.210589 
L 48.030311 -163.210589 
L 52.41628 -163.210589 
L 56.802249 -163.210589 
L 61.188218 -163.210589 
L 65.574186 -163.210589 
L 69.960155 -163.210589 
L 74.346124 -163.210589 
L 78.732093 -163.210589 
L 83.118061 -163.210589 
L 87.50403 -163.210589 
L 91.889999 -163.210589 
L 96.275967 -163.210589 
L 100.661936 -163.210589 
L 105.047905 -163.210589 
L 109.433874 -163.210589 
L 113.819842 -163.210589 
L 118.205811 -163.210589 
L 122.59178 -163.210589 
L 122.59178 -163.210589 
L 122.59178 -163.210589 
L 118.205811 -173.423537 
L 113.819842 -163.210589 
L 109.433874 -163.210589 
L 105.047905 -163.210589 
L 100.661936 -163.210589 
L 96.275967 -163.210589 
L 91.889999 -163.210589 
L 87.50403 -163.210589 
L 83.118061 -163.210589 
L 78.732093 -163.210589 
L 74.346124 -173.423537 
L 69.960155 -163.210589 
L 65.574186 -163.210589 
L 61.188218 -163.210589 
L 56.802249 -163.210589 
L 52.41628 -163.210589 
L 48.030311 -173.423537 
L 43.644343 -163.210589 
L 39.258374 -183.636484 
L 34.872405 -173.423537 
L 30.486437 -183.636484 
L 26.100468 -204.062379 
L 21.714499 -224.488275 
L 17.32853 -183.636484 
L 12.942562 -163.210589 
z
" style="stroke: #b7e204; stroke-opacity: 0.672727"/>
    </defs>
    <g clip-path="url(#pd46d56b1c7)">
     <use xlink:href="#m5edf6bb157" x="0" y="337.40125" style="fill: #b7e204; fill-opacity: 0.672727; stroke: #b7e204; stroke-opacity: 0.672727"/>
    </g>
   </g>
   <g id="line2d_26">
    <path d="M 12.942562 174.190661 
L 17.32853 174.190661 
L 21.714499 174.190661 
L 26.100468 174.190661 
L 30.486437 174.190661 
L 34.872405 174.190661 
L 39.258374 174.190661 
L 43.644343 174.190661 
L 48.030311 174.190661 
L 52.41628 174.190661 
L 56.802249 174.190661 
L 61.188218 174.190661 
L 65.574186 174.190661 
L 69.960155 174.190661 
L 74.346124 174.190661 
L 78.732093 174.190661 
L 83.118061 174.190661 
L 87.50403 174.190661 
L 91.889999 174.190661 
L 96.275967 174.190661 
L 100.661936 174.190661 
L 105.047905 174.190661 
L 109.433874 174.190661 
L 113.819842 174.190661 
L 118.205811 174.190661 
L 122.59178 174.190661 
" clip-path="url(#pd46d56b1c7)" style="fill: none; stroke: #b7e204; stroke-opacity: 0.672727; stroke-width: 1.5; stroke-linecap: square"/>
   </g>
   <g id="line2d_27">
    <path d="M 12.942562 174.190661 
L 17.32853 153.764766 
L 21.714499 112.912975 
L 26.100468 133.338871 
L 30.486437 153.764766 
L 34.872405 163.977713 
L 39.258374 153.764766 
L 43.644343 174.190661 
L 48.030311 163.977713 
L 52.41628 174.190661 
L 56.802249 174.190661 
L 61.188218 174.190661 
L 65.574186 174.190661 
L 69.960155 174.190661 
L 74.346124 163.977713 
L 78.732093 174.190661 
L 83.118061 174.190661 
L 87.50403 174.190661 
L 91.889999 174.190661 
L 96.275967 174.190661 
L 100.661936 174.190661 
L 105.047905 174.190661 
L 109.433874 174.190661 
L 113.819842 174.190661 
L 118.205811 163.977713 
L 122.59178 174.190661 
" clip-path="url(#pd46d56b1c7)" style="fill: none; stroke: #000000; stroke-opacity: 0.672727; stroke-width: 1.5; stroke-linecap: square"/>
   </g>
  </g>
  <g id="axes_12">
   <g id="FillBetweenPolyCollection_11">
    <defs>
     <path id="m5230ee7fec" d="M 14.859893 -151.805134 
L 14.859893 -151.805134 
L 18.737215 -151.805134 
L 22.614537 -151.805134 
L 26.491859 -151.805134 
L 30.369181 -151.805134 
L 34.246503 -151.805134 
L 38.123825 -151.805134 
L 42.001147 -151.805134 
L 45.878469 -151.805134 
L 49.755792 -151.805134 
L 53.633114 -151.805134 
L 57.510436 -151.805134 
L 61.387758 -151.805134 
L 65.26508 -151.805134 
L 69.142402 -151.805134 
L 73.019724 -151.805134 
L 76.897046 -151.805134 
L 80.774368 -151.805134 
L 84.65169 -151.805134 
L 88.529013 -151.805134 
L 92.406335 -151.805134 
L 96.283657 -151.805134 
L 100.160979 -151.805134 
L 104.038301 -151.805134 
L 107.915623 -151.805134 
L 111.792945 -151.805134 
L 111.792945 -151.805134 
L 111.792945 -151.805134 
L 107.915623 -162.018082 
L 104.038301 -151.805134 
L 100.160979 -151.805134 
L 96.283657 -151.805134 
L 92.406335 -151.805134 
L 88.529013 -151.805134 
L 84.65169 -151.805134 
L 80.774368 -151.805134 
L 76.897046 -151.805134 
L 73.019724 -151.805134 
L 69.142402 -151.805134 
L 65.26508 -151.805134 
L 61.387758 -162.018082 
L 57.510436 -151.805134 
L 53.633114 -151.805134 
L 49.755792 -172.23103 
L 45.878469 -151.805134 
L 42.001147 -151.805134 
L 38.123825 -151.805134 
L 34.246503 -172.23103 
L 30.369181 -162.018082 
L 26.491859 -182.443977 
L 22.614537 -192.656925 
L 18.737215 -213.08282 
L 14.859893 -151.805134 
z
" style="stroke: #b7e204; stroke-opacity: 0.7"/>
    </defs>
    <g clip-path="url(#p6b6518b6b4)">
     <use xlink:href="#m5230ee7fec" x="0" y="337.40125" style="fill: #b7e204; fill-opacity: 0.7; stroke: #b7e204; stroke-opacity: 0.7"/>
    </g>
   </g>
   <g id="line2d_28">
    <path d="M 14.859893 185.596116 
L 18.737215 185.596116 
L 22.614537 185.596116 
L 26.491859 185.596116 
L 30.369181 185.596116 
L 34.246503 185.596116 
L 38.123825 185.596116 
L 42.001147 185.596116 
L 45.878469 185.596116 
L 49.755792 185.596116 
L 53.633114 185.596116 
L 57.510436 185.596116 
L 61.387758 185.596116 
L 65.26508 185.596116 
L 69.142402 185.596116 
L 73.019724 185.596116 
L 76.897046 185.596116 
L 80.774368 185.596116 
L 84.65169 185.596116 
L 88.529013 185.596116 
L 92.406335 185.596116 
L 96.283657 185.596116 
L 100.160979 185.596116 
L 104.038301 185.596116 
L 107.915623 185.596116 
L 111.792945 185.596116 
" clip-path="url(#p6b6518b6b4)" style="fill: none; stroke: #b7e204; stroke-opacity: 0.7; stroke-width: 1.5; stroke-linecap: square"/>
   </g>
   <g id="line2d_29">
    <path d="M 14.859893 185.596116 
L 18.737215 124.31843 
L 22.614537 144.744325 
L 26.491859 154.957273 
L 30.369181 175.383168 
L 34.246503 165.17022 
L 38.123825 185.596116 
L 42.001147 185.596116 
L 45.878469 185.596116 
L 49.755792 165.17022 
L 53.633114 185.596116 
L 57.510436 185.596116 
L 61.387758 175.383168 
L 65.26508 185.596116 
L 69.142402 185.596116 
L 73.019724 185.596116 
L 76.897046 185.596116 
L 80.774368 185.596116 
L 84.65169 185.596116 
L 88.529013 185.596116 
L 92.406335 185.596116 
L 96.283657 185.596116 
L 100.160979 185.596116 
L 104.038301 185.596116 
L 107.915623 175.383168 
L 111.792945 185.596116 
" clip-path="url(#p6b6518b6b4)" style="fill: none; stroke: #000000; stroke-opacity: 0.7; stroke-width: 1.5; stroke-linecap: square"/>
   </g>
  </g>
  <g id="axes_13">
   <g id="FillBetweenPolyCollection_12">
    <defs>
     <path id="md2d8173a12" d="M 11.827087 -140.39968 
L 11.827087 -140.39968 
L 16.639481 -140.39968 
L 21.451874 -140.39968 
L 26.264268 -140.39968 
L 31.076661 -140.39968 
L 35.889055 -140.39968 
L 40.701448 -140.39968 
L 45.513842 -140.39968 
L 50.326235 -140.39968 
L 55.138629 -140.39968 
L 59.951022 -140.39968 
L 64.763416 -140.39968 
L 69.57581 -140.39968 
L 74.388203 -140.39968 
L 79.200597 -140.39968 
L 84.01299 -140.39968 
L 88.825384 -140.39968 
L 93.637777 -140.39968 
L 98.450171 -140.39968 
L 103.262564 -140.39968 
L 108.074958 -140.39968 
L 112.887351 -140.39968 
L 117.699745 -140.39968 
L 122.512138 -140.39968 
L 127.324532 -140.39968 
L 132.136926 -140.39968 
L 132.136926 -140.39968 
L 132.136926 -140.39968 
L 127.324532 -150.612627 
L 122.512138 -140.39968 
L 117.699745 -140.39968 
L 112.887351 -140.39968 
L 108.074958 -140.39968 
L 103.262564 -140.39968 
L 98.450171 -140.39968 
L 93.637777 -140.39968 
L 88.825384 -140.39968 
L 84.01299 -140.39968 
L 79.200597 -140.39968 
L 74.388203 -150.612627 
L 69.57581 -140.39968 
L 64.763416 -140.39968 
L 59.951022 -140.39968 
L 55.138629 -150.612627 
L 50.326235 -140.39968 
L 45.513842 -150.612627 
L 40.701448 -140.39968 
L 35.889055 -171.038523 
L 31.076661 -160.825575 
L 26.264268 -150.612627 
L 21.451874 -201.677366 
L 16.639481 -181.25147 
L 11.827087 -140.39968 
z
" style="stroke: #b7e204; stroke-opacity: 0.727273"/>
    </defs>
    <g clip-path="url(#pfa0f0f1e8a)">
     <use xlink:href="#md2d8173a12" x="0" y="337.40125" style="fill: #b7e204; fill-opacity: 0.727273; stroke: #b7e204; stroke-opacity: 0.727273"/>
    </g>
   </g>
   <g id="line2d_30">
    <path d="M 11.827087 197.00157 
L 16.639481 197.00157 
L 21.451874 197.00157 
L 26.264268 197.00157 
L 31.076661 197.00157 
L 35.889055 197.00157 
L 40.701448 197.00157 
L 45.513842 197.00157 
L 50.326235 197.00157 
L 55.138629 197.00157 
L 59.951022 197.00157 
L 64.763416 197.00157 
L 69.57581 197.00157 
L 74.388203 197.00157 
L 79.200597 197.00157 
L 84.01299 197.00157 
L 88.825384 197.00157 
L 93.637777 197.00157 
L 98.450171 197.00157 
L 103.262564 197.00157 
L 108.074958 197.00157 
L 112.887351 197.00157 
L 117.699745 197.00157 
L 122.512138 197.00157 
L 127.324532 197.00157 
L 132.136926 197.00157 
" clip-path="url(#pfa0f0f1e8a)" style="fill: none; stroke: #b7e204; stroke-opacity: 0.727273; stroke-width: 1.5; stroke-linecap: square"/>
   </g>
   <g id="line2d_31">
    <path d="M 11.827087 197.00157 
L 16.639481 156.14978 
L 21.451874 135.723884 
L 26.264268 186.788623 
L 31.076661 176.575675 
L 35.889055 166.362727 
L 40.701448 197.00157 
L 45.513842 186.788623 
L 50.326235 197.00157 
L 55.138629 186.788623 
L 59.951022 197.00157 
L 64.763416 197.00157 
L 69.57581 197.00157 
L 74.388203 186.788623 
L 79.200597 197.00157 
L 84.01299 197.00157 
L 88.825384 197.00157 
L 93.637777 197.00157 
L 98.450171 197.00157 
L 103.262564 197.00157 
L 108.074958 197.00157 
L 112.887351 197.00157 
L 117.699745 197.00157 
L 122.512138 197.00157 
L 127.324532 186.788623 
L 132.136926 197.00157 
" clip-path="url(#pfa0f0f1e8a)" style="fill: none; stroke: #000000; stroke-opacity: 0.727273; stroke-width: 1.5; stroke-linecap: square"/>
   </g>
  </g>
  <g id="axes_14">
   <g id="FillBetweenPolyCollection_13">
    <defs>
     <path id="m60d2576af7" d="M 14.762271 -128.994225 
L 14.762271 -128.994225 
L 20.379609 -128.994225 
L 25.996947 -128.994225 
L 31.614285 -128.994225 
L 37.231623 -128.994225 
L 42.848961 -128.994225 
L 48.4663 -128.994225 
L 54.083638 -128.994225 
L 59.700976 -128.994225 
L 65.318314 -128.994225 
L 70.935652 -128.994225 
L 76.55299 -128.994225 
L 82.170328 -128.994225 
L 87.787666 -128.994225 
L 93.405004 -128.994225 
L 99.022342 -128.994225 
L 104.63968 -128.994225 
L 110.257018 -128.994225 
L 115.874356 -128.994225 
L 121.491694 -128.994225 
L 127.109032 -128.994225 
L 132.72637 -128.994225 
L 138.343708 -128.994225 
L 143.961046 -128.994225 
L 149.578384 -128.994225 
L 155.195722 -128.994225 
L 155.195722 -128.994225 
L 155.195722 -128.994225 
L 149.578384 -137.74818 
L 143.961046 -128.994225 
L 138.343708 -128.994225 
L 132.72637 -128.994225 
L 127.109032 -128.994225 
L 121.491694 -128.994225 
L 115.874356 -128.994225 
L 110.257018 -128.994225 
L 104.63968 -128.994225 
L 99.022342 -128.994225 
L 93.405004 -137.74818 
L 87.787666 -128.994225 
L 82.170328 -128.994225 
L 76.55299 -128.994225 
L 70.935652 -128.994225 
L 65.318314 -137.74818 
L 59.700976 -128.994225 
L 54.083638 -128.994225 
L 48.4663 -137.74818 
L 42.848961 -137.74818 
L 37.231623 -128.994225 
L 31.614285 -172.764001 
L 25.996947 -155.256091 
L 20.379609 -190.271911 
L 14.762271 -128.994225 
z
" style="stroke: #b7e204; stroke-opacity: 0.754545"/>
    </defs>
    <g clip-path="url(#p0bd4830bdf)">
     <use xlink:href="#m60d2576af7" x="0" y="337.40125" style="fill: #b7e204; fill-opacity: 0.754545; stroke: #b7e204; stroke-opacity: 0.754545"/>
    </g>
   </g>
   <g id="line2d_32">
    <path d="M 14.762271 208.407025 
L 20.379609 208.407025 
L 25.996947 208.407025 
L 31.614285 208.407025 
L 37.231623 208.407025 
L 42.848961 208.407025 
L 48.4663 208.407025 
L 54.083638 208.407025 
L 59.700976 208.407025 
L 65.318314 208.407025 
L 70.935652 208.407025 
L 76.55299 208.407025 
L 82.170328 208.407025 
L 87.787666 208.407025 
L 93.405004 208.407025 
L 99.022342 208.407025 
L 104.63968 208.407025 
L 110.257018 208.407025 
L 115.874356 208.407025 
L 121.491694 208.407025 
L 127.109032 208.407025 
L 132.72637 208.407025 
L 138.343708 208.407025 
L 143.961046 208.407025 
L 149.578384 208.407025 
L 155.195722 208.407025 
" clip-path="url(#p0bd4830bdf)" style="fill: none; stroke: #b7e204; stroke-opacity: 0.754545; stroke-width: 1.5; stroke-linecap: square"/>
   </g>
   <g id="line2d_33">
    <path d="M 14.762271 208.407025 
L 20.379609 147.129339 
L 25.996947 182.145159 
L 31.614285 164.637249 
L 37.231623 208.407025 
L 42.848961 199.65307 
L 48.4663 199.65307 
L 54.083638 208.407025 
L 59.700976 208.407025 
L 65.318314 199.65307 
L 70.935652 208.407025 
L 76.55299 208.407025 
L 82.170328 208.407025 
L 87.787666 208.407025 
L 93.405004 199.65307 
L 99.022342 208.407025 
L 104.63968 208.407025 
L 110.257018 208.407025 
L 115.874356 208.407025 
L 121.491694 208.407025 
L 127.109032 208.407025 
L 132.72637 208.407025 
L 138.343708 208.407025 
L 143.961046 208.407025 
L 149.578384 199.65307 
L 155.195722 208.407025 
" clip-path="url(#p0bd4830bdf)" style="fill: none; stroke: #000000; stroke-opacity: 0.754545; stroke-width: 1.5; stroke-linecap: square"/>
   </g>
  </g>
  <g id="axes_15">
   <g id="FillBetweenPolyCollection_14">
    <defs>
     <path id="m023b460c21" d="M 15.648584 -117.588771 
L 15.648584 -117.588771 
L 25.495048 -117.588771 
L 35.341511 -117.588771 
L 45.187975 -117.588771 
L 55.034438 -117.588771 
L 64.880902 -117.588771 
L 74.727365 -117.588771 
L 84.573829 -117.588771 
L 94.420292 -117.588771 
L 104.266756 -117.588771 
L 114.113219 -117.588771 
L 123.959683 -117.588771 
L 133.806146 -117.588771 
L 143.65261 -117.588771 
L 153.499073 -117.588771 
L 163.345537 -117.588771 
L 173.192 -117.588771 
L 183.038464 -117.588771 
L 192.884927 -117.588771 
L 202.731391 -117.588771 
L 212.577854 -117.588771 
L 222.424318 -117.588771 
L 232.270781 -117.588771 
L 242.117245 -117.588771 
L 251.963708 -117.588771 
L 261.810172 -117.588771 
L 261.810172 -117.588771 
L 261.810172 -117.588771 
L 251.963708 -124.397402 
L 242.117245 -117.588771 
L 232.270781 -117.588771 
L 222.424318 -117.588771 
L 212.577854 -117.588771 
L 202.731391 -117.588771 
L 192.884927 -117.588771 
L 183.038464 -117.588771 
L 173.192 -117.588771 
L 163.345537 -117.588771 
L 153.499073 -124.397402 
L 143.65261 -117.588771 
L 133.806146 -117.588771 
L 123.959683 -117.588771 
L 114.113219 -117.588771 
L 104.266756 -124.397402 
L 94.420292 -117.588771 
L 84.573829 -117.588771 
L 74.727365 -124.397402 
L 64.880902 -124.397402 
L 55.034438 -124.397402 
L 45.187975 -124.397402 
L 35.341511 -144.823298 
L 25.495048 -178.866457 
L 15.648584 -117.588771 
z
" style="stroke: #b7e204; stroke-opacity: 0.781818"/>
    </defs>
    <g clip-path="url(#p65e53e8ed9)">
     <use xlink:href="#m023b460c21" x="0" y="337.40125" style="fill: #b7e204; fill-opacity: 0.781818; stroke: #b7e204; stroke-opacity: 0.781818"/>
    </g>
   </g>
   <g id="line2d_34">
    <path d="M 15.648584 219.812479 
L 25.495048 219.812479 
L 35.341511 219.812479 
L 45.187975 219.812479 
L 55.034438 219.812479 
L 64.880902 219.812479 
L 74.727365 219.812479 
L 84.573829 219.812479 
L 94.420292 219.812479 
L 104.266756 219.812479 
L 114.113219 219.812479 
L 123.959683 219.812479 
L 133.806146 219.812479 
L 143.65261 219.812479 
L 153.499073 219.812479 
L 163.345537 219.812479 
L 173.192 219.812479 
L 183.038464 219.812479 
L 192.884927 219.812479 
L 202.731391 219.812479 
L 212.577854 219.812479 
L 222.424318 219.812479 
L 232.270781 219.812479 
L 242.117245 219.812479 
L 251.963708 219.812479 
L 261.810172 219.812479 
" clip-path="url(#p65e53e8ed9)" style="fill: none; stroke: #b7e204; stroke-opacity: 0.781818; stroke-width: 1.5; stroke-linecap: square"/>
   </g>
   <g id="line2d_35">
    <path d="M 15.648584 219.812479 
L 25.495048 158.534793 
L 35.341511 192.577952 
L 45.187975 213.003848 
L 55.034438 213.003848 
L 64.880902 213.003848 
L 74.727365 213.003848 
L 84.573829 219.812479 
L 94.420292 219.812479 
L 104.266756 213.003848 
L 114.113219 219.812479 
L 123.959683 219.812479 
L 133.806146 219.812479 
L 143.65261 219.812479 
L 153.499073 213.003848 
L 163.345537 219.812479 
L 173.192 219.812479 
L 183.038464 219.812479 
L 192.884927 219.812479 
L 202.731391 219.812479 
L 212.577854 219.812479 
L 222.424318 219.812479 
L 232.270781 219.812479 
L 242.117245 219.812479 
L 251.963708 213.003848 
L 261.810172 219.812479 
" clip-path="url(#p65e53e8ed9)" style="fill: none; stroke: #000000; stroke-opacity: 0.781818; stroke-width: 1.5; stroke-linecap: square"/>
   </g>
  </g>
  <g id="axes_16">
   <g id="FillBetweenPolyCollection_15">
    <defs>
     <path id="m298a8e9268" d="M 20.596522 -106.183316 
L 20.596522 -106.183316 
L 31.469607 -106.183316 
L 42.342691 -106.183316 
L 53.215776 -106.183316 
L 64.08886 -106.183316 
L 74.961945 -106.183316 
L 85.835029 -106.183316 
L 96.708113 -106.183316 
L 107.581198 -106.183316 
L 118.454282 -106.183316 
L 129.327367 -106.183316 
L 140.200451 -106.183316 
L 151.073536 -106.183316 
L 161.94662 -106.183316 
L 172.819704 -106.183316 
L 183.692789 -106.183316 
L 194.565873 -106.183316 
L 205.438958 -106.183316 
L 216.312042 -106.183316 
L 227.185127 -106.183316 
L 238.058211 -106.183316 
L 248.931295 -106.183316 
L 259.80438 -106.183316 
L 270.677464 -106.183316 
L 281.550549 -106.183316 
L 292.423633 -106.183316 
L 292.423633 -106.183316 
L 292.423633 -106.183316 
L 281.550549 -113.843027 
L 270.677464 -106.183316 
L 259.80438 -106.183316 
L 248.931295 -106.183316 
L 238.058211 -106.183316 
L 227.185127 -106.183316 
L 216.312042 -106.183316 
L 205.438958 -106.183316 
L 194.565873 -106.183316 
L 183.692789 -106.183316 
L 172.819704 -106.183316 
L 161.94662 -106.183316 
L 151.073536 -106.183316 
L 140.200451 -113.843027 
L 129.327367 -106.183316 
L 118.454282 -113.843027 
L 107.581198 -106.183316 
L 96.708113 -106.183316 
L 85.835029 -121.502738 
L 74.961945 -106.183316 
L 64.08886 -121.502738 
L 53.215776 -113.843027 
L 42.342691 -136.822159 
L 31.469607 -167.461002 
L 20.596522 -106.183316 
z
" style="stroke: #b7e204; stroke-opacity: 0.809091"/>
    </defs>
    <g clip-path="url(#p7fb77fdee5)">
     <use xlink:href="#m298a8e9268" x="0" y="337.40125" style="fill: #b7e204; fill-opacity: 0.809091; stroke: #b7e204; stroke-opacity: 0.809091"/>
    </g>
   </g>
   <g id="line2d_36">
    <path d="M 20.596522 231.217934 
L 31.469607 231.217934 
L 42.342691 231.217934 
L 53.215776 231.217934 
L 64.08886 231.217934 
L 74.961945 231.217934 
L 85.835029 231.217934 
L 96.708113 231.217934 
L 107.581198 231.217934 
L 118.454282 231.217934 
L 129.327367 231.217934 
L 140.200451 231.217934 
L 151.073536 231.217934 
L 161.94662 231.217934 
L 172.819704 231.217934 
L 183.692789 231.217934 
L 194.565873 231.217934 
L 205.438958 231.217934 
L 216.312042 231.217934 
L 227.185127 231.217934 
L 238.058211 231.217934 
L 248.931295 231.217934 
L 259.80438 231.217934 
L 270.677464 231.217934 
L 281.550549 231.217934 
L 292.423633 231.217934 
" clip-path="url(#p7fb77fdee5)" style="fill: none; stroke: #b7e204; stroke-opacity: 0.809091; stroke-width: 1.5; stroke-linecap: square"/>
   </g>
   <g id="line2d_37">
    <path d="M 20.596522 231.217934 
L 31.469607 169.940248 
L 42.342691 200.579091 
L 53.215776 223.558223 
L 64.08886 215.898512 
L 74.961945 231.217934 
L 85.835029 215.898512 
L 96.708113 231.217934 
L 107.581198 231.217934 
L 118.454282 223.558223 
L 129.327367 231.217934 
L 140.200451 223.558223 
L 151.073536 231.217934 
L 161.94662 231.217934 
L 172.819704 231.217934 
L 183.692789 231.217934 
L 194.565873 231.217934 
L 205.438958 231.217934 
L 216.312042 231.217934 
L 227.185127 231.217934 
L 238.058211 231.217934 
L 248.931295 231.217934 
L 259.80438 231.217934 
L 270.677464 231.217934 
L 281.550549 223.558223 
L 292.423633 231.217934 
" clip-path="url(#p7fb77fdee5)" style="fill: none; stroke: #000000; stroke-opacity: 0.809091; stroke-width: 1.5; stroke-linecap: square"/>
   </g>
  </g>
  <g id="axes_17">
   <g id="FillBetweenPolyCollection_16">
    <defs>
     <path id="m413a46d0dd" d="M 16.616842 -94.777862 
L 16.616842 -94.777862 
L 26.133036 -94.777862 
L 35.649231 -94.777862 
L 45.165425 -94.777862 
L 54.68162 -94.777862 
L 64.197814 -94.777862 
L 73.714008 -94.777862 
L 83.230203 -94.777862 
L 92.746397 -94.777862 
L 102.262592 -94.777862 
L 111.778786 -94.777862 
L 121.294981 -94.777862 
L 130.811175 -94.777862 
L 140.327369 -94.777862 
L 149.843564 -94.777862 
L 159.359758 -94.777862 
L 168.875953 -94.777862 
L 178.392147 -94.777862 
L 187.908342 -94.777862 
L 197.424536 -94.777862 
L 206.94073 -94.777862 
L 216.456925 -94.777862 
L 225.973119 -94.777862 
L 235.489314 -94.777862 
L 245.005508 -94.777862 
L 254.521703 -94.777862 
L 254.521703 -94.777862 
L 254.521703 -94.777862 
L 245.005508 -104.990809 
L 235.489314 -94.777862 
L 225.973119 -94.777862 
L 216.456925 -94.777862 
L 206.94073 -94.777862 
L 197.424536 -94.777862 
L 187.908342 -94.777862 
L 178.392147 -94.777862 
L 168.875953 -94.777862 
L 159.359758 -94.777862 
L 149.843564 -94.777862 
L 140.327369 -94.777862 
L 130.811175 -94.777862 
L 121.294981 -94.777862 
L 111.778786 -104.990809 
L 102.262592 -104.990809 
L 92.746397 -94.777862 
L 83.230203 -94.777862 
L 73.714008 -104.990809 
L 64.197814 -104.990809 
L 54.68162 -115.203757 
L 45.165425 -104.990809 
L 35.649231 -156.055548 
L 26.133036 -156.055548 
L 16.616842 -94.777862 
z
" style="stroke: #b7e204; stroke-opacity: 0.836364"/>
    </defs>
    <g clip-path="url(#pac2b431fff)">
     <use xlink:href="#m413a46d0dd" x="0" y="337.40125" style="fill: #b7e204; fill-opacity: 0.836364; stroke: #b7e204; stroke-opacity: 0.836364"/>
    </g>
   </g>
   <g id="line2d_38">
    <path d="M 16.616842 242.623388 
L 26.133036 242.623388 
L 35.649231 242.623388 
L 45.165425 242.623388 
L 54.68162 242.623388 
L 64.197814 242.623388 
L 73.714008 242.623388 
L 83.230203 242.623388 
L 92.746397 242.623388 
L 102.262592 242.623388 
L 111.778786 242.623388 
L 121.294981 242.623388 
L 130.811175 242.623388 
L 140.327369 242.623388 
L 149.843564 242.623388 
L 159.359758 242.623388 
L 168.875953 242.623388 
L 178.392147 242.623388 
L 187.908342 242.623388 
L 197.424536 242.623388 
L 206.94073 242.623388 
L 216.456925 242.623388 
L 225.973119 242.623388 
L 235.489314 242.623388 
L 245.005508 242.623388 
L 254.521703 242.623388 
" clip-path="url(#pac2b431fff)" style="fill: none; stroke: #b7e204; stroke-opacity: 0.836364; stroke-width: 1.5; stroke-linecap: square"/>
   </g>
   <g id="line2d_39">
    <path d="M 16.616842 242.623388 
L 26.133036 181.345702 
L 35.649231 181.345702 
L 45.165425 232.410441 
L 54.68162 222.197493 
L 64.197814 232.410441 
L 73.714008 232.410441 
L 83.230203 242.623388 
L 92.746397 242.623388 
L 102.262592 232.410441 
L 111.778786 232.410441 
L 121.294981 242.623388 
L 130.811175 242.623388 
L 140.327369 242.623388 
L 149.843564 242.623388 
L 159.359758 242.623388 
L 168.875953 242.623388 
L 178.392147 242.623388 
L 187.908342 242.623388 
L 197.424536 242.623388 
L 206.94073 242.623388 
L 216.456925 242.623388 
L 225.973119 242.623388 
L 235.489314 242.623388 
L 245.005508 232.410441 
L 254.521703 242.623388 
" clip-path="url(#pac2b431fff)" style="fill: none; stroke: #000000; stroke-opacity: 0.836364; stroke-width: 1.5; stroke-linecap: square"/>
   </g>
  </g>
  <g id="axes_18">
   <g id="FillBetweenPolyCollection_17">
    <defs>
     <path id="mf1cc65f453" d="M 20.693882 -83.372407 
L 20.693882 -83.372407 
L 29.268441 -83.372407 
L 37.843 -83.372407 
L 46.417559 -83.372407 
L 54.992118 -83.372407 
L 63.566677 -83.372407 
L 72.141236 -83.372407 
L 80.715795 -83.372407 
L 89.290355 -83.372407 
L 97.864914 -83.372407 
L 106.439473 -83.372407 
L 115.014032 -83.372407 
L 123.588591 -83.372407 
L 132.16315 -83.372407 
L 140.737709 -83.372407 
L 149.312268 -83.372407 
L 157.886827 -83.372407 
L 166.461386 -83.372407 
L 175.035945 -83.372407 
L 183.610504 -83.372407 
L 192.185063 -83.372407 
L 200.759622 -83.372407 
L 209.334181 -83.372407 
L 217.90874 -83.372407 
L 226.4833 -83.372407 
L 235.057859 -83.372407 
L 235.057859 -83.372407 
L 235.057859 -83.372407 
L 226.4833 -90.181039 
L 217.90874 -83.372407 
L 209.334181 -83.372407 
L 200.759622 -83.372407 
L 192.185063 -83.372407 
L 183.610504 -83.372407 
L 175.035945 -83.372407 
L 166.461386 -83.372407 
L 157.886827 -83.372407 
L 149.312268 -83.372407 
L 140.737709 -83.372407 
L 132.16315 -83.372407 
L 123.588591 -90.181039 
L 115.014032 -90.181039 
L 106.439473 -83.372407 
L 97.864914 -90.181039 
L 89.290355 -90.181039 
L 80.715795 -90.181039 
L 72.141236 -90.181039 
L 63.566677 -83.372407 
L 54.992118 -90.181039 
L 46.417559 -83.372407 
L 37.843 -144.650093 
L 29.268441 -103.798302 
L 20.693882 -83.372407 
z
" style="stroke: #b7e204; stroke-opacity: 0.863636"/>
    </defs>
    <g clip-path="url(#p6741e85ec0)">
     <use xlink:href="#mf1cc65f453" x="0" y="337.40125" style="fill: #b7e204; fill-opacity: 0.863636; stroke: #b7e204; stroke-opacity: 0.863636"/>
    </g>
   </g>
   <g id="line2d_40">
    <path d="M 20.693882 254.028843 
L 29.268441 254.028843 
L 37.843 254.028843 
L 46.417559 254.028843 
L 54.992118 254.028843 
L 63.566677 254.028843 
L 72.141236 254.028843 
L 80.715795 254.028843 
L 89.290355 254.028843 
L 97.864914 254.028843 
L 106.439473 254.028843 
L 115.014032 254.028843 
L 123.588591 254.028843 
L 132.16315 254.028843 
L 140.737709 254.028843 
L 149.312268 254.028843 
L 157.886827 254.028843 
L 166.461386 254.028843 
L 175.035945 254.028843 
L 183.610504 254.028843 
L 192.185063 254.028843 
L 200.759622 254.028843 
L 209.334181 254.028843 
L 217.90874 254.028843 
L 226.4833 254.028843 
L 235.057859 254.028843 
" clip-path="url(#p6741e85ec0)" style="fill: none; stroke: #b7e204; stroke-opacity: 0.863636; stroke-width: 1.5; stroke-linecap: square"/>
   </g>
   <g id="line2d_41">
    <path d="M 20.693882 254.028843 
L 29.268441 233.602948 
L 37.843 192.751157 
L 46.417559 254.028843 
L 54.992118 247.220211 
L 63.566677 254.028843 
L 72.141236 247.220211 
L 80.715795 247.220211 
L 89.290355 247.220211 
L 97.864914 247.220211 
L 106.439473 254.028843 
L 115.014032 247.220211 
L 123.588591 247.220211 
L 132.16315 254.028843 
L 140.737709 254.028843 
L 149.312268 254.028843 
L 157.886827 254.028843 
L 166.461386 254.028843 
L 175.035945 254.028843 
L 183.610504 254.028843 
L 192.185063 254.028843 
L 200.759622 254.028843 
L 209.334181 254.028843 
L 217.90874 254.028843 
L 226.4833 247.220211 
L 235.057859 254.028843 
" clip-path="url(#p6741e85ec0)" style="fill: none; stroke: #000000; stroke-opacity: 0.863636; stroke-width: 1.5; stroke-linecap: square"/>
   </g>
  </g>
  <g id="axes_19">
   <g id="FillBetweenPolyCollection_18">
    <defs>
     <path id="me2f480e604" d="M 18.658882 -71.966952 
L 18.658882 -71.966952 
L 28.102298 -71.966952 
L 37.545713 -71.966952 
L 46.989128 -71.966952 
L 56.432544 -71.966952 
L 65.875959 -71.966952 
L 75.319375 -71.966952 
L 84.76279 -71.966952 
L 94.206206 -71.966952 
L 103.649621 -71.966952 
L 113.093037 -71.966952 
L 122.536452 -71.966952 
L 131.979868 -71.966952 
L 141.423283 -71.966952 
L 150.866699 -71.966952 
L 160.310114 -71.966952 
L 169.75353 -71.966952 
L 179.196945 -71.966952 
L 188.640361 -71.966952 
L 198.083776 -71.966952 
L 207.527191 -71.966952 
L 216.970607 -71.966952 
L 226.414022 -71.966952 
L 235.857438 -71.966952 
L 245.300853 -71.966952 
L 254.744269 -71.966952 
L 254.744269 -71.966952 
L 254.744269 -71.966952 
L 245.300853 -82.1799 
L 235.857438 -71.966952 
L 226.414022 -71.966952 
L 216.970607 -71.966952 
L 207.527191 -71.966952 
L 198.083776 -71.966952 
L 188.640361 -71.966952 
L 179.196945 -71.966952 
L 169.75353 -71.966952 
L 160.310114 -71.966952 
L 150.866699 -71.966952 
L 141.423283 -71.966952 
L 131.979868 -71.966952 
L 122.536452 -92.392848 
L 113.093037 -71.966952 
L 103.649621 -71.966952 
L 94.206206 -92.392848 
L 84.76279 -92.392848 
L 75.319375 -71.966952 
L 65.875959 -71.966952 
L 56.432544 -82.1799 
L 46.989128 -102.605795 
L 37.545713 -133.244638 
L 28.102298 -102.605795 
L 18.658882 -71.966952 
z
" style="stroke: #b7e204; stroke-opacity: 0.890909"/>
    </defs>
    <g clip-path="url(#pc54b0ecb2a)">
     <use xlink:href="#me2f480e604" x="0" y="337.40125" style="fill: #b7e204; fill-opacity: 0.890909; stroke: #b7e204; stroke-opacity: 0.890909"/>
    </g>
   </g>
   <g id="line2d_42">
    <path d="M 18.658882 265.434298 
L 28.102298 265.434298 
L 37.545713 265.434298 
L 46.989128 265.434298 
L 56.432544 265.434298 
L 65.875959 265.434298 
L 75.319375 265.434298 
L 84.76279 265.434298 
L 94.206206 265.434298 
L 103.649621 265.434298 
L 113.093037 265.434298 
L 122.536452 265.434298 
L 131.979868 265.434298 
L 141.423283 265.434298 
L 150.866699 265.434298 
L 160.310114 265.434298 
L 169.75353 265.434298 
L 179.196945 265.434298 
L 188.640361 265.434298 
L 198.083776 265.434298 
L 207.527191 265.434298 
L 216.970607 265.434298 
L 226.414022 265.434298 
L 235.857438 265.434298 
L 245.300853 265.434298 
L 254.744269 265.434298 
" clip-path="url(#pc54b0ecb2a)" style="fill: none; stroke: #b7e204; stroke-opacity: 0.890909; stroke-width: 1.5; stroke-linecap: square"/>
   </g>
   <g id="line2d_43">
    <path d="M 18.658882 265.434298 
L 28.102298 234.795455 
L 37.545713 204.156612 
L 46.989128 234.795455 
L 56.432544 255.22135 
L 65.875959 265.434298 
L 75.319375 265.434298 
L 84.76279 245.008402 
L 94.206206 245.008402 
L 103.649621 265.434298 
L 113.093037 265.434298 
L 122.536452 245.008402 
L 131.979868 265.434298 
L 141.423283 265.434298 
L 150.866699 265.434298 
L 160.310114 265.434298 
L 169.75353 265.434298 
L 179.196945 265.434298 
L 188.640361 265.434298 
L 198.083776 265.434298 
L 207.527191 265.434298 
L 216.970607 265.434298 
L 226.414022 265.434298 
L 235.857438 265.434298 
L 245.300853 255.22135 
L 254.744269 265.434298 
" clip-path="url(#pc54b0ecb2a)" style="fill: none; stroke: #000000; stroke-opacity: 0.890909; stroke-width: 1.5; stroke-linecap: square"/>
   </g>
  </g>
  <g id="axes_20">
   <g id="FillBetweenPolyCollection_19">
    <defs>
     <path id="m594ff25afe" d="M 10.664529 -60.561498 
L 10.664529 -60.561498 
L 20.615209 -60.561498 
L 30.565889 -60.561498 
L 40.51657 -60.561498 
L 50.46725 -60.561498 
L 60.41793 -60.561498 
L 70.36861 -60.561498 
L 80.31929 -60.561498 
L 90.269971 -60.561498 
L 100.220651 -60.561498 
L 110.171331 -60.561498 
L 120.122011 -60.561498 
L 130.072691 -60.561498 
L 140.023372 -60.561498 
L 149.974052 -60.561498 
L 159.924732 -60.561498 
L 169.875412 -60.561498 
L 179.826093 -60.561498 
L 189.776773 -60.561498 
L 199.727453 -60.561498 
L 209.678133 -60.561498 
L 219.628813 -60.561498 
L 229.579494 -60.561498 
L 239.530174 -60.561498 
L 249.480854 -60.561498 
L 259.431534 -60.561498 
L 259.431534 -60.561498 
L 259.431534 -60.561498 
L 249.480854 -80.987393 
L 239.530174 -60.561498 
L 229.579494 -60.561498 
L 219.628813 -60.561498 
L 209.678133 -60.561498 
L 199.727453 -60.561498 
L 189.776773 -60.561498 
L 179.826093 -60.561498 
L 169.875412 -60.561498 
L 159.924732 -60.561498 
L 149.974052 -60.561498 
L 140.023372 -60.561498 
L 130.072691 -60.561498 
L 120.122011 -80.987393 
L 110.171331 -101.413289 
L 100.220651 -80.987393 
L 90.269971 -80.987393 
L 80.31929 -80.987393 
L 70.36861 -80.987393 
L 60.41793 -80.987393 
L 50.46725 -101.413289 
L 40.51657 -121.839184 
L 30.565889 -121.839184 
L 20.615209 -121.839184 
L 10.664529 -60.561498 
z
" style="stroke: #b7e204; stroke-opacity: 0.918182"/>
    </defs>
    <g clip-path="url(#p47f1989fc5)">
     <use xlink:href="#m594ff25afe" x="0" y="337.40125" style="fill: #b7e204; fill-opacity: 0.918182; stroke: #b7e204; stroke-opacity: 0.918182"/>
    </g>
   </g>
   <g id="line2d_44">
    <path d="M 10.664529 276.839752 
L 20.615209 276.839752 
L 30.565889 276.839752 
L 40.51657 276.839752 
L 50.46725 276.839752 
L 60.41793 276.839752 
L 70.36861 276.839752 
L 80.31929 276.839752 
L 90.269971 276.839752 
L 100.220651 276.839752 
L 110.171331 276.839752 
L 120.122011 276.839752 
L 130.072691 276.839752 
L 140.023372 276.839752 
L 149.974052 276.839752 
L 159.924732 276.839752 
L 169.875412 276.839752 
L 179.826093 276.839752 
L 189.776773 276.839752 
L 199.727453 276.839752 
L 209.678133 276.839752 
L 219.628813 276.839752 
L 229.579494 276.839752 
L 239.530174 276.839752 
L 249.480854 276.839752 
L 259.431534 276.839752 
" clip-path="url(#p47f1989fc5)" style="fill: none; stroke: #b7e204; stroke-opacity: 0.918182; stroke-width: 1.5; stroke-linecap: square"/>
   </g>
   <g id="line2d_45">
    <path d="M 10.664529 276.839752 
L 20.615209 215.562066 
L 30.565889 215.562066 
L 40.51657 215.562066 
L 50.46725 235.987961 
L 60.41793 256.413857 
L 70.36861 256.413857 
L 80.31929 256.413857 
L 90.269971 256.413857 
L 100.220651 256.413857 
L 110.171331 235.987961 
L 120.122011 256.413857 
L 130.072691 276.839752 
L 140.023372 276.839752 
L 149.974052 276.839752 
L 159.924732 276.839752 
L 169.875412 276.839752 
L 179.826093 276.839752 
L 189.776773 276.839752 
L 199.727453 276.839752 
L 209.678133 276.839752 
L 219.628813 276.839752 
L 229.579494 276.839752 
L 239.530174 276.839752 
L 249.480854 256.413857 
L 259.431534 276.839752 
" clip-path="url(#p47f1989fc5)" style="fill: none; stroke: #000000; stroke-opacity: 0.918182; stroke-width: 1.5; stroke-linecap: square"/>
   </g>
  </g>
  <g id="axes_21">
   <g id="FillBetweenPolyCollection_20">
    <defs>
     <path id="mf6a06d53c3" d="M 19.271829 -49.156043 
L 19.271829 -49.156043 
L 30.311315 -49.156043 
L 41.350801 -49.156043 
L 52.390286 -49.156043 
L 63.429772 -49.156043 
L 74.469258 -49.156043 
L 85.508743 -49.156043 
L 96.548229 -49.156043 
L 107.587715 -49.156043 
L 118.6272 -49.156043 
L 129.666686 -49.156043 
L 140.706172 -49.156043 
L 151.745657 -49.156043 
L 162.785143 -49.156043 
L 173.824629 -49.156043 
L 184.864114 -49.156043 
L 195.9036 -49.156043 
L 206.943086 -49.156043 
L 217.982572 -49.156043 
L 229.022057 -49.156043 
L 240.061543 -49.156043 
L 251.101029 -49.156043 
L 262.140514 -49.156043 
L 273.18 -49.156043 
L 284.219486 -49.156043 
L 295.258971 -49.156043 
L 295.258971 -49.156043 
L 295.258971 -49.156043 
L 284.219486 -64.475465 
L 273.18 -49.156043 
L 262.140514 -49.156043 
L 251.101029 -49.156043 
L 240.061543 -49.156043 
L 229.022057 -49.156043 
L 217.982572 -49.156043 
L 206.943086 -49.156043 
L 195.9036 -49.156043 
L 184.864114 -49.156043 
L 173.824629 -49.156043 
L 162.785143 -49.156043 
L 151.745657 -49.156043 
L 140.706172 -49.156043 
L 129.666686 -49.156043 
L 118.6272 -64.475465 
L 107.587715 -64.475465 
L 96.548229 -95.114308 
L 85.508743 -64.475465 
L 74.469258 -49.156043 
L 63.429772 -64.475465 
L 52.390286 -95.114308 
L 41.350801 -110.433729 
L 30.311315 -95.114308 
L 19.271829 -49.156043 
z
" style="stroke: #b7e204; stroke-opacity: 0.945455"/>
    </defs>
    <g clip-path="url(#pe6de6d14ec)">
     <use xlink:href="#mf6a06d53c3" x="0" y="337.40125" style="fill: #b7e204; fill-opacity: 0.945455; stroke: #b7e204; stroke-opacity: 0.945455"/>
    </g>
   </g>
   <g id="line2d_46">
    <path d="M 19.271829 288.245207 
L 30.311315 288.245207 
L 41.350801 288.245207 
L 52.390286 288.245207 
L 63.429772 288.245207 
L 74.469258 288.245207 
L 85.508743 288.245207 
L 96.548229 288.245207 
L 107.587715 288.245207 
L 118.6272 288.245207 
L 129.666686 288.245207 
L 140.706172 288.245207 
L 151.745657 288.245207 
L 162.785143 288.245207 
L 173.824629 288.245207 
L 184.864114 288.245207 
L 195.9036 288.245207 
L 206.943086 288.245207 
L 217.982572 288.245207 
L 229.022057 288.245207 
L 240.061543 288.245207 
L 251.101029 288.245207 
L 262.140514 288.245207 
L 273.18 288.245207 
L 284.219486 288.245207 
L 295.258971 288.245207 
" clip-path="url(#pe6de6d14ec)" style="fill: none; stroke: #b7e204; stroke-opacity: 0.945455; stroke-width: 1.5; stroke-linecap: square"/>
   </g>
   <g id="line2d_47">
    <path d="M 19.271829 288.245207 
L 30.311315 242.286942 
L 41.350801 226.967521 
L 52.390286 242.286942 
L 63.429772 272.925785 
L 74.469258 288.245207 
L 85.508743 272.925785 
L 96.548229 242.286942 
L 107.587715 272.925785 
L 118.6272 272.925785 
L 129.666686 288.245207 
L 140.706172 288.245207 
L 151.745657 288.245207 
L 162.785143 288.245207 
L 173.824629 288.245207 
L 184.864114 288.245207 
L 195.9036 288.245207 
L 206.943086 288.245207 
L 217.982572 288.245207 
L 229.022057 288.245207 
L 240.061543 288.245207 
L 251.101029 288.245207 
L 262.140514 288.245207 
L 273.18 288.245207 
L 284.219486 272.925785 
L 295.258971 288.245207 
" clip-path="url(#pe6de6d14ec)" style="fill: none; stroke: #000000; stroke-opacity: 0.945455; stroke-width: 1.5; stroke-linecap: square"/>
   </g>
  </g>
  <g id="axes_22">
   <g id="FillBetweenPolyCollection_21">
    <defs>
     <path id="m2bbe279d57" d="M 15.613252 -37.750589 
L 15.613252 -37.750589 
L 28.146319 -37.750589 
L 40.679385 -37.750589 
L 53.212452 -37.750589 
L 65.745518 -37.750589 
L 78.278585 -37.750589 
L 90.811652 -37.750589 
L 103.344718 -37.750589 
L 115.877785 -37.750589 
L 128.410851 -37.750589 
L 140.943918 -37.750589 
L 153.476984 -37.750589 
L 166.010051 -37.750589 
L 178.543117 -37.750589 
L 191.076184 -37.750589 
L 203.60925 -37.750589 
L 216.142317 -37.750589 
L 228.675384 -37.750589 
L 241.20845 -37.750589 
L 253.741517 -37.750589 
L 266.274583 -37.750589 
L 278.80765 -37.750589 
L 291.340716 -37.750589 
L 303.873783 -37.750589 
L 316.406849 -37.750589 
L 328.939916 -37.750589 
L 328.939916 -37.750589 
L 328.939916 -37.750589 
L 316.406849 -50.006126 
L 303.873783 -37.750589 
L 291.340716 -37.750589 
L 278.80765 -37.750589 
L 266.274583 -37.750589 
L 253.741517 -37.750589 
L 241.20845 -37.750589 
L 228.675384 -37.750589 
L 216.142317 -37.750589 
L 203.60925 -37.750589 
L 191.076184 -37.750589 
L 178.543117 -37.750589 
L 166.010051 -37.750589 
L 153.476984 -37.750589 
L 140.943918 -37.750589 
L 128.410851 -37.750589 
L 115.877785 -50.006126 
L 103.344718 -62.261663 
L 90.811652 -74.5172 
L 78.278585 -37.750589 
L 65.745518 -62.261663 
L 53.212452 -50.006126 
L 40.679385 -74.5172 
L 28.146319 -99.028275 
L 15.613252 -37.750589 
z
" style="stroke: #b7e204; stroke-opacity: 0.972727"/>
    </defs>
    <g clip-path="url(#p9d27bf0a44)">
     <use xlink:href="#m2bbe279d57" x="0" y="337.40125" style="fill: #b7e204; fill-opacity: 0.972727; stroke: #b7e204; stroke-opacity: 0.972727"/>
    </g>
   </g>
   <g id="line2d_48">
    <path d="M 15.613252 299.650661 
L 28.146319 299.650661 
L 40.679385 299.650661 
L 53.212452 299.650661 
L 65.745518 299.650661 
L 78.278585 299.650661 
L 90.811652 299.650661 
L 103.344718 299.650661 
L 115.877785 299.650661 
L 128.410851 299.650661 
L 140.943918 299.650661 
L 153.476984 299.650661 
L 166.010051 299.650661 
L 178.543117 299.650661 
L 191.076184 299.650661 
L 203.60925 299.650661 
L 216.142317 299.650661 
L 228.675384 299.650661 
L 241.20845 299.650661 
L 253.741517 299.650661 
L 266.274583 299.650661 
L 278.80765 299.650661 
L 291.340716 299.650661 
L 303.873783 299.650661 
L 316.406849 299.650661 
L 328.939916 299.650661 
" clip-path="url(#p9d27bf0a44)" style="fill: none; stroke: #b7e204; stroke-opacity: 0.972727; stroke-width: 1.5; stroke-linecap: square"/>
   </g>
   <g id="line2d_49">
    <path d="M 15.613252 299.650661 
L 28.146319 238.372975 
L 40.679385 262.88405 
L 53.212452 287.395124 
L 65.745518 275.139587 
L 78.278585 299.650661 
L 90.811652 262.88405 
L 103.344718 275.139587 
L 115.877785 287.395124 
L 128.410851 299.650661 
L 140.943918 299.650661 
L 153.476984 299.650661 
L 166.010051 299.650661 
L 178.543117 299.650661 
L 191.076184 299.650661 
L 203.60925 299.650661 
L 216.142317 299.650661 
L 228.675384 299.650661 
L 241.20845 299.650661 
L 253.741517 299.650661 
L 266.274583 299.650661 
L 278.80765 299.650661 
L 291.340716 299.650661 
L 303.873783 299.650661 
L 316.406849 287.395124 
L 328.939916 299.650661 
" clip-path="url(#p9d27bf0a44)" style="fill: none; stroke: #000000; stroke-opacity: 0.972727; stroke-width: 1.5; stroke-linecap: square"/>
   </g>
  </g>
  <g id="axes_23">
   <g id="FillBetweenPolyCollection_22">
    <defs>
     <path id="m45627d4d0d" d="M 10.213979 -26.345134 
L 10.213979 -26.345134 
L 23.080999 -26.345134 
L 35.94802 -26.345134 
L 48.815041 -26.345134 
L 61.682061 -26.345134 
L 74.549082 -26.345134 
L 87.416103 -26.345134 
L 100.283123 -26.345134 
L 113.150144 -26.345134 
L 126.017165 -26.345134 
L 138.884185 -26.345134 
L 151.751206 -26.345134 
L 164.618226 -26.345134 
L 177.485247 -26.345134 
L 190.352268 -26.345134 
L 203.219288 -26.345134 
L 216.086309 -26.345134 
L 228.95333 -26.345134 
L 241.82035 -26.345134 
L 254.687371 -26.345134 
L 267.554392 -26.345134 
L 280.421412 -26.345134 
L 293.288433 -26.345134 
L 306.155454 -26.345134 
L 319.022474 -26.345134 
L 331.889495 -26.345134 
L 331.889495 -26.345134 
L 331.889495 -26.345134 
L 319.022474 -36.558082 
L 306.155454 -26.345134 
L 293.288433 -26.345134 
L 280.421412 -26.345134 
L 267.554392 -26.345134 
L 254.687371 -26.345134 
L 241.82035 -26.345134 
L 228.95333 -26.345134 
L 216.086309 -26.345134 
L 203.219288 -26.345134 
L 190.352268 -26.345134 
L 177.485247 -26.345134 
L 164.618226 -26.345134 
L 151.751206 -26.345134 
L 138.884185 -26.345134 
L 126.017165 -26.345134 
L 113.150144 -36.558082 
L 100.283123 -36.558082 
L 87.416103 -36.558082 
L 74.549082 -36.558082 
L 61.682061 -56.983977 
L 48.815041 -26.345134 
L 35.94802 -87.62282 
L 23.080999 -67.196925 
L 10.213979 -26.345134 
z
" style="stroke: #b7e204"/>
    </defs>
    <g clip-path="url(#pe867f7674a)">
     <use xlink:href="#m45627d4d0d" x="0" y="337.40125" style="fill: #b7e204; stroke: #b7e204"/>
    </g>
   </g>
   <g id="line2d_50">
    <path d="M 10.213979 311.056116 
L 23.080999 311.056116 
L 35.94802 311.056116 
L 48.815041 311.056116 
L 61.682061 311.056116 
L 74.549082 311.056116 
L 87.416103 311.056116 
L 100.283123 311.056116 
L 113.150144 311.056116 
L 126.017165 311.056116 
L 138.884185 311.056116 
L 151.751206 311.056116 
L 164.618226 311.056116 
L 177.485247 311.056116 
L 190.352268 311.056116 
L 203.219288 311.056116 
L 216.086309 311.056116 
L 228.95333 311.056116 
L 241.82035 311.056116 
L 254.687371 311.056116 
L 267.554392 311.056116 
L 280.421412 311.056116 
L 293.288433 311.056116 
L 306.155454 311.056116 
L 319.022474 311.056116 
L 331.889495 311.056116 
" clip-path="url(#pe867f7674a)" style="fill: none; stroke: #b7e204; stroke-width: 1.5; stroke-linecap: square"/>
   </g>
   <g id="line2d_51">
    <path d="M 10.213979 311.056116 
L 23.080999 270.204325 
L 35.94802 249.77843 
L 48.815041 311.056116 
L 61.682061 280.417273 
L 74.549082 300.843168 
L 87.416103 300.843168 
L 100.283123 300.843168 
L 113.150144 300.843168 
L 126.017165 311.056116 
L 138.884185 311.056116 
L 151.751206 311.056116 
L 164.618226 311.056116 
L 177.485247 311.056116 
L 190.352268 311.056116 
L 203.219288 311.056116 
L 216.086309 311.056116 
L 228.95333 311.056116 
L 241.82035 311.056116 
L 254.687371 311.056116 
L 267.554392 311.056116 
L 280.421412 311.056116 
L 293.288433 311.056116 
L 306.155454 311.056116 
L 319.022474 300.843168 
L 331.889495 311.056116 
" clip-path="url(#pe867f7674a)" style="fill: none; stroke: #000000; stroke-width: 1.5; stroke-linecap: square"/>
   </g>
  </g>
  <g id="text_8">
   <!-- Ligue 1 -->
   <g style="fill: #b7e204" transform="translate(226.001254 100.08) scale(0.18 -0.18)">
    <defs>
     <path id="Lato-Regular-4c" d="M 1178 522 
L 3162 522 
L 3162 0 
L 557 0 
L 557 4586 
L 1178 4586 
L 1178 522 
z
" transform="scale(0.015625)"/>
     <path id="Lato-Regular-69" d="M 1101 3242 
L 1101 0 
L 531 0 
L 531 3242 
L 1101 3242 
z
M 1229 4259 
Q 1229 4176 1195 4104 
Q 1162 4032 1106 3976 
Q 1050 3920 976 3888 
Q 902 3856 819 3856 
Q 736 3856 664 3888 
Q 592 3920 536 3976 
Q 480 4032 448 4104 
Q 416 4176 416 4259 
Q 416 4342 448 4417 
Q 480 4493 536 4549 
Q 592 4605 664 4637 
Q 736 4669 819 4669 
Q 902 4669 976 4637 
Q 1050 4605 1106 4549 
Q 1162 4493 1195 4417 
Q 1229 4342 1229 4259 
z
" transform="scale(0.015625)"/>
     <path id="Lato-Regular-67" d="M 1558 3296 
Q 1770 3296 1954 3249 
Q 2138 3203 2288 3114 
L 3168 3114 
L 3168 2902 
Q 3168 2797 3034 2768 
L 2666 2717 
Q 2774 2509 2774 2253 
Q 2774 2016 2683 1822 
Q 2592 1629 2430 1491 
Q 2269 1354 2046 1280 
Q 1824 1206 1558 1206 
Q 1331 1206 1130 1261 
Q 1027 1197 974 1123 
Q 922 1050 922 979 
Q 922 864 1014 805 
Q 1107 746 1260 720 
Q 1414 694 1609 688 
Q 1805 682 2008 667 
Q 2211 653 2406 617 
Q 2602 582 2755 502 
Q 2909 422 3001 281 
Q 3094 141 3094 -83 
Q 3094 -291 2990 -486 
Q 2886 -682 2691 -834 
Q 2496 -986 2214 -1077 
Q 1933 -1168 1578 -1168 
Q 1222 -1168 955 -1097 
Q 688 -1027 512 -908 
Q 336 -790 248 -635 
Q 160 -480 160 -310 
Q 160 -70 312 98 
Q 464 266 730 365 
Q 592 429 510 536 
Q 429 643 429 822 
Q 429 893 454 968 
Q 480 1043 533 1116 
Q 586 1190 662 1257 
Q 739 1325 842 1376 
Q 602 1510 466 1732 
Q 330 1955 330 2253 
Q 330 2490 421 2683 
Q 512 2877 675 3013 
Q 838 3149 1064 3222 
Q 1290 3296 1558 3296 
z
M 2570 -176 
Q 2570 -54 2502 19 
Q 2435 93 2320 133 
Q 2205 173 2054 192 
Q 1904 211 1737 219 
Q 1571 227 1398 236 
Q 1226 246 1069 272 
Q 886 186 772 61 
Q 659 -64 659 -237 
Q 659 -346 715 -440 
Q 771 -534 886 -603 
Q 1002 -672 1176 -712 
Q 1350 -752 1587 -752 
Q 1818 -752 2000 -710 
Q 2182 -669 2308 -592 
Q 2435 -515 2502 -409 
Q 2570 -304 2570 -176 
z
M 1558 1584 
Q 1731 1584 1864 1632 
Q 1997 1680 2086 1766 
Q 2176 1853 2221 1973 
Q 2266 2093 2266 2237 
Q 2266 2534 2085 2710 
Q 1904 2886 1558 2886 
Q 1216 2886 1035 2710 
Q 854 2534 854 2237 
Q 854 2093 900 1973 
Q 947 1853 1036 1766 
Q 1126 1680 1257 1632 
Q 1389 1584 1558 1584 
z
" transform="scale(0.015625)"/>
     <path id="Lato-Regular-75" d="M 960 3242 
L 960 1174 
Q 960 806 1129 604 
Q 1299 403 1642 403 
Q 1891 403 2112 521 
Q 2333 640 2518 851 
L 2518 3242 
L 3088 3242 
L 3088 0 
L 2749 0 
Q 2627 0 2595 118 
L 2550 467 
Q 2339 234 2076 91 
Q 1814 -51 1475 -51 
Q 1210 -51 1006 37 
Q 803 125 665 285 
Q 528 445 459 672 
Q 390 899 390 1174 
L 390 3242 
L 960 3242 
z
" transform="scale(0.015625)"/>
     <path id="Lato-Regular-65" d="M 1750 3293 
Q 2042 3293 2288 3195 
Q 2534 3098 2713 2914 
Q 2893 2730 2993 2459 
Q 3094 2189 3094 1843 
Q 3094 1709 3065 1664 
Q 3037 1619 2957 1619 
L 800 1619 
Q 806 1312 883 1085 
Q 960 858 1094 706 
Q 1229 554 1414 478 
Q 1600 403 1830 403 
Q 2045 403 2200 452 
Q 2355 502 2467 560 
Q 2579 618 2654 667 
Q 2730 717 2784 717 
Q 2854 717 2893 662 
L 3053 454 
Q 2947 326 2800 232 
Q 2653 138 2485 77 
Q 2317 16 2137 -14 
Q 1958 -45 1782 -45 
Q 1446 -45 1163 68 
Q 880 182 673 401 
Q 467 621 352 944 
Q 237 1267 237 1686 
Q 237 2026 341 2320 
Q 445 2614 640 2830 
Q 835 3046 1116 3169 
Q 1398 3293 1750 3293 
z
M 1763 2874 
Q 1350 2874 1113 2635 
Q 877 2397 819 1974 
L 2582 1974 
Q 2582 2173 2528 2337 
Q 2474 2502 2368 2622 
Q 2262 2742 2110 2808 
Q 1958 2874 1763 2874 
z
" transform="scale(0.015625)"/>
     <path id="Lato-Regular-20" transform="scale(0.015625)"/>
    </defs>
    <use xlink:href="#Lato-Regular-4c"/>
    <use xlink:href="#Lato-Regular-69" transform="translate(51.400009 0)"/>
    <use xlink:href="#Lato-Regular-67" transform="translate(77.000015 0)"/>
    <use xlink:href="#Lato-Regular-75" transform="translate(128.100021 0)"/>
    <use xlink:href="#Lato-Regular-65" transform="translate(183.700027 0)"/>
    <use xlink:href="#Lato-Regular-20" transform="translate(236.100037 0)"/>
    <use xlink:href="#Lato-Regular-31" transform="translate(255.40004 0)"/>
   </g>
  </g>
 </g>
 <defs>
  <clipPath id="p3176b7351b">
   <rect x="7.378117" y="7.2" width="438.223137" height="67.405455"/>
  </clipPath>
  <clipPath id="pd83a98b06d">
   <rect x="7.378117" y="18.605455" width="438.223137" height="67.405455"/>
  </clipPath>
  <clipPath id="p17de670433">
   <rect x="7.378117" y="30.010909" width="438.223137" height="67.405455"/>
  </clipPath>
  <clipPath id="pdd48cb9479">
   <rect x="7.378117" y="41.416364" width="438.223137" height="67.405455"/>
  </clipPath>
  <clipPath id="pee887f3808">
   <rect x="7.378117" y="52.821818" width="438.223137" height="67.405455"/>
  </clipPath>
  <clipPath id="pf0a0b5fe5c">
   <rect x="7.378117" y="64.227273" width="438.223137" height="67.405455"/>
  </clipPath>
  <clipPath id="p4643e3be48">
   <rect x="7.378117" y="75.632727" width="438.223137" height="67.405455"/>
  </clipPath>
  <clipPath id="p9bb8375d25">
   <rect x="7.378117" y="87.038182" width="438.223137" height="67.405455"/>
  </clipPath>
  <clipPath id="pa5564cd951">
   <rect x="7.378117" y="98.443636" width="438.223137" height="67.405455"/>
  </clipPath>
  <clipPath id="pd46d56b1c7">
   <rect x="7.378117" y="109.849091" width="438.223137" height="67.405455"/>
  </clipPath>
  <clipPath id="p6b6518b6b4">
   <rect x="7.378117" y="121.254545" width="438.223137" height="67.405455"/>
  </clipPath>
  <clipPath id="pfa0f0f1e8a">
   <rect x="7.378117" y="132.66" width="438.223137" height="67.405455"/>
  </clipPath>
  <clipPath id="p0bd4830bdf">
   <rect x="7.378117" y="144.065455" width="438.223137" height="67.405455"/>
  </clipPath>
  <clipPath id="p65e53e8ed9">
   <rect x="7.378117" y="155.470909" width="438.223137" height="67.405455"/>
  </clipPath>
  <clipPath id="p7fb77fdee5">
   <rect x="7.378117" y="166.876364" width="438.223137" height="67.405455"/>
  </clipPath>
  <clipPath id="pac2b431fff">
   <rect x="7.378117" y="178.281818" width="438.223137" height="67.405455"/>
  </clipPath>
  <clipPath id="p6741e85ec0">
   <rect x="7.378117" y="189.687273" width="438.223137" height="67.405455"/>
  </clipPath>
  <clipPath id="pc54b0ecb2a">
   <rect x="7.378117" y="201.092727" width="438.223137" height="67.405455"/>
  </clipPath>
  <clipPath id="p47f1989fc5">
   <rect x="7.378117" y="212.498182" width="438.223137" height="67.405455"/>
  </clipPath>
  <clipPath id="pe6de6d14ec">
   <rect x="7.378117" y="223.903636" width="438.223137" height="67.405455"/>
  </clipPath>
  <clipPath id="p9d27bf0a44">
   <rect x="7.378117" y="235.309091" width="438.223137" height="67.405455"/>
  </clipPath>
  <clipPath id="pe867f7674a">
   <rect x="7.378117" y="246.714545" width="438.223137" height="67.405455"/>
  </clipPath>
 </defs>
</svg>
