<?xml version="1.0" encoding="utf-8" standalone="no"?>
<!DOCTYPE svg PUBLIC "-//W3C//DTD SVG 1.1//EN"
  "http://www.w3.org/Graphics/SVG/1.1/DTD/svg11.dtd">
<svg xmlns:xlink="http://www.w3.org/1999/xlink" width="452.801254pt" height="337.40125pt" viewBox="0 0 452.801254 337.40125" xmlns="http://www.w3.org/2000/svg" version="1.1">
 <metadata>
  <rdf:RDF xmlns:dc="http://purl.org/dc/elements/1.1/" xmlns:cc="http://creativecommons.org/ns#" xmlns:rdf="http://www.w3.org/1999/02/22-rdf-syntax-ns#">
   <cc:Work>
    <dc:type rdf:resource="http://purl.org/dc/dcmitype/StillImage"/>
    <dc:date>2025-12-01T11:21:21.683522</dc:date>
    <dc:format>image/svg+xml</dc:format>
    <dc:creator>
     <cc:Agent>
      <dc:title>Matplotlib v3.10.5, https://matplotlib.org/</dc:title>
     </cc:Agent>
    </dc:creator>
   </cc:Work>
  </rdf:RDF>
 </metadata>
 <defs>
  <style type="text/css">*{stroke-linejoin: round; stroke-linecap: butt}</style>
 </defs>
 <g id="figure_1">
  <g id="patch_1">
   <path d="M 0 337.40125 
L 452.801254 337.40125 
L 452.801254 0 
L 0 0 
z
" style="fill: #f5f5dc"/>
  </g>
  <g id="axes_1">
   <g id="patch_2">
    <path d="M 7.378117 314.12 
L 445.601254 314.12 
L 445.601254 7.2 
L 7.378117 7.2 
z
" style="fill: #f5f5dc"/>
   </g>
   <g id="matplotlib.axis_1">
    <g id="xtick_1">
     <g id="line2d_1">
      <defs>
       <path id="m954bca40a5" d="M 0 0 
L 0 3.5 
" style="stroke: #808080; stroke-width: 0.8"/>
      </defs>
      <g>
       <use xlink:href="#m954bca40a5" x="10.1" y="314.12" style="fill: #808080; stroke: #808080; stroke-width: 0.8"/>
      </g>
     </g>
     <g id="text_1">
      <!-- 0 -->
      <g style="fill: #808080" transform="translate(7.2 328.485625) scale(0.1 -0.1)">
       <defs>
        <path id="Lato-Regular-30" d="M 3520 2291 
Q 3520 1690 3390 1250 
Q 3261 810 3037 522 
Q 2813 234 2507 93 
Q 2202 -48 1853 -48 
Q 1501 -48 1198 93 
Q 896 234 672 522 
Q 448 810 320 1250 
Q 192 1690 192 2291 
Q 192 2893 320 3334 
Q 448 3776 672 4065 
Q 896 4355 1198 4496 
Q 1501 4637 1853 4637 
Q 2202 4637 2507 4496 
Q 2813 4355 3037 4065 
Q 3261 3776 3390 3334 
Q 3520 2893 3520 2291 
z
M 2928 2291 
Q 2928 2816 2840 3173 
Q 2752 3530 2603 3747 
Q 2454 3965 2259 4059 
Q 2064 4154 1853 4154 
Q 1642 4154 1446 4059 
Q 1251 3965 1104 3747 
Q 957 3530 869 3173 
Q 781 2816 781 2291 
Q 781 1766 869 1411 
Q 957 1056 1104 838 
Q 1251 621 1446 526 
Q 1642 432 1853 432 
Q 2064 432 2259 526 
Q 2454 621 2603 838 
Q 2752 1056 2840 1411 
Q 2928 1766 2928 2291 
z
" transform="scale(0.015625)"/>
       </defs>
       <use xlink:href="#Lato-Regular-30"/>
      </g>
     </g>
    </g>
    <g id="xtick_2">
     <g id="line2d_2">
      <g>
       <use xlink:href="#m954bca40a5" x="78.147071" y="314.12" style="fill: #808080; stroke: #808080; stroke-width: 0.8"/>
      </g>
     </g>
     <g id="text_2">
      <!-- €250M -->
      <g style="fill: #808080" transform="translate(61.947071 328.485625) scale(0.1 -0.1)">
       <defs>
        <path id="Lato-Regular-20ac" d="M 109 2877 
L 579 2877 
Q 643 3280 795 3605 
Q 947 3930 1172 4158 
Q 1398 4387 1692 4508 
Q 1987 4630 2333 4630 
Q 2762 4630 3066 4470 
Q 3370 4310 3594 4029 
L 3398 3811 
Q 3373 3782 3347 3761 
Q 3322 3741 3277 3741 
Q 3222 3741 3163 3801 
Q 3104 3862 3005 3936 
Q 2906 4010 2750 4070 
Q 2595 4131 2355 4131 
Q 1888 4131 1579 3811 
Q 1270 3491 1168 2877 
L 2918 2877 
L 2918 2701 
Q 2918 2643 2875 2596 
Q 2832 2550 2755 2550 
L 1130 2550 
Q 1126 2486 1124 2422 
Q 1123 2358 1123 2291 
Q 1123 2240 1123 2192 
Q 1123 2144 1126 2096 
L 2621 2096 
L 2621 1917 
Q 2621 1862 2576 1816 
Q 2531 1770 2454 1770 
L 1155 1770 
Q 1245 1110 1552 780 
Q 1859 451 2326 451 
Q 2499 451 2630 484 
Q 2762 518 2858 569 
Q 2954 621 3022 680 
Q 3091 739 3142 790 
Q 3194 842 3234 875 
Q 3274 909 3312 909 
Q 3338 909 3357 897 
Q 3376 886 3402 864 
L 3642 640 
Q 3418 314 3085 133 
Q 2752 -48 2294 -48 
Q 1923 -48 1625 78 
Q 1328 205 1110 440 
Q 893 675 753 1012 
Q 614 1350 563 1770 
L 109 1770 
L 109 2096 
L 538 2096 
Q 534 2144 534 2192 
Q 534 2240 534 2291 
Q 534 2355 536 2420 
Q 538 2486 541 2550 
L 109 2550 
L 109 2877 
z
" transform="scale(0.015625)"/>
        <path id="Lato-Regular-32" d="M 1923 4637 
Q 2214 4637 2467 4550 
Q 2720 4464 2904 4299 
Q 3088 4134 3193 3897 
Q 3299 3661 3299 3360 
Q 3299 3104 3222 2886 
Q 3146 2669 3014 2469 
Q 2883 2269 2712 2081 
Q 2541 1894 2349 1699 
L 1142 464 
Q 1270 499 1401 520 
Q 1533 541 1654 541 
L 3190 541 
Q 3283 541 3337 486 
Q 3392 432 3392 346 
L 3392 0 
L 333 0 
L 333 195 
Q 333 256 357 320 
Q 381 384 435 438 
L 1904 1914 
Q 2086 2099 2236 2270 
Q 2387 2442 2494 2614 
Q 2602 2787 2659 2964 
Q 2717 3142 2717 3344 
Q 2717 3546 2653 3698 
Q 2589 3850 2477 3949 
Q 2365 4048 2214 4097 
Q 2064 4147 1891 4147 
Q 1718 4147 1571 4096 
Q 1424 4045 1310 3953 
Q 1197 3862 1118 3737 
Q 1040 3613 1008 3462 
Q 982 3370 931 3328 
Q 880 3286 797 3286 
Q 781 3286 763 3288 
Q 746 3290 723 3293 
L 426 3344 
Q 470 3658 598 3899 
Q 726 4141 923 4304 
Q 1120 4467 1374 4552 
Q 1629 4637 1923 4637 
z
" transform="scale(0.015625)"/>
        <path id="Lato-Regular-35" d="M 3130 4336 
Q 3130 4214 3053 4136 
Q 2976 4058 2794 4058 
L 1354 4058 
L 1142 2854 
Q 1501 2931 1805 2931 
Q 2163 2931 2436 2825 
Q 2710 2720 2896 2534 
Q 3082 2349 3176 2096 
Q 3270 1843 3270 1546 
Q 3270 1181 3142 886 
Q 3014 592 2792 382 
Q 2570 173 2269 61 
Q 1968 -51 1619 -51 
Q 1418 -51 1232 -11 
Q 1046 29 886 96 
Q 726 163 588 249 
Q 451 336 346 432 
L 518 675 
Q 576 758 672 758 
Q 733 758 814 708 
Q 896 659 1011 598 
Q 1126 538 1281 488 
Q 1437 438 1651 438 
Q 1891 438 2083 515 
Q 2275 592 2411 734 
Q 2547 877 2620 1075 
Q 2694 1274 2694 1520 
Q 2694 1734 2632 1907 
Q 2570 2080 2443 2201 
Q 2317 2323 2128 2390 
Q 1939 2458 1686 2458 
Q 1514 2458 1328 2429 
Q 1142 2400 944 2336 
L 586 2442 
L 957 4586 
L 3130 4586 
L 3130 4336 
z
" transform="scale(0.015625)"/>
        <path id="Lato-Regular-4d" d="M 2813 1658 
Q 2858 1581 2891 1496 
Q 2925 1411 2957 1325 
Q 2989 1414 3024 1496 
Q 3059 1578 3104 1661 
L 4656 4480 
Q 4698 4554 4742 4570 
Q 4787 4586 4870 4586 
L 5328 4586 
L 5328 0 
L 4784 0 
L 4784 3370 
Q 4784 3437 4787 3513 
Q 4790 3590 4797 3670 
L 3226 803 
Q 3146 659 3002 659 
L 2912 659 
Q 2768 659 2688 803 
L 1082 3680 
Q 1091 3597 1096 3517 
Q 1101 3437 1101 3370 
L 1101 0 
L 557 0 
L 557 4586 
L 1014 4586 
Q 1098 4586 1142 4570 
Q 1187 4554 1229 4480 
L 2813 1658 
L 2813 1658 
z
" transform="scale(0.015625)"/>
       </defs>
       <use xlink:href="#Lato-Regular-20ac"/>
       <use xlink:href="#Lato-Regular-32" transform="translate(58 0)"/>
       <use xlink:href="#Lato-Regular-35" transform="translate(116 0)"/>
       <use xlink:href="#Lato-Regular-30" transform="translate(174 0)"/>
       <use xlink:href="#Lato-Regular-4d" transform="translate(232 0)"/>
      </g>
     </g>
    </g>
    <g id="xtick_3">
     <g id="line2d_3">
      <g>
       <use xlink:href="#m954bca40a5" x="146.194142" y="314.12" style="fill: #808080; stroke: #808080; stroke-width: 0.8"/>
      </g>
     </g>
     <g id="text_3">
      <!-- €500M -->
      <g style="fill: #808080" transform="translate(129.994142 328.485625) scale(0.1 -0.1)">
       <use xlink:href="#Lato-Regular-20ac"/>
       <use xlink:href="#Lato-Regular-35" transform="translate(58 0)"/>
       <use xlink:href="#Lato-Regular-30" transform="translate(116 0)"/>
       <use xlink:href="#Lato-Regular-30" transform="translate(174 0)"/>
       <use xlink:href="#Lato-Regular-4d" transform="translate(232 0)"/>
      </g>
     </g>
    </g>
    <g id="xtick_4">
     <g id="line2d_4">
      <g>
       <use xlink:href="#m954bca40a5" x="214.241213" y="314.12" style="fill: #808080; stroke: #808080; stroke-width: 0.8"/>
      </g>
     </g>
     <g id="text_4">
      <!-- €750M -->
      <g style="fill: #808080" transform="translate(198.041213 328.485625) scale(0.1 -0.1)">
       <defs>
        <path id="Lato-Regular-37" d="M 3469 4586 
L 3469 4330 
Q 3469 4221 3445 4150 
Q 3421 4080 3395 4032 
L 1498 202 
Q 1456 118 1382 59 
Q 1309 0 1184 0 
L 778 0 
L 2704 3782 
Q 2746 3862 2789 3929 
Q 2832 3997 2886 4058 
L 493 4058 
Q 438 4058 395 4101 
Q 352 4144 352 4198 
L 352 4586 
L 3469 4586 
z
" transform="scale(0.015625)"/>
       </defs>
       <use xlink:href="#Lato-Regular-20ac"/>
       <use xlink:href="#Lato-Regular-37" transform="translate(58 0)"/>
       <use xlink:href="#Lato-Regular-35" transform="translate(116 0)"/>
       <use xlink:href="#Lato-Regular-30" transform="translate(174 0)"/>
       <use xlink:href="#Lato-Regular-4d" transform="translate(232 0)"/>
      </g>
     </g>
    </g>
    <g id="xtick_5">
     <g id="line2d_5">
      <g>
       <use xlink:href="#m954bca40a5" x="282.288284" y="314.12" style="fill: #808080; stroke: #808080; stroke-width: 0.8"/>
      </g>
     </g>
     <g id="text_5">
      <!-- €1B -->
      <g style="fill: #808080" transform="translate(273.253127 328.485625) scale(0.1 -0.1)">
       <defs>
        <path id="Lato-Regular-31" d="M 918 435 
L 1904 435 
L 1904 3562 
Q 1904 3702 1914 3846 
L 1094 3146 
Q 1062 3120 1030 3109 
Q 998 3098 970 3098 
Q 922 3098 883 3118 
Q 845 3139 826 3168 
L 646 3414 
L 2010 4595 
L 2474 4595 
L 2474 435 
L 3376 435 
L 3376 0 
L 918 0 
L 918 435 
z
" transform="scale(0.015625)"/>
        <path id="Lato-Regular-42" d="M 557 0 
L 557 4586 
L 2019 4586 
Q 2442 4586 2747 4502 
Q 3053 4419 3249 4265 
Q 3446 4112 3540 3889 
Q 3635 3667 3635 3389 
Q 3635 3219 3582 3062 
Q 3530 2906 3422 2771 
Q 3315 2637 3153 2531 
Q 2992 2426 2774 2358 
Q 3277 2259 3533 1996 
Q 3789 1734 3789 1306 
Q 3789 1014 3681 774 
Q 3574 534 3368 361 
Q 3162 189 2862 94 
Q 2563 0 2179 0 
L 557 0 
z
M 1178 2090 
L 1178 493 
L 2170 493 
Q 2435 493 2625 553 
Q 2816 614 2939 724 
Q 3062 835 3120 987 
Q 3178 1139 3178 1322 
Q 3178 1677 2926 1883 
Q 2675 2090 2166 2090 
L 1178 2090 
z
M 1178 2531 
L 1997 2531 
Q 2259 2531 2451 2588 
Q 2643 2646 2769 2748 
Q 2896 2851 2957 2996 
Q 3018 3142 3018 3315 
Q 3018 3718 2774 3907 
Q 2531 4096 2019 4096 
L 1178 4096 
L 1178 2531 
z
" transform="scale(0.015625)"/>
       </defs>
       <use xlink:href="#Lato-Regular-20ac"/>
       <use xlink:href="#Lato-Regular-31" transform="translate(58 0)"/>
       <use xlink:href="#Lato-Regular-42" transform="translate(116 0)"/>
      </g>
     </g>
    </g>
    <g id="xtick_6">
     <g id="line2d_6">
      <g>
       <use xlink:href="#m954bca40a5" x="350.335355" y="314.12" style="fill: #808080; stroke: #808080; stroke-width: 0.8"/>
      </g>
     </g>
     <g id="text_6">
      <!-- €1.25B -->
      <g style="fill: #808080" transform="translate(334.440042 328.485625) scale(0.1 -0.1)">
       <defs>
        <path id="Lato-Regular-2e" d="M 282 352 
Q 282 435 312 508 
Q 342 582 395 636 
Q 448 691 521 723 
Q 595 755 678 755 
Q 762 755 835 723 
Q 909 691 963 636 
Q 1018 582 1048 508 
Q 1078 435 1078 352 
Q 1078 266 1048 194 
Q 1018 122 963 67 
Q 909 13 835 -17 
Q 762 -48 678 -48 
Q 595 -48 521 -17 
Q 448 13 395 67 
Q 342 122 312 194 
Q 282 266 282 352 
z
" transform="scale(0.015625)"/>
       </defs>
       <use xlink:href="#Lato-Regular-20ac"/>
       <use xlink:href="#Lato-Regular-31" transform="translate(58 0)"/>
       <use xlink:href="#Lato-Regular-2e" transform="translate(116 0)"/>
       <use xlink:href="#Lato-Regular-32" transform="translate(137.199997 0)"/>
       <use xlink:href="#Lato-Regular-35" transform="translate(195.199997 0)"/>
       <use xlink:href="#Lato-Regular-42" transform="translate(253.199997 0)"/>
      </g>
     </g>
    </g>
    <g id="xtick_7">
     <g id="line2d_7">
      <g>
       <use xlink:href="#m954bca40a5" x="418.382425" y="314.12" style="fill: #808080; stroke: #808080; stroke-width: 0.8"/>
      </g>
     </g>
     <g id="text_7">
      <!-- €1.5B -->
      <g style="fill: #808080" transform="translate(405.387113 328.485625) scale(0.1 -0.1)">
       <use xlink:href="#Lato-Regular-20ac"/>
       <use xlink:href="#Lato-Regular-31" transform="translate(58 0)"/>
       <use xlink:href="#Lato-Regular-2e" transform="translate(116 0)"/>
       <use xlink:href="#Lato-Regular-35" transform="translate(137.199997 0)"/>
       <use xlink:href="#Lato-Regular-42" transform="translate(195.199997 0)"/>
      </g>
     </g>
    </g>
   </g>
  </g>
  <g id="axes_2">
   <g id="FillBetweenPolyCollection_1">
    <defs>
     <path id="mdef064f17f" d="M 14.399005 -265.85968 
L 14.399005 -265.85968 
L 17.634905 -265.85968 
L 20.870804 -265.85968 
L 24.106704 -265.85968 
L 27.342604 -265.85968 
L 30.578504 -265.85968 
L 33.814404 -265.85968 
L 37.050304 -265.85968 
L 40.286204 -265.85968 
L 43.522104 -265.85968 
L 46.758004 -265.85968 
L 49.993904 -265.85968 
L 53.229804 -265.85968 
L 56.465704 -265.85968 
L 59.701604 -265.85968 
L 62.937504 -265.85968 
L 66.173404 -265.85968 
L 69.409304 -265.85968 
L 72.645204 -265.85968 
L 75.881103 -265.85968 
L 79.117003 -265.85968 
L 82.352903 -265.85968 
L 85.588803 -265.85968 
L 88.824703 -265.85968 
L 92.060603 -265.85968 
L 95.296503 -265.85968 
L 95.296503 -265.85968 
L 95.296503 -265.85968 
L 92.060603 -278.115217 
L 88.824703 -265.85968 
L 85.588803 -278.115217 
L 82.352903 -265.85968 
L 79.117003 -265.85968 
L 75.881103 -278.115217 
L 72.645204 -265.85968 
L 69.409304 -265.85968 
L 66.173404 -278.115217 
L 62.937504 -265.85968 
L 59.701604 -265.85968 
L 56.465704 -265.85968 
L 53.229804 -265.85968 
L 49.993904 -265.85968 
L 46.758004 -265.85968 
L 43.522104 -265.85968 
L 40.286204 -290.370754 
L 37.050304 -265.85968 
L 33.814404 -278.115217 
L 30.578504 -290.370754 
L 27.342604 -265.85968 
L 24.106704 -302.626291 
L 20.870804 -302.626291 
L 17.634905 -327.137366 
L 14.399005 -265.85968 
z
" style="stroke: #0578ff; stroke-opacity: 0.427273"/>
    </defs>
    <g clip-path="url(#p8942aa76e2)">
     <use xlink:href="#mdef064f17f" x="0" y="337.40125" style="fill: #0578ff; fill-opacity: 0.427273; stroke: #0578ff; stroke-opacity: 0.427273"/>
    </g>
   </g>
   <g id="line2d_8">
    <path d="M 14.399005 71.54157 
L 17.634905 71.54157 
L 20.870804 71.54157 
L 24.106704 71.54157 
L 27.342604 71.54157 
L 30.578504 71.54157 
L 33.814404 71.54157 
L 37.050304 71.54157 
L 40.286204 71.54157 
L 43.522104 71.54157 
L 46.758004 71.54157 
L 49.993904 71.54157 
L 53.229804 71.54157 
L 56.465704 71.54157 
L 59.701604 71.54157 
L 62.937504 71.54157 
L 66.173404 71.54157 
L 69.409304 71.54157 
L 72.645204 71.54157 
L 75.881103 71.54157 
L 79.117003 71.54157 
L 82.352903 71.54157 
L 85.588803 71.54157 
L 88.824703 71.54157 
L 92.060603 71.54157 
L 95.296503 71.54157 
" clip-path="url(#p8942aa76e2)" style="fill: none; stroke: #0578ff; stroke-opacity: 0.427273; stroke-width: 1.5; stroke-linecap: square"/>
   </g>
   <g id="line2d_9">
    <path d="M 14.399005 71.54157 
L 17.634905 10.263884 
L 20.870804 34.774959 
L 24.106704 34.774959 
L 27.342604 71.54157 
L 30.578504 47.030496 
L 33.814404 59.286033 
L 37.050304 71.54157 
L 40.286204 47.030496 
L 43.522104 71.54157 
L 46.758004 71.54157 
L 49.993904 71.54157 
L 53.229804 71.54157 
L 56.465704 71.54157 
L 59.701604 71.54157 
L 62.937504 71.54157 
L 66.173404 59.286033 
L 69.409304 71.54157 
L 72.645204 71.54157 
L 75.881103 59.286033 
L 79.117003 71.54157 
L 82.352903 71.54157 
L 85.588803 59.286033 
L 88.824703 71.54157 
L 92.060603 59.286033 
L 95.296503 71.54157 
" clip-path="url(#p8942aa76e2)" style="fill: none; stroke: #000000; stroke-opacity: 0.427273; stroke-width: 1.5; stroke-linecap: square"/>
   </g>
  </g>
  <g id="axes_3">
   <g id="FillBetweenPolyCollection_2">
    <defs>
     <path id="me42c08806e" d="M 14.263983 -254.454225 
L 14.263983 -254.454225 
L 17.550207 -254.454225 
L 20.83643 -254.454225 
L 24.122654 -254.454225 
L 27.408877 -254.454225 
L 30.6951 -254.454225 
L 33.981324 -254.454225 
L 37.267547 -254.454225 
L 40.55377 -254.454225 
L 43.839994 -254.454225 
L 47.126217 -254.454225 
L 50.412441 -254.454225 
L 53.698664 -254.454225 
L 56.984887 -254.454225 
L 60.271111 -254.454225 
L 63.557334 -254.454225 
L 66.843557 -254.454225 
L 70.129781 -254.454225 
L 73.416004 -254.454225 
L 76.702227 -254.454225 
L 79.988451 -254.454225 
L 83.274674 -254.454225 
L 86.560898 -254.454225 
L 89.847121 -254.454225 
L 93.133344 -254.454225 
L 96.419568 -254.454225 
L 96.419568 -254.454225 
L 96.419568 -254.454225 
L 93.133344 -266.709762 
L 89.847121 -254.454225 
L 86.560898 -254.454225 
L 83.274674 -266.709762 
L 79.988451 -254.454225 
L 76.702227 -254.454225 
L 73.416004 -266.709762 
L 70.129781 -254.454225 
L 66.843557 -254.454225 
L 63.557334 -266.709762 
L 60.271111 -254.454225 
L 56.984887 -254.454225 
L 53.698664 -254.454225 
L 50.412441 -254.454225 
L 47.126217 -266.709762 
L 43.839994 -254.454225 
L 40.55377 -254.454225 
L 37.267547 -266.709762 
L 33.981324 -278.9653 
L 30.6951 -254.454225 
L 27.408877 -266.709762 
L 24.122654 -303.476374 
L 20.83643 -315.731911 
L 17.550207 -278.9653 
L 14.263983 -254.454225 
z
" style="stroke: #0578ff; stroke-opacity: 0.454545"/>
    </defs>
    <g clip-path="url(#pe144ffbbdc)">
     <use xlink:href="#me42c08806e" x="0" y="337.40125" style="fill: #0578ff; fill-opacity: 0.454545; stroke: #0578ff; stroke-opacity: 0.454545"/>
    </g>
   </g>
   <g id="line2d_10">
    <path d="M 14.263983 82.947025 
L 17.550207 82.947025 
L 20.83643 82.947025 
L 24.122654 82.947025 
L 27.408877 82.947025 
L 30.6951 82.947025 
L 33.981324 82.947025 
L 37.267547 82.947025 
L 40.55377 82.947025 
L 43.839994 82.947025 
L 47.126217 82.947025 
L 50.412441 82.947025 
L 53.698664 82.947025 
L 56.984887 82.947025 
L 60.271111 82.947025 
L 63.557334 82.947025 
L 66.843557 82.947025 
L 70.129781 82.947025 
L 73.416004 82.947025 
L 76.702227 82.947025 
L 79.988451 82.947025 
L 83.274674 82.947025 
L 86.560898 82.947025 
L 89.847121 82.947025 
L 93.133344 82.947025 
L 96.419568 82.947025 
" clip-path="url(#pe144ffbbdc)" style="fill: none; stroke: #0578ff; stroke-opacity: 0.454545; stroke-width: 1.5; stroke-linecap: square"/>
   </g>
   <g id="line2d_11">
    <path d="M 14.263983 82.947025 
L 17.550207 58.43595 
L 20.83643 21.669339 
L 24.122654 33.924876 
L 27.408877 70.691488 
L 30.6951 82.947025 
L 33.981324 58.43595 
L 37.267547 70.691488 
L 40.55377 82.947025 
L 43.839994 82.947025 
L 47.126217 70.691488 
L 50.412441 82.947025 
L 53.698664 82.947025 
L 56.984887 82.947025 
L 60.271111 82.947025 
L 63.557334 70.691488 
L 66.843557 82.947025 
L 70.129781 82.947025 
L 73.416004 70.691488 
L 76.702227 82.947025 
L 79.988451 82.947025 
L 83.274674 70.691488 
L 86.560898 82.947025 
L 89.847121 82.947025 
L 93.133344 70.691488 
L 96.419568 82.947025 
" clip-path="url(#pe144ffbbdc)" style="fill: none; stroke: #000000; stroke-opacity: 0.454545; stroke-width: 1.5; stroke-linecap: square"/>
   </g>
  </g>
  <g id="axes_4">
   <g id="FillBetweenPolyCollection_3">
    <defs>
     <path id="mdf3d3d7e4d" d="M 15.170946 -243.048771 
L 15.170946 -243.048771 
L 18.033163 -243.048771 
L 20.89538 -243.048771 
L 23.757597 -243.048771 
L 26.619814 -243.048771 
L 29.48203 -243.048771 
L 32.344247 -243.048771 
L 35.206464 -243.048771 
L 38.068681 -243.048771 
L 40.930898 -243.048771 
L 43.793115 -243.048771 
L 46.655331 -243.048771 
L 49.517548 -243.048771 
L 52.379765 -243.048771 
L 55.241982 -243.048771 
L 58.104199 -243.048771 
L 60.966416 -243.048771 
L 63.828632 -243.048771 
L 66.690849 -243.048771 
L 69.553066 -243.048771 
L 72.415283 -243.048771 
L 75.2775 -243.048771 
L 78.139717 -243.048771 
L 81.001933 -243.048771 
L 83.86415 -243.048771 
L 86.726367 -243.048771 
L 86.726367 -243.048771 
L 86.726367 -243.048771 
L 83.86415 -267.559845 
L 81.001933 -243.048771 
L 78.139717 -243.048771 
L 75.2775 -243.048771 
L 72.415283 -243.048771 
L 69.553066 -255.304308 
L 66.690849 -243.048771 
L 63.828632 -243.048771 
L 60.966416 -243.048771 
L 58.104199 -243.048771 
L 55.241982 -243.048771 
L 52.379765 -255.304308 
L 49.517548 -243.048771 
L 46.655331 -243.048771 
L 43.793115 -255.304308 
L 40.930898 -243.048771 
L 38.068681 -267.559845 
L 35.206464 -243.048771 
L 32.344247 -255.304308 
L 29.48203 -267.559845 
L 26.619814 -255.304308 
L 23.757597 -304.326457 
L 20.89538 -279.815382 
L 18.033163 -255.304308 
L 15.170946 -243.048771 
z
" style="stroke: #0578ff; stroke-opacity: 0.481818"/>
    </defs>
    <g clip-path="url(#pe859bcc085)">
     <use xlink:href="#mdf3d3d7e4d" x="0" y="337.40125" style="fill: #0578ff; fill-opacity: 0.481818; stroke: #0578ff; stroke-opacity: 0.481818"/>
    </g>
   </g>
   <g id="line2d_12">
    <path d="M 15.170946 94.352479 
L 18.033163 94.352479 
L 20.89538 94.352479 
L 23.757597 94.352479 
L 26.619814 94.352479 
L 29.48203 94.352479 
L 32.344247 94.352479 
L 35.206464 94.352479 
L 38.068681 94.352479 
L 40.930898 94.352479 
L 43.793115 94.352479 
L 46.655331 94.352479 
L 49.517548 94.352479 
L 52.379765 94.352479 
L 55.241982 94.352479 
L 58.104199 94.352479 
L 60.966416 94.352479 
L 63.828632 94.352479 
L 66.690849 94.352479 
L 69.553066 94.352479 
L 72.415283 94.352479 
L 75.2775 94.352479 
L 78.139717 94.352479 
L 81.001933 94.352479 
L 83.86415 94.352479 
L 86.726367 94.352479 
" clip-path="url(#pe859bcc085)" style="fill: none; stroke: #0578ff; stroke-opacity: 0.481818; stroke-width: 1.5; stroke-linecap: square"/>
   </g>
   <g id="line2d_13">
    <path d="M 15.170946 94.352479 
L 18.033163 82.096942 
L 20.89538 57.585868 
L 23.757597 33.074793 
L 26.619814 82.096942 
L 29.48203 69.841405 
L 32.344247 82.096942 
L 35.206464 94.352479 
L 38.068681 69.841405 
L 40.930898 94.352479 
L 43.793115 82.096942 
L 46.655331 94.352479 
L 49.517548 94.352479 
L 52.379765 82.096942 
L 55.241982 94.352479 
L 58.104199 94.352479 
L 60.966416 94.352479 
L 63.828632 94.352479 
L 66.690849 94.352479 
L 69.553066 82.096942 
L 72.415283 94.352479 
L 75.2775 94.352479 
L 78.139717 94.352479 
L 81.001933 94.352479 
L 83.86415 69.841405 
L 86.726367 94.352479 
" clip-path="url(#pe859bcc085)" style="fill: none; stroke: #000000; stroke-opacity: 0.481818; stroke-width: 1.5; stroke-linecap: square"/>
   </g>
  </g>
  <g id="axes_5">
   <g id="FillBetweenPolyCollection_4">
    <defs>
     <path id="m4daa2ac8d2" d="M 19.203651 -231.643316 
L 19.203651 -231.643316 
L 22.29906 -231.643316 
L 25.394469 -231.643316 
L 28.489878 -231.643316 
L 31.585287 -231.643316 
L 34.680696 -231.643316 
L 37.776105 -231.643316 
L 40.871514 -231.643316 
L 43.966923 -231.643316 
L 47.062331 -231.643316 
L 50.15774 -231.643316 
L 53.253149 -231.643316 
L 56.348558 -231.643316 
L 59.443967 -231.643316 
L 62.539376 -231.643316 
L 65.634785 -231.643316 
L 68.730194 -231.643316 
L 71.825603 -231.643316 
L 74.921012 -231.643316 
L 78.016421 -231.643316 
L 81.111829 -231.643316 
L 84.207238 -231.643316 
L 87.302647 -231.643316 
L 90.398056 -231.643316 
L 93.493465 -231.643316 
L 96.588874 -231.643316 
L 96.588874 -231.643316 
L 96.588874 -231.643316 
L 93.493465 -243.898853 
L 90.398056 -231.643316 
L 87.302647 -243.898853 
L 84.207238 -231.643316 
L 81.111829 -231.643316 
L 78.016421 -243.898853 
L 74.921012 -243.898853 
L 71.825603 -231.643316 
L 68.730194 -231.643316 
L 65.634785 -231.643316 
L 62.539376 -231.643316 
L 59.443967 -231.643316 
L 56.348558 -243.898853 
L 53.253149 -231.643316 
L 50.15774 -231.643316 
L 47.062331 -231.643316 
L 43.966923 -231.643316 
L 40.871514 -256.15439 
L 37.776105 -243.898853 
L 34.680696 -231.643316 
L 31.585287 -256.15439 
L 28.489878 -243.898853 
L 25.394469 -280.665465 
L 22.29906 -292.921002 
L 19.203651 -231.643316 
z
" style="stroke: #0578ff; stroke-opacity: 0.509091"/>
    </defs>
    <g clip-path="url(#pb016e51502)">
     <use xlink:href="#m4daa2ac8d2" x="0" y="337.40125" style="fill: #0578ff; fill-opacity: 0.509091; stroke: #0578ff; stroke-opacity: 0.509091"/>
    </g>
   </g>
   <g id="line2d_14">
    <path d="M 19.203651 105.757934 
L 22.29906 105.757934 
L 25.394469 105.757934 
L 28.489878 105.757934 
L 31.585287 105.757934 
L 34.680696 105.757934 
L 37.776105 105.757934 
L 40.871514 105.757934 
L 43.966923 105.757934 
L 47.062331 105.757934 
L 50.15774 105.757934 
L 53.253149 105.757934 
L 56.348558 105.757934 
L 59.443967 105.757934 
L 62.539376 105.757934 
L 65.634785 105.757934 
L 68.730194 105.757934 
L 71.825603 105.757934 
L 74.921012 105.757934 
L 78.016421 105.757934 
L 81.111829 105.757934 
L 84.207238 105.757934 
L 87.302647 105.757934 
L 90.398056 105.757934 
L 93.493465 105.757934 
L 96.588874 105.757934 
" clip-path="url(#pb016e51502)" style="fill: none; stroke: #0578ff; stroke-opacity: 0.509091; stroke-width: 1.5; stroke-linecap: square"/>
   </g>
   <g id="line2d_15">
    <path d="M 19.203651 105.757934 
L 22.29906 44.480248 
L 25.394469 56.735785 
L 28.489878 93.502397 
L 31.585287 81.24686 
L 34.680696 105.757934 
L 37.776105 93.502397 
L 40.871514 81.24686 
L 43.966923 105.757934 
L 47.062331 105.757934 
L 50.15774 105.757934 
L 53.253149 105.757934 
L 56.348558 93.502397 
L 59.443967 105.757934 
L 62.539376 105.757934 
L 65.634785 105.757934 
L 68.730194 105.757934 
L 71.825603 105.757934 
L 74.921012 93.502397 
L 78.016421 93.502397 
L 81.111829 105.757934 
L 84.207238 105.757934 
L 87.302647 93.502397 
L 90.398056 105.757934 
L 93.493465 93.502397 
L 96.588874 105.757934 
" clip-path="url(#pb016e51502)" style="fill: none; stroke: #000000; stroke-opacity: 0.509091; stroke-width: 1.5; stroke-linecap: square"/>
   </g>
  </g>
  <g id="axes_6">
   <g id="FillBetweenPolyCollection_5">
    <defs>
     <path id="m113edd62fa" d="M 17.564895 -220.237862 
L 17.564895 -220.237862 
L 20.928043 -220.237862 
L 24.29119 -220.237862 
L 27.654338 -220.237862 
L 31.017486 -220.237862 
L 34.380634 -220.237862 
L 37.743782 -220.237862 
L 41.10693 -220.237862 
L 44.470078 -220.237862 
L 47.833226 -220.237862 
L 51.196374 -220.237862 
L 54.559522 -220.237862 
L 57.92267 -220.237862 
L 61.285818 -220.237862 
L 64.648966 -220.237862 
L 68.012114 -220.237862 
L 71.375262 -220.237862 
L 74.73841 -220.237862 
L 78.101558 -220.237862 
L 81.464706 -220.237862 
L 84.827854 -220.237862 
L 88.191002 -220.237862 
L 91.55415 -220.237862 
L 94.917298 -220.237862 
L 98.280446 -220.237862 
L 101.643594 -220.237862 
L 101.643594 -220.237862 
L 101.643594 -220.237862 
L 98.280446 -240.663757 
L 94.917298 -220.237862 
L 91.55415 -220.237862 
L 88.191002 -220.237862 
L 84.827854 -220.237862 
L 81.464706 -240.663757 
L 78.101558 -220.237862 
L 74.73841 -220.237862 
L 71.375262 -220.237862 
L 68.012114 -220.237862 
L 64.648966 -230.450809 
L 61.285818 -220.237862 
L 57.92267 -220.237862 
L 54.559522 -220.237862 
L 51.196374 -220.237862 
L 47.833226 -220.237862 
L 44.470078 -230.450809 
L 41.10693 -230.450809 
L 37.743782 -240.663757 
L 34.380634 -240.663757 
L 31.017486 -220.237862 
L 27.654338 -240.663757 
L 24.29119 -230.450809 
L 20.928043 -281.515548 
L 17.564895 -220.237862 
z
" style="stroke: #0578ff; stroke-opacity: 0.536364"/>
    </defs>
    <g clip-path="url(#p3a56ab7470)">
     <use xlink:href="#m113edd62fa" x="0" y="337.40125" style="fill: #0578ff; fill-opacity: 0.536364; stroke: #0578ff; stroke-opacity: 0.536364"/>
    </g>
   </g>
   <g id="line2d_16">
    <path d="M 17.564895 117.163388 
L 20.928043 117.163388 
L 24.29119 117.163388 
L 27.654338 117.163388 
L 31.017486 117.163388 
L 34.380634 117.163388 
L 37.743782 117.163388 
L 41.10693 117.163388 
L 44.470078 117.163388 
L 47.833226 117.163388 
L 51.196374 117.163388 
L 54.559522 117.163388 
L 57.92267 117.163388 
L 61.285818 117.163388 
L 64.648966 117.163388 
L 68.012114 117.163388 
L 71.375262 117.163388 
L 74.73841 117.163388 
L 78.101558 117.163388 
L 81.464706 117.163388 
L 84.827854 117.163388 
L 88.191002 117.163388 
L 91.55415 117.163388 
L 94.917298 117.163388 
L 98.280446 117.163388 
L 101.643594 117.163388 
" clip-path="url(#p3a56ab7470)" style="fill: none; stroke: #0578ff; stroke-opacity: 0.536364; stroke-width: 1.5; stroke-linecap: square"/>
   </g>
   <g id="line2d_17">
    <path d="M 17.564895 117.163388 
L 20.928043 55.885702 
L 24.29119 106.950441 
L 27.654338 96.737493 
L 31.017486 117.163388 
L 34.380634 96.737493 
L 37.743782 96.737493 
L 41.10693 106.950441 
L 44.470078 106.950441 
L 47.833226 117.163388 
L 51.196374 117.163388 
L 54.559522 117.163388 
L 57.92267 117.163388 
L 61.285818 117.163388 
L 64.648966 106.950441 
L 68.012114 117.163388 
L 71.375262 117.163388 
L 74.73841 117.163388 
L 78.101558 117.163388 
L 81.464706 96.737493 
L 84.827854 117.163388 
L 88.191002 117.163388 
L 91.55415 117.163388 
L 94.917298 117.163388 
L 98.280446 96.737493 
L 101.643594 117.163388 
" clip-path="url(#p3a56ab7470)" style="fill: none; stroke: #000000; stroke-opacity: 0.536364; stroke-width: 1.5; stroke-linecap: square"/>
   </g>
  </g>
  <g id="axes_7">
   <g id="FillBetweenPolyCollection_6">
    <defs>
     <path id="mecff7d6186" d="M 18.546892 -208.832407 
L 18.546892 -208.832407 
L 22.637484 -208.832407 
L 26.728076 -208.832407 
L 30.818669 -208.832407 
L 34.909261 -208.832407 
L 38.999853 -208.832407 
L 43.090445 -208.832407 
L 47.181037 -208.832407 
L 51.271629 -208.832407 
L 55.362221 -208.832407 
L 59.452813 -208.832407 
L 63.543405 -208.832407 
L 67.633997 -208.832407 
L 71.724589 -208.832407 
L 75.815182 -208.832407 
L 79.905774 -208.832407 
L 83.996366 -208.832407 
L 88.086958 -208.832407 
L 92.17755 -208.832407 
L 96.268142 -208.832407 
L 100.358734 -208.832407 
L 104.449326 -208.832407 
L 108.539918 -208.832407 
L 112.63051 -208.832407 
L 116.721102 -208.832407 
L 120.811695 -208.832407 
L 120.811695 -208.832407 
L 120.811695 -208.832407 
L 116.721102 -224.151829 
L 112.63051 -208.832407 
L 108.539918 -208.832407 
L 104.449326 -208.832407 
L 100.358734 -208.832407 
L 96.268142 -208.832407 
L 92.17755 -208.832407 
L 88.086958 -208.832407 
L 83.996366 -224.151829 
L 79.905774 -224.151829 
L 75.815182 -224.151829 
L 71.724589 -208.832407 
L 67.633997 -224.151829 
L 63.543405 -208.832407 
L 59.452813 -208.832407 
L 55.362221 -208.832407 
L 51.271629 -224.151829 
L 47.181037 -254.790671 
L 43.090445 -224.151829 
L 38.999853 -224.151829 
L 34.909261 -208.832407 
L 30.818669 -254.790671 
L 26.728076 -239.47125 
L 22.637484 -270.110093 
L 18.546892 -208.832407 
z
" style="stroke: #0578ff; stroke-opacity: 0.563636"/>
    </defs>
    <g clip-path="url(#p2fe622ad0f)">
     <use xlink:href="#mecff7d6186" x="0" y="337.40125" style="fill: #0578ff; fill-opacity: 0.563636; stroke: #0578ff; stroke-opacity: 0.563636"/>
    </g>
   </g>
   <g id="line2d_18">
    <path d="M 18.546892 128.568843 
L 22.637484 128.568843 
L 26.728076 128.568843 
L 30.818669 128.568843 
L 34.909261 128.568843 
L 38.999853 128.568843 
L 43.090445 128.568843 
L 47.181037 128.568843 
L 51.271629 128.568843 
L 55.362221 128.568843 
L 59.452813 128.568843 
L 63.543405 128.568843 
L 67.633997 128.568843 
L 71.724589 128.568843 
L 75.815182 128.568843 
L 79.905774 128.568843 
L 83.996366 128.568843 
L 88.086958 128.568843 
L 92.17755 128.568843 
L 96.268142 128.568843 
L 100.358734 128.568843 
L 104.449326 128.568843 
L 108.539918 128.568843 
L 112.63051 128.568843 
L 116.721102 128.568843 
L 120.811695 128.568843 
" clip-path="url(#p2fe622ad0f)" style="fill: none; stroke: #0578ff; stroke-opacity: 0.563636; stroke-width: 1.5; stroke-linecap: square"/>
   </g>
   <g id="line2d_19">
    <path d="M 18.546892 128.568843 
L 22.637484 67.291157 
L 26.728076 97.93 
L 30.818669 82.610579 
L 34.909261 128.568843 
L 38.999853 113.249421 
L 43.090445 113.249421 
L 47.181037 82.610579 
L 51.271629 113.249421 
L 55.362221 128.568843 
L 59.452813 128.568843 
L 63.543405 128.568843 
L 67.633997 113.249421 
L 71.724589 128.568843 
L 75.815182 113.249421 
L 79.905774 113.249421 
L 83.996366 113.249421 
L 88.086958 128.568843 
L 92.17755 128.568843 
L 96.268142 128.568843 
L 100.358734 128.568843 
L 104.449326 128.568843 
L 108.539918 128.568843 
L 112.63051 128.568843 
L 116.721102 113.249421 
L 120.811695 128.568843 
" clip-path="url(#p2fe622ad0f)" style="fill: none; stroke: #000000; stroke-opacity: 0.563636; stroke-width: 1.5; stroke-linecap: square"/>
   </g>
  </g>
  <g id="axes_8">
   <g id="FillBetweenPolyCollection_7">
    <defs>
     <path id="me150d7c9e5" d="M 16.533196 -197.426952 
L 16.533196 -197.426952 
L 20.151992 -197.426952 
L 23.770787 -197.426952 
L 27.389583 -197.426952 
L 31.008379 -197.426952 
L 34.627174 -197.426952 
L 38.24597 -197.426952 
L 41.864765 -197.426952 
L 45.483561 -197.426952 
L 49.102356 -197.426952 
L 52.721152 -197.426952 
L 56.339948 -197.426952 
L 59.958743 -197.426952 
L 63.577539 -197.426952 
L 67.196334 -197.426952 
L 70.81513 -197.426952 
L 74.433925 -197.426952 
L 78.052721 -197.426952 
L 81.671517 -197.426952 
L 85.290312 -197.426952 
L 88.909108 -197.426952 
L 92.527903 -197.426952 
L 96.146699 -197.426952 
L 99.765494 -197.426952 
L 103.38429 -197.426952 
L 107.003086 -197.426952 
L 107.003086 -197.426952 
L 107.003086 -197.426952 
L 103.38429 -212.746374 
L 99.765494 -197.426952 
L 96.146699 -197.426952 
L 92.527903 -197.426952 
L 88.909108 -212.746374 
L 85.290312 -197.426952 
L 81.671517 -212.746374 
L 78.052721 -197.426952 
L 74.433925 -197.426952 
L 70.81513 -197.426952 
L 67.196334 -197.426952 
L 63.577539 -197.426952 
L 59.958743 -197.426952 
L 56.339948 -258.704638 
L 52.721152 -197.426952 
L 49.102356 -212.746374 
L 45.483561 -212.746374 
L 41.864765 -228.065795 
L 38.24597 -197.426952 
L 34.627174 -228.065795 
L 31.008379 -197.426952 
L 27.389583 -243.385217 
L 23.770787 -228.065795 
L 20.151992 -228.065795 
L 16.533196 -197.426952 
z
" style="stroke: #0578ff; stroke-opacity: 0.590909"/>
    </defs>
    <g clip-path="url(#p44ecfba5a5)">
     <use xlink:href="#me150d7c9e5" x="0" y="337.40125" style="fill: #0578ff; fill-opacity: 0.590909; stroke: #0578ff; stroke-opacity: 0.590909"/>
    </g>
   </g>
   <g id="line2d_20">
    <path d="M 16.533196 139.974298 
L 20.151992 139.974298 
L 23.770787 139.974298 
L 27.389583 139.974298 
L 31.008379 139.974298 
L 34.627174 139.974298 
L 38.24597 139.974298 
L 41.864765 139.974298 
L 45.483561 139.974298 
L 49.102356 139.974298 
L 52.721152 139.974298 
L 56.339948 139.974298 
L 59.958743 139.974298 
L 63.577539 139.974298 
L 67.196334 139.974298 
L 70.81513 139.974298 
L 74.433925 139.974298 
L 78.052721 139.974298 
L 81.671517 139.974298 
L 85.290312 139.974298 
L 88.909108 139.974298 
L 92.527903 139.974298 
L 96.146699 139.974298 
L 99.765494 139.974298 
L 103.38429 139.974298 
L 107.003086 139.974298 
" clip-path="url(#p44ecfba5a5)" style="fill: none; stroke: #0578ff; stroke-opacity: 0.590909; stroke-width: 1.5; stroke-linecap: square"/>
   </g>
   <g id="line2d_21">
    <path d="M 16.533196 139.974298 
L 20.151992 109.335455 
L 23.770787 109.335455 
L 27.389583 94.016033 
L 31.008379 139.974298 
L 34.627174 109.335455 
L 38.24597 139.974298 
L 41.864765 109.335455 
L 45.483561 124.654876 
L 49.102356 124.654876 
L 52.721152 139.974298 
L 56.339948 78.696612 
L 59.958743 139.974298 
L 63.577539 139.974298 
L 67.196334 139.974298 
L 70.81513 139.974298 
L 74.433925 139.974298 
L 78.052721 139.974298 
L 81.671517 124.654876 
L 85.290312 139.974298 
L 88.909108 124.654876 
L 92.527903 139.974298 
L 96.146699 139.974298 
L 99.765494 139.974298 
L 103.38429 124.654876 
L 107.003086 139.974298 
" clip-path="url(#p44ecfba5a5)" style="fill: none; stroke: #000000; stroke-opacity: 0.590909; stroke-width: 1.5; stroke-linecap: square"/>
   </g>
  </g>
  <g id="axes_9">
   <g id="FillBetweenPolyCollection_8">
    <defs>
     <path id="ma8cb100530" d="M 15.682111 -186.021498 
L 15.682111 -186.021498 
L 18.844541 -186.021498 
L 22.006971 -186.021498 
L 25.169401 -186.021498 
L 28.331831 -186.021498 
L 31.494261 -186.021498 
L 34.656691 -186.021498 
L 37.819121 -186.021498 
L 40.981551 -186.021498 
L 44.143981 -186.021498 
L 47.306411 -186.021498 
L 50.468841 -186.021498 
L 53.631271 -186.021498 
L 56.793701 -186.021498 
L 59.956131 -186.021498 
L 63.118561 -186.021498 
L 66.280991 -186.021498 
L 69.443421 -186.021498 
L 72.605851 -186.021498 
L 75.768281 -186.021498 
L 78.930711 -186.021498 
L 82.093141 -186.021498 
L 85.255572 -186.021498 
L 88.418002 -186.021498 
L 91.580432 -186.021498 
L 94.742862 -186.021498 
L 94.742862 -186.021498 
L 94.742862 -186.021498 
L 91.580432 -201.340919 
L 88.418002 -186.021498 
L 85.255572 -201.340919 
L 82.093141 -201.340919 
L 78.930711 -186.021498 
L 75.768281 -186.021498 
L 72.605851 -186.021498 
L 69.443421 -186.021498 
L 66.280991 -201.340919 
L 63.118561 -186.021498 
L 59.956131 -186.021498 
L 56.793701 -201.340919 
L 53.631271 -186.021498 
L 50.468841 -186.021498 
L 47.306411 -201.340919 
L 44.143981 -201.340919 
L 40.981551 -216.660341 
L 37.819121 -201.340919 
L 34.656691 -186.021498 
L 31.494261 -201.340919 
L 28.331831 -231.979762 
L 25.169401 -201.340919 
L 22.006971 -247.299184 
L 18.844541 -201.340919 
L 15.682111 -186.021498 
z
" style="stroke: #0578ff; stroke-opacity: 0.618182"/>
    </defs>
    <g clip-path="url(#pcc702ea275)">
     <use xlink:href="#ma8cb100530" x="0" y="337.40125" style="fill: #0578ff; fill-opacity: 0.618182; stroke: #0578ff; stroke-opacity: 0.618182"/>
    </g>
   </g>
   <g id="line2d_22">
    <path d="M 15.682111 151.379752 
L 18.844541 151.379752 
L 22.006971 151.379752 
L 25.169401 151.379752 
L 28.331831 151.379752 
L 31.494261 151.379752 
L 34.656691 151.379752 
L 37.819121 151.379752 
L 40.981551 151.379752 
L 44.143981 151.379752 
L 47.306411 151.379752 
L 50.468841 151.379752 
L 53.631271 151.379752 
L 56.793701 151.379752 
L 59.956131 151.379752 
L 63.118561 151.379752 
L 66.280991 151.379752 
L 69.443421 151.379752 
L 72.605851 151.379752 
L 75.768281 151.379752 
L 78.930711 151.379752 
L 82.093141 151.379752 
L 85.255572 151.379752 
L 88.418002 151.379752 
L 91.580432 151.379752 
L 94.742862 151.379752 
" clip-path="url(#pcc702ea275)" style="fill: none; stroke: #0578ff; stroke-opacity: 0.618182; stroke-width: 1.5; stroke-linecap: square"/>
   </g>
   <g id="line2d_23">
    <path d="M 15.682111 151.379752 
L 18.844541 136.060331 
L 22.006971 90.102066 
L 25.169401 136.060331 
L 28.331831 105.421488 
L 31.494261 136.060331 
L 34.656691 151.379752 
L 37.819121 136.060331 
L 40.981551 120.740909 
L 44.143981 136.060331 
L 47.306411 136.060331 
L 50.468841 151.379752 
L 53.631271 151.379752 
L 56.793701 136.060331 
L 59.956131 151.379752 
L 63.118561 151.379752 
L 66.280991 136.060331 
L 69.443421 151.379752 
L 72.605851 151.379752 
L 75.768281 151.379752 
L 78.930711 151.379752 
L 82.093141 136.060331 
L 85.255572 136.060331 
L 88.418002 151.379752 
L 91.580432 136.060331 
L 94.742862 151.379752 
" clip-path="url(#pcc702ea275)" style="fill: none; stroke: #000000; stroke-opacity: 0.618182; stroke-width: 1.5; stroke-linecap: square"/>
   </g>
  </g>
  <g id="axes_10">
   <g id="FillBetweenPolyCollection_9">
    <defs>
     <path id="m6a802d2606" d="M 20.743242 -174.616043 
L 20.743242 -174.616043 
L 24.08762 -174.616043 
L 27.431997 -174.616043 
L 30.776375 -174.616043 
L 34.120752 -174.616043 
L 37.46513 -174.616043 
L 40.809507 -174.616043 
L 44.153884 -174.616043 
L 47.498262 -174.616043 
L 50.842639 -174.616043 
L 54.187017 -174.616043 
L 57.531394 -174.616043 
L 60.875772 -174.616043 
L 64.220149 -174.616043 
L 67.564527 -174.616043 
L 70.908904 -174.616043 
L 74.253281 -174.616043 
L 77.597659 -174.616043 
L 80.942036 -174.616043 
L 84.286414 -174.616043 
L 87.630791 -174.616043 
L 90.975169 -174.616043 
L 94.319546 -174.616043 
L 97.663924 -174.616043 
L 101.008301 -174.616043 
L 104.352678 -174.616043 
L 104.352678 -174.616043 
L 104.352678 -174.616043 
L 101.008301 -186.871581 
L 97.663924 -174.616043 
L 94.319546 -174.616043 
L 90.975169 -174.616043 
L 87.630791 -174.616043 
L 84.286414 -174.616043 
L 80.942036 -174.616043 
L 77.597659 -186.871581 
L 74.253281 -199.127118 
L 70.908904 -174.616043 
L 67.564527 -186.871581 
L 64.220149 -174.616043 
L 60.875772 -174.616043 
L 57.531394 -186.871581 
L 54.187017 -174.616043 
L 50.842639 -174.616043 
L 47.498262 -186.871581 
L 44.153884 -186.871581 
L 40.809507 -174.616043 
L 37.46513 -186.871581 
L 34.120752 -199.127118 
L 30.776375 -235.893729 
L 27.431997 -186.871581 
L 24.08762 -211.382655 
L 20.743242 -174.616043 
z
" style="stroke: #0578ff; stroke-opacity: 0.645455"/>
    </defs>
    <g clip-path="url(#p806501c95f)">
     <use xlink:href="#m6a802d2606" x="0" y="337.40125" style="fill: #0578ff; fill-opacity: 0.645455; stroke: #0578ff; stroke-opacity: 0.645455"/>
    </g>
   </g>
   <g id="line2d_24">
    <path d="M 20.743242 162.785207 
L 24.08762 162.785207 
L 27.431997 162.785207 
L 30.776375 162.785207 
L 34.120752 162.785207 
L 37.46513 162.785207 
L 40.809507 162.785207 
L 44.153884 162.785207 
L 47.498262 162.785207 
L 50.842639 162.785207 
L 54.187017 162.785207 
L 57.531394 162.785207 
L 60.875772 162.785207 
L 64.220149 162.785207 
L 67.564527 162.785207 
L 70.908904 162.785207 
L 74.253281 162.785207 
L 77.597659 162.785207 
L 80.942036 162.785207 
L 84.286414 162.785207 
L 87.630791 162.785207 
L 90.975169 162.785207 
L 94.319546 162.785207 
L 97.663924 162.785207 
L 101.008301 162.785207 
L 104.352678 162.785207 
" clip-path="url(#p806501c95f)" style="fill: none; stroke: #0578ff; stroke-opacity: 0.645455; stroke-width: 1.5; stroke-linecap: square"/>
   </g>
   <g id="line2d_25">
    <path d="M 20.743242 162.785207 
L 24.08762 126.018595 
L 27.431997 150.529669 
L 30.776375 101.507521 
L 34.120752 138.274132 
L 37.46513 150.529669 
L 40.809507 162.785207 
L 44.153884 150.529669 
L 47.498262 150.529669 
L 50.842639 162.785207 
L 54.187017 162.785207 
L 57.531394 150.529669 
L 60.875772 162.785207 
L 64.220149 162.785207 
L 67.564527 150.529669 
L 70.908904 162.785207 
L 74.253281 138.274132 
L 77.597659 150.529669 
L 80.942036 162.785207 
L 84.286414 162.785207 
L 87.630791 162.785207 
L 90.975169 162.785207 
L 94.319546 162.785207 
L 97.663924 162.785207 
L 101.008301 150.529669 
L 104.352678 162.785207 
" clip-path="url(#p806501c95f)" style="fill: none; stroke: #000000; stroke-opacity: 0.645455; stroke-width: 1.5; stroke-linecap: square"/>
   </g>
  </g>
  <g id="axes_11">
   <g id="FillBetweenPolyCollection_10">
    <defs>
     <path id="m956782c865" d="M 25.825573 -163.210589 
L 25.825573 -163.210589 
L 29.560332 -163.210589 
L 33.29509 -163.210589 
L 37.029848 -163.210589 
L 40.764606 -163.210589 
L 44.499365 -163.210589 
L 48.234123 -163.210589 
L 51.968881 -163.210589 
L 55.703639 -163.210589 
L 59.438398 -163.210589 
L 63.173156 -163.210589 
L 66.907914 -163.210589 
L 70.642672 -163.210589 
L 74.377431 -163.210589 
L 78.112189 -163.210589 
L 81.846947 -163.210589 
L 85.581705 -163.210589 
L 89.316464 -163.210589 
L 93.051222 -163.210589 
L 96.78598 -163.210589 
L 100.520738 -163.210589 
L 104.255497 -163.210589 
L 107.990255 -163.210589 
L 111.725013 -163.210589 
L 115.459771 -163.210589 
L 119.19453 -163.210589 
L 119.19453 -163.210589 
L 119.19453 -163.210589 
L 115.459771 -173.423537 
L 111.725013 -163.210589 
L 107.990255 -163.210589 
L 104.255497 -163.210589 
L 100.520738 -163.210589 
L 96.78598 -163.210589 
L 93.051222 -163.210589 
L 89.316464 -173.423537 
L 85.581705 -173.423537 
L 81.846947 -173.423537 
L 78.112189 -183.636484 
L 74.377431 -163.210589 
L 70.642672 -163.210589 
L 66.907914 -163.210589 
L 63.173156 -163.210589 
L 59.438398 -163.210589 
L 55.703639 -173.423537 
L 51.968881 -163.210589 
L 48.234123 -163.210589 
L 44.499365 -173.423537 
L 40.764606 -163.210589 
L 37.029848 -173.423537 
L 33.29509 -224.488275 
L 29.560332 -214.275327 
L 25.825573 -163.210589 
z
" style="stroke: #0578ff; stroke-opacity: 0.672727"/>
    </defs>
    <g clip-path="url(#p10f28a04d1)">
     <use xlink:href="#m956782c865" x="0" y="337.40125" style="fill: #0578ff; fill-opacity: 0.672727; stroke: #0578ff; stroke-opacity: 0.672727"/>
    </g>
   </g>
   <g id="line2d_26">
    <path d="M 25.825573 174.190661 
L 29.560332 174.190661 
L 33.29509 174.190661 
L 37.029848 174.190661 
L 40.764606 174.190661 
L 44.499365 174.190661 
L 48.234123 174.190661 
L 51.968881 174.190661 
L 55.703639 174.190661 
L 59.438398 174.190661 
L 63.173156 174.190661 
L 66.907914 174.190661 
L 70.642672 174.190661 
L 74.377431 174.190661 
L 78.112189 174.190661 
L 81.846947 174.190661 
L 85.581705 174.190661 
L 89.316464 174.190661 
L 93.051222 174.190661 
L 96.78598 174.190661 
L 100.520738 174.190661 
L 104.255497 174.190661 
L 107.990255 174.190661 
L 111.725013 174.190661 
L 115.459771 174.190661 
L 119.19453 174.190661 
" clip-path="url(#p10f28a04d1)" style="fill: none; stroke: #0578ff; stroke-opacity: 0.672727; stroke-width: 1.5; stroke-linecap: square"/>
   </g>
   <g id="line2d_27">
    <path d="M 25.825573 174.190661 
L 29.560332 123.125923 
L 33.29509 112.912975 
L 37.029848 163.977713 
L 40.764606 174.190661 
L 44.499365 163.977713 
L 48.234123 174.190661 
L 51.968881 174.190661 
L 55.703639 163.977713 
L 59.438398 174.190661 
L 63.173156 174.190661 
L 66.907914 174.190661 
L 70.642672 174.190661 
L 74.377431 174.190661 
L 78.112189 153.764766 
L 81.846947 163.977713 
L 85.581705 163.977713 
L 89.316464 163.977713 
L 93.051222 174.190661 
L 96.78598 174.190661 
L 100.520738 174.190661 
L 104.255497 174.190661 
L 107.990255 174.190661 
L 111.725013 174.190661 
L 115.459771 163.977713 
L 119.19453 174.190661 
" clip-path="url(#p10f28a04d1)" style="fill: none; stroke: #000000; stroke-opacity: 0.672727; stroke-width: 1.5; stroke-linecap: square"/>
   </g>
  </g>
  <g id="axes_12">
   <g id="FillBetweenPolyCollection_11">
    <defs>
     <path id="m39044b610b" d="M 17.08019 -151.805134 
L 17.08019 -151.805134 
L 20.475582 -151.805134 
L 23.870974 -151.805134 
L 27.266365 -151.805134 
L 30.661757 -151.805134 
L 34.057149 -151.805134 
L 37.452541 -151.805134 
L 40.847933 -151.805134 
L 44.243324 -151.805134 
L 47.638716 -151.805134 
L 51.034108 -151.805134 
L 54.4295 -151.805134 
L 57.824892 -151.805134 
L 61.220284 -151.805134 
L 64.615675 -151.805134 
L 68.011067 -151.805134 
L 71.406459 -151.805134 
L 74.801851 -151.805134 
L 78.197243 -151.805134 
L 81.592634 -151.805134 
L 84.988026 -151.805134 
L 88.383418 -151.805134 
L 91.77881 -151.805134 
L 95.174202 -151.805134 
L 98.569593 -151.805134 
L 101.964985 -151.805134 
L 101.964985 -151.805134 
L 101.964985 -151.805134 
L 98.569593 -167.124556 
L 95.174202 -151.805134 
L 91.77881 -151.805134 
L 88.383418 -151.805134 
L 84.988026 -167.124556 
L 81.592634 -182.443977 
L 78.197243 -151.805134 
L 74.801851 -167.124556 
L 71.406459 -151.805134 
L 68.011067 -167.124556 
L 64.615675 -151.805134 
L 61.220284 -151.805134 
L 57.824892 -151.805134 
L 54.4295 -167.124556 
L 51.034108 -151.805134 
L 47.638716 -167.124556 
L 44.243324 -151.805134 
L 40.847933 -182.443977 
L 37.452541 -151.805134 
L 34.057149 -213.08282 
L 30.661757 -167.124556 
L 27.266365 -182.443977 
L 23.870974 -167.124556 
L 20.475582 -182.443977 
L 17.08019 -151.805134 
z
" style="stroke: #0578ff; stroke-opacity: 0.7"/>
    </defs>
    <g clip-path="url(#p665717a9b8)">
     <use xlink:href="#m39044b610b" x="0" y="337.40125" style="fill: #0578ff; fill-opacity: 0.7; stroke: #0578ff; stroke-opacity: 0.7"/>
    </g>
   </g>
   <g id="line2d_28">
    <path d="M 17.08019 185.596116 
L 20.475582 185.596116 
L 23.870974 185.596116 
L 27.266365 185.596116 
L 30.661757 185.596116 
L 34.057149 185.596116 
L 37.452541 185.596116 
L 40.847933 185.596116 
L 44.243324 185.596116 
L 47.638716 185.596116 
L 51.034108 185.596116 
L 54.4295 185.596116 
L 57.824892 185.596116 
L 61.220284 185.596116 
L 64.615675 185.596116 
L 68.011067 185.596116 
L 71.406459 185.596116 
L 74.801851 185.596116 
L 78.197243 185.596116 
L 81.592634 185.596116 
L 84.988026 185.596116 
L 88.383418 185.596116 
L 91.77881 185.596116 
L 95.174202 185.596116 
L 98.569593 185.596116 
L 101.964985 185.596116 
" clip-path="url(#p665717a9b8)" style="fill: none; stroke: #0578ff; stroke-opacity: 0.7; stroke-width: 1.5; stroke-linecap: square"/>
   </g>
   <g id="line2d_29">
    <path d="M 17.08019 185.596116 
L 20.475582 154.957273 
L 23.870974 170.276694 
L 27.266365 154.957273 
L 30.661757 170.276694 
L 34.057149 124.31843 
L 37.452541 185.596116 
L 40.847933 154.957273 
L 44.243324 185.596116 
L 47.638716 170.276694 
L 51.034108 185.596116 
L 54.4295 170.276694 
L 57.824892 185.596116 
L 61.220284 185.596116 
L 64.615675 185.596116 
L 68.011067 170.276694 
L 71.406459 185.596116 
L 74.801851 170.276694 
L 78.197243 185.596116 
L 81.592634 154.957273 
L 84.988026 170.276694 
L 88.383418 185.596116 
L 91.77881 185.596116 
L 95.174202 185.596116 
L 98.569593 170.276694 
L 101.964985 185.596116 
" clip-path="url(#p665717a9b8)" style="fill: none; stroke: #000000; stroke-opacity: 0.7; stroke-width: 1.5; stroke-linecap: square"/>
   </g>
  </g>
  <g id="axes_13">
   <g id="FillBetweenPolyCollection_12">
    <defs>
     <path id="m7866cf35fe" d="M 17.37083 -140.39968 
L 17.37083 -140.39968 
L 21.996669 -140.39968 
L 26.622509 -140.39968 
L 31.248349 -140.39968 
L 35.874189 -140.39968 
L 40.500029 -140.39968 
L 45.125869 -140.39968 
L 49.751709 -140.39968 
L 54.377549 -140.39968 
L 59.003388 -140.39968 
L 63.629228 -140.39968 
L 68.255068 -140.39968 
L 72.880908 -140.39968 
L 77.506748 -140.39968 
L 82.132588 -140.39968 
L 86.758428 -140.39968 
L 91.384268 -140.39968 
L 96.010107 -140.39968 
L 100.635947 -140.39968 
L 105.261787 -140.39968 
L 109.887627 -140.39968 
L 114.513467 -140.39968 
L 119.139307 -140.39968 
L 123.765147 -140.39968 
L 128.390987 -140.39968 
L 133.016827 -140.39968 
L 133.016827 -140.39968 
L 133.016827 -140.39968 
L 128.390987 -155.719101 
L 123.765147 -140.39968 
L 119.139307 -140.39968 
L 114.513467 -140.39968 
L 109.887627 -140.39968 
L 105.261787 -140.39968 
L 100.635947 -155.719101 
L 96.010107 -155.719101 
L 91.384268 -155.719101 
L 86.758428 -140.39968 
L 82.132588 -140.39968 
L 77.506748 -140.39968 
L 72.880908 -140.39968 
L 68.255068 -155.719101 
L 63.629228 -155.719101 
L 59.003388 -155.719101 
L 54.377549 -140.39968 
L 49.751709 -140.39968 
L 45.125869 -155.719101 
L 40.500029 -155.719101 
L 35.874189 -186.357944 
L 31.248349 -186.357944 
L 26.622509 -155.719101 
L 21.996669 -201.677366 
L 17.37083 -140.39968 
z
" style="stroke: #0578ff; stroke-opacity: 0.727273"/>
    </defs>
    <g clip-path="url(#p68301a2a8c)">
     <use xlink:href="#m7866cf35fe" x="0" y="337.40125" style="fill: #0578ff; fill-opacity: 0.727273; stroke: #0578ff; stroke-opacity: 0.727273"/>
    </g>
   </g>
   <g id="line2d_30">
    <path d="M 17.37083 197.00157 
L 21.996669 197.00157 
L 26.622509 197.00157 
L 31.248349 197.00157 
L 35.874189 197.00157 
L 40.500029 197.00157 
L 45.125869 197.00157 
L 49.751709 197.00157 
L 54.377549 197.00157 
L 59.003388 197.00157 
L 63.629228 197.00157 
L 68.255068 197.00157 
L 72.880908 197.00157 
L 77.506748 197.00157 
L 82.132588 197.00157 
L 86.758428 197.00157 
L 91.384268 197.00157 
L 96.010107 197.00157 
L 100.635947 197.00157 
L 105.261787 197.00157 
L 109.887627 197.00157 
L 114.513467 197.00157 
L 119.139307 197.00157 
L 123.765147 197.00157 
L 128.390987 197.00157 
L 133.016827 197.00157 
" clip-path="url(#p68301a2a8c)" style="fill: none; stroke: #0578ff; stroke-opacity: 0.727273; stroke-width: 1.5; stroke-linecap: square"/>
   </g>
   <g id="line2d_31">
    <path d="M 17.37083 197.00157 
L 21.996669 135.723884 
L 26.622509 181.682149 
L 31.248349 151.043306 
L 35.874189 151.043306 
L 40.500029 181.682149 
L 45.125869 181.682149 
L 49.751709 197.00157 
L 54.377549 197.00157 
L 59.003388 181.682149 
L 63.629228 181.682149 
L 68.255068 181.682149 
L 72.880908 197.00157 
L 77.506748 197.00157 
L 82.132588 197.00157 
L 86.758428 197.00157 
L 91.384268 181.682149 
L 96.010107 181.682149 
L 100.635947 181.682149 
L 105.261787 197.00157 
L 109.887627 197.00157 
L 114.513467 197.00157 
L 119.139307 197.00157 
L 123.765147 197.00157 
L 128.390987 181.682149 
L 133.016827 197.00157 
" clip-path="url(#p68301a2a8c)" style="fill: none; stroke: #000000; stroke-opacity: 0.727273; stroke-width: 1.5; stroke-linecap: square"/>
   </g>
  </g>
  <g id="axes_14">
   <g id="FillBetweenPolyCollection_13">
    <defs>
     <path id="ma47ff21213" d="M 16.473812 -128.994225 
L 16.473812 -128.994225 
L 21.776542 -128.994225 
L 27.079273 -128.994225 
L 32.382003 -128.994225 
L 37.684733 -128.994225 
L 42.987463 -128.994225 
L 48.290194 -128.994225 
L 53.592924 -128.994225 
L 58.895654 -128.994225 
L 64.198384 -128.994225 
L 69.501115 -128.994225 
L 74.803845 -128.994225 
L 80.106575 -128.994225 
L 85.409306 -128.994225 
L 90.712036 -128.994225 
L 96.014766 -128.994225 
L 101.317496 -128.994225 
L 106.620227 -128.994225 
L 111.922957 -128.994225 
L 117.225687 -128.994225 
L 122.528417 -128.994225 
L 127.831148 -128.994225 
L 133.133878 -128.994225 
L 138.436608 -128.994225 
L 143.739338 -128.994225 
L 149.042069 -128.994225 
L 149.042069 -128.994225 
L 149.042069 -128.994225 
L 143.739338 -144.313647 
L 138.436608 -128.994225 
L 133.133878 -128.994225 
L 127.831148 -128.994225 
L 122.528417 -128.994225 
L 117.225687 -144.313647 
L 111.922957 -128.994225 
L 106.620227 -144.313647 
L 101.317496 -144.313647 
L 96.014766 -128.994225 
L 90.712036 -128.994225 
L 85.409306 -128.994225 
L 80.106575 -144.313647 
L 74.803845 -128.994225 
L 69.501115 -159.633068 
L 64.198384 -128.994225 
L 58.895654 -128.994225 
L 53.592924 -159.633068 
L 48.290194 -144.313647 
L 42.987463 -144.313647 
L 37.684733 -174.95249 
L 32.382003 -128.994225 
L 27.079273 -159.633068 
L 21.776542 -190.271911 
L 16.473812 -128.994225 
z
" style="stroke: #0578ff; stroke-opacity: 0.754545"/>
    </defs>
    <g clip-path="url(#pb0c5603e8e)">
     <use xlink:href="#ma47ff21213" x="0" y="337.40125" style="fill: #0578ff; fill-opacity: 0.754545; stroke: #0578ff; stroke-opacity: 0.754545"/>
    </g>
   </g>
   <g id="line2d_32">
    <path d="M 16.473812 208.407025 
L 21.776542 208.407025 
L 27.079273 208.407025 
L 32.382003 208.407025 
L 37.684733 208.407025 
L 42.987463 208.407025 
L 48.290194 208.407025 
L 53.592924 208.407025 
L 58.895654 208.407025 
L 64.198384 208.407025 
L 69.501115 208.407025 
L 74.803845 208.407025 
L 80.106575 208.407025 
L 85.409306 208.407025 
L 90.712036 208.407025 
L 96.014766 208.407025 
L 101.317496 208.407025 
L 106.620227 208.407025 
L 111.922957 208.407025 
L 117.225687 208.407025 
L 122.528417 208.407025 
L 127.831148 208.407025 
L 133.133878 208.407025 
L 138.436608 208.407025 
L 143.739338 208.407025 
L 149.042069 208.407025 
" clip-path="url(#pb0c5603e8e)" style="fill: none; stroke: #0578ff; stroke-opacity: 0.754545; stroke-width: 1.5; stroke-linecap: square"/>
   </g>
   <g id="line2d_33">
    <path d="M 16.473812 208.407025 
L 21.776542 147.129339 
L 27.079273 177.768182 
L 32.382003 208.407025 
L 37.684733 162.44876 
L 42.987463 193.087603 
L 48.290194 193.087603 
L 53.592924 177.768182 
L 58.895654 208.407025 
L 64.198384 208.407025 
L 69.501115 177.768182 
L 74.803845 208.407025 
L 80.106575 193.087603 
L 85.409306 208.407025 
L 90.712036 208.407025 
L 96.014766 208.407025 
L 101.317496 193.087603 
L 106.620227 193.087603 
L 111.922957 208.407025 
L 117.225687 193.087603 
L 122.528417 208.407025 
L 127.831148 208.407025 
L 133.133878 208.407025 
L 138.436608 208.407025 
L 143.739338 193.087603 
L 149.042069 208.407025 
" clip-path="url(#pb0c5603e8e)" style="fill: none; stroke: #000000; stroke-opacity: 0.754545; stroke-width: 1.5; stroke-linecap: square"/>
   </g>
  </g>
  <g id="axes_15">
   <g id="FillBetweenPolyCollection_14">
    <defs>
     <path id="m783b2b8575" d="M 18.380046 -117.588771 
L 18.380046 -117.588771 
L 25.350129 -117.588771 
L 32.320211 -117.588771 
L 39.290293 -117.588771 
L 46.260376 -117.588771 
L 53.230458 -117.588771 
L 60.200541 -117.588771 
L 67.170623 -117.588771 
L 74.140705 -117.588771 
L 81.110788 -117.588771 
L 88.08087 -117.588771 
L 95.050953 -117.588771 
L 102.021035 -117.588771 
L 108.991117 -117.588771 
L 115.9612 -117.588771 
L 122.931282 -117.588771 
L 129.901365 -117.588771 
L 136.871447 -117.588771 
L 143.841529 -117.588771 
L 150.811612 -117.588771 
L 157.781694 -117.588771 
L 164.751777 -117.588771 
L 171.721859 -117.588771 
L 178.691942 -117.588771 
L 185.662024 -117.588771 
L 192.632106 -117.588771 
L 192.632106 -117.588771 
L 192.632106 -117.588771 
L 185.662024 -129.844308 
L 178.691942 -117.588771 
L 171.721859 -117.588771 
L 164.751777 -117.588771 
L 157.781694 -117.588771 
L 150.811612 -129.844308 
L 143.841529 -129.844308 
L 136.871447 -129.844308 
L 129.901365 -117.588771 
L 122.931282 -142.099845 
L 115.9612 -117.588771 
L 108.991117 -117.588771 
L 102.021035 -117.588771 
L 95.050953 -117.588771 
L 88.08087 -117.588771 
L 81.110788 -117.588771 
L 74.140705 -129.844308 
L 67.170623 -129.844308 
L 60.200541 -142.099845 
L 53.230458 -117.588771 
L 46.260376 -142.099845 
L 39.290293 -154.355382 
L 32.320211 -117.588771 
L 25.350129 -178.866457 
L 18.380046 -117.588771 
z
" style="stroke: #0578ff; stroke-opacity: 0.781818"/>
    </defs>
    <g clip-path="url(#p8e9e93217c)">
     <use xlink:href="#m783b2b8575" x="0" y="337.40125" style="fill: #0578ff; fill-opacity: 0.781818; stroke: #0578ff; stroke-opacity: 0.781818"/>
    </g>
   </g>
   <g id="line2d_34">
    <path d="M 18.380046 219.812479 
L 25.350129 219.812479 
L 32.320211 219.812479 
L 39.290293 219.812479 
L 46.260376 219.812479 
L 53.230458 219.812479 
L 60.200541 219.812479 
L 67.170623 219.812479 
L 74.140705 219.812479 
L 81.110788 219.812479 
L 88.08087 219.812479 
L 95.050953 219.812479 
L 102.021035 219.812479 
L 108.991117 219.812479 
L 115.9612 219.812479 
L 122.931282 219.812479 
L 129.901365 219.812479 
L 136.871447 219.812479 
L 143.841529 219.812479 
L 150.811612 219.812479 
L 157.781694 219.812479 
L 164.751777 219.812479 
L 171.721859 219.812479 
L 178.691942 219.812479 
L 185.662024 219.812479 
L 192.632106 219.812479 
" clip-path="url(#p8e9e93217c)" style="fill: none; stroke: #0578ff; stroke-opacity: 0.781818; stroke-width: 1.5; stroke-linecap: square"/>
   </g>
   <g id="line2d_35">
    <path d="M 18.380046 219.812479 
L 25.350129 158.534793 
L 32.320211 219.812479 
L 39.290293 183.045868 
L 46.260376 195.301405 
L 53.230458 219.812479 
L 60.200541 195.301405 
L 67.170623 207.556942 
L 74.140705 207.556942 
L 81.110788 219.812479 
L 88.08087 219.812479 
L 95.050953 219.812479 
L 102.021035 219.812479 
L 108.991117 219.812479 
L 115.9612 219.812479 
L 122.931282 195.301405 
L 129.901365 219.812479 
L 136.871447 207.556942 
L 143.841529 207.556942 
L 150.811612 207.556942 
L 157.781694 219.812479 
L 164.751777 219.812479 
L 171.721859 219.812479 
L 178.691942 219.812479 
L 185.662024 207.556942 
L 192.632106 219.812479 
" clip-path="url(#p8e9e93217c)" style="fill: none; stroke: #000000; stroke-opacity: 0.781818; stroke-width: 1.5; stroke-linecap: square"/>
   </g>
  </g>
  <g id="axes_16">
   <g id="FillBetweenPolyCollection_15">
    <defs>
     <path id="ma38a684ca8" d="M 18.531451 -106.183316 
L 18.531451 -106.183316 
L 27.934216 -106.183316 
L 37.336981 -106.183316 
L 46.739746 -106.183316 
L 56.142512 -106.183316 
L 65.545277 -106.183316 
L 74.948042 -106.183316 
L 84.350807 -106.183316 
L 93.753572 -106.183316 
L 103.156338 -106.183316 
L 112.559103 -106.183316 
L 121.961868 -106.183316 
L 131.364633 -106.183316 
L 140.767398 -106.183316 
L 150.170164 -106.183316 
L 159.572929 -106.183316 
L 168.975694 -106.183316 
L 178.378459 -106.183316 
L 187.781224 -106.183316 
L 197.18399 -106.183316 
L 206.586755 -106.183316 
L 215.98952 -106.183316 
L 225.392285 -106.183316 
L 234.79505 -106.183316 
L 244.197816 -106.183316 
L 253.600581 -106.183316 
L 253.600581 -106.183316 
L 253.600581 -106.183316 
L 244.197816 -126.609211 
L 234.79505 -106.183316 
L 225.392285 -106.183316 
L 215.98952 -106.183316 
L 206.586755 -106.183316 
L 197.18399 -106.183316 
L 187.781224 -126.609211 
L 178.378459 -126.609211 
L 168.975694 -126.609211 
L 159.572929 -106.183316 
L 150.170164 -106.183316 
L 140.767398 -106.183316 
L 131.364633 -126.609211 
L 121.961868 -106.183316 
L 112.559103 -126.609211 
L 103.156338 -106.183316 
L 93.753572 -147.035107 
L 84.350807 -106.183316 
L 74.948042 -147.035107 
L 65.545277 -167.461002 
L 56.142512 -126.609211 
L 46.739746 -126.609211 
L 37.336981 -167.461002 
L 27.934216 -147.035107 
L 18.531451 -106.183316 
z
" style="stroke: #0578ff; stroke-opacity: 0.809091"/>
    </defs>
    <g clip-path="url(#p4eeae5bc35)">
     <use xlink:href="#ma38a684ca8" x="0" y="337.40125" style="fill: #0578ff; fill-opacity: 0.809091; stroke: #0578ff; stroke-opacity: 0.809091"/>
    </g>
   </g>
   <g id="line2d_36">
    <path d="M 18.531451 231.217934 
L 27.934216 231.217934 
L 37.336981 231.217934 
L 46.739746 231.217934 
L 56.142512 231.217934 
L 65.545277 231.217934 
L 74.948042 231.217934 
L 84.350807 231.217934 
L 93.753572 231.217934 
L 103.156338 231.217934 
L 112.559103 231.217934 
L 121.961868 231.217934 
L 131.364633 231.217934 
L 140.767398 231.217934 
L 150.170164 231.217934 
L 159.572929 231.217934 
L 168.975694 231.217934 
L 178.378459 231.217934 
L 187.781224 231.217934 
L 197.18399 231.217934 
L 206.586755 231.217934 
L 215.98952 231.217934 
L 225.392285 231.217934 
L 234.79505 231.217934 
L 244.197816 231.217934 
L 253.600581 231.217934 
" clip-path="url(#p4eeae5bc35)" style="fill: none; stroke: #0578ff; stroke-opacity: 0.809091; stroke-width: 1.5; stroke-linecap: square"/>
   </g>
   <g id="line2d_37">
    <path d="M 18.531451 231.217934 
L 27.934216 190.366143 
L 37.336981 169.940248 
L 46.739746 210.792039 
L 56.142512 210.792039 
L 65.545277 169.940248 
L 74.948042 190.366143 
L 84.350807 231.217934 
L 93.753572 190.366143 
L 103.156338 231.217934 
L 112.559103 210.792039 
L 121.961868 231.217934 
L 131.364633 210.792039 
L 140.767398 231.217934 
L 150.170164 231.217934 
L 159.572929 231.217934 
L 168.975694 210.792039 
L 178.378459 210.792039 
L 187.781224 210.792039 
L 197.18399 231.217934 
L 206.586755 231.217934 
L 215.98952 231.217934 
L 225.392285 231.217934 
L 234.79505 231.217934 
L 244.197816 210.792039 
L 253.600581 231.217934 
" clip-path="url(#p4eeae5bc35)" style="fill: none; stroke: #000000; stroke-opacity: 0.809091; stroke-width: 1.5; stroke-linecap: square"/>
   </g>
  </g>
  <g id="axes_17">
   <g id="FillBetweenPolyCollection_16">
    <defs>
     <path id="mb6fc8628a7" d="M 19.557679 -94.777862 
L 19.557679 -94.777862 
L 26.577049 -94.777862 
L 33.596418 -94.777862 
L 40.615787 -94.777862 
L 47.635157 -94.777862 
L 54.654526 -94.777862 
L 61.673896 -94.777862 
L 68.693265 -94.777862 
L 75.712635 -94.777862 
L 82.732004 -94.777862 
L 89.751373 -94.777862 
L 96.770743 -94.777862 
L 103.790112 -94.777862 
L 110.809482 -94.777862 
L 117.828851 -94.777862 
L 124.848221 -94.777862 
L 131.86759 -94.777862 
L 138.886959 -94.777862 
L 145.906329 -94.777862 
L 152.925698 -94.777862 
L 159.945068 -94.777862 
L 166.964437 -94.777862 
L 173.983807 -94.777862 
L 181.003176 -94.777862 
L 188.022545 -94.777862 
L 195.041915 -94.777862 
L 195.041915 -94.777862 
L 195.041915 -94.777862 
L 188.022545 -110.097283 
L 181.003176 -94.777862 
L 173.983807 -110.097283 
L 166.964437 -94.777862 
L 159.945068 -110.097283 
L 152.925698 -94.777862 
L 145.906329 -94.777862 
L 138.886959 -94.777862 
L 131.86759 -94.777862 
L 124.848221 -94.777862 
L 117.828851 -125.416705 
L 110.809482 -94.777862 
L 103.790112 -94.777862 
L 96.770743 -94.777862 
L 89.751373 -140.736126 
L 82.732004 -94.777862 
L 75.712635 -94.777862 
L 68.693265 -94.777862 
L 61.673896 -94.777862 
L 54.654526 -140.736126 
L 47.635157 -156.055548 
L 40.615787 -125.416705 
L 33.596418 -125.416705 
L 26.577049 -110.097283 
L 19.557679 -94.777862 
z
" style="stroke: #0578ff; stroke-opacity: 0.836364"/>
    </defs>
    <g clip-path="url(#p96ac35909d)">
     <use xlink:href="#mb6fc8628a7" x="0" y="337.40125" style="fill: #0578ff; fill-opacity: 0.836364; stroke: #0578ff; stroke-opacity: 0.836364"/>
    </g>
   </g>
   <g id="line2d_38">
    <path d="M 19.557679 242.623388 
L 26.577049 242.623388 
L 33.596418 242.623388 
L 40.615787 242.623388 
L 47.635157 242.623388 
L 54.654526 242.623388 
L 61.673896 242.623388 
L 68.693265 242.623388 
L 75.712635 242.623388 
L 82.732004 242.623388 
L 89.751373 242.623388 
L 96.770743 242.623388 
L 103.790112 242.623388 
L 110.809482 242.623388 
L 117.828851 242.623388 
L 124.848221 242.623388 
L 131.86759 242.623388 
L 138.886959 242.623388 
L 145.906329 242.623388 
L 152.925698 242.623388 
L 159.945068 242.623388 
L 166.964437 242.623388 
L 173.983807 242.623388 
L 181.003176 242.623388 
L 188.022545 242.623388 
L 195.041915 242.623388 
" clip-path="url(#p96ac35909d)" style="fill: none; stroke: #0578ff; stroke-opacity: 0.836364; stroke-width: 1.5; stroke-linecap: square"/>
   </g>
   <g id="line2d_39">
    <path d="M 19.557679 242.623388 
L 26.577049 227.303967 
L 33.596418 211.984545 
L 40.615787 211.984545 
L 47.635157 181.345702 
L 54.654526 196.665124 
L 61.673896 242.623388 
L 68.693265 242.623388 
L 75.712635 242.623388 
L 82.732004 242.623388 
L 89.751373 196.665124 
L 96.770743 242.623388 
L 103.790112 242.623388 
L 110.809482 242.623388 
L 117.828851 211.984545 
L 124.848221 242.623388 
L 131.86759 242.623388 
L 138.886959 242.623388 
L 145.906329 242.623388 
L 152.925698 242.623388 
L 159.945068 227.303967 
L 166.964437 242.623388 
L 173.983807 227.303967 
L 181.003176 242.623388 
L 188.022545 227.303967 
L 195.041915 242.623388 
" clip-path="url(#p96ac35909d)" style="fill: none; stroke: #000000; stroke-opacity: 0.836364; stroke-width: 1.5; stroke-linecap: square"/>
   </g>
  </g>
  <g id="axes_18">
   <g id="FillBetweenPolyCollection_17">
    <defs>
     <path id="m90e2e91713" d="M 18.925731 -83.372407 
L 18.925731 -83.372407 
L 25.993697 -83.372407 
L 33.061662 -83.372407 
L 40.129628 -83.372407 
L 47.197593 -83.372407 
L 54.265559 -83.372407 
L 61.333524 -83.372407 
L 68.40149 -83.372407 
L 75.469455 -83.372407 
L 82.537421 -83.372407 
L 89.605386 -83.372407 
L 96.673352 -83.372407 
L 103.741317 -83.372407 
L 110.809283 -83.372407 
L 117.877248 -83.372407 
L 124.945214 -83.372407 
L 132.013179 -83.372407 
L 139.081145 -83.372407 
L 146.14911 -83.372407 
L 153.217076 -83.372407 
L 160.285041 -83.372407 
L 167.353007 -83.372407 
L 174.420972 -83.372407 
L 181.488938 -83.372407 
L 188.556903 -83.372407 
L 195.624869 -83.372407 
L 195.624869 -83.372407 
L 195.624869 -83.372407 
L 188.556903 -103.798302 
L 181.488938 -103.798302 
L 174.420972 -83.372407 
L 167.353007 -83.372407 
L 160.285041 -103.798302 
L 153.217076 -103.798302 
L 146.14911 -83.372407 
L 139.081145 -83.372407 
L 132.013179 -83.372407 
L 124.945214 -103.798302 
L 117.877248 -103.798302 
L 110.809283 -83.372407 
L 103.741317 -83.372407 
L 96.673352 -103.798302 
L 89.605386 -103.798302 
L 82.537421 -83.372407 
L 75.469455 -103.798302 
L 68.40149 -83.372407 
L 61.333524 -124.224198 
L 54.265559 -144.650093 
L 47.197593 -124.224198 
L 40.129628 -103.798302 
L 33.061662 -103.798302 
L 25.993697 -124.224198 
L 18.925731 -83.372407 
z
" style="stroke: #0578ff; stroke-opacity: 0.863636"/>
    </defs>
    <g clip-path="url(#pf0217724f5)">
     <use xlink:href="#m90e2e91713" x="0" y="337.40125" style="fill: #0578ff; fill-opacity: 0.863636; stroke: #0578ff; stroke-opacity: 0.863636"/>
    </g>
   </g>
   <g id="line2d_40">
    <path d="M 18.925731 254.028843 
L 25.993697 254.028843 
L 33.061662 254.028843 
L 40.129628 254.028843 
L 47.197593 254.028843 
L 54.265559 254.028843 
L 61.333524 254.028843 
L 68.40149 254.028843 
L 75.469455 254.028843 
L 82.537421 254.028843 
L 89.605386 254.028843 
L 96.673352 254.028843 
L 103.741317 254.028843 
L 110.809283 254.028843 
L 117.877248 254.028843 
L 124.945214 254.028843 
L 132.013179 254.028843 
L 139.081145 254.028843 
L 146.14911 254.028843 
L 153.217076 254.028843 
L 160.285041 254.028843 
L 167.353007 254.028843 
L 174.420972 254.028843 
L 181.488938 254.028843 
L 188.556903 254.028843 
L 195.624869 254.028843 
" clip-path="url(#pf0217724f5)" style="fill: none; stroke: #0578ff; stroke-opacity: 0.863636; stroke-width: 1.5; stroke-linecap: square"/>
   </g>
   <g id="line2d_41">
    <path d="M 18.925731 254.028843 
L 25.993697 213.177052 
L 33.061662 233.602948 
L 40.129628 233.602948 
L 47.197593 213.177052 
L 54.265559 192.751157 
L 61.333524 213.177052 
L 68.40149 254.028843 
L 75.469455 233.602948 
L 82.537421 254.028843 
L 89.605386 233.602948 
L 96.673352 233.602948 
L 103.741317 254.028843 
L 110.809283 254.028843 
L 117.877248 233.602948 
L 124.945214 233.602948 
L 132.013179 254.028843 
L 139.081145 254.028843 
L 146.14911 254.028843 
L 153.217076 233.602948 
L 160.285041 233.602948 
L 167.353007 254.028843 
L 174.420972 254.028843 
L 181.488938 233.602948 
L 188.556903 233.602948 
L 195.624869 254.028843 
" clip-path="url(#pf0217724f5)" style="fill: none; stroke: #000000; stroke-opacity: 0.863636; stroke-width: 1.5; stroke-linecap: square"/>
   </g>
  </g>
  <g id="axes_19">
   <g id="FillBetweenPolyCollection_18">
    <defs>
     <path id="m1a8a7a44ab" d="M 24.81497 -71.966952 
L 24.81497 -71.966952 
L 31.401235 -71.966952 
L 37.987501 -71.966952 
L 44.573766 -71.966952 
L 51.160032 -71.966952 
L 57.746297 -71.966952 
L 64.332563 -71.966952 
L 70.918828 -71.966952 
L 77.505094 -71.966952 
L 84.091359 -71.966952 
L 90.677625 -71.966952 
L 97.26389 -71.966952 
L 103.850156 -71.966952 
L 110.436422 -71.966952 
L 117.022687 -71.966952 
L 123.608953 -71.966952 
L 130.195218 -71.966952 
L 136.781484 -71.966952 
L 143.367749 -71.966952 
L 149.954015 -71.966952 
L 156.54028 -71.966952 
L 163.126546 -71.966952 
L 169.712811 -71.966952 
L 176.299077 -71.966952 
L 182.885342 -71.966952 
L 189.471608 -71.966952 
L 189.471608 -71.966952 
L 189.471608 -71.966952 
L 182.885342 -87.286374 
L 176.299077 -71.966952 
L 169.712811 -71.966952 
L 163.126546 -87.286374 
L 156.54028 -87.286374 
L 149.954015 -71.966952 
L 143.367749 -71.966952 
L 136.781484 -87.286374 
L 130.195218 -71.966952 
L 123.608953 -71.966952 
L 117.022687 -102.605795 
L 110.436422 -71.966952 
L 103.850156 -71.966952 
L 97.26389 -87.286374 
L 90.677625 -71.966952 
L 84.091359 -87.286374 
L 77.505094 -87.286374 
L 70.918828 -87.286374 
L 64.332563 -71.966952 
L 57.746297 -102.605795 
L 51.160032 -87.286374 
L 44.573766 -133.244638 
L 37.987501 -71.966952 
L 31.401235 -117.925217 
L 24.81497 -71.966952 
z
" style="stroke: #0578ff; stroke-opacity: 0.890909"/>
    </defs>
    <g clip-path="url(#p90d7b88e24)">
     <use xlink:href="#m1a8a7a44ab" x="0" y="337.40125" style="fill: #0578ff; fill-opacity: 0.890909; stroke: #0578ff; stroke-opacity: 0.890909"/>
    </g>
   </g>
   <g id="line2d_42">
    <path d="M 24.81497 265.434298 
L 31.401235 265.434298 
L 37.987501 265.434298 
L 44.573766 265.434298 
L 51.160032 265.434298 
L 57.746297 265.434298 
L 64.332563 265.434298 
L 70.918828 265.434298 
L 77.505094 265.434298 
L 84.091359 265.434298 
L 90.677625 265.434298 
L 97.26389 265.434298 
L 103.850156 265.434298 
L 110.436422 265.434298 
L 117.022687 265.434298 
L 123.608953 265.434298 
L 130.195218 265.434298 
L 136.781484 265.434298 
L 143.367749 265.434298 
L 149.954015 265.434298 
L 156.54028 265.434298 
L 163.126546 265.434298 
L 169.712811 265.434298 
L 176.299077 265.434298 
L 182.885342 265.434298 
L 189.471608 265.434298 
" clip-path="url(#p90d7b88e24)" style="fill: none; stroke: #0578ff; stroke-opacity: 0.890909; stroke-width: 1.5; stroke-linecap: square"/>
   </g>
   <g id="line2d_43">
    <path d="M 24.81497 265.434298 
L 31.401235 219.476033 
L 37.987501 265.434298 
L 44.573766 204.156612 
L 51.160032 250.114876 
L 57.746297 234.795455 
L 64.332563 265.434298 
L 70.918828 250.114876 
L 77.505094 250.114876 
L 84.091359 250.114876 
L 90.677625 265.434298 
L 97.26389 250.114876 
L 103.850156 265.434298 
L 110.436422 265.434298 
L 117.022687 234.795455 
L 123.608953 265.434298 
L 130.195218 265.434298 
L 136.781484 250.114876 
L 143.367749 265.434298 
L 149.954015 265.434298 
L 156.54028 250.114876 
L 163.126546 250.114876 
L 169.712811 265.434298 
L 176.299077 265.434298 
L 182.885342 250.114876 
L 189.471608 265.434298 
" clip-path="url(#p90d7b88e24)" style="fill: none; stroke: #000000; stroke-opacity: 0.890909; stroke-width: 1.5; stroke-linecap: square"/>
   </g>
  </g>
  <g id="axes_20">
   <g id="FillBetweenPolyCollection_19">
    <defs>
     <path id="m66e7bf54fe" d="M 28.196543 -60.561498 
L 28.196543 -60.561498 
L 34.773365 -60.561498 
L 41.350188 -60.561498 
L 47.927011 -60.561498 
L 54.503833 -60.561498 
L 61.080656 -60.561498 
L 67.657479 -60.561498 
L 74.234302 -60.561498 
L 80.811124 -60.561498 
L 87.387947 -60.561498 
L 93.96477 -60.561498 
L 100.541592 -60.561498 
L 107.118415 -60.561498 
L 113.695238 -60.561498 
L 120.27206 -60.561498 
L 126.848883 -60.561498 
L 133.425706 -60.561498 
L 140.002528 -60.561498 
L 146.579351 -60.561498 
L 153.156174 -60.561498 
L 159.732996 -60.561498 
L 166.309819 -60.561498 
L 172.886642 -60.561498 
L 179.463464 -60.561498 
L 186.040287 -60.561498 
L 192.61711 -60.561498 
L 192.61711 -60.561498 
L 192.61711 -60.561498 
L 186.040287 -72.817035 
L 179.463464 -60.561498 
L 172.886642 -60.561498 
L 166.309819 -72.817035 
L 159.732996 -72.817035 
L 153.156174 -60.561498 
L 146.579351 -60.561498 
L 140.002528 -72.817035 
L 133.425706 -60.561498 
L 126.848883 -60.561498 
L 120.27206 -60.561498 
L 113.695238 -60.561498 
L 107.118415 -72.817035 
L 100.541592 -72.817035 
L 93.96477 -60.561498 
L 87.387947 -60.561498 
L 80.811124 -85.072572 
L 74.234302 -72.817035 
L 67.657479 -60.561498 
L 61.080656 -85.072572 
L 54.503833 -72.817035 
L 47.927011 -72.817035 
L 41.350188 -121.839184 
L 34.773365 -85.072572 
L 28.196543 -60.561498 
z
" style="stroke: #0578ff; stroke-opacity: 0.918182"/>
    </defs>
    <g clip-path="url(#p0433ca2f36)">
     <use xlink:href="#m66e7bf54fe" x="0" y="337.40125" style="fill: #0578ff; fill-opacity: 0.918182; stroke: #0578ff; stroke-opacity: 0.918182"/>
    </g>
   </g>
   <g id="line2d_44">
    <path d="M 28.196543 276.839752 
L 34.773365 276.839752 
L 41.350188 276.839752 
L 47.927011 276.839752 
L 54.503833 276.839752 
L 61.080656 276.839752 
L 67.657479 276.839752 
L 74.234302 276.839752 
L 80.811124 276.839752 
L 87.387947 276.839752 
L 93.96477 276.839752 
L 100.541592 276.839752 
L 107.118415 276.839752 
L 113.695238 276.839752 
L 120.27206 276.839752 
L 126.848883 276.839752 
L 133.425706 276.839752 
L 140.002528 276.839752 
L 146.579351 276.839752 
L 153.156174 276.839752 
L 159.732996 276.839752 
L 166.309819 276.839752 
L 172.886642 276.839752 
L 179.463464 276.839752 
L 186.040287 276.839752 
L 192.61711 276.839752 
" clip-path="url(#p0433ca2f36)" style="fill: none; stroke: #0578ff; stroke-opacity: 0.918182; stroke-width: 1.5; stroke-linecap: square"/>
   </g>
   <g id="line2d_45">
    <path d="M 28.196543 276.839752 
L 34.773365 252.328678 
L 41.350188 215.562066 
L 47.927011 264.584215 
L 54.503833 264.584215 
L 61.080656 252.328678 
L 67.657479 276.839752 
L 74.234302 264.584215 
L 80.811124 252.328678 
L 87.387947 276.839752 
L 93.96477 276.839752 
L 100.541592 264.584215 
L 107.118415 264.584215 
L 113.695238 276.839752 
L 120.27206 276.839752 
L 126.848883 276.839752 
L 133.425706 276.839752 
L 140.002528 264.584215 
L 146.579351 276.839752 
L 153.156174 276.839752 
L 159.732996 264.584215 
L 166.309819 264.584215 
L 172.886642 276.839752 
L 179.463464 276.839752 
L 186.040287 264.584215 
L 192.61711 276.839752 
" clip-path="url(#p0433ca2f36)" style="fill: none; stroke: #000000; stroke-opacity: 0.918182; stroke-width: 1.5; stroke-linecap: square"/>
   </g>
  </g>
  <g id="axes_21">
   <g id="FillBetweenPolyCollection_20">
    <defs>
     <path id="mcacdf8c346" d="M 30.786467 -49.156043 
L 30.786467 -49.156043 
L 37.265406 -49.156043 
L 43.744346 -49.156043 
L 50.223285 -49.156043 
L 56.702225 -49.156043 
L 63.181165 -49.156043 
L 69.660104 -49.156043 
L 76.139044 -49.156043 
L 82.617983 -49.156043 
L 89.096923 -49.156043 
L 95.575862 -49.156043 
L 102.054802 -49.156043 
L 108.533742 -49.156043 
L 115.012681 -49.156043 
L 121.491621 -49.156043 
L 127.97056 -49.156043 
L 134.4495 -49.156043 
L 140.92844 -49.156043 
L 147.407379 -49.156043 
L 153.886319 -49.156043 
L 160.365258 -49.156043 
L 166.844198 -49.156043 
L 173.323138 -49.156043 
L 179.802077 -49.156043 
L 186.281017 -49.156043 
L 192.759956 -49.156043 
L 192.759956 -49.156043 
L 192.759956 -49.156043 
L 186.281017 -61.411581 
L 179.802077 -49.156043 
L 173.323138 -49.156043 
L 166.844198 -61.411581 
L 160.365258 -49.156043 
L 153.886319 -49.156043 
L 147.407379 -73.667118 
L 140.92844 -49.156043 
L 134.4495 -49.156043 
L 127.97056 -61.411581 
L 121.491621 -49.156043 
L 115.012681 -49.156043 
L 108.533742 -49.156043 
L 102.054802 -73.667118 
L 95.575862 -49.156043 
L 89.096923 -61.411581 
L 82.617983 -49.156043 
L 76.139044 -61.411581 
L 69.660104 -61.411581 
L 63.181165 -61.411581 
L 56.702225 -61.411581 
L 50.223285 -85.922655 
L 43.744346 -49.156043 
L 37.265406 -110.433729 
L 30.786467 -49.156043 
z
" style="stroke: #0578ff; stroke-opacity: 0.945455"/>
    </defs>
    <g clip-path="url(#pe6c291ba5d)">
     <use xlink:href="#mcacdf8c346" x="0" y="337.40125" style="fill: #0578ff; fill-opacity: 0.945455; stroke: #0578ff; stroke-opacity: 0.945455"/>
    </g>
   </g>
   <g id="line2d_46">
    <path d="M 30.786467 288.245207 
L 37.265406 288.245207 
L 43.744346 288.245207 
L 50.223285 288.245207 
L 56.702225 288.245207 
L 63.181165 288.245207 
L 69.660104 288.245207 
L 76.139044 288.245207 
L 82.617983 288.245207 
L 89.096923 288.245207 
L 95.575862 288.245207 
L 102.054802 288.245207 
L 108.533742 288.245207 
L 115.012681 288.245207 
L 121.491621 288.245207 
L 127.97056 288.245207 
L 134.4495 288.245207 
L 140.92844 288.245207 
L 147.407379 288.245207 
L 153.886319 288.245207 
L 160.365258 288.245207 
L 166.844198 288.245207 
L 173.323138 288.245207 
L 179.802077 288.245207 
L 186.281017 288.245207 
L 192.759956 288.245207 
" clip-path="url(#pe6c291ba5d)" style="fill: none; stroke: #0578ff; stroke-opacity: 0.945455; stroke-width: 1.5; stroke-linecap: square"/>
   </g>
   <g id="line2d_47">
    <path d="M 30.786467 288.245207 
L 37.265406 226.967521 
L 43.744346 288.245207 
L 50.223285 251.478595 
L 56.702225 275.989669 
L 63.181165 275.989669 
L 69.660104 275.989669 
L 76.139044 275.989669 
L 82.617983 288.245207 
L 89.096923 275.989669 
L 95.575862 288.245207 
L 102.054802 263.734132 
L 108.533742 288.245207 
L 115.012681 288.245207 
L 121.491621 288.245207 
L 127.97056 275.989669 
L 134.4495 288.245207 
L 140.92844 288.245207 
L 147.407379 263.734132 
L 153.886319 288.245207 
L 160.365258 288.245207 
L 166.844198 275.989669 
L 173.323138 288.245207 
L 179.802077 288.245207 
L 186.281017 275.989669 
L 192.759956 288.245207 
" clip-path="url(#pe6c291ba5d)" style="fill: none; stroke: #000000; stroke-opacity: 0.945455; stroke-width: 1.5; stroke-linecap: square"/>
   </g>
  </g>
  <g id="axes_22">
   <g id="FillBetweenPolyCollection_21">
    <defs>
     <path id="m6e945e2de5" d="M 30.495434 -37.750589 
L 30.495434 -37.750589 
L 37.960114 -37.750589 
L 45.424794 -37.750589 
L 52.889474 -37.750589 
L 60.354154 -37.750589 
L 67.818834 -37.750589 
L 75.283514 -37.750589 
L 82.748194 -37.750589 
L 90.212874 -37.750589 
L 97.677554 -37.750589 
L 105.142234 -37.750589 
L 112.606914 -37.750589 
L 120.071594 -37.750589 
L 127.536274 -37.750589 
L 135.000953 -37.750589 
L 142.465633 -37.750589 
L 149.930313 -37.750589 
L 157.394993 -37.750589 
L 164.859673 -37.750589 
L 172.324353 -37.750589 
L 179.789033 -37.750589 
L 187.253713 -37.750589 
L 194.718393 -37.750589 
L 202.183073 -37.750589 
L 209.647753 -37.750589 
L 217.112433 -37.750589 
L 217.112433 -37.750589 
L 217.112433 -37.750589 
L 209.647753 -47.963537 
L 202.183073 -37.750589 
L 194.718393 -37.750589 
L 187.253713 -37.750589 
L 179.789033 -47.963537 
L 172.324353 -37.750589 
L 164.859673 -47.963537 
L 157.394993 -37.750589 
L 149.930313 -58.176484 
L 142.465633 -37.750589 
L 135.000953 -37.750589 
L 127.536274 -37.750589 
L 120.071594 -37.750589 
L 112.606914 -58.176484 
L 105.142234 -47.963537 
L 97.677554 -37.750589 
L 90.212874 -47.963537 
L 82.748194 -37.750589 
L 75.283514 -37.750589 
L 67.818834 -68.389432 
L 60.354154 -58.176484 
L 52.889474 -37.750589 
L 45.424794 -37.750589 
L 37.960114 -99.028275 
L 30.495434 -37.750589 
z
" style="stroke: #0578ff; stroke-opacity: 0.972727"/>
    </defs>
    <g clip-path="url(#pfaf5ab0042)">
     <use xlink:href="#m6e945e2de5" x="0" y="337.40125" style="fill: #0578ff; fill-opacity: 0.972727; stroke: #0578ff; stroke-opacity: 0.972727"/>
    </g>
   </g>
   <g id="line2d_48">
    <path d="M 30.495434 299.650661 
L 37.960114 299.650661 
L 45.424794 299.650661 
L 52.889474 299.650661 
L 60.354154 299.650661 
L 67.818834 299.650661 
L 75.283514 299.650661 
L 82.748194 299.650661 
L 90.212874 299.650661 
L 97.677554 299.650661 
L 105.142234 299.650661 
L 112.606914 299.650661 
L 120.071594 299.650661 
L 127.536274 299.650661 
L 135.000953 299.650661 
L 142.465633 299.650661 
L 149.930313 299.650661 
L 157.394993 299.650661 
L 164.859673 299.650661 
L 172.324353 299.650661 
L 179.789033 299.650661 
L 187.253713 299.650661 
L 194.718393 299.650661 
L 202.183073 299.650661 
L 209.647753 299.650661 
L 217.112433 299.650661 
" clip-path="url(#pfaf5ab0042)" style="fill: none; stroke: #0578ff; stroke-opacity: 0.972727; stroke-width: 1.5; stroke-linecap: square"/>
   </g>
   <g id="line2d_49">
    <path d="M 30.495434 299.650661 
L 37.960114 238.372975 
L 45.424794 299.650661 
L 52.889474 299.650661 
L 60.354154 279.224766 
L 67.818834 269.011818 
L 75.283514 299.650661 
L 82.748194 299.650661 
L 90.212874 289.437713 
L 97.677554 299.650661 
L 105.142234 289.437713 
L 112.606914 279.224766 
L 120.071594 299.650661 
L 127.536274 299.650661 
L 135.000953 299.650661 
L 142.465633 299.650661 
L 149.930313 279.224766 
L 157.394993 299.650661 
L 164.859673 289.437713 
L 172.324353 299.650661 
L 179.789033 289.437713 
L 187.253713 299.650661 
L 194.718393 299.650661 
L 202.183073 299.650661 
L 209.647753 289.437713 
L 217.112433 299.650661 
" clip-path="url(#pfaf5ab0042)" style="fill: none; stroke: #000000; stroke-opacity: 0.972727; stroke-width: 1.5; stroke-linecap: square"/>
   </g>
  </g>
  <g id="axes_23">
   <g id="FillBetweenPolyCollection_22">
    <defs>
     <path id="mec0e6b78d1" d="M 25.761976 -26.345134 
L 25.761976 -26.345134 
L 32.883489 -26.345134 
L 40.005002 -26.345134 
L 47.126516 -26.345134 
L 54.248029 -26.345134 
L 61.369542 -26.345134 
L 68.491055 -26.345134 
L 75.612569 -26.345134 
L 82.734082 -26.345134 
L 89.855595 -26.345134 
L 96.977109 -26.345134 
L 104.098622 -26.345134 
L 111.220135 -26.345134 
L 118.341649 -26.345134 
L 125.463162 -26.345134 
L 132.584675 -26.345134 
L 139.706189 -26.345134 
L 146.827702 -26.345134 
L 153.949215 -26.345134 
L 161.070729 -26.345134 
L 168.192242 -26.345134 
L 175.313755 -26.345134 
L 182.435268 -26.345134 
L 189.556782 -26.345134 
L 196.678295 -26.345134 
L 203.799808 -26.345134 
L 203.799808 -26.345134 
L 203.799808 -26.345134 
L 196.678295 -41.664556 
L 189.556782 -26.345134 
L 182.435268 -26.345134 
L 175.313755 -41.664556 
L 168.192242 -26.345134 
L 161.070729 -26.345134 
L 153.949215 -26.345134 
L 146.827702 -41.664556 
L 139.706189 -41.664556 
L 132.584675 -41.664556 
L 125.463162 -26.345134 
L 118.341649 -41.664556 
L 111.220135 -26.345134 
L 104.098622 -26.345134 
L 96.977109 -26.345134 
L 89.855595 -56.983977 
L 82.734082 -56.983977 
L 75.612569 -26.345134 
L 68.491055 -26.345134 
L 61.369542 -26.345134 
L 54.248029 -72.303399 
L 47.126516 -56.983977 
L 40.005002 -41.664556 
L 32.883489 -87.62282 
L 25.761976 -26.345134 
z
" style="stroke: #0578ff"/>
    </defs>
    <g clip-path="url(#p160d196396)">
     <use xlink:href="#mec0e6b78d1" x="0" y="337.40125" style="fill: #0578ff; stroke: #0578ff"/>
    </g>
   </g>
   <g id="line2d_50">
    <path d="M 25.761976 311.056116 
L 32.883489 311.056116 
L 40.005002 311.056116 
L 47.126516 311.056116 
L 54.248029 311.056116 
L 61.369542 311.056116 
L 68.491055 311.056116 
L 75.612569 311.056116 
L 82.734082 311.056116 
L 89.855595 311.056116 
L 96.977109 311.056116 
L 104.098622 311.056116 
L 111.220135 311.056116 
L 118.341649 311.056116 
L 125.463162 311.056116 
L 132.584675 311.056116 
L 139.706189 311.056116 
L 146.827702 311.056116 
L 153.949215 311.056116 
L 161.070729 311.056116 
L 168.192242 311.056116 
L 175.313755 311.056116 
L 182.435268 311.056116 
L 189.556782 311.056116 
L 196.678295 311.056116 
L 203.799808 311.056116 
" clip-path="url(#p160d196396)" style="fill: none; stroke: #0578ff; stroke-width: 1.5; stroke-linecap: square"/>
   </g>
   <g id="line2d_51">
    <path d="M 25.761976 311.056116 
L 32.883489 249.77843 
L 40.005002 295.736694 
L 47.126516 280.417273 
L 54.248029 265.097851 
L 61.369542 311.056116 
L 68.491055 311.056116 
L 75.612569 311.056116 
L 82.734082 280.417273 
L 89.855595 280.417273 
L 96.977109 311.056116 
L 104.098622 311.056116 
L 111.220135 311.056116 
L 118.341649 295.736694 
L 125.463162 311.056116 
L 132.584675 295.736694 
L 139.706189 295.736694 
L 146.827702 295.736694 
L 153.949215 311.056116 
L 161.070729 311.056116 
L 168.192242 311.056116 
L 175.313755 295.736694 
L 182.435268 311.056116 
L 189.556782 311.056116 
L 196.678295 295.736694 
L 203.799808 311.056116 
" clip-path="url(#p160d196396)" style="fill: none; stroke: #000000; stroke-width: 1.5; stroke-linecap: square"/>
   </g>
  </g>
  <g id="text_8">
   <!-- Serie A -->
   <g style="fill: #0578ff" transform="translate(226.001254 100.08) scale(0.18 -0.18)">
    <defs>
     <path id="Lato-Regular-53" d="M 2906 3869 
Q 2877 3821 2845 3797 
Q 2813 3773 2762 3773 
Q 2707 3773 2635 3827 
Q 2563 3882 2452 3947 
Q 2342 4013 2187 4067 
Q 2032 4122 1811 4122 
Q 1603 4122 1443 4066 
Q 1283 4010 1176 3914 
Q 1069 3818 1014 3688 
Q 960 3558 960 3408 
Q 960 3216 1054 3089 
Q 1149 2963 1304 2873 
Q 1459 2784 1656 2718 
Q 1853 2653 2059 2582 
Q 2266 2512 2462 2424 
Q 2659 2336 2814 2201 
Q 2970 2067 3064 1872 
Q 3158 1677 3158 1392 
Q 3158 1091 3056 827 
Q 2954 563 2757 368 
Q 2560 173 2273 61 
Q 1987 -51 1622 -51 
Q 1178 -51 811 110 
Q 445 272 186 547 
L 365 842 
Q 390 877 427 901 
Q 464 925 509 925 
Q 576 925 662 853 
Q 749 781 878 694 
Q 1008 608 1192 536 
Q 1376 464 1642 464 
Q 1862 464 2035 525 
Q 2208 586 2328 696 
Q 2448 806 2512 960 
Q 2576 1114 2576 1302 
Q 2576 1510 2481 1643 
Q 2387 1776 2233 1865 
Q 2080 1955 1883 2017 
Q 1686 2080 1480 2145 
Q 1274 2211 1077 2297 
Q 880 2384 726 2521 
Q 573 2659 478 2865 
Q 384 3072 384 3376 
Q 384 3619 478 3846 
Q 573 4074 752 4250 
Q 931 4426 1195 4531 
Q 1459 4637 1802 4637 
Q 2186 4637 2502 4515 
Q 2819 4394 3056 4163 
L 2906 3869 
z
" transform="scale(0.015625)"/>
     <path id="Lato-Regular-65" d="M 1750 3293 
Q 2042 3293 2288 3195 
Q 2534 3098 2713 2914 
Q 2893 2730 2993 2459 
Q 3094 2189 3094 1843 
Q 3094 1709 3065 1664 
Q 3037 1619 2957 1619 
L 800 1619 
Q 806 1312 883 1085 
Q 960 858 1094 706 
Q 1229 554 1414 478 
Q 1600 403 1830 403 
Q 2045 403 2200 452 
Q 2355 502 2467 560 
Q 2579 618 2654 667 
Q 2730 717 2784 717 
Q 2854 717 2893 662 
L 3053 454 
Q 2947 326 2800 232 
Q 2653 138 2485 77 
Q 2317 16 2137 -14 
Q 1958 -45 1782 -45 
Q 1446 -45 1163 68 
Q 880 182 673 401 
Q 467 621 352 944 
Q 237 1267 237 1686 
Q 237 2026 341 2320 
Q 445 2614 640 2830 
Q 835 3046 1116 3169 
Q 1398 3293 1750 3293 
z
M 1763 2874 
Q 1350 2874 1113 2635 
Q 877 2397 819 1974 
L 2582 1974 
Q 2582 2173 2528 2337 
Q 2474 2502 2368 2622 
Q 2262 2742 2110 2808 
Q 1958 2874 1763 2874 
z
" transform="scale(0.015625)"/>
     <path id="Lato-Regular-72" d="M 467 0 
L 467 3242 
L 794 3242 
Q 886 3242 921 3206 
Q 957 3171 970 3085 
L 1008 2579 
Q 1174 2918 1419 3108 
Q 1664 3299 1994 3299 
Q 2128 3299 2237 3268 
Q 2346 3238 2438 3184 
L 2365 2758 
Q 2342 2678 2266 2678 
Q 2221 2678 2128 2708 
Q 2035 2739 1869 2739 
Q 1571 2739 1371 2566 
Q 1171 2394 1037 2064 
L 1037 0 
L 467 0 
z
" transform="scale(0.015625)"/>
     <path id="Lato-Regular-69" d="M 1101 3242 
L 1101 0 
L 531 0 
L 531 3242 
L 1101 3242 
z
M 1229 4259 
Q 1229 4176 1195 4104 
Q 1162 4032 1106 3976 
Q 1050 3920 976 3888 
Q 902 3856 819 3856 
Q 736 3856 664 3888 
Q 592 3920 536 3976 
Q 480 4032 448 4104 
Q 416 4176 416 4259 
Q 416 4342 448 4417 
Q 480 4493 536 4549 
Q 592 4605 664 4637 
Q 736 4669 819 4669 
Q 902 4669 976 4637 
Q 1050 4605 1106 4549 
Q 1162 4493 1195 4417 
Q 1229 4342 1229 4259 
z
" transform="scale(0.015625)"/>
     <path id="Lato-Regular-20" transform="scale(0.015625)"/>
     <path id="Lato-Regular-41" d="M 4330 0 
L 3850 0 
Q 3766 0 3715 41 
Q 3664 83 3638 147 
L 3210 1254 
L 1152 1254 
L 723 147 
Q 701 90 646 45 
Q 592 0 512 0 
L 32 0 
L 1866 4586 
L 2496 4586 
L 4330 0 
z
M 1325 1702 
L 3037 1702 
L 2317 3568 
Q 2246 3741 2179 4000 
Q 2144 3869 2110 3758 
Q 2077 3648 2045 3565 
L 1325 1702 
z
" transform="scale(0.015625)"/>
    </defs>
    <use xlink:href="#Lato-Regular-53"/>
    <use xlink:href="#Lato-Regular-65" transform="translate(53 0)"/>
    <use xlink:href="#Lato-Regular-72" transform="translate(105.400009 0)"/>
    <use xlink:href="#Lato-Regular-69" transform="translate(145.700012 0)"/>
    <use xlink:href="#Lato-Regular-65" transform="translate(171.300018 0)"/>
    <use xlink:href="#Lato-Regular-20" transform="translate(223.700027 0)"/>
    <use xlink:href="#Lato-Regular-41" transform="translate(243.000031 0)"/>
   </g>
  </g>
 </g>
 <defs>
  <clipPath id="p8942aa76e2">
   <rect x="7.378117" y="7.2" width="438.223137" height="67.405455"/>
  </clipPath>
  <clipPath id="pe144ffbbdc">
   <rect x="7.378117" y="18.605455" width="438.223137" height="67.405455"/>
  </clipPath>
  <clipPath id="pe859bcc085">
   <rect x="7.378117" y="30.010909" width="438.223137" height="67.405455"/>
  </clipPath>
  <clipPath id="pb016e51502">
   <rect x="7.378117" y="41.416364" width="438.223137" height="67.405455"/>
  </clipPath>
  <clipPath id="p3a56ab7470">
   <rect x="7.378117" y="52.821818" width="438.223137" height="67.405455"/>
  </clipPath>
  <clipPath id="p2fe622ad0f">
   <rect x="7.378117" y="64.227273" width="438.223137" height="67.405455"/>
  </clipPath>
  <clipPath id="p44ecfba5a5">
   <rect x="7.378117" y="75.632727" width="438.223137" height="67.405455"/>
  </clipPath>
  <clipPath id="pcc702ea275">
   <rect x="7.378117" y="87.038182" width="438.223137" height="67.405455"/>
  </clipPath>
  <clipPath id="p806501c95f">
   <rect x="7.378117" y="98.443636" width="438.223137" height="67.405455"/>
  </clipPath>
  <clipPath id="p10f28a04d1">
   <rect x="7.378117" y="109.849091" width="438.223137" height="67.405455"/>
  </clipPath>
  <clipPath id="p665717a9b8">
   <rect x="7.378117" y="121.254545" width="438.223137" height="67.405455"/>
  </clipPath>
  <clipPath id="p68301a2a8c">
   <rect x="7.378117" y="132.66" width="438.223137" height="67.405455"/>
  </clipPath>
  <clipPath id="pb0c5603e8e">
   <rect x="7.378117" y="144.065455" width="438.223137" height="67.405455"/>
  </clipPath>
  <clipPath id="p8e9e93217c">
   <rect x="7.378117" y="155.470909" width="438.223137" height="67.405455"/>
  </clipPath>
  <clipPath id="p4eeae5bc35">
   <rect x="7.378117" y="166.876364" width="438.223137" height="67.405455"/>
  </clipPath>
  <clipPath id="p96ac35909d">
   <rect x="7.378117" y="178.281818" width="438.223137" height="67.405455"/>
  </clipPath>
  <clipPath id="pf0217724f5">
   <rect x="7.378117" y="189.687273" width="438.223137" height="67.405455"/>
  </clipPath>
  <clipPath id="p90d7b88e24">
   <rect x="7.378117" y="201.092727" width="438.223137" height="67.405455"/>
  </clipPath>
  <clipPath id="p0433ca2f36">
   <rect x="7.378117" y="212.498182" width="438.223137" height="67.405455"/>
  </clipPath>
  <clipPath id="pe6c291ba5d">
   <rect x="7.378117" y="223.903636" width="438.223137" height="67.405455"/>
  </clipPath>
  <clipPath id="pfaf5ab0042">
   <rect x="7.378117" y="235.309091" width="438.223137" height="67.405455"/>
  </clipPath>
  <clipPath id="p160d196396">
   <rect x="7.378117" y="246.714545" width="438.223137" height="67.405455"/>
  </clipPath>
 </defs>
</svg>
