<?xml version="1.0" encoding="utf-8" standalone="no"?>
<!DOCTYPE svg PUBLIC "-//W3C//DTD SVG 1.1//EN"
  "http://www.w3.org/Graphics/SVG/1.1/DTD/svg11.dtd">
<svg xmlns:xlink="http://www.w3.org/1999/xlink" width="453.6pt" height="337.40125pt" viewBox="0 0 453.6 337.40125" xmlns="http://www.w3.org/2000/svg" version="1.1">
 <metadata>
  <rdf:RDF xmlns:dc="http://purl.org/dc/elements/1.1/" xmlns:cc="http://creativecommons.org/ns#" xmlns:rdf="http://www.w3.org/1999/02/22-rdf-syntax-ns#">
   <cc:Work>
    <dc:type rdf:resource="http://purl.org/dc/dcmitype/StillImage"/>
    <dc:date>2025-11-26T11:50:00.043875</dc:date>
    <dc:format>image/svg+xml</dc:format>
    <dc:creator>
     <cc:Agent>
      <dc:title>Matplotlib v3.10.5, https://matplotlib.org/</dc:title>
     </cc:Agent>
    </dc:creator>
   </cc:Work>
  </rdf:RDF>
 </metadata>
 <defs>
  <style type="text/css">*{stroke-linejoin: round; stroke-linecap: butt}</style>
 </defs>
 <g id="figure_1">
  <g id="patch_1">
   <path d="M 0 337.40125 
L 453.6 337.40125 
L 453.6 0 
L 0 0 
z
" style="fill: #f5f5dc"/>
  </g>
  <g id="axes_1">
   <g id="patch_2">
    <path d="M 7.2 314.12 
L 446.4 314.12 
L 446.4 7.2 
L 7.2 7.2 
z
" style="fill: #f5f5dc"/>
   </g>
   <g id="matplotlib.axis_1">
    <g id="xtick_1">
     <g id="line2d_1">
      <defs>
       <path id="m57637e0542" d="M 0 0 
L 0 3.5 
" style="stroke: #000000; stroke-width: 0.8"/>
      </defs>
      <g>
       <use xlink:href="#m57637e0542" x="75.825" y="314.12" style="stroke: #000000; stroke-width: 0.8"/>
      </g>
     </g>
     <g id="text_1">
      <!-- €250M -->
      <g transform="translate(59.625 328.485625) scale(0.1 -0.1)">
       <defs>
        <path id="Lato-Regular-20ac" d="M 109 2877 
L 579 2877 
Q 643 3280 795 3605 
Q 947 3930 1172 4158 
Q 1398 4387 1692 4508 
Q 1987 4630 2333 4630 
Q 2762 4630 3066 4470 
Q 3370 4310 3594 4029 
L 3398 3811 
Q 3373 3782 3347 3761 
Q 3322 3741 3277 3741 
Q 3222 3741 3163 3801 
Q 3104 3862 3005 3936 
Q 2906 4010 2750 4070 
Q 2595 4131 2355 4131 
Q 1888 4131 1579 3811 
Q 1270 3491 1168 2877 
L 2918 2877 
L 2918 2701 
Q 2918 2643 2875 2596 
Q 2832 2550 2755 2550 
L 1130 2550 
Q 1126 2486 1124 2422 
Q 1123 2358 1123 2291 
Q 1123 2240 1123 2192 
Q 1123 2144 1126 2096 
L 2621 2096 
L 2621 1917 
Q 2621 1862 2576 1816 
Q 2531 1770 2454 1770 
L 1155 1770 
Q 1245 1110 1552 780 
Q 1859 451 2326 451 
Q 2499 451 2630 484 
Q 2762 518 2858 569 
Q 2954 621 3022 680 
Q 3091 739 3142 790 
Q 3194 842 3234 875 
Q 3274 909 3312 909 
Q 3338 909 3357 897 
Q 3376 886 3402 864 
L 3642 640 
Q 3418 314 3085 133 
Q 2752 -48 2294 -48 
Q 1923 -48 1625 78 
Q 1328 205 1110 440 
Q 893 675 753 1012 
Q 614 1350 563 1770 
L 109 1770 
L 109 2096 
L 538 2096 
Q 534 2144 534 2192 
Q 534 2240 534 2291 
Q 534 2355 536 2420 
Q 538 2486 541 2550 
L 109 2550 
L 109 2877 
z
" transform="scale(0.015625)"/>
        <path id="Lato-Regular-32" d="M 1923 4637 
Q 2214 4637 2467 4550 
Q 2720 4464 2904 4299 
Q 3088 4134 3193 3897 
Q 3299 3661 3299 3360 
Q 3299 3104 3222 2886 
Q 3146 2669 3014 2469 
Q 2883 2269 2712 2081 
Q 2541 1894 2349 1699 
L 1142 464 
Q 1270 499 1401 520 
Q 1533 541 1654 541 
L 3190 541 
Q 3283 541 3337 486 
Q 3392 432 3392 346 
L 3392 0 
L 333 0 
L 333 195 
Q 333 256 357 320 
Q 381 384 435 438 
L 1904 1914 
Q 2086 2099 2236 2270 
Q 2387 2442 2494 2614 
Q 2602 2787 2659 2964 
Q 2717 3142 2717 3344 
Q 2717 3546 2653 3698 
Q 2589 3850 2477 3949 
Q 2365 4048 2214 4097 
Q 2064 4147 1891 4147 
Q 1718 4147 1571 4096 
Q 1424 4045 1310 3953 
Q 1197 3862 1118 3737 
Q 1040 3613 1008 3462 
Q 982 3370 931 3328 
Q 880 3286 797 3286 
Q 781 3286 763 3288 
Q 746 3290 723 3293 
L 426 3344 
Q 470 3658 598 3899 
Q 726 4141 923 4304 
Q 1120 4467 1374 4552 
Q 1629 4637 1923 4637 
z
" transform="scale(0.015625)"/>
        <path id="Lato-Regular-35" d="M 3130 4336 
Q 3130 4214 3053 4136 
Q 2976 4058 2794 4058 
L 1354 4058 
L 1142 2854 
Q 1501 2931 1805 2931 
Q 2163 2931 2436 2825 
Q 2710 2720 2896 2534 
Q 3082 2349 3176 2096 
Q 3270 1843 3270 1546 
Q 3270 1181 3142 886 
Q 3014 592 2792 382 
Q 2570 173 2269 61 
Q 1968 -51 1619 -51 
Q 1418 -51 1232 -11 
Q 1046 29 886 96 
Q 726 163 588 249 
Q 451 336 346 432 
L 518 675 
Q 576 758 672 758 
Q 733 758 814 708 
Q 896 659 1011 598 
Q 1126 538 1281 488 
Q 1437 438 1651 438 
Q 1891 438 2083 515 
Q 2275 592 2411 734 
Q 2547 877 2620 1075 
Q 2694 1274 2694 1520 
Q 2694 1734 2632 1907 
Q 2570 2080 2443 2201 
Q 2317 2323 2128 2390 
Q 1939 2458 1686 2458 
Q 1514 2458 1328 2429 
Q 1142 2400 944 2336 
L 586 2442 
L 957 4586 
L 3130 4586 
L 3130 4336 
z
" transform="scale(0.015625)"/>
        <path id="Lato-Regular-30" d="M 3520 2291 
Q 3520 1690 3390 1250 
Q 3261 810 3037 522 
Q 2813 234 2507 93 
Q 2202 -48 1853 -48 
Q 1501 -48 1198 93 
Q 896 234 672 522 
Q 448 810 320 1250 
Q 192 1690 192 2291 
Q 192 2893 320 3334 
Q 448 3776 672 4065 
Q 896 4355 1198 4496 
Q 1501 4637 1853 4637 
Q 2202 4637 2507 4496 
Q 2813 4355 3037 4065 
Q 3261 3776 3390 3334 
Q 3520 2893 3520 2291 
z
M 2928 2291 
Q 2928 2816 2840 3173 
Q 2752 3530 2603 3747 
Q 2454 3965 2259 4059 
Q 2064 4154 1853 4154 
Q 1642 4154 1446 4059 
Q 1251 3965 1104 3747 
Q 957 3530 869 3173 
Q 781 2816 781 2291 
Q 781 1766 869 1411 
Q 957 1056 1104 838 
Q 1251 621 1446 526 
Q 1642 432 1853 432 
Q 2064 432 2259 526 
Q 2454 621 2603 838 
Q 2752 1056 2840 1411 
Q 2928 1766 2928 2291 
z
" transform="scale(0.015625)"/>
        <path id="Lato-Regular-4d" d="M 2813 1658 
Q 2858 1581 2891 1496 
Q 2925 1411 2957 1325 
Q 2989 1414 3024 1496 
Q 3059 1578 3104 1661 
L 4656 4480 
Q 4698 4554 4742 4570 
Q 4787 4586 4870 4586 
L 5328 4586 
L 5328 0 
L 4784 0 
L 4784 3370 
Q 4784 3437 4787 3513 
Q 4790 3590 4797 3670 
L 3226 803 
Q 3146 659 3002 659 
L 2912 659 
Q 2768 659 2688 803 
L 1082 3680 
Q 1091 3597 1096 3517 
Q 1101 3437 1101 3370 
L 1101 0 
L 557 0 
L 557 4586 
L 1014 4586 
Q 1098 4586 1142 4570 
Q 1187 4554 1229 4480 
L 2813 1658 
L 2813 1658 
z
" transform="scale(0.015625)"/>
       </defs>
       <use xlink:href="#Lato-Regular-20ac"/>
       <use xlink:href="#Lato-Regular-32" transform="translate(58 0)"/>
       <use xlink:href="#Lato-Regular-35" transform="translate(116 0)"/>
       <use xlink:href="#Lato-Regular-30" transform="translate(174 0)"/>
       <use xlink:href="#Lato-Regular-4d" transform="translate(232 0)"/>
      </g>
     </g>
    </g>
    <g id="xtick_2">
     <g id="line2d_2">
      <g>
       <use xlink:href="#m57637e0542" x="144.45" y="314.12" style="stroke: #000000; stroke-width: 0.8"/>
      </g>
     </g>
     <g id="text_2">
      <!-- €500M -->
      <g transform="translate(128.25 328.485625) scale(0.1 -0.1)">
       <use xlink:href="#Lato-Regular-20ac"/>
       <use xlink:href="#Lato-Regular-35" transform="translate(58 0)"/>
       <use xlink:href="#Lato-Regular-30" transform="translate(116 0)"/>
       <use xlink:href="#Lato-Regular-30" transform="translate(174 0)"/>
       <use xlink:href="#Lato-Regular-4d" transform="translate(232 0)"/>
      </g>
     </g>
    </g>
    <g id="xtick_3">
     <g id="line2d_3">
      <g>
       <use xlink:href="#m57637e0542" x="213.075" y="314.12" style="stroke: #000000; stroke-width: 0.8"/>
      </g>
     </g>
     <g id="text_3">
      <!-- €750M -->
      <g transform="translate(196.875 328.485625) scale(0.1 -0.1)">
       <defs>
        <path id="Lato-Regular-37" d="M 3469 4586 
L 3469 4330 
Q 3469 4221 3445 4150 
Q 3421 4080 3395 4032 
L 1498 202 
Q 1456 118 1382 59 
Q 1309 0 1184 0 
L 778 0 
L 2704 3782 
Q 2746 3862 2789 3929 
Q 2832 3997 2886 4058 
L 493 4058 
Q 438 4058 395 4101 
Q 352 4144 352 4198 
L 352 4586 
L 3469 4586 
z
" transform="scale(0.015625)"/>
       </defs>
       <use xlink:href="#Lato-Regular-20ac"/>
       <use xlink:href="#Lato-Regular-37" transform="translate(58 0)"/>
       <use xlink:href="#Lato-Regular-35" transform="translate(116 0)"/>
       <use xlink:href="#Lato-Regular-30" transform="translate(174 0)"/>
       <use xlink:href="#Lato-Regular-4d" transform="translate(232 0)"/>
      </g>
     </g>
    </g>
    <g id="xtick_4">
     <g id="line2d_4">
      <g>
       <use xlink:href="#m57637e0542" x="281.7" y="314.12" style="stroke: #000000; stroke-width: 0.8"/>
      </g>
     </g>
     <g id="text_4">
      <!-- €1B -->
      <g transform="translate(272.664844 328.485625) scale(0.1 -0.1)">
       <defs>
        <path id="Lato-Regular-31" d="M 918 435 
L 1904 435 
L 1904 3562 
Q 1904 3702 1914 3846 
L 1094 3146 
Q 1062 3120 1030 3109 
Q 998 3098 970 3098 
Q 922 3098 883 3118 
Q 845 3139 826 3168 
L 646 3414 
L 2010 4595 
L 2474 4595 
L 2474 435 
L 3376 435 
L 3376 0 
L 918 0 
L 918 435 
z
" transform="scale(0.015625)"/>
        <path id="Lato-Regular-42" d="M 557 0 
L 557 4586 
L 2019 4586 
Q 2442 4586 2747 4502 
Q 3053 4419 3249 4265 
Q 3446 4112 3540 3889 
Q 3635 3667 3635 3389 
Q 3635 3219 3582 3062 
Q 3530 2906 3422 2771 
Q 3315 2637 3153 2531 
Q 2992 2426 2774 2358 
Q 3277 2259 3533 1996 
Q 3789 1734 3789 1306 
Q 3789 1014 3681 774 
Q 3574 534 3368 361 
Q 3162 189 2862 94 
Q 2563 0 2179 0 
L 557 0 
z
M 1178 2090 
L 1178 493 
L 2170 493 
Q 2435 493 2625 553 
Q 2816 614 2939 724 
Q 3062 835 3120 987 
Q 3178 1139 3178 1322 
Q 3178 1677 2926 1883 
Q 2675 2090 2166 2090 
L 1178 2090 
z
M 1178 2531 
L 1997 2531 
Q 2259 2531 2451 2588 
Q 2643 2646 2769 2748 
Q 2896 2851 2957 2996 
Q 3018 3142 3018 3315 
Q 3018 3718 2774 3907 
Q 2531 4096 2019 4096 
L 1178 4096 
L 1178 2531 
z
" transform="scale(0.015625)"/>
       </defs>
       <use xlink:href="#Lato-Regular-20ac"/>
       <use xlink:href="#Lato-Regular-31" transform="translate(58 0)"/>
       <use xlink:href="#Lato-Regular-42" transform="translate(116 0)"/>
      </g>
     </g>
    </g>
    <g id="xtick_5">
     <g id="line2d_5">
      <g>
       <use xlink:href="#m57637e0542" x="350.325" y="314.12" style="stroke: #000000; stroke-width: 0.8"/>
      </g>
     </g>
     <g id="text_5">
      <!-- €1.25B -->
      <g transform="translate(334.429688 328.485625) scale(0.1 -0.1)">
       <defs>
        <path id="Lato-Regular-2e" d="M 282 352 
Q 282 435 312 508 
Q 342 582 395 636 
Q 448 691 521 723 
Q 595 755 678 755 
Q 762 755 835 723 
Q 909 691 963 636 
Q 1018 582 1048 508 
Q 1078 435 1078 352 
Q 1078 266 1048 194 
Q 1018 122 963 67 
Q 909 13 835 -17 
Q 762 -48 678 -48 
Q 595 -48 521 -17 
Q 448 13 395 67 
Q 342 122 312 194 
Q 282 266 282 352 
z
" transform="scale(0.015625)"/>
       </defs>
       <use xlink:href="#Lato-Regular-20ac"/>
       <use xlink:href="#Lato-Regular-31" transform="translate(58 0)"/>
       <use xlink:href="#Lato-Regular-2e" transform="translate(116 0)"/>
       <use xlink:href="#Lato-Regular-32" transform="translate(137.199997 0)"/>
       <use xlink:href="#Lato-Regular-35" transform="translate(195.199997 0)"/>
       <use xlink:href="#Lato-Regular-42" transform="translate(253.199997 0)"/>
      </g>
     </g>
    </g>
    <g id="xtick_6">
     <g id="line2d_6">
      <g>
       <use xlink:href="#m57637e0542" x="418.95" y="314.12" style="stroke: #000000; stroke-width: 0.8"/>
      </g>
     </g>
     <g id="text_6">
      <!-- €1.5B -->
      <g transform="translate(405.954688 328.485625) scale(0.1 -0.1)">
       <use xlink:href="#Lato-Regular-20ac"/>
       <use xlink:href="#Lato-Regular-31" transform="translate(58 0)"/>
       <use xlink:href="#Lato-Regular-2e" transform="translate(116 0)"/>
       <use xlink:href="#Lato-Regular-35" transform="translate(137.199997 0)"/>
       <use xlink:href="#Lato-Regular-42" transform="translate(195.199997 0)"/>
      </g>
     </g>
    </g>
   </g>
  </g>
  <g id="axes_2">
   <g id="FillBetweenPolyCollection_1">
    <defs>
     <path id="ma7c4849c08" d="M 8.626751 -271.708913 
L 8.626751 -271.708913 
L 11.000977 -271.708913 
L 13.375202 -271.708913 
L 15.749427 -271.708913 
L 18.123653 -271.708913 
L 20.497878 -271.708913 
L 22.872103 -271.708913 
L 25.246329 -271.708913 
L 27.620554 -271.708913 
L 29.994779 -271.708913 
L 32.369005 -271.708913 
L 34.74323 -271.708913 
L 37.117456 -271.708913 
L 39.491681 -271.708913 
L 41.865906 -271.708913 
L 44.240132 -271.708913 
L 46.614357 -271.708913 
L 48.988582 -271.708913 
L 51.362808 -271.708913 
L 53.737033 -271.708913 
L 56.111258 -271.708913 
L 58.485484 -271.708913 
L 58.485484 -271.708913 
L 58.485484 -271.708913 
L 56.111258 -277.898579 
L 53.737033 -271.708913 
L 51.362808 -271.708913 
L 48.988582 -271.708913 
L 46.614357 -271.708913 
L 44.240132 -271.708913 
L 41.865906 -271.708913 
L 39.491681 -271.708913 
L 37.117456 -271.708913 
L 34.74323 -277.898579 
L 32.369005 -271.708913 
L 29.994779 -290.277909 
L 27.620554 -284.088244 
L 25.246329 -277.898579 
L 22.872103 -277.898579 
L 20.497878 -277.898579 
L 18.123653 -277.898579 
L 15.749427 -290.277909 
L 13.375202 -290.277909 
L 11.000977 -277.898579 
L 8.626751 -271.708913 
z
" style="stroke: #d10214; stroke-opacity: 0.427273"/>
    </defs>
    <g clip-path="url(#p69bc9b55d2)">
     <use xlink:href="#ma7c4849c08" x="0" y="337.40125" style="fill: #d10214; fill-opacity: 0.427273; stroke: #d10214; stroke-opacity: 0.427273"/>
    </g>
   </g>
   <g id="line2d_7">
    <path d="M 8.626751 65.692337 
L 11.000977 65.692337 
L 13.375202 65.692337 
L 15.749427 65.692337 
L 18.123653 65.692337 
L 20.497878 65.692337 
L 22.872103 65.692337 
L 25.246329 65.692337 
L 27.620554 65.692337 
L 29.994779 65.692337 
L 32.369005 65.692337 
L 34.74323 65.692337 
L 37.117456 65.692337 
L 39.491681 65.692337 
L 41.865906 65.692337 
L 44.240132 65.692337 
L 46.614357 65.692337 
L 48.988582 65.692337 
L 51.362808 65.692337 
L 53.737033 65.692337 
L 56.111258 65.692337 
L 58.485484 65.692337 
" clip-path="url(#p69bc9b55d2)" style="fill: none; stroke: #d10214; stroke-opacity: 0.427273; stroke-width: 1.5; stroke-linecap: square"/>
   </g>
   <g id="line2d_8">
    <path d="M 8.626751 65.692337 
L 11.000977 59.502671 
L 13.375202 47.123341 
L 15.749427 47.123341 
L 18.123653 59.502671 
L 20.497878 59.502671 
L 22.872103 59.502671 
L 25.246329 59.502671 
L 27.620554 53.313006 
L 29.994779 47.123341 
L 32.369005 65.692337 
L 34.74323 59.502671 
L 37.117456 65.692337 
L 39.491681 65.692337 
L 41.865906 65.692337 
L 44.240132 65.692337 
L 46.614357 65.692337 
L 48.988582 65.692337 
L 51.362808 65.692337 
L 53.737033 65.692337 
L 56.111258 59.502671 
L 58.485484 65.692337 
" clip-path="url(#p69bc9b55d2)" style="fill: none; stroke: #000000; stroke-opacity: 0.427273; stroke-width: 1.5; stroke-linecap: square"/>
   </g>
  </g>
  <g id="axes_3">
   <g id="FillBetweenPolyCollection_2">
    <defs>
     <path id="m52a7f7b09b" d="M 10.768999 -260.303459 
L 10.768999 -260.303459 
L 13.070307 -260.303459 
L 15.371615 -260.303459 
L 17.672924 -260.303459 
L 19.974232 -260.303459 
L 22.27554 -260.303459 
L 24.576848 -260.303459 
L 26.878156 -260.303459 
L 29.179465 -260.303459 
L 31.480773 -260.303459 
L 33.782081 -260.303459 
L 36.083389 -260.303459 
L 38.384697 -260.303459 
L 40.686005 -260.303459 
L 42.987314 -260.303459 
L 45.288622 -260.303459 
L 47.58993 -260.303459 
L 49.891238 -260.303459 
L 52.192546 -260.303459 
L 54.493855 -260.303459 
L 56.795163 -260.303459 
L 59.096471 -260.303459 
L 59.096471 -260.303459 
L 59.096471 -260.303459 
L 56.795163 -266.493124 
L 54.493855 -260.303459 
L 52.192546 -260.303459 
L 49.891238 -260.303459 
L 47.58993 -260.303459 
L 45.288622 -260.303459 
L 42.987314 -260.303459 
L 40.686005 -260.303459 
L 38.384697 -266.493124 
L 36.083389 -266.493124 
L 33.782081 -260.303459 
L 31.480773 -266.493124 
L 29.179465 -272.682789 
L 26.878156 -272.682789 
L 24.576848 -266.493124 
L 22.27554 -266.493124 
L 19.974232 -278.872455 
L 17.672924 -278.872455 
L 15.371615 -266.493124 
L 13.070307 -266.493124 
L 10.768999 -260.303459 
z
" style="stroke: #d10214; stroke-opacity: 0.454545"/>
    </defs>
    <g clip-path="url(#pd953f0b216)">
     <use xlink:href="#m52a7f7b09b" x="0" y="337.40125" style="fill: #d10214; fill-opacity: 0.454545; stroke: #d10214; stroke-opacity: 0.454545"/>
    </g>
   </g>
   <g id="line2d_9">
    <path d="M 10.768999 77.097791 
L 13.070307 77.097791 
L 15.371615 77.097791 
L 17.672924 77.097791 
L 19.974232 77.097791 
L 22.27554 77.097791 
L 24.576848 77.097791 
L 26.878156 77.097791 
L 29.179465 77.097791 
L 31.480773 77.097791 
L 33.782081 77.097791 
L 36.083389 77.097791 
L 38.384697 77.097791 
L 40.686005 77.097791 
L 42.987314 77.097791 
L 45.288622 77.097791 
L 47.58993 77.097791 
L 49.891238 77.097791 
L 52.192546 77.097791 
L 54.493855 77.097791 
L 56.795163 77.097791 
L 59.096471 77.097791 
" clip-path="url(#pd953f0b216)" style="fill: none; stroke: #d10214; stroke-opacity: 0.454545; stroke-width: 1.5; stroke-linecap: square"/>
   </g>
   <g id="line2d_10">
    <path d="M 10.768999 77.097791 
L 13.070307 70.908126 
L 15.371615 70.908126 
L 17.672924 58.528795 
L 19.974232 58.528795 
L 22.27554 70.908126 
L 24.576848 70.908126 
L 26.878156 64.718461 
L 29.179465 64.718461 
L 31.480773 70.908126 
L 33.782081 77.097791 
L 36.083389 70.908126 
L 38.384697 70.908126 
L 40.686005 77.097791 
L 42.987314 77.097791 
L 45.288622 77.097791 
L 47.58993 77.097791 
L 49.891238 77.097791 
L 52.192546 77.097791 
L 54.493855 77.097791 
L 56.795163 70.908126 
L 59.096471 77.097791 
" clip-path="url(#pd953f0b216)" style="fill: none; stroke: #000000; stroke-opacity: 0.454545; stroke-width: 1.5; stroke-linecap: square"/>
   </g>
  </g>
  <g id="axes_4">
   <g id="FillBetweenPolyCollection_3">
    <defs>
     <path id="m8a261b95d7" d="M 11.409982 -248.898004 
L 11.409982 -248.898004 
L 13.718477 -248.898004 
L 16.026972 -248.898004 
L 18.335467 -248.898004 
L 20.643962 -248.898004 
L 22.952457 -248.898004 
L 25.260952 -248.898004 
L 27.569447 -248.898004 
L 29.877942 -248.898004 
L 32.186437 -248.898004 
L 34.494932 -248.898004 
L 36.803428 -248.898004 
L 39.111923 -248.898004 
L 41.420418 -248.898004 
L 43.728913 -248.898004 
L 46.037408 -248.898004 
L 48.345903 -248.898004 
L 50.654398 -248.898004 
L 52.962893 -248.898004 
L 55.271388 -248.898004 
L 57.579883 -248.898004 
L 59.888378 -248.898004 
L 59.888378 -248.898004 
L 59.888378 -248.898004 
L 57.579883 -255.08767 
L 55.271388 -248.898004 
L 52.962893 -248.898004 
L 50.654398 -255.08767 
L 48.345903 -248.898004 
L 46.037408 -248.898004 
L 43.728913 -248.898004 
L 41.420418 -248.898004 
L 39.111923 -248.898004 
L 36.803428 -255.08767 
L 34.494932 -261.277335 
L 32.186437 -248.898004 
L 29.877942 -255.08767 
L 27.569447 -261.277335 
L 25.260952 -255.08767 
L 22.952457 -255.08767 
L 20.643962 -267.467 
L 18.335467 -255.08767 
L 16.026972 -261.277335 
L 13.718477 -261.277335 
L 11.409982 -248.898004 
z
" style="stroke: #d10214; stroke-opacity: 0.481818"/>
    </defs>
    <g clip-path="url(#pacf68a6e99)">
     <use xlink:href="#m8a261b95d7" x="0" y="337.40125" style="fill: #d10214; fill-opacity: 0.481818; stroke: #d10214; stroke-opacity: 0.481818"/>
    </g>
   </g>
   <g id="line2d_11">
    <path d="M 11.409982 88.503246 
L 13.718477 88.503246 
L 16.026972 88.503246 
L 18.335467 88.503246 
L 20.643962 88.503246 
L 22.952457 88.503246 
L 25.260952 88.503246 
L 27.569447 88.503246 
L 29.877942 88.503246 
L 32.186437 88.503246 
L 34.494932 88.503246 
L 36.803428 88.503246 
L 39.111923 88.503246 
L 41.420418 88.503246 
L 43.728913 88.503246 
L 46.037408 88.503246 
L 48.345903 88.503246 
L 50.654398 88.503246 
L 52.962893 88.503246 
L 55.271388 88.503246 
L 57.579883 88.503246 
L 59.888378 88.503246 
" clip-path="url(#pacf68a6e99)" style="fill: none; stroke: #d10214; stroke-opacity: 0.481818; stroke-width: 1.5; stroke-linecap: square"/>
   </g>
   <g id="line2d_12">
    <path d="M 11.409982 88.503246 
L 13.718477 76.123915 
L 16.026972 76.123915 
L 18.335467 82.31358 
L 20.643962 69.93425 
L 22.952457 82.31358 
L 25.260952 82.31358 
L 27.569447 76.123915 
L 29.877942 82.31358 
L 32.186437 88.503246 
L 34.494932 76.123915 
L 36.803428 82.31358 
L 39.111923 88.503246 
L 41.420418 88.503246 
L 43.728913 88.503246 
L 46.037408 88.503246 
L 48.345903 88.503246 
L 50.654398 82.31358 
L 52.962893 88.503246 
L 55.271388 88.503246 
L 57.579883 82.31358 
L 59.888378 88.503246 
" clip-path="url(#pacf68a6e99)" style="fill: none; stroke: #000000; stroke-opacity: 0.481818; stroke-width: 1.5; stroke-linecap: square"/>
   </g>
  </g>
  <g id="axes_5">
   <g id="FillBetweenPolyCollection_4">
    <defs>
     <path id="mb52f4915d9" d="M 10.337535 -237.49255 
L 10.337535 -237.49255 
L 13.65624 -237.49255 
L 16.974945 -237.49255 
L 20.29365 -237.49255 
L 23.612355 -237.49255 
L 26.93106 -237.49255 
L 30.249765 -237.49255 
L 33.56847 -237.49255 
L 36.887175 -237.49255 
L 40.20588 -237.49255 
L 43.524585 -237.49255 
L 46.84329 -237.49255 
L 50.161995 -237.49255 
L 53.4807 -237.49255 
L 56.799405 -237.49255 
L 60.11811 -237.49255 
L 63.436815 -237.49255 
L 66.75552 -237.49255 
L 70.074225 -237.49255 
L 73.39293 -237.49255 
L 76.711635 -237.49255 
L 80.03034 -237.49255 
L 80.03034 -237.49255 
L 80.03034 -237.49255 
L 76.711635 -243.682215 
L 73.39293 -237.49255 
L 70.074225 -237.49255 
L 66.75552 -237.49255 
L 63.436815 -237.49255 
L 60.11811 -237.49255 
L 56.799405 -237.49255 
L 53.4807 -237.49255 
L 50.161995 -243.682215 
L 46.84329 -237.49255 
L 43.524585 -237.49255 
L 40.20588 -249.87188 
L 36.887175 -243.682215 
L 33.56847 -243.682215 
L 30.249765 -256.061546 
L 26.93106 -243.682215 
L 23.612355 -249.87188 
L 20.29365 -243.682215 
L 16.974945 -256.061546 
L 13.65624 -249.87188 
L 10.337535 -237.49255 
z
" style="stroke: #d10214; stroke-opacity: 0.509091"/>
    </defs>
    <g clip-path="url(#p53f3c80b71)">
     <use xlink:href="#mb52f4915d9" x="0" y="337.40125" style="fill: #d10214; fill-opacity: 0.509091; stroke: #d10214; stroke-opacity: 0.509091"/>
    </g>
   </g>
   <g id="line2d_13">
    <path d="M 10.337535 99.9087 
L 13.65624 99.9087 
L 16.974945 99.9087 
L 20.29365 99.9087 
L 23.612355 99.9087 
L 26.93106 99.9087 
L 30.249765 99.9087 
L 33.56847 99.9087 
L 36.887175 99.9087 
L 40.20588 99.9087 
L 43.524585 99.9087 
L 46.84329 99.9087 
L 50.161995 99.9087 
L 53.4807 99.9087 
L 56.799405 99.9087 
L 60.11811 99.9087 
L 63.436815 99.9087 
L 66.75552 99.9087 
L 70.074225 99.9087 
L 73.39293 99.9087 
L 76.711635 99.9087 
L 80.03034 99.9087 
" clip-path="url(#p53f3c80b71)" style="fill: none; stroke: #d10214; stroke-opacity: 0.509091; stroke-width: 1.5; stroke-linecap: square"/>
   </g>
   <g id="line2d_14">
    <path d="M 10.337535 99.9087 
L 13.65624 87.52937 
L 16.974945 81.339704 
L 20.29365 93.719035 
L 23.612355 87.52937 
L 26.93106 93.719035 
L 30.249765 81.339704 
L 33.56847 93.719035 
L 36.887175 93.719035 
L 40.20588 87.52937 
L 43.524585 99.9087 
L 46.84329 99.9087 
L 50.161995 93.719035 
L 53.4807 99.9087 
L 56.799405 99.9087 
L 60.11811 99.9087 
L 63.436815 99.9087 
L 66.75552 99.9087 
L 70.074225 99.9087 
L 73.39293 99.9087 
L 76.711635 93.719035 
L 80.03034 99.9087 
" clip-path="url(#p53f3c80b71)" style="fill: none; stroke: #000000; stroke-opacity: 0.509091; stroke-width: 1.5; stroke-linecap: square"/>
   </g>
  </g>
  <g id="axes_6">
   <g id="FillBetweenPolyCollection_5">
    <defs>
     <path id="m6248432df5" d="M 11.185091 -226.087095 
L 11.185091 -226.087095 
L 14.275762 -226.087095 
L 17.366432 -226.087095 
L 20.457102 -226.087095 
L 23.547773 -226.087095 
L 26.638443 -226.087095 
L 29.729113 -226.087095 
L 32.819784 -226.087095 
L 35.910454 -226.087095 
L 39.001124 -226.087095 
L 42.091795 -226.087095 
L 45.182465 -226.087095 
L 48.273136 -226.087095 
L 51.363806 -226.087095 
L 54.454476 -226.087095 
L 57.545147 -226.087095 
L 60.635817 -226.087095 
L 63.726487 -226.087095 
L 66.817158 -226.087095 
L 69.907828 -226.087095 
L 72.998498 -226.087095 
L 76.089169 -226.087095 
L 76.089169 -226.087095 
L 76.089169 -226.087095 
L 72.998498 -232.27676 
L 69.907828 -226.087095 
L 66.817158 -226.087095 
L 63.726487 -226.087095 
L 60.635817 -226.087095 
L 57.545147 -226.087095 
L 54.454476 -226.087095 
L 51.363806 -232.27676 
L 48.273136 -232.27676 
L 45.182465 -232.27676 
L 42.091795 -226.087095 
L 39.001124 -244.656091 
L 35.910454 -232.27676 
L 32.819784 -232.27676 
L 29.729113 -232.27676 
L 26.638443 -226.087095 
L 23.547773 -238.466426 
L 20.457102 -238.466426 
L 17.366432 -232.27676 
L 14.275762 -244.656091 
L 11.185091 -226.087095 
z
" style="stroke: #d10214; stroke-opacity: 0.536364"/>
    </defs>
    <g clip-path="url(#p9ce22bb810)">
     <use xlink:href="#m6248432df5" x="0" y="337.40125" style="fill: #d10214; fill-opacity: 0.536364; stroke: #d10214; stroke-opacity: 0.536364"/>
    </g>
   </g>
   <g id="line2d_15">
    <path d="M 11.185091 111.314155 
L 14.275762 111.314155 
L 17.366432 111.314155 
L 20.457102 111.314155 
L 23.547773 111.314155 
L 26.638443 111.314155 
L 29.729113 111.314155 
L 32.819784 111.314155 
L 35.910454 111.314155 
L 39.001124 111.314155 
L 42.091795 111.314155 
L 45.182465 111.314155 
L 48.273136 111.314155 
L 51.363806 111.314155 
L 54.454476 111.314155 
L 57.545147 111.314155 
L 60.635817 111.314155 
L 63.726487 111.314155 
L 66.817158 111.314155 
L 69.907828 111.314155 
L 72.998498 111.314155 
L 76.089169 111.314155 
" clip-path="url(#p9ce22bb810)" style="fill: none; stroke: #d10214; stroke-opacity: 0.536364; stroke-width: 1.5; stroke-linecap: square"/>
   </g>
   <g id="line2d_16">
    <path d="M 11.185091 111.314155 
L 14.275762 92.745159 
L 17.366432 105.12449 
L 20.457102 98.934824 
L 23.547773 98.934824 
L 26.638443 111.314155 
L 29.729113 105.12449 
L 32.819784 105.12449 
L 35.910454 105.12449 
L 39.001124 92.745159 
L 42.091795 111.314155 
L 45.182465 105.12449 
L 48.273136 105.12449 
L 51.363806 105.12449 
L 54.454476 111.314155 
L 57.545147 111.314155 
L 60.635817 111.314155 
L 63.726487 111.314155 
L 66.817158 111.314155 
L 69.907828 111.314155 
L 72.998498 105.12449 
L 76.089169 111.314155 
" clip-path="url(#p9ce22bb810)" style="fill: none; stroke: #000000; stroke-opacity: 0.536364; stroke-width: 1.5; stroke-linecap: square"/>
   </g>
  </g>
  <g id="axes_7">
   <g id="FillBetweenPolyCollection_6">
    <defs>
     <path id="m229cf4ac00" d="M 13.235756 -214.681641 
L 13.235756 -214.681641 
L 16.830708 -214.681641 
L 20.42566 -214.681641 
L 24.020611 -214.681641 
L 27.615563 -214.681641 
L 31.210515 -214.681641 
L 34.805467 -214.681641 
L 38.400419 -214.681641 
L 41.99537 -214.681641 
L 45.590322 -214.681641 
L 49.185274 -214.681641 
L 52.780226 -214.681641 
L 56.375178 -214.681641 
L 59.97013 -214.681641 
L 63.565081 -214.681641 
L 67.160033 -214.681641 
L 70.754985 -214.681641 
L 74.349937 -214.681641 
L 77.944889 -214.681641 
L 81.53984 -214.681641 
L 85.134792 -214.681641 
L 88.729744 -214.681641 
L 88.729744 -214.681641 
L 88.729744 -214.681641 
L 85.134792 -220.871306 
L 81.53984 -214.681641 
L 77.944889 -214.681641 
L 74.349937 -214.681641 
L 70.754985 -214.681641 
L 67.160033 -214.681641 
L 63.565081 -214.681641 
L 59.97013 -214.681641 
L 56.375178 -214.681641 
L 52.780226 -214.681641 
L 49.185274 -220.871306 
L 45.590322 -233.250636 
L 41.99537 -227.060971 
L 38.400419 -220.871306 
L 34.805467 -220.871306 
L 31.210515 -214.681641 
L 27.615563 -214.681641 
L 24.020611 -239.440302 
L 20.42566 -233.250636 
L 16.830708 -227.060971 
L 13.235756 -214.681641 
z
" style="stroke: #d10214; stroke-opacity: 0.563636"/>
    </defs>
    <g clip-path="url(#p597c523e94)">
     <use xlink:href="#m229cf4ac00" x="0" y="337.40125" style="fill: #d10214; fill-opacity: 0.563636; stroke: #d10214; stroke-opacity: 0.563636"/>
    </g>
   </g>
   <g id="line2d_17">
    <path d="M 13.235756 122.719609 
L 16.830708 122.719609 
L 20.42566 122.719609 
L 24.020611 122.719609 
L 27.615563 122.719609 
L 31.210515 122.719609 
L 34.805467 122.719609 
L 38.400419 122.719609 
L 41.99537 122.719609 
L 45.590322 122.719609 
L 49.185274 122.719609 
L 52.780226 122.719609 
L 56.375178 122.719609 
L 59.97013 122.719609 
L 63.565081 122.719609 
L 67.160033 122.719609 
L 70.754985 122.719609 
L 74.349937 122.719609 
L 77.944889 122.719609 
L 81.53984 122.719609 
L 85.134792 122.719609 
L 88.729744 122.719609 
" clip-path="url(#p597c523e94)" style="fill: none; stroke: #d10214; stroke-opacity: 0.563636; stroke-width: 1.5; stroke-linecap: square"/>
   </g>
   <g id="line2d_18">
    <path d="M 13.235756 122.719609 
L 16.830708 110.340279 
L 20.42566 104.150614 
L 24.020611 97.960948 
L 27.615563 122.719609 
L 31.210515 122.719609 
L 34.805467 116.529944 
L 38.400419 116.529944 
L 41.99537 110.340279 
L 45.590322 104.150614 
L 49.185274 116.529944 
L 52.780226 122.719609 
L 56.375178 122.719609 
L 59.97013 122.719609 
L 63.565081 122.719609 
L 67.160033 122.719609 
L 70.754985 122.719609 
L 74.349937 122.719609 
L 77.944889 122.719609 
L 81.53984 122.719609 
L 85.134792 116.529944 
L 88.729744 122.719609 
" clip-path="url(#p597c523e94)" style="fill: none; stroke: #000000; stroke-opacity: 0.563636; stroke-width: 1.5; stroke-linecap: square"/>
   </g>
  </g>
  <g id="axes_8">
   <g id="FillBetweenPolyCollection_7">
    <defs>
     <path id="m9c4e624cf6" d="M 10.012777 -203.276186 
L 10.012777 -203.276186 
L 14.182382 -203.276186 
L 18.351987 -203.276186 
L 22.521592 -203.276186 
L 26.691197 -203.276186 
L 30.860802 -203.276186 
L 35.030407 -203.276186 
L 39.200012 -203.276186 
L 43.369617 -203.276186 
L 47.539222 -203.276186 
L 51.708827 -203.276186 
L 55.878433 -203.276186 
L 60.048038 -203.276186 
L 64.217643 -203.276186 
L 68.387248 -203.276186 
L 72.556853 -203.276186 
L 76.726458 -203.276186 
L 80.896063 -203.276186 
L 85.065668 -203.276186 
L 89.235273 -203.276186 
L 93.404878 -203.276186 
L 97.574483 -203.276186 
L 97.574483 -203.276186 
L 97.574483 -203.276186 
L 93.404878 -209.465851 
L 89.235273 -203.276186 
L 85.065668 -203.276186 
L 80.896063 -203.276186 
L 76.726458 -203.276186 
L 72.556853 -203.276186 
L 68.387248 -203.276186 
L 64.217643 -203.276186 
L 60.048038 -203.276186 
L 55.878433 -209.465851 
L 51.708827 -209.465851 
L 47.539222 -221.845182 
L 43.369617 -209.465851 
L 39.200012 -209.465851 
L 35.030407 -209.465851 
L 30.860802 -203.276186 
L 26.691197 -221.845182 
L 22.521592 -228.034847 
L 18.351987 -209.465851 
L 14.182382 -209.465851 
L 10.012777 -203.276186 
z
" style="stroke: #d10214; stroke-opacity: 0.590909"/>
    </defs>
    <g clip-path="url(#pf915bd13ad)">
     <use xlink:href="#m9c4e624cf6" x="0" y="337.40125" style="fill: #d10214; fill-opacity: 0.590909; stroke: #d10214; stroke-opacity: 0.590909"/>
    </g>
   </g>
   <g id="line2d_19">
    <path d="M 10.012777 134.125064 
L 14.182382 134.125064 
L 18.351987 134.125064 
L 22.521592 134.125064 
L 26.691197 134.125064 
L 30.860802 134.125064 
L 35.030407 134.125064 
L 39.200012 134.125064 
L 43.369617 134.125064 
L 47.539222 134.125064 
L 51.708827 134.125064 
L 55.878433 134.125064 
L 60.048038 134.125064 
L 64.217643 134.125064 
L 68.387248 134.125064 
L 72.556853 134.125064 
L 76.726458 134.125064 
L 80.896063 134.125064 
L 85.065668 134.125064 
L 89.235273 134.125064 
L 93.404878 134.125064 
L 97.574483 134.125064 
" clip-path="url(#pf915bd13ad)" style="fill: none; stroke: #d10214; stroke-opacity: 0.590909; stroke-width: 1.5; stroke-linecap: square"/>
   </g>
   <g id="line2d_20">
    <path d="M 10.012777 134.125064 
L 14.182382 127.935399 
L 18.351987 127.935399 
L 22.521592 109.366403 
L 26.691197 115.556068 
L 30.860802 134.125064 
L 35.030407 127.935399 
L 39.200012 127.935399 
L 43.369617 127.935399 
L 47.539222 115.556068 
L 51.708827 127.935399 
L 55.878433 127.935399 
L 60.048038 134.125064 
L 64.217643 134.125064 
L 68.387248 134.125064 
L 72.556853 134.125064 
L 76.726458 134.125064 
L 80.896063 134.125064 
L 85.065668 134.125064 
L 89.235273 134.125064 
L 93.404878 127.935399 
L 97.574483 134.125064 
" clip-path="url(#pf915bd13ad)" style="fill: none; stroke: #000000; stroke-opacity: 0.590909; stroke-width: 1.5; stroke-linecap: square"/>
   </g>
  </g>
  <g id="axes_9">
   <g id="FillBetweenPolyCollection_8">
    <defs>
     <path id="m72ca4e45a8" d="M 11.385626 -191.870732 
L 11.385626 -191.870732 
L 16.141713 -191.870732 
L 20.8978 -191.870732 
L 25.653886 -191.870732 
L 30.409973 -191.870732 
L 35.16606 -191.870732 
L 39.922147 -191.870732 
L 44.678234 -191.870732 
L 49.43432 -191.870732 
L 54.190407 -191.870732 
L 58.946494 -191.870732 
L 63.702581 -191.870732 
L 68.458668 -191.870732 
L 73.214755 -191.870732 
L 77.970841 -191.870732 
L 82.726928 -191.870732 
L 87.483015 -191.870732 
L 92.239102 -191.870732 
L 96.995189 -191.870732 
L 101.751275 -191.870732 
L 106.507362 -191.870732 
L 111.263449 -191.870732 
L 111.263449 -191.870732 
L 111.263449 -191.870732 
L 106.507362 -198.060397 
L 101.751275 -191.870732 
L 96.995189 -191.870732 
L 92.239102 -191.870732 
L 87.483015 -191.870732 
L 82.726928 -191.870732 
L 77.970841 -191.870732 
L 73.214755 -191.870732 
L 68.458668 -198.060397 
L 63.702581 -191.870732 
L 58.946494 -191.870732 
L 54.190407 -191.870732 
L 49.43432 -198.060397 
L 44.678234 -198.060397 
L 39.922147 -210.439727 
L 35.16606 -191.870732 
L 30.409973 -216.629393 
L 25.653886 -204.250062 
L 20.8978 -216.629393 
L 16.141713 -198.060397 
L 11.385626 -191.870732 
z
" style="stroke: #d10214; stroke-opacity: 0.618182"/>
    </defs>
    <g clip-path="url(#p71cf3ab00c)">
     <use xlink:href="#m72ca4e45a8" x="0" y="337.40125" style="fill: #d10214; fill-opacity: 0.618182; stroke: #d10214; stroke-opacity: 0.618182"/>
    </g>
   </g>
   <g id="line2d_21">
    <path d="M 11.385626 145.530518 
L 16.141713 145.530518 
L 20.8978 145.530518 
L 25.653886 145.530518 
L 30.409973 145.530518 
L 35.16606 145.530518 
L 39.922147 145.530518 
L 44.678234 145.530518 
L 49.43432 145.530518 
L 54.190407 145.530518 
L 58.946494 145.530518 
L 63.702581 145.530518 
L 68.458668 145.530518 
L 73.214755 145.530518 
L 77.970841 145.530518 
L 82.726928 145.530518 
L 87.483015 145.530518 
L 92.239102 145.530518 
L 96.995189 145.530518 
L 101.751275 145.530518 
L 106.507362 145.530518 
L 111.263449 145.530518 
" clip-path="url(#p71cf3ab00c)" style="fill: none; stroke: #d10214; stroke-opacity: 0.618182; stroke-width: 1.5; stroke-linecap: square"/>
   </g>
   <g id="line2d_22">
    <path d="M 11.385626 145.530518 
L 16.141713 139.340853 
L 20.8978 120.771857 
L 25.653886 133.151188 
L 30.409973 120.771857 
L 35.16606 145.530518 
L 39.922147 126.961523 
L 44.678234 139.340853 
L 49.43432 139.340853 
L 54.190407 145.530518 
L 58.946494 145.530518 
L 63.702581 145.530518 
L 68.458668 139.340853 
L 73.214755 145.530518 
L 77.970841 145.530518 
L 82.726928 145.530518 
L 87.483015 145.530518 
L 92.239102 145.530518 
L 96.995189 145.530518 
L 101.751275 145.530518 
L 106.507362 139.340853 
L 111.263449 145.530518 
" clip-path="url(#p71cf3ab00c)" style="fill: none; stroke: #000000; stroke-opacity: 0.618182; stroke-width: 1.5; stroke-linecap: square"/>
   </g>
  </g>
  <g id="axes_10">
   <g id="FillBetweenPolyCollection_9">
    <defs>
     <path id="mdded24039a" d="M 7.141357 -180.465277 
L 7.141357 -180.465277 
L 13.598345 -180.465277 
L 20.055334 -180.465277 
L 26.512323 -180.465277 
L 32.969311 -180.465277 
L 39.4263 -180.465277 
L 45.883289 -180.465277 
L 52.340277 -180.465277 
L 58.797266 -180.465277 
L 65.254255 -180.465277 
L 71.711243 -180.465277 
L 78.168232 -180.465277 
L 84.62522 -180.465277 
L 91.082209 -180.465277 
L 97.539198 -180.465277 
L 103.996186 -180.465277 
L 110.453175 -180.465277 
L 116.910164 -180.465277 
L 123.367152 -180.465277 
L 129.824141 -180.465277 
L 136.28113 -180.465277 
L 142.738118 -180.465277 
L 142.738118 -180.465277 
L 142.738118 -180.465277 
L 136.28113 -186.654942 
L 129.824141 -180.465277 
L 123.367152 -180.465277 
L 116.910164 -180.465277 
L 110.453175 -180.465277 
L 103.996186 -180.465277 
L 97.539198 -180.465277 
L 91.082209 -186.654942 
L 84.62522 -180.465277 
L 78.168232 -180.465277 
L 71.711243 -180.465277 
L 65.254255 -180.465277 
L 58.797266 -186.654942 
L 52.340277 -186.654942 
L 45.883289 -180.465277 
L 39.4263 -186.654942 
L 32.969311 -205.223938 
L 26.512323 -205.223938 
L 20.055334 -199.034273 
L 13.598345 -192.844608 
L 7.141357 -180.465277 
z
" style="stroke: #d10214; stroke-opacity: 0.645455"/>
    </defs>
    <g clip-path="url(#pce2d2b9d19)">
     <use xlink:href="#mdded24039a" x="0" y="337.40125" style="fill: #d10214; fill-opacity: 0.645455; stroke: #d10214; stroke-opacity: 0.645455"/>
    </g>
   </g>
   <g id="line2d_23">
    <path d="M 7.141357 156.935973 
L 13.598345 156.935973 
L 20.055334 156.935973 
L 26.512323 156.935973 
L 32.969311 156.935973 
L 39.4263 156.935973 
L 45.883289 156.935973 
L 52.340277 156.935973 
L 58.797266 156.935973 
L 65.254255 156.935973 
L 71.711243 156.935973 
L 78.168232 156.935973 
L 84.62522 156.935973 
L 91.082209 156.935973 
L 97.539198 156.935973 
L 103.996186 156.935973 
L 110.453175 156.935973 
L 116.910164 156.935973 
L 123.367152 156.935973 
L 129.824141 156.935973 
L 136.28113 156.935973 
L 142.738118 156.935973 
" clip-path="url(#pce2d2b9d19)" style="fill: none; stroke: #d10214; stroke-opacity: 0.645455; stroke-width: 1.5; stroke-linecap: square"/>
   </g>
   <g id="line2d_24">
    <path d="M 7.141357 156.935973 
L 13.598345 144.556642 
L 20.055334 138.366977 
L 26.512323 132.177312 
L 32.969311 132.177312 
L 39.4263 150.746308 
L 45.883289 156.935973 
L 52.340277 150.746308 
L 58.797266 150.746308 
L 65.254255 156.935973 
L 71.711243 156.935973 
L 78.168232 156.935973 
L 84.62522 156.935973 
L 91.082209 150.746308 
L 97.539198 156.935973 
L 103.996186 156.935973 
L 110.453175 156.935973 
L 116.910164 156.935973 
L 123.367152 156.935973 
L 129.824141 156.935973 
L 136.28113 150.746308 
L 142.738118 156.935973 
" clip-path="url(#pce2d2b9d19)" style="fill: none; stroke: #000000; stroke-opacity: 0.645455; stroke-width: 1.5; stroke-linecap: square"/>
   </g>
  </g>
  <g id="axes_11">
   <g id="FillBetweenPolyCollection_10">
    <defs>
     <path id="mbf7d25632f" d="M 4.498421 -169.059823 
L 4.498421 -169.059823 
L 12.408513 -169.059823 
L 20.318605 -169.059823 
L 28.228696 -169.059823 
L 36.138788 -169.059823 
L 44.04888 -169.059823 
L 51.958972 -169.059823 
L 59.869064 -169.059823 
L 67.779155 -169.059823 
L 75.689247 -169.059823 
L 83.599339 -169.059823 
L 91.509431 -169.059823 
L 99.419523 -169.059823 
L 107.329615 -169.059823 
L 115.239706 -169.059823 
L 123.149798 -169.059823 
L 131.05989 -169.059823 
L 138.969982 -169.059823 
L 146.880074 -169.059823 
L 154.790165 -169.059823 
L 162.700257 -169.059823 
L 170.610349 -169.059823 
L 170.610349 -169.059823 
L 170.610349 -169.059823 
L 162.700257 -175.249488 
L 154.790165 -169.059823 
L 146.880074 -169.059823 
L 138.969982 -169.059823 
L 131.05989 -169.059823 
L 123.149798 -169.059823 
L 115.239706 -169.059823 
L 107.329615 -169.059823 
L 99.419523 -175.249488 
L 91.509431 -169.059823 
L 83.599339 -169.059823 
L 75.689247 -169.059823 
L 67.779155 -169.059823 
L 59.869064 -175.249488 
L 51.958972 -181.439153 
L 44.04888 -169.059823 
L 36.138788 -193.818483 
L 28.228696 -200.008149 
L 20.318605 -187.628818 
L 12.408513 -175.249488 
L 4.498421 -169.059823 
z
" style="stroke: #d10214; stroke-opacity: 0.672727"/>
    </defs>
    <g clip-path="url(#p2c9e318daa)">
     <use xlink:href="#mbf7d25632f" x="0" y="337.40125" style="fill: #d10214; fill-opacity: 0.672727; stroke: #d10214; stroke-opacity: 0.672727"/>
    </g>
   </g>
   <g id="line2d_25">
    <path d="M 4.498421 168.341427 
L 12.408513 168.341427 
L 20.318605 168.341427 
L 28.228696 168.341427 
L 36.138788 168.341427 
L 44.04888 168.341427 
L 51.958972 168.341427 
L 59.869064 168.341427 
L 67.779155 168.341427 
L 75.689247 168.341427 
L 83.599339 168.341427 
L 91.509431 168.341427 
L 99.419523 168.341427 
L 107.329615 168.341427 
L 115.239706 168.341427 
L 123.149798 168.341427 
L 131.05989 168.341427 
L 138.969982 168.341427 
L 146.880074 168.341427 
L 154.790165 168.341427 
L 162.700257 168.341427 
L 170.610349 168.341427 
" clip-path="url(#p2c9e318daa)" style="fill: none; stroke: #d10214; stroke-opacity: 0.672727; stroke-width: 1.5; stroke-linecap: square"/>
   </g>
   <g id="line2d_26">
    <path d="M 4.498421 168.341427 
L 12.408513 162.151762 
L 20.318605 149.772432 
L 28.228696 137.393101 
L 36.138788 143.582767 
L 44.04888 168.341427 
L 51.958972 155.962097 
L 59.869064 162.151762 
L 67.779155 168.341427 
L 75.689247 168.341427 
L 83.599339 168.341427 
L 91.509431 168.341427 
L 99.419523 162.151762 
L 107.329615 168.341427 
L 115.239706 168.341427 
L 123.149798 168.341427 
L 131.05989 168.341427 
L 138.969982 168.341427 
L 146.880074 168.341427 
L 154.790165 168.341427 
L 162.700257 162.151762 
L 170.610349 168.341427 
" clip-path="url(#p2c9e318daa)" style="fill: none; stroke: #000000; stroke-opacity: 0.672727; stroke-width: 1.5; stroke-linecap: square"/>
   </g>
  </g>
  <g id="axes_12">
   <g id="FillBetweenPolyCollection_11">
    <defs>
     <path id="m29c7ddd141" d="M 4.110527 -157.654368 
L 4.110527 -157.654368 
L 12.295069 -157.654368 
L 20.479611 -157.654368 
L 28.664153 -157.654368 
L 36.848695 -157.654368 
L 45.033237 -157.654368 
L 53.217779 -157.654368 
L 61.402321 -157.654368 
L 69.586863 -157.654368 
L 77.771405 -157.654368 
L 85.955947 -157.654368 
L 94.140488 -157.654368 
L 102.32503 -157.654368 
L 110.509572 -157.654368 
L 118.694114 -157.654368 
L 126.878656 -157.654368 
L 135.063198 -157.654368 
L 143.24774 -157.654368 
L 151.432282 -157.654368 
L 159.616824 -157.654368 
L 167.801366 -157.654368 
L 175.985908 -157.654368 
L 175.985908 -157.654368 
L 175.985908 -157.654368 
L 167.801366 -163.844033 
L 159.616824 -157.654368 
L 151.432282 -157.654368 
L 143.24774 -157.654368 
L 135.063198 -157.654368 
L 126.878656 -157.654368 
L 118.694114 -157.654368 
L 110.509572 -157.654368 
L 102.32503 -157.654368 
L 94.140488 -163.844033 
L 85.955947 -157.654368 
L 77.771405 -157.654368 
L 69.586863 -163.844033 
L 61.402321 -163.844033 
L 53.217779 -163.844033 
L 45.033237 -163.844033 
L 36.848695 -163.844033 
L 28.664153 -200.982025 
L 20.479611 -176.223364 
L 12.295069 -163.844033 
L 4.110527 -157.654368 
z
" style="stroke: #d10214; stroke-opacity: 0.7"/>
    </defs>
    <g clip-path="url(#pae89674706)">
     <use xlink:href="#m29c7ddd141" x="0" y="337.40125" style="fill: #d10214; fill-opacity: 0.7; stroke: #d10214; stroke-opacity: 0.7"/>
    </g>
   </g>
   <g id="line2d_27">
    <path d="M 4.110527 179.746882 
L 12.295069 179.746882 
L 20.479611 179.746882 
L 28.664153 179.746882 
L 36.848695 179.746882 
L 45.033237 179.746882 
L 53.217779 179.746882 
L 61.402321 179.746882 
L 69.586863 179.746882 
L 77.771405 179.746882 
L 85.955947 179.746882 
L 94.140488 179.746882 
L 102.32503 179.746882 
L 110.509572 179.746882 
L 118.694114 179.746882 
L 126.878656 179.746882 
L 135.063198 179.746882 
L 143.24774 179.746882 
L 151.432282 179.746882 
L 159.616824 179.746882 
L 167.801366 179.746882 
L 175.985908 179.746882 
" clip-path="url(#pae89674706)" style="fill: none; stroke: #d10214; stroke-opacity: 0.7; stroke-width: 1.5; stroke-linecap: square"/>
   </g>
   <g id="line2d_28">
    <path d="M 4.110527 179.746882 
L 12.295069 173.557217 
L 20.479611 161.177886 
L 28.664153 136.419225 
L 36.848695 173.557217 
L 45.033237 173.557217 
L 53.217779 173.557217 
L 61.402321 173.557217 
L 69.586863 173.557217 
L 77.771405 179.746882 
L 85.955947 179.746882 
L 94.140488 173.557217 
L 102.32503 179.746882 
L 110.509572 179.746882 
L 118.694114 179.746882 
L 126.878656 179.746882 
L 135.063198 179.746882 
L 143.24774 179.746882 
L 151.432282 179.746882 
L 159.616824 179.746882 
L 167.801366 173.557217 
L 175.985908 179.746882 
" clip-path="url(#pae89674706)" style="fill: none; stroke: #000000; stroke-opacity: 0.7; stroke-width: 1.5; stroke-linecap: square"/>
   </g>
  </g>
  <g id="axes_13">
   <g id="FillBetweenPolyCollection_12">
    <defs>
     <path id="m20fae7bb11" d="M 2.706435 -146.248913 
L 2.706435 -146.248913 
L 11.254365 -146.248913 
L 19.802295 -146.248913 
L 28.350225 -146.248913 
L 36.898155 -146.248913 
L 45.446085 -146.248913 
L 53.994015 -146.248913 
L 62.541945 -146.248913 
L 71.089875 -146.248913 
L 79.637805 -146.248913 
L 88.185735 -146.248913 
L 96.733665 -146.248913 
L 105.281595 -146.248913 
L 113.829525 -146.248913 
L 122.377455 -146.248913 
L 130.925385 -146.248913 
L 139.473315 -146.248913 
L 148.021245 -146.248913 
L 156.569175 -146.248913 
L 165.117105 -146.248913 
L 173.665035 -146.248913 
L 182.212965 -146.248913 
L 182.212965 -146.248913 
L 182.212965 -146.248913 
L 173.665035 -152.438579 
L 165.117105 -146.248913 
L 156.569175 -146.248913 
L 148.021245 -146.248913 
L 139.473315 -146.248913 
L 130.925385 -146.248913 
L 122.377455 -146.248913 
L 113.829525 -146.248913 
L 105.281595 -152.438579 
L 96.733665 -146.248913 
L 88.185735 -146.248913 
L 79.637805 -152.438579 
L 71.089875 -158.628244 
L 62.541945 -152.438579 
L 53.994015 -146.248913 
L 45.446085 -146.248913 
L 36.898155 -146.248913 
L 28.350225 -201.955901 
L 19.802295 -158.628244 
L 11.254365 -152.438579 
L 2.706435 -146.248913 
z
" style="stroke: #d10214; stroke-opacity: 0.727273"/>
    </defs>
    <g clip-path="url(#pfe11a05063)">
     <use xlink:href="#m20fae7bb11" x="0" y="337.40125" style="fill: #d10214; fill-opacity: 0.727273; stroke: #d10214; stroke-opacity: 0.727273"/>
    </g>
   </g>
   <g id="line2d_29">
    <path d="M 2.706435 191.152337 
L 11.254365 191.152337 
L 19.802295 191.152337 
L 28.350225 191.152337 
L 36.898155 191.152337 
L 45.446085 191.152337 
L 53.994015 191.152337 
L 62.541945 191.152337 
L 71.089875 191.152337 
L 79.637805 191.152337 
L 88.185735 191.152337 
L 96.733665 191.152337 
L 105.281595 191.152337 
L 113.829525 191.152337 
L 122.377455 191.152337 
L 130.925385 191.152337 
L 139.473315 191.152337 
L 148.021245 191.152337 
L 156.569175 191.152337 
L 165.117105 191.152337 
L 173.665035 191.152337 
L 182.212965 191.152337 
" clip-path="url(#pfe11a05063)" style="fill: none; stroke: #d10214; stroke-opacity: 0.727273; stroke-width: 1.5; stroke-linecap: square"/>
   </g>
   <g id="line2d_30">
    <path d="M 2.706435 191.152337 
L 11.254365 184.962671 
L 19.802295 178.773006 
L 28.350225 135.445349 
L 36.898155 191.152337 
L 45.446085 191.152337 
L 53.994015 191.152337 
L 62.541945 184.962671 
L 71.089875 178.773006 
L 79.637805 184.962671 
L 88.185735 191.152337 
L 96.733665 191.152337 
L 105.281595 184.962671 
L 113.829525 191.152337 
L 122.377455 191.152337 
L 130.925385 191.152337 
L 139.473315 191.152337 
L 148.021245 191.152337 
L 156.569175 191.152337 
L 165.117105 191.152337 
L 173.665035 184.962671 
L 182.212965 191.152337 
" clip-path="url(#pfe11a05063)" style="fill: none; stroke: #000000; stroke-opacity: 0.727273; stroke-width: 1.5; stroke-linecap: square"/>
   </g>
  </g>
  <g id="axes_14">
   <g id="FillBetweenPolyCollection_13">
    <defs>
     <path id="m628a29886e" d="M 3.619622 -134.843459 
L 3.619622 -134.843459 
L 11.653538 -134.843459 
L 19.687454 -134.843459 
L 27.72137 -134.843459 
L 35.755287 -134.843459 
L 43.789203 -134.843459 
L 51.823119 -134.843459 
L 59.857036 -134.843459 
L 67.890952 -134.843459 
L 75.924868 -134.843459 
L 83.958784 -134.843459 
L 91.992701 -134.843459 
L 100.026617 -134.843459 
L 108.060533 -134.843459 
L 116.094449 -134.843459 
L 124.128366 -134.843459 
L 132.162282 -134.843459 
L 140.196198 -134.843459 
L 148.230115 -134.843459 
L 156.264031 -134.843459 
L 164.297947 -134.843459 
L 172.331863 -134.843459 
L 172.331863 -134.843459 
L 172.331863 -134.843459 
L 164.297947 -141.033124 
L 156.264031 -134.843459 
L 148.230115 -134.843459 
L 140.196198 -134.843459 
L 132.162282 -134.843459 
L 124.128366 -134.843459 
L 116.094449 -141.033124 
L 108.060533 -134.843459 
L 100.026617 -134.843459 
L 91.992701 -134.843459 
L 83.958784 -141.033124 
L 75.924868 -134.843459 
L 67.890952 -141.033124 
L 59.857036 -141.033124 
L 51.823119 -147.222789 
L 43.789203 -141.033124 
L 35.755287 -159.60212 
L 27.72137 -159.60212 
L 19.687454 -141.033124 
L 11.653538 -141.033124 
L 3.619622 -134.843459 
z
" style="stroke: #d10214; stroke-opacity: 0.754545"/>
    </defs>
    <g clip-path="url(#p038b9dbee7)">
     <use xlink:href="#m628a29886e" x="0" y="337.40125" style="fill: #d10214; fill-opacity: 0.754545; stroke: #d10214; stroke-opacity: 0.754545"/>
    </g>
   </g>
   <g id="line2d_31">
    <path d="M 3.619622 202.557791 
L 11.653538 202.557791 
L 19.687454 202.557791 
L 27.72137 202.557791 
L 35.755287 202.557791 
L 43.789203 202.557791 
L 51.823119 202.557791 
L 59.857036 202.557791 
L 67.890952 202.557791 
L 75.924868 202.557791 
L 83.958784 202.557791 
L 91.992701 202.557791 
L 100.026617 202.557791 
L 108.060533 202.557791 
L 116.094449 202.557791 
L 124.128366 202.557791 
L 132.162282 202.557791 
L 140.196198 202.557791 
L 148.230115 202.557791 
L 156.264031 202.557791 
L 164.297947 202.557791 
L 172.331863 202.557791 
" clip-path="url(#p038b9dbee7)" style="fill: none; stroke: #d10214; stroke-opacity: 0.754545; stroke-width: 1.5; stroke-linecap: square"/>
   </g>
   <g id="line2d_32">
    <path d="M 3.619622 202.557791 
L 11.653538 196.368126 
L 19.687454 196.368126 
L 27.72137 177.79913 
L 35.755287 177.79913 
L 43.789203 196.368126 
L 51.823119 190.178461 
L 59.857036 196.368126 
L 67.890952 196.368126 
L 75.924868 202.557791 
L 83.958784 196.368126 
L 91.992701 202.557791 
L 100.026617 202.557791 
L 108.060533 202.557791 
L 116.094449 196.368126 
L 124.128366 202.557791 
L 132.162282 202.557791 
L 140.196198 202.557791 
L 148.230115 202.557791 
L 156.264031 202.557791 
L 164.297947 196.368126 
L 172.331863 202.557791 
" clip-path="url(#p038b9dbee7)" style="fill: none; stroke: #000000; stroke-opacity: 0.754545; stroke-width: 1.5; stroke-linecap: square"/>
   </g>
  </g>
  <g id="axes_15">
   <g id="FillBetweenPolyCollection_14">
    <defs>
     <path id="m285a474105" d="M 9.367053 -123.438004 
L 9.367053 -123.438004 
L 20.588363 -123.438004 
L 31.809674 -123.438004 
L 43.030984 -123.438004 
L 54.252295 -123.438004 
L 65.473605 -123.438004 
L 76.694915 -123.438004 
L 87.916226 -123.438004 
L 99.137536 -123.438004 
L 110.358847 -123.438004 
L 121.580157 -123.438004 
L 132.801468 -123.438004 
L 144.022778 -123.438004 
L 155.244089 -123.438004 
L 166.465399 -123.438004 
L 177.68671 -123.438004 
L 188.90802 -123.438004 
L 200.12933 -123.438004 
L 211.350641 -123.438004 
L 222.571951 -123.438004 
L 233.793262 -123.438004 
L 245.014572 -123.438004 
L 245.014572 -123.438004 
L 245.014572 -123.438004 
L 233.793262 -129.62767 
L 222.571951 -123.438004 
L 211.350641 -123.438004 
L 200.12933 -123.438004 
L 188.90802 -123.438004 
L 177.68671 -123.438004 
L 166.465399 -129.62767 
L 155.244089 -123.438004 
L 144.022778 -123.438004 
L 132.801468 -123.438004 
L 121.580157 -123.438004 
L 110.358847 -135.817335 
L 99.137536 -123.438004 
L 87.916226 -129.62767 
L 76.694915 -123.438004 
L 65.473605 -135.817335 
L 54.252295 -123.438004 
L 43.030984 -148.196665 
L 31.809674 -160.575996 
L 20.588363 -129.62767 
L 9.367053 -123.438004 
z
" style="stroke: #d10214; stroke-opacity: 0.781818"/>
    </defs>
    <g clip-path="url(#p939a4ee483)">
     <use xlink:href="#m285a474105" x="0" y="337.40125" style="fill: #d10214; fill-opacity: 0.781818; stroke: #d10214; stroke-opacity: 0.781818"/>
    </g>
   </g>
   <g id="line2d_33">
    <path d="M 9.367053 213.963246 
L 20.588363 213.963246 
L 31.809674 213.963246 
L 43.030984 213.963246 
L 54.252295 213.963246 
L 65.473605 213.963246 
L 76.694915 213.963246 
L 87.916226 213.963246 
L 99.137536 213.963246 
L 110.358847 213.963246 
L 121.580157 213.963246 
L 132.801468 213.963246 
L 144.022778 213.963246 
L 155.244089 213.963246 
L 166.465399 213.963246 
L 177.68671 213.963246 
L 188.90802 213.963246 
L 200.12933 213.963246 
L 211.350641 213.963246 
L 222.571951 213.963246 
L 233.793262 213.963246 
L 245.014572 213.963246 
" clip-path="url(#p939a4ee483)" style="fill: none; stroke: #d10214; stroke-opacity: 0.781818; stroke-width: 1.5; stroke-linecap: square"/>
   </g>
   <g id="line2d_34">
    <path d="M 9.367053 213.963246 
L 20.588363 207.77358 
L 31.809674 176.825254 
L 43.030984 189.204585 
L 54.252295 213.963246 
L 65.473605 201.583915 
L 76.694915 213.963246 
L 87.916226 207.77358 
L 99.137536 213.963246 
L 110.358847 201.583915 
L 121.580157 213.963246 
L 132.801468 213.963246 
L 144.022778 213.963246 
L 155.244089 213.963246 
L 166.465399 207.77358 
L 177.68671 213.963246 
L 188.90802 213.963246 
L 200.12933 213.963246 
L 211.350641 213.963246 
L 222.571951 213.963246 
L 233.793262 207.77358 
L 245.014572 213.963246 
" clip-path="url(#p939a4ee483)" style="fill: none; stroke: #000000; stroke-opacity: 0.781818; stroke-width: 1.5; stroke-linecap: square"/>
   </g>
  </g>
  <g id="axes_16">
   <g id="FillBetweenPolyCollection_15">
    <defs>
     <path id="m74d63424bf" d="M 7.549763 -112.03255 
L 7.549763 -112.03255 
L 18.487041 -112.03255 
L 29.424319 -112.03255 
L 40.361596 -112.03255 
L 51.298874 -112.03255 
L 62.236152 -112.03255 
L 73.17343 -112.03255 
L 84.110708 -112.03255 
L 95.047985 -112.03255 
L 105.985263 -112.03255 
L 116.922541 -112.03255 
L 127.859819 -112.03255 
L 138.797097 -112.03255 
L 149.734375 -112.03255 
L 160.671652 -112.03255 
L 171.60893 -112.03255 
L 182.546208 -112.03255 
L 193.483486 -112.03255 
L 204.420764 -112.03255 
L 215.358041 -112.03255 
L 226.295319 -112.03255 
L 237.232597 -112.03255 
L 237.232597 -112.03255 
L 237.232597 -112.03255 
L 226.295319 -118.222215 
L 215.358041 -112.03255 
L 204.420764 -112.03255 
L 193.483486 -112.03255 
L 182.546208 -118.222215 
L 171.60893 -112.03255 
L 160.671652 -112.03255 
L 149.734375 -112.03255 
L 138.797097 -118.222215 
L 127.859819 -118.222215 
L 116.922541 -112.03255 
L 105.985263 -112.03255 
L 95.047985 -124.41188 
L 84.110708 -118.222215 
L 73.17343 -124.41188 
L 62.236152 -118.222215 
L 51.298874 -130.601546 
L 40.361596 -124.41188 
L 29.424319 -124.41188 
L 18.487041 -118.222215 
L 7.549763 -112.03255 
z
" style="stroke: #d10214; stroke-opacity: 0.809091"/>
    </defs>
    <g clip-path="url(#p31650eecb8)">
     <use xlink:href="#m74d63424bf" x="0" y="337.40125" style="fill: #d10214; fill-opacity: 0.809091; stroke: #d10214; stroke-opacity: 0.809091"/>
    </g>
   </g>
   <g id="line2d_35">
    <path d="M 7.549763 225.3687 
L 18.487041 225.3687 
L 29.424319 225.3687 
L 40.361596 225.3687 
L 51.298874 225.3687 
L 62.236152 225.3687 
L 73.17343 225.3687 
L 84.110708 225.3687 
L 95.047985 225.3687 
L 105.985263 225.3687 
L 116.922541 225.3687 
L 127.859819 225.3687 
L 138.797097 225.3687 
L 149.734375 225.3687 
L 160.671652 225.3687 
L 171.60893 225.3687 
L 182.546208 225.3687 
L 193.483486 225.3687 
L 204.420764 225.3687 
L 215.358041 225.3687 
L 226.295319 225.3687 
L 237.232597 225.3687 
" clip-path="url(#p31650eecb8)" style="fill: none; stroke: #d10214; stroke-opacity: 0.809091; stroke-width: 1.5; stroke-linecap: square"/>
   </g>
   <g id="line2d_36">
    <path d="M 7.549763 225.3687 
L 18.487041 219.179035 
L 29.424319 212.98937 
L 40.361596 212.98937 
L 51.298874 206.799704 
L 62.236152 219.179035 
L 73.17343 212.98937 
L 84.110708 219.179035 
L 95.047985 212.98937 
L 105.985263 225.3687 
L 116.922541 225.3687 
L 127.859819 219.179035 
L 138.797097 219.179035 
L 149.734375 225.3687 
L 160.671652 225.3687 
L 171.60893 225.3687 
L 182.546208 219.179035 
L 193.483486 225.3687 
L 204.420764 225.3687 
L 215.358041 225.3687 
L 226.295319 219.179035 
L 237.232597 225.3687 
" clip-path="url(#p31650eecb8)" style="fill: none; stroke: #000000; stroke-opacity: 0.809091; stroke-width: 1.5; stroke-linecap: square"/>
   </g>
  </g>
  <g id="axes_17">
   <g id="FillBetweenPolyCollection_16">
    <defs>
     <path id="mc006c48414" d="M 0.191666 -100.627095 
L 0.191666 -100.627095 
L 11.397704 -100.627095 
L 22.603742 -100.627095 
L 33.80978 -100.627095 
L 45.015819 -100.627095 
L 56.221857 -100.627095 
L 67.427895 -100.627095 
L 78.633934 -100.627095 
L 89.839972 -100.627095 
L 101.04601 -100.627095 
L 112.252048 -100.627095 
L 123.458087 -100.627095 
L 134.664125 -100.627095 
L 145.870163 -100.627095 
L 157.076201 -100.627095 
L 168.28224 -100.627095 
L 179.488278 -100.627095 
L 190.694316 -100.627095 
L 201.900355 -100.627095 
L 213.106393 -100.627095 
L 224.312431 -100.627095 
L 235.518469 -100.627095 
L 235.518469 -100.627095 
L 235.518469 -100.627095 
L 224.312431 -106.81676 
L 213.106393 -100.627095 
L 201.900355 -100.627095 
L 190.694316 -106.81676 
L 179.488278 -100.627095 
L 168.28224 -106.81676 
L 157.076201 -100.627095 
L 145.870163 -100.627095 
L 134.664125 -100.627095 
L 123.458087 -100.627095 
L 112.252048 -106.81676 
L 101.04601 -100.627095 
L 89.839972 -100.627095 
L 78.633934 -106.81676 
L 67.427895 -131.575421 
L 56.221857 -100.627095 
L 45.015819 -119.196091 
L 33.80978 -113.006426 
L 22.603742 -113.006426 
L 11.397704 -106.81676 
L 0.191666 -100.627095 
z
" style="stroke: #d10214; stroke-opacity: 0.836364"/>
    </defs>
    <g clip-path="url(#pe3d5303ac4)">
     <use xlink:href="#mc006c48414" x="0" y="337.40125" style="fill: #d10214; fill-opacity: 0.836364; stroke: #d10214; stroke-opacity: 0.836364"/>
    </g>
   </g>
   <g id="line2d_37">
    <path d="M 0.191666 236.774155 
L 11.397704 236.774155 
L 22.603742 236.774155 
L 33.80978 236.774155 
L 45.015819 236.774155 
L 56.221857 236.774155 
L 67.427895 236.774155 
L 78.633934 236.774155 
L 89.839972 236.774155 
L 101.04601 236.774155 
L 112.252048 236.774155 
L 123.458087 236.774155 
L 134.664125 236.774155 
L 145.870163 236.774155 
L 157.076201 236.774155 
L 168.28224 236.774155 
L 179.488278 236.774155 
L 190.694316 236.774155 
L 201.900355 236.774155 
L 213.106393 236.774155 
L 224.312431 236.774155 
L 235.518469 236.774155 
" clip-path="url(#pe3d5303ac4)" style="fill: none; stroke: #d10214; stroke-opacity: 0.836364; stroke-width: 1.5; stroke-linecap: square"/>
   </g>
   <g id="line2d_38">
    <path d="M 0.191666 236.774155 
L 11.397704 230.58449 
L 22.603742 224.394824 
L 33.80978 224.394824 
L 45.015819 218.205159 
L 56.221857 236.774155 
L 67.427895 205.825829 
L 78.633934 230.58449 
L 89.839972 236.774155 
L 101.04601 236.774155 
L 112.252048 230.58449 
L 123.458087 236.774155 
L 134.664125 236.774155 
L 145.870163 236.774155 
L 157.076201 236.774155 
L 168.28224 230.58449 
L 179.488278 236.774155 
L 190.694316 230.58449 
L 201.900355 236.774155 
L 213.106393 236.774155 
L 224.312431 230.58449 
L 235.518469 236.774155 
" clip-path="url(#pe3d5303ac4)" style="fill: none; stroke: #000000; stroke-opacity: 0.836364; stroke-width: 1.5; stroke-linecap: square"/>
   </g>
  </g>
  <g id="axes_18">
   <g id="FillBetweenPolyCollection_17">
    <defs>
     <path id="m17a2ab2a62" d="M 6.77153 -89.221641 
L 6.77153 -89.221641 
L 18.772171 -89.221641 
L 30.772812 -89.221641 
L 42.773453 -89.221641 
L 54.774094 -89.221641 
L 66.774735 -89.221641 
L 78.775376 -89.221641 
L 90.776017 -89.221641 
L 102.776658 -89.221641 
L 114.777299 -89.221641 
L 126.77794 -89.221641 
L 138.77858 -89.221641 
L 150.779221 -89.221641 
L 162.779862 -89.221641 
L 174.780503 -89.221641 
L 186.781144 -89.221641 
L 198.781785 -89.221641 
L 210.782426 -89.221641 
L 222.783067 -89.221641 
L 234.783708 -89.221641 
L 246.784349 -89.221641 
L 258.78499 -89.221641 
L 258.78499 -89.221641 
L 258.78499 -89.221641 
L 246.784349 -95.411306 
L 234.783708 -89.221641 
L 222.783067 -89.221641 
L 210.782426 -89.221641 
L 198.781785 -89.221641 
L 186.781144 -89.221641 
L 174.780503 -95.411306 
L 162.779862 -95.411306 
L 150.779221 -89.221641 
L 138.77858 -89.221641 
L 126.77794 -89.221641 
L 114.777299 -95.411306 
L 102.776658 -89.221641 
L 90.776017 -95.411306 
L 78.775376 -101.600971 
L 66.774735 -101.600971 
L 54.774094 -101.600971 
L 42.773453 -113.980302 
L 30.772812 -101.600971 
L 18.772171 -95.411306 
L 6.77153 -89.221641 
z
" style="stroke: #d10214; stroke-opacity: 0.863636"/>
    </defs>
    <g clip-path="url(#pdf3827e023)">
     <use xlink:href="#m17a2ab2a62" x="0" y="337.40125" style="fill: #d10214; fill-opacity: 0.863636; stroke: #d10214; stroke-opacity: 0.863636"/>
    </g>
   </g>
   <g id="line2d_39">
    <path d="M 6.77153 248.179609 
L 18.772171 248.179609 
L 30.772812 248.179609 
L 42.773453 248.179609 
L 54.774094 248.179609 
L 66.774735 248.179609 
L 78.775376 248.179609 
L 90.776017 248.179609 
L 102.776658 248.179609 
L 114.777299 248.179609 
L 126.77794 248.179609 
L 138.77858 248.179609 
L 150.779221 248.179609 
L 162.779862 248.179609 
L 174.780503 248.179609 
L 186.781144 248.179609 
L 198.781785 248.179609 
L 210.782426 248.179609 
L 222.783067 248.179609 
L 234.783708 248.179609 
L 246.784349 248.179609 
L 258.78499 248.179609 
" clip-path="url(#pdf3827e023)" style="fill: none; stroke: #d10214; stroke-opacity: 0.863636; stroke-width: 1.5; stroke-linecap: square"/>
   </g>
   <g id="line2d_40">
    <path d="M 6.77153 248.179609 
L 18.772171 241.989944 
L 30.772812 235.800279 
L 42.773453 223.420948 
L 54.774094 235.800279 
L 66.774735 235.800279 
L 78.775376 235.800279 
L 90.776017 241.989944 
L 102.776658 248.179609 
L 114.777299 241.989944 
L 126.77794 248.179609 
L 138.77858 248.179609 
L 150.779221 248.179609 
L 162.779862 241.989944 
L 174.780503 241.989944 
L 186.781144 248.179609 
L 198.781785 248.179609 
L 210.782426 248.179609 
L 222.783067 248.179609 
L 234.783708 248.179609 
L 246.784349 241.989944 
L 258.78499 248.179609 
" clip-path="url(#pdf3827e023)" style="fill: none; stroke: #000000; stroke-opacity: 0.863636; stroke-width: 1.5; stroke-linecap: square"/>
   </g>
  </g>
  <g id="axes_19">
   <g id="FillBetweenPolyCollection_18">
    <defs>
     <path id="m8b28e58040" d="M 2.302571 -77.816186 
L 2.302571 -77.816186 
L 13.582724 -77.816186 
L 24.862877 -77.816186 
L 36.14303 -77.816186 
L 47.423184 -77.816186 
L 58.703337 -77.816186 
L 69.98349 -77.816186 
L 81.263644 -77.816186 
L 92.543797 -77.816186 
L 103.82395 -77.816186 
L 115.104103 -77.816186 
L 126.384257 -77.816186 
L 137.66441 -77.816186 
L 148.944563 -77.816186 
L 160.224716 -77.816186 
L 171.50487 -77.816186 
L 182.785023 -77.816186 
L 194.065176 -77.816186 
L 205.34533 -77.816186 
L 216.625483 -77.816186 
L 227.905636 -77.816186 
L 239.185789 -77.816186 
L 239.185789 -77.816186 
L 239.185789 -77.816186 
L 227.905636 -84.005851 
L 216.625483 -77.816186 
L 205.34533 -77.816186 
L 194.065176 -77.816186 
L 182.785023 -77.816186 
L 171.50487 -77.816186 
L 160.224716 -84.005851 
L 148.944563 -84.005851 
L 137.66441 -84.005851 
L 126.384257 -77.816186 
L 115.104103 -77.816186 
L 103.82395 -77.816186 
L 92.543797 -77.816186 
L 81.263644 -84.005851 
L 69.98349 -96.385182 
L 58.703337 -90.195517 
L 47.423184 -90.195517 
L 36.14303 -96.385182 
L 24.862877 -90.195517 
L 13.582724 -84.005851 
L 2.302571 -77.816186 
z
" style="stroke: #d10214; stroke-opacity: 0.890909"/>
    </defs>
    <g clip-path="url(#pe197eefbbb)">
     <use xlink:href="#m8b28e58040" x="0" y="337.40125" style="fill: #d10214; fill-opacity: 0.890909; stroke: #d10214; stroke-opacity: 0.890909"/>
    </g>
   </g>
   <g id="line2d_41">
    <path d="M 2.302571 259.585064 
L 13.582724 259.585064 
L 24.862877 259.585064 
L 36.14303 259.585064 
L 47.423184 259.585064 
L 58.703337 259.585064 
L 69.98349 259.585064 
L 81.263644 259.585064 
L 92.543797 259.585064 
L 103.82395 259.585064 
L 115.104103 259.585064 
L 126.384257 259.585064 
L 137.66441 259.585064 
L 148.944563 259.585064 
L 160.224716 259.585064 
L 171.50487 259.585064 
L 182.785023 259.585064 
L 194.065176 259.585064 
L 205.34533 259.585064 
L 216.625483 259.585064 
L 227.905636 259.585064 
L 239.185789 259.585064 
" clip-path="url(#pe197eefbbb)" style="fill: none; stroke: #d10214; stroke-opacity: 0.890909; stroke-width: 1.5; stroke-linecap: square"/>
   </g>
   <g id="line2d_42">
    <path d="M 2.302571 259.585064 
L 13.582724 253.395399 
L 24.862877 247.205733 
L 36.14303 241.016068 
L 47.423184 247.205733 
L 58.703337 247.205733 
L 69.98349 241.016068 
L 81.263644 253.395399 
L 92.543797 259.585064 
L 103.82395 259.585064 
L 115.104103 259.585064 
L 126.384257 259.585064 
L 137.66441 253.395399 
L 148.944563 253.395399 
L 160.224716 253.395399 
L 171.50487 259.585064 
L 182.785023 259.585064 
L 194.065176 259.585064 
L 205.34533 259.585064 
L 216.625483 259.585064 
L 227.905636 253.395399 
L 239.185789 259.585064 
" clip-path="url(#pe197eefbbb)" style="fill: none; stroke: #000000; stroke-opacity: 0.890909; stroke-width: 1.5; stroke-linecap: square"/>
   </g>
  </g>
  <g id="axes_20">
   <g id="FillBetweenPolyCollection_19">
    <defs>
     <path id="m565bc9b7b1" d="M 4.068205 -66.410732 
L 4.068205 -66.410732 
L 17.472539 -66.410732 
L 30.876873 -66.410732 
L 44.281207 -66.410732 
L 57.685541 -66.410732 
L 71.089875 -66.410732 
L 84.494209 -66.410732 
L 97.898543 -66.410732 
L 111.302877 -66.410732 
L 124.707211 -66.410732 
L 138.111545 -66.410732 
L 151.51588 -66.410732 
L 164.920214 -66.410732 
L 178.324548 -66.410732 
L 191.728882 -66.410732 
L 205.133216 -66.410732 
L 218.53755 -66.410732 
L 231.941884 -66.410732 
L 245.346218 -66.410732 
L 258.750552 -66.410732 
L 272.154886 -66.410732 
L 285.55922 -66.410732 
L 285.55922 -66.410732 
L 285.55922 -66.410732 
L 272.154886 -72.600397 
L 258.750552 -66.410732 
L 245.346218 -66.410732 
L 231.941884 -66.410732 
L 218.53755 -66.410732 
L 205.133216 -66.410732 
L 191.728882 -66.410732 
L 178.324548 -66.410732 
L 164.920214 -72.600397 
L 151.51588 -66.410732 
L 138.111545 -78.790062 
L 124.707211 -66.410732 
L 111.302877 -66.410732 
L 97.898543 -72.600397 
L 84.494209 -66.410732 
L 71.089875 -78.790062 
L 57.685541 -78.790062 
L 44.281207 -97.359058 
L 30.876873 -84.979727 
L 17.472539 -72.600397 
L 4.068205 -66.410732 
z
" style="stroke: #d10214; stroke-opacity: 0.918182"/>
    </defs>
    <g clip-path="url(#pe009d065db)">
     <use xlink:href="#m565bc9b7b1" x="0" y="337.40125" style="fill: #d10214; fill-opacity: 0.918182; stroke: #d10214; stroke-opacity: 0.918182"/>
    </g>
   </g>
   <g id="line2d_43">
    <path d="M 4.068205 270.990518 
L 17.472539 270.990518 
L 30.876873 270.990518 
L 44.281207 270.990518 
L 57.685541 270.990518 
L 71.089875 270.990518 
L 84.494209 270.990518 
L 97.898543 270.990518 
L 111.302877 270.990518 
L 124.707211 270.990518 
L 138.111545 270.990518 
L 151.51588 270.990518 
L 164.920214 270.990518 
L 178.324548 270.990518 
L 191.728882 270.990518 
L 205.133216 270.990518 
L 218.53755 270.990518 
L 231.941884 270.990518 
L 245.346218 270.990518 
L 258.750552 270.990518 
L 272.154886 270.990518 
L 285.55922 270.990518 
" clip-path="url(#pe009d065db)" style="fill: none; stroke: #d10214; stroke-opacity: 0.918182; stroke-width: 1.5; stroke-linecap: square"/>
   </g>
   <g id="line2d_44">
    <path d="M 4.068205 270.990518 
L 17.472539 264.800853 
L 30.876873 252.421523 
L 44.281207 240.042192 
L 57.685541 258.611188 
L 71.089875 258.611188 
L 84.494209 270.990518 
L 97.898543 264.800853 
L 111.302877 270.990518 
L 124.707211 270.990518 
L 138.111545 258.611188 
L 151.51588 270.990518 
L 164.920214 264.800853 
L 178.324548 270.990518 
L 191.728882 270.990518 
L 205.133216 270.990518 
L 218.53755 270.990518 
L 231.941884 270.990518 
L 245.346218 270.990518 
L 258.750552 270.990518 
L 272.154886 264.800853 
L 285.55922 270.990518 
" clip-path="url(#pe009d065db)" style="fill: none; stroke: #000000; stroke-opacity: 0.918182; stroke-width: 1.5; stroke-linecap: square"/>
   </g>
  </g>
  <g id="axes_21">
   <g id="FillBetweenPolyCollection_20">
    <defs>
     <path id="ma4e17c978e" d="M -0.672161 -55.005277 
L -0.672161 -55.005277 
L 13.199322 -55.005277 
L 27.070805 -55.005277 
L 40.942289 -55.005277 
L 54.813772 -55.005277 
L 68.685255 -55.005277 
L 82.556738 -55.005277 
L 96.428221 -55.005277 
L 110.299705 -55.005277 
L 124.171188 -55.005277 
L 138.042671 -55.005277 
L 151.914154 -55.005277 
L 165.785637 -55.005277 
L 179.65712 -55.005277 
L 193.528604 -55.005277 
L 207.400087 -55.005277 
L 221.27157 -55.005277 
L 235.143053 -55.005277 
L 249.014536 -55.005277 
L 262.88602 -55.005277 
L 276.757503 -55.005277 
L 290.628986 -55.005277 
L 290.628986 -55.005277 
L 290.628986 -55.005277 
L 276.757503 -61.194942 
L 262.88602 -55.005277 
L 249.014536 -55.005277 
L 235.143053 -55.005277 
L 221.27157 -55.005277 
L 207.400087 -55.005277 
L 193.528604 -61.194942 
L 179.65712 -55.005277 
L 165.785637 -55.005277 
L 151.914154 -61.194942 
L 138.042671 -61.194942 
L 124.171188 -55.005277 
L 110.299705 -55.005277 
L 96.428221 -67.384608 
L 82.556738 -55.005277 
L 68.685255 -61.194942 
L 54.813772 -79.763938 
L 40.942289 -73.574273 
L 27.070805 -73.574273 
L 13.199322 -61.194942 
L -0.672161 -55.005277 
z
" style="stroke: #d10214; stroke-opacity: 0.945455"/>
    </defs>
    <g clip-path="url(#p9453861b5b)">
     <use xlink:href="#ma4e17c978e" x="0" y="337.40125" style="fill: #d10214; fill-opacity: 0.945455; stroke: #d10214; stroke-opacity: 0.945455"/>
    </g>
   </g>
   <g id="line2d_45">
    <path d="M -0.672161 282.395973 
L 13.199322 282.395973 
L 27.070805 282.395973 
L 40.942289 282.395973 
L 54.813772 282.395973 
L 68.685255 282.395973 
L 82.556738 282.395973 
L 96.428221 282.395973 
L 110.299705 282.395973 
L 124.171188 282.395973 
L 138.042671 282.395973 
L 151.914154 282.395973 
L 165.785637 282.395973 
L 179.65712 282.395973 
L 193.528604 282.395973 
L 207.400087 282.395973 
L 221.27157 282.395973 
L 235.143053 282.395973 
L 249.014536 282.395973 
L 262.88602 282.395973 
L 276.757503 282.395973 
L 290.628986 282.395973 
" clip-path="url(#p9453861b5b)" style="fill: none; stroke: #d10214; stroke-opacity: 0.945455; stroke-width: 1.5; stroke-linecap: square"/>
   </g>
   <g id="line2d_46">
    <path d="M -0.672161 282.395973 
L 13.199322 276.206308 
L 27.070805 263.826977 
L 40.942289 263.826977 
L 54.813772 257.637312 
L 68.685255 276.206308 
L 82.556738 282.395973 
L 96.428221 270.016642 
L 110.299705 282.395973 
L 124.171188 282.395973 
L 138.042671 276.206308 
L 151.914154 276.206308 
L 165.785637 282.395973 
L 179.65712 282.395973 
L 193.528604 276.206308 
L 207.400087 282.395973 
L 221.27157 282.395973 
L 235.143053 282.395973 
L 249.014536 282.395973 
L 262.88602 282.395973 
L 276.757503 276.206308 
L 290.628986 282.395973 
" clip-path="url(#p9453861b5b)" style="fill: none; stroke: #000000; stroke-opacity: 0.945455; stroke-width: 1.5; stroke-linecap: square"/>
   </g>
  </g>
  <g id="axes_22">
   <g id="FillBetweenPolyCollection_21">
    <defs>
     <path id="mf8ec1f864f" d="M 2.041746 -43.599823 
L 2.041746 -43.599823 
L 15.613325 -43.599823 
L 29.184905 -43.599823 
L 42.756484 -43.599823 
L 56.328064 -43.599823 
L 69.899643 -43.599823 
L 83.471222 -43.599823 
L 97.042802 -43.599823 
L 110.614381 -43.599823 
L 124.185961 -43.599823 
L 137.75754 -43.599823 
L 151.32912 -43.599823 
L 164.900699 -43.599823 
L 178.472279 -43.599823 
L 192.043858 -43.599823 
L 205.615438 -43.599823 
L 219.187017 -43.599823 
L 232.758596 -43.599823 
L 246.330176 -43.599823 
L 259.901755 -43.599823 
L 273.473335 -43.599823 
L 287.044914 -43.599823 
L 287.044914 -43.599823 
L 287.044914 -43.599823 
L 273.473335 -49.789488 
L 259.901755 -43.599823 
L 246.330176 -43.599823 
L 232.758596 -43.599823 
L 219.187017 -43.599823 
L 205.615438 -43.599823 
L 192.043858 -43.599823 
L 178.472279 -49.789488 
L 164.900699 -43.599823 
L 151.32912 -55.979153 
L 137.75754 -43.599823 
L 124.185961 -49.789488 
L 110.614381 -49.789488 
L 97.042802 -43.599823 
L 83.471222 -49.789488 
L 69.899643 -43.599823 
L 56.328064 -74.548149 
L 42.756484 -55.979153 
L 29.184905 -62.168818 
L 15.613325 -49.789488 
L 2.041746 -43.599823 
z
" style="stroke: #d10214; stroke-opacity: 0.972727"/>
    </defs>
    <g clip-path="url(#p0c42f3f9fe)">
     <use xlink:href="#mf8ec1f864f" x="0" y="337.40125" style="fill: #d10214; fill-opacity: 0.972727; stroke: #d10214; stroke-opacity: 0.972727"/>
    </g>
   </g>
   <g id="line2d_47">
    <path d="M 2.041746 293.801427 
L 15.613325 293.801427 
L 29.184905 293.801427 
L 42.756484 293.801427 
L 56.328064 293.801427 
L 69.899643 293.801427 
L 83.471222 293.801427 
L 97.042802 293.801427 
L 110.614381 293.801427 
L 124.185961 293.801427 
L 137.75754 293.801427 
L 151.32912 293.801427 
L 164.900699 293.801427 
L 178.472279 293.801427 
L 192.043858 293.801427 
L 205.615438 293.801427 
L 219.187017 293.801427 
L 232.758596 293.801427 
L 246.330176 293.801427 
L 259.901755 293.801427 
L 273.473335 293.801427 
L 287.044914 293.801427 
" clip-path="url(#p0c42f3f9fe)" style="fill: none; stroke: #d10214; stroke-opacity: 0.972727; stroke-width: 1.5; stroke-linecap: square"/>
   </g>
   <g id="line2d_48">
    <path d="M 2.041746 293.801427 
L 15.613325 287.611762 
L 29.184905 275.232432 
L 42.756484 281.422097 
L 56.328064 262.853101 
L 69.899643 293.801427 
L 83.471222 287.611762 
L 97.042802 293.801427 
L 110.614381 287.611762 
L 124.185961 287.611762 
L 137.75754 293.801427 
L 151.32912 281.422097 
L 164.900699 293.801427 
L 178.472279 287.611762 
L 192.043858 293.801427 
L 205.615438 293.801427 
L 219.187017 293.801427 
L 232.758596 293.801427 
L 246.330176 293.801427 
L 259.901755 293.801427 
L 273.473335 287.611762 
L 287.044914 293.801427 
" clip-path="url(#p0c42f3f9fe)" style="fill: none; stroke: #000000; stroke-opacity: 0.972727; stroke-width: 1.5; stroke-linecap: square"/>
   </g>
  </g>
  <g id="axes_23">
   <g id="FillBetweenPolyCollection_22">
    <defs>
     <path id="m8446f29d41" d="M 4.92714 -32.194368 
L 4.92714 -32.194368 
L 18.325485 -32.194368 
L 31.72383 -32.194368 
L 45.122175 -32.194368 
L 58.52052 -32.194368 
L 71.918865 -32.194368 
L 85.31721 -32.194368 
L 98.715555 -32.194368 
L 112.1139 -32.194368 
L 125.512245 -32.194368 
L 138.91059 -32.194368 
L 152.308935 -32.194368 
L 165.70728 -32.194368 
L 179.105625 -32.194368 
L 192.50397 -32.194368 
L 205.902315 -32.194368 
L 219.30066 -32.194368 
L 232.699005 -32.194368 
L 246.09735 -32.194368 
L 259.495695 -32.194368 
L 272.89404 -32.194368 
L 286.292385 -32.194368 
L 286.292385 -32.194368 
L 286.292385 -32.194368 
L 272.89404 -38.384033 
L 259.495695 -32.194368 
L 246.09735 -32.194368 
L 232.699005 -32.194368 
L 219.30066 -32.194368 
L 205.902315 -32.194368 
L 192.50397 -32.194368 
L 179.105625 -32.194368 
L 165.70728 -32.194368 
L 152.308935 -32.194368 
L 138.91059 -38.384033 
L 125.512245 -38.384033 
L 112.1139 -44.573698 
L 98.715555 -38.384033 
L 85.31721 -32.194368 
L 71.918865 -38.384033 
L 58.52052 -50.763364 
L 45.122175 -56.953029 
L 31.72383 -44.573698 
L 18.325485 -44.573698 
L 4.92714 -32.194368 
z
" style="stroke: #d10214"/>
    </defs>
    <g clip-path="url(#p7785e92378)">
     <use xlink:href="#m8446f29d41" x="0" y="337.40125" style="fill: #d10214; stroke: #d10214"/>
    </g>
   </g>
   <g id="line2d_49">
    <path d="M 4.92714 305.206882 
L 18.325485 305.206882 
L 31.72383 305.206882 
L 45.122175 305.206882 
L 58.52052 305.206882 
L 71.918865 305.206882 
L 85.31721 305.206882 
L 98.715555 305.206882 
L 112.1139 305.206882 
L 125.512245 305.206882 
L 138.91059 305.206882 
L 152.308935 305.206882 
L 165.70728 305.206882 
L 179.105625 305.206882 
L 192.50397 305.206882 
L 205.902315 305.206882 
L 219.30066 305.206882 
L 232.699005 305.206882 
L 246.09735 305.206882 
L 259.495695 305.206882 
L 272.89404 305.206882 
L 286.292385 305.206882 
" clip-path="url(#p7785e92378)" style="fill: none; stroke: #d10214; stroke-width: 1.5; stroke-linecap: square"/>
   </g>
   <g id="line2d_50">
    <path d="M 4.92714 305.206882 
L 18.325485 292.827552 
L 31.72383 292.827552 
L 45.122175 280.448221 
L 58.52052 286.637886 
L 71.918865 299.017217 
L 85.31721 305.206882 
L 98.715555 299.017217 
L 112.1139 292.827552 
L 125.512245 299.017217 
L 138.91059 299.017217 
L 152.308935 305.206882 
L 165.70728 305.206882 
L 179.105625 305.206882 
L 192.50397 305.206882 
L 205.902315 305.206882 
L 219.30066 305.206882 
L 232.699005 305.206882 
L 246.09735 305.206882 
L 259.495695 305.206882 
L 272.89404 299.017217 
L 286.292385 305.206882 
" clip-path="url(#p7785e92378)" style="fill: none; stroke: #000000; stroke-width: 1.5; stroke-linecap: square"/>
   </g>
  </g>
  <g id="text_7">
   <!-- Bundesliga -->
   <g style="fill: #d10214" transform="translate(226.8 100.08) scale(0.18 -0.18)">
    <defs>
     <path id="Lato-Regular-75" d="M 960 3242 
L 960 1174 
Q 960 806 1129 604 
Q 1299 403 1642 403 
Q 1891 403 2112 521 
Q 2333 640 2518 851 
L 2518 3242 
L 3088 3242 
L 3088 0 
L 2749 0 
Q 2627 0 2595 118 
L 2550 467 
Q 2339 234 2076 91 
Q 1814 -51 1475 -51 
Q 1210 -51 1006 37 
Q 803 125 665 285 
Q 528 445 459 672 
Q 390 899 390 1174 
L 390 3242 
L 960 3242 
z
" transform="scale(0.015625)"/>
     <path id="Lato-Regular-6e" d="M 467 0 
L 467 3242 
L 806 3242 
Q 928 3242 960 3123 
L 1005 2771 
Q 1216 3005 1477 3149 
Q 1738 3293 2080 3293 
Q 2346 3293 2549 3205 
Q 2752 3117 2888 2955 
Q 3024 2794 3094 2566 
Q 3165 2339 3165 2064 
L 3165 0 
L 2595 0 
L 2595 2064 
Q 2595 2432 2427 2635 
Q 2259 2838 1914 2838 
Q 1661 2838 1441 2716 
Q 1222 2595 1037 2387 
L 1037 0 
L 467 0 
z
" transform="scale(0.015625)"/>
     <path id="Lato-Regular-64" d="M 2749 0 
Q 2627 0 2595 118 
L 2544 512 
Q 2336 259 2069 107 
Q 1802 -45 1456 -45 
Q 1178 -45 950 62 
Q 723 170 563 378 
Q 403 586 316 896 
Q 230 1206 230 1610 
Q 230 1968 326 2277 
Q 422 2586 603 2813 
Q 784 3040 1043 3169 
Q 1302 3299 1632 3299 
Q 1930 3299 2141 3198 
Q 2352 3098 2518 2915 
L 2518 4714 
L 3088 4714 
L 3088 0 
L 2749 0 
z
M 1645 416 
Q 1923 416 2132 544 
Q 2342 672 2518 906 
L 2518 2474 
Q 2362 2685 2174 2769 
Q 1987 2854 1760 2854 
Q 1306 2854 1062 2531 
Q 819 2208 819 1610 
Q 819 1293 873 1067 
Q 928 842 1033 696 
Q 1139 550 1292 483 
Q 1446 416 1645 416 
z
" transform="scale(0.015625)"/>
     <path id="Lato-Regular-65" d="M 1750 3293 
Q 2042 3293 2288 3195 
Q 2534 3098 2713 2914 
Q 2893 2730 2993 2459 
Q 3094 2189 3094 1843 
Q 3094 1709 3065 1664 
Q 3037 1619 2957 1619 
L 800 1619 
Q 806 1312 883 1085 
Q 960 858 1094 706 
Q 1229 554 1414 478 
Q 1600 403 1830 403 
Q 2045 403 2200 452 
Q 2355 502 2467 560 
Q 2579 618 2654 667 
Q 2730 717 2784 717 
Q 2854 717 2893 662 
L 3053 454 
Q 2947 326 2800 232 
Q 2653 138 2485 77 
Q 2317 16 2137 -14 
Q 1958 -45 1782 -45 
Q 1446 -45 1163 68 
Q 880 182 673 401 
Q 467 621 352 944 
Q 237 1267 237 1686 
Q 237 2026 341 2320 
Q 445 2614 640 2830 
Q 835 3046 1116 3169 
Q 1398 3293 1750 3293 
z
M 1763 2874 
Q 1350 2874 1113 2635 
Q 877 2397 819 1974 
L 2582 1974 
Q 2582 2173 2528 2337 
Q 2474 2502 2368 2622 
Q 2262 2742 2110 2808 
Q 1958 2874 1763 2874 
z
" transform="scale(0.015625)"/>
     <path id="Lato-Regular-73" d="M 2323 2707 
Q 2285 2637 2205 2637 
Q 2157 2637 2096 2672 
Q 2035 2707 1947 2750 
Q 1859 2794 1737 2830 
Q 1616 2867 1450 2867 
Q 1306 2867 1190 2830 
Q 1075 2794 993 2730 
Q 912 2666 869 2581 
Q 826 2496 826 2397 
Q 826 2272 898 2189 
Q 970 2106 1088 2045 
Q 1206 1984 1356 1937 
Q 1507 1891 1665 1838 
Q 1824 1786 1974 1722 
Q 2125 1658 2243 1562 
Q 2362 1466 2434 1326 
Q 2506 1187 2506 992 
Q 2506 768 2426 577 
Q 2346 387 2189 248 
Q 2032 109 1805 29 
Q 1578 -51 1280 -51 
Q 941 -51 665 59 
Q 390 170 198 342 
L 333 560 
Q 358 602 393 624 
Q 429 646 486 646 
Q 544 646 608 601 
Q 672 557 763 502 
Q 854 448 984 403 
Q 1114 358 1309 358 
Q 1475 358 1600 401 
Q 1725 445 1808 518 
Q 1891 592 1931 688 
Q 1971 784 1971 893 
Q 1971 1027 1899 1115 
Q 1827 1203 1708 1265 
Q 1590 1328 1438 1374 
Q 1286 1421 1128 1472 
Q 970 1523 818 1588 
Q 666 1654 547 1753 
Q 429 1853 357 1998 
Q 285 2144 285 2352 
Q 285 2538 361 2709 
Q 438 2880 585 3009 
Q 733 3139 947 3216 
Q 1162 3293 1437 3293 
Q 1757 3293 2011 3192 
Q 2266 3091 2451 2915 
L 2323 2707 
z
" transform="scale(0.015625)"/>
     <path id="Lato-Regular-6c" d="M 1101 4714 
L 1101 0 
L 531 0 
L 531 4714 
L 1101 4714 
z
" transform="scale(0.015625)"/>
     <path id="Lato-Regular-69" d="M 1101 3242 
L 1101 0 
L 531 0 
L 531 3242 
L 1101 3242 
z
M 1229 4259 
Q 1229 4176 1195 4104 
Q 1162 4032 1106 3976 
Q 1050 3920 976 3888 
Q 902 3856 819 3856 
Q 736 3856 664 3888 
Q 592 3920 536 3976 
Q 480 4032 448 4104 
Q 416 4176 416 4259 
Q 416 4342 448 4417 
Q 480 4493 536 4549 
Q 592 4605 664 4637 
Q 736 4669 819 4669 
Q 902 4669 976 4637 
Q 1050 4605 1106 4549 
Q 1162 4493 1195 4417 
Q 1229 4342 1229 4259 
z
" transform="scale(0.015625)"/>
     <path id="Lato-Regular-67" d="M 1558 3296 
Q 1770 3296 1954 3249 
Q 2138 3203 2288 3114 
L 3168 3114 
L 3168 2902 
Q 3168 2797 3034 2768 
L 2666 2717 
Q 2774 2509 2774 2253 
Q 2774 2016 2683 1822 
Q 2592 1629 2430 1491 
Q 2269 1354 2046 1280 
Q 1824 1206 1558 1206 
Q 1331 1206 1130 1261 
Q 1027 1197 974 1123 
Q 922 1050 922 979 
Q 922 864 1014 805 
Q 1107 746 1260 720 
Q 1414 694 1609 688 
Q 1805 682 2008 667 
Q 2211 653 2406 617 
Q 2602 582 2755 502 
Q 2909 422 3001 281 
Q 3094 141 3094 -83 
Q 3094 -291 2990 -486 
Q 2886 -682 2691 -834 
Q 2496 -986 2214 -1077 
Q 1933 -1168 1578 -1168 
Q 1222 -1168 955 -1097 
Q 688 -1027 512 -908 
Q 336 -790 248 -635 
Q 160 -480 160 -310 
Q 160 -70 312 98 
Q 464 266 730 365 
Q 592 429 510 536 
Q 429 643 429 822 
Q 429 893 454 968 
Q 480 1043 533 1116 
Q 586 1190 662 1257 
Q 739 1325 842 1376 
Q 602 1510 466 1732 
Q 330 1955 330 2253 
Q 330 2490 421 2683 
Q 512 2877 675 3013 
Q 838 3149 1064 3222 
Q 1290 3296 1558 3296 
z
M 2570 -176 
Q 2570 -54 2502 19 
Q 2435 93 2320 133 
Q 2205 173 2054 192 
Q 1904 211 1737 219 
Q 1571 227 1398 236 
Q 1226 246 1069 272 
Q 886 186 772 61 
Q 659 -64 659 -237 
Q 659 -346 715 -440 
Q 771 -534 886 -603 
Q 1002 -672 1176 -712 
Q 1350 -752 1587 -752 
Q 1818 -752 2000 -710 
Q 2182 -669 2308 -592 
Q 2435 -515 2502 -409 
Q 2570 -304 2570 -176 
z
M 1558 1584 
Q 1731 1584 1864 1632 
Q 1997 1680 2086 1766 
Q 2176 1853 2221 1973 
Q 2266 2093 2266 2237 
Q 2266 2534 2085 2710 
Q 1904 2886 1558 2886 
Q 1216 2886 1035 2710 
Q 854 2534 854 2237 
Q 854 2093 900 1973 
Q 947 1853 1036 1766 
Q 1126 1680 1257 1632 
Q 1389 1584 1558 1584 
z
" transform="scale(0.015625)"/>
     <path id="Lato-Regular-61" d="M 2848 0 
L 2595 0 
Q 2512 0 2461 25 
Q 2410 51 2394 134 
L 2330 435 
Q 2202 320 2080 229 
Q 1958 138 1824 75 
Q 1690 13 1538 -19 
Q 1386 -51 1200 -51 
Q 1011 -51 846 1 
Q 682 54 560 160 
Q 438 266 366 427 
Q 294 589 294 810 
Q 294 1002 400 1179 
Q 506 1357 741 1494 
Q 976 1632 1357 1720 
Q 1738 1808 2288 1821 
L 2288 2074 
Q 2288 2451 2126 2644 
Q 1965 2838 1648 2838 
Q 1440 2838 1297 2785 
Q 1155 2733 1051 2667 
Q 947 2602 872 2549 
Q 797 2496 723 2496 
Q 666 2496 622 2526 
Q 579 2557 554 2602 
L 451 2784 
Q 720 3043 1030 3171 
Q 1341 3299 1718 3299 
Q 1990 3299 2201 3209 
Q 2413 3120 2557 2960 
Q 2701 2800 2774 2573 
Q 2848 2346 2848 2074 
L 2848 0 
z
M 1370 349 
Q 1520 349 1645 379 
Q 1770 410 1880 466 
Q 1990 522 2091 602 
Q 2192 682 2288 784 
L 2288 1459 
Q 1894 1446 1619 1396 
Q 1344 1347 1171 1267 
Q 998 1187 920 1078 
Q 842 970 842 835 
Q 842 707 883 614 
Q 925 522 995 462 
Q 1066 403 1162 376 
Q 1258 349 1370 349 
z
" transform="scale(0.015625)"/>
    </defs>
    <use xlink:href="#Lato-Regular-42"/>
    <use xlink:href="#Lato-Regular-75" transform="translate(64.700012 0)"/>
    <use xlink:href="#Lato-Regular-6e" transform="translate(120.300018 0)"/>
    <use xlink:href="#Lato-Regular-64" transform="translate(175.900024 0)"/>
    <use xlink:href="#Lato-Regular-65" transform="translate(231.800034 0)"/>
    <use xlink:href="#Lato-Regular-73" transform="translate(284.200043 0)"/>
    <use xlink:href="#Lato-Regular-6c" transform="translate(327.600052 0)"/>
    <use xlink:href="#Lato-Regular-69" transform="translate(353.200058 0)"/>
    <use xlink:href="#Lato-Regular-67" transform="translate(378.800064 0)"/>
    <use xlink:href="#Lato-Regular-61" transform="translate(429.90007 0)"/>
   </g>
  </g>
 </g>
 <defs>
  <clipPath id="p69bc9b55d2">
   <rect x="7.2" y="7.2" width="439.2" height="67.405455"/>
  </clipPath>
  <clipPath id="pd953f0b216">
   <rect x="7.2" y="18.605455" width="439.2" height="67.405455"/>
  </clipPath>
  <clipPath id="pacf68a6e99">
   <rect x="7.2" y="30.010909" width="439.2" height="67.405455"/>
  </clipPath>
  <clipPath id="p53f3c80b71">
   <rect x="7.2" y="41.416364" width="439.2" height="67.405455"/>
  </clipPath>
  <clipPath id="p9ce22bb810">
   <rect x="7.2" y="52.821818" width="439.2" height="67.405455"/>
  </clipPath>
  <clipPath id="p597c523e94">
   <rect x="7.2" y="64.227273" width="439.2" height="67.405455"/>
  </clipPath>
  <clipPath id="pf915bd13ad">
   <rect x="7.2" y="75.632727" width="439.2" height="67.405455"/>
  </clipPath>
  <clipPath id="p71cf3ab00c">
   <rect x="7.2" y="87.038182" width="439.2" height="67.405455"/>
  </clipPath>
  <clipPath id="pce2d2b9d19">
   <rect x="7.2" y="98.443636" width="439.2" height="67.405455"/>
  </clipPath>
  <clipPath id="p2c9e318daa">
   <rect x="7.2" y="109.849091" width="439.2" height="67.405455"/>
  </clipPath>
  <clipPath id="pae89674706">
   <rect x="7.2" y="121.254545" width="439.2" height="67.405455"/>
  </clipPath>
  <clipPath id="pfe11a05063">
   <rect x="7.2" y="132.66" width="439.2" height="67.405455"/>
  </clipPath>
  <clipPath id="p038b9dbee7">
   <rect x="7.2" y="144.065455" width="439.2" height="67.405455"/>
  </clipPath>
  <clipPath id="p939a4ee483">
   <rect x="7.2" y="155.470909" width="439.2" height="67.405455"/>
  </clipPath>
  <clipPath id="p31650eecb8">
   <rect x="7.2" y="166.876364" width="439.2" height="67.405455"/>
  </clipPath>
  <clipPath id="pe3d5303ac4">
   <rect x="7.2" y="178.281818" width="439.2" height="67.405455"/>
  </clipPath>
  <clipPath id="pdf3827e023">
   <rect x="7.2" y="189.687273" width="439.2" height="67.405455"/>
  </clipPath>
  <clipPath id="pe197eefbbb">
   <rect x="7.2" y="201.092727" width="439.2" height="67.405455"/>
  </clipPath>
  <clipPath id="pe009d065db">
   <rect x="7.2" y="212.498182" width="439.2" height="67.405455"/>
  </clipPath>
  <clipPath id="p9453861b5b">
   <rect x="7.2" y="223.903636" width="439.2" height="67.405455"/>
  </clipPath>
  <clipPath id="p0c42f3f9fe">
   <rect x="7.2" y="235.309091" width="439.2" height="67.405455"/>
  </clipPath>
  <clipPath id="p7785e92378">
   <rect x="7.2" y="246.714545" width="439.2" height="67.405455"/>
  </clipPath>
 </defs>
</svg>
