<?xml version="1.0" encoding="utf-8" standalone="no"?>
<!DOCTYPE svg PUBLIC "-//W3C//DTD SVG 1.1//EN"
  "http://www.w3.org/Graphics/SVG/1.1/DTD/svg11.dtd">
<svg xmlns:xlink="http://www.w3.org/1999/xlink" width="453.6pt" height="337.40125pt" viewBox="0 0 453.6 337.40125" xmlns="http://www.w3.org/2000/svg" version="1.1">
 <metadata>
  <rdf:RDF xmlns:dc="http://purl.org/dc/elements/1.1/" xmlns:cc="http://creativecommons.org/ns#" xmlns:rdf="http://www.w3.org/1999/02/22-rdf-syntax-ns#">
   <cc:Work>
    <dc:type rdf:resource="http://purl.org/dc/dcmitype/StillImage"/>
    <dc:date>2025-11-27T18:44:59.612267</dc:date>
    <dc:format>image/svg+xml</dc:format>
    <dc:creator>
     <cc:Agent>
      <dc:title>Matplotlib v3.10.5, https://matplotlib.org/</dc:title>
     </cc:Agent>
    </dc:creator>
   </cc:Work>
  </rdf:RDF>
 </metadata>
 <defs>
  <style type="text/css">*{stroke-linejoin: round; stroke-linecap: butt}</style>
 </defs>
 <g id="figure_1">
  <g id="patch_1">
   <path d="M 0 337.40125 
L 453.6 337.40125 
L 453.6 0 
L 0 0 
z
" style="fill: #f5f5dc"/>
  </g>
  <g id="axes_1">
   <g id="patch_2">
    <path d="M 7.2 314.12 
L 446.4 314.12 
L 446.4 7.2 
L 7.2 7.2 
z
" style="fill: #f5f5dc"/>
   </g>
   <g id="matplotlib.axis_1">
    <g id="xtick_1">
     <g id="line2d_1">
      <defs>
       <path id="mc42ecf850d" d="M 0 0 
L 0 3.5 
" style="stroke: #000000; stroke-width: 0.8"/>
      </defs>
      <g>
       <use xlink:href="#mc42ecf850d" x="75.825" y="314.12" style="stroke: #000000; stroke-width: 0.8"/>
      </g>
     </g>
     <g id="text_1">
      <!-- €250M -->
      <g transform="translate(59.625 328.485625) scale(0.1 -0.1)">
       <defs>
        <path id="Lato-Regular-20ac" d="M 109 2877 
L 579 2877 
Q 643 3280 795 3605 
Q 947 3930 1172 4158 
Q 1398 4387 1692 4508 
Q 1987 4630 2333 4630 
Q 2762 4630 3066 4470 
Q 3370 4310 3594 4029 
L 3398 3811 
Q 3373 3782 3347 3761 
Q 3322 3741 3277 3741 
Q 3222 3741 3163 3801 
Q 3104 3862 3005 3936 
Q 2906 4010 2750 4070 
Q 2595 4131 2355 4131 
Q 1888 4131 1579 3811 
Q 1270 3491 1168 2877 
L 2918 2877 
L 2918 2701 
Q 2918 2643 2875 2596 
Q 2832 2550 2755 2550 
L 1130 2550 
Q 1126 2486 1124 2422 
Q 1123 2358 1123 2291 
Q 1123 2240 1123 2192 
Q 1123 2144 1126 2096 
L 2621 2096 
L 2621 1917 
Q 2621 1862 2576 1816 
Q 2531 1770 2454 1770 
L 1155 1770 
Q 1245 1110 1552 780 
Q 1859 451 2326 451 
Q 2499 451 2630 484 
Q 2762 518 2858 569 
Q 2954 621 3022 680 
Q 3091 739 3142 790 
Q 3194 842 3234 875 
Q 3274 909 3312 909 
Q 3338 909 3357 897 
Q 3376 886 3402 864 
L 3642 640 
Q 3418 314 3085 133 
Q 2752 -48 2294 -48 
Q 1923 -48 1625 78 
Q 1328 205 1110 440 
Q 893 675 753 1012 
Q 614 1350 563 1770 
L 109 1770 
L 109 2096 
L 538 2096 
Q 534 2144 534 2192 
Q 534 2240 534 2291 
Q 534 2355 536 2420 
Q 538 2486 541 2550 
L 109 2550 
L 109 2877 
z
" transform="scale(0.015625)"/>
        <path id="Lato-Regular-32" d="M 1923 4637 
Q 2214 4637 2467 4550 
Q 2720 4464 2904 4299 
Q 3088 4134 3193 3897 
Q 3299 3661 3299 3360 
Q 3299 3104 3222 2886 
Q 3146 2669 3014 2469 
Q 2883 2269 2712 2081 
Q 2541 1894 2349 1699 
L 1142 464 
Q 1270 499 1401 520 
Q 1533 541 1654 541 
L 3190 541 
Q 3283 541 3337 486 
Q 3392 432 3392 346 
L 3392 0 
L 333 0 
L 333 195 
Q 333 256 357 320 
Q 381 384 435 438 
L 1904 1914 
Q 2086 2099 2236 2270 
Q 2387 2442 2494 2614 
Q 2602 2787 2659 2964 
Q 2717 3142 2717 3344 
Q 2717 3546 2653 3698 
Q 2589 3850 2477 3949 
Q 2365 4048 2214 4097 
Q 2064 4147 1891 4147 
Q 1718 4147 1571 4096 
Q 1424 4045 1310 3953 
Q 1197 3862 1118 3737 
Q 1040 3613 1008 3462 
Q 982 3370 931 3328 
Q 880 3286 797 3286 
Q 781 3286 763 3288 
Q 746 3290 723 3293 
L 426 3344 
Q 470 3658 598 3899 
Q 726 4141 923 4304 
Q 1120 4467 1374 4552 
Q 1629 4637 1923 4637 
z
" transform="scale(0.015625)"/>
        <path id="Lato-Regular-35" d="M 3130 4336 
Q 3130 4214 3053 4136 
Q 2976 4058 2794 4058 
L 1354 4058 
L 1142 2854 
Q 1501 2931 1805 2931 
Q 2163 2931 2436 2825 
Q 2710 2720 2896 2534 
Q 3082 2349 3176 2096 
Q 3270 1843 3270 1546 
Q 3270 1181 3142 886 
Q 3014 592 2792 382 
Q 2570 173 2269 61 
Q 1968 -51 1619 -51 
Q 1418 -51 1232 -11 
Q 1046 29 886 96 
Q 726 163 588 249 
Q 451 336 346 432 
L 518 675 
Q 576 758 672 758 
Q 733 758 814 708 
Q 896 659 1011 598 
Q 1126 538 1281 488 
Q 1437 438 1651 438 
Q 1891 438 2083 515 
Q 2275 592 2411 734 
Q 2547 877 2620 1075 
Q 2694 1274 2694 1520 
Q 2694 1734 2632 1907 
Q 2570 2080 2443 2201 
Q 2317 2323 2128 2390 
Q 1939 2458 1686 2458 
Q 1514 2458 1328 2429 
Q 1142 2400 944 2336 
L 586 2442 
L 957 4586 
L 3130 4586 
L 3130 4336 
z
" transform="scale(0.015625)"/>
        <path id="Lato-Regular-30" d="M 3520 2291 
Q 3520 1690 3390 1250 
Q 3261 810 3037 522 
Q 2813 234 2507 93 
Q 2202 -48 1853 -48 
Q 1501 -48 1198 93 
Q 896 234 672 522 
Q 448 810 320 1250 
Q 192 1690 192 2291 
Q 192 2893 320 3334 
Q 448 3776 672 4065 
Q 896 4355 1198 4496 
Q 1501 4637 1853 4637 
Q 2202 4637 2507 4496 
Q 2813 4355 3037 4065 
Q 3261 3776 3390 3334 
Q 3520 2893 3520 2291 
z
M 2928 2291 
Q 2928 2816 2840 3173 
Q 2752 3530 2603 3747 
Q 2454 3965 2259 4059 
Q 2064 4154 1853 4154 
Q 1642 4154 1446 4059 
Q 1251 3965 1104 3747 
Q 957 3530 869 3173 
Q 781 2816 781 2291 
Q 781 1766 869 1411 
Q 957 1056 1104 838 
Q 1251 621 1446 526 
Q 1642 432 1853 432 
Q 2064 432 2259 526 
Q 2454 621 2603 838 
Q 2752 1056 2840 1411 
Q 2928 1766 2928 2291 
z
" transform="scale(0.015625)"/>
        <path id="Lato-Regular-4d" d="M 2813 1658 
Q 2858 1581 2891 1496 
Q 2925 1411 2957 1325 
Q 2989 1414 3024 1496 
Q 3059 1578 3104 1661 
L 4656 4480 
Q 4698 4554 4742 4570 
Q 4787 4586 4870 4586 
L 5328 4586 
L 5328 0 
L 4784 0 
L 4784 3370 
Q 4784 3437 4787 3513 
Q 4790 3590 4797 3670 
L 3226 803 
Q 3146 659 3002 659 
L 2912 659 
Q 2768 659 2688 803 
L 1082 3680 
Q 1091 3597 1096 3517 
Q 1101 3437 1101 3370 
L 1101 0 
L 557 0 
L 557 4586 
L 1014 4586 
Q 1098 4586 1142 4570 
Q 1187 4554 1229 4480 
L 2813 1658 
L 2813 1658 
z
" transform="scale(0.015625)"/>
       </defs>
       <use xlink:href="#Lato-Regular-20ac"/>
       <use xlink:href="#Lato-Regular-32" transform="translate(58 0)"/>
       <use xlink:href="#Lato-Regular-35" transform="translate(116 0)"/>
       <use xlink:href="#Lato-Regular-30" transform="translate(174 0)"/>
       <use xlink:href="#Lato-Regular-4d" transform="translate(232 0)"/>
      </g>
     </g>
    </g>
    <g id="xtick_2">
     <g id="line2d_2">
      <g>
       <use xlink:href="#mc42ecf850d" x="144.45" y="314.12" style="stroke: #000000; stroke-width: 0.8"/>
      </g>
     </g>
     <g id="text_2">
      <!-- €500M -->
      <g transform="translate(128.25 328.485625) scale(0.1 -0.1)">
       <use xlink:href="#Lato-Regular-20ac"/>
       <use xlink:href="#Lato-Regular-35" transform="translate(58 0)"/>
       <use xlink:href="#Lato-Regular-30" transform="translate(116 0)"/>
       <use xlink:href="#Lato-Regular-30" transform="translate(174 0)"/>
       <use xlink:href="#Lato-Regular-4d" transform="translate(232 0)"/>
      </g>
     </g>
    </g>
    <g id="xtick_3">
     <g id="line2d_3">
      <g>
       <use xlink:href="#mc42ecf850d" x="213.075" y="314.12" style="stroke: #000000; stroke-width: 0.8"/>
      </g>
     </g>
     <g id="text_3">
      <!-- €750M -->
      <g transform="translate(196.875 328.485625) scale(0.1 -0.1)">
       <defs>
        <path id="Lato-Regular-37" d="M 3469 4586 
L 3469 4330 
Q 3469 4221 3445 4150 
Q 3421 4080 3395 4032 
L 1498 202 
Q 1456 118 1382 59 
Q 1309 0 1184 0 
L 778 0 
L 2704 3782 
Q 2746 3862 2789 3929 
Q 2832 3997 2886 4058 
L 493 4058 
Q 438 4058 395 4101 
Q 352 4144 352 4198 
L 352 4586 
L 3469 4586 
z
" transform="scale(0.015625)"/>
       </defs>
       <use xlink:href="#Lato-Regular-20ac"/>
       <use xlink:href="#Lato-Regular-37" transform="translate(58 0)"/>
       <use xlink:href="#Lato-Regular-35" transform="translate(116 0)"/>
       <use xlink:href="#Lato-Regular-30" transform="translate(174 0)"/>
       <use xlink:href="#Lato-Regular-4d" transform="translate(232 0)"/>
      </g>
     </g>
    </g>
    <g id="xtick_4">
     <g id="line2d_4">
      <g>
       <use xlink:href="#mc42ecf850d" x="281.7" y="314.12" style="stroke: #000000; stroke-width: 0.8"/>
      </g>
     </g>
     <g id="text_4">
      <!-- €1B -->
      <g transform="translate(272.664844 328.485625) scale(0.1 -0.1)">
       <defs>
        <path id="Lato-Regular-31" d="M 918 435 
L 1904 435 
L 1904 3562 
Q 1904 3702 1914 3846 
L 1094 3146 
Q 1062 3120 1030 3109 
Q 998 3098 970 3098 
Q 922 3098 883 3118 
Q 845 3139 826 3168 
L 646 3414 
L 2010 4595 
L 2474 4595 
L 2474 435 
L 3376 435 
L 3376 0 
L 918 0 
L 918 435 
z
" transform="scale(0.015625)"/>
        <path id="Lato-Regular-42" d="M 557 0 
L 557 4586 
L 2019 4586 
Q 2442 4586 2747 4502 
Q 3053 4419 3249 4265 
Q 3446 4112 3540 3889 
Q 3635 3667 3635 3389 
Q 3635 3219 3582 3062 
Q 3530 2906 3422 2771 
Q 3315 2637 3153 2531 
Q 2992 2426 2774 2358 
Q 3277 2259 3533 1996 
Q 3789 1734 3789 1306 
Q 3789 1014 3681 774 
Q 3574 534 3368 361 
Q 3162 189 2862 94 
Q 2563 0 2179 0 
L 557 0 
z
M 1178 2090 
L 1178 493 
L 2170 493 
Q 2435 493 2625 553 
Q 2816 614 2939 724 
Q 3062 835 3120 987 
Q 3178 1139 3178 1322 
Q 3178 1677 2926 1883 
Q 2675 2090 2166 2090 
L 1178 2090 
z
M 1178 2531 
L 1997 2531 
Q 2259 2531 2451 2588 
Q 2643 2646 2769 2748 
Q 2896 2851 2957 2996 
Q 3018 3142 3018 3315 
Q 3018 3718 2774 3907 
Q 2531 4096 2019 4096 
L 1178 4096 
L 1178 2531 
z
" transform="scale(0.015625)"/>
       </defs>
       <use xlink:href="#Lato-Regular-20ac"/>
       <use xlink:href="#Lato-Regular-31" transform="translate(58 0)"/>
       <use xlink:href="#Lato-Regular-42" transform="translate(116 0)"/>
      </g>
     </g>
    </g>
    <g id="xtick_5">
     <g id="line2d_5">
      <g>
       <use xlink:href="#mc42ecf850d" x="350.325" y="314.12" style="stroke: #000000; stroke-width: 0.8"/>
      </g>
     </g>
     <g id="text_5">
      <!-- €1.25B -->
      <g transform="translate(334.429688 328.485625) scale(0.1 -0.1)">
       <defs>
        <path id="Lato-Regular-2e" d="M 282 352 
Q 282 435 312 508 
Q 342 582 395 636 
Q 448 691 521 723 
Q 595 755 678 755 
Q 762 755 835 723 
Q 909 691 963 636 
Q 1018 582 1048 508 
Q 1078 435 1078 352 
Q 1078 266 1048 194 
Q 1018 122 963 67 
Q 909 13 835 -17 
Q 762 -48 678 -48 
Q 595 -48 521 -17 
Q 448 13 395 67 
Q 342 122 312 194 
Q 282 266 282 352 
z
" transform="scale(0.015625)"/>
       </defs>
       <use xlink:href="#Lato-Regular-20ac"/>
       <use xlink:href="#Lato-Regular-31" transform="translate(58 0)"/>
       <use xlink:href="#Lato-Regular-2e" transform="translate(116 0)"/>
       <use xlink:href="#Lato-Regular-32" transform="translate(137.199997 0)"/>
       <use xlink:href="#Lato-Regular-35" transform="translate(195.199997 0)"/>
       <use xlink:href="#Lato-Regular-42" transform="translate(253.199997 0)"/>
      </g>
     </g>
    </g>
    <g id="xtick_6">
     <g id="line2d_6">
      <g>
       <use xlink:href="#mc42ecf850d" x="418.95" y="314.12" style="stroke: #000000; stroke-width: 0.8"/>
      </g>
     </g>
     <g id="text_6">
      <!-- €1.5B -->
      <g transform="translate(405.954688 328.485625) scale(0.1 -0.1)">
       <use xlink:href="#Lato-Regular-20ac"/>
       <use xlink:href="#Lato-Regular-31" transform="translate(58 0)"/>
       <use xlink:href="#Lato-Regular-2e" transform="translate(116 0)"/>
       <use xlink:href="#Lato-Regular-35" transform="translate(137.199997 0)"/>
       <use xlink:href="#Lato-Regular-42" transform="translate(195.199997 0)"/>
      </g>
     </g>
    </g>
   </g>
  </g>
  <g id="axes_2">
   <g id="FillBetweenPolyCollection_1">
    <defs>
     <path id="mb61e0acbde" d="M 8.626751 -271.326622 
L 8.626751 -271.326622 
L 11.000977 -271.326622 
L 13.375202 -271.326622 
L 15.749427 -271.326622 
L 18.123653 -271.326622 
L 20.497878 -271.326622 
L 22.872103 -271.326622 
L 25.246329 -271.326622 
L 27.620554 -271.326622 
L 29.994779 -271.326622 
L 32.369005 -271.326622 
L 34.74323 -271.326622 
L 37.117456 -271.326622 
L 39.491681 -271.326622 
L 41.865906 -271.326622 
L 44.240132 -271.326622 
L 46.614357 -271.326622 
L 48.988582 -271.326622 
L 51.362808 -271.326622 
L 53.737033 -271.326622 
L 56.111258 -271.326622 
L 58.485484 -271.326622 
L 58.485484 -271.326622 
L 58.485484 -271.326622 
L 56.111258 -290.01698 
L 53.737033 -271.326622 
L 51.362808 -271.326622 
L 48.988582 -271.326622 
L 46.614357 -271.326622 
L 44.240132 -271.326622 
L 41.865906 -271.326622 
L 39.491681 -271.326622 
L 37.117456 -271.326622 
L 34.74323 -290.01698 
L 32.369005 -271.326622 
L 29.994779 -327.397696 
L 27.620554 -308.707338 
L 25.246329 -290.01698 
L 22.872103 -290.01698 
L 20.497878 -290.01698 
L 18.123653 -290.01698 
L 15.749427 -327.397696 
L 13.375202 -327.397696 
L 11.000977 -290.01698 
L 8.626751 -271.326622 
z
" style="stroke: #d10214; stroke-opacity: 0.427273"/>
    </defs>
    <g clip-path="url(#pbc4f4526f9)">
     <use xlink:href="#mb61e0acbde" x="0" y="337.40125" style="fill: #d10214; fill-opacity: 0.427273; stroke: #d10214; stroke-opacity: 0.427273"/>
    </g>
   </g>
   <g id="line2d_7">
    <path d="M 8.626751 66.074628 
L 11.000977 66.074628 
L 13.375202 66.074628 
L 15.749427 66.074628 
L 18.123653 66.074628 
L 20.497878 66.074628 
L 22.872103 66.074628 
L 25.246329 66.074628 
L 27.620554 66.074628 
L 29.994779 66.074628 
L 32.369005 66.074628 
L 34.74323 66.074628 
L 37.117456 66.074628 
L 39.491681 66.074628 
L 41.865906 66.074628 
L 44.240132 66.074628 
L 46.614357 66.074628 
L 48.988582 66.074628 
L 51.362808 66.074628 
L 53.737033 66.074628 
L 56.111258 66.074628 
L 58.485484 66.074628 
" clip-path="url(#pbc4f4526f9)" style="fill: none; stroke: #d10214; stroke-opacity: 0.427273; stroke-width: 1.5; stroke-linecap: square"/>
   </g>
   <g id="line2d_8">
    <path d="M 8.626751 66.074628 
L 11.000977 47.38427 
L 13.375202 10.003554 
L 15.749427 10.003554 
L 18.123653 47.38427 
L 20.497878 47.38427 
L 22.872103 47.38427 
L 25.246329 47.38427 
L 27.620554 28.693912 
L 29.994779 10.003554 
L 32.369005 66.074628 
L 34.74323 47.38427 
L 37.117456 66.074628 
L 39.491681 66.074628 
L 41.865906 66.074628 
L 44.240132 66.074628 
L 46.614357 66.074628 
L 48.988582 66.074628 
L 51.362808 66.074628 
L 53.737033 66.074628 
L 56.111258 47.38427 
L 58.485484 66.074628 
" clip-path="url(#pbc4f4526f9)" style="fill: none; stroke: #000000; stroke-opacity: 0.427273; stroke-width: 1.5; stroke-linecap: square"/>
   </g>
  </g>
  <g id="axes_3">
   <g id="FillBetweenPolyCollection_2">
    <defs>
     <path id="m6aec51b4ab" d="M 10.768999 -259.64844 
L 10.768999 -259.64844 
L 13.070307 -259.64844 
L 15.371615 -259.64844 
L 17.672924 -259.64844 
L 19.974232 -259.64844 
L 22.27554 -259.64844 
L 24.576848 -259.64844 
L 26.878156 -259.64844 
L 29.179465 -259.64844 
L 31.480773 -259.64844 
L 33.782081 -259.64844 
L 36.083389 -259.64844 
L 38.384697 -259.64844 
L 40.686005 -259.64844 
L 42.987314 -259.64844 
L 45.288622 -259.64844 
L 47.58993 -259.64844 
L 49.891238 -259.64844 
L 52.192546 -259.64844 
L 54.493855 -259.64844 
L 56.795163 -259.64844 
L 59.096471 -259.64844 
L 59.096471 -259.64844 
L 59.096471 -259.64844 
L 56.795163 -278.338798 
L 54.493855 -259.64844 
L 52.192546 -259.64844 
L 49.891238 -259.64844 
L 47.58993 -259.64844 
L 45.288622 -259.64844 
L 42.987314 -259.64844 
L 40.686005 -259.64844 
L 38.384697 -278.338798 
L 36.083389 -278.338798 
L 33.782081 -259.64844 
L 31.480773 -278.338798 
L 29.179465 -297.029156 
L 26.878156 -297.029156 
L 24.576848 -278.338798 
L 22.27554 -278.338798 
L 19.974232 -315.719514 
L 17.672924 -315.719514 
L 15.371615 -278.338798 
L 13.070307 -278.338798 
L 10.768999 -259.64844 
z
" style="stroke: #d10214; stroke-opacity: 0.454545"/>
    </defs>
    <g clip-path="url(#pe58dbc7e27)">
     <use xlink:href="#m6aec51b4ab" x="0" y="337.40125" style="fill: #d10214; fill-opacity: 0.454545; stroke: #d10214; stroke-opacity: 0.454545"/>
    </g>
   </g>
   <g id="line2d_9">
    <path d="M 10.768999 77.75281 
L 13.070307 77.75281 
L 15.371615 77.75281 
L 17.672924 77.75281 
L 19.974232 77.75281 
L 22.27554 77.75281 
L 24.576848 77.75281 
L 26.878156 77.75281 
L 29.179465 77.75281 
L 31.480773 77.75281 
L 33.782081 77.75281 
L 36.083389 77.75281 
L 38.384697 77.75281 
L 40.686005 77.75281 
L 42.987314 77.75281 
L 45.288622 77.75281 
L 47.58993 77.75281 
L 49.891238 77.75281 
L 52.192546 77.75281 
L 54.493855 77.75281 
L 56.795163 77.75281 
L 59.096471 77.75281 
" clip-path="url(#pe58dbc7e27)" style="fill: none; stroke: #d10214; stroke-opacity: 0.454545; stroke-width: 1.5; stroke-linecap: square"/>
   </g>
   <g id="line2d_10">
    <path d="M 10.768999 77.75281 
L 13.070307 59.062452 
L 15.371615 59.062452 
L 17.672924 21.681736 
L 19.974232 21.681736 
L 22.27554 59.062452 
L 24.576848 59.062452 
L 26.878156 40.372094 
L 29.179465 40.372094 
L 31.480773 59.062452 
L 33.782081 77.75281 
L 36.083389 59.062452 
L 38.384697 59.062452 
L 40.686005 77.75281 
L 42.987314 77.75281 
L 45.288622 77.75281 
L 47.58993 77.75281 
L 49.891238 77.75281 
L 52.192546 77.75281 
L 54.493855 77.75281 
L 56.795163 59.062452 
L 59.096471 77.75281 
" clip-path="url(#pe58dbc7e27)" style="fill: none; stroke: #000000; stroke-opacity: 0.454545; stroke-width: 1.5; stroke-linecap: square"/>
   </g>
  </g>
  <g id="axes_4">
   <g id="FillBetweenPolyCollection_3">
    <defs>
     <path id="m6ae148290f" d="M 11.409982 -247.970258 
L 11.409982 -247.970258 
L 13.718477 -247.970258 
L 16.026972 -247.970258 
L 18.335467 -247.970258 
L 20.643962 -247.970258 
L 22.952457 -247.970258 
L 25.260952 -247.970258 
L 27.569447 -247.970258 
L 29.877942 -247.970258 
L 32.186437 -247.970258 
L 34.494932 -247.970258 
L 36.803428 -247.970258 
L 39.111923 -247.970258 
L 41.420418 -247.970258 
L 43.728913 -247.970258 
L 46.037408 -247.970258 
L 48.345903 -247.970258 
L 50.654398 -247.970258 
L 52.962893 -247.970258 
L 55.271388 -247.970258 
L 57.579883 -247.970258 
L 59.888378 -247.970258 
L 59.888378 -247.970258 
L 59.888378 -247.970258 
L 57.579883 -266.660616 
L 55.271388 -247.970258 
L 52.962893 -247.970258 
L 50.654398 -266.660616 
L 48.345903 -247.970258 
L 46.037408 -247.970258 
L 43.728913 -247.970258 
L 41.420418 -247.970258 
L 39.111923 -247.970258 
L 36.803428 -266.660616 
L 34.494932 -285.350975 
L 32.186437 -247.970258 
L 29.877942 -266.660616 
L 27.569447 -285.350975 
L 25.260952 -266.660616 
L 22.952457 -266.660616 
L 20.643962 -304.041333 
L 18.335467 -266.660616 
L 16.026972 -285.350975 
L 13.718477 -285.350975 
L 11.409982 -247.970258 
z
" style="stroke: #d10214; stroke-opacity: 0.481818"/>
    </defs>
    <g clip-path="url(#p64c168820e)">
     <use xlink:href="#m6ae148290f" x="0" y="337.40125" style="fill: #d10214; fill-opacity: 0.481818; stroke: #d10214; stroke-opacity: 0.481818"/>
    </g>
   </g>
   <g id="line2d_11">
    <path d="M 11.409982 89.430992 
L 13.718477 89.430992 
L 16.026972 89.430992 
L 18.335467 89.430992 
L 20.643962 89.430992 
L 22.952457 89.430992 
L 25.260952 89.430992 
L 27.569447 89.430992 
L 29.877942 89.430992 
L 32.186437 89.430992 
L 34.494932 89.430992 
L 36.803428 89.430992 
L 39.111923 89.430992 
L 41.420418 89.430992 
L 43.728913 89.430992 
L 46.037408 89.430992 
L 48.345903 89.430992 
L 50.654398 89.430992 
L 52.962893 89.430992 
L 55.271388 89.430992 
L 57.579883 89.430992 
L 59.888378 89.430992 
" clip-path="url(#p64c168820e)" style="fill: none; stroke: #d10214; stroke-opacity: 0.481818; stroke-width: 1.5; stroke-linecap: square"/>
   </g>
   <g id="line2d_12">
    <path d="M 11.409982 89.430992 
L 13.718477 52.050275 
L 16.026972 52.050275 
L 18.335467 70.740634 
L 20.643962 33.359917 
L 22.952457 70.740634 
L 25.260952 70.740634 
L 27.569447 52.050275 
L 29.877942 70.740634 
L 32.186437 89.430992 
L 34.494932 52.050275 
L 36.803428 70.740634 
L 39.111923 89.430992 
L 41.420418 89.430992 
L 43.728913 89.430992 
L 46.037408 89.430992 
L 48.345903 89.430992 
L 50.654398 70.740634 
L 52.962893 89.430992 
L 55.271388 89.430992 
L 57.579883 70.740634 
L 59.888378 89.430992 
" clip-path="url(#p64c168820e)" style="fill: none; stroke: #000000; stroke-opacity: 0.481818; stroke-width: 1.5; stroke-linecap: square"/>
   </g>
  </g>
  <g id="axes_5">
   <g id="FillBetweenPolyCollection_4">
    <defs>
     <path id="m9265601255" d="M 10.337535 -236.292076 
L 10.337535 -236.292076 
L 13.65624 -236.292076 
L 16.974945 -236.292076 
L 20.29365 -236.292076 
L 23.612355 -236.292076 
L 26.93106 -236.292076 
L 30.249765 -236.292076 
L 33.56847 -236.292076 
L 36.887175 -236.292076 
L 40.20588 -236.292076 
L 43.524585 -236.292076 
L 46.84329 -236.292076 
L 50.161995 -236.292076 
L 53.4807 -236.292076 
L 56.799405 -236.292076 
L 60.11811 -236.292076 
L 63.436815 -236.292076 
L 66.75552 -236.292076 
L 70.074225 -236.292076 
L 73.39293 -236.292076 
L 76.711635 -236.292076 
L 80.03034 -236.292076 
L 80.03034 -236.292076 
L 80.03034 -236.292076 
L 76.711635 -254.982435 
L 73.39293 -236.292076 
L 70.074225 -236.292076 
L 66.75552 -236.292076 
L 63.436815 -236.292076 
L 60.11811 -236.292076 
L 56.799405 -236.292076 
L 53.4807 -236.292076 
L 50.161995 -254.982435 
L 46.84329 -236.292076 
L 43.524585 -236.292076 
L 40.20588 -273.672793 
L 36.887175 -254.982435 
L 33.56847 -254.982435 
L 30.249765 -292.363151 
L 26.93106 -254.982435 
L 23.612355 -273.672793 
L 20.29365 -254.982435 
L 16.974945 -292.363151 
L 13.65624 -273.672793 
L 10.337535 -236.292076 
z
" style="stroke: #d10214; stroke-opacity: 0.509091"/>
    </defs>
    <g clip-path="url(#pb368f5756c)">
     <use xlink:href="#m9265601255" x="0" y="337.40125" style="fill: #d10214; fill-opacity: 0.509091; stroke: #d10214; stroke-opacity: 0.509091"/>
    </g>
   </g>
   <g id="line2d_13">
    <path d="M 10.337535 101.109174 
L 13.65624 101.109174 
L 16.974945 101.109174 
L 20.29365 101.109174 
L 23.612355 101.109174 
L 26.93106 101.109174 
L 30.249765 101.109174 
L 33.56847 101.109174 
L 36.887175 101.109174 
L 40.20588 101.109174 
L 43.524585 101.109174 
L 46.84329 101.109174 
L 50.161995 101.109174 
L 53.4807 101.109174 
L 56.799405 101.109174 
L 60.11811 101.109174 
L 63.436815 101.109174 
L 66.75552 101.109174 
L 70.074225 101.109174 
L 73.39293 101.109174 
L 76.711635 101.109174 
L 80.03034 101.109174 
" clip-path="url(#pb368f5756c)" style="fill: none; stroke: #d10214; stroke-opacity: 0.509091; stroke-width: 1.5; stroke-linecap: square"/>
   </g>
   <g id="line2d_14">
    <path d="M 10.337535 101.109174 
L 13.65624 63.728457 
L 16.974945 45.038099 
L 20.29365 82.418815 
L 23.612355 63.728457 
L 26.93106 82.418815 
L 30.249765 45.038099 
L 33.56847 82.418815 
L 36.887175 82.418815 
L 40.20588 63.728457 
L 43.524585 101.109174 
L 46.84329 101.109174 
L 50.161995 82.418815 
L 53.4807 101.109174 
L 56.799405 101.109174 
L 60.11811 101.109174 
L 63.436815 101.109174 
L 66.75552 101.109174 
L 70.074225 101.109174 
L 73.39293 101.109174 
L 76.711635 82.418815 
L 80.03034 101.109174 
" clip-path="url(#pb368f5756c)" style="fill: none; stroke: #000000; stroke-opacity: 0.509091; stroke-width: 1.5; stroke-linecap: square"/>
   </g>
  </g>
  <g id="axes_6">
   <g id="FillBetweenPolyCollection_5">
    <defs>
     <path id="mfb7b80b478" d="M 11.185091 -224.613895 
L 11.185091 -224.613895 
L 14.275762 -224.613895 
L 17.366432 -224.613895 
L 20.457102 -224.613895 
L 23.547773 -224.613895 
L 26.638443 -224.613895 
L 29.729113 -224.613895 
L 32.819784 -224.613895 
L 35.910454 -224.613895 
L 39.001124 -224.613895 
L 42.091795 -224.613895 
L 45.182465 -224.613895 
L 48.273136 -224.613895 
L 51.363806 -224.613895 
L 54.454476 -224.613895 
L 57.545147 -224.613895 
L 60.635817 -224.613895 
L 63.726487 -224.613895 
L 66.817158 -224.613895 
L 69.907828 -224.613895 
L 72.998498 -224.613895 
L 76.089169 -224.613895 
L 76.089169 -224.613895 
L 76.089169 -224.613895 
L 72.998498 -243.304253 
L 69.907828 -224.613895 
L 66.817158 -224.613895 
L 63.726487 -224.613895 
L 60.635817 -224.613895 
L 57.545147 -224.613895 
L 54.454476 -224.613895 
L 51.363806 -243.304253 
L 48.273136 -243.304253 
L 45.182465 -243.304253 
L 42.091795 -224.613895 
L 39.001124 -280.684969 
L 35.910454 -243.304253 
L 32.819784 -243.304253 
L 29.729113 -243.304253 
L 26.638443 -224.613895 
L 23.547773 -261.994611 
L 20.457102 -261.994611 
L 17.366432 -243.304253 
L 14.275762 -280.684969 
L 11.185091 -224.613895 
z
" style="stroke: #d10214; stroke-opacity: 0.536364"/>
    </defs>
    <g clip-path="url(#p71d78890d3)">
     <use xlink:href="#mfb7b80b478" x="0" y="337.40125" style="fill: #d10214; fill-opacity: 0.536364; stroke: #d10214; stroke-opacity: 0.536364"/>
    </g>
   </g>
   <g id="line2d_15">
    <path d="M 11.185091 112.787355 
L 14.275762 112.787355 
L 17.366432 112.787355 
L 20.457102 112.787355 
L 23.547773 112.787355 
L 26.638443 112.787355 
L 29.729113 112.787355 
L 32.819784 112.787355 
L 35.910454 112.787355 
L 39.001124 112.787355 
L 42.091795 112.787355 
L 45.182465 112.787355 
L 48.273136 112.787355 
L 51.363806 112.787355 
L 54.454476 112.787355 
L 57.545147 112.787355 
L 60.635817 112.787355 
L 63.726487 112.787355 
L 66.817158 112.787355 
L 69.907828 112.787355 
L 72.998498 112.787355 
L 76.089169 112.787355 
" clip-path="url(#p71d78890d3)" style="fill: none; stroke: #d10214; stroke-opacity: 0.536364; stroke-width: 1.5; stroke-linecap: square"/>
   </g>
   <g id="line2d_16">
    <path d="M 11.185091 112.787355 
L 14.275762 56.716281 
L 17.366432 94.096997 
L 20.457102 75.406639 
L 23.547773 75.406639 
L 26.638443 112.787355 
L 29.729113 94.096997 
L 32.819784 94.096997 
L 35.910454 94.096997 
L 39.001124 56.716281 
L 42.091795 112.787355 
L 45.182465 94.096997 
L 48.273136 94.096997 
L 51.363806 94.096997 
L 54.454476 112.787355 
L 57.545147 112.787355 
L 60.635817 112.787355 
L 63.726487 112.787355 
L 66.817158 112.787355 
L 69.907828 112.787355 
L 72.998498 94.096997 
L 76.089169 112.787355 
" clip-path="url(#p71d78890d3)" style="fill: none; stroke: #000000; stroke-opacity: 0.536364; stroke-width: 1.5; stroke-linecap: square"/>
   </g>
  </g>
  <g id="axes_7">
   <g id="FillBetweenPolyCollection_6">
    <defs>
     <path id="m7c0d0c83ad" d="M 13.235756 -212.935713 
L 13.235756 -212.935713 
L 16.830708 -212.935713 
L 20.42566 -212.935713 
L 24.020611 -212.935713 
L 27.615563 -212.935713 
L 31.210515 -212.935713 
L 34.805467 -212.935713 
L 38.400419 -212.935713 
L 41.99537 -212.935713 
L 45.590322 -212.935713 
L 49.185274 -212.935713 
L 52.780226 -212.935713 
L 56.375178 -212.935713 
L 59.97013 -212.935713 
L 63.565081 -212.935713 
L 67.160033 -212.935713 
L 70.754985 -212.935713 
L 74.349937 -212.935713 
L 77.944889 -212.935713 
L 81.53984 -212.935713 
L 85.134792 -212.935713 
L 88.729744 -212.935713 
L 88.729744 -212.935713 
L 88.729744 -212.935713 
L 85.134792 -226.953481 
L 81.53984 -212.935713 
L 77.944889 -212.935713 
L 74.349937 -212.935713 
L 70.754985 -212.935713 
L 67.160033 -212.935713 
L 63.565081 -212.935713 
L 59.97013 -212.935713 
L 56.375178 -212.935713 
L 52.780226 -212.935713 
L 49.185274 -226.953481 
L 45.590322 -254.989019 
L 41.99537 -240.97125 
L 38.400419 -226.953481 
L 34.805467 -226.953481 
L 31.210515 -212.935713 
L 27.615563 -212.935713 
L 24.020611 -269.006787 
L 20.42566 -254.989019 
L 16.830708 -240.97125 
L 13.235756 -212.935713 
z
" style="stroke: #d10214; stroke-opacity: 0.563636"/>
    </defs>
    <g clip-path="url(#p5ef7fde2f3)">
     <use xlink:href="#m7c0d0c83ad" x="0" y="337.40125" style="fill: #d10214; fill-opacity: 0.563636; stroke: #d10214; stroke-opacity: 0.563636"/>
    </g>
   </g>
   <g id="line2d_17">
    <path d="M 13.235756 124.465537 
L 16.830708 124.465537 
L 20.42566 124.465537 
L 24.020611 124.465537 
L 27.615563 124.465537 
L 31.210515 124.465537 
L 34.805467 124.465537 
L 38.400419 124.465537 
L 41.99537 124.465537 
L 45.590322 124.465537 
L 49.185274 124.465537 
L 52.780226 124.465537 
L 56.375178 124.465537 
L 59.97013 124.465537 
L 63.565081 124.465537 
L 67.160033 124.465537 
L 70.754985 124.465537 
L 74.349937 124.465537 
L 77.944889 124.465537 
L 81.53984 124.465537 
L 85.134792 124.465537 
L 88.729744 124.465537 
" clip-path="url(#p5ef7fde2f3)" style="fill: none; stroke: #d10214; stroke-opacity: 0.563636; stroke-width: 1.5; stroke-linecap: square"/>
   </g>
   <g id="line2d_18">
    <path d="M 13.235756 124.465537 
L 16.830708 96.43 
L 20.42566 82.412231 
L 24.020611 68.394463 
L 27.615563 124.465537 
L 31.210515 124.465537 
L 34.805467 110.447769 
L 38.400419 110.447769 
L 41.99537 96.43 
L 45.590322 82.412231 
L 49.185274 110.447769 
L 52.780226 124.465537 
L 56.375178 124.465537 
L 59.97013 124.465537 
L 63.565081 124.465537 
L 67.160033 124.465537 
L 70.754985 124.465537 
L 74.349937 124.465537 
L 77.944889 124.465537 
L 81.53984 124.465537 
L 85.134792 110.447769 
L 88.729744 124.465537 
" clip-path="url(#p5ef7fde2f3)" style="fill: none; stroke: #000000; stroke-opacity: 0.563636; stroke-width: 1.5; stroke-linecap: square"/>
   </g>
  </g>
  <g id="axes_8">
   <g id="FillBetweenPolyCollection_7">
    <defs>
     <path id="m8208e8c890" d="M 10.012777 -201.257531 
L 10.012777 -201.257531 
L 14.182382 -201.257531 
L 18.351987 -201.257531 
L 22.521592 -201.257531 
L 26.691197 -201.257531 
L 30.860802 -201.257531 
L 35.030407 -201.257531 
L 39.200012 -201.257531 
L 43.369617 -201.257531 
L 47.539222 -201.257531 
L 51.708827 -201.257531 
L 55.878433 -201.257531 
L 60.048038 -201.257531 
L 64.217643 -201.257531 
L 68.387248 -201.257531 
L 72.556853 -201.257531 
L 76.726458 -201.257531 
L 80.896063 -201.257531 
L 85.065668 -201.257531 
L 89.235273 -201.257531 
L 93.404878 -201.257531 
L 97.574483 -201.257531 
L 97.574483 -201.257531 
L 97.574483 -201.257531 
L 93.404878 -215.2753 
L 89.235273 -201.257531 
L 85.065668 -201.257531 
L 80.896063 -201.257531 
L 76.726458 -201.257531 
L 72.556853 -201.257531 
L 68.387248 -201.257531 
L 64.217643 -201.257531 
L 60.048038 -201.257531 
L 55.878433 -215.2753 
L 51.708827 -215.2753 
L 47.539222 -243.310837 
L 43.369617 -215.2753 
L 39.200012 -215.2753 
L 35.030407 -215.2753 
L 30.860802 -201.257531 
L 26.691197 -243.310837 
L 22.521592 -257.328605 
L 18.351987 -215.2753 
L 14.182382 -215.2753 
L 10.012777 -201.257531 
z
" style="stroke: #d10214; stroke-opacity: 0.590909"/>
    </defs>
    <g clip-path="url(#p2e19c6d0f3)">
     <use xlink:href="#m8208e8c890" x="0" y="337.40125" style="fill: #d10214; fill-opacity: 0.590909; stroke: #d10214; stroke-opacity: 0.590909"/>
    </g>
   </g>
   <g id="line2d_19">
    <path d="M 10.012777 136.143719 
L 14.182382 136.143719 
L 18.351987 136.143719 
L 22.521592 136.143719 
L 26.691197 136.143719 
L 30.860802 136.143719 
L 35.030407 136.143719 
L 39.200012 136.143719 
L 43.369617 136.143719 
L 47.539222 136.143719 
L 51.708827 136.143719 
L 55.878433 136.143719 
L 60.048038 136.143719 
L 64.217643 136.143719 
L 68.387248 136.143719 
L 72.556853 136.143719 
L 76.726458 136.143719 
L 80.896063 136.143719 
L 85.065668 136.143719 
L 89.235273 136.143719 
L 93.404878 136.143719 
L 97.574483 136.143719 
" clip-path="url(#p2e19c6d0f3)" style="fill: none; stroke: #d10214; stroke-opacity: 0.590909; stroke-width: 1.5; stroke-linecap: square"/>
   </g>
   <g id="line2d_20">
    <path d="M 10.012777 136.143719 
L 14.182382 122.12595 
L 18.351987 122.12595 
L 22.521592 80.072645 
L 26.691197 94.090413 
L 30.860802 136.143719 
L 35.030407 122.12595 
L 39.200012 122.12595 
L 43.369617 122.12595 
L 47.539222 94.090413 
L 51.708827 122.12595 
L 55.878433 122.12595 
L 60.048038 136.143719 
L 64.217643 136.143719 
L 68.387248 136.143719 
L 72.556853 136.143719 
L 76.726458 136.143719 
L 80.896063 136.143719 
L 85.065668 136.143719 
L 89.235273 136.143719 
L 93.404878 122.12595 
L 97.574483 136.143719 
" clip-path="url(#p2e19c6d0f3)" style="fill: none; stroke: #000000; stroke-opacity: 0.590909; stroke-width: 1.5; stroke-linecap: square"/>
   </g>
  </g>
  <g id="axes_9">
   <g id="FillBetweenPolyCollection_8">
    <defs>
     <path id="m53157b9b80" d="M 11.385626 -189.579349 
L 11.385626 -189.579349 
L 16.141713 -189.579349 
L 20.8978 -189.579349 
L 25.653886 -189.579349 
L 30.409973 -189.579349 
L 35.16606 -189.579349 
L 39.922147 -189.579349 
L 44.678234 -189.579349 
L 49.43432 -189.579349 
L 54.190407 -189.579349 
L 58.946494 -189.579349 
L 63.702581 -189.579349 
L 68.458668 -189.579349 
L 73.214755 -189.579349 
L 77.970841 -189.579349 
L 82.726928 -189.579349 
L 87.483015 -189.579349 
L 92.239102 -189.579349 
L 96.995189 -189.579349 
L 101.751275 -189.579349 
L 106.507362 -189.579349 
L 111.263449 -189.579349 
L 111.263449 -189.579349 
L 111.263449 -189.579349 
L 106.507362 -203.597118 
L 101.751275 -189.579349 
L 96.995189 -189.579349 
L 92.239102 -189.579349 
L 87.483015 -189.579349 
L 82.726928 -189.579349 
L 77.970841 -189.579349 
L 73.214755 -189.579349 
L 68.458668 -203.597118 
L 63.702581 -189.579349 
L 58.946494 -189.579349 
L 54.190407 -189.579349 
L 49.43432 -203.597118 
L 44.678234 -203.597118 
L 39.922147 -231.632655 
L 35.16606 -189.579349 
L 30.409973 -245.650424 
L 25.653886 -217.614886 
L 20.8978 -245.650424 
L 16.141713 -203.597118 
L 11.385626 -189.579349 
z
" style="stroke: #d10214; stroke-opacity: 0.618182"/>
    </defs>
    <g clip-path="url(#pcd1771cfa2)">
     <use xlink:href="#m53157b9b80" x="0" y="337.40125" style="fill: #d10214; fill-opacity: 0.618182; stroke: #d10214; stroke-opacity: 0.618182"/>
    </g>
   </g>
   <g id="line2d_21">
    <path d="M 11.385626 147.821901 
L 16.141713 147.821901 
L 20.8978 147.821901 
L 25.653886 147.821901 
L 30.409973 147.821901 
L 35.16606 147.821901 
L 39.922147 147.821901 
L 44.678234 147.821901 
L 49.43432 147.821901 
L 54.190407 147.821901 
L 58.946494 147.821901 
L 63.702581 147.821901 
L 68.458668 147.821901 
L 73.214755 147.821901 
L 77.970841 147.821901 
L 82.726928 147.821901 
L 87.483015 147.821901 
L 92.239102 147.821901 
L 96.995189 147.821901 
L 101.751275 147.821901 
L 106.507362 147.821901 
L 111.263449 147.821901 
" clip-path="url(#pcd1771cfa2)" style="fill: none; stroke: #d10214; stroke-opacity: 0.618182; stroke-width: 1.5; stroke-linecap: square"/>
   </g>
   <g id="line2d_22">
    <path d="M 11.385626 147.821901 
L 16.141713 133.804132 
L 20.8978 91.750826 
L 25.653886 119.786364 
L 30.409973 91.750826 
L 35.16606 147.821901 
L 39.922147 105.768595 
L 44.678234 133.804132 
L 49.43432 133.804132 
L 54.190407 147.821901 
L 58.946494 147.821901 
L 63.702581 147.821901 
L 68.458668 133.804132 
L 73.214755 147.821901 
L 77.970841 147.821901 
L 82.726928 147.821901 
L 87.483015 147.821901 
L 92.239102 147.821901 
L 96.995189 147.821901 
L 101.751275 147.821901 
L 106.507362 133.804132 
L 111.263449 147.821901 
" clip-path="url(#pcd1771cfa2)" style="fill: none; stroke: #000000; stroke-opacity: 0.618182; stroke-width: 1.5; stroke-linecap: square"/>
   </g>
  </g>
  <g id="axes_10">
   <g id="FillBetweenPolyCollection_9">
    <defs>
     <path id="m585a120dde" d="M 7.141357 -177.901167 
L 7.141357 -177.901167 
L 13.598345 -177.901167 
L 20.055334 -177.901167 
L 26.512323 -177.901167 
L 32.969311 -177.901167 
L 39.4263 -177.901167 
L 45.883289 -177.901167 
L 52.340277 -177.901167 
L 58.797266 -177.901167 
L 65.254255 -177.901167 
L 71.711243 -177.901167 
L 78.168232 -177.901167 
L 84.62522 -177.901167 
L 91.082209 -177.901167 
L 97.539198 -177.901167 
L 103.996186 -177.901167 
L 110.453175 -177.901167 
L 116.910164 -177.901167 
L 123.367152 -177.901167 
L 129.824141 -177.901167 
L 136.28113 -177.901167 
L 142.738118 -177.901167 
L 142.738118 -177.901167 
L 142.738118 -177.901167 
L 136.28113 -191.918936 
L 129.824141 -177.901167 
L 123.367152 -177.901167 
L 116.910164 -177.901167 
L 110.453175 -177.901167 
L 103.996186 -177.901167 
L 97.539198 -177.901167 
L 91.082209 -191.918936 
L 84.62522 -177.901167 
L 78.168232 -177.901167 
L 71.711243 -177.901167 
L 65.254255 -177.901167 
L 58.797266 -191.918936 
L 52.340277 -191.918936 
L 45.883289 -177.901167 
L 39.4263 -191.918936 
L 32.969311 -233.972242 
L 26.512323 -233.972242 
L 20.055334 -219.954473 
L 13.598345 -205.936705 
L 7.141357 -177.901167 
z
" style="stroke: #d10214; stroke-opacity: 0.645455"/>
    </defs>
    <g clip-path="url(#pfd2131a539)">
     <use xlink:href="#m585a120dde" x="0" y="337.40125" style="fill: #d10214; fill-opacity: 0.645455; stroke: #d10214; stroke-opacity: 0.645455"/>
    </g>
   </g>
   <g id="line2d_23">
    <path d="M 7.141357 159.500083 
L 13.598345 159.500083 
L 20.055334 159.500083 
L 26.512323 159.500083 
L 32.969311 159.500083 
L 39.4263 159.500083 
L 45.883289 159.500083 
L 52.340277 159.500083 
L 58.797266 159.500083 
L 65.254255 159.500083 
L 71.711243 159.500083 
L 78.168232 159.500083 
L 84.62522 159.500083 
L 91.082209 159.500083 
L 97.539198 159.500083 
L 103.996186 159.500083 
L 110.453175 159.500083 
L 116.910164 159.500083 
L 123.367152 159.500083 
L 129.824141 159.500083 
L 136.28113 159.500083 
L 142.738118 159.500083 
" clip-path="url(#pfd2131a539)" style="fill: none; stroke: #d10214; stroke-opacity: 0.645455; stroke-width: 1.5; stroke-linecap: square"/>
   </g>
   <g id="line2d_24">
    <path d="M 7.141357 159.500083 
L 13.598345 131.464545 
L 20.055334 117.446777 
L 26.512323 103.429008 
L 32.969311 103.429008 
L 39.4263 145.482314 
L 45.883289 159.500083 
L 52.340277 145.482314 
L 58.797266 145.482314 
L 65.254255 159.500083 
L 71.711243 159.500083 
L 78.168232 159.500083 
L 84.62522 159.500083 
L 91.082209 145.482314 
L 97.539198 159.500083 
L 103.996186 159.500083 
L 110.453175 159.500083 
L 116.910164 159.500083 
L 123.367152 159.500083 
L 129.824141 159.500083 
L 136.28113 145.482314 
L 142.738118 159.500083 
" clip-path="url(#pfd2131a539)" style="fill: none; stroke: #000000; stroke-opacity: 0.645455; stroke-width: 1.5; stroke-linecap: square"/>
   </g>
  </g>
  <g id="axes_11">
   <g id="FillBetweenPolyCollection_10">
    <defs>
     <path id="m3f2316d185" d="M 4.498421 -166.222986 
L 4.498421 -166.222986 
L 12.408513 -166.222986 
L 20.318605 -166.222986 
L 28.228696 -166.222986 
L 36.138788 -166.222986 
L 44.04888 -166.222986 
L 51.958972 -166.222986 
L 59.869064 -166.222986 
L 67.779155 -166.222986 
L 75.689247 -166.222986 
L 83.599339 -166.222986 
L 91.509431 -166.222986 
L 99.419523 -166.222986 
L 107.329615 -166.222986 
L 115.239706 -166.222986 
L 123.149798 -166.222986 
L 131.05989 -166.222986 
L 138.969982 -166.222986 
L 146.880074 -166.222986 
L 154.790165 -166.222986 
L 162.700257 -166.222986 
L 170.610349 -166.222986 
L 170.610349 -166.222986 
L 170.610349 -166.222986 
L 162.700257 -177.4372 
L 154.790165 -166.222986 
L 146.880074 -166.222986 
L 138.969982 -166.222986 
L 131.05989 -166.222986 
L 123.149798 -166.222986 
L 115.239706 -166.222986 
L 107.329615 -166.222986 
L 99.419523 -177.4372 
L 91.509431 -166.222986 
L 83.599339 -166.222986 
L 75.689247 -166.222986 
L 67.779155 -166.222986 
L 59.869064 -177.4372 
L 51.958972 -188.651415 
L 44.04888 -166.222986 
L 36.138788 -211.079845 
L 28.228696 -222.29406 
L 20.318605 -199.86563 
L 12.408513 -177.4372 
L 4.498421 -166.222986 
z
" style="stroke: #d10214; stroke-opacity: 0.672727"/>
    </defs>
    <g clip-path="url(#pd70ecc7be5)">
     <use xlink:href="#m3f2316d185" x="0" y="337.40125" style="fill: #d10214; fill-opacity: 0.672727; stroke: #d10214; stroke-opacity: 0.672727"/>
    </g>
   </g>
   <g id="line2d_25">
    <path d="M 4.498421 171.178264 
L 12.408513 171.178264 
L 20.318605 171.178264 
L 28.228696 171.178264 
L 36.138788 171.178264 
L 44.04888 171.178264 
L 51.958972 171.178264 
L 59.869064 171.178264 
L 67.779155 171.178264 
L 75.689247 171.178264 
L 83.599339 171.178264 
L 91.509431 171.178264 
L 99.419523 171.178264 
L 107.329615 171.178264 
L 115.239706 171.178264 
L 123.149798 171.178264 
L 131.05989 171.178264 
L 138.969982 171.178264 
L 146.880074 171.178264 
L 154.790165 171.178264 
L 162.700257 171.178264 
L 170.610349 171.178264 
" clip-path="url(#pd70ecc7be5)" style="fill: none; stroke: #d10214; stroke-opacity: 0.672727; stroke-width: 1.5; stroke-linecap: square"/>
   </g>
   <g id="line2d_26">
    <path d="M 4.498421 171.178264 
L 12.408513 159.96405 
L 20.318605 137.53562 
L 28.228696 115.10719 
L 36.138788 126.321405 
L 44.04888 171.178264 
L 51.958972 148.749835 
L 59.869064 159.96405 
L 67.779155 171.178264 
L 75.689247 171.178264 
L 83.599339 171.178264 
L 91.509431 171.178264 
L 99.419523 159.96405 
L 107.329615 171.178264 
L 115.239706 171.178264 
L 123.149798 171.178264 
L 131.05989 171.178264 
L 138.969982 171.178264 
L 146.880074 171.178264 
L 154.790165 171.178264 
L 162.700257 159.96405 
L 170.610349 171.178264 
" clip-path="url(#pd70ecc7be5)" style="fill: none; stroke: #000000; stroke-opacity: 0.672727; stroke-width: 1.5; stroke-linecap: square"/>
   </g>
  </g>
  <g id="axes_12">
   <g id="FillBetweenPolyCollection_11">
    <defs>
     <path id="m4944597c87" d="M 4.110527 -154.544804 
L 4.110527 -154.544804 
L 12.295069 -154.544804 
L 20.479611 -154.544804 
L 28.664153 -154.544804 
L 36.848695 -154.544804 
L 45.033237 -154.544804 
L 53.217779 -154.544804 
L 61.402321 -154.544804 
L 69.586863 -154.544804 
L 77.771405 -154.544804 
L 85.955947 -154.544804 
L 94.140488 -154.544804 
L 102.32503 -154.544804 
L 110.509572 -154.544804 
L 118.694114 -154.544804 
L 126.878656 -154.544804 
L 135.063198 -154.544804 
L 143.24774 -154.544804 
L 151.432282 -154.544804 
L 159.616824 -154.544804 
L 167.801366 -154.544804 
L 175.985908 -154.544804 
L 175.985908 -154.544804 
L 175.985908 -154.544804 
L 167.801366 -162.554957 
L 159.616824 -154.544804 
L 151.432282 -154.544804 
L 143.24774 -154.544804 
L 135.063198 -154.544804 
L 126.878656 -154.544804 
L 118.694114 -154.544804 
L 110.509572 -154.544804 
L 102.32503 -154.544804 
L 94.140488 -162.554957 
L 85.955947 -154.544804 
L 77.771405 -154.544804 
L 69.586863 -162.554957 
L 61.402321 -162.554957 
L 53.217779 -162.554957 
L 45.033237 -162.554957 
L 36.848695 -162.554957 
L 28.664153 -210.615878 
L 20.479611 -178.575264 
L 12.295069 -162.554957 
L 4.110527 -154.544804 
z
" style="stroke: #d10214; stroke-opacity: 0.7"/>
    </defs>
    <g clip-path="url(#p0ebf151a7d)">
     <use xlink:href="#m4944597c87" x="0" y="337.40125" style="fill: #d10214; fill-opacity: 0.7; stroke: #d10214; stroke-opacity: 0.7"/>
    </g>
   </g>
   <g id="line2d_27">
    <path d="M 4.110527 182.856446 
L 12.295069 182.856446 
L 20.479611 182.856446 
L 28.664153 182.856446 
L 36.848695 182.856446 
L 45.033237 182.856446 
L 53.217779 182.856446 
L 61.402321 182.856446 
L 69.586863 182.856446 
L 77.771405 182.856446 
L 85.955947 182.856446 
L 94.140488 182.856446 
L 102.32503 182.856446 
L 110.509572 182.856446 
L 118.694114 182.856446 
L 126.878656 182.856446 
L 135.063198 182.856446 
L 143.24774 182.856446 
L 151.432282 182.856446 
L 159.616824 182.856446 
L 167.801366 182.856446 
L 175.985908 182.856446 
" clip-path="url(#p0ebf151a7d)" style="fill: none; stroke: #d10214; stroke-opacity: 0.7; stroke-width: 1.5; stroke-linecap: square"/>
   </g>
   <g id="line2d_28">
    <path d="M 4.110527 182.856446 
L 12.295069 174.846293 
L 20.479611 158.825986 
L 28.664153 126.785372 
L 36.848695 174.846293 
L 45.033237 174.846293 
L 53.217779 174.846293 
L 61.402321 174.846293 
L 69.586863 174.846293 
L 77.771405 182.856446 
L 85.955947 182.856446 
L 94.140488 174.846293 
L 102.32503 182.856446 
L 110.509572 182.856446 
L 118.694114 182.856446 
L 126.878656 182.856446 
L 135.063198 182.856446 
L 143.24774 182.856446 
L 151.432282 182.856446 
L 159.616824 182.856446 
L 167.801366 174.846293 
L 175.985908 182.856446 
" clip-path="url(#p0ebf151a7d)" style="fill: none; stroke: #000000; stroke-opacity: 0.7; stroke-width: 1.5; stroke-linecap: square"/>
   </g>
  </g>
  <g id="axes_13">
   <g id="FillBetweenPolyCollection_12">
    <defs>
     <path id="m8737c47760" d="M 2.706435 -142.866622 
L 2.706435 -142.866622 
L 11.254365 -142.866622 
L 19.802295 -142.866622 
L 28.350225 -142.866622 
L 36.898155 -142.866622 
L 45.446085 -142.866622 
L 53.994015 -142.866622 
L 62.541945 -142.866622 
L 71.089875 -142.866622 
L 79.637805 -142.866622 
L 88.185735 -142.866622 
L 96.733665 -142.866622 
L 105.281595 -142.866622 
L 113.829525 -142.866622 
L 122.377455 -142.866622 
L 130.925385 -142.866622 
L 139.473315 -142.866622 
L 148.021245 -142.866622 
L 156.569175 -142.866622 
L 165.117105 -142.866622 
L 173.665035 -142.866622 
L 182.212965 -142.866622 
L 182.212965 -142.866622 
L 182.212965 -142.866622 
L 173.665035 -149.096741 
L 165.117105 -142.866622 
L 156.569175 -142.866622 
L 148.021245 -142.866622 
L 139.473315 -142.866622 
L 130.925385 -142.866622 
L 122.377455 -142.866622 
L 113.829525 -142.866622 
L 105.281595 -149.096741 
L 96.733665 -142.866622 
L 88.185735 -142.866622 
L 79.637805 -149.096741 
L 71.089875 -155.326861 
L 62.541945 -149.096741 
L 53.994015 -142.866622 
L 45.446085 -142.866622 
L 36.898155 -142.866622 
L 28.350225 -198.937696 
L 19.802295 -155.326861 
L 11.254365 -149.096741 
L 2.706435 -142.866622 
z
" style="stroke: #d10214; stroke-opacity: 0.727273"/>
    </defs>
    <g clip-path="url(#p80d9f31e19)">
     <use xlink:href="#m8737c47760" x="0" y="337.40125" style="fill: #d10214; fill-opacity: 0.727273; stroke: #d10214; stroke-opacity: 0.727273"/>
    </g>
   </g>
   <g id="line2d_29">
    <path d="M 2.706435 194.534628 
L 11.254365 194.534628 
L 19.802295 194.534628 
L 28.350225 194.534628 
L 36.898155 194.534628 
L 45.446085 194.534628 
L 53.994015 194.534628 
L 62.541945 194.534628 
L 71.089875 194.534628 
L 79.637805 194.534628 
L 88.185735 194.534628 
L 96.733665 194.534628 
L 105.281595 194.534628 
L 113.829525 194.534628 
L 122.377455 194.534628 
L 130.925385 194.534628 
L 139.473315 194.534628 
L 148.021245 194.534628 
L 156.569175 194.534628 
L 165.117105 194.534628 
L 173.665035 194.534628 
L 182.212965 194.534628 
" clip-path="url(#p80d9f31e19)" style="fill: none; stroke: #d10214; stroke-opacity: 0.727273; stroke-width: 1.5; stroke-linecap: square"/>
   </g>
   <g id="line2d_30">
    <path d="M 2.706435 194.534628 
L 11.254365 188.304509 
L 19.802295 182.074389 
L 28.350225 138.463554 
L 36.898155 194.534628 
L 45.446085 194.534628 
L 53.994015 194.534628 
L 62.541945 188.304509 
L 71.089875 182.074389 
L 79.637805 188.304509 
L 88.185735 194.534628 
L 96.733665 194.534628 
L 105.281595 188.304509 
L 113.829525 194.534628 
L 122.377455 194.534628 
L 130.925385 194.534628 
L 139.473315 194.534628 
L 148.021245 194.534628 
L 156.569175 194.534628 
L 165.117105 194.534628 
L 173.665035 188.304509 
L 182.212965 194.534628 
" clip-path="url(#p80d9f31e19)" style="fill: none; stroke: #000000; stroke-opacity: 0.727273; stroke-width: 1.5; stroke-linecap: square"/>
   </g>
  </g>
  <g id="axes_14">
   <g id="FillBetweenPolyCollection_13">
    <defs>
     <path id="m1ee8dbbbbc" d="M 3.619622 -131.18844 
L 3.619622 -131.18844 
L 11.653538 -131.18844 
L 19.687454 -131.18844 
L 27.72137 -131.18844 
L 35.755287 -131.18844 
L 43.789203 -131.18844 
L 51.823119 -131.18844 
L 59.857036 -131.18844 
L 67.890952 -131.18844 
L 75.924868 -131.18844 
L 83.958784 -131.18844 
L 91.992701 -131.18844 
L 100.026617 -131.18844 
L 108.060533 -131.18844 
L 116.094449 -131.18844 
L 124.128366 -131.18844 
L 132.162282 -131.18844 
L 140.196198 -131.18844 
L 148.230115 -131.18844 
L 156.264031 -131.18844 
L 164.297947 -131.18844 
L 172.331863 -131.18844 
L 172.331863 -131.18844 
L 172.331863 -131.18844 
L 164.297947 -145.206209 
L 156.264031 -131.18844 
L 148.230115 -131.18844 
L 140.196198 -131.18844 
L 132.162282 -131.18844 
L 124.128366 -131.18844 
L 116.094449 -145.206209 
L 108.060533 -131.18844 
L 100.026617 -131.18844 
L 91.992701 -131.18844 
L 83.958784 -145.206209 
L 75.924868 -131.18844 
L 67.890952 -145.206209 
L 59.857036 -145.206209 
L 51.823119 -159.223977 
L 43.789203 -145.206209 
L 35.755287 -187.259514 
L 27.72137 -187.259514 
L 19.687454 -145.206209 
L 11.653538 -145.206209 
L 3.619622 -131.18844 
z
" style="stroke: #d10214; stroke-opacity: 0.754545"/>
    </defs>
    <g clip-path="url(#p9b9fa2c5bc)">
     <use xlink:href="#m1ee8dbbbbc" x="0" y="337.40125" style="fill: #d10214; fill-opacity: 0.754545; stroke: #d10214; stroke-opacity: 0.754545"/>
    </g>
   </g>
   <g id="line2d_31">
    <path d="M 3.619622 206.21281 
L 11.653538 206.21281 
L 19.687454 206.21281 
L 27.72137 206.21281 
L 35.755287 206.21281 
L 43.789203 206.21281 
L 51.823119 206.21281 
L 59.857036 206.21281 
L 67.890952 206.21281 
L 75.924868 206.21281 
L 83.958784 206.21281 
L 91.992701 206.21281 
L 100.026617 206.21281 
L 108.060533 206.21281 
L 116.094449 206.21281 
L 124.128366 206.21281 
L 132.162282 206.21281 
L 140.196198 206.21281 
L 148.230115 206.21281 
L 156.264031 206.21281 
L 164.297947 206.21281 
L 172.331863 206.21281 
" clip-path="url(#p9b9fa2c5bc)" style="fill: none; stroke: #d10214; stroke-opacity: 0.754545; stroke-width: 1.5; stroke-linecap: square"/>
   </g>
   <g id="line2d_32">
    <path d="M 3.619622 206.21281 
L 11.653538 192.195041 
L 19.687454 192.195041 
L 27.72137 150.141736 
L 35.755287 150.141736 
L 43.789203 192.195041 
L 51.823119 178.177273 
L 59.857036 192.195041 
L 67.890952 192.195041 
L 75.924868 206.21281 
L 83.958784 192.195041 
L 91.992701 206.21281 
L 100.026617 206.21281 
L 108.060533 206.21281 
L 116.094449 192.195041 
L 124.128366 206.21281 
L 132.162282 206.21281 
L 140.196198 206.21281 
L 148.230115 206.21281 
L 156.264031 206.21281 
L 164.297947 192.195041 
L 172.331863 206.21281 
" clip-path="url(#p9b9fa2c5bc)" style="fill: none; stroke: #000000; stroke-opacity: 0.754545; stroke-width: 1.5; stroke-linecap: square"/>
   </g>
  </g>
  <g id="axes_15">
   <g id="FillBetweenPolyCollection_14">
    <defs>
     <path id="mce1b251f82" d="M 9.367053 -119.510258 
L 9.367053 -119.510258 
L 20.588363 -119.510258 
L 31.809674 -119.510258 
L 43.030984 -119.510258 
L 54.252295 -119.510258 
L 65.473605 -119.510258 
L 76.694915 -119.510258 
L 87.916226 -119.510258 
L 99.137536 -119.510258 
L 110.358847 -119.510258 
L 121.580157 -119.510258 
L 132.801468 -119.510258 
L 144.022778 -119.510258 
L 155.244089 -119.510258 
L 166.465399 -119.510258 
L 177.68671 -119.510258 
L 188.90802 -119.510258 
L 200.12933 -119.510258 
L 211.350641 -119.510258 
L 222.571951 -119.510258 
L 233.793262 -119.510258 
L 245.014572 -119.510258 
L 245.014572 -119.510258 
L 245.014572 -119.510258 
L 233.793262 -128.855437 
L 222.571951 -119.510258 
L 211.350641 -119.510258 
L 200.12933 -119.510258 
L 188.90802 -119.510258 
L 177.68671 -119.510258 
L 166.465399 -128.855437 
L 155.244089 -119.510258 
L 144.022778 -119.510258 
L 132.801468 -119.510258 
L 121.580157 -119.510258 
L 110.358847 -138.200616 
L 99.137536 -119.510258 
L 87.916226 -128.855437 
L 76.694915 -119.510258 
L 65.473605 -138.200616 
L 54.252295 -119.510258 
L 43.030984 -156.890975 
L 31.809674 -175.581333 
L 20.588363 -128.855437 
L 9.367053 -119.510258 
z
" style="stroke: #d10214; stroke-opacity: 0.781818"/>
    </defs>
    <g clip-path="url(#p9ff3f9aac1)">
     <use xlink:href="#mce1b251f82" x="0" y="337.40125" style="fill: #d10214; fill-opacity: 0.781818; stroke: #d10214; stroke-opacity: 0.781818"/>
    </g>
   </g>
   <g id="line2d_33">
    <path d="M 9.367053 217.890992 
L 20.588363 217.890992 
L 31.809674 217.890992 
L 43.030984 217.890992 
L 54.252295 217.890992 
L 65.473605 217.890992 
L 76.694915 217.890992 
L 87.916226 217.890992 
L 99.137536 217.890992 
L 110.358847 217.890992 
L 121.580157 217.890992 
L 132.801468 217.890992 
L 144.022778 217.890992 
L 155.244089 217.890992 
L 166.465399 217.890992 
L 177.68671 217.890992 
L 188.90802 217.890992 
L 200.12933 217.890992 
L 211.350641 217.890992 
L 222.571951 217.890992 
L 233.793262 217.890992 
L 245.014572 217.890992 
" clip-path="url(#p9ff3f9aac1)" style="fill: none; stroke: #d10214; stroke-opacity: 0.781818; stroke-width: 1.5; stroke-linecap: square"/>
   </g>
   <g id="line2d_34">
    <path d="M 9.367053 217.890992 
L 20.588363 208.545813 
L 31.809674 161.819917 
L 43.030984 180.510275 
L 54.252295 217.890992 
L 65.473605 199.200634 
L 76.694915 217.890992 
L 87.916226 208.545813 
L 99.137536 217.890992 
L 110.358847 199.200634 
L 121.580157 217.890992 
L 132.801468 217.890992 
L 144.022778 217.890992 
L 155.244089 217.890992 
L 166.465399 208.545813 
L 177.68671 217.890992 
L 188.90802 217.890992 
L 200.12933 217.890992 
L 211.350641 217.890992 
L 222.571951 217.890992 
L 233.793262 208.545813 
L 245.014572 217.890992 
" clip-path="url(#p9ff3f9aac1)" style="fill: none; stroke: #000000; stroke-opacity: 0.781818; stroke-width: 1.5; stroke-linecap: square"/>
   </g>
  </g>
  <g id="axes_16">
   <g id="FillBetweenPolyCollection_15">
    <defs>
     <path id="m26054ed253" d="M 7.549763 -107.832076 
L 7.549763 -107.832076 
L 18.487041 -107.832076 
L 29.424319 -107.832076 
L 40.361596 -107.832076 
L 51.298874 -107.832076 
L 62.236152 -107.832076 
L 73.17343 -107.832076 
L 84.110708 -107.832076 
L 95.047985 -107.832076 
L 105.985263 -107.832076 
L 116.922541 -107.832076 
L 127.859819 -107.832076 
L 138.797097 -107.832076 
L 149.734375 -107.832076 
L 160.671652 -107.832076 
L 171.60893 -107.832076 
L 182.546208 -107.832076 
L 193.483486 -107.832076 
L 204.420764 -107.832076 
L 215.358041 -107.832076 
L 226.295319 -107.832076 
L 237.232597 -107.832076 
L 237.232597 -107.832076 
L 237.232597 -107.832076 
L 226.295319 -126.522435 
L 215.358041 -107.832076 
L 204.420764 -107.832076 
L 193.483486 -107.832076 
L 182.546208 -126.522435 
L 171.60893 -107.832076 
L 160.671652 -107.832076 
L 149.734375 -107.832076 
L 138.797097 -126.522435 
L 127.859819 -126.522435 
L 116.922541 -107.832076 
L 105.985263 -107.832076 
L 95.047985 -145.212793 
L 84.110708 -126.522435 
L 73.17343 -145.212793 
L 62.236152 -126.522435 
L 51.298874 -163.903151 
L 40.361596 -145.212793 
L 29.424319 -145.212793 
L 18.487041 -126.522435 
L 7.549763 -107.832076 
z
" style="stroke: #d10214; stroke-opacity: 0.809091"/>
    </defs>
    <g clip-path="url(#pb4caa409f0)">
     <use xlink:href="#m26054ed253" x="0" y="337.40125" style="fill: #d10214; fill-opacity: 0.809091; stroke: #d10214; stroke-opacity: 0.809091"/>
    </g>
   </g>
   <g id="line2d_35">
    <path d="M 7.549763 229.569174 
L 18.487041 229.569174 
L 29.424319 229.569174 
L 40.361596 229.569174 
L 51.298874 229.569174 
L 62.236152 229.569174 
L 73.17343 229.569174 
L 84.110708 229.569174 
L 95.047985 229.569174 
L 105.985263 229.569174 
L 116.922541 229.569174 
L 127.859819 229.569174 
L 138.797097 229.569174 
L 149.734375 229.569174 
L 160.671652 229.569174 
L 171.60893 229.569174 
L 182.546208 229.569174 
L 193.483486 229.569174 
L 204.420764 229.569174 
L 215.358041 229.569174 
L 226.295319 229.569174 
L 237.232597 229.569174 
" clip-path="url(#pb4caa409f0)" style="fill: none; stroke: #d10214; stroke-opacity: 0.809091; stroke-width: 1.5; stroke-linecap: square"/>
   </g>
   <g id="line2d_36">
    <path d="M 7.549763 229.569174 
L 18.487041 210.878815 
L 29.424319 192.188457 
L 40.361596 192.188457 
L 51.298874 173.498099 
L 62.236152 210.878815 
L 73.17343 192.188457 
L 84.110708 210.878815 
L 95.047985 192.188457 
L 105.985263 229.569174 
L 116.922541 229.569174 
L 127.859819 210.878815 
L 138.797097 210.878815 
L 149.734375 229.569174 
L 160.671652 229.569174 
L 171.60893 229.569174 
L 182.546208 210.878815 
L 193.483486 229.569174 
L 204.420764 229.569174 
L 215.358041 229.569174 
L 226.295319 210.878815 
L 237.232597 229.569174 
" clip-path="url(#pb4caa409f0)" style="fill: none; stroke: #000000; stroke-opacity: 0.809091; stroke-width: 1.5; stroke-linecap: square"/>
   </g>
  </g>
  <g id="axes_17">
   <g id="FillBetweenPolyCollection_16">
    <defs>
     <path id="mdc27b61ac8" d="M 0.191666 -96.153895 
L 0.191666 -96.153895 
L 11.397704 -96.153895 
L 22.603742 -96.153895 
L 33.80978 -96.153895 
L 45.015819 -96.153895 
L 56.221857 -96.153895 
L 67.427895 -96.153895 
L 78.633934 -96.153895 
L 89.839972 -96.153895 
L 101.04601 -96.153895 
L 112.252048 -96.153895 
L 123.458087 -96.153895 
L 134.664125 -96.153895 
L 145.870163 -96.153895 
L 157.076201 -96.153895 
L 168.28224 -96.153895 
L 179.488278 -96.153895 
L 190.694316 -96.153895 
L 201.900355 -96.153895 
L 213.106393 -96.153895 
L 224.312431 -96.153895 
L 235.518469 -96.153895 
L 235.518469 -96.153895 
L 235.518469 -96.153895 
L 224.312431 -107.36811 
L 213.106393 -96.153895 
L 201.900355 -96.153895 
L 190.694316 -107.36811 
L 179.488278 -96.153895 
L 168.28224 -107.36811 
L 157.076201 -96.153895 
L 145.870163 -96.153895 
L 134.664125 -96.153895 
L 123.458087 -96.153895 
L 112.252048 -107.36811 
L 101.04601 -96.153895 
L 89.839972 -96.153895 
L 78.633934 -107.36811 
L 67.427895 -152.224969 
L 56.221857 -96.153895 
L 45.015819 -129.796539 
L 33.80978 -118.582324 
L 22.603742 -118.582324 
L 11.397704 -107.36811 
L 0.191666 -96.153895 
z
" style="stroke: #d10214; stroke-opacity: 0.836364"/>
    </defs>
    <g clip-path="url(#p218daf1725)">
     <use xlink:href="#mdc27b61ac8" x="0" y="337.40125" style="fill: #d10214; fill-opacity: 0.836364; stroke: #d10214; stroke-opacity: 0.836364"/>
    </g>
   </g>
   <g id="line2d_37">
    <path d="M 0.191666 241.247355 
L 11.397704 241.247355 
L 22.603742 241.247355 
L 33.80978 241.247355 
L 45.015819 241.247355 
L 56.221857 241.247355 
L 67.427895 241.247355 
L 78.633934 241.247355 
L 89.839972 241.247355 
L 101.04601 241.247355 
L 112.252048 241.247355 
L 123.458087 241.247355 
L 134.664125 241.247355 
L 145.870163 241.247355 
L 157.076201 241.247355 
L 168.28224 241.247355 
L 179.488278 241.247355 
L 190.694316 241.247355 
L 201.900355 241.247355 
L 213.106393 241.247355 
L 224.312431 241.247355 
L 235.518469 241.247355 
" clip-path="url(#p218daf1725)" style="fill: none; stroke: #d10214; stroke-opacity: 0.836364; stroke-width: 1.5; stroke-linecap: square"/>
   </g>
   <g id="line2d_38">
    <path d="M 0.191666 241.247355 
L 11.397704 230.03314 
L 22.603742 218.818926 
L 33.80978 218.818926 
L 45.015819 207.604711 
L 56.221857 241.247355 
L 67.427895 185.176281 
L 78.633934 230.03314 
L 89.839972 241.247355 
L 101.04601 241.247355 
L 112.252048 230.03314 
L 123.458087 241.247355 
L 134.664125 241.247355 
L 145.870163 241.247355 
L 157.076201 241.247355 
L 168.28224 230.03314 
L 179.488278 241.247355 
L 190.694316 230.03314 
L 201.900355 241.247355 
L 213.106393 241.247355 
L 224.312431 230.03314 
L 235.518469 241.247355 
" clip-path="url(#p218daf1725)" style="fill: none; stroke: #000000; stroke-opacity: 0.836364; stroke-width: 1.5; stroke-linecap: square"/>
   </g>
  </g>
  <g id="axes_18">
   <g id="FillBetweenPolyCollection_17">
    <defs>
     <path id="m2f0b027d40" d="M 6.77153 -84.475713 
L 6.77153 -84.475713 
L 18.772171 -84.475713 
L 30.772812 -84.475713 
L 42.773453 -84.475713 
L 54.774094 -84.475713 
L 66.774735 -84.475713 
L 78.775376 -84.475713 
L 90.776017 -84.475713 
L 102.776658 -84.475713 
L 114.777299 -84.475713 
L 126.77794 -84.475713 
L 138.77858 -84.475713 
L 150.779221 -84.475713 
L 162.779862 -84.475713 
L 174.780503 -84.475713 
L 186.781144 -84.475713 
L 198.781785 -84.475713 
L 210.782426 -84.475713 
L 222.783067 -84.475713 
L 234.783708 -84.475713 
L 246.784349 -84.475713 
L 258.78499 -84.475713 
L 258.78499 -84.475713 
L 258.78499 -84.475713 
L 246.784349 -98.493481 
L 234.783708 -84.475713 
L 222.783067 -84.475713 
L 210.782426 -84.475713 
L 198.781785 -84.475713 
L 186.781144 -84.475713 
L 174.780503 -98.493481 
L 162.779862 -98.493481 
L 150.779221 -84.475713 
L 138.77858 -84.475713 
L 126.77794 -84.475713 
L 114.777299 -98.493481 
L 102.776658 -84.475713 
L 90.776017 -98.493481 
L 78.775376 -112.51125 
L 66.774735 -112.51125 
L 54.774094 -112.51125 
L 42.773453 -140.546787 
L 30.772812 -112.51125 
L 18.772171 -98.493481 
L 6.77153 -84.475713 
z
" style="stroke: #d10214; stroke-opacity: 0.863636"/>
    </defs>
    <g clip-path="url(#p5fe22eca14)">
     <use xlink:href="#m2f0b027d40" x="0" y="337.40125" style="fill: #d10214; fill-opacity: 0.863636; stroke: #d10214; stroke-opacity: 0.863636"/>
    </g>
   </g>
   <g id="line2d_39">
    <path d="M 6.77153 252.925537 
L 18.772171 252.925537 
L 30.772812 252.925537 
L 42.773453 252.925537 
L 54.774094 252.925537 
L 66.774735 252.925537 
L 78.775376 252.925537 
L 90.776017 252.925537 
L 102.776658 252.925537 
L 114.777299 252.925537 
L 126.77794 252.925537 
L 138.77858 252.925537 
L 150.779221 252.925537 
L 162.779862 252.925537 
L 174.780503 252.925537 
L 186.781144 252.925537 
L 198.781785 252.925537 
L 210.782426 252.925537 
L 222.783067 252.925537 
L 234.783708 252.925537 
L 246.784349 252.925537 
L 258.78499 252.925537 
" clip-path="url(#p5fe22eca14)" style="fill: none; stroke: #d10214; stroke-opacity: 0.863636; stroke-width: 1.5; stroke-linecap: square"/>
   </g>
   <g id="line2d_40">
    <path d="M 6.77153 252.925537 
L 18.772171 238.907769 
L 30.772812 224.89 
L 42.773453 196.854463 
L 54.774094 224.89 
L 66.774735 224.89 
L 78.775376 224.89 
L 90.776017 238.907769 
L 102.776658 252.925537 
L 114.777299 238.907769 
L 126.77794 252.925537 
L 138.77858 252.925537 
L 150.779221 252.925537 
L 162.779862 238.907769 
L 174.780503 238.907769 
L 186.781144 252.925537 
L 198.781785 252.925537 
L 210.782426 252.925537 
L 222.783067 252.925537 
L 234.783708 252.925537 
L 246.784349 238.907769 
L 258.78499 252.925537 
" clip-path="url(#p5fe22eca14)" style="fill: none; stroke: #000000; stroke-opacity: 0.863636; stroke-width: 1.5; stroke-linecap: square"/>
   </g>
  </g>
  <g id="axes_19">
   <g id="FillBetweenPolyCollection_18">
    <defs>
     <path id="ma687422dd8" d="M 2.302571 -72.797531 
L 2.302571 -72.797531 
L 13.582724 -72.797531 
L 24.862877 -72.797531 
L 36.14303 -72.797531 
L 47.423184 -72.797531 
L 58.703337 -72.797531 
L 69.98349 -72.797531 
L 81.263644 -72.797531 
L 92.543797 -72.797531 
L 103.82395 -72.797531 
L 115.104103 -72.797531 
L 126.384257 -72.797531 
L 137.66441 -72.797531 
L 148.944563 -72.797531 
L 160.224716 -72.797531 
L 171.50487 -72.797531 
L 182.785023 -72.797531 
L 194.065176 -72.797531 
L 205.34533 -72.797531 
L 216.625483 -72.797531 
L 227.905636 -72.797531 
L 239.185789 -72.797531 
L 239.185789 -72.797531 
L 239.185789 -72.797531 
L 227.905636 -91.487889 
L 216.625483 -72.797531 
L 205.34533 -72.797531 
L 194.065176 -72.797531 
L 182.785023 -72.797531 
L 171.50487 -72.797531 
L 160.224716 -91.487889 
L 148.944563 -91.487889 
L 137.66441 -91.487889 
L 126.384257 -72.797531 
L 115.104103 -72.797531 
L 103.82395 -72.797531 
L 92.543797 -72.797531 
L 81.263644 -91.487889 
L 69.98349 -128.868605 
L 58.703337 -110.178247 
L 47.423184 -110.178247 
L 36.14303 -128.868605 
L 24.862877 -110.178247 
L 13.582724 -91.487889 
L 2.302571 -72.797531 
z
" style="stroke: #d10214; stroke-opacity: 0.890909"/>
    </defs>
    <g clip-path="url(#p72223e8ba9)">
     <use xlink:href="#ma687422dd8" x="0" y="337.40125" style="fill: #d10214; fill-opacity: 0.890909; stroke: #d10214; stroke-opacity: 0.890909"/>
    </g>
   </g>
   <g id="line2d_41">
    <path d="M 2.302571 264.603719 
L 13.582724 264.603719 
L 24.862877 264.603719 
L 36.14303 264.603719 
L 47.423184 264.603719 
L 58.703337 264.603719 
L 69.98349 264.603719 
L 81.263644 264.603719 
L 92.543797 264.603719 
L 103.82395 264.603719 
L 115.104103 264.603719 
L 126.384257 264.603719 
L 137.66441 264.603719 
L 148.944563 264.603719 
L 160.224716 264.603719 
L 171.50487 264.603719 
L 182.785023 264.603719 
L 194.065176 264.603719 
L 205.34533 264.603719 
L 216.625483 264.603719 
L 227.905636 264.603719 
L 239.185789 264.603719 
" clip-path="url(#p72223e8ba9)" style="fill: none; stroke: #d10214; stroke-opacity: 0.890909; stroke-width: 1.5; stroke-linecap: square"/>
   </g>
   <g id="line2d_42">
    <path d="M 2.302571 264.603719 
L 13.582724 245.913361 
L 24.862877 227.223003 
L 36.14303 208.532645 
L 47.423184 227.223003 
L 58.703337 227.223003 
L 69.98349 208.532645 
L 81.263644 245.913361 
L 92.543797 264.603719 
L 103.82395 264.603719 
L 115.104103 264.603719 
L 126.384257 264.603719 
L 137.66441 245.913361 
L 148.944563 245.913361 
L 160.224716 245.913361 
L 171.50487 264.603719 
L 182.785023 264.603719 
L 194.065176 264.603719 
L 205.34533 264.603719 
L 216.625483 264.603719 
L 227.905636 245.913361 
L 239.185789 264.603719 
" clip-path="url(#p72223e8ba9)" style="fill: none; stroke: #000000; stroke-opacity: 0.890909; stroke-width: 1.5; stroke-linecap: square"/>
   </g>
  </g>
  <g id="axes_20">
   <g id="FillBetweenPolyCollection_19">
    <defs>
     <path id="mf20deaefdc" d="M 4.068205 -61.119349 
L 4.068205 -61.119349 
L 17.472539 -61.119349 
L 30.876873 -61.119349 
L 44.281207 -61.119349 
L 57.685541 -61.119349 
L 71.089875 -61.119349 
L 84.494209 -61.119349 
L 97.898543 -61.119349 
L 111.302877 -61.119349 
L 124.707211 -61.119349 
L 138.111545 -61.119349 
L 151.51588 -61.119349 
L 164.920214 -61.119349 
L 178.324548 -61.119349 
L 191.728882 -61.119349 
L 205.133216 -61.119349 
L 218.53755 -61.119349 
L 231.941884 -61.119349 
L 245.346218 -61.119349 
L 258.750552 -61.119349 
L 272.154886 -61.119349 
L 285.55922 -61.119349 
L 285.55922 -61.119349 
L 285.55922 -61.119349 
L 272.154886 -72.333564 
L 258.750552 -61.119349 
L 245.346218 -61.119349 
L 231.941884 -61.119349 
L 218.53755 -61.119349 
L 205.133216 -61.119349 
L 191.728882 -61.119349 
L 178.324548 -61.119349 
L 164.920214 -72.333564 
L 151.51588 -61.119349 
L 138.111545 -83.547779 
L 124.707211 -61.119349 
L 111.302877 -61.119349 
L 97.898543 -72.333564 
L 84.494209 -61.119349 
L 71.089875 -83.547779 
L 57.685541 -83.547779 
L 44.281207 -117.190424 
L 30.876873 -94.761994 
L 17.472539 -72.333564 
L 4.068205 -61.119349 
z
" style="stroke: #d10214; stroke-opacity: 0.918182"/>
    </defs>
    <g clip-path="url(#pd01ad49070)">
     <use xlink:href="#mf20deaefdc" x="0" y="337.40125" style="fill: #d10214; fill-opacity: 0.918182; stroke: #d10214; stroke-opacity: 0.918182"/>
    </g>
   </g>
   <g id="line2d_43">
    <path d="M 4.068205 276.281901 
L 17.472539 276.281901 
L 30.876873 276.281901 
L 44.281207 276.281901 
L 57.685541 276.281901 
L 71.089875 276.281901 
L 84.494209 276.281901 
L 97.898543 276.281901 
L 111.302877 276.281901 
L 124.707211 276.281901 
L 138.111545 276.281901 
L 151.51588 276.281901 
L 164.920214 276.281901 
L 178.324548 276.281901 
L 191.728882 276.281901 
L 205.133216 276.281901 
L 218.53755 276.281901 
L 231.941884 276.281901 
L 245.346218 276.281901 
L 258.750552 276.281901 
L 272.154886 276.281901 
L 285.55922 276.281901 
" clip-path="url(#pd01ad49070)" style="fill: none; stroke: #d10214; stroke-opacity: 0.918182; stroke-width: 1.5; stroke-linecap: square"/>
   </g>
   <g id="line2d_44">
    <path d="M 4.068205 276.281901 
L 17.472539 265.067686 
L 30.876873 242.639256 
L 44.281207 220.210826 
L 57.685541 253.853471 
L 71.089875 253.853471 
L 84.494209 276.281901 
L 97.898543 265.067686 
L 111.302877 276.281901 
L 124.707211 276.281901 
L 138.111545 253.853471 
L 151.51588 276.281901 
L 164.920214 265.067686 
L 178.324548 276.281901 
L 191.728882 276.281901 
L 205.133216 276.281901 
L 218.53755 276.281901 
L 231.941884 276.281901 
L 245.346218 276.281901 
L 258.750552 276.281901 
L 272.154886 265.067686 
L 285.55922 276.281901 
" clip-path="url(#pd01ad49070)" style="fill: none; stroke: #000000; stroke-opacity: 0.918182; stroke-width: 1.5; stroke-linecap: square"/>
   </g>
  </g>
  <g id="axes_21">
   <g id="FillBetweenPolyCollection_20">
    <defs>
     <path id="m01e58f683c" d="M -0.672161 -49.441167 
L -0.672161 -49.441167 
L 13.199322 -49.441167 
L 27.070805 -49.441167 
L 40.942289 -49.441167 
L 54.813772 -49.441167 
L 68.685255 -49.441167 
L 82.556738 -49.441167 
L 96.428221 -49.441167 
L 110.299705 -49.441167 
L 124.171188 -49.441167 
L 138.042671 -49.441167 
L 151.914154 -49.441167 
L 165.785637 -49.441167 
L 179.65712 -49.441167 
L 193.528604 -49.441167 
L 207.400087 -49.441167 
L 221.27157 -49.441167 
L 235.143053 -49.441167 
L 249.014536 -49.441167 
L 262.88602 -49.441167 
L 276.757503 -49.441167 
L 290.628986 -49.441167 
L 290.628986 -49.441167 
L 290.628986 -49.441167 
L 276.757503 -63.458936 
L 262.88602 -49.441167 
L 249.014536 -49.441167 
L 235.143053 -49.441167 
L 221.27157 -49.441167 
L 207.400087 -49.441167 
L 193.528604 -63.458936 
L 179.65712 -49.441167 
L 165.785637 -49.441167 
L 151.914154 -63.458936 
L 138.042671 -63.458936 
L 124.171188 -49.441167 
L 110.299705 -49.441167 
L 96.428221 -77.476705 
L 82.556738 -49.441167 
L 68.685255 -63.458936 
L 54.813772 -105.512242 
L 40.942289 -91.494473 
L 27.070805 -91.494473 
L 13.199322 -63.458936 
L -0.672161 -49.441167 
z
" style="stroke: #d10214; stroke-opacity: 0.945455"/>
    </defs>
    <g clip-path="url(#ped702ae288)">
     <use xlink:href="#m01e58f683c" x="0" y="337.40125" style="fill: #d10214; fill-opacity: 0.945455; stroke: #d10214; stroke-opacity: 0.945455"/>
    </g>
   </g>
   <g id="line2d_45">
    <path d="M -0.672161 287.960083 
L 13.199322 287.960083 
L 27.070805 287.960083 
L 40.942289 287.960083 
L 54.813772 287.960083 
L 68.685255 287.960083 
L 82.556738 287.960083 
L 96.428221 287.960083 
L 110.299705 287.960083 
L 124.171188 287.960083 
L 138.042671 287.960083 
L 151.914154 287.960083 
L 165.785637 287.960083 
L 179.65712 287.960083 
L 193.528604 287.960083 
L 207.400087 287.960083 
L 221.27157 287.960083 
L 235.143053 287.960083 
L 249.014536 287.960083 
L 262.88602 287.960083 
L 276.757503 287.960083 
L 290.628986 287.960083 
" clip-path="url(#ped702ae288)" style="fill: none; stroke: #d10214; stroke-opacity: 0.945455; stroke-width: 1.5; stroke-linecap: square"/>
   </g>
   <g id="line2d_46">
    <path d="M -0.672161 287.960083 
L 13.199322 273.942314 
L 27.070805 245.906777 
L 40.942289 245.906777 
L 54.813772 231.889008 
L 68.685255 273.942314 
L 82.556738 287.960083 
L 96.428221 259.924545 
L 110.299705 287.960083 
L 124.171188 287.960083 
L 138.042671 273.942314 
L 151.914154 273.942314 
L 165.785637 287.960083 
L 179.65712 287.960083 
L 193.528604 273.942314 
L 207.400087 287.960083 
L 221.27157 287.960083 
L 235.143053 287.960083 
L 249.014536 287.960083 
L 262.88602 287.960083 
L 276.757503 273.942314 
L 290.628986 287.960083 
" clip-path="url(#ped702ae288)" style="fill: none; stroke: #000000; stroke-opacity: 0.945455; stroke-width: 1.5; stroke-linecap: square"/>
   </g>
  </g>
  <g id="axes_22">
   <g id="FillBetweenPolyCollection_21">
    <defs>
     <path id="m247ebdc17f" d="M 2.041746 -37.762986 
L 2.041746 -37.762986 
L 15.613325 -37.762986 
L 29.184905 -37.762986 
L 42.756484 -37.762986 
L 56.328064 -37.762986 
L 69.899643 -37.762986 
L 83.471222 -37.762986 
L 97.042802 -37.762986 
L 110.614381 -37.762986 
L 124.185961 -37.762986 
L 137.75754 -37.762986 
L 151.32912 -37.762986 
L 164.900699 -37.762986 
L 178.472279 -37.762986 
L 192.043858 -37.762986 
L 205.615438 -37.762986 
L 219.187017 -37.762986 
L 232.758596 -37.762986 
L 246.330176 -37.762986 
L 259.901755 -37.762986 
L 273.473335 -37.762986 
L 287.044914 -37.762986 
L 287.044914 -37.762986 
L 287.044914 -37.762986 
L 273.473335 -48.9772 
L 259.901755 -37.762986 
L 246.330176 -37.762986 
L 232.758596 -37.762986 
L 219.187017 -37.762986 
L 205.615438 -37.762986 
L 192.043858 -37.762986 
L 178.472279 -48.9772 
L 164.900699 -37.762986 
L 151.32912 -60.191415 
L 137.75754 -37.762986 
L 124.185961 -48.9772 
L 110.614381 -48.9772 
L 97.042802 -37.762986 
L 83.471222 -48.9772 
L 69.899643 -37.762986 
L 56.328064 -93.83406 
L 42.756484 -60.191415 
L 29.184905 -71.40563 
L 15.613325 -48.9772 
L 2.041746 -37.762986 
z
" style="stroke: #d10214; stroke-opacity: 0.972727"/>
    </defs>
    <g clip-path="url(#p4f952ab1a1)">
     <use xlink:href="#m247ebdc17f" x="0" y="337.40125" style="fill: #d10214; fill-opacity: 0.972727; stroke: #d10214; stroke-opacity: 0.972727"/>
    </g>
   </g>
   <g id="line2d_47">
    <path d="M 2.041746 299.638264 
L 15.613325 299.638264 
L 29.184905 299.638264 
L 42.756484 299.638264 
L 56.328064 299.638264 
L 69.899643 299.638264 
L 83.471222 299.638264 
L 97.042802 299.638264 
L 110.614381 299.638264 
L 124.185961 299.638264 
L 137.75754 299.638264 
L 151.32912 299.638264 
L 164.900699 299.638264 
L 178.472279 299.638264 
L 192.043858 299.638264 
L 205.615438 299.638264 
L 219.187017 299.638264 
L 232.758596 299.638264 
L 246.330176 299.638264 
L 259.901755 299.638264 
L 273.473335 299.638264 
L 287.044914 299.638264 
" clip-path="url(#p4f952ab1a1)" style="fill: none; stroke: #d10214; stroke-opacity: 0.972727; stroke-width: 1.5; stroke-linecap: square"/>
   </g>
   <g id="line2d_48">
    <path d="M 2.041746 299.638264 
L 15.613325 288.42405 
L 29.184905 265.99562 
L 42.756484 277.209835 
L 56.328064 243.56719 
L 69.899643 299.638264 
L 83.471222 288.42405 
L 97.042802 299.638264 
L 110.614381 288.42405 
L 124.185961 288.42405 
L 137.75754 299.638264 
L 151.32912 277.209835 
L 164.900699 299.638264 
L 178.472279 288.42405 
L 192.043858 299.638264 
L 205.615438 299.638264 
L 219.187017 299.638264 
L 232.758596 299.638264 
L 246.330176 299.638264 
L 259.901755 299.638264 
L 273.473335 288.42405 
L 287.044914 299.638264 
" clip-path="url(#p4f952ab1a1)" style="fill: none; stroke: #000000; stroke-opacity: 0.972727; stroke-width: 1.5; stroke-linecap: square"/>
   </g>
  </g>
  <g id="axes_23">
   <g id="FillBetweenPolyCollection_22">
    <defs>
     <path id="md7cf30aee3" d="M 4.92714 -26.084804 
L 4.92714 -26.084804 
L 18.325485 -26.084804 
L 31.72383 -26.084804 
L 45.122175 -26.084804 
L 58.52052 -26.084804 
L 71.918865 -26.084804 
L 85.31721 -26.084804 
L 98.715555 -26.084804 
L 112.1139 -26.084804 
L 125.512245 -26.084804 
L 138.91059 -26.084804 
L 152.308935 -26.084804 
L 165.70728 -26.084804 
L 179.105625 -26.084804 
L 192.50397 -26.084804 
L 205.902315 -26.084804 
L 219.30066 -26.084804 
L 232.699005 -26.084804 
L 246.09735 -26.084804 
L 259.495695 -26.084804 
L 272.89404 -26.084804 
L 286.292385 -26.084804 
L 286.292385 -26.084804 
L 286.292385 -26.084804 
L 272.89404 -40.102572 
L 259.495695 -26.084804 
L 246.09735 -26.084804 
L 232.699005 -26.084804 
L 219.30066 -26.084804 
L 205.902315 -26.084804 
L 192.50397 -26.084804 
L 179.105625 -26.084804 
L 165.70728 -26.084804 
L 152.308935 -26.084804 
L 138.91059 -40.102572 
L 125.512245 -40.102572 
L 112.1139 -54.120341 
L 98.715555 -40.102572 
L 85.31721 -26.084804 
L 71.918865 -40.102572 
L 58.52052 -68.13811 
L 45.122175 -82.155878 
L 31.72383 -54.120341 
L 18.325485 -54.120341 
L 4.92714 -26.084804 
z
" style="stroke: #d10214"/>
    </defs>
    <g clip-path="url(#pe902bc1446)">
     <use xlink:href="#md7cf30aee3" x="0" y="337.40125" style="fill: #d10214; stroke: #d10214"/>
    </g>
   </g>
   <g id="line2d_49">
    <path d="M 4.92714 311.316446 
L 18.325485 311.316446 
L 31.72383 311.316446 
L 45.122175 311.316446 
L 58.52052 311.316446 
L 71.918865 311.316446 
L 85.31721 311.316446 
L 98.715555 311.316446 
L 112.1139 311.316446 
L 125.512245 311.316446 
L 138.91059 311.316446 
L 152.308935 311.316446 
L 165.70728 311.316446 
L 179.105625 311.316446 
L 192.50397 311.316446 
L 205.902315 311.316446 
L 219.30066 311.316446 
L 232.699005 311.316446 
L 246.09735 311.316446 
L 259.495695 311.316446 
L 272.89404 311.316446 
L 286.292385 311.316446 
" clip-path="url(#pe902bc1446)" style="fill: none; stroke: #d10214; stroke-width: 1.5; stroke-linecap: square"/>
   </g>
   <g id="line2d_50">
    <path d="M 4.92714 311.316446 
L 18.325485 283.280909 
L 31.72383 283.280909 
L 45.122175 255.245372 
L 58.52052 269.26314 
L 71.918865 297.298678 
L 85.31721 311.316446 
L 98.715555 297.298678 
L 112.1139 283.280909 
L 125.512245 297.298678 
L 138.91059 297.298678 
L 152.308935 311.316446 
L 165.70728 311.316446 
L 179.105625 311.316446 
L 192.50397 311.316446 
L 205.902315 311.316446 
L 219.30066 311.316446 
L 232.699005 311.316446 
L 246.09735 311.316446 
L 259.495695 311.316446 
L 272.89404 297.298678 
L 286.292385 311.316446 
" clip-path="url(#pe902bc1446)" style="fill: none; stroke: #000000; stroke-width: 1.5; stroke-linecap: square"/>
   </g>
  </g>
  <g id="text_7">
   <!-- Bundesliga -->
   <g style="fill: #d10214" transform="translate(226.8 100.08) scale(0.18 -0.18)">
    <defs>
     <path id="Lato-Regular-75" d="M 960 3242 
L 960 1174 
Q 960 806 1129 604 
Q 1299 403 1642 403 
Q 1891 403 2112 521 
Q 2333 640 2518 851 
L 2518 3242 
L 3088 3242 
L 3088 0 
L 2749 0 
Q 2627 0 2595 118 
L 2550 467 
Q 2339 234 2076 91 
Q 1814 -51 1475 -51 
Q 1210 -51 1006 37 
Q 803 125 665 285 
Q 528 445 459 672 
Q 390 899 390 1174 
L 390 3242 
L 960 3242 
z
" transform="scale(0.015625)"/>
     <path id="Lato-Regular-6e" d="M 467 0 
L 467 3242 
L 806 3242 
Q 928 3242 960 3123 
L 1005 2771 
Q 1216 3005 1477 3149 
Q 1738 3293 2080 3293 
Q 2346 3293 2549 3205 
Q 2752 3117 2888 2955 
Q 3024 2794 3094 2566 
Q 3165 2339 3165 2064 
L 3165 0 
L 2595 0 
L 2595 2064 
Q 2595 2432 2427 2635 
Q 2259 2838 1914 2838 
Q 1661 2838 1441 2716 
Q 1222 2595 1037 2387 
L 1037 0 
L 467 0 
z
" transform="scale(0.015625)"/>
     <path id="Lato-Regular-64" d="M 2749 0 
Q 2627 0 2595 118 
L 2544 512 
Q 2336 259 2069 107 
Q 1802 -45 1456 -45 
Q 1178 -45 950 62 
Q 723 170 563 378 
Q 403 586 316 896 
Q 230 1206 230 1610 
Q 230 1968 326 2277 
Q 422 2586 603 2813 
Q 784 3040 1043 3169 
Q 1302 3299 1632 3299 
Q 1930 3299 2141 3198 
Q 2352 3098 2518 2915 
L 2518 4714 
L 3088 4714 
L 3088 0 
L 2749 0 
z
M 1645 416 
Q 1923 416 2132 544 
Q 2342 672 2518 906 
L 2518 2474 
Q 2362 2685 2174 2769 
Q 1987 2854 1760 2854 
Q 1306 2854 1062 2531 
Q 819 2208 819 1610 
Q 819 1293 873 1067 
Q 928 842 1033 696 
Q 1139 550 1292 483 
Q 1446 416 1645 416 
z
" transform="scale(0.015625)"/>
     <path id="Lato-Regular-65" d="M 1750 3293 
Q 2042 3293 2288 3195 
Q 2534 3098 2713 2914 
Q 2893 2730 2993 2459 
Q 3094 2189 3094 1843 
Q 3094 1709 3065 1664 
Q 3037 1619 2957 1619 
L 800 1619 
Q 806 1312 883 1085 
Q 960 858 1094 706 
Q 1229 554 1414 478 
Q 1600 403 1830 403 
Q 2045 403 2200 452 
Q 2355 502 2467 560 
Q 2579 618 2654 667 
Q 2730 717 2784 717 
Q 2854 717 2893 662 
L 3053 454 
Q 2947 326 2800 232 
Q 2653 138 2485 77 
Q 2317 16 2137 -14 
Q 1958 -45 1782 -45 
Q 1446 -45 1163 68 
Q 880 182 673 401 
Q 467 621 352 944 
Q 237 1267 237 1686 
Q 237 2026 341 2320 
Q 445 2614 640 2830 
Q 835 3046 1116 3169 
Q 1398 3293 1750 3293 
z
M 1763 2874 
Q 1350 2874 1113 2635 
Q 877 2397 819 1974 
L 2582 1974 
Q 2582 2173 2528 2337 
Q 2474 2502 2368 2622 
Q 2262 2742 2110 2808 
Q 1958 2874 1763 2874 
z
" transform="scale(0.015625)"/>
     <path id="Lato-Regular-73" d="M 2323 2707 
Q 2285 2637 2205 2637 
Q 2157 2637 2096 2672 
Q 2035 2707 1947 2750 
Q 1859 2794 1737 2830 
Q 1616 2867 1450 2867 
Q 1306 2867 1190 2830 
Q 1075 2794 993 2730 
Q 912 2666 869 2581 
Q 826 2496 826 2397 
Q 826 2272 898 2189 
Q 970 2106 1088 2045 
Q 1206 1984 1356 1937 
Q 1507 1891 1665 1838 
Q 1824 1786 1974 1722 
Q 2125 1658 2243 1562 
Q 2362 1466 2434 1326 
Q 2506 1187 2506 992 
Q 2506 768 2426 577 
Q 2346 387 2189 248 
Q 2032 109 1805 29 
Q 1578 -51 1280 -51 
Q 941 -51 665 59 
Q 390 170 198 342 
L 333 560 
Q 358 602 393 624 
Q 429 646 486 646 
Q 544 646 608 601 
Q 672 557 763 502 
Q 854 448 984 403 
Q 1114 358 1309 358 
Q 1475 358 1600 401 
Q 1725 445 1808 518 
Q 1891 592 1931 688 
Q 1971 784 1971 893 
Q 1971 1027 1899 1115 
Q 1827 1203 1708 1265 
Q 1590 1328 1438 1374 
Q 1286 1421 1128 1472 
Q 970 1523 818 1588 
Q 666 1654 547 1753 
Q 429 1853 357 1998 
Q 285 2144 285 2352 
Q 285 2538 361 2709 
Q 438 2880 585 3009 
Q 733 3139 947 3216 
Q 1162 3293 1437 3293 
Q 1757 3293 2011 3192 
Q 2266 3091 2451 2915 
L 2323 2707 
z
" transform="scale(0.015625)"/>
     <path id="Lato-Regular-6c" d="M 1101 4714 
L 1101 0 
L 531 0 
L 531 4714 
L 1101 4714 
z
" transform="scale(0.015625)"/>
     <path id="Lato-Regular-69" d="M 1101 3242 
L 1101 0 
L 531 0 
L 531 3242 
L 1101 3242 
z
M 1229 4259 
Q 1229 4176 1195 4104 
Q 1162 4032 1106 3976 
Q 1050 3920 976 3888 
Q 902 3856 819 3856 
Q 736 3856 664 3888 
Q 592 3920 536 3976 
Q 480 4032 448 4104 
Q 416 4176 416 4259 
Q 416 4342 448 4417 
Q 480 4493 536 4549 
Q 592 4605 664 4637 
Q 736 4669 819 4669 
Q 902 4669 976 4637 
Q 1050 4605 1106 4549 
Q 1162 4493 1195 4417 
Q 1229 4342 1229 4259 
z
" transform="scale(0.015625)"/>
     <path id="Lato-Regular-67" d="M 1558 3296 
Q 1770 3296 1954 3249 
Q 2138 3203 2288 3114 
L 3168 3114 
L 3168 2902 
Q 3168 2797 3034 2768 
L 2666 2717 
Q 2774 2509 2774 2253 
Q 2774 2016 2683 1822 
Q 2592 1629 2430 1491 
Q 2269 1354 2046 1280 
Q 1824 1206 1558 1206 
Q 1331 1206 1130 1261 
Q 1027 1197 974 1123 
Q 922 1050 922 979 
Q 922 864 1014 805 
Q 1107 746 1260 720 
Q 1414 694 1609 688 
Q 1805 682 2008 667 
Q 2211 653 2406 617 
Q 2602 582 2755 502 
Q 2909 422 3001 281 
Q 3094 141 3094 -83 
Q 3094 -291 2990 -486 
Q 2886 -682 2691 -834 
Q 2496 -986 2214 -1077 
Q 1933 -1168 1578 -1168 
Q 1222 -1168 955 -1097 
Q 688 -1027 512 -908 
Q 336 -790 248 -635 
Q 160 -480 160 -310 
Q 160 -70 312 98 
Q 464 266 730 365 
Q 592 429 510 536 
Q 429 643 429 822 
Q 429 893 454 968 
Q 480 1043 533 1116 
Q 586 1190 662 1257 
Q 739 1325 842 1376 
Q 602 1510 466 1732 
Q 330 1955 330 2253 
Q 330 2490 421 2683 
Q 512 2877 675 3013 
Q 838 3149 1064 3222 
Q 1290 3296 1558 3296 
z
M 2570 -176 
Q 2570 -54 2502 19 
Q 2435 93 2320 133 
Q 2205 173 2054 192 
Q 1904 211 1737 219 
Q 1571 227 1398 236 
Q 1226 246 1069 272 
Q 886 186 772 61 
Q 659 -64 659 -237 
Q 659 -346 715 -440 
Q 771 -534 886 -603 
Q 1002 -672 1176 -712 
Q 1350 -752 1587 -752 
Q 1818 -752 2000 -710 
Q 2182 -669 2308 -592 
Q 2435 -515 2502 -409 
Q 2570 -304 2570 -176 
z
M 1558 1584 
Q 1731 1584 1864 1632 
Q 1997 1680 2086 1766 
Q 2176 1853 2221 1973 
Q 2266 2093 2266 2237 
Q 2266 2534 2085 2710 
Q 1904 2886 1558 2886 
Q 1216 2886 1035 2710 
Q 854 2534 854 2237 
Q 854 2093 900 1973 
Q 947 1853 1036 1766 
Q 1126 1680 1257 1632 
Q 1389 1584 1558 1584 
z
" transform="scale(0.015625)"/>
     <path id="Lato-Regular-61" d="M 2848 0 
L 2595 0 
Q 2512 0 2461 25 
Q 2410 51 2394 134 
L 2330 435 
Q 2202 320 2080 229 
Q 1958 138 1824 75 
Q 1690 13 1538 -19 
Q 1386 -51 1200 -51 
Q 1011 -51 846 1 
Q 682 54 560 160 
Q 438 266 366 427 
Q 294 589 294 810 
Q 294 1002 400 1179 
Q 506 1357 741 1494 
Q 976 1632 1357 1720 
Q 1738 1808 2288 1821 
L 2288 2074 
Q 2288 2451 2126 2644 
Q 1965 2838 1648 2838 
Q 1440 2838 1297 2785 
Q 1155 2733 1051 2667 
Q 947 2602 872 2549 
Q 797 2496 723 2496 
Q 666 2496 622 2526 
Q 579 2557 554 2602 
L 451 2784 
Q 720 3043 1030 3171 
Q 1341 3299 1718 3299 
Q 1990 3299 2201 3209 
Q 2413 3120 2557 2960 
Q 2701 2800 2774 2573 
Q 2848 2346 2848 2074 
L 2848 0 
z
M 1370 349 
Q 1520 349 1645 379 
Q 1770 410 1880 466 
Q 1990 522 2091 602 
Q 2192 682 2288 784 
L 2288 1459 
Q 1894 1446 1619 1396 
Q 1344 1347 1171 1267 
Q 998 1187 920 1078 
Q 842 970 842 835 
Q 842 707 883 614 
Q 925 522 995 462 
Q 1066 403 1162 376 
Q 1258 349 1370 349 
z
" transform="scale(0.015625)"/>
    </defs>
    <use xlink:href="#Lato-Regular-42"/>
    <use xlink:href="#Lato-Regular-75" transform="translate(64.700012 0)"/>
    <use xlink:href="#Lato-Regular-6e" transform="translate(120.300018 0)"/>
    <use xlink:href="#Lato-Regular-64" transform="translate(175.900024 0)"/>
    <use xlink:href="#Lato-Regular-65" transform="translate(231.800034 0)"/>
    <use xlink:href="#Lato-Regular-73" transform="translate(284.200043 0)"/>
    <use xlink:href="#Lato-Regular-6c" transform="translate(327.600052 0)"/>
    <use xlink:href="#Lato-Regular-69" transform="translate(353.200058 0)"/>
    <use xlink:href="#Lato-Regular-67" transform="translate(378.800064 0)"/>
    <use xlink:href="#Lato-Regular-61" transform="translate(429.90007 0)"/>
   </g>
  </g>
 </g>
 <defs>
  <clipPath id="pbc4f4526f9">
   <rect x="7.2" y="7.2" width="439.2" height="61.678182"/>
  </clipPath>
  <clipPath id="pe58dbc7e27">
   <rect x="7.2" y="18.878182" width="439.2" height="61.678182"/>
  </clipPath>
  <clipPath id="p64c168820e">
   <rect x="7.2" y="30.556364" width="439.2" height="61.678182"/>
  </clipPath>
  <clipPath id="pb368f5756c">
   <rect x="7.2" y="42.234545" width="439.2" height="61.678182"/>
  </clipPath>
  <clipPath id="p71d78890d3">
   <rect x="7.2" y="53.912727" width="439.2" height="61.678182"/>
  </clipPath>
  <clipPath id="p5ef7fde2f3">
   <rect x="7.2" y="65.590909" width="439.2" height="61.678182"/>
  </clipPath>
  <clipPath id="p2e19c6d0f3">
   <rect x="7.2" y="77.269091" width="439.2" height="61.678182"/>
  </clipPath>
  <clipPath id="pcd1771cfa2">
   <rect x="7.2" y="88.947273" width="439.2" height="61.678182"/>
  </clipPath>
  <clipPath id="pfd2131a539">
   <rect x="7.2" y="100.625455" width="439.2" height="61.678182"/>
  </clipPath>
  <clipPath id="pd70ecc7be5">
   <rect x="7.2" y="112.303636" width="439.2" height="61.678182"/>
  </clipPath>
  <clipPath id="p0ebf151a7d">
   <rect x="7.2" y="123.981818" width="439.2" height="61.678182"/>
  </clipPath>
  <clipPath id="p80d9f31e19">
   <rect x="7.2" y="135.66" width="439.2" height="61.678182"/>
  </clipPath>
  <clipPath id="p9b9fa2c5bc">
   <rect x="7.2" y="147.338182" width="439.2" height="61.678182"/>
  </clipPath>
  <clipPath id="p9ff3f9aac1">
   <rect x="7.2" y="159.016364" width="439.2" height="61.678182"/>
  </clipPath>
  <clipPath id="pb4caa409f0">
   <rect x="7.2" y="170.694545" width="439.2" height="61.678182"/>
  </clipPath>
  <clipPath id="p218daf1725">
   <rect x="7.2" y="182.372727" width="439.2" height="61.678182"/>
  </clipPath>
  <clipPath id="p5fe22eca14">
   <rect x="7.2" y="194.050909" width="439.2" height="61.678182"/>
  </clipPath>
  <clipPath id="p72223e8ba9">
   <rect x="7.2" y="205.729091" width="439.2" height="61.678182"/>
  </clipPath>
  <clipPath id="pd01ad49070">
   <rect x="7.2" y="217.407273" width="439.2" height="61.678182"/>
  </clipPath>
  <clipPath id="ped702ae288">
   <rect x="7.2" y="229.085455" width="439.2" height="61.678182"/>
  </clipPath>
  <clipPath id="p4f952ab1a1">
   <rect x="7.2" y="240.763636" width="439.2" height="61.678182"/>
  </clipPath>
  <clipPath id="pe902bc1446">
   <rect x="7.2" y="252.441818" width="439.2" height="61.678182"/>
  </clipPath>
 </defs>
</svg>
