<?xml version="1.0" encoding="utf-8" standalone="no"?>
<!DOCTYPE svg PUBLIC "-//W3C//DTD SVG 1.1//EN"
  "http://www.w3.org/Graphics/SVG/1.1/DTD/svg11.dtd">
<svg xmlns:xlink="http://www.w3.org/1999/xlink" width="452.801254pt" height="337.40125pt" viewBox="0 0 452.801254 337.40125" xmlns="http://www.w3.org/2000/svg" version="1.1">
 <metadata>
  <rdf:RDF xmlns:dc="http://purl.org/dc/elements/1.1/" xmlns:cc="http://creativecommons.org/ns#" xmlns:rdf="http://www.w3.org/1999/02/22-rdf-syntax-ns#">
   <cc:Work>
    <dc:type rdf:resource="http://purl.org/dc/dcmitype/StillImage"/>
    <dc:date>2025-12-01T11:21:21.106746</dc:date>
    <dc:format>image/svg+xml</dc:format>
    <dc:creator>
     <cc:Agent>
      <dc:title>Matplotlib v3.10.5, https://matplotlib.org/</dc:title>
     </cc:Agent>
    </dc:creator>
   </cc:Work>
  </rdf:RDF>
 </metadata>
 <defs>
  <style type="text/css">*{stroke-linejoin: round; stroke-linecap: butt}</style>
 </defs>
 <g id="figure_1">
  <g id="patch_1">
   <path d="M 0 337.40125 
L 452.801254 337.40125 
L 452.801254 0 
L 0 0 
z
" style="fill: #f5f5dc"/>
  </g>
  <g id="axes_1">
   <g id="patch_2">
    <path d="M 7.378117 314.12 
L 445.601254 314.12 
L 445.601254 7.2 
L 7.378117 7.2 
z
" style="fill: #f5f5dc"/>
   </g>
   <g id="matplotlib.axis_1">
    <g id="xtick_1">
     <g id="line2d_1">
      <defs>
       <path id="md938c7f5e1" d="M 0 0 
L 0 3.5 
" style="stroke: #808080; stroke-width: 0.8"/>
      </defs>
      <g>
       <use xlink:href="#md938c7f5e1" x="10.1" y="314.12" style="fill: #808080; stroke: #808080; stroke-width: 0.8"/>
      </g>
     </g>
     <g id="text_1">
      <!-- 0 -->
      <g style="fill: #808080" transform="translate(7.2 328.485625) scale(0.1 -0.1)">
       <defs>
        <path id="Lato-Regular-30" d="M 3520 2291 
Q 3520 1690 3390 1250 
Q 3261 810 3037 522 
Q 2813 234 2507 93 
Q 2202 -48 1853 -48 
Q 1501 -48 1198 93 
Q 896 234 672 522 
Q 448 810 320 1250 
Q 192 1690 192 2291 
Q 192 2893 320 3334 
Q 448 3776 672 4065 
Q 896 4355 1198 4496 
Q 1501 4637 1853 4637 
Q 2202 4637 2507 4496 
Q 2813 4355 3037 4065 
Q 3261 3776 3390 3334 
Q 3520 2893 3520 2291 
z
M 2928 2291 
Q 2928 2816 2840 3173 
Q 2752 3530 2603 3747 
Q 2454 3965 2259 4059 
Q 2064 4154 1853 4154 
Q 1642 4154 1446 4059 
Q 1251 3965 1104 3747 
Q 957 3530 869 3173 
Q 781 2816 781 2291 
Q 781 1766 869 1411 
Q 957 1056 1104 838 
Q 1251 621 1446 526 
Q 1642 432 1853 432 
Q 2064 432 2259 526 
Q 2454 621 2603 838 
Q 2752 1056 2840 1411 
Q 2928 1766 2928 2291 
z
" transform="scale(0.015625)"/>
       </defs>
       <use xlink:href="#Lato-Regular-30"/>
      </g>
     </g>
    </g>
    <g id="xtick_2">
     <g id="line2d_2">
      <g>
       <use xlink:href="#md938c7f5e1" x="78.147071" y="314.12" style="fill: #808080; stroke: #808080; stroke-width: 0.8"/>
      </g>
     </g>
     <g id="text_2">
      <!-- €250M -->
      <g style="fill: #808080" transform="translate(61.947071 328.485625) scale(0.1 -0.1)">
       <defs>
        <path id="Lato-Regular-20ac" d="M 109 2877 
L 579 2877 
Q 643 3280 795 3605 
Q 947 3930 1172 4158 
Q 1398 4387 1692 4508 
Q 1987 4630 2333 4630 
Q 2762 4630 3066 4470 
Q 3370 4310 3594 4029 
L 3398 3811 
Q 3373 3782 3347 3761 
Q 3322 3741 3277 3741 
Q 3222 3741 3163 3801 
Q 3104 3862 3005 3936 
Q 2906 4010 2750 4070 
Q 2595 4131 2355 4131 
Q 1888 4131 1579 3811 
Q 1270 3491 1168 2877 
L 2918 2877 
L 2918 2701 
Q 2918 2643 2875 2596 
Q 2832 2550 2755 2550 
L 1130 2550 
Q 1126 2486 1124 2422 
Q 1123 2358 1123 2291 
Q 1123 2240 1123 2192 
Q 1123 2144 1126 2096 
L 2621 2096 
L 2621 1917 
Q 2621 1862 2576 1816 
Q 2531 1770 2454 1770 
L 1155 1770 
Q 1245 1110 1552 780 
Q 1859 451 2326 451 
Q 2499 451 2630 484 
Q 2762 518 2858 569 
Q 2954 621 3022 680 
Q 3091 739 3142 790 
Q 3194 842 3234 875 
Q 3274 909 3312 909 
Q 3338 909 3357 897 
Q 3376 886 3402 864 
L 3642 640 
Q 3418 314 3085 133 
Q 2752 -48 2294 -48 
Q 1923 -48 1625 78 
Q 1328 205 1110 440 
Q 893 675 753 1012 
Q 614 1350 563 1770 
L 109 1770 
L 109 2096 
L 538 2096 
Q 534 2144 534 2192 
Q 534 2240 534 2291 
Q 534 2355 536 2420 
Q 538 2486 541 2550 
L 109 2550 
L 109 2877 
z
" transform="scale(0.015625)"/>
        <path id="Lato-Regular-32" d="M 1923 4637 
Q 2214 4637 2467 4550 
Q 2720 4464 2904 4299 
Q 3088 4134 3193 3897 
Q 3299 3661 3299 3360 
Q 3299 3104 3222 2886 
Q 3146 2669 3014 2469 
Q 2883 2269 2712 2081 
Q 2541 1894 2349 1699 
L 1142 464 
Q 1270 499 1401 520 
Q 1533 541 1654 541 
L 3190 541 
Q 3283 541 3337 486 
Q 3392 432 3392 346 
L 3392 0 
L 333 0 
L 333 195 
Q 333 256 357 320 
Q 381 384 435 438 
L 1904 1914 
Q 2086 2099 2236 2270 
Q 2387 2442 2494 2614 
Q 2602 2787 2659 2964 
Q 2717 3142 2717 3344 
Q 2717 3546 2653 3698 
Q 2589 3850 2477 3949 
Q 2365 4048 2214 4097 
Q 2064 4147 1891 4147 
Q 1718 4147 1571 4096 
Q 1424 4045 1310 3953 
Q 1197 3862 1118 3737 
Q 1040 3613 1008 3462 
Q 982 3370 931 3328 
Q 880 3286 797 3286 
Q 781 3286 763 3288 
Q 746 3290 723 3293 
L 426 3344 
Q 470 3658 598 3899 
Q 726 4141 923 4304 
Q 1120 4467 1374 4552 
Q 1629 4637 1923 4637 
z
" transform="scale(0.015625)"/>
        <path id="Lato-Regular-35" d="M 3130 4336 
Q 3130 4214 3053 4136 
Q 2976 4058 2794 4058 
L 1354 4058 
L 1142 2854 
Q 1501 2931 1805 2931 
Q 2163 2931 2436 2825 
Q 2710 2720 2896 2534 
Q 3082 2349 3176 2096 
Q 3270 1843 3270 1546 
Q 3270 1181 3142 886 
Q 3014 592 2792 382 
Q 2570 173 2269 61 
Q 1968 -51 1619 -51 
Q 1418 -51 1232 -11 
Q 1046 29 886 96 
Q 726 163 588 249 
Q 451 336 346 432 
L 518 675 
Q 576 758 672 758 
Q 733 758 814 708 
Q 896 659 1011 598 
Q 1126 538 1281 488 
Q 1437 438 1651 438 
Q 1891 438 2083 515 
Q 2275 592 2411 734 
Q 2547 877 2620 1075 
Q 2694 1274 2694 1520 
Q 2694 1734 2632 1907 
Q 2570 2080 2443 2201 
Q 2317 2323 2128 2390 
Q 1939 2458 1686 2458 
Q 1514 2458 1328 2429 
Q 1142 2400 944 2336 
L 586 2442 
L 957 4586 
L 3130 4586 
L 3130 4336 
z
" transform="scale(0.015625)"/>
        <path id="Lato-Regular-4d" d="M 2813 1658 
Q 2858 1581 2891 1496 
Q 2925 1411 2957 1325 
Q 2989 1414 3024 1496 
Q 3059 1578 3104 1661 
L 4656 4480 
Q 4698 4554 4742 4570 
Q 4787 4586 4870 4586 
L 5328 4586 
L 5328 0 
L 4784 0 
L 4784 3370 
Q 4784 3437 4787 3513 
Q 4790 3590 4797 3670 
L 3226 803 
Q 3146 659 3002 659 
L 2912 659 
Q 2768 659 2688 803 
L 1082 3680 
Q 1091 3597 1096 3517 
Q 1101 3437 1101 3370 
L 1101 0 
L 557 0 
L 557 4586 
L 1014 4586 
Q 1098 4586 1142 4570 
Q 1187 4554 1229 4480 
L 2813 1658 
L 2813 1658 
z
" transform="scale(0.015625)"/>
       </defs>
       <use xlink:href="#Lato-Regular-20ac"/>
       <use xlink:href="#Lato-Regular-32" transform="translate(58 0)"/>
       <use xlink:href="#Lato-Regular-35" transform="translate(116 0)"/>
       <use xlink:href="#Lato-Regular-30" transform="translate(174 0)"/>
       <use xlink:href="#Lato-Regular-4d" transform="translate(232 0)"/>
      </g>
     </g>
    </g>
    <g id="xtick_3">
     <g id="line2d_3">
      <g>
       <use xlink:href="#md938c7f5e1" x="146.194142" y="314.12" style="fill: #808080; stroke: #808080; stroke-width: 0.8"/>
      </g>
     </g>
     <g id="text_3">
      <!-- €500M -->
      <g style="fill: #808080" transform="translate(129.994142 328.485625) scale(0.1 -0.1)">
       <use xlink:href="#Lato-Regular-20ac"/>
       <use xlink:href="#Lato-Regular-35" transform="translate(58 0)"/>
       <use xlink:href="#Lato-Regular-30" transform="translate(116 0)"/>
       <use xlink:href="#Lato-Regular-30" transform="translate(174 0)"/>
       <use xlink:href="#Lato-Regular-4d" transform="translate(232 0)"/>
      </g>
     </g>
    </g>
    <g id="xtick_4">
     <g id="line2d_4">
      <g>
       <use xlink:href="#md938c7f5e1" x="214.241213" y="314.12" style="fill: #808080; stroke: #808080; stroke-width: 0.8"/>
      </g>
     </g>
     <g id="text_4">
      <!-- €750M -->
      <g style="fill: #808080" transform="translate(198.041213 328.485625) scale(0.1 -0.1)">
       <defs>
        <path id="Lato-Regular-37" d="M 3469 4586 
L 3469 4330 
Q 3469 4221 3445 4150 
Q 3421 4080 3395 4032 
L 1498 202 
Q 1456 118 1382 59 
Q 1309 0 1184 0 
L 778 0 
L 2704 3782 
Q 2746 3862 2789 3929 
Q 2832 3997 2886 4058 
L 493 4058 
Q 438 4058 395 4101 
Q 352 4144 352 4198 
L 352 4586 
L 3469 4586 
z
" transform="scale(0.015625)"/>
       </defs>
       <use xlink:href="#Lato-Regular-20ac"/>
       <use xlink:href="#Lato-Regular-37" transform="translate(58 0)"/>
       <use xlink:href="#Lato-Regular-35" transform="translate(116 0)"/>
       <use xlink:href="#Lato-Regular-30" transform="translate(174 0)"/>
       <use xlink:href="#Lato-Regular-4d" transform="translate(232 0)"/>
      </g>
     </g>
    </g>
    <g id="xtick_5">
     <g id="line2d_5">
      <g>
       <use xlink:href="#md938c7f5e1" x="282.288284" y="314.12" style="fill: #808080; stroke: #808080; stroke-width: 0.8"/>
      </g>
     </g>
     <g id="text_5">
      <!-- €1B -->
      <g style="fill: #808080" transform="translate(273.253127 328.485625) scale(0.1 -0.1)">
       <defs>
        <path id="Lato-Regular-31" d="M 918 435 
L 1904 435 
L 1904 3562 
Q 1904 3702 1914 3846 
L 1094 3146 
Q 1062 3120 1030 3109 
Q 998 3098 970 3098 
Q 922 3098 883 3118 
Q 845 3139 826 3168 
L 646 3414 
L 2010 4595 
L 2474 4595 
L 2474 435 
L 3376 435 
L 3376 0 
L 918 0 
L 918 435 
z
" transform="scale(0.015625)"/>
        <path id="Lato-Regular-42" d="M 557 0 
L 557 4586 
L 2019 4586 
Q 2442 4586 2747 4502 
Q 3053 4419 3249 4265 
Q 3446 4112 3540 3889 
Q 3635 3667 3635 3389 
Q 3635 3219 3582 3062 
Q 3530 2906 3422 2771 
Q 3315 2637 3153 2531 
Q 2992 2426 2774 2358 
Q 3277 2259 3533 1996 
Q 3789 1734 3789 1306 
Q 3789 1014 3681 774 
Q 3574 534 3368 361 
Q 3162 189 2862 94 
Q 2563 0 2179 0 
L 557 0 
z
M 1178 2090 
L 1178 493 
L 2170 493 
Q 2435 493 2625 553 
Q 2816 614 2939 724 
Q 3062 835 3120 987 
Q 3178 1139 3178 1322 
Q 3178 1677 2926 1883 
Q 2675 2090 2166 2090 
L 1178 2090 
z
M 1178 2531 
L 1997 2531 
Q 2259 2531 2451 2588 
Q 2643 2646 2769 2748 
Q 2896 2851 2957 2996 
Q 3018 3142 3018 3315 
Q 3018 3718 2774 3907 
Q 2531 4096 2019 4096 
L 1178 4096 
L 1178 2531 
z
" transform="scale(0.015625)"/>
       </defs>
       <use xlink:href="#Lato-Regular-20ac"/>
       <use xlink:href="#Lato-Regular-31" transform="translate(58 0)"/>
       <use xlink:href="#Lato-Regular-42" transform="translate(116 0)"/>
      </g>
     </g>
    </g>
    <g id="xtick_6">
     <g id="line2d_6">
      <g>
       <use xlink:href="#md938c7f5e1" x="350.335355" y="314.12" style="fill: #808080; stroke: #808080; stroke-width: 0.8"/>
      </g>
     </g>
     <g id="text_6">
      <!-- €1.25B -->
      <g style="fill: #808080" transform="translate(334.440042 328.485625) scale(0.1 -0.1)">
       <defs>
        <path id="Lato-Regular-2e" d="M 282 352 
Q 282 435 312 508 
Q 342 582 395 636 
Q 448 691 521 723 
Q 595 755 678 755 
Q 762 755 835 723 
Q 909 691 963 636 
Q 1018 582 1048 508 
Q 1078 435 1078 352 
Q 1078 266 1048 194 
Q 1018 122 963 67 
Q 909 13 835 -17 
Q 762 -48 678 -48 
Q 595 -48 521 -17 
Q 448 13 395 67 
Q 342 122 312 194 
Q 282 266 282 352 
z
" transform="scale(0.015625)"/>
       </defs>
       <use xlink:href="#Lato-Regular-20ac"/>
       <use xlink:href="#Lato-Regular-31" transform="translate(58 0)"/>
       <use xlink:href="#Lato-Regular-2e" transform="translate(116 0)"/>
       <use xlink:href="#Lato-Regular-32" transform="translate(137.199997 0)"/>
       <use xlink:href="#Lato-Regular-35" transform="translate(195.199997 0)"/>
       <use xlink:href="#Lato-Regular-42" transform="translate(253.199997 0)"/>
      </g>
     </g>
    </g>
    <g id="xtick_7">
     <g id="line2d_7">
      <g>
       <use xlink:href="#md938c7f5e1" x="418.382425" y="314.12" style="fill: #808080; stroke: #808080; stroke-width: 0.8"/>
      </g>
     </g>
     <g id="text_7">
      <!-- €1.5B -->
      <g style="fill: #808080" transform="translate(405.387113 328.485625) scale(0.1 -0.1)">
       <use xlink:href="#Lato-Regular-20ac"/>
       <use xlink:href="#Lato-Regular-31" transform="translate(58 0)"/>
       <use xlink:href="#Lato-Regular-2e" transform="translate(116 0)"/>
       <use xlink:href="#Lato-Regular-35" transform="translate(137.199997 0)"/>
       <use xlink:href="#Lato-Regular-42" transform="translate(195.199997 0)"/>
      </g>
     </g>
    </g>
   </g>
  </g>
  <g id="axes_2">
   <g id="FillBetweenPolyCollection_1">
    <defs>
     <path id="m2b5b945a24" d="M 13.408684 -265.85968 
L 13.408684 -265.85968 
L 15.234722 -265.85968 
L 17.06076 -265.85968 
L 18.886798 -265.85968 
L 20.712836 -265.85968 
L 22.538874 -265.85968 
L 24.364912 -265.85968 
L 26.19095 -265.85968 
L 28.016987 -265.85968 
L 29.843025 -265.85968 
L 31.669063 -265.85968 
L 33.495101 -265.85968 
L 35.321139 -265.85968 
L 37.147177 -265.85968 
L 38.973215 -265.85968 
L 40.799253 -265.85968 
L 42.625291 -265.85968 
L 44.451329 -265.85968 
L 46.277367 -265.85968 
L 48.103404 -265.85968 
L 49.929442 -265.85968 
L 51.75548 -265.85968 
L 53.581518 -265.85968 
L 55.407556 -265.85968 
L 57.233594 -265.85968 
L 59.059632 -265.85968 
L 59.059632 -265.85968 
L 59.059632 -265.85968 
L 57.233594 -286.285575 
L 55.407556 -265.85968 
L 53.581518 -265.85968 
L 51.75548 -265.85968 
L 49.929442 -265.85968 
L 48.103404 -265.85968 
L 46.277367 -265.85968 
L 44.451329 -265.85968 
L 42.625291 -265.85968 
L 40.799253 -265.85968 
L 38.973215 -265.85968 
L 37.147177 -286.285575 
L 35.321139 -265.85968 
L 33.495101 -306.71147 
L 31.669063 -306.71147 
L 29.843025 -286.285575 
L 28.016987 -286.285575 
L 26.19095 -286.285575 
L 24.364912 -286.285575 
L 22.538874 -286.285575 
L 20.712836 -265.85968 
L 18.886798 -327.137366 
L 17.06076 -327.137366 
L 15.234722 -286.285575 
L 13.408684 -265.85968 
z
" style="stroke: #d10214; stroke-opacity: 0.427273"/>
    </defs>
    <g clip-path="url(#pcfa32438a3)">
     <use xlink:href="#m2b5b945a24" x="0" y="337.40125" style="fill: #d10214; fill-opacity: 0.427273; stroke: #d10214; stroke-opacity: 0.427273"/>
    </g>
   </g>
   <g id="line2d_8">
    <path d="M 13.408684 71.54157 
L 15.234722 71.54157 
L 17.06076 71.54157 
L 18.886798 71.54157 
L 20.712836 71.54157 
L 22.538874 71.54157 
L 24.364912 71.54157 
L 26.19095 71.54157 
L 28.016987 71.54157 
L 29.843025 71.54157 
L 31.669063 71.54157 
L 33.495101 71.54157 
L 35.321139 71.54157 
L 37.147177 71.54157 
L 38.973215 71.54157 
L 40.799253 71.54157 
L 42.625291 71.54157 
L 44.451329 71.54157 
L 46.277367 71.54157 
L 48.103404 71.54157 
L 49.929442 71.54157 
L 51.75548 71.54157 
L 53.581518 71.54157 
L 55.407556 71.54157 
L 57.233594 71.54157 
L 59.059632 71.54157 
" clip-path="url(#pcfa32438a3)" style="fill: none; stroke: #d10214; stroke-opacity: 0.427273; stroke-width: 1.5; stroke-linecap: square"/>
   </g>
   <g id="line2d_9">
    <path d="M 13.408684 71.54157 
L 15.234722 51.115675 
L 17.06076 10.263884 
L 18.886798 10.263884 
L 20.712836 71.54157 
L 22.538874 51.115675 
L 24.364912 51.115675 
L 26.19095 51.115675 
L 28.016987 51.115675 
L 29.843025 51.115675 
L 31.669063 30.68978 
L 33.495101 30.68978 
L 35.321139 71.54157 
L 37.147177 51.115675 
L 38.973215 71.54157 
L 40.799253 71.54157 
L 42.625291 71.54157 
L 44.451329 71.54157 
L 46.277367 71.54157 
L 48.103404 71.54157 
L 49.929442 71.54157 
L 51.75548 71.54157 
L 53.581518 71.54157 
L 55.407556 71.54157 
L 57.233594 51.115675 
L 59.059632 71.54157 
" clip-path="url(#pcfa32438a3)" style="fill: none; stroke: #000000; stroke-opacity: 0.427273; stroke-width: 1.5; stroke-linecap: square"/>
   </g>
  </g>
  <g id="axes_3">
   <g id="FillBetweenPolyCollection_2">
    <defs>
     <path id="mb03e2b5e8f" d="M 15.474724 -254.454225 
L 15.474724 -254.454225 
L 17.244681 -254.454225 
L 19.014637 -254.454225 
L 20.784594 -254.454225 
L 22.554551 -254.454225 
L 24.324507 -254.454225 
L 26.094464 -254.454225 
L 27.864421 -254.454225 
L 29.634377 -254.454225 
L 31.404334 -254.454225 
L 33.174291 -254.454225 
L 34.944247 -254.454225 
L 36.714204 -254.454225 
L 38.484161 -254.454225 
L 40.254117 -254.454225 
L 42.024074 -254.454225 
L 43.794031 -254.454225 
L 45.563987 -254.454225 
L 47.333944 -254.454225 
L 49.103901 -254.454225 
L 50.873857 -254.454225 
L 52.643814 -254.454225 
L 54.413771 -254.454225 
L 56.183727 -254.454225 
L 57.953684 -254.454225 
L 59.723641 -254.454225 
L 59.723641 -254.454225 
L 59.723641 -254.454225 
L 57.953684 -274.880121 
L 56.183727 -254.454225 
L 54.413771 -254.454225 
L 52.643814 -254.454225 
L 50.873857 -254.454225 
L 49.103901 -254.454225 
L 47.333944 -254.454225 
L 45.563987 -254.454225 
L 43.794031 -254.454225 
L 42.024074 -254.454225 
L 40.254117 -274.880121 
L 38.484161 -274.880121 
L 36.714204 -254.454225 
L 34.944247 -254.454225 
L 33.174291 -274.880121 
L 31.404334 -295.306016 
L 29.634377 -295.306016 
L 27.864421 -254.454225 
L 26.094464 -274.880121 
L 24.324507 -295.306016 
L 22.554551 -295.306016 
L 20.784594 -315.731911 
L 19.014637 -274.880121 
L 17.244681 -274.880121 
L 15.474724 -254.454225 
z
" style="stroke: #d10214; stroke-opacity: 0.454545"/>
    </defs>
    <g clip-path="url(#pfd96401ec1)">
     <use xlink:href="#mb03e2b5e8f" x="0" y="337.40125" style="fill: #d10214; fill-opacity: 0.454545; stroke: #d10214; stroke-opacity: 0.454545"/>
    </g>
   </g>
   <g id="line2d_10">
    <path d="M 15.474724 82.947025 
L 17.244681 82.947025 
L 19.014637 82.947025 
L 20.784594 82.947025 
L 22.554551 82.947025 
L 24.324507 82.947025 
L 26.094464 82.947025 
L 27.864421 82.947025 
L 29.634377 82.947025 
L 31.404334 82.947025 
L 33.174291 82.947025 
L 34.944247 82.947025 
L 36.714204 82.947025 
L 38.484161 82.947025 
L 40.254117 82.947025 
L 42.024074 82.947025 
L 43.794031 82.947025 
L 45.563987 82.947025 
L 47.333944 82.947025 
L 49.103901 82.947025 
L 50.873857 82.947025 
L 52.643814 82.947025 
L 54.413771 82.947025 
L 56.183727 82.947025 
L 57.953684 82.947025 
L 59.723641 82.947025 
" clip-path="url(#pfd96401ec1)" style="fill: none; stroke: #d10214; stroke-opacity: 0.454545; stroke-width: 1.5; stroke-linecap: square"/>
   </g>
   <g id="line2d_11">
    <path d="M 15.474724 82.947025 
L 17.244681 62.521129 
L 19.014637 62.521129 
L 20.784594 21.669339 
L 22.554551 42.095234 
L 24.324507 42.095234 
L 26.094464 62.521129 
L 27.864421 82.947025 
L 29.634377 42.095234 
L 31.404334 42.095234 
L 33.174291 62.521129 
L 34.944247 82.947025 
L 36.714204 82.947025 
L 38.484161 62.521129 
L 40.254117 62.521129 
L 42.024074 82.947025 
L 43.794031 82.947025 
L 45.563987 82.947025 
L 47.333944 82.947025 
L 49.103901 82.947025 
L 50.873857 82.947025 
L 52.643814 82.947025 
L 54.413771 82.947025 
L 56.183727 82.947025 
L 57.953684 62.521129 
L 59.723641 82.947025 
" clip-path="url(#pfd96401ec1)" style="fill: none; stroke: #000000; stroke-opacity: 0.454545; stroke-width: 1.5; stroke-linecap: square"/>
   </g>
  </g>
  <g id="axes_4">
   <g id="FillBetweenPolyCollection_3">
    <defs>
     <path id="m4dec5713f9" d="M 16.116042 -243.048771 
L 16.116042 -243.048771 
L 17.891526 -243.048771 
L 19.66701 -243.048771 
L 21.442494 -243.048771 
L 23.217978 -243.048771 
L 24.993462 -243.048771 
L 26.768947 -243.048771 
L 28.544431 -243.048771 
L 30.319915 -243.048771 
L 32.095399 -243.048771 
L 33.870883 -243.048771 
L 35.646367 -243.048771 
L 37.421852 -243.048771 
L 39.197336 -243.048771 
L 40.97282 -243.048771 
L 42.748304 -243.048771 
L 44.523788 -243.048771 
L 46.299272 -243.048771 
L 48.074757 -243.048771 
L 49.850241 -243.048771 
L 51.625725 -243.048771 
L 53.401209 -243.048771 
L 55.176693 -243.048771 
L 56.952178 -243.048771 
L 58.727662 -243.048771 
L 60.503146 -243.048771 
L 60.503146 -243.048771 
L 60.503146 -243.048771 
L 58.727662 -273.687614 
L 56.952178 -243.048771 
L 55.176693 -243.048771 
L 53.401209 -273.687614 
L 51.625725 -243.048771 
L 49.850241 -243.048771 
L 48.074757 -243.048771 
L 46.299272 -243.048771 
L 44.523788 -243.048771 
L 42.748304 -243.048771 
L 40.97282 -243.048771 
L 39.197336 -273.687614 
L 37.421852 -273.687614 
L 35.646367 -273.687614 
L 33.870883 -243.048771 
L 32.095399 -273.687614 
L 30.319915 -304.326457 
L 28.544431 -273.687614 
L 26.768947 -243.048771 
L 24.993462 -304.326457 
L 23.217978 -304.326457 
L 21.442494 -273.687614 
L 19.66701 -304.326457 
L 17.891526 -304.326457 
L 16.116042 -243.048771 
z
" style="stroke: #d10214; stroke-opacity: 0.481818"/>
    </defs>
    <g clip-path="url(#p00a400591e)">
     <use xlink:href="#m4dec5713f9" x="0" y="337.40125" style="fill: #d10214; fill-opacity: 0.481818; stroke: #d10214; stroke-opacity: 0.481818"/>
    </g>
   </g>
   <g id="line2d_12">
    <path d="M 16.116042 94.352479 
L 17.891526 94.352479 
L 19.66701 94.352479 
L 21.442494 94.352479 
L 23.217978 94.352479 
L 24.993462 94.352479 
L 26.768947 94.352479 
L 28.544431 94.352479 
L 30.319915 94.352479 
L 32.095399 94.352479 
L 33.870883 94.352479 
L 35.646367 94.352479 
L 37.421852 94.352479 
L 39.197336 94.352479 
L 40.97282 94.352479 
L 42.748304 94.352479 
L 44.523788 94.352479 
L 46.299272 94.352479 
L 48.074757 94.352479 
L 49.850241 94.352479 
L 51.625725 94.352479 
L 53.401209 94.352479 
L 55.176693 94.352479 
L 56.952178 94.352479 
L 58.727662 94.352479 
L 60.503146 94.352479 
" clip-path="url(#p00a400591e)" style="fill: none; stroke: #d10214; stroke-opacity: 0.481818; stroke-width: 1.5; stroke-linecap: square"/>
   </g>
   <g id="line2d_13">
    <path d="M 16.116042 94.352479 
L 17.891526 33.074793 
L 19.66701 33.074793 
L 21.442494 63.713636 
L 23.217978 33.074793 
L 24.993462 33.074793 
L 26.768947 94.352479 
L 28.544431 63.713636 
L 30.319915 33.074793 
L 32.095399 63.713636 
L 33.870883 94.352479 
L 35.646367 63.713636 
L 37.421852 63.713636 
L 39.197336 63.713636 
L 40.97282 94.352479 
L 42.748304 94.352479 
L 44.523788 94.352479 
L 46.299272 94.352479 
L 48.074757 94.352479 
L 49.850241 94.352479 
L 51.625725 94.352479 
L 53.401209 63.713636 
L 55.176693 94.352479 
L 56.952178 94.352479 
L 58.727662 63.713636 
L 60.503146 94.352479 
" clip-path="url(#p00a400591e)" style="fill: none; stroke: #000000; stroke-opacity: 0.481818; stroke-width: 1.5; stroke-linecap: square"/>
   </g>
  </g>
  <g id="axes_5">
   <g id="FillBetweenPolyCollection_4">
    <defs>
     <path id="me3e4c3b8f7" d="M 15.858483 -231.643316 
L 15.858483 -231.643316 
L 18.410929 -231.643316 
L 20.963375 -231.643316 
L 23.51582 -231.643316 
L 26.068266 -231.643316 
L 28.620712 -231.643316 
L 31.173157 -231.643316 
L 33.725603 -231.643316 
L 36.278048 -231.643316 
L 38.830494 -231.643316 
L 41.38294 -231.643316 
L 43.935385 -231.643316 
L 46.487831 -231.643316 
L 49.040277 -231.643316 
L 51.592722 -231.643316 
L 54.145168 -231.643316 
L 56.697613 -231.643316 
L 59.250059 -231.643316 
L 61.802505 -231.643316 
L 64.35495 -231.643316 
L 66.907396 -231.643316 
L 69.459842 -231.643316 
L 72.012287 -231.643316 
L 74.564733 -231.643316 
L 77.117178 -231.643316 
L 79.669624 -231.643316 
L 79.669624 -231.643316 
L 79.669624 -231.643316 
L 77.117178 -246.962738 
L 74.564733 -231.643316 
L 72.012287 -231.643316 
L 69.459842 -231.643316 
L 66.907396 -231.643316 
L 64.35495 -231.643316 
L 61.802505 -231.643316 
L 59.250059 -231.643316 
L 56.697613 -231.643316 
L 54.145168 -246.962738 
L 51.592722 -231.643316 
L 49.040277 -231.643316 
L 46.487831 -231.643316 
L 43.935385 -262.282159 
L 41.38294 -231.643316 
L 38.830494 -246.962738 
L 36.278048 -231.643316 
L 33.725603 -246.962738 
L 31.173157 -277.601581 
L 28.620712 -246.962738 
L 26.068266 -262.282159 
L 23.51582 -231.643316 
L 20.963375 -262.282159 
L 18.410929 -292.921002 
L 15.858483 -231.643316 
z
" style="stroke: #d10214; stroke-opacity: 0.509091"/>
    </defs>
    <g clip-path="url(#p5a4c5dbe3d)">
     <use xlink:href="#me3e4c3b8f7" x="0" y="337.40125" style="fill: #d10214; fill-opacity: 0.509091; stroke: #d10214; stroke-opacity: 0.509091"/>
    </g>
   </g>
   <g id="line2d_14">
    <path d="M 15.858483 105.757934 
L 18.410929 105.757934 
L 20.963375 105.757934 
L 23.51582 105.757934 
L 26.068266 105.757934 
L 28.620712 105.757934 
L 31.173157 105.757934 
L 33.725603 105.757934 
L 36.278048 105.757934 
L 38.830494 105.757934 
L 41.38294 105.757934 
L 43.935385 105.757934 
L 46.487831 105.757934 
L 49.040277 105.757934 
L 51.592722 105.757934 
L 54.145168 105.757934 
L 56.697613 105.757934 
L 59.250059 105.757934 
L 61.802505 105.757934 
L 64.35495 105.757934 
L 66.907396 105.757934 
L 69.459842 105.757934 
L 72.012287 105.757934 
L 74.564733 105.757934 
L 77.117178 105.757934 
L 79.669624 105.757934 
" clip-path="url(#p5a4c5dbe3d)" style="fill: none; stroke: #d10214; stroke-opacity: 0.509091; stroke-width: 1.5; stroke-linecap: square"/>
   </g>
   <g id="line2d_15">
    <path d="M 15.858483 105.757934 
L 18.410929 44.480248 
L 20.963375 75.119091 
L 23.51582 105.757934 
L 26.068266 75.119091 
L 28.620712 90.438512 
L 31.173157 59.799669 
L 33.725603 90.438512 
L 36.278048 105.757934 
L 38.830494 90.438512 
L 41.38294 105.757934 
L 43.935385 75.119091 
L 46.487831 105.757934 
L 49.040277 105.757934 
L 51.592722 105.757934 
L 54.145168 90.438512 
L 56.697613 105.757934 
L 59.250059 105.757934 
L 61.802505 105.757934 
L 64.35495 105.757934 
L 66.907396 105.757934 
L 69.459842 105.757934 
L 72.012287 105.757934 
L 74.564733 105.757934 
L 77.117178 90.438512 
L 79.669624 105.757934 
" clip-path="url(#p5a4c5dbe3d)" style="fill: none; stroke: #000000; stroke-opacity: 0.509091; stroke-width: 1.5; stroke-linecap: square"/>
   </g>
  </g>
  <g id="axes_6">
   <g id="FillBetweenPolyCollection_5">
    <defs>
     <path id="mbdba50564c" d="M 16.516996 -220.237862 
L 16.516996 -220.237862 
L 18.894058 -220.237862 
L 21.27112 -220.237862 
L 23.648182 -220.237862 
L 26.025244 -220.237862 
L 28.402307 -220.237862 
L 30.779369 -220.237862 
L 33.156431 -220.237862 
L 35.533493 -220.237862 
L 37.910555 -220.237862 
L 40.287617 -220.237862 
L 42.66468 -220.237862 
L 45.041742 -220.237862 
L 47.418804 -220.237862 
L 49.795866 -220.237862 
L 52.172928 -220.237862 
L 54.54999 -220.237862 
L 56.927052 -220.237862 
L 59.304115 -220.237862 
L 61.681177 -220.237862 
L 64.058239 -220.237862 
L 66.435301 -220.237862 
L 68.812363 -220.237862 
L 71.189425 -220.237862 
L 73.566488 -220.237862 
L 75.94355 -220.237862 
L 75.94355 -220.237862 
L 75.94355 -220.237862 
L 73.566488 -240.663757 
L 71.189425 -220.237862 
L 68.812363 -220.237862 
L 66.435301 -220.237862 
L 64.058239 -220.237862 
L 61.681177 -220.237862 
L 59.304115 -220.237862 
L 56.927052 -220.237862 
L 54.54999 -220.237862 
L 52.172928 -240.663757 
L 49.795866 -240.663757 
L 47.418804 -240.663757 
L 45.041742 -220.237862 
L 42.66468 -281.515548 
L 40.287617 -220.237862 
L 37.910555 -240.663757 
L 35.533493 -220.237862 
L 33.156431 -240.663757 
L 30.779369 -240.663757 
L 28.402307 -261.089652 
L 26.025244 -220.237862 
L 23.648182 -261.089652 
L 21.27112 -240.663757 
L 18.894058 -281.515548 
L 16.516996 -220.237862 
z
" style="stroke: #d10214; stroke-opacity: 0.536364"/>
    </defs>
    <g clip-path="url(#p8514cee357)">
     <use xlink:href="#mbdba50564c" x="0" y="337.40125" style="fill: #d10214; fill-opacity: 0.536364; stroke: #d10214; stroke-opacity: 0.536364"/>
    </g>
   </g>
   <g id="line2d_16">
    <path d="M 16.516996 117.163388 
L 18.894058 117.163388 
L 21.27112 117.163388 
L 23.648182 117.163388 
L 26.025244 117.163388 
L 28.402307 117.163388 
L 30.779369 117.163388 
L 33.156431 117.163388 
L 35.533493 117.163388 
L 37.910555 117.163388 
L 40.287617 117.163388 
L 42.66468 117.163388 
L 45.041742 117.163388 
L 47.418804 117.163388 
L 49.795866 117.163388 
L 52.172928 117.163388 
L 54.54999 117.163388 
L 56.927052 117.163388 
L 59.304115 117.163388 
L 61.681177 117.163388 
L 64.058239 117.163388 
L 66.435301 117.163388 
L 68.812363 117.163388 
L 71.189425 117.163388 
L 73.566488 117.163388 
L 75.94355 117.163388 
" clip-path="url(#p8514cee357)" style="fill: none; stroke: #d10214; stroke-opacity: 0.536364; stroke-width: 1.5; stroke-linecap: square"/>
   </g>
   <g id="line2d_17">
    <path d="M 16.516996 117.163388 
L 18.894058 55.885702 
L 21.27112 96.737493 
L 23.648182 76.311598 
L 26.025244 117.163388 
L 28.402307 76.311598 
L 30.779369 96.737493 
L 33.156431 96.737493 
L 35.533493 117.163388 
L 37.910555 96.737493 
L 40.287617 117.163388 
L 42.66468 55.885702 
L 45.041742 117.163388 
L 47.418804 96.737493 
L 49.795866 96.737493 
L 52.172928 96.737493 
L 54.54999 117.163388 
L 56.927052 117.163388 
L 59.304115 117.163388 
L 61.681177 117.163388 
L 64.058239 117.163388 
L 66.435301 117.163388 
L 68.812363 117.163388 
L 71.189425 117.163388 
L 73.566488 96.737493 
L 75.94355 117.163388 
" clip-path="url(#p8514cee357)" style="fill: none; stroke: #000000; stroke-opacity: 0.536364; stroke-width: 1.5; stroke-linecap: square"/>
   </g>
  </g>
  <g id="axes_7">
   <g id="FillBetweenPolyCollection_6">
    <defs>
     <path id="me8e87d19a4" d="M 18.952662 -208.832407 
L 18.952662 -208.832407 
L 21.717572 -208.832407 
L 24.482481 -208.832407 
L 27.247391 -208.832407 
L 30.0123 -208.832407 
L 32.77721 -208.832407 
L 35.542119 -208.832407 
L 38.307029 -208.832407 
L 41.071938 -208.832407 
L 43.836848 -208.832407 
L 46.601757 -208.832407 
L 49.366667 -208.832407 
L 52.131576 -208.832407 
L 54.896486 -208.832407 
L 57.661396 -208.832407 
L 60.426305 -208.832407 
L 63.191215 -208.832407 
L 65.956124 -208.832407 
L 68.721034 -208.832407 
L 71.485943 -208.832407 
L 74.250853 -208.832407 
L 77.015762 -208.832407 
L 79.780672 -208.832407 
L 82.545581 -208.832407 
L 85.310491 -208.832407 
L 88.0754 -208.832407 
L 88.0754 -208.832407 
L 88.0754 -208.832407 
L 85.310491 -229.258302 
L 82.545581 -208.832407 
L 79.780672 -208.832407 
L 77.015762 -208.832407 
L 74.250853 -208.832407 
L 71.485943 -208.832407 
L 68.721034 -208.832407 
L 65.956124 -208.832407 
L 63.191215 -208.832407 
L 60.426305 -208.832407 
L 57.661396 -208.832407 
L 54.896486 -208.832407 
L 52.131576 -229.258302 
L 49.366667 -229.258302 
L 46.601757 -270.110093 
L 43.836848 -229.258302 
L 41.071938 -229.258302 
L 38.307029 -208.832407 
L 35.542119 -229.258302 
L 32.77721 -208.832407 
L 30.0123 -208.832407 
L 27.247391 -270.110093 
L 24.482481 -270.110093 
L 21.717572 -270.110093 
L 18.952662 -208.832407 
z
" style="stroke: #d10214; stroke-opacity: 0.563636"/>
    </defs>
    <g clip-path="url(#pe447a25edb)">
     <use xlink:href="#me8e87d19a4" x="0" y="337.40125" style="fill: #d10214; fill-opacity: 0.563636; stroke: #d10214; stroke-opacity: 0.563636"/>
    </g>
   </g>
   <g id="line2d_18">
    <path d="M 18.952662 128.568843 
L 21.717572 128.568843 
L 24.482481 128.568843 
L 27.247391 128.568843 
L 30.0123 128.568843 
L 32.77721 128.568843 
L 35.542119 128.568843 
L 38.307029 128.568843 
L 41.071938 128.568843 
L 43.836848 128.568843 
L 46.601757 128.568843 
L 49.366667 128.568843 
L 52.131576 128.568843 
L 54.896486 128.568843 
L 57.661396 128.568843 
L 60.426305 128.568843 
L 63.191215 128.568843 
L 65.956124 128.568843 
L 68.721034 128.568843 
L 71.485943 128.568843 
L 74.250853 128.568843 
L 77.015762 128.568843 
L 79.780672 128.568843 
L 82.545581 128.568843 
L 85.310491 128.568843 
L 88.0754 128.568843 
" clip-path="url(#pe447a25edb)" style="fill: none; stroke: #d10214; stroke-opacity: 0.563636; stroke-width: 1.5; stroke-linecap: square"/>
   </g>
   <g id="line2d_19">
    <path d="M 18.952662 128.568843 
L 21.717572 67.291157 
L 24.482481 67.291157 
L 27.247391 67.291157 
L 30.0123 128.568843 
L 32.77721 128.568843 
L 35.542119 108.142948 
L 38.307029 128.568843 
L 41.071938 108.142948 
L 43.836848 108.142948 
L 46.601757 67.291157 
L 49.366667 108.142948 
L 52.131576 108.142948 
L 54.896486 128.568843 
L 57.661396 128.568843 
L 60.426305 128.568843 
L 63.191215 128.568843 
L 65.956124 128.568843 
L 68.721034 128.568843 
L 71.485943 128.568843 
L 74.250853 128.568843 
L 77.015762 128.568843 
L 79.780672 128.568843 
L 82.545581 128.568843 
L 85.310491 108.142948 
L 88.0754 128.568843 
" clip-path="url(#pe447a25edb)" style="fill: none; stroke: #000000; stroke-opacity: 0.563636; stroke-width: 1.5; stroke-linecap: square"/>
   </g>
  </g>
  <g id="axes_8">
   <g id="FillBetweenPolyCollection_7">
    <defs>
     <path id="mbf703d1f0a" d="M 16.215233 -197.426952 
L 16.215233 -197.426952 
L 19.422114 -197.426952 
L 22.628994 -197.426952 
L 25.835875 -197.426952 
L 29.042755 -197.426952 
L 32.249636 -197.426952 
L 35.456516 -197.426952 
L 38.663397 -197.426952 
L 41.870277 -197.426952 
L 45.077158 -197.426952 
L 48.284038 -197.426952 
L 51.490919 -197.426952 
L 54.697799 -197.426952 
L 57.90468 -197.426952 
L 61.11156 -197.426952 
L 64.31844 -197.426952 
L 67.525321 -197.426952 
L 70.732201 -197.426952 
L 73.939082 -197.426952 
L 77.145962 -197.426952 
L 80.352843 -197.426952 
L 83.559723 -197.426952 
L 86.766604 -197.426952 
L 89.973484 -197.426952 
L 93.180365 -197.426952 
L 96.387245 -197.426952 
L 96.387245 -197.426952 
L 96.387245 -197.426952 
L 93.180365 -217.852848 
L 89.973484 -197.426952 
L 86.766604 -197.426952 
L 83.559723 -197.426952 
L 80.352843 -197.426952 
L 77.145962 -197.426952 
L 73.939082 -197.426952 
L 70.732201 -197.426952 
L 67.525321 -197.426952 
L 64.31844 -197.426952 
L 61.11156 -197.426952 
L 57.90468 -217.852848 
L 54.697799 -197.426952 
L 51.490919 -258.704638 
L 48.284038 -217.852848 
L 45.077158 -217.852848 
L 41.870277 -217.852848 
L 38.663397 -217.852848 
L 35.456516 -197.426952 
L 32.249636 -197.426952 
L 29.042755 -258.704638 
L 25.835875 -258.704638 
L 22.628994 -238.278743 
L 19.422114 -217.852848 
L 16.215233 -197.426952 
z
" style="stroke: #d10214; stroke-opacity: 0.590909"/>
    </defs>
    <g clip-path="url(#pa34e728557)">
     <use xlink:href="#mbf703d1f0a" x="0" y="337.40125" style="fill: #d10214; fill-opacity: 0.590909; stroke: #d10214; stroke-opacity: 0.590909"/>
    </g>
   </g>
   <g id="line2d_20">
    <path d="M 16.215233 139.974298 
L 19.422114 139.974298 
L 22.628994 139.974298 
L 25.835875 139.974298 
L 29.042755 139.974298 
L 32.249636 139.974298 
L 35.456516 139.974298 
L 38.663397 139.974298 
L 41.870277 139.974298 
L 45.077158 139.974298 
L 48.284038 139.974298 
L 51.490919 139.974298 
L 54.697799 139.974298 
L 57.90468 139.974298 
L 61.11156 139.974298 
L 64.31844 139.974298 
L 67.525321 139.974298 
L 70.732201 139.974298 
L 73.939082 139.974298 
L 77.145962 139.974298 
L 80.352843 139.974298 
L 83.559723 139.974298 
L 86.766604 139.974298 
L 89.973484 139.974298 
L 93.180365 139.974298 
L 96.387245 139.974298 
" clip-path="url(#pa34e728557)" style="fill: none; stroke: #d10214; stroke-opacity: 0.590909; stroke-width: 1.5; stroke-linecap: square"/>
   </g>
   <g id="line2d_21">
    <path d="M 16.215233 139.974298 
L 19.422114 119.548402 
L 22.628994 99.122507 
L 25.835875 78.696612 
L 29.042755 78.696612 
L 32.249636 139.974298 
L 35.456516 139.974298 
L 38.663397 119.548402 
L 41.870277 119.548402 
L 45.077158 119.548402 
L 48.284038 119.548402 
L 51.490919 78.696612 
L 54.697799 139.974298 
L 57.90468 119.548402 
L 61.11156 139.974298 
L 64.31844 139.974298 
L 67.525321 139.974298 
L 70.732201 139.974298 
L 73.939082 139.974298 
L 77.145962 139.974298 
L 80.352843 139.974298 
L 83.559723 139.974298 
L 86.766604 139.974298 
L 89.973484 139.974298 
L 93.180365 119.548402 
L 96.387245 139.974298 
" clip-path="url(#pa34e728557)" style="fill: none; stroke: #000000; stroke-opacity: 0.590909; stroke-width: 1.5; stroke-linecap: square"/>
   </g>
  </g>
  <g id="axes_9">
   <g id="FillBetweenPolyCollection_8">
    <defs>
     <path id="m423fe20b94" d="M 18.044365 -186.021498 
L 18.044365 -186.021498 
L 21.702313 -186.021498 
L 25.360262 -186.021498 
L 29.018211 -186.021498 
L 32.67616 -186.021498 
L 36.334109 -186.021498 
L 39.992058 -186.021498 
L 43.650006 -186.021498 
L 47.307955 -186.021498 
L 50.965904 -186.021498 
L 54.623853 -186.021498 
L 58.281802 -186.021498 
L 61.93975 -186.021498 
L 65.597699 -186.021498 
L 69.255648 -186.021498 
L 72.913597 -186.021498 
L 76.571546 -186.021498 
L 80.229494 -186.021498 
L 83.887443 -186.021498 
L 87.545392 -186.021498 
L 91.203341 -186.021498 
L 94.86129 -186.021498 
L 98.519239 -186.021498 
L 102.177187 -186.021498 
L 105.835136 -186.021498 
L 109.493085 -186.021498 
L 109.493085 -186.021498 
L 109.493085 -186.021498 
L 105.835136 -201.340919 
L 102.177187 -186.021498 
L 98.519239 -186.021498 
L 94.86129 -186.021498 
L 91.203341 -186.021498 
L 87.545392 -186.021498 
L 83.887443 -186.021498 
L 80.229494 -186.021498 
L 76.571546 -186.021498 
L 72.913597 -186.021498 
L 69.255648 -201.340919 
L 65.597699 -186.021498 
L 61.93975 -186.021498 
L 58.281802 -186.021498 
L 54.623853 -186.021498 
L 50.965904 -201.340919 
L 47.307955 -201.340919 
L 43.650006 -216.660341 
L 39.992058 -201.340919 
L 36.334109 -186.021498 
L 32.67616 -247.299184 
L 29.018211 -201.340919 
L 25.360262 -231.979762 
L 21.702313 -231.979762 
L 18.044365 -186.021498 
z
" style="stroke: #d10214; stroke-opacity: 0.618182"/>
    </defs>
    <g clip-path="url(#p0e04b84074)">
     <use xlink:href="#m423fe20b94" x="0" y="337.40125" style="fill: #d10214; fill-opacity: 0.618182; stroke: #d10214; stroke-opacity: 0.618182"/>
    </g>
   </g>
   <g id="line2d_22">
    <path d="M 18.044365 151.379752 
L 21.702313 151.379752 
L 25.360262 151.379752 
L 29.018211 151.379752 
L 32.67616 151.379752 
L 36.334109 151.379752 
L 39.992058 151.379752 
L 43.650006 151.379752 
L 47.307955 151.379752 
L 50.965904 151.379752 
L 54.623853 151.379752 
L 58.281802 151.379752 
L 61.93975 151.379752 
L 65.597699 151.379752 
L 69.255648 151.379752 
L 72.913597 151.379752 
L 76.571546 151.379752 
L 80.229494 151.379752 
L 83.887443 151.379752 
L 87.545392 151.379752 
L 91.203341 151.379752 
L 94.86129 151.379752 
L 98.519239 151.379752 
L 102.177187 151.379752 
L 105.835136 151.379752 
L 109.493085 151.379752 
" clip-path="url(#p0e04b84074)" style="fill: none; stroke: #d10214; stroke-opacity: 0.618182; stroke-width: 1.5; stroke-linecap: square"/>
   </g>
   <g id="line2d_23">
    <path d="M 18.044365 151.379752 
L 21.702313 105.421488 
L 25.360262 105.421488 
L 29.018211 136.060331 
L 32.67616 90.102066 
L 36.334109 151.379752 
L 39.992058 136.060331 
L 43.650006 120.740909 
L 47.307955 136.060331 
L 50.965904 136.060331 
L 54.623853 151.379752 
L 58.281802 151.379752 
L 61.93975 151.379752 
L 65.597699 151.379752 
L 69.255648 136.060331 
L 72.913597 151.379752 
L 76.571546 151.379752 
L 80.229494 151.379752 
L 83.887443 151.379752 
L 87.545392 151.379752 
L 91.203341 151.379752 
L 94.86129 151.379752 
L 98.519239 151.379752 
L 102.177187 151.379752 
L 105.835136 136.060331 
L 109.493085 151.379752 
" clip-path="url(#p0e04b84074)" style="fill: none; stroke: #000000; stroke-opacity: 0.618182; stroke-width: 1.5; stroke-linecap: square"/>
   </g>
  </g>
  <g id="axes_10">
   <g id="FillBetweenPolyCollection_9">
    <defs>
     <path id="maa95629a20" d="M 15.192669 -174.616043 
L 15.192669 -174.616043 
L 20.158797 -174.616043 
L 25.124924 -174.616043 
L 30.091052 -174.616043 
L 35.057179 -174.616043 
L 40.023307 -174.616043 
L 44.989434 -174.616043 
L 49.955562 -174.616043 
L 54.92169 -174.616043 
L 59.887817 -174.616043 
L 64.853945 -174.616043 
L 69.820072 -174.616043 
L 74.7862 -174.616043 
L 79.752327 -174.616043 
L 84.718455 -174.616043 
L 89.684583 -174.616043 
L 94.65071 -174.616043 
L 99.616838 -174.616043 
L 104.582965 -174.616043 
L 109.549093 -174.616043 
L 114.515221 -174.616043 
L 119.481348 -174.616043 
L 124.447476 -174.616043 
L 129.413603 -174.616043 
L 134.379731 -174.616043 
L 139.345858 -174.616043 
L 139.345858 -174.616043 
L 139.345858 -174.616043 
L 134.379731 -189.935465 
L 129.413603 -174.616043 
L 124.447476 -174.616043 
L 119.481348 -174.616043 
L 114.515221 -174.616043 
L 109.549093 -174.616043 
L 104.582965 -174.616043 
L 99.616838 -174.616043 
L 94.65071 -189.935465 
L 89.684583 -174.616043 
L 84.718455 -174.616043 
L 79.752327 -174.616043 
L 74.7862 -174.616043 
L 69.820072 -174.616043 
L 64.853945 -174.616043 
L 59.887817 -189.935465 
L 54.92169 -174.616043 
L 49.955562 -189.935465 
L 44.989434 -174.616043 
L 40.023307 -205.254886 
L 35.057179 -220.574308 
L 30.091052 -235.893729 
L 25.124924 -205.254886 
L 20.158797 -220.574308 
L 15.192669 -174.616043 
z
" style="stroke: #d10214; stroke-opacity: 0.645455"/>
    </defs>
    <g clip-path="url(#pbdfd72f231)">
     <use xlink:href="#maa95629a20" x="0" y="337.40125" style="fill: #d10214; fill-opacity: 0.645455; stroke: #d10214; stroke-opacity: 0.645455"/>
    </g>
   </g>
   <g id="line2d_24">
    <path d="M 15.192669 162.785207 
L 20.158797 162.785207 
L 25.124924 162.785207 
L 30.091052 162.785207 
L 35.057179 162.785207 
L 40.023307 162.785207 
L 44.989434 162.785207 
L 49.955562 162.785207 
L 54.92169 162.785207 
L 59.887817 162.785207 
L 64.853945 162.785207 
L 69.820072 162.785207 
L 74.7862 162.785207 
L 79.752327 162.785207 
L 84.718455 162.785207 
L 89.684583 162.785207 
L 94.65071 162.785207 
L 99.616838 162.785207 
L 104.582965 162.785207 
L 109.549093 162.785207 
L 114.515221 162.785207 
L 119.481348 162.785207 
L 124.447476 162.785207 
L 129.413603 162.785207 
L 134.379731 162.785207 
L 139.345858 162.785207 
" clip-path="url(#pbdfd72f231)" style="fill: none; stroke: #d10214; stroke-opacity: 0.645455; stroke-width: 1.5; stroke-linecap: square"/>
   </g>
   <g id="line2d_25">
    <path d="M 15.192669 162.785207 
L 20.158797 116.826942 
L 25.124924 132.146364 
L 30.091052 101.507521 
L 35.057179 116.826942 
L 40.023307 132.146364 
L 44.989434 162.785207 
L 49.955562 147.465785 
L 54.92169 162.785207 
L 59.887817 147.465785 
L 64.853945 162.785207 
L 69.820072 162.785207 
L 74.7862 162.785207 
L 79.752327 162.785207 
L 84.718455 162.785207 
L 89.684583 162.785207 
L 94.65071 147.465785 
L 99.616838 162.785207 
L 104.582965 162.785207 
L 109.549093 162.785207 
L 114.515221 162.785207 
L 119.481348 162.785207 
L 124.447476 162.785207 
L 129.413603 162.785207 
L 134.379731 147.465785 
L 139.345858 162.785207 
" clip-path="url(#pbdfd72f231)" style="fill: none; stroke: #000000; stroke-opacity: 0.645455; stroke-width: 1.5; stroke-linecap: square"/>
   </g>
  </g>
  <g id="axes_11">
   <g id="FillBetweenPolyCollection_10">
    <defs>
     <path id="m49e21877fb" d="M 13.731149 -163.210589 
L 13.731149 -163.210589 
L 19.814871 -163.210589 
L 25.898593 -163.210589 
L 31.982315 -163.210589 
L 38.066038 -163.210589 
L 44.14976 -163.210589 
L 50.233482 -163.210589 
L 56.317204 -163.210589 
L 62.400926 -163.210589 
L 68.484649 -163.210589 
L 74.568371 -163.210589 
L 80.652093 -163.210589 
L 86.735815 -163.210589 
L 92.819537 -163.210589 
L 98.90326 -163.210589 
L 104.986982 -163.210589 
L 111.070704 -163.210589 
L 117.154426 -163.210589 
L 123.238148 -163.210589 
L 129.321871 -163.210589 
L 135.405593 -163.210589 
L 141.489315 -163.210589 
L 147.573037 -163.210589 
L 153.656759 -163.210589 
L 159.740482 -163.210589 
L 165.824204 -163.210589 
L 165.824204 -163.210589 
L 165.824204 -163.210589 
L 159.740482 -178.53001 
L 153.656759 -163.210589 
L 147.573037 -163.210589 
L 141.489315 -163.210589 
L 135.405593 -163.210589 
L 129.321871 -163.210589 
L 123.238148 -163.210589 
L 117.154426 -163.210589 
L 111.070704 -163.210589 
L 104.986982 -163.210589 
L 98.90326 -178.53001 
L 92.819537 -163.210589 
L 86.735815 -163.210589 
L 80.652093 -163.210589 
L 74.568371 -163.210589 
L 68.484649 -163.210589 
L 62.400926 -178.53001 
L 56.317204 -178.53001 
L 50.233482 -178.53001 
L 44.14976 -163.210589 
L 38.066038 -224.488275 
L 31.982315 -209.168853 
L 25.898593 -224.488275 
L 19.814871 -193.849432 
L 13.731149 -163.210589 
z
" style="stroke: #d10214; stroke-opacity: 0.672727"/>
    </defs>
    <g clip-path="url(#p25e0d96d6c)">
     <use xlink:href="#m49e21877fb" x="0" y="337.40125" style="fill: #d10214; fill-opacity: 0.672727; stroke: #d10214; stroke-opacity: 0.672727"/>
    </g>
   </g>
   <g id="line2d_26">
    <path d="M 13.731149 174.190661 
L 19.814871 174.190661 
L 25.898593 174.190661 
L 31.982315 174.190661 
L 38.066038 174.190661 
L 44.14976 174.190661 
L 50.233482 174.190661 
L 56.317204 174.190661 
L 62.400926 174.190661 
L 68.484649 174.190661 
L 74.568371 174.190661 
L 80.652093 174.190661 
L 86.735815 174.190661 
L 92.819537 174.190661 
L 98.90326 174.190661 
L 104.986982 174.190661 
L 111.070704 174.190661 
L 117.154426 174.190661 
L 123.238148 174.190661 
L 129.321871 174.190661 
L 135.405593 174.190661 
L 141.489315 174.190661 
L 147.573037 174.190661 
L 153.656759 174.190661 
L 159.740482 174.190661 
L 165.824204 174.190661 
" clip-path="url(#p25e0d96d6c)" style="fill: none; stroke: #d10214; stroke-opacity: 0.672727; stroke-width: 1.5; stroke-linecap: square"/>
   </g>
   <g id="line2d_27">
    <path d="M 13.731149 174.190661 
L 19.814871 143.551818 
L 25.898593 112.912975 
L 31.982315 128.232397 
L 38.066038 112.912975 
L 44.14976 174.190661 
L 50.233482 158.87124 
L 56.317204 158.87124 
L 62.400926 158.87124 
L 68.484649 174.190661 
L 74.568371 174.190661 
L 80.652093 174.190661 
L 86.735815 174.190661 
L 92.819537 174.190661 
L 98.90326 158.87124 
L 104.986982 174.190661 
L 111.070704 174.190661 
L 117.154426 174.190661 
L 123.238148 174.190661 
L 129.321871 174.190661 
L 135.405593 174.190661 
L 141.489315 174.190661 
L 147.573037 174.190661 
L 153.656759 174.190661 
L 159.740482 158.87124 
L 165.824204 174.190661 
" clip-path="url(#p25e0d96d6c)" style="fill: none; stroke: #000000; stroke-opacity: 0.672727; stroke-width: 1.5; stroke-linecap: square"/>
   </g>
  </g>
  <g id="axes_12">
   <g id="FillBetweenPolyCollection_11">
    <defs>
     <path id="m28f73c224a" d="M 13.565454 -151.805134 
L 13.565454 -151.805134 
L 19.860258 -151.805134 
L 26.155063 -151.805134 
L 32.449867 -151.805134 
L 38.744671 -151.805134 
L 45.039475 -151.805134 
L 51.334279 -151.805134 
L 57.629084 -151.805134 
L 63.923888 -151.805134 
L 70.218692 -151.805134 
L 76.513496 -151.805134 
L 82.8083 -151.805134 
L 89.103105 -151.805134 
L 95.397909 -151.805134 
L 101.692713 -151.805134 
L 107.987517 -151.805134 
L 114.282322 -151.805134 
L 120.577126 -151.805134 
L 126.87193 -151.805134 
L 133.166734 -151.805134 
L 139.461538 -151.805134 
L 145.756343 -151.805134 
L 152.051147 -151.805134 
L 158.345951 -151.805134 
L 164.640755 -151.805134 
L 170.93556 -151.805134 
L 170.93556 -151.805134 
L 170.93556 -151.805134 
L 164.640755 -164.060671 
L 158.345951 -151.805134 
L 152.051147 -151.805134 
L 145.756343 -151.805134 
L 139.461538 -151.805134 
L 133.166734 -151.805134 
L 126.87193 -151.805134 
L 120.577126 -151.805134 
L 114.282322 -151.805134 
L 107.987517 -151.805134 
L 101.692713 -151.805134 
L 95.397909 -164.060671 
L 89.103105 -151.805134 
L 82.8083 -151.805134 
L 76.513496 -151.805134 
L 70.218692 -176.316209 
L 63.923888 -151.805134 
L 57.629084 -164.060671 
L 51.334279 -151.805134 
L 45.039475 -176.316209 
L 38.744671 -151.805134 
L 32.449867 -213.08282 
L 26.155063 -213.08282 
L 19.860258 -164.060671 
L 13.565454 -151.805134 
z
" style="stroke: #d10214; stroke-opacity: 0.7"/>
    </defs>
    <g clip-path="url(#p1acc0bb530)">
     <use xlink:href="#m28f73c224a" x="0" y="337.40125" style="fill: #d10214; fill-opacity: 0.7; stroke: #d10214; stroke-opacity: 0.7"/>
    </g>
   </g>
   <g id="line2d_28">
    <path d="M 13.565454 185.596116 
L 19.860258 185.596116 
L 26.155063 185.596116 
L 32.449867 185.596116 
L 38.744671 185.596116 
L 45.039475 185.596116 
L 51.334279 185.596116 
L 57.629084 185.596116 
L 63.923888 185.596116 
L 70.218692 185.596116 
L 76.513496 185.596116 
L 82.8083 185.596116 
L 89.103105 185.596116 
L 95.397909 185.596116 
L 101.692713 185.596116 
L 107.987517 185.596116 
L 114.282322 185.596116 
L 120.577126 185.596116 
L 126.87193 185.596116 
L 133.166734 185.596116 
L 139.461538 185.596116 
L 145.756343 185.596116 
L 152.051147 185.596116 
L 158.345951 185.596116 
L 164.640755 185.596116 
L 170.93556 185.596116 
" clip-path="url(#p1acc0bb530)" style="fill: none; stroke: #d10214; stroke-opacity: 0.7; stroke-width: 1.5; stroke-linecap: square"/>
   </g>
   <g id="line2d_29">
    <path d="M 13.565454 185.596116 
L 19.860258 173.340579 
L 26.155063 124.31843 
L 32.449867 124.31843 
L 38.744671 185.596116 
L 45.039475 161.085041 
L 51.334279 185.596116 
L 57.629084 173.340579 
L 63.923888 185.596116 
L 70.218692 161.085041 
L 76.513496 185.596116 
L 82.8083 185.596116 
L 89.103105 185.596116 
L 95.397909 173.340579 
L 101.692713 185.596116 
L 107.987517 185.596116 
L 114.282322 185.596116 
L 120.577126 185.596116 
L 126.87193 185.596116 
L 133.166734 185.596116 
L 139.461538 185.596116 
L 145.756343 185.596116 
L 152.051147 185.596116 
L 158.345951 185.596116 
L 164.640755 173.340579 
L 170.93556 185.596116 
" clip-path="url(#p1acc0bb530)" style="fill: none; stroke: #000000; stroke-opacity: 0.7; stroke-width: 1.5; stroke-linecap: square"/>
   </g>
  </g>
  <g id="axes_13">
   <g id="FillBetweenPolyCollection_12">
    <defs>
     <path id="mc54f056f5d" d="M 12.463065 -140.39968 
L 12.463065 -140.39968 
L 19.037355 -140.39968 
L 25.611644 -140.39968 
L 32.185933 -140.39968 
L 38.760222 -140.39968 
L 45.334512 -140.39968 
L 51.908801 -140.39968 
L 58.48309 -140.39968 
L 65.057379 -140.39968 
L 71.631669 -140.39968 
L 78.205958 -140.39968 
L 84.780247 -140.39968 
L 91.354536 -140.39968 
L 97.928826 -140.39968 
L 104.503115 -140.39968 
L 111.077404 -140.39968 
L 117.651693 -140.39968 
L 124.225982 -140.39968 
L 130.800272 -140.39968 
L 137.374561 -140.39968 
L 143.94885 -140.39968 
L 150.523139 -140.39968 
L 157.097429 -140.39968 
L 163.671718 -140.39968 
L 170.246007 -140.39968 
L 176.820296 -140.39968 
L 176.820296 -140.39968 
L 176.820296 -140.39968 
L 170.246007 -150.612627 
L 163.671718 -140.39968 
L 157.097429 -140.39968 
L 150.523139 -140.39968 
L 143.94885 -140.39968 
L 137.374561 -140.39968 
L 130.800272 -140.39968 
L 124.225982 -140.39968 
L 117.651693 -140.39968 
L 111.077404 -140.39968 
L 104.503115 -150.612627 
L 97.928826 -140.39968 
L 91.354536 -140.39968 
L 84.780247 -150.612627 
L 78.205958 -150.612627 
L 71.631669 -150.612627 
L 65.057379 -140.39968 
L 58.48309 -150.612627 
L 51.908801 -140.39968 
L 45.334512 -140.39968 
L 38.760222 -140.39968 
L 32.185933 -201.677366 
L 25.611644 -181.25147 
L 19.037355 -160.825575 
L 12.463065 -140.39968 
z
" style="stroke: #d10214; stroke-opacity: 0.727273"/>
    </defs>
    <g clip-path="url(#p1a11f07a3f)">
     <use xlink:href="#mc54f056f5d" x="0" y="337.40125" style="fill: #d10214; fill-opacity: 0.727273; stroke: #d10214; stroke-opacity: 0.727273"/>
    </g>
   </g>
   <g id="line2d_30">
    <path d="M 12.463065 197.00157 
L 19.037355 197.00157 
L 25.611644 197.00157 
L 32.185933 197.00157 
L 38.760222 197.00157 
L 45.334512 197.00157 
L 51.908801 197.00157 
L 58.48309 197.00157 
L 65.057379 197.00157 
L 71.631669 197.00157 
L 78.205958 197.00157 
L 84.780247 197.00157 
L 91.354536 197.00157 
L 97.928826 197.00157 
L 104.503115 197.00157 
L 111.077404 197.00157 
L 117.651693 197.00157 
L 124.225982 197.00157 
L 130.800272 197.00157 
L 137.374561 197.00157 
L 143.94885 197.00157 
L 150.523139 197.00157 
L 157.097429 197.00157 
L 163.671718 197.00157 
L 170.246007 197.00157 
L 176.820296 197.00157 
" clip-path="url(#p1a11f07a3f)" style="fill: none; stroke: #d10214; stroke-opacity: 0.727273; stroke-width: 1.5; stroke-linecap: square"/>
   </g>
   <g id="line2d_31">
    <path d="M 12.463065 197.00157 
L 19.037355 176.575675 
L 25.611644 156.14978 
L 32.185933 135.723884 
L 38.760222 197.00157 
L 45.334512 197.00157 
L 51.908801 197.00157 
L 58.48309 186.788623 
L 65.057379 197.00157 
L 71.631669 186.788623 
L 78.205958 186.788623 
L 84.780247 186.788623 
L 91.354536 197.00157 
L 97.928826 197.00157 
L 104.503115 186.788623 
L 111.077404 197.00157 
L 117.651693 197.00157 
L 124.225982 197.00157 
L 130.800272 197.00157 
L 137.374561 197.00157 
L 143.94885 197.00157 
L 150.523139 197.00157 
L 157.097429 197.00157 
L 163.671718 197.00157 
L 170.246007 186.788623 
L 176.820296 197.00157 
" clip-path="url(#p1a11f07a3f)" style="fill: none; stroke: #000000; stroke-opacity: 0.727273; stroke-width: 1.5; stroke-linecap: square"/>
   </g>
  </g>
  <g id="axes_14">
   <g id="FillBetweenPolyCollection_13">
    <defs>
     <path id="m279f42c935" d="M 12.958527 -128.994225 
L 12.958527 -128.994225 
L 19.137483 -128.994225 
L 25.31644 -128.994225 
L 31.495397 -128.994225 
L 37.674353 -128.994225 
L 43.85331 -128.994225 
L 50.032267 -128.994225 
L 56.211223 -128.994225 
L 62.39018 -128.994225 
L 68.569137 -128.994225 
L 74.748094 -128.994225 
L 80.92705 -128.994225 
L 87.106007 -128.994225 
L 93.284964 -128.994225 
L 99.46392 -128.994225 
L 105.642877 -128.994225 
L 111.821834 -128.994225 
L 118.00079 -128.994225 
L 124.179747 -128.994225 
L 130.358704 -128.994225 
L 136.53766 -128.994225 
L 142.716617 -128.994225 
L 148.895574 -128.994225 
L 155.074531 -128.994225 
L 161.253487 -128.994225 
L 167.432444 -128.994225 
L 167.432444 -128.994225 
L 167.432444 -128.994225 
L 161.253487 -144.313647 
L 155.074531 -128.994225 
L 148.895574 -128.994225 
L 142.716617 -128.994225 
L 136.53766 -128.994225 
L 130.358704 -128.994225 
L 124.179747 -128.994225 
L 118.00079 -144.313647 
L 111.821834 -128.994225 
L 105.642877 -128.994225 
L 99.46392 -128.994225 
L 93.284964 -128.994225 
L 87.106007 -128.994225 
L 80.92705 -144.313647 
L 74.748094 -128.994225 
L 68.569137 -144.313647 
L 62.39018 -144.313647 
L 56.211223 -159.633068 
L 50.032267 -144.313647 
L 43.85331 -144.313647 
L 37.674353 -159.633068 
L 31.495397 -190.271911 
L 25.31644 -144.313647 
L 19.137483 -159.633068 
L 12.958527 -128.994225 
z
" style="stroke: #d10214; stroke-opacity: 0.754545"/>
    </defs>
    <g clip-path="url(#p3804e3d2fb)">
     <use xlink:href="#m279f42c935" x="0" y="337.40125" style="fill: #d10214; fill-opacity: 0.754545; stroke: #d10214; stroke-opacity: 0.754545"/>
    </g>
   </g>
   <g id="line2d_32">
    <path d="M 12.958527 208.407025 
L 19.137483 208.407025 
L 25.31644 208.407025 
L 31.495397 208.407025 
L 37.674353 208.407025 
L 43.85331 208.407025 
L 50.032267 208.407025 
L 56.211223 208.407025 
L 62.39018 208.407025 
L 68.569137 208.407025 
L 74.748094 208.407025 
L 80.92705 208.407025 
L 87.106007 208.407025 
L 93.284964 208.407025 
L 99.46392 208.407025 
L 105.642877 208.407025 
L 111.821834 208.407025 
L 118.00079 208.407025 
L 124.179747 208.407025 
L 130.358704 208.407025 
L 136.53766 208.407025 
L 142.716617 208.407025 
L 148.895574 208.407025 
L 155.074531 208.407025 
L 161.253487 208.407025 
L 167.432444 208.407025 
" clip-path="url(#p3804e3d2fb)" style="fill: none; stroke: #d10214; stroke-opacity: 0.754545; stroke-width: 1.5; stroke-linecap: square"/>
   </g>
   <g id="line2d_33">
    <path d="M 12.958527 208.407025 
L 19.137483 177.768182 
L 25.31644 193.087603 
L 31.495397 147.129339 
L 37.674353 177.768182 
L 43.85331 193.087603 
L 50.032267 193.087603 
L 56.211223 177.768182 
L 62.39018 193.087603 
L 68.569137 193.087603 
L 74.748094 208.407025 
L 80.92705 193.087603 
L 87.106007 208.407025 
L 93.284964 208.407025 
L 99.46392 208.407025 
L 105.642877 208.407025 
L 111.821834 208.407025 
L 118.00079 193.087603 
L 124.179747 208.407025 
L 130.358704 208.407025 
L 136.53766 208.407025 
L 142.716617 208.407025 
L 148.895574 208.407025 
L 155.074531 208.407025 
L 161.253487 193.087603 
L 167.432444 208.407025 
" clip-path="url(#p3804e3d2fb)" style="fill: none; stroke: #000000; stroke-opacity: 0.754545; stroke-width: 1.5; stroke-linecap: square"/>
   </g>
  </g>
  <g id="axes_15">
   <g id="FillBetweenPolyCollection_14">
    <defs>
     <path id="m02a0595cce" d="M 21.200178 -117.588771 
L 21.200178 -117.588771 
L 29.830588 -117.588771 
L 38.460998 -117.588771 
L 47.091408 -117.588771 
L 55.721818 -117.588771 
L 64.352228 -117.588771 
L 72.982638 -117.588771 
L 81.613048 -117.588771 
L 90.243458 -117.588771 
L 98.873868 -117.588771 
L 107.504278 -117.588771 
L 116.134688 -117.588771 
L 124.765098 -117.588771 
L 133.395508 -117.588771 
L 142.025918 -117.588771 
L 150.656328 -117.588771 
L 159.286738 -117.588771 
L 167.917148 -117.588771 
L 176.547558 -117.588771 
L 185.177969 -117.588771 
L 193.808379 -117.588771 
L 202.438789 -117.588771 
L 211.069199 -117.588771 
L 219.699609 -117.588771 
L 228.330019 -117.588771 
L 236.960429 -117.588771 
L 236.960429 -117.588771 
L 236.960429 -117.588771 
L 228.330019 -127.801718 
L 219.699609 -117.588771 
L 211.069199 -117.588771 
L 202.438789 -117.588771 
L 193.808379 -117.588771 
L 185.177969 -117.588771 
L 176.547558 -117.588771 
L 167.917148 -127.801718 
L 159.286738 -117.588771 
L 150.656328 -117.588771 
L 142.025918 -117.588771 
L 133.395508 -117.588771 
L 124.765098 -117.588771 
L 116.134688 -117.588771 
L 107.504278 -138.014666 
L 98.873868 -117.588771 
L 90.243458 -117.588771 
L 81.613048 -127.801718 
L 72.982638 -117.588771 
L 64.352228 -138.014666 
L 55.721818 -117.588771 
L 47.091408 -158.440561 
L 38.460998 -178.866457 
L 29.830588 -127.801718 
L 21.200178 -117.588771 
z
" style="stroke: #d10214; stroke-opacity: 0.781818"/>
    </defs>
    <g clip-path="url(#p5ff901d055)">
     <use xlink:href="#m02a0595cce" x="0" y="337.40125" style="fill: #d10214; fill-opacity: 0.781818; stroke: #d10214; stroke-opacity: 0.781818"/>
    </g>
   </g>
   <g id="line2d_34">
    <path d="M 21.200178 219.812479 
L 29.830588 219.812479 
L 38.460998 219.812479 
L 47.091408 219.812479 
L 55.721818 219.812479 
L 64.352228 219.812479 
L 72.982638 219.812479 
L 81.613048 219.812479 
L 90.243458 219.812479 
L 98.873868 219.812479 
L 107.504278 219.812479 
L 116.134688 219.812479 
L 124.765098 219.812479 
L 133.395508 219.812479 
L 142.025918 219.812479 
L 150.656328 219.812479 
L 159.286738 219.812479 
L 167.917148 219.812479 
L 176.547558 219.812479 
L 185.177969 219.812479 
L 193.808379 219.812479 
L 202.438789 219.812479 
L 211.069199 219.812479 
L 219.699609 219.812479 
L 228.330019 219.812479 
L 236.960429 219.812479 
" clip-path="url(#p5ff901d055)" style="fill: none; stroke: #d10214; stroke-opacity: 0.781818; stroke-width: 1.5; stroke-linecap: square"/>
   </g>
   <g id="line2d_35">
    <path d="M 21.200178 219.812479 
L 29.830588 209.599532 
L 38.460998 158.534793 
L 47.091408 178.960689 
L 55.721818 219.812479 
L 64.352228 199.386584 
L 72.982638 219.812479 
L 81.613048 209.599532 
L 90.243458 219.812479 
L 98.873868 219.812479 
L 107.504278 199.386584 
L 116.134688 219.812479 
L 124.765098 219.812479 
L 133.395508 219.812479 
L 142.025918 219.812479 
L 150.656328 219.812479 
L 159.286738 219.812479 
L 167.917148 209.599532 
L 176.547558 219.812479 
L 185.177969 219.812479 
L 193.808379 219.812479 
L 202.438789 219.812479 
L 211.069199 219.812479 
L 219.699609 219.812479 
L 228.330019 209.599532 
L 236.960429 219.812479 
" clip-path="url(#p5ff901d055)" style="fill: none; stroke: #000000; stroke-opacity: 0.781818; stroke-width: 1.5; stroke-linecap: square"/>
   </g>
  </g>
  <g id="axes_16">
   <g id="FillBetweenPolyCollection_15">
    <defs>
     <path id="m58e885bacf" d="M 19.171617 -106.183316 
L 19.171617 -106.183316 
L 27.583575 -106.183316 
L 35.995533 -106.183316 
L 44.407491 -106.183316 
L 52.819449 -106.183316 
L 61.231407 -106.183316 
L 69.643365 -106.183316 
L 78.055323 -106.183316 
L 86.46728 -106.183316 
L 94.879238 -106.183316 
L 103.291196 -106.183316 
L 111.703154 -106.183316 
L 120.115112 -106.183316 
L 128.52707 -106.183316 
L 136.939028 -106.183316 
L 145.350986 -106.183316 
L 153.762944 -106.183316 
L 162.174902 -106.183316 
L 170.58686 -106.183316 
L 178.998818 -106.183316 
L 187.410776 -106.183316 
L 195.822734 -106.183316 
L 204.234692 -106.183316 
L 212.64665 -106.183316 
L 221.058608 -106.183316 
L 229.470566 -106.183316 
L 229.470566 -106.183316 
L 229.470566 -106.183316 
L 221.058608 -126.609211 
L 212.64665 -106.183316 
L 204.234692 -106.183316 
L 195.822734 -106.183316 
L 187.410776 -126.609211 
L 178.998818 -106.183316 
L 170.58686 -106.183316 
L 162.174902 -106.183316 
L 153.762944 -106.183316 
L 145.350986 -106.183316 
L 136.939028 -126.609211 
L 128.52707 -126.609211 
L 120.115112 -106.183316 
L 111.703154 -106.183316 
L 103.291196 -126.609211 
L 94.879238 -126.609211 
L 86.46728 -106.183316 
L 78.055323 -126.609211 
L 69.643365 -167.461002 
L 61.231407 -106.183316 
L 52.819449 -167.461002 
L 44.407491 -147.035107 
L 35.995533 -147.035107 
L 27.583575 -126.609211 
L 19.171617 -106.183316 
z
" style="stroke: #d10214; stroke-opacity: 0.809091"/>
    </defs>
    <g clip-path="url(#paafb0c168c)">
     <use xlink:href="#m58e885bacf" x="0" y="337.40125" style="fill: #d10214; fill-opacity: 0.809091; stroke: #d10214; stroke-opacity: 0.809091"/>
    </g>
   </g>
   <g id="line2d_36">
    <path d="M 19.171617 231.217934 
L 27.583575 231.217934 
L 35.995533 231.217934 
L 44.407491 231.217934 
L 52.819449 231.217934 
L 61.231407 231.217934 
L 69.643365 231.217934 
L 78.055323 231.217934 
L 86.46728 231.217934 
L 94.879238 231.217934 
L 103.291196 231.217934 
L 111.703154 231.217934 
L 120.115112 231.217934 
L 128.52707 231.217934 
L 136.939028 231.217934 
L 145.350986 231.217934 
L 153.762944 231.217934 
L 162.174902 231.217934 
L 170.58686 231.217934 
L 178.998818 231.217934 
L 187.410776 231.217934 
L 195.822734 231.217934 
L 204.234692 231.217934 
L 212.64665 231.217934 
L 221.058608 231.217934 
L 229.470566 231.217934 
" clip-path="url(#paafb0c168c)" style="fill: none; stroke: #d10214; stroke-opacity: 0.809091; stroke-width: 1.5; stroke-linecap: square"/>
   </g>
   <g id="line2d_37">
    <path d="M 19.171617 231.217934 
L 27.583575 210.792039 
L 35.995533 190.366143 
L 44.407491 190.366143 
L 52.819449 169.940248 
L 61.231407 231.217934 
L 69.643365 169.940248 
L 78.055323 210.792039 
L 86.46728 231.217934 
L 94.879238 210.792039 
L 103.291196 210.792039 
L 111.703154 231.217934 
L 120.115112 231.217934 
L 128.52707 210.792039 
L 136.939028 210.792039 
L 145.350986 231.217934 
L 153.762944 231.217934 
L 162.174902 231.217934 
L 170.58686 231.217934 
L 178.998818 231.217934 
L 187.410776 210.792039 
L 195.822734 231.217934 
L 204.234692 231.217934 
L 212.64665 231.217934 
L 221.058608 210.792039 
L 229.470566 231.217934 
" clip-path="url(#paafb0c168c)" style="fill: none; stroke: #000000; stroke-opacity: 0.809091; stroke-width: 1.5; stroke-linecap: square"/>
   </g>
  </g>
  <g id="axes_17">
   <g id="FillBetweenPolyCollection_16">
    <defs>
     <path id="mb924fb28db" d="M 12.08988 -94.777862 
L 12.08988 -94.777862 
L 20.708544 -94.777862 
L 29.327208 -94.777862 
L 37.945872 -94.777862 
L 46.564536 -94.777862 
L 55.1832 -94.777862 
L 63.801864 -94.777862 
L 72.420528 -94.777862 
L 81.039192 -94.777862 
L 89.657856 -94.777862 
L 98.27652 -94.777862 
L 106.895184 -94.777862 
L 115.513848 -94.777862 
L 124.132512 -94.777862 
L 132.751176 -94.777862 
L 141.36984 -94.777862 
L 149.988504 -94.777862 
L 158.607168 -94.777862 
L 167.225832 -94.777862 
L 175.844496 -94.777862 
L 184.46316 -94.777862 
L 193.081824 -94.777862 
L 201.700488 -94.777862 
L 210.319152 -94.777862 
L 218.937816 -94.777862 
L 227.55648 -94.777862 
L 227.55648 -94.777862 
L 227.55648 -94.777862 
L 218.937816 -115.203757 
L 210.319152 -94.777862 
L 201.700488 -94.777862 
L 193.081824 -94.777862 
L 184.46316 -115.203757 
L 175.844496 -94.777862 
L 167.225832 -115.203757 
L 158.607168 -94.777862 
L 149.988504 -94.777862 
L 141.36984 -94.777862 
L 132.751176 -94.777862 
L 124.132512 -94.777862 
L 115.513848 -115.203757 
L 106.895184 -94.777862 
L 98.27652 -94.777862 
L 89.657856 -94.777862 
L 81.039192 -115.203757 
L 72.420528 -156.055548 
L 63.801864 -135.629652 
L 55.1832 -94.777862 
L 46.564536 -156.055548 
L 37.945872 -135.629652 
L 29.327208 -115.203757 
L 20.708544 -135.629652 
L 12.08988 -94.777862 
z
" style="stroke: #d10214; stroke-opacity: 0.836364"/>
    </defs>
    <g clip-path="url(#p4c70f07f6b)">
     <use xlink:href="#mb924fb28db" x="0" y="337.40125" style="fill: #d10214; fill-opacity: 0.836364; stroke: #d10214; stroke-opacity: 0.836364"/>
    </g>
   </g>
   <g id="line2d_38">
    <path d="M 12.08988 242.623388 
L 20.708544 242.623388 
L 29.327208 242.623388 
L 37.945872 242.623388 
L 46.564536 242.623388 
L 55.1832 242.623388 
L 63.801864 242.623388 
L 72.420528 242.623388 
L 81.039192 242.623388 
L 89.657856 242.623388 
L 98.27652 242.623388 
L 106.895184 242.623388 
L 115.513848 242.623388 
L 124.132512 242.623388 
L 132.751176 242.623388 
L 141.36984 242.623388 
L 149.988504 242.623388 
L 158.607168 242.623388 
L 167.225832 242.623388 
L 175.844496 242.623388 
L 184.46316 242.623388 
L 193.081824 242.623388 
L 201.700488 242.623388 
L 210.319152 242.623388 
L 218.937816 242.623388 
L 227.55648 242.623388 
" clip-path="url(#p4c70f07f6b)" style="fill: none; stroke: #d10214; stroke-opacity: 0.836364; stroke-width: 1.5; stroke-linecap: square"/>
   </g>
   <g id="line2d_39">
    <path d="M 12.08988 242.623388 
L 20.708544 201.771598 
L 29.327208 222.197493 
L 37.945872 201.771598 
L 46.564536 181.345702 
L 55.1832 242.623388 
L 63.801864 201.771598 
L 72.420528 181.345702 
L 81.039192 222.197493 
L 89.657856 242.623388 
L 98.27652 242.623388 
L 106.895184 242.623388 
L 115.513848 222.197493 
L 124.132512 242.623388 
L 132.751176 242.623388 
L 141.36984 242.623388 
L 149.988504 242.623388 
L 158.607168 242.623388 
L 167.225832 222.197493 
L 175.844496 242.623388 
L 184.46316 222.197493 
L 193.081824 242.623388 
L 201.700488 242.623388 
L 210.319152 242.623388 
L 218.937816 222.197493 
L 227.55648 242.623388 
" clip-path="url(#p4c70f07f6b)" style="fill: none; stroke: #000000; stroke-opacity: 0.836364; stroke-width: 1.5; stroke-linecap: square"/>
   </g>
  </g>
  <g id="axes_18">
   <g id="FillBetweenPolyCollection_17">
    <defs>
     <path id="m3c209ae718" d="M 19.248196 -83.372407 
L 19.248196 -83.372407 
L 28.477996 -83.372407 
L 37.707796 -83.372407 
L 46.937596 -83.372407 
L 56.167396 -83.372407 
L 65.397196 -83.372407 
L 74.626996 -83.372407 
L 83.856796 -83.372407 
L 93.086596 -83.372407 
L 102.316396 -83.372407 
L 111.546196 -83.372407 
L 120.775996 -83.372407 
L 130.005796 -83.372407 
L 139.235596 -83.372407 
L 148.465396 -83.372407 
L 157.695196 -83.372407 
L 166.924996 -83.372407 
L 176.154796 -83.372407 
L 185.384596 -83.372407 
L 194.614396 -83.372407 
L 203.844196 -83.372407 
L 213.073996 -83.372407 
L 222.303796 -83.372407 
L 231.533596 -83.372407 
L 240.763396 -83.372407 
L 249.993196 -83.372407 
L 249.993196 -83.372407 
L 249.993196 -83.372407 
L 240.763396 -103.798302 
L 231.533596 -83.372407 
L 222.303796 -83.372407 
L 213.073996 -83.372407 
L 203.844196 -83.372407 
L 194.614396 -83.372407 
L 185.384596 -103.798302 
L 176.154796 -83.372407 
L 166.924996 -103.798302 
L 157.695196 -83.372407 
L 148.465396 -83.372407 
L 139.235596 -83.372407 
L 130.005796 -83.372407 
L 120.775996 -83.372407 
L 111.546196 -103.798302 
L 102.316396 -83.372407 
L 93.086596 -103.798302 
L 83.856796 -124.224198 
L 74.626996 -124.224198 
L 65.397196 -103.798302 
L 56.167396 -103.798302 
L 46.937596 -124.224198 
L 37.707796 -144.650093 
L 28.477996 -124.224198 
L 19.248196 -83.372407 
z
" style="stroke: #d10214; stroke-opacity: 0.863636"/>
    </defs>
    <g clip-path="url(#pc9c0601b74)">
     <use xlink:href="#m3c209ae718" x="0" y="337.40125" style="fill: #d10214; fill-opacity: 0.863636; stroke: #d10214; stroke-opacity: 0.863636"/>
    </g>
   </g>
   <g id="line2d_40">
    <path d="M 19.248196 254.028843 
L 28.477996 254.028843 
L 37.707796 254.028843 
L 46.937596 254.028843 
L 56.167396 254.028843 
L 65.397196 254.028843 
L 74.626996 254.028843 
L 83.856796 254.028843 
L 93.086596 254.028843 
L 102.316396 254.028843 
L 111.546196 254.028843 
L 120.775996 254.028843 
L 130.005796 254.028843 
L 139.235596 254.028843 
L 148.465396 254.028843 
L 157.695196 254.028843 
L 166.924996 254.028843 
L 176.154796 254.028843 
L 185.384596 254.028843 
L 194.614396 254.028843 
L 203.844196 254.028843 
L 213.073996 254.028843 
L 222.303796 254.028843 
L 231.533596 254.028843 
L 240.763396 254.028843 
L 249.993196 254.028843 
" clip-path="url(#pc9c0601b74)" style="fill: none; stroke: #d10214; stroke-opacity: 0.863636; stroke-width: 1.5; stroke-linecap: square"/>
   </g>
   <g id="line2d_41">
    <path d="M 19.248196 254.028843 
L 28.477996 213.177052 
L 37.707796 192.751157 
L 46.937596 213.177052 
L 56.167396 233.602948 
L 65.397196 233.602948 
L 74.626996 213.177052 
L 83.856796 213.177052 
L 93.086596 233.602948 
L 102.316396 254.028843 
L 111.546196 233.602948 
L 120.775996 254.028843 
L 130.005796 254.028843 
L 139.235596 254.028843 
L 148.465396 254.028843 
L 157.695196 254.028843 
L 166.924996 233.602948 
L 176.154796 254.028843 
L 185.384596 233.602948 
L 194.614396 254.028843 
L 203.844196 254.028843 
L 213.073996 254.028843 
L 222.303796 254.028843 
L 231.533596 254.028843 
L 240.763396 233.602948 
L 249.993196 254.028843 
" clip-path="url(#pc9c0601b74)" style="fill: none; stroke: #000000; stroke-opacity: 0.863636; stroke-width: 1.5; stroke-linecap: square"/>
   </g>
  </g>
  <g id="axes_19">
   <g id="FillBetweenPolyCollection_18">
    <defs>
     <path id="m18db740b2d" d="M 14.24213 -71.966952 
L 14.24213 -71.966952 
L 22.917796 -71.966952 
L 31.593463 -71.966952 
L 40.26913 -71.966952 
L 48.944796 -71.966952 
L 57.620463 -71.966952 
L 66.296129 -71.966952 
L 74.971796 -71.966952 
L 83.647462 -71.966952 
L 92.323129 -71.966952 
L 100.998795 -71.966952 
L 109.674462 -71.966952 
L 118.350128 -71.966952 
L 127.025795 -71.966952 
L 135.701461 -71.966952 
L 144.377128 -71.966952 
L 153.052795 -71.966952 
L 161.728461 -71.966952 
L 170.404128 -71.966952 
L 179.079794 -71.966952 
L 187.755461 -71.966952 
L 196.431127 -71.966952 
L 205.106794 -71.966952 
L 213.78246 -71.966952 
L 222.458127 -71.966952 
L 231.133793 -71.966952 
L 231.133793 -71.966952 
L 231.133793 -71.966952 
L 222.458127 -92.392848 
L 213.78246 -71.966952 
L 205.106794 -71.966952 
L 196.431127 -71.966952 
L 187.755461 -71.966952 
L 179.079794 -71.966952 
L 170.404128 -71.966952 
L 161.728461 -92.392848 
L 153.052795 -71.966952 
L 144.377128 -92.392848 
L 135.701461 -92.392848 
L 127.025795 -71.966952 
L 118.350128 -71.966952 
L 109.674462 -71.966952 
L 100.998795 -71.966952 
L 92.323129 -71.966952 
L 83.647462 -92.392848 
L 74.971796 -112.818743 
L 66.296129 -92.392848 
L 57.620463 -112.818743 
L 48.944796 -112.818743 
L 40.26913 -133.244638 
L 31.593463 -92.392848 
L 22.917796 -112.818743 
L 14.24213 -71.966952 
z
" style="stroke: #d10214; stroke-opacity: 0.890909"/>
    </defs>
    <g clip-path="url(#p6434068bb1)">
     <use xlink:href="#m18db740b2d" x="0" y="337.40125" style="fill: #d10214; fill-opacity: 0.890909; stroke: #d10214; stroke-opacity: 0.890909"/>
    </g>
   </g>
   <g id="line2d_42">
    <path d="M 14.24213 265.434298 
L 22.917796 265.434298 
L 31.593463 265.434298 
L 40.26913 265.434298 
L 48.944796 265.434298 
L 57.620463 265.434298 
L 66.296129 265.434298 
L 74.971796 265.434298 
L 83.647462 265.434298 
L 92.323129 265.434298 
L 100.998795 265.434298 
L 109.674462 265.434298 
L 118.350128 265.434298 
L 127.025795 265.434298 
L 135.701461 265.434298 
L 144.377128 265.434298 
L 153.052795 265.434298 
L 161.728461 265.434298 
L 170.404128 265.434298 
L 179.079794 265.434298 
L 187.755461 265.434298 
L 196.431127 265.434298 
L 205.106794 265.434298 
L 213.78246 265.434298 
L 222.458127 265.434298 
L 231.133793 265.434298 
" clip-path="url(#p6434068bb1)" style="fill: none; stroke: #d10214; stroke-opacity: 0.890909; stroke-width: 1.5; stroke-linecap: square"/>
   </g>
   <g id="line2d_43">
    <path d="M 14.24213 265.434298 
L 22.917796 224.582507 
L 31.593463 245.008402 
L 40.26913 204.156612 
L 48.944796 224.582507 
L 57.620463 224.582507 
L 66.296129 245.008402 
L 74.971796 224.582507 
L 83.647462 245.008402 
L 92.323129 265.434298 
L 100.998795 265.434298 
L 109.674462 265.434298 
L 118.350128 265.434298 
L 127.025795 265.434298 
L 135.701461 245.008402 
L 144.377128 245.008402 
L 153.052795 265.434298 
L 161.728461 245.008402 
L 170.404128 265.434298 
L 179.079794 265.434298 
L 187.755461 265.434298 
L 196.431127 265.434298 
L 205.106794 265.434298 
L 213.78246 265.434298 
L 222.458127 245.008402 
L 231.133793 265.434298 
" clip-path="url(#p6434068bb1)" style="fill: none; stroke: #000000; stroke-opacity: 0.890909; stroke-width: 1.5; stroke-linecap: square"/>
   </g>
  </g>
  <g id="axes_20">
   <g id="FillBetweenPolyCollection_19">
    <defs>
     <path id="m787490a22f" d="M 17.687379 -60.561498 
L 17.687379 -60.561498 
L 27.996772 -60.561498 
L 38.306165 -60.561498 
L 48.615558 -60.561498 
L 58.924951 -60.561498 
L 69.234344 -60.561498 
L 79.543737 -60.561498 
L 89.85313 -60.561498 
L 100.162523 -60.561498 
L 110.471916 -60.561498 
L 120.781309 -60.561498 
L 131.090702 -60.561498 
L 141.400095 -60.561498 
L 151.709488 -60.561498 
L 162.018881 -60.561498 
L 172.328274 -60.561498 
L 182.637667 -60.561498 
L 192.94706 -60.561498 
L 203.256453 -60.561498 
L 213.565846 -60.561498 
L 223.875239 -60.561498 
L 234.184631 -60.561498 
L 244.494024 -60.561498 
L 254.803417 -60.561498 
L 265.11281 -60.561498 
L 275.422203 -60.561498 
L 275.422203 -60.561498 
L 275.422203 -60.561498 
L 265.11281 -75.880919 
L 254.803417 -60.561498 
L 244.494024 -60.561498 
L 234.184631 -60.561498 
L 223.875239 -60.561498 
L 213.565846 -60.561498 
L 203.256453 -60.561498 
L 192.94706 -60.561498 
L 182.637667 -60.561498 
L 172.328274 -60.561498 
L 162.018881 -75.880919 
L 151.709488 -60.561498 
L 141.400095 -75.880919 
L 131.090702 -75.880919 
L 120.781309 -60.561498 
L 110.471916 -60.561498 
L 100.162523 -75.880919 
L 89.85313 -60.561498 
L 79.543737 -91.200341 
L 69.234344 -75.880919 
L 58.924951 -75.880919 
L 48.615558 -121.839184 
L 38.306165 -121.839184 
L 27.996772 -75.880919 
L 17.687379 -60.561498 
z
" style="stroke: #d10214; stroke-opacity: 0.918182"/>
    </defs>
    <g clip-path="url(#p2ade3e221c)">
     <use xlink:href="#m787490a22f" x="0" y="337.40125" style="fill: #d10214; fill-opacity: 0.918182; stroke: #d10214; stroke-opacity: 0.918182"/>
    </g>
   </g>
   <g id="line2d_44">
    <path d="M 17.687379 276.839752 
L 27.996772 276.839752 
L 38.306165 276.839752 
L 48.615558 276.839752 
L 58.924951 276.839752 
L 69.234344 276.839752 
L 79.543737 276.839752 
L 89.85313 276.839752 
L 100.162523 276.839752 
L 110.471916 276.839752 
L 120.781309 276.839752 
L 131.090702 276.839752 
L 141.400095 276.839752 
L 151.709488 276.839752 
L 162.018881 276.839752 
L 172.328274 276.839752 
L 182.637667 276.839752 
L 192.94706 276.839752 
L 203.256453 276.839752 
L 213.565846 276.839752 
L 223.875239 276.839752 
L 234.184631 276.839752 
L 244.494024 276.839752 
L 254.803417 276.839752 
L 265.11281 276.839752 
L 275.422203 276.839752 
" clip-path="url(#p2ade3e221c)" style="fill: none; stroke: #d10214; stroke-opacity: 0.918182; stroke-width: 1.5; stroke-linecap: square"/>
   </g>
   <g id="line2d_45">
    <path d="M 17.687379 276.839752 
L 27.996772 261.520331 
L 38.306165 215.562066 
L 48.615558 215.562066 
L 58.924951 261.520331 
L 69.234344 261.520331 
L 79.543737 246.200909 
L 89.85313 276.839752 
L 100.162523 261.520331 
L 110.471916 276.839752 
L 120.781309 276.839752 
L 131.090702 261.520331 
L 141.400095 261.520331 
L 151.709488 276.839752 
L 162.018881 261.520331 
L 172.328274 276.839752 
L 182.637667 276.839752 
L 192.94706 276.839752 
L 203.256453 276.839752 
L 213.565846 276.839752 
L 223.875239 276.839752 
L 234.184631 276.839752 
L 244.494024 276.839752 
L 254.803417 276.839752 
L 265.11281 261.520331 
L 275.422203 276.839752 
" clip-path="url(#p2ade3e221c)" style="fill: none; stroke: #000000; stroke-opacity: 0.918182; stroke-width: 1.5; stroke-linecap: square"/>
   </g>
  </g>
  <g id="axes_21">
   <g id="FillBetweenPolyCollection_20">
    <defs>
     <path id="m795122a8c2" d="M 13.359586 -49.156043 
L 13.359586 -49.156043 
L 24.028267 -49.156043 
L 34.696949 -49.156043 
L 45.36563 -49.156043 
L 56.034312 -49.156043 
L 66.702993 -49.156043 
L 77.371675 -49.156043 
L 88.040356 -49.156043 
L 98.709038 -49.156043 
L 109.377719 -49.156043 
L 120.046401 -49.156043 
L 130.715082 -49.156043 
L 141.383764 -49.156043 
L 152.052445 -49.156043 
L 162.721127 -49.156043 
L 173.389808 -49.156043 
L 184.058489 -49.156043 
L 194.727171 -49.156043 
L 205.395852 -49.156043 
L 216.064534 -49.156043 
L 226.733215 -49.156043 
L 237.401897 -49.156043 
L 248.070578 -49.156043 
L 258.73926 -49.156043 
L 269.407941 -49.156043 
L 280.076623 -49.156043 
L 280.076623 -49.156043 
L 280.076623 -49.156043 
L 269.407941 -64.475465 
L 258.73926 -49.156043 
L 248.070578 -49.156043 
L 237.401897 -49.156043 
L 226.733215 -49.156043 
L 216.064534 -49.156043 
L 205.395852 -49.156043 
L 194.727171 -49.156043 
L 184.058489 -64.475465 
L 173.389808 -49.156043 
L 162.721127 -64.475465 
L 152.052445 -49.156043 
L 141.383764 -64.475465 
L 130.715082 -49.156043 
L 120.046401 -49.156043 
L 109.377719 -64.475465 
L 98.709038 -64.475465 
L 88.040356 -49.156043 
L 77.371675 -49.156043 
L 66.702993 -64.475465 
L 56.034312 -110.433729 
L 45.36563 -95.114308 
L 34.696949 -64.475465 
L 24.028267 -95.114308 
L 13.359586 -49.156043 
z
" style="stroke: #d10214; stroke-opacity: 0.945455"/>
    </defs>
    <g clip-path="url(#pf85f3c3131)">
     <use xlink:href="#m795122a8c2" x="0" y="337.40125" style="fill: #d10214; fill-opacity: 0.945455; stroke: #d10214; stroke-opacity: 0.945455"/>
    </g>
   </g>
   <g id="line2d_46">
    <path d="M 13.359586 288.245207 
L 24.028267 288.245207 
L 34.696949 288.245207 
L 45.36563 288.245207 
L 56.034312 288.245207 
L 66.702993 288.245207 
L 77.371675 288.245207 
L 88.040356 288.245207 
L 98.709038 288.245207 
L 109.377719 288.245207 
L 120.046401 288.245207 
L 130.715082 288.245207 
L 141.383764 288.245207 
L 152.052445 288.245207 
L 162.721127 288.245207 
L 173.389808 288.245207 
L 184.058489 288.245207 
L 194.727171 288.245207 
L 205.395852 288.245207 
L 216.064534 288.245207 
L 226.733215 288.245207 
L 237.401897 288.245207 
L 248.070578 288.245207 
L 258.73926 288.245207 
L 269.407941 288.245207 
L 280.076623 288.245207 
" clip-path="url(#pf85f3c3131)" style="fill: none; stroke: #d10214; stroke-opacity: 0.945455; stroke-width: 1.5; stroke-linecap: square"/>
   </g>
   <g id="line2d_47">
    <path d="M 13.359586 288.245207 
L 24.028267 242.286942 
L 34.696949 272.925785 
L 45.36563 242.286942 
L 56.034312 226.967521 
L 66.702993 272.925785 
L 77.371675 288.245207 
L 88.040356 288.245207 
L 98.709038 272.925785 
L 109.377719 272.925785 
L 120.046401 288.245207 
L 130.715082 288.245207 
L 141.383764 272.925785 
L 152.052445 288.245207 
L 162.721127 272.925785 
L 173.389808 288.245207 
L 184.058489 272.925785 
L 194.727171 288.245207 
L 205.395852 288.245207 
L 216.064534 288.245207 
L 226.733215 288.245207 
L 237.401897 288.245207 
L 248.070578 288.245207 
L 258.73926 288.245207 
L 269.407941 272.925785 
L 280.076623 288.245207 
" clip-path="url(#pf85f3c3131)" style="fill: none; stroke: #000000; stroke-opacity: 0.945455; stroke-width: 1.5; stroke-linecap: square"/>
   </g>
  </g>
  <g id="axes_22">
   <g id="FillBetweenPolyCollection_21">
    <defs>
     <path id="ma064a31f68" d="M 15.8114 -37.750589 
L 15.8114 -37.750589 
L 26.249423 -37.750589 
L 36.687446 -37.750589 
L 47.125469 -37.750589 
L 57.563491 -37.750589 
L 68.001514 -37.750589 
L 78.439537 -37.750589 
L 88.87756 -37.750589 
L 99.315583 -37.750589 
L 109.753606 -37.750589 
L 120.191629 -37.750589 
L 130.629652 -37.750589 
L 141.067674 -37.750589 
L 151.505697 -37.750589 
L 161.94372 -37.750589 
L 172.381743 -37.750589 
L 182.819766 -37.750589 
L 193.257789 -37.750589 
L 203.695812 -37.750589 
L 214.133834 -37.750589 
L 224.571857 -37.750589 
L 235.00988 -37.750589 
L 245.447903 -37.750589 
L 255.885926 -37.750589 
L 266.323949 -37.750589 
L 276.761972 -37.750589 
L 276.761972 -37.750589 
L 276.761972 -37.750589 
L 266.323949 -50.006126 
L 255.885926 -37.750589 
L 245.447903 -37.750589 
L 235.00988 -37.750589 
L 224.571857 -37.750589 
L 214.133834 -37.750589 
L 203.695812 -37.750589 
L 193.257789 -37.750589 
L 182.819766 -50.006126 
L 172.381743 -37.750589 
L 161.94372 -37.750589 
L 151.505697 -62.261663 
L 141.067674 -37.750589 
L 130.629652 -50.006126 
L 120.191629 -37.750589 
L 109.753606 -50.006126 
L 99.315583 -37.750589 
L 88.87756 -50.006126 
L 78.439537 -37.750589 
L 68.001514 -37.750589 
L 57.563491 -99.028275 
L 47.125469 -62.261663 
L 36.687446 -37.750589 
L 26.249423 -86.772738 
L 15.8114 -37.750589 
z
" style="stroke: #d10214; stroke-opacity: 0.972727"/>
    </defs>
    <g clip-path="url(#peda5dc5194)">
     <use xlink:href="#ma064a31f68" x="0" y="337.40125" style="fill: #d10214; fill-opacity: 0.972727; stroke: #d10214; stroke-opacity: 0.972727"/>
    </g>
   </g>
   <g id="line2d_48">
    <path d="M 15.8114 299.650661 
L 26.249423 299.650661 
L 36.687446 299.650661 
L 47.125469 299.650661 
L 57.563491 299.650661 
L 68.001514 299.650661 
L 78.439537 299.650661 
L 88.87756 299.650661 
L 99.315583 299.650661 
L 109.753606 299.650661 
L 120.191629 299.650661 
L 130.629652 299.650661 
L 141.067674 299.650661 
L 151.505697 299.650661 
L 161.94372 299.650661 
L 172.381743 299.650661 
L 182.819766 299.650661 
L 193.257789 299.650661 
L 203.695812 299.650661 
L 214.133834 299.650661 
L 224.571857 299.650661 
L 235.00988 299.650661 
L 245.447903 299.650661 
L 255.885926 299.650661 
L 266.323949 299.650661 
L 276.761972 299.650661 
" clip-path="url(#peda5dc5194)" style="fill: none; stroke: #d10214; stroke-opacity: 0.972727; stroke-width: 1.5; stroke-linecap: square"/>
   </g>
   <g id="line2d_49">
    <path d="M 15.8114 299.650661 
L 26.249423 250.628512 
L 36.687446 299.650661 
L 47.125469 275.139587 
L 57.563491 238.372975 
L 68.001514 299.650661 
L 78.439537 299.650661 
L 88.87756 287.395124 
L 99.315583 299.650661 
L 109.753606 287.395124 
L 120.191629 299.650661 
L 130.629652 287.395124 
L 141.067674 299.650661 
L 151.505697 275.139587 
L 161.94372 299.650661 
L 172.381743 299.650661 
L 182.819766 287.395124 
L 193.257789 299.650661 
L 203.695812 299.650661 
L 214.133834 299.650661 
L 224.571857 299.650661 
L 235.00988 299.650661 
L 245.447903 299.650661 
L 255.885926 299.650661 
L 266.323949 287.395124 
L 276.761972 299.650661 
" clip-path="url(#peda5dc5194)" style="fill: none; stroke: #000000; stroke-opacity: 0.972727; stroke-width: 1.5; stroke-linecap: square"/>
   </g>
  </g>
  <g id="axes_23">
   <g id="FillBetweenPolyCollection_22">
    <defs>
     <path id="m73bed1e895" d="M 18.534304 -26.345134 
L 18.534304 -26.345134 
L 28.83909 -26.345134 
L 39.143877 -26.345134 
L 49.448664 -26.345134 
L 59.75345 -26.345134 
L 70.058237 -26.345134 
L 80.363024 -26.345134 
L 90.66781 -26.345134 
L 100.972597 -26.345134 
L 111.277384 -26.345134 
L 121.582171 -26.345134 
L 131.886957 -26.345134 
L 142.191744 -26.345134 
L 152.496531 -26.345134 
L 162.801317 -26.345134 
L 173.106104 -26.345134 
L 183.410891 -26.345134 
L 193.715677 -26.345134 
L 204.020464 -26.345134 
L 214.325251 -26.345134 
L 224.630038 -26.345134 
L 234.934824 -26.345134 
L 245.239611 -26.345134 
L 255.544398 -26.345134 
L 265.849184 -26.345134 
L 276.153971 -26.345134 
L 276.153971 -26.345134 
L 276.153971 -26.345134 
L 265.849184 -41.664556 
L 255.544398 -26.345134 
L 245.239611 -26.345134 
L 234.934824 -26.345134 
L 224.630038 -26.345134 
L 214.325251 -26.345134 
L 204.020464 -26.345134 
L 193.715677 -26.345134 
L 183.410891 -26.345134 
L 173.106104 -26.345134 
L 162.801317 -26.345134 
L 152.496531 -26.345134 
L 142.191744 -41.664556 
L 131.886957 -26.345134 
L 121.582171 -41.664556 
L 111.277384 -56.983977 
L 100.972597 -41.664556 
L 90.66781 -26.345134 
L 80.363024 -41.664556 
L 70.058237 -26.345134 
L 59.75345 -56.983977 
L 49.448664 -87.62282 
L 39.143877 -72.303399 
L 28.83909 -56.983977 
L 18.534304 -26.345134 
z
" style="stroke: #d10214"/>
    </defs>
    <g clip-path="url(#pbac958b47e)">
     <use xlink:href="#m73bed1e895" x="0" y="337.40125" style="fill: #d10214; stroke: #d10214"/>
    </g>
   </g>
   <g id="line2d_50">
    <path d="M 18.534304 311.056116 
L 28.83909 311.056116 
L 39.143877 311.056116 
L 49.448664 311.056116 
L 59.75345 311.056116 
L 70.058237 311.056116 
L 80.363024 311.056116 
L 90.66781 311.056116 
L 100.972597 311.056116 
L 111.277384 311.056116 
L 121.582171 311.056116 
L 131.886957 311.056116 
L 142.191744 311.056116 
L 152.496531 311.056116 
L 162.801317 311.056116 
L 173.106104 311.056116 
L 183.410891 311.056116 
L 193.715677 311.056116 
L 204.020464 311.056116 
L 214.325251 311.056116 
L 224.630038 311.056116 
L 234.934824 311.056116 
L 245.239611 311.056116 
L 255.544398 311.056116 
L 265.849184 311.056116 
L 276.153971 311.056116 
" clip-path="url(#pbac958b47e)" style="fill: none; stroke: #d10214; stroke-width: 1.5; stroke-linecap: square"/>
   </g>
   <g id="line2d_51">
    <path d="M 18.534304 311.056116 
L 28.83909 280.417273 
L 39.143877 265.097851 
L 49.448664 249.77843 
L 59.75345 280.417273 
L 70.058237 311.056116 
L 80.363024 295.736694 
L 90.66781 311.056116 
L 100.972597 295.736694 
L 111.277384 280.417273 
L 121.582171 295.736694 
L 131.886957 311.056116 
L 142.191744 295.736694 
L 152.496531 311.056116 
L 162.801317 311.056116 
L 173.106104 311.056116 
L 183.410891 311.056116 
L 193.715677 311.056116 
L 204.020464 311.056116 
L 214.325251 311.056116 
L 224.630038 311.056116 
L 234.934824 311.056116 
L 245.239611 311.056116 
L 255.544398 311.056116 
L 265.849184 295.736694 
L 276.153971 311.056116 
" clip-path="url(#pbac958b47e)" style="fill: none; stroke: #000000; stroke-width: 1.5; stroke-linecap: square"/>
   </g>
  </g>
  <g id="text_8">
   <!-- Bundesliga -->
   <g style="fill: #d10214" transform="translate(226.001254 100.08) scale(0.18 -0.18)">
    <defs>
     <path id="Lato-Regular-75" d="M 960 3242 
L 960 1174 
Q 960 806 1129 604 
Q 1299 403 1642 403 
Q 1891 403 2112 521 
Q 2333 640 2518 851 
L 2518 3242 
L 3088 3242 
L 3088 0 
L 2749 0 
Q 2627 0 2595 118 
L 2550 467 
Q 2339 234 2076 91 
Q 1814 -51 1475 -51 
Q 1210 -51 1006 37 
Q 803 125 665 285 
Q 528 445 459 672 
Q 390 899 390 1174 
L 390 3242 
L 960 3242 
z
" transform="scale(0.015625)"/>
     <path id="Lato-Regular-6e" d="M 467 0 
L 467 3242 
L 806 3242 
Q 928 3242 960 3123 
L 1005 2771 
Q 1216 3005 1477 3149 
Q 1738 3293 2080 3293 
Q 2346 3293 2549 3205 
Q 2752 3117 2888 2955 
Q 3024 2794 3094 2566 
Q 3165 2339 3165 2064 
L 3165 0 
L 2595 0 
L 2595 2064 
Q 2595 2432 2427 2635 
Q 2259 2838 1914 2838 
Q 1661 2838 1441 2716 
Q 1222 2595 1037 2387 
L 1037 0 
L 467 0 
z
" transform="scale(0.015625)"/>
     <path id="Lato-Regular-64" d="M 2749 0 
Q 2627 0 2595 118 
L 2544 512 
Q 2336 259 2069 107 
Q 1802 -45 1456 -45 
Q 1178 -45 950 62 
Q 723 170 563 378 
Q 403 586 316 896 
Q 230 1206 230 1610 
Q 230 1968 326 2277 
Q 422 2586 603 2813 
Q 784 3040 1043 3169 
Q 1302 3299 1632 3299 
Q 1930 3299 2141 3198 
Q 2352 3098 2518 2915 
L 2518 4714 
L 3088 4714 
L 3088 0 
L 2749 0 
z
M 1645 416 
Q 1923 416 2132 544 
Q 2342 672 2518 906 
L 2518 2474 
Q 2362 2685 2174 2769 
Q 1987 2854 1760 2854 
Q 1306 2854 1062 2531 
Q 819 2208 819 1610 
Q 819 1293 873 1067 
Q 928 842 1033 696 
Q 1139 550 1292 483 
Q 1446 416 1645 416 
z
" transform="scale(0.015625)"/>
     <path id="Lato-Regular-65" d="M 1750 3293 
Q 2042 3293 2288 3195 
Q 2534 3098 2713 2914 
Q 2893 2730 2993 2459 
Q 3094 2189 3094 1843 
Q 3094 1709 3065 1664 
Q 3037 1619 2957 1619 
L 800 1619 
Q 806 1312 883 1085 
Q 960 858 1094 706 
Q 1229 554 1414 478 
Q 1600 403 1830 403 
Q 2045 403 2200 452 
Q 2355 502 2467 560 
Q 2579 618 2654 667 
Q 2730 717 2784 717 
Q 2854 717 2893 662 
L 3053 454 
Q 2947 326 2800 232 
Q 2653 138 2485 77 
Q 2317 16 2137 -14 
Q 1958 -45 1782 -45 
Q 1446 -45 1163 68 
Q 880 182 673 401 
Q 467 621 352 944 
Q 237 1267 237 1686 
Q 237 2026 341 2320 
Q 445 2614 640 2830 
Q 835 3046 1116 3169 
Q 1398 3293 1750 3293 
z
M 1763 2874 
Q 1350 2874 1113 2635 
Q 877 2397 819 1974 
L 2582 1974 
Q 2582 2173 2528 2337 
Q 2474 2502 2368 2622 
Q 2262 2742 2110 2808 
Q 1958 2874 1763 2874 
z
" transform="scale(0.015625)"/>
     <path id="Lato-Regular-73" d="M 2323 2707 
Q 2285 2637 2205 2637 
Q 2157 2637 2096 2672 
Q 2035 2707 1947 2750 
Q 1859 2794 1737 2830 
Q 1616 2867 1450 2867 
Q 1306 2867 1190 2830 
Q 1075 2794 993 2730 
Q 912 2666 869 2581 
Q 826 2496 826 2397 
Q 826 2272 898 2189 
Q 970 2106 1088 2045 
Q 1206 1984 1356 1937 
Q 1507 1891 1665 1838 
Q 1824 1786 1974 1722 
Q 2125 1658 2243 1562 
Q 2362 1466 2434 1326 
Q 2506 1187 2506 992 
Q 2506 768 2426 577 
Q 2346 387 2189 248 
Q 2032 109 1805 29 
Q 1578 -51 1280 -51 
Q 941 -51 665 59 
Q 390 170 198 342 
L 333 560 
Q 358 602 393 624 
Q 429 646 486 646 
Q 544 646 608 601 
Q 672 557 763 502 
Q 854 448 984 403 
Q 1114 358 1309 358 
Q 1475 358 1600 401 
Q 1725 445 1808 518 
Q 1891 592 1931 688 
Q 1971 784 1971 893 
Q 1971 1027 1899 1115 
Q 1827 1203 1708 1265 
Q 1590 1328 1438 1374 
Q 1286 1421 1128 1472 
Q 970 1523 818 1588 
Q 666 1654 547 1753 
Q 429 1853 357 1998 
Q 285 2144 285 2352 
Q 285 2538 361 2709 
Q 438 2880 585 3009 
Q 733 3139 947 3216 
Q 1162 3293 1437 3293 
Q 1757 3293 2011 3192 
Q 2266 3091 2451 2915 
L 2323 2707 
z
" transform="scale(0.015625)"/>
     <path id="Lato-Regular-6c" d="M 1101 4714 
L 1101 0 
L 531 0 
L 531 4714 
L 1101 4714 
z
" transform="scale(0.015625)"/>
     <path id="Lato-Regular-69" d="M 1101 3242 
L 1101 0 
L 531 0 
L 531 3242 
L 1101 3242 
z
M 1229 4259 
Q 1229 4176 1195 4104 
Q 1162 4032 1106 3976 
Q 1050 3920 976 3888 
Q 902 3856 819 3856 
Q 736 3856 664 3888 
Q 592 3920 536 3976 
Q 480 4032 448 4104 
Q 416 4176 416 4259 
Q 416 4342 448 4417 
Q 480 4493 536 4549 
Q 592 4605 664 4637 
Q 736 4669 819 4669 
Q 902 4669 976 4637 
Q 1050 4605 1106 4549 
Q 1162 4493 1195 4417 
Q 1229 4342 1229 4259 
z
" transform="scale(0.015625)"/>
     <path id="Lato-Regular-67" d="M 1558 3296 
Q 1770 3296 1954 3249 
Q 2138 3203 2288 3114 
L 3168 3114 
L 3168 2902 
Q 3168 2797 3034 2768 
L 2666 2717 
Q 2774 2509 2774 2253 
Q 2774 2016 2683 1822 
Q 2592 1629 2430 1491 
Q 2269 1354 2046 1280 
Q 1824 1206 1558 1206 
Q 1331 1206 1130 1261 
Q 1027 1197 974 1123 
Q 922 1050 922 979 
Q 922 864 1014 805 
Q 1107 746 1260 720 
Q 1414 694 1609 688 
Q 1805 682 2008 667 
Q 2211 653 2406 617 
Q 2602 582 2755 502 
Q 2909 422 3001 281 
Q 3094 141 3094 -83 
Q 3094 -291 2990 -486 
Q 2886 -682 2691 -834 
Q 2496 -986 2214 -1077 
Q 1933 -1168 1578 -1168 
Q 1222 -1168 955 -1097 
Q 688 -1027 512 -908 
Q 336 -790 248 -635 
Q 160 -480 160 -310 
Q 160 -70 312 98 
Q 464 266 730 365 
Q 592 429 510 536 
Q 429 643 429 822 
Q 429 893 454 968 
Q 480 1043 533 1116 
Q 586 1190 662 1257 
Q 739 1325 842 1376 
Q 602 1510 466 1732 
Q 330 1955 330 2253 
Q 330 2490 421 2683 
Q 512 2877 675 3013 
Q 838 3149 1064 3222 
Q 1290 3296 1558 3296 
z
M 2570 -176 
Q 2570 -54 2502 19 
Q 2435 93 2320 133 
Q 2205 173 2054 192 
Q 1904 211 1737 219 
Q 1571 227 1398 236 
Q 1226 246 1069 272 
Q 886 186 772 61 
Q 659 -64 659 -237 
Q 659 -346 715 -440 
Q 771 -534 886 -603 
Q 1002 -672 1176 -712 
Q 1350 -752 1587 -752 
Q 1818 -752 2000 -710 
Q 2182 -669 2308 -592 
Q 2435 -515 2502 -409 
Q 2570 -304 2570 -176 
z
M 1558 1584 
Q 1731 1584 1864 1632 
Q 1997 1680 2086 1766 
Q 2176 1853 2221 1973 
Q 2266 2093 2266 2237 
Q 2266 2534 2085 2710 
Q 1904 2886 1558 2886 
Q 1216 2886 1035 2710 
Q 854 2534 854 2237 
Q 854 2093 900 1973 
Q 947 1853 1036 1766 
Q 1126 1680 1257 1632 
Q 1389 1584 1558 1584 
z
" transform="scale(0.015625)"/>
     <path id="Lato-Regular-61" d="M 2848 0 
L 2595 0 
Q 2512 0 2461 25 
Q 2410 51 2394 134 
L 2330 435 
Q 2202 320 2080 229 
Q 1958 138 1824 75 
Q 1690 13 1538 -19 
Q 1386 -51 1200 -51 
Q 1011 -51 846 1 
Q 682 54 560 160 
Q 438 266 366 427 
Q 294 589 294 810 
Q 294 1002 400 1179 
Q 506 1357 741 1494 
Q 976 1632 1357 1720 
Q 1738 1808 2288 1821 
L 2288 2074 
Q 2288 2451 2126 2644 
Q 1965 2838 1648 2838 
Q 1440 2838 1297 2785 
Q 1155 2733 1051 2667 
Q 947 2602 872 2549 
Q 797 2496 723 2496 
Q 666 2496 622 2526 
Q 579 2557 554 2602 
L 451 2784 
Q 720 3043 1030 3171 
Q 1341 3299 1718 3299 
Q 1990 3299 2201 3209 
Q 2413 3120 2557 2960 
Q 2701 2800 2774 2573 
Q 2848 2346 2848 2074 
L 2848 0 
z
M 1370 349 
Q 1520 349 1645 379 
Q 1770 410 1880 466 
Q 1990 522 2091 602 
Q 2192 682 2288 784 
L 2288 1459 
Q 1894 1446 1619 1396 
Q 1344 1347 1171 1267 
Q 998 1187 920 1078 
Q 842 970 842 835 
Q 842 707 883 614 
Q 925 522 995 462 
Q 1066 403 1162 376 
Q 1258 349 1370 349 
z
" transform="scale(0.015625)"/>
    </defs>
    <use xlink:href="#Lato-Regular-42"/>
    <use xlink:href="#Lato-Regular-75" transform="translate(64.700012 0)"/>
    <use xlink:href="#Lato-Regular-6e" transform="translate(120.300018 0)"/>
    <use xlink:href="#Lato-Regular-64" transform="translate(175.900024 0)"/>
    <use xlink:href="#Lato-Regular-65" transform="translate(231.800034 0)"/>
    <use xlink:href="#Lato-Regular-73" transform="translate(284.200043 0)"/>
    <use xlink:href="#Lato-Regular-6c" transform="translate(327.600052 0)"/>
    <use xlink:href="#Lato-Regular-69" transform="translate(353.200058 0)"/>
    <use xlink:href="#Lato-Regular-67" transform="translate(378.800064 0)"/>
    <use xlink:href="#Lato-Regular-61" transform="translate(429.90007 0)"/>
   </g>
  </g>
 </g>
 <defs>
  <clipPath id="pcfa32438a3">
   <rect x="7.378117" y="7.2" width="438.223137" height="67.405455"/>
  </clipPath>
  <clipPath id="pfd96401ec1">
   <rect x="7.378117" y="18.605455" width="438.223137" height="67.405455"/>
  </clipPath>
  <clipPath id="p00a400591e">
   <rect x="7.378117" y="30.010909" width="438.223137" height="67.405455"/>
  </clipPath>
  <clipPath id="p5a4c5dbe3d">
   <rect x="7.378117" y="41.416364" width="438.223137" height="67.405455"/>
  </clipPath>
  <clipPath id="p8514cee357">
   <rect x="7.378117" y="52.821818" width="438.223137" height="67.405455"/>
  </clipPath>
  <clipPath id="pe447a25edb">
   <rect x="7.378117" y="64.227273" width="438.223137" height="67.405455"/>
  </clipPath>
  <clipPath id="pa34e728557">
   <rect x="7.378117" y="75.632727" width="438.223137" height="67.405455"/>
  </clipPath>
  <clipPath id="p0e04b84074">
   <rect x="7.378117" y="87.038182" width="438.223137" height="67.405455"/>
  </clipPath>
  <clipPath id="pbdfd72f231">
   <rect x="7.378117" y="98.443636" width="438.223137" height="67.405455"/>
  </clipPath>
  <clipPath id="p25e0d96d6c">
   <rect x="7.378117" y="109.849091" width="438.223137" height="67.405455"/>
  </clipPath>
  <clipPath id="p1acc0bb530">
   <rect x="7.378117" y="121.254545" width="438.223137" height="67.405455"/>
  </clipPath>
  <clipPath id="p1a11f07a3f">
   <rect x="7.378117" y="132.66" width="438.223137" height="67.405455"/>
  </clipPath>
  <clipPath id="p3804e3d2fb">
   <rect x="7.378117" y="144.065455" width="438.223137" height="67.405455"/>
  </clipPath>
  <clipPath id="p5ff901d055">
   <rect x="7.378117" y="155.470909" width="438.223137" height="67.405455"/>
  </clipPath>
  <clipPath id="paafb0c168c">
   <rect x="7.378117" y="166.876364" width="438.223137" height="67.405455"/>
  </clipPath>
  <clipPath id="p4c70f07f6b">
   <rect x="7.378117" y="178.281818" width="438.223137" height="67.405455"/>
  </clipPath>
  <clipPath id="pc9c0601b74">
   <rect x="7.378117" y="189.687273" width="438.223137" height="67.405455"/>
  </clipPath>
  <clipPath id="p6434068bb1">
   <rect x="7.378117" y="201.092727" width="438.223137" height="67.405455"/>
  </clipPath>
  <clipPath id="p2ade3e221c">
   <rect x="7.378117" y="212.498182" width="438.223137" height="67.405455"/>
  </clipPath>
  <clipPath id="pf85f3c3131">
   <rect x="7.378117" y="223.903636" width="438.223137" height="67.405455"/>
  </clipPath>
  <clipPath id="peda5dc5194">
   <rect x="7.378117" y="235.309091" width="438.223137" height="67.405455"/>
  </clipPath>
  <clipPath id="pbac958b47e">
   <rect x="7.378117" y="246.714545" width="438.223137" height="67.405455"/>
  </clipPath>
 </defs>
</svg>
