<?xml version="1.0" encoding="utf-8" standalone="no"?>
<!DOCTYPE svg PUBLIC "-//W3C//DTD SVG 1.1//EN"
  "http://www.w3.org/Graphics/SVG/1.1/DTD/svg11.dtd">
<svg xmlns:xlink="http://www.w3.org/1999/xlink" width="453.6pt" height="337.40125pt" viewBox="0 0 453.6 337.40125" xmlns="http://www.w3.org/2000/svg" version="1.1">
 <metadata>
  <rdf:RDF xmlns:dc="http://purl.org/dc/elements/1.1/" xmlns:cc="http://creativecommons.org/ns#" xmlns:rdf="http://www.w3.org/1999/02/22-rdf-syntax-ns#">
   <cc:Work>
    <dc:type rdf:resource="http://purl.org/dc/dcmitype/StillImage"/>
    <dc:date>2025-11-27T18:45:01.834023</dc:date>
    <dc:format>image/svg+xml</dc:format>
    <dc:creator>
     <cc:Agent>
      <dc:title>Matplotlib v3.10.5, https://matplotlib.org/</dc:title>
     </cc:Agent>
    </dc:creator>
   </cc:Work>
  </rdf:RDF>
 </metadata>
 <defs>
  <style type="text/css">*{stroke-linejoin: round; stroke-linecap: butt}</style>
 </defs>
 <g id="figure_1">
  <g id="patch_1">
   <path d="M 0 337.40125 
L 453.6 337.40125 
L 453.6 0 
L 0 0 
z
" style="fill: #f5f5dc"/>
  </g>
  <g id="axes_1">
   <g id="patch_2">
    <path d="M 7.2 314.12 
L 446.4 314.12 
L 446.4 7.2 
L 7.2 7.2 
z
" style="fill: #f5f5dc"/>
   </g>
   <g id="matplotlib.axis_1">
    <g id="xtick_1">
     <g id="line2d_1">
      <defs>
       <path id="m888cf11ff9" d="M 0 0 
L 0 3.5 
" style="stroke: #000000; stroke-width: 0.8"/>
      </defs>
      <g>
       <use xlink:href="#m888cf11ff9" x="75.825" y="314.12" style="stroke: #000000; stroke-width: 0.8"/>
      </g>
     </g>
     <g id="text_1">
      <!-- €250M -->
      <g transform="translate(59.625 328.485625) scale(0.1 -0.1)">
       <defs>
        <path id="Lato-Regular-20ac" d="M 109 2877 
L 579 2877 
Q 643 3280 795 3605 
Q 947 3930 1172 4158 
Q 1398 4387 1692 4508 
Q 1987 4630 2333 4630 
Q 2762 4630 3066 4470 
Q 3370 4310 3594 4029 
L 3398 3811 
Q 3373 3782 3347 3761 
Q 3322 3741 3277 3741 
Q 3222 3741 3163 3801 
Q 3104 3862 3005 3936 
Q 2906 4010 2750 4070 
Q 2595 4131 2355 4131 
Q 1888 4131 1579 3811 
Q 1270 3491 1168 2877 
L 2918 2877 
L 2918 2701 
Q 2918 2643 2875 2596 
Q 2832 2550 2755 2550 
L 1130 2550 
Q 1126 2486 1124 2422 
Q 1123 2358 1123 2291 
Q 1123 2240 1123 2192 
Q 1123 2144 1126 2096 
L 2621 2096 
L 2621 1917 
Q 2621 1862 2576 1816 
Q 2531 1770 2454 1770 
L 1155 1770 
Q 1245 1110 1552 780 
Q 1859 451 2326 451 
Q 2499 451 2630 484 
Q 2762 518 2858 569 
Q 2954 621 3022 680 
Q 3091 739 3142 790 
Q 3194 842 3234 875 
Q 3274 909 3312 909 
Q 3338 909 3357 897 
Q 3376 886 3402 864 
L 3642 640 
Q 3418 314 3085 133 
Q 2752 -48 2294 -48 
Q 1923 -48 1625 78 
Q 1328 205 1110 440 
Q 893 675 753 1012 
Q 614 1350 563 1770 
L 109 1770 
L 109 2096 
L 538 2096 
Q 534 2144 534 2192 
Q 534 2240 534 2291 
Q 534 2355 536 2420 
Q 538 2486 541 2550 
L 109 2550 
L 109 2877 
z
" transform="scale(0.015625)"/>
        <path id="Lato-Regular-32" d="M 1923 4637 
Q 2214 4637 2467 4550 
Q 2720 4464 2904 4299 
Q 3088 4134 3193 3897 
Q 3299 3661 3299 3360 
Q 3299 3104 3222 2886 
Q 3146 2669 3014 2469 
Q 2883 2269 2712 2081 
Q 2541 1894 2349 1699 
L 1142 464 
Q 1270 499 1401 520 
Q 1533 541 1654 541 
L 3190 541 
Q 3283 541 3337 486 
Q 3392 432 3392 346 
L 3392 0 
L 333 0 
L 333 195 
Q 333 256 357 320 
Q 381 384 435 438 
L 1904 1914 
Q 2086 2099 2236 2270 
Q 2387 2442 2494 2614 
Q 2602 2787 2659 2964 
Q 2717 3142 2717 3344 
Q 2717 3546 2653 3698 
Q 2589 3850 2477 3949 
Q 2365 4048 2214 4097 
Q 2064 4147 1891 4147 
Q 1718 4147 1571 4096 
Q 1424 4045 1310 3953 
Q 1197 3862 1118 3737 
Q 1040 3613 1008 3462 
Q 982 3370 931 3328 
Q 880 3286 797 3286 
Q 781 3286 763 3288 
Q 746 3290 723 3293 
L 426 3344 
Q 470 3658 598 3899 
Q 726 4141 923 4304 
Q 1120 4467 1374 4552 
Q 1629 4637 1923 4637 
z
" transform="scale(0.015625)"/>
        <path id="Lato-Regular-35" d="M 3130 4336 
Q 3130 4214 3053 4136 
Q 2976 4058 2794 4058 
L 1354 4058 
L 1142 2854 
Q 1501 2931 1805 2931 
Q 2163 2931 2436 2825 
Q 2710 2720 2896 2534 
Q 3082 2349 3176 2096 
Q 3270 1843 3270 1546 
Q 3270 1181 3142 886 
Q 3014 592 2792 382 
Q 2570 173 2269 61 
Q 1968 -51 1619 -51 
Q 1418 -51 1232 -11 
Q 1046 29 886 96 
Q 726 163 588 249 
Q 451 336 346 432 
L 518 675 
Q 576 758 672 758 
Q 733 758 814 708 
Q 896 659 1011 598 
Q 1126 538 1281 488 
Q 1437 438 1651 438 
Q 1891 438 2083 515 
Q 2275 592 2411 734 
Q 2547 877 2620 1075 
Q 2694 1274 2694 1520 
Q 2694 1734 2632 1907 
Q 2570 2080 2443 2201 
Q 2317 2323 2128 2390 
Q 1939 2458 1686 2458 
Q 1514 2458 1328 2429 
Q 1142 2400 944 2336 
L 586 2442 
L 957 4586 
L 3130 4586 
L 3130 4336 
z
" transform="scale(0.015625)"/>
        <path id="Lato-Regular-30" d="M 3520 2291 
Q 3520 1690 3390 1250 
Q 3261 810 3037 522 
Q 2813 234 2507 93 
Q 2202 -48 1853 -48 
Q 1501 -48 1198 93 
Q 896 234 672 522 
Q 448 810 320 1250 
Q 192 1690 192 2291 
Q 192 2893 320 3334 
Q 448 3776 672 4065 
Q 896 4355 1198 4496 
Q 1501 4637 1853 4637 
Q 2202 4637 2507 4496 
Q 2813 4355 3037 4065 
Q 3261 3776 3390 3334 
Q 3520 2893 3520 2291 
z
M 2928 2291 
Q 2928 2816 2840 3173 
Q 2752 3530 2603 3747 
Q 2454 3965 2259 4059 
Q 2064 4154 1853 4154 
Q 1642 4154 1446 4059 
Q 1251 3965 1104 3747 
Q 957 3530 869 3173 
Q 781 2816 781 2291 
Q 781 1766 869 1411 
Q 957 1056 1104 838 
Q 1251 621 1446 526 
Q 1642 432 1853 432 
Q 2064 432 2259 526 
Q 2454 621 2603 838 
Q 2752 1056 2840 1411 
Q 2928 1766 2928 2291 
z
" transform="scale(0.015625)"/>
        <path id="Lato-Regular-4d" d="M 2813 1658 
Q 2858 1581 2891 1496 
Q 2925 1411 2957 1325 
Q 2989 1414 3024 1496 
Q 3059 1578 3104 1661 
L 4656 4480 
Q 4698 4554 4742 4570 
Q 4787 4586 4870 4586 
L 5328 4586 
L 5328 0 
L 4784 0 
L 4784 3370 
Q 4784 3437 4787 3513 
Q 4790 3590 4797 3670 
L 3226 803 
Q 3146 659 3002 659 
L 2912 659 
Q 2768 659 2688 803 
L 1082 3680 
Q 1091 3597 1096 3517 
Q 1101 3437 1101 3370 
L 1101 0 
L 557 0 
L 557 4586 
L 1014 4586 
Q 1098 4586 1142 4570 
Q 1187 4554 1229 4480 
L 2813 1658 
L 2813 1658 
z
" transform="scale(0.015625)"/>
       </defs>
       <use xlink:href="#Lato-Regular-20ac"/>
       <use xlink:href="#Lato-Regular-32" transform="translate(58 0)"/>
       <use xlink:href="#Lato-Regular-35" transform="translate(116 0)"/>
       <use xlink:href="#Lato-Regular-30" transform="translate(174 0)"/>
       <use xlink:href="#Lato-Regular-4d" transform="translate(232 0)"/>
      </g>
     </g>
    </g>
    <g id="xtick_2">
     <g id="line2d_2">
      <g>
       <use xlink:href="#m888cf11ff9" x="144.45" y="314.12" style="stroke: #000000; stroke-width: 0.8"/>
      </g>
     </g>
     <g id="text_2">
      <!-- €500M -->
      <g transform="translate(128.25 328.485625) scale(0.1 -0.1)">
       <use xlink:href="#Lato-Regular-20ac"/>
       <use xlink:href="#Lato-Regular-35" transform="translate(58 0)"/>
       <use xlink:href="#Lato-Regular-30" transform="translate(116 0)"/>
       <use xlink:href="#Lato-Regular-30" transform="translate(174 0)"/>
       <use xlink:href="#Lato-Regular-4d" transform="translate(232 0)"/>
      </g>
     </g>
    </g>
    <g id="xtick_3">
     <g id="line2d_3">
      <g>
       <use xlink:href="#m888cf11ff9" x="213.075" y="314.12" style="stroke: #000000; stroke-width: 0.8"/>
      </g>
     </g>
     <g id="text_3">
      <!-- €750M -->
      <g transform="translate(196.875 328.485625) scale(0.1 -0.1)">
       <defs>
        <path id="Lato-Regular-37" d="M 3469 4586 
L 3469 4330 
Q 3469 4221 3445 4150 
Q 3421 4080 3395 4032 
L 1498 202 
Q 1456 118 1382 59 
Q 1309 0 1184 0 
L 778 0 
L 2704 3782 
Q 2746 3862 2789 3929 
Q 2832 3997 2886 4058 
L 493 4058 
Q 438 4058 395 4101 
Q 352 4144 352 4198 
L 352 4586 
L 3469 4586 
z
" transform="scale(0.015625)"/>
       </defs>
       <use xlink:href="#Lato-Regular-20ac"/>
       <use xlink:href="#Lato-Regular-37" transform="translate(58 0)"/>
       <use xlink:href="#Lato-Regular-35" transform="translate(116 0)"/>
       <use xlink:href="#Lato-Regular-30" transform="translate(174 0)"/>
       <use xlink:href="#Lato-Regular-4d" transform="translate(232 0)"/>
      </g>
     </g>
    </g>
    <g id="xtick_4">
     <g id="line2d_4">
      <g>
       <use xlink:href="#m888cf11ff9" x="281.7" y="314.12" style="stroke: #000000; stroke-width: 0.8"/>
      </g>
     </g>
     <g id="text_4">
      <!-- €1B -->
      <g transform="translate(272.664844 328.485625) scale(0.1 -0.1)">
       <defs>
        <path id="Lato-Regular-31" d="M 918 435 
L 1904 435 
L 1904 3562 
Q 1904 3702 1914 3846 
L 1094 3146 
Q 1062 3120 1030 3109 
Q 998 3098 970 3098 
Q 922 3098 883 3118 
Q 845 3139 826 3168 
L 646 3414 
L 2010 4595 
L 2474 4595 
L 2474 435 
L 3376 435 
L 3376 0 
L 918 0 
L 918 435 
z
" transform="scale(0.015625)"/>
        <path id="Lato-Regular-42" d="M 557 0 
L 557 4586 
L 2019 4586 
Q 2442 4586 2747 4502 
Q 3053 4419 3249 4265 
Q 3446 4112 3540 3889 
Q 3635 3667 3635 3389 
Q 3635 3219 3582 3062 
Q 3530 2906 3422 2771 
Q 3315 2637 3153 2531 
Q 2992 2426 2774 2358 
Q 3277 2259 3533 1996 
Q 3789 1734 3789 1306 
Q 3789 1014 3681 774 
Q 3574 534 3368 361 
Q 3162 189 2862 94 
Q 2563 0 2179 0 
L 557 0 
z
M 1178 2090 
L 1178 493 
L 2170 493 
Q 2435 493 2625 553 
Q 2816 614 2939 724 
Q 3062 835 3120 987 
Q 3178 1139 3178 1322 
Q 3178 1677 2926 1883 
Q 2675 2090 2166 2090 
L 1178 2090 
z
M 1178 2531 
L 1997 2531 
Q 2259 2531 2451 2588 
Q 2643 2646 2769 2748 
Q 2896 2851 2957 2996 
Q 3018 3142 3018 3315 
Q 3018 3718 2774 3907 
Q 2531 4096 2019 4096 
L 1178 4096 
L 1178 2531 
z
" transform="scale(0.015625)"/>
       </defs>
       <use xlink:href="#Lato-Regular-20ac"/>
       <use xlink:href="#Lato-Regular-31" transform="translate(58 0)"/>
       <use xlink:href="#Lato-Regular-42" transform="translate(116 0)"/>
      </g>
     </g>
    </g>
    <g id="xtick_5">
     <g id="line2d_5">
      <g>
       <use xlink:href="#m888cf11ff9" x="350.325" y="314.12" style="stroke: #000000; stroke-width: 0.8"/>
      </g>
     </g>
     <g id="text_5">
      <!-- €1.25B -->
      <g transform="translate(334.429688 328.485625) scale(0.1 -0.1)">
       <defs>
        <path id="Lato-Regular-2e" d="M 282 352 
Q 282 435 312 508 
Q 342 582 395 636 
Q 448 691 521 723 
Q 595 755 678 755 
Q 762 755 835 723 
Q 909 691 963 636 
Q 1018 582 1048 508 
Q 1078 435 1078 352 
Q 1078 266 1048 194 
Q 1018 122 963 67 
Q 909 13 835 -17 
Q 762 -48 678 -48 
Q 595 -48 521 -17 
Q 448 13 395 67 
Q 342 122 312 194 
Q 282 266 282 352 
z
" transform="scale(0.015625)"/>
       </defs>
       <use xlink:href="#Lato-Regular-20ac"/>
       <use xlink:href="#Lato-Regular-31" transform="translate(58 0)"/>
       <use xlink:href="#Lato-Regular-2e" transform="translate(116 0)"/>
       <use xlink:href="#Lato-Regular-32" transform="translate(137.199997 0)"/>
       <use xlink:href="#Lato-Regular-35" transform="translate(195.199997 0)"/>
       <use xlink:href="#Lato-Regular-42" transform="translate(253.199997 0)"/>
      </g>
     </g>
    </g>
    <g id="xtick_6">
     <g id="line2d_6">
      <g>
       <use xlink:href="#m888cf11ff9" x="418.95" y="314.12" style="stroke: #000000; stroke-width: 0.8"/>
      </g>
     </g>
     <g id="text_6">
      <!-- €1.5B -->
      <g transform="translate(405.954688 328.485625) scale(0.1 -0.1)">
       <use xlink:href="#Lato-Regular-20ac"/>
       <use xlink:href="#Lato-Regular-31" transform="translate(58 0)"/>
       <use xlink:href="#Lato-Regular-2e" transform="translate(116 0)"/>
       <use xlink:href="#Lato-Regular-35" transform="translate(137.199997 0)"/>
       <use xlink:href="#Lato-Regular-42" transform="translate(195.199997 0)"/>
      </g>
     </g>
    </g>
   </g>
  </g>
  <g id="axes_2">
   <g id="FillBetweenPolyCollection_1">
    <defs>
     <path id="m37e84fe7d0" d="M 5.082856 -271.326622 
L 5.082856 -271.326622 
L 9.429439 -271.326622 
L 13.776022 -271.326622 
L 18.122605 -271.326622 
L 22.469187 -271.326622 
L 26.81577 -271.326622 
L 31.162353 -271.326622 
L 35.508935 -271.326622 
L 39.855518 -271.326622 
L 44.202101 -271.326622 
L 48.548684 -271.326622 
L 52.895266 -271.326622 
L 57.241849 -271.326622 
L 61.588432 -271.326622 
L 65.935015 -271.326622 
L 70.281597 -271.326622 
L 74.62818 -271.326622 
L 78.974763 -271.326622 
L 83.321345 -271.326622 
L 87.667928 -271.326622 
L 92.014511 -271.326622 
L 96.361094 -271.326622 
L 96.361094 -271.326622 
L 96.361094 -271.326622 
L 92.014511 -285.34439 
L 87.667928 -271.326622 
L 83.321345 -285.34439 
L 78.974763 -271.326622 
L 74.62818 -271.326622 
L 70.281597 -271.326622 
L 65.935015 -271.326622 
L 61.588432 -285.34439 
L 57.241849 -271.326622 
L 52.895266 -271.326622 
L 48.548684 -285.34439 
L 44.202101 -271.326622 
L 39.855518 -285.34439 
L 35.508935 -271.326622 
L 31.162353 -285.34439 
L 26.81577 -299.362159 
L 22.469187 -313.379928 
L 18.122605 -327.397696 
L 13.776022 -313.379928 
L 9.429439 -299.362159 
L 5.082856 -271.326622 
z
" style="stroke: #ff4b44; stroke-opacity: 0.427273"/>
    </defs>
    <g clip-path="url(#pefea4643d0)">
     <use xlink:href="#m37e84fe7d0" x="0" y="337.40125" style="fill: #ff4b44; fill-opacity: 0.427273; stroke: #ff4b44; stroke-opacity: 0.427273"/>
    </g>
   </g>
   <g id="line2d_7">
    <path d="M 5.082856 66.074628 
L 9.429439 66.074628 
L 13.776022 66.074628 
L 18.122605 66.074628 
L 22.469187 66.074628 
L 26.81577 66.074628 
L 31.162353 66.074628 
L 35.508935 66.074628 
L 39.855518 66.074628 
L 44.202101 66.074628 
L 48.548684 66.074628 
L 52.895266 66.074628 
L 57.241849 66.074628 
L 61.588432 66.074628 
L 65.935015 66.074628 
L 70.281597 66.074628 
L 74.62818 66.074628 
L 78.974763 66.074628 
L 83.321345 66.074628 
L 87.667928 66.074628 
L 92.014511 66.074628 
L 96.361094 66.074628 
" clip-path="url(#pefea4643d0)" style="fill: none; stroke: #ff4b44; stroke-opacity: 0.427273; stroke-width: 1.5; stroke-linecap: square"/>
   </g>
   <g id="line2d_8">
    <path d="M 5.082856 66.074628 
L 9.429439 38.039091 
L 13.776022 24.021322 
L 18.122605 10.003554 
L 22.469187 24.021322 
L 26.81577 38.039091 
L 31.162353 52.05686 
L 35.508935 66.074628 
L 39.855518 52.05686 
L 44.202101 66.074628 
L 48.548684 52.05686 
L 52.895266 66.074628 
L 57.241849 66.074628 
L 61.588432 52.05686 
L 65.935015 66.074628 
L 70.281597 66.074628 
L 74.62818 66.074628 
L 78.974763 66.074628 
L 83.321345 52.05686 
L 87.667928 66.074628 
L 92.014511 52.05686 
L 96.361094 66.074628 
" clip-path="url(#pefea4643d0)" style="fill: none; stroke: #000000; stroke-opacity: 0.427273; stroke-width: 1.5; stroke-linecap: square"/>
   </g>
  </g>
  <g id="axes_3">
   <g id="FillBetweenPolyCollection_2">
    <defs>
     <path id="mdea9870775" d="M 7.184279 -259.64844 
L 7.184279 -259.64844 
L 11.756201 -259.64844 
L 16.328123 -259.64844 
L 20.900045 -259.64844 
L 25.471968 -259.64844 
L 30.04389 -259.64844 
L 34.615812 -259.64844 
L 39.187735 -259.64844 
L 43.759657 -259.64844 
L 48.331579 -259.64844 
L 52.903501 -259.64844 
L 57.475424 -259.64844 
L 62.047346 -259.64844 
L 66.619268 -259.64844 
L 71.19119 -259.64844 
L 75.763113 -259.64844 
L 80.335035 -259.64844 
L 84.906957 -259.64844 
L 89.47888 -259.64844 
L 94.050802 -259.64844 
L 98.622724 -259.64844 
L 103.194646 -259.64844 
L 103.194646 -259.64844 
L 103.194646 -259.64844 
L 98.622724 -270.862655 
L 94.050802 -259.64844 
L 89.47888 -259.64844 
L 84.906957 -270.862655 
L 80.335035 -259.64844 
L 75.763113 -259.64844 
L 71.19119 -259.64844 
L 66.619268 -270.862655 
L 62.047346 -259.64844 
L 57.475424 -259.64844 
L 52.903501 -259.64844 
L 48.331579 -259.64844 
L 43.759657 -282.07687 
L 39.187735 -259.64844 
L 34.615812 -270.862655 
L 30.04389 -282.07687 
L 25.471968 -282.07687 
L 20.900045 -304.5053 
L 16.328123 -315.719514 
L 11.756201 -270.862655 
L 7.184279 -259.64844 
z
" style="stroke: #ff4b44; stroke-opacity: 0.454545"/>
    </defs>
    <g clip-path="url(#pf0a10b28d8)">
     <use xlink:href="#mdea9870775" x="0" y="337.40125" style="fill: #ff4b44; fill-opacity: 0.454545; stroke: #ff4b44; stroke-opacity: 0.454545"/>
    </g>
   </g>
   <g id="line2d_9">
    <path d="M 7.184279 77.75281 
L 11.756201 77.75281 
L 16.328123 77.75281 
L 20.900045 77.75281 
L 25.471968 77.75281 
L 30.04389 77.75281 
L 34.615812 77.75281 
L 39.187735 77.75281 
L 43.759657 77.75281 
L 48.331579 77.75281 
L 52.903501 77.75281 
L 57.475424 77.75281 
L 62.047346 77.75281 
L 66.619268 77.75281 
L 71.19119 77.75281 
L 75.763113 77.75281 
L 80.335035 77.75281 
L 84.906957 77.75281 
L 89.47888 77.75281 
L 94.050802 77.75281 
L 98.622724 77.75281 
L 103.194646 77.75281 
" clip-path="url(#pf0a10b28d8)" style="fill: none; stroke: #ff4b44; stroke-opacity: 0.454545; stroke-width: 1.5; stroke-linecap: square"/>
   </g>
   <g id="line2d_10">
    <path d="M 7.184279 77.75281 
L 11.756201 66.538595 
L 16.328123 21.681736 
L 20.900045 32.89595 
L 25.471968 55.32438 
L 30.04389 55.32438 
L 34.615812 66.538595 
L 39.187735 77.75281 
L 43.759657 55.32438 
L 48.331579 77.75281 
L 52.903501 77.75281 
L 57.475424 77.75281 
L 62.047346 77.75281 
L 66.619268 66.538595 
L 71.19119 77.75281 
L 75.763113 77.75281 
L 80.335035 77.75281 
L 84.906957 66.538595 
L 89.47888 77.75281 
L 94.050802 77.75281 
L 98.622724 66.538595 
L 103.194646 77.75281 
" clip-path="url(#pf0a10b28d8)" style="fill: none; stroke: #000000; stroke-opacity: 0.454545; stroke-width: 1.5; stroke-linecap: square"/>
   </g>
  </g>
  <g id="axes_4">
   <g id="FillBetweenPolyCollection_3">
    <defs>
     <path id="m922b69a844" d="M 8.088132 -247.970258 
L 8.088132 -247.970258 
L 13.238002 -247.970258 
L 18.387871 -247.970258 
L 23.537741 -247.970258 
L 28.68761 -247.970258 
L 33.83748 -247.970258 
L 38.98735 -247.970258 
L 44.137219 -247.970258 
L 49.287089 -247.970258 
L 54.436958 -247.970258 
L 59.586828 -247.970258 
L 64.736697 -247.970258 
L 69.886567 -247.970258 
L 75.036436 -247.970258 
L 80.186306 -247.970258 
L 85.336175 -247.970258 
L 90.486045 -247.970258 
L 95.635915 -247.970258 
L 100.785784 -247.970258 
L 105.935654 -247.970258 
L 111.085523 -247.970258 
L 116.235393 -247.970258 
L 116.235393 -247.970258 
L 116.235393 -247.970258 
L 111.085523 -259.184473 
L 105.935654 -259.184473 
L 100.785784 -247.970258 
L 95.635915 -247.970258 
L 90.486045 -247.970258 
L 85.336175 -247.970258 
L 80.186306 -247.970258 
L 75.036436 -247.970258 
L 69.886567 -259.184473 
L 64.736697 -247.970258 
L 59.586828 -247.970258 
L 54.436958 -259.184473 
L 49.287089 -247.970258 
L 44.137219 -259.184473 
L 38.98735 -270.398688 
L 33.83748 -259.184473 
L 28.68761 -270.398688 
L 23.537741 -304.041333 
L 18.387871 -292.827118 
L 13.238002 -259.184473 
L 8.088132 -247.970258 
z
" style="stroke: #ff4b44; stroke-opacity: 0.481818"/>
    </defs>
    <g clip-path="url(#p4a0f974581)">
     <use xlink:href="#m922b69a844" x="0" y="337.40125" style="fill: #ff4b44; fill-opacity: 0.481818; stroke: #ff4b44; stroke-opacity: 0.481818"/>
    </g>
   </g>
   <g id="line2d_11">
    <path d="M 8.088132 89.430992 
L 13.238002 89.430992 
L 18.387871 89.430992 
L 23.537741 89.430992 
L 28.68761 89.430992 
L 33.83748 89.430992 
L 38.98735 89.430992 
L 44.137219 89.430992 
L 49.287089 89.430992 
L 54.436958 89.430992 
L 59.586828 89.430992 
L 64.736697 89.430992 
L 69.886567 89.430992 
L 75.036436 89.430992 
L 80.186306 89.430992 
L 85.336175 89.430992 
L 90.486045 89.430992 
L 95.635915 89.430992 
L 100.785784 89.430992 
L 105.935654 89.430992 
L 111.085523 89.430992 
L 116.235393 89.430992 
" clip-path="url(#p4a0f974581)" style="fill: none; stroke: #ff4b44; stroke-opacity: 0.481818; stroke-width: 1.5; stroke-linecap: square"/>
   </g>
   <g id="line2d_12">
    <path d="M 8.088132 89.430992 
L 13.238002 78.216777 
L 18.387871 44.574132 
L 23.537741 33.359917 
L 28.68761 67.002562 
L 33.83748 78.216777 
L 38.98735 67.002562 
L 44.137219 78.216777 
L 49.287089 89.430992 
L 54.436958 78.216777 
L 59.586828 89.430992 
L 64.736697 89.430992 
L 69.886567 78.216777 
L 75.036436 89.430992 
L 80.186306 89.430992 
L 85.336175 89.430992 
L 90.486045 89.430992 
L 95.635915 89.430992 
L 100.785784 89.430992 
L 105.935654 78.216777 
L 111.085523 78.216777 
L 116.235393 89.430992 
" clip-path="url(#p4a0f974581)" style="fill: none; stroke: #000000; stroke-opacity: 0.481818; stroke-width: 1.5; stroke-linecap: square"/>
   </g>
  </g>
  <g id="axes_5">
   <g id="FillBetweenPolyCollection_4">
    <defs>
     <path id="m875362a353" d="M 11.161285 -236.292076 
L 11.161285 -236.292076 
L 16.734134 -236.292076 
L 22.306983 -236.292076 
L 27.879832 -236.292076 
L 33.452681 -236.292076 
L 39.02553 -236.292076 
L 44.598379 -236.292076 
L 50.171228 -236.292076 
L 55.744077 -236.292076 
L 61.316926 -236.292076 
L 66.889775 -236.292076 
L 72.462625 -236.292076 
L 78.035474 -236.292076 
L 83.608323 -236.292076 
L 89.181172 -236.292076 
L 94.754021 -236.292076 
L 100.32687 -236.292076 
L 105.899719 -236.292076 
L 111.472568 -236.292076 
L 117.045417 -236.292076 
L 122.618266 -236.292076 
L 128.191115 -236.292076 
L 128.191115 -236.292076 
L 128.191115 -236.292076 
L 122.618266 -244.30223 
L 117.045417 -236.292076 
L 111.472568 -236.292076 
L 105.899719 -244.30223 
L 100.32687 -236.292076 
L 94.754021 -236.292076 
L 89.181172 -236.292076 
L 83.608323 -236.292076 
L 78.035474 -236.292076 
L 72.462625 -244.30223 
L 66.889775 -244.30223 
L 61.316926 -244.30223 
L 55.744077 -236.292076 
L 50.171228 -244.30223 
L 44.598379 -236.292076 
L 39.02553 -252.312383 
L 33.452681 -236.292076 
L 27.879832 -292.363151 
L 22.306983 -268.33269 
L 16.734134 -244.30223 
L 11.161285 -236.292076 
z
" style="stroke: #ff4b44; stroke-opacity: 0.509091"/>
    </defs>
    <g clip-path="url(#pd6de41231e)">
     <use xlink:href="#m875362a353" x="0" y="337.40125" style="fill: #ff4b44; fill-opacity: 0.509091; stroke: #ff4b44; stroke-opacity: 0.509091"/>
    </g>
   </g>
   <g id="line2d_13">
    <path d="M 11.161285 101.109174 
L 16.734134 101.109174 
L 22.306983 101.109174 
L 27.879832 101.109174 
L 33.452681 101.109174 
L 39.02553 101.109174 
L 44.598379 101.109174 
L 50.171228 101.109174 
L 55.744077 101.109174 
L 61.316926 101.109174 
L 66.889775 101.109174 
L 72.462625 101.109174 
L 78.035474 101.109174 
L 83.608323 101.109174 
L 89.181172 101.109174 
L 94.754021 101.109174 
L 100.32687 101.109174 
L 105.899719 101.109174 
L 111.472568 101.109174 
L 117.045417 101.109174 
L 122.618266 101.109174 
L 128.191115 101.109174 
" clip-path="url(#pd6de41231e)" style="fill: none; stroke: #ff4b44; stroke-opacity: 0.509091; stroke-width: 1.5; stroke-linecap: square"/>
   </g>
   <g id="line2d_14">
    <path d="M 11.161285 101.109174 
L 16.734134 93.09902 
L 22.306983 69.06856 
L 27.879832 45.038099 
L 33.452681 101.109174 
L 39.02553 85.088867 
L 44.598379 101.109174 
L 50.171228 93.09902 
L 55.744077 101.109174 
L 61.316926 93.09902 
L 66.889775 93.09902 
L 72.462625 93.09902 
L 78.035474 101.109174 
L 83.608323 101.109174 
L 89.181172 101.109174 
L 94.754021 101.109174 
L 100.32687 101.109174 
L 105.899719 93.09902 
L 111.472568 101.109174 
L 117.045417 101.109174 
L 122.618266 93.09902 
L 128.191115 101.109174 
" clip-path="url(#pd6de41231e)" style="fill: none; stroke: #000000; stroke-opacity: 0.509091; stroke-width: 1.5; stroke-linecap: square"/>
   </g>
  </g>
  <g id="axes_6">
   <g id="FillBetweenPolyCollection_5">
    <defs>
     <path id="m03a15144f8" d="M 9.332615 -224.613895 
L 9.332615 -224.613895 
L 15.206416 -224.613895 
L 21.080217 -224.613895 
L 26.954018 -224.613895 
L 32.827819 -224.613895 
L 38.70162 -224.613895 
L 44.575421 -224.613895 
L 50.449222 -224.613895 
L 56.323023 -224.613895 
L 62.196824 -224.613895 
L 68.070625 -224.613895 
L 73.944425 -224.613895 
L 79.818226 -224.613895 
L 85.692027 -224.613895 
L 91.565828 -224.613895 
L 97.439629 -224.613895 
L 103.31343 -224.613895 
L 109.187231 -224.613895 
L 115.061032 -224.613895 
L 120.934833 -224.613895 
L 126.808634 -224.613895 
L 132.682435 -224.613895 
L 132.682435 -224.613895 
L 132.682435 -224.613895 
L 126.808634 -243.304253 
L 120.934833 -224.613895 
L 115.061032 -224.613895 
L 109.187231 -224.613895 
L 103.31343 -224.613895 
L 97.439629 -224.613895 
L 91.565828 -224.613895 
L 85.692027 -224.613895 
L 79.818226 -224.613895 
L 73.944425 -224.613895 
L 68.070625 -243.304253 
L 62.196824 -233.959074 
L 56.323023 -233.959074 
L 50.449222 -224.613895 
L 44.575421 -224.613895 
L 38.70162 -233.959074 
L 32.827819 -243.304253 
L 26.954018 -280.684969 
L 21.080217 -252.649432 
L 15.206416 -243.304253 
L 9.332615 -224.613895 
z
" style="stroke: #ff4b44; stroke-opacity: 0.536364"/>
    </defs>
    <g clip-path="url(#p5b9966183e)">
     <use xlink:href="#m03a15144f8" x="0" y="337.40125" style="fill: #ff4b44; fill-opacity: 0.536364; stroke: #ff4b44; stroke-opacity: 0.536364"/>
    </g>
   </g>
   <g id="line2d_15">
    <path d="M 9.332615 112.787355 
L 15.206416 112.787355 
L 21.080217 112.787355 
L 26.954018 112.787355 
L 32.827819 112.787355 
L 38.70162 112.787355 
L 44.575421 112.787355 
L 50.449222 112.787355 
L 56.323023 112.787355 
L 62.196824 112.787355 
L 68.070625 112.787355 
L 73.944425 112.787355 
L 79.818226 112.787355 
L 85.692027 112.787355 
L 91.565828 112.787355 
L 97.439629 112.787355 
L 103.31343 112.787355 
L 109.187231 112.787355 
L 115.061032 112.787355 
L 120.934833 112.787355 
L 126.808634 112.787355 
L 132.682435 112.787355 
" clip-path="url(#p5b9966183e)" style="fill: none; stroke: #ff4b44; stroke-opacity: 0.536364; stroke-width: 1.5; stroke-linecap: square"/>
   </g>
   <g id="line2d_16">
    <path d="M 9.332615 112.787355 
L 15.206416 94.096997 
L 21.080217 84.751818 
L 26.954018 56.716281 
L 32.827819 94.096997 
L 38.70162 103.442176 
L 44.575421 112.787355 
L 50.449222 112.787355 
L 56.323023 103.442176 
L 62.196824 103.442176 
L 68.070625 94.096997 
L 73.944425 112.787355 
L 79.818226 112.787355 
L 85.692027 112.787355 
L 91.565828 112.787355 
L 97.439629 112.787355 
L 103.31343 112.787355 
L 109.187231 112.787355 
L 115.061032 112.787355 
L 120.934833 112.787355 
L 126.808634 94.096997 
L 132.682435 112.787355 
" clip-path="url(#p5b9966183e)" style="fill: none; stroke: #000000; stroke-opacity: 0.536364; stroke-width: 1.5; stroke-linecap: square"/>
   </g>
  </g>
  <g id="axes_7">
   <g id="FillBetweenPolyCollection_6">
    <defs>
     <path id="mda2ef2b551" d="M 6.48081 -212.935713 
L 6.48081 -212.935713 
L 13.71114 -212.935713 
L 20.94147 -212.935713 
L 28.1718 -212.935713 
L 35.40213 -212.935713 
L 42.63246 -212.935713 
L 49.86279 -212.935713 
L 57.09312 -212.935713 
L 64.32345 -212.935713 
L 71.55378 -212.935713 
L 78.78411 -212.935713 
L 86.01444 -212.935713 
L 93.24477 -212.935713 
L 100.4751 -212.935713 
L 107.70543 -212.935713 
L 114.93576 -212.935713 
L 122.16609 -212.935713 
L 129.39642 -212.935713 
L 136.62675 -212.935713 
L 143.85708 -212.935713 
L 151.08741 -212.935713 
L 158.31774 -212.935713 
L 158.31774 -212.935713 
L 158.31774 -212.935713 
L 151.08741 -220.945866 
L 143.85708 -212.935713 
L 136.62675 -212.935713 
L 129.39642 -220.945866 
L 122.16609 -212.935713 
L 114.93576 -212.935713 
L 107.70543 -212.935713 
L 100.4751 -212.935713 
L 93.24477 -212.935713 
L 86.01444 -212.935713 
L 78.78411 -212.935713 
L 71.55378 -220.945866 
L 64.32345 -228.95602 
L 57.09312 -212.935713 
L 49.86279 -220.945866 
L 42.63246 -212.935713 
L 35.40213 -220.945866 
L 28.1718 -269.006787 
L 20.94147 -244.976327 
L 13.71114 -228.95602 
L 6.48081 -212.935713 
z
" style="stroke: #ff4b44; stroke-opacity: 0.563636"/>
    </defs>
    <g clip-path="url(#p2da7a5de42)">
     <use xlink:href="#mda2ef2b551" x="0" y="337.40125" style="fill: #ff4b44; fill-opacity: 0.563636; stroke: #ff4b44; stroke-opacity: 0.563636"/>
    </g>
   </g>
   <g id="line2d_17">
    <path d="M 6.48081 124.465537 
L 13.71114 124.465537 
L 20.94147 124.465537 
L 28.1718 124.465537 
L 35.40213 124.465537 
L 42.63246 124.465537 
L 49.86279 124.465537 
L 57.09312 124.465537 
L 64.32345 124.465537 
L 71.55378 124.465537 
L 78.78411 124.465537 
L 86.01444 124.465537 
L 93.24477 124.465537 
L 100.4751 124.465537 
L 107.70543 124.465537 
L 114.93576 124.465537 
L 122.16609 124.465537 
L 129.39642 124.465537 
L 136.62675 124.465537 
L 143.85708 124.465537 
L 151.08741 124.465537 
L 158.31774 124.465537 
" clip-path="url(#p2da7a5de42)" style="fill: none; stroke: #ff4b44; stroke-opacity: 0.563636; stroke-width: 1.5; stroke-linecap: square"/>
   </g>
   <g id="line2d_18">
    <path d="M 6.48081 124.465537 
L 13.71114 108.44523 
L 20.94147 92.424923 
L 28.1718 68.394463 
L 35.40213 116.455384 
L 42.63246 124.465537 
L 49.86279 116.455384 
L 57.09312 124.465537 
L 64.32345 108.44523 
L 71.55378 116.455384 
L 78.78411 124.465537 
L 86.01444 124.465537 
L 93.24477 124.465537 
L 100.4751 124.465537 
L 107.70543 124.465537 
L 114.93576 124.465537 
L 122.16609 124.465537 
L 129.39642 116.455384 
L 136.62675 124.465537 
L 143.85708 124.465537 
L 151.08741 116.455384 
L 158.31774 124.465537 
" clip-path="url(#p2da7a5de42)" style="fill: none; stroke: #000000; stroke-opacity: 0.563636; stroke-width: 1.5; stroke-linecap: square"/>
   </g>
  </g>
  <g id="axes_8">
   <g id="FillBetweenPolyCollection_7">
    <defs>
     <path id="mff8cc68960" d="M 6.140929 -201.257531 
L 6.140929 -201.257531 
L 14.634957 -201.257531 
L 23.128985 -201.257531 
L 31.623014 -201.257531 
L 40.117042 -201.257531 
L 48.61107 -201.257531 
L 57.105098 -201.257531 
L 65.599126 -201.257531 
L 74.093155 -201.257531 
L 82.587183 -201.257531 
L 91.081211 -201.257531 
L 99.575239 -201.257531 
L 108.069267 -201.257531 
L 116.563295 -201.257531 
L 125.057324 -201.257531 
L 133.551352 -201.257531 
L 142.04538 -201.257531 
L 150.539408 -201.257531 
L 159.033436 -201.257531 
L 167.527465 -201.257531 
L 176.021493 -201.257531 
L 184.515521 -201.257531 
L 184.515521 -201.257531 
L 184.515521 -201.257531 
L 176.021493 -206.864638 
L 167.527465 -201.257531 
L 159.033436 -201.257531 
L 150.539408 -206.864638 
L 142.04538 -201.257531 
L 133.551352 -201.257531 
L 125.057324 -201.257531 
L 116.563295 -201.257531 
L 108.069267 -201.257531 
L 99.575239 -201.257531 
L 91.081211 -201.257531 
L 82.587183 -201.257531 
L 74.093155 -201.257531 
L 65.599126 -201.257531 
L 57.105098 -223.685961 
L 48.61107 -201.257531 
L 40.117042 -206.864638 
L 31.623014 -212.471746 
L 23.128985 -257.328605 
L 14.634957 -206.864638 
L 6.140929 -201.257531 
z
" style="stroke: #ff4b44; stroke-opacity: 0.590909"/>
    </defs>
    <g clip-path="url(#p868e3a45b7)">
     <use xlink:href="#mff8cc68960" x="0" y="337.40125" style="fill: #ff4b44; fill-opacity: 0.590909; stroke: #ff4b44; stroke-opacity: 0.590909"/>
    </g>
   </g>
   <g id="line2d_19">
    <path d="M 6.140929 136.143719 
L 14.634957 136.143719 
L 23.128985 136.143719 
L 31.623014 136.143719 
L 40.117042 136.143719 
L 48.61107 136.143719 
L 57.105098 136.143719 
L 65.599126 136.143719 
L 74.093155 136.143719 
L 82.587183 136.143719 
L 91.081211 136.143719 
L 99.575239 136.143719 
L 108.069267 136.143719 
L 116.563295 136.143719 
L 125.057324 136.143719 
L 133.551352 136.143719 
L 142.04538 136.143719 
L 150.539408 136.143719 
L 159.033436 136.143719 
L 167.527465 136.143719 
L 176.021493 136.143719 
L 184.515521 136.143719 
" clip-path="url(#p868e3a45b7)" style="fill: none; stroke: #ff4b44; stroke-opacity: 0.590909; stroke-width: 1.5; stroke-linecap: square"/>
   </g>
   <g id="line2d_20">
    <path d="M 6.140929 136.143719 
L 14.634957 130.536612 
L 23.128985 80.072645 
L 31.623014 124.929504 
L 40.117042 130.536612 
L 48.61107 136.143719 
L 57.105098 113.715289 
L 65.599126 136.143719 
L 74.093155 136.143719 
L 82.587183 136.143719 
L 91.081211 136.143719 
L 99.575239 136.143719 
L 108.069267 136.143719 
L 116.563295 136.143719 
L 125.057324 136.143719 
L 133.551352 136.143719 
L 142.04538 136.143719 
L 150.539408 130.536612 
L 159.033436 136.143719 
L 167.527465 136.143719 
L 176.021493 130.536612 
L 184.515521 136.143719 
" clip-path="url(#p868e3a45b7)" style="fill: none; stroke: #000000; stroke-opacity: 0.590909; stroke-width: 1.5; stroke-linecap: square"/>
   </g>
  </g>
  <g id="axes_9">
   <g id="FillBetweenPolyCollection_8">
    <defs>
     <path id="m5225973262" d="M 6.710641 -189.579349 
L 6.710641 -189.579349 
L 15.364129 -189.579349 
L 24.017617 -189.579349 
L 32.671105 -189.579349 
L 41.324592 -189.579349 
L 49.97808 -189.579349 
L 58.631568 -189.579349 
L 67.285055 -189.579349 
L 75.938543 -189.579349 
L 84.592031 -189.579349 
L 93.245519 -189.579349 
L 101.899006 -189.579349 
L 110.552494 -189.579349 
L 119.205982 -189.579349 
L 127.85947 -189.579349 
L 136.512957 -189.579349 
L 145.166445 -189.579349 
L 153.819933 -189.579349 
L 162.47342 -189.579349 
L 171.126908 -189.579349 
L 179.780396 -189.579349 
L 188.433884 -189.579349 
L 188.433884 -189.579349 
L 188.433884 -189.579349 
L 179.780396 -196.588233 
L 171.126908 -189.579349 
L 162.47342 -189.579349 
L 153.819933 -196.588233 
L 145.166445 -189.579349 
L 136.512957 -189.579349 
L 127.85947 -189.579349 
L 119.205982 -189.579349 
L 110.552494 -189.579349 
L 101.899006 -189.579349 
L 93.245519 -189.579349 
L 84.592031 -189.579349 
L 75.938543 -189.579349 
L 67.285055 -196.588233 
L 58.631568 -196.588233 
L 49.97808 -196.588233 
L 41.324592 -210.606002 
L 32.671105 -196.588233 
L 24.017617 -245.650424 
L 15.364129 -210.606002 
L 6.710641 -189.579349 
z
" style="stroke: #ff4b44; stroke-opacity: 0.618182"/>
    </defs>
    <g clip-path="url(#pc1b57232fd)">
     <use xlink:href="#m5225973262" x="0" y="337.40125" style="fill: #ff4b44; fill-opacity: 0.618182; stroke: #ff4b44; stroke-opacity: 0.618182"/>
    </g>
   </g>
   <g id="line2d_21">
    <path d="M 6.710641 147.821901 
L 15.364129 147.821901 
L 24.017617 147.821901 
L 32.671105 147.821901 
L 41.324592 147.821901 
L 49.97808 147.821901 
L 58.631568 147.821901 
L 67.285055 147.821901 
L 75.938543 147.821901 
L 84.592031 147.821901 
L 93.245519 147.821901 
L 101.899006 147.821901 
L 110.552494 147.821901 
L 119.205982 147.821901 
L 127.85947 147.821901 
L 136.512957 147.821901 
L 145.166445 147.821901 
L 153.819933 147.821901 
L 162.47342 147.821901 
L 171.126908 147.821901 
L 179.780396 147.821901 
L 188.433884 147.821901 
" clip-path="url(#pc1b57232fd)" style="fill: none; stroke: #ff4b44; stroke-opacity: 0.618182; stroke-width: 1.5; stroke-linecap: square"/>
   </g>
   <g id="line2d_22">
    <path d="M 6.710641 147.821901 
L 15.364129 126.795248 
L 24.017617 91.750826 
L 32.671105 140.813017 
L 41.324592 126.795248 
L 49.97808 140.813017 
L 58.631568 140.813017 
L 67.285055 140.813017 
L 75.938543 147.821901 
L 84.592031 147.821901 
L 93.245519 147.821901 
L 101.899006 147.821901 
L 110.552494 147.821901 
L 119.205982 147.821901 
L 127.85947 147.821901 
L 136.512957 147.821901 
L 145.166445 147.821901 
L 153.819933 140.813017 
L 162.47342 147.821901 
L 171.126908 147.821901 
L 179.780396 140.813017 
L 188.433884 147.821901 
" clip-path="url(#pc1b57232fd)" style="fill: none; stroke: #000000; stroke-opacity: 0.618182; stroke-width: 1.5; stroke-linecap: square"/>
   </g>
  </g>
  <g id="axes_10">
   <g id="FillBetweenPolyCollection_9">
    <defs>
     <path id="m86a577267d" d="M 6.91452 -177.901167 
L 6.91452 -177.901167 
L 15.11658 -177.901167 
L 23.31864 -177.901167 
L 31.5207 -177.901167 
L 39.72276 -177.901167 
L 47.92482 -177.901167 
L 56.12688 -177.901167 
L 64.32894 -177.901167 
L 72.531 -177.901167 
L 80.73306 -177.901167 
L 88.93512 -177.901167 
L 97.13718 -177.901167 
L 105.33924 -177.901167 
L 113.5413 -177.901167 
L 121.74336 -177.901167 
L 129.94542 -177.901167 
L 138.14748 -177.901167 
L 146.34954 -177.901167 
L 154.5516 -177.901167 
L 162.75366 -177.901167 
L 170.95572 -177.901167 
L 179.15778 -177.901167 
L 179.15778 -177.901167 
L 179.15778 -177.901167 
L 170.95572 -189.115382 
L 162.75366 -177.901167 
L 154.5516 -177.901167 
L 146.34954 -177.901167 
L 138.14748 -177.901167 
L 129.94542 -177.901167 
L 121.74336 -177.901167 
L 113.5413 -177.901167 
L 105.33924 -177.901167 
L 97.13718 -177.901167 
L 88.93512 -177.901167 
L 80.73306 -183.508275 
L 72.531 -177.901167 
L 64.32894 -177.901167 
L 56.12688 -183.508275 
L 47.92482 -183.508275 
L 39.72276 -194.72249 
L 31.5207 -177.901167 
L 23.31864 -233.972242 
L 15.11658 -189.115382 
L 6.91452 -177.901167 
z
" style="stroke: #ff4b44; stroke-opacity: 0.645455"/>
    </defs>
    <g clip-path="url(#p1df8d53c32)">
     <use xlink:href="#m86a577267d" x="0" y="337.40125" style="fill: #ff4b44; fill-opacity: 0.645455; stroke: #ff4b44; stroke-opacity: 0.645455"/>
    </g>
   </g>
   <g id="line2d_23">
    <path d="M 6.91452 159.500083 
L 15.11658 159.500083 
L 23.31864 159.500083 
L 31.5207 159.500083 
L 39.72276 159.500083 
L 47.92482 159.500083 
L 56.12688 159.500083 
L 64.32894 159.500083 
L 72.531 159.500083 
L 80.73306 159.500083 
L 88.93512 159.500083 
L 97.13718 159.500083 
L 105.33924 159.500083 
L 113.5413 159.500083 
L 121.74336 159.500083 
L 129.94542 159.500083 
L 138.14748 159.500083 
L 146.34954 159.500083 
L 154.5516 159.500083 
L 162.75366 159.500083 
L 170.95572 159.500083 
L 179.15778 159.500083 
" clip-path="url(#p1df8d53c32)" style="fill: none; stroke: #ff4b44; stroke-opacity: 0.645455; stroke-width: 1.5; stroke-linecap: square"/>
   </g>
   <g id="line2d_24">
    <path d="M 6.91452 159.500083 
L 15.11658 148.285868 
L 23.31864 103.429008 
L 31.5207 159.500083 
L 39.72276 142.67876 
L 47.92482 153.892975 
L 56.12688 153.892975 
L 64.32894 159.500083 
L 72.531 159.500083 
L 80.73306 153.892975 
L 88.93512 159.500083 
L 97.13718 159.500083 
L 105.33924 159.500083 
L 113.5413 159.500083 
L 121.74336 159.500083 
L 129.94542 159.500083 
L 138.14748 159.500083 
L 146.34954 159.500083 
L 154.5516 159.500083 
L 162.75366 159.500083 
L 170.95572 148.285868 
L 179.15778 159.500083 
" clip-path="url(#p1df8d53c32)" style="fill: none; stroke: #000000; stroke-opacity: 0.645455; stroke-width: 1.5; stroke-linecap: square"/>
   </g>
  </g>
  <g id="axes_11">
   <g id="FillBetweenPolyCollection_10">
    <defs>
     <path id="m59ad5538e8" d="M 5.220356 -166.222986 
L 5.220356 -166.222986 
L 14.209233 -166.222986 
L 23.19811 -166.222986 
L 32.186986 -166.222986 
L 41.175863 -166.222986 
L 50.16474 -166.222986 
L 59.153617 -166.222986 
L 68.142494 -166.222986 
L 77.13137 -166.222986 
L 86.120247 -166.222986 
L 95.109124 -166.222986 
L 104.098001 -166.222986 
L 113.086878 -166.222986 
L 122.075755 -166.222986 
L 131.064631 -166.222986 
L 140.053508 -166.222986 
L 149.042385 -166.222986 
L 158.031262 -166.222986 
L 167.020139 -166.222986 
L 176.009015 -166.222986 
L 184.997892 -166.222986 
L 193.986769 -166.222986 
L 193.986769 -166.222986 
L 193.986769 -166.222986 
L 184.997892 -171.830093 
L 176.009015 -166.222986 
L 167.020139 -171.830093 
L 158.031262 -166.222986 
L 149.042385 -166.222986 
L 140.053508 -166.222986 
L 131.064631 -166.222986 
L 122.075755 -166.222986 
L 113.086878 -166.222986 
L 104.098001 -166.222986 
L 95.109124 -171.830093 
L 86.120247 -166.222986 
L 77.13137 -166.222986 
L 68.142494 -166.222986 
L 59.153617 -171.830093 
L 50.16474 -171.830093 
L 41.175863 -177.4372 
L 32.186986 -171.830093 
L 23.19811 -222.29406 
L 14.209233 -177.4372 
L 5.220356 -166.222986 
z
" style="stroke: #ff4b44; stroke-opacity: 0.672727"/>
    </defs>
    <g clip-path="url(#p5b364ae586)">
     <use xlink:href="#m59ad5538e8" x="0" y="337.40125" style="fill: #ff4b44; fill-opacity: 0.672727; stroke: #ff4b44; stroke-opacity: 0.672727"/>
    </g>
   </g>
   <g id="line2d_25">
    <path d="M 5.220356 171.178264 
L 14.209233 171.178264 
L 23.19811 171.178264 
L 32.186986 171.178264 
L 41.175863 171.178264 
L 50.16474 171.178264 
L 59.153617 171.178264 
L 68.142494 171.178264 
L 77.13137 171.178264 
L 86.120247 171.178264 
L 95.109124 171.178264 
L 104.098001 171.178264 
L 113.086878 171.178264 
L 122.075755 171.178264 
L 131.064631 171.178264 
L 140.053508 171.178264 
L 149.042385 171.178264 
L 158.031262 171.178264 
L 167.020139 171.178264 
L 176.009015 171.178264 
L 184.997892 171.178264 
L 193.986769 171.178264 
" clip-path="url(#p5b364ae586)" style="fill: none; stroke: #ff4b44; stroke-opacity: 0.672727; stroke-width: 1.5; stroke-linecap: square"/>
   </g>
   <g id="line2d_26">
    <path d="M 5.220356 171.178264 
L 14.209233 159.96405 
L 23.19811 115.10719 
L 32.186986 165.571157 
L 41.175863 159.96405 
L 50.16474 165.571157 
L 59.153617 165.571157 
L 68.142494 171.178264 
L 77.13137 171.178264 
L 86.120247 171.178264 
L 95.109124 165.571157 
L 104.098001 171.178264 
L 113.086878 171.178264 
L 122.075755 171.178264 
L 131.064631 171.178264 
L 140.053508 171.178264 
L 149.042385 171.178264 
L 158.031262 171.178264 
L 167.020139 165.571157 
L 176.009015 171.178264 
L 184.997892 165.571157 
L 193.986769 171.178264 
" clip-path="url(#p5b364ae586)" style="fill: none; stroke: #000000; stroke-opacity: 0.672727; stroke-width: 1.5; stroke-linecap: square"/>
   </g>
  </g>
  <g id="axes_12">
   <g id="FillBetweenPolyCollection_11">
    <defs>
     <path id="ma06b5b83e7" d="M 0.129878 -154.544804 
L 0.129878 -154.544804 
L 11.485195 -154.544804 
L 22.840511 -154.544804 
L 34.195827 -154.544804 
L 45.551144 -154.544804 
L 56.90646 -154.544804 
L 68.261776 -154.544804 
L 79.617093 -154.544804 
L 90.972409 -154.544804 
L 102.327725 -154.544804 
L 113.683042 -154.544804 
L 125.038358 -154.544804 
L 136.393675 -154.544804 
L 147.748991 -154.544804 
L 159.104307 -154.544804 
L 170.459624 -154.544804 
L 181.81494 -154.544804 
L 193.170256 -154.544804 
L 204.525573 -154.544804 
L 215.880889 -154.544804 
L 227.236205 -154.544804 
L 238.591522 -154.544804 
L 238.591522 -154.544804 
L 238.591522 -154.544804 
L 227.236205 -160.151911 
L 215.880889 -154.544804 
L 204.525573 -154.544804 
L 193.170256 -154.544804 
L 181.81494 -154.544804 
L 170.459624 -160.151911 
L 159.104307 -154.544804 
L 147.748991 -154.544804 
L 136.393675 -154.544804 
L 125.038358 -154.544804 
L 113.683042 -154.544804 
L 102.327725 -160.151911 
L 90.972409 -154.544804 
L 79.617093 -154.544804 
L 68.261776 -160.151911 
L 56.90646 -160.151911 
L 45.551144 -160.151911 
L 34.195827 -171.366126 
L 22.840511 -210.615878 
L 11.485195 -160.151911 
L 0.129878 -154.544804 
z
" style="stroke: #ff4b44; stroke-opacity: 0.7"/>
    </defs>
    <g clip-path="url(#p8a4ca02ff4)">
     <use xlink:href="#ma06b5b83e7" x="0" y="337.40125" style="fill: #ff4b44; fill-opacity: 0.7; stroke: #ff4b44; stroke-opacity: 0.7"/>
    </g>
   </g>
   <g id="line2d_27">
    <path d="M 0.129878 182.856446 
L 11.485195 182.856446 
L 22.840511 182.856446 
L 34.195827 182.856446 
L 45.551144 182.856446 
L 56.90646 182.856446 
L 68.261776 182.856446 
L 79.617093 182.856446 
L 90.972409 182.856446 
L 102.327725 182.856446 
L 113.683042 182.856446 
L 125.038358 182.856446 
L 136.393675 182.856446 
L 147.748991 182.856446 
L 159.104307 182.856446 
L 170.459624 182.856446 
L 181.81494 182.856446 
L 193.170256 182.856446 
L 204.525573 182.856446 
L 215.880889 182.856446 
L 227.236205 182.856446 
L 238.591522 182.856446 
" clip-path="url(#p8a4ca02ff4)" style="fill: none; stroke: #ff4b44; stroke-opacity: 0.7; stroke-width: 1.5; stroke-linecap: square"/>
   </g>
   <g id="line2d_28">
    <path d="M 0.129878 182.856446 
L 11.485195 177.249339 
L 22.840511 126.785372 
L 34.195827 166.035124 
L 45.551144 177.249339 
L 56.90646 177.249339 
L 68.261776 177.249339 
L 79.617093 182.856446 
L 90.972409 182.856446 
L 102.327725 177.249339 
L 113.683042 182.856446 
L 125.038358 182.856446 
L 136.393675 182.856446 
L 147.748991 182.856446 
L 159.104307 182.856446 
L 170.459624 177.249339 
L 181.81494 182.856446 
L 193.170256 182.856446 
L 204.525573 182.856446 
L 215.880889 182.856446 
L 227.236205 177.249339 
L 238.591522 182.856446 
" clip-path="url(#p8a4ca02ff4)" style="fill: none; stroke: #000000; stroke-opacity: 0.7; stroke-width: 1.5; stroke-linecap: square"/>
   </g>
  </g>
  <g id="axes_13">
   <g id="FillBetweenPolyCollection_12">
    <defs>
     <path id="m05d0b1fd6b" d="M 2.188129 -142.866622 
L 2.188129 -142.866622 
L 12.576207 -142.866622 
L 22.964285 -142.866622 
L 33.352364 -142.866622 
L 43.740442 -142.866622 
L 54.12852 -142.866622 
L 64.516598 -142.866622 
L 74.904676 -142.866622 
L 85.292755 -142.866622 
L 95.680833 -142.866622 
L 106.068911 -142.866622 
L 116.456989 -142.866622 
L 126.845067 -142.866622 
L 137.233145 -142.866622 
L 147.621224 -142.866622 
L 158.009302 -142.866622 
L 168.39738 -142.866622 
L 178.785458 -142.866622 
L 189.173536 -142.866622 
L 199.561615 -142.866622 
L 209.949693 -142.866622 
L 220.337771 -142.866622 
L 220.337771 -142.866622 
L 220.337771 -142.866622 
L 209.949693 -149.096741 
L 199.561615 -149.096741 
L 189.173536 -142.866622 
L 178.785458 -142.866622 
L 168.39738 -142.866622 
L 158.009302 -142.866622 
L 147.621224 -142.866622 
L 137.233145 -142.866622 
L 126.845067 -149.096741 
L 116.456989 -142.866622 
L 106.068911 -142.866622 
L 95.680833 -142.866622 
L 85.292755 -142.866622 
L 74.904676 -155.326861 
L 64.516598 -142.866622 
L 54.12852 -142.866622 
L 43.740442 -161.55698 
L 33.352364 -155.326861 
L 22.964285 -198.937696 
L 12.576207 -149.096741 
L 2.188129 -142.866622 
z
" style="stroke: #ff4b44; stroke-opacity: 0.727273"/>
    </defs>
    <g clip-path="url(#p0e910d8df7)">
     <use xlink:href="#m05d0b1fd6b" x="0" y="337.40125" style="fill: #ff4b44; fill-opacity: 0.727273; stroke: #ff4b44; stroke-opacity: 0.727273"/>
    </g>
   </g>
   <g id="line2d_29">
    <path d="M 2.188129 194.534628 
L 12.576207 194.534628 
L 22.964285 194.534628 
L 33.352364 194.534628 
L 43.740442 194.534628 
L 54.12852 194.534628 
L 64.516598 194.534628 
L 74.904676 194.534628 
L 85.292755 194.534628 
L 95.680833 194.534628 
L 106.068911 194.534628 
L 116.456989 194.534628 
L 126.845067 194.534628 
L 137.233145 194.534628 
L 147.621224 194.534628 
L 158.009302 194.534628 
L 168.39738 194.534628 
L 178.785458 194.534628 
L 189.173536 194.534628 
L 199.561615 194.534628 
L 209.949693 194.534628 
L 220.337771 194.534628 
" clip-path="url(#p0e910d8df7)" style="fill: none; stroke: #ff4b44; stroke-opacity: 0.727273; stroke-width: 1.5; stroke-linecap: square"/>
   </g>
   <g id="line2d_30">
    <path d="M 2.188129 194.534628 
L 12.576207 188.304509 
L 22.964285 138.463554 
L 33.352364 182.074389 
L 43.740442 175.84427 
L 54.12852 194.534628 
L 64.516598 194.534628 
L 74.904676 182.074389 
L 85.292755 194.534628 
L 95.680833 194.534628 
L 106.068911 194.534628 
L 116.456989 194.534628 
L 126.845067 188.304509 
L 137.233145 194.534628 
L 147.621224 194.534628 
L 158.009302 194.534628 
L 168.39738 194.534628 
L 178.785458 194.534628 
L 189.173536 194.534628 
L 199.561615 188.304509 
L 209.949693 188.304509 
L 220.337771 194.534628 
" clip-path="url(#p0e910d8df7)" style="fill: none; stroke: #000000; stroke-opacity: 0.727273; stroke-width: 1.5; stroke-linecap: square"/>
   </g>
  </g>
  <g id="axes_14">
   <g id="FillBetweenPolyCollection_13">
    <defs>
     <path id="m9ae4219235" d="M 3.803686 -131.18844 
L 3.803686 -131.18844 
L 15.182959 -131.18844 
L 26.562232 -131.18844 
L 37.941505 -131.18844 
L 49.320777 -131.18844 
L 60.70005 -131.18844 
L 72.079323 -131.18844 
L 83.458595 -131.18844 
L 94.837868 -131.18844 
L 106.217141 -131.18844 
L 117.596414 -131.18844 
L 128.975686 -131.18844 
L 140.354959 -131.18844 
L 151.734232 -131.18844 
L 163.113505 -131.18844 
L 174.492777 -131.18844 
L 185.87205 -131.18844 
L 197.251323 -131.18844 
L 208.630595 -131.18844 
L 220.009868 -131.18844 
L 231.389141 -131.18844 
L 242.768414 -131.18844 
L 242.768414 -131.18844 
L 242.768414 -131.18844 
L 231.389141 -138.197324 
L 220.009868 -138.197324 
L 208.630595 -131.18844 
L 197.251323 -131.18844 
L 185.87205 -131.18844 
L 174.492777 -131.18844 
L 163.113505 -131.18844 
L 151.734232 -138.197324 
L 140.354959 -131.18844 
L 128.975686 -131.18844 
L 117.596414 -131.18844 
L 106.217141 -131.18844 
L 94.837868 -131.18844 
L 83.458595 -145.206209 
L 72.079323 -131.18844 
L 60.70005 -138.197324 
L 49.320777 -145.206209 
L 37.941505 -145.206209 
L 26.562232 -187.259514 
L 15.182959 -145.206209 
L 3.803686 -131.18844 
z
" style="stroke: #ff4b44; stroke-opacity: 0.754545"/>
    </defs>
    <g clip-path="url(#p1d0da6ea93)">
     <use xlink:href="#m9ae4219235" x="0" y="337.40125" style="fill: #ff4b44; fill-opacity: 0.754545; stroke: #ff4b44; stroke-opacity: 0.754545"/>
    </g>
   </g>
   <g id="line2d_31">
    <path d="M 3.803686 206.21281 
L 15.182959 206.21281 
L 26.562232 206.21281 
L 37.941505 206.21281 
L 49.320777 206.21281 
L 60.70005 206.21281 
L 72.079323 206.21281 
L 83.458595 206.21281 
L 94.837868 206.21281 
L 106.217141 206.21281 
L 117.596414 206.21281 
L 128.975686 206.21281 
L 140.354959 206.21281 
L 151.734232 206.21281 
L 163.113505 206.21281 
L 174.492777 206.21281 
L 185.87205 206.21281 
L 197.251323 206.21281 
L 208.630595 206.21281 
L 220.009868 206.21281 
L 231.389141 206.21281 
L 242.768414 206.21281 
" clip-path="url(#p1d0da6ea93)" style="fill: none; stroke: #ff4b44; stroke-opacity: 0.754545; stroke-width: 1.5; stroke-linecap: square"/>
   </g>
   <g id="line2d_32">
    <path d="M 3.803686 206.21281 
L 15.182959 192.195041 
L 26.562232 150.141736 
L 37.941505 192.195041 
L 49.320777 192.195041 
L 60.70005 199.203926 
L 72.079323 206.21281 
L 83.458595 192.195041 
L 94.837868 206.21281 
L 106.217141 206.21281 
L 117.596414 206.21281 
L 128.975686 206.21281 
L 140.354959 206.21281 
L 151.734232 199.203926 
L 163.113505 206.21281 
L 174.492777 206.21281 
L 185.87205 206.21281 
L 197.251323 206.21281 
L 208.630595 206.21281 
L 220.009868 199.203926 
L 231.389141 199.203926 
L 242.768414 206.21281 
" clip-path="url(#p1d0da6ea93)" style="fill: none; stroke: #000000; stroke-opacity: 0.754545; stroke-width: 1.5; stroke-linecap: square"/>
   </g>
  </g>
  <g id="axes_15">
   <g id="FillBetweenPolyCollection_14">
    <defs>
     <path id="mcc05362f91" d="M 1.694029 -119.510258 
L 1.694029 -119.510258 
L 17.187807 -119.510258 
L 32.681585 -119.510258 
L 48.175364 -119.510258 
L 63.669142 -119.510258 
L 79.16292 -119.510258 
L 94.656698 -119.510258 
L 110.150476 -119.510258 
L 125.644255 -119.510258 
L 141.138033 -119.510258 
L 156.631811 -119.510258 
L 172.125589 -119.510258 
L 187.619367 -119.510258 
L 203.113145 -119.510258 
L 218.606924 -119.510258 
L 234.100702 -119.510258 
L 249.59448 -119.510258 
L 265.088258 -119.510258 
L 280.582036 -119.510258 
L 296.075815 -119.510258 
L 311.569593 -119.510258 
L 327.063371 -119.510258 
L 327.063371 -119.510258 
L 327.063371 -119.510258 
L 311.569593 -128.855437 
L 296.075815 -119.510258 
L 280.582036 -119.510258 
L 265.088258 -128.855437 
L 249.59448 -119.510258 
L 234.100702 -119.510258 
L 218.606924 -119.510258 
L 203.113145 -128.855437 
L 187.619367 -119.510258 
L 172.125589 -119.510258 
L 156.631811 -119.510258 
L 141.138033 -119.510258 
L 125.644255 -119.510258 
L 110.150476 -128.855437 
L 94.656698 -119.510258 
L 79.16292 -138.200616 
L 63.669142 -138.200616 
L 48.175364 -138.200616 
L 32.681585 -175.581333 
L 17.187807 -156.890975 
L 1.694029 -119.510258 
z
" style="stroke: #ff4b44; stroke-opacity: 0.781818"/>
    </defs>
    <g clip-path="url(#pe6d152c540)">
     <use xlink:href="#mcc05362f91" x="0" y="337.40125" style="fill: #ff4b44; fill-opacity: 0.781818; stroke: #ff4b44; stroke-opacity: 0.781818"/>
    </g>
   </g>
   <g id="line2d_33">
    <path d="M 1.694029 217.890992 
L 17.187807 217.890992 
L 32.681585 217.890992 
L 48.175364 217.890992 
L 63.669142 217.890992 
L 79.16292 217.890992 
L 94.656698 217.890992 
L 110.150476 217.890992 
L 125.644255 217.890992 
L 141.138033 217.890992 
L 156.631811 217.890992 
L 172.125589 217.890992 
L 187.619367 217.890992 
L 203.113145 217.890992 
L 218.606924 217.890992 
L 234.100702 217.890992 
L 249.59448 217.890992 
L 265.088258 217.890992 
L 280.582036 217.890992 
L 296.075815 217.890992 
L 311.569593 217.890992 
L 327.063371 217.890992 
" clip-path="url(#pe6d152c540)" style="fill: none; stroke: #ff4b44; stroke-opacity: 0.781818; stroke-width: 1.5; stroke-linecap: square"/>
   </g>
   <g id="line2d_34">
    <path d="M 1.694029 217.890992 
L 17.187807 180.510275 
L 32.681585 161.819917 
L 48.175364 199.200634 
L 63.669142 199.200634 
L 79.16292 199.200634 
L 94.656698 217.890992 
L 110.150476 208.545813 
L 125.644255 217.890992 
L 141.138033 217.890992 
L 156.631811 217.890992 
L 172.125589 217.890992 
L 187.619367 217.890992 
L 203.113145 208.545813 
L 218.606924 217.890992 
L 234.100702 217.890992 
L 249.59448 217.890992 
L 265.088258 208.545813 
L 280.582036 217.890992 
L 296.075815 217.890992 
L 311.569593 208.545813 
L 327.063371 217.890992 
" clip-path="url(#pe6d152c540)" style="fill: none; stroke: #000000; stroke-opacity: 0.781818; stroke-width: 1.5; stroke-linecap: square"/>
   </g>
  </g>
  <g id="axes_16">
   <g id="FillBetweenPolyCollection_15">
    <defs>
     <path id="m2f99649082" d="M 2.122249 -107.832076 
L 2.122249 -107.832076 
L 18.571287 -107.832076 
L 35.020325 -107.832076 
L 51.469364 -107.832076 
L 67.918402 -107.832076 
L 84.36744 -107.832076 
L 100.816478 -107.832076 
L 117.265516 -107.832076 
L 133.714555 -107.832076 
L 150.163593 -107.832076 
L 166.612631 -107.832076 
L 183.061669 -107.832076 
L 199.510707 -107.832076 
L 215.959745 -107.832076 
L 232.408784 -107.832076 
L 248.857822 -107.832076 
L 265.30686 -107.832076 
L 281.755898 -107.832076 
L 298.204936 -107.832076 
L 314.653975 -107.832076 
L 331.103013 -107.832076 
L 347.552051 -107.832076 
L 347.552051 -107.832076 
L 347.552051 -107.832076 
L 331.103013 -115.84223 
L 314.653975 -107.832076 
L 298.204936 -107.832076 
L 281.755898 -107.832076 
L 265.30686 -115.84223 
L 248.857822 -115.84223 
L 232.408784 -107.832076 
L 215.959745 -107.832076 
L 199.510707 -107.832076 
L 183.061669 -107.832076 
L 166.612631 -107.832076 
L 150.163593 -115.84223 
L 133.714555 -107.832076 
L 117.265516 -107.832076 
L 100.816478 -107.832076 
L 84.36744 -131.862537 
L 67.918402 -131.862537 
L 51.469364 -123.852383 
L 35.020325 -163.903151 
L 18.571287 -115.84223 
L 2.122249 -107.832076 
z
" style="stroke: #ff4b44; stroke-opacity: 0.809091"/>
    </defs>
    <g clip-path="url(#p8535637e9b)">
     <use xlink:href="#m2f99649082" x="0" y="337.40125" style="fill: #ff4b44; fill-opacity: 0.809091; stroke: #ff4b44; stroke-opacity: 0.809091"/>
    </g>
   </g>
   <g id="line2d_35">
    <path d="M 2.122249 229.569174 
L 18.571287 229.569174 
L 35.020325 229.569174 
L 51.469364 229.569174 
L 67.918402 229.569174 
L 84.36744 229.569174 
L 100.816478 229.569174 
L 117.265516 229.569174 
L 133.714555 229.569174 
L 150.163593 229.569174 
L 166.612631 229.569174 
L 183.061669 229.569174 
L 199.510707 229.569174 
L 215.959745 229.569174 
L 232.408784 229.569174 
L 248.857822 229.569174 
L 265.30686 229.569174 
L 281.755898 229.569174 
L 298.204936 229.569174 
L 314.653975 229.569174 
L 331.103013 229.569174 
L 347.552051 229.569174 
" clip-path="url(#p8535637e9b)" style="fill: none; stroke: #ff4b44; stroke-opacity: 0.809091; stroke-width: 1.5; stroke-linecap: square"/>
   </g>
   <g id="line2d_36">
    <path d="M 2.122249 229.569174 
L 18.571287 221.55902 
L 35.020325 173.498099 
L 51.469364 213.548867 
L 67.918402 205.538713 
L 84.36744 205.538713 
L 100.816478 229.569174 
L 117.265516 229.569174 
L 133.714555 229.569174 
L 150.163593 221.55902 
L 166.612631 229.569174 
L 183.061669 229.569174 
L 199.510707 229.569174 
L 215.959745 229.569174 
L 232.408784 229.569174 
L 248.857822 221.55902 
L 265.30686 221.55902 
L 281.755898 229.569174 
L 298.204936 229.569174 
L 314.653975 229.569174 
L 331.103013 221.55902 
L 347.552051 229.569174 
" clip-path="url(#p8535637e9b)" style="fill: none; stroke: #000000; stroke-opacity: 0.809091; stroke-width: 1.5; stroke-linecap: square"/>
   </g>
  </g>
  <g id="axes_17">
   <g id="FillBetweenPolyCollection_16">
    <defs>
     <path id="m896890fd92" d="M 4.455649 -96.153895 
L 4.455649 -96.153895 
L 17.579693 -96.153895 
L 30.703738 -96.153895 
L 43.827783 -96.153895 
L 56.951827 -96.153895 
L 70.075872 -96.153895 
L 83.199917 -96.153895 
L 96.323961 -96.153895 
L 109.448006 -96.153895 
L 122.572051 -96.153895 
L 135.696095 -96.153895 
L 148.82014 -96.153895 
L 161.944184 -96.153895 
L 175.068229 -96.153895 
L 188.192274 -96.153895 
L 201.316318 -96.153895 
L 214.440363 -96.153895 
L 227.564408 -96.153895 
L 240.688452 -96.153895 
L 253.812497 -96.153895 
L 266.936542 -96.153895 
L 280.060586 -96.153895 
L 280.060586 -96.153895 
L 280.060586 -96.153895 
L 266.936542 -107.36811 
L 253.812497 -107.36811 
L 240.688452 -96.153895 
L 227.564408 -96.153895 
L 214.440363 -96.153895 
L 201.316318 -107.36811 
L 188.192274 -96.153895 
L 175.068229 -96.153895 
L 161.944184 -96.153895 
L 148.82014 -96.153895 
L 135.696095 -96.153895 
L 122.572051 -107.36811 
L 109.448006 -96.153895 
L 96.323961 -107.36811 
L 83.199917 -107.36811 
L 70.075872 -129.796539 
L 56.951827 -118.582324 
L 43.827783 -118.582324 
L 30.703738 -152.224969 
L 17.579693 -118.582324 
L 4.455649 -96.153895 
z
" style="stroke: #ff4b44; stroke-opacity: 0.836364"/>
    </defs>
    <g clip-path="url(#p31ca13634d)">
     <use xlink:href="#m896890fd92" x="0" y="337.40125" style="fill: #ff4b44; fill-opacity: 0.836364; stroke: #ff4b44; stroke-opacity: 0.836364"/>
    </g>
   </g>
   <g id="line2d_37">
    <path d="M 4.455649 241.247355 
L 17.579693 241.247355 
L 30.703738 241.247355 
L 43.827783 241.247355 
L 56.951827 241.247355 
L 70.075872 241.247355 
L 83.199917 241.247355 
L 96.323961 241.247355 
L 109.448006 241.247355 
L 122.572051 241.247355 
L 135.696095 241.247355 
L 148.82014 241.247355 
L 161.944184 241.247355 
L 175.068229 241.247355 
L 188.192274 241.247355 
L 201.316318 241.247355 
L 214.440363 241.247355 
L 227.564408 241.247355 
L 240.688452 241.247355 
L 253.812497 241.247355 
L 266.936542 241.247355 
L 280.060586 241.247355 
" clip-path="url(#p31ca13634d)" style="fill: none; stroke: #ff4b44; stroke-opacity: 0.836364; stroke-width: 1.5; stroke-linecap: square"/>
   </g>
   <g id="line2d_38">
    <path d="M 4.455649 241.247355 
L 17.579693 218.818926 
L 30.703738 185.176281 
L 43.827783 218.818926 
L 56.951827 218.818926 
L 70.075872 207.604711 
L 83.199917 230.03314 
L 96.323961 230.03314 
L 109.448006 241.247355 
L 122.572051 230.03314 
L 135.696095 241.247355 
L 148.82014 241.247355 
L 161.944184 241.247355 
L 175.068229 241.247355 
L 188.192274 241.247355 
L 201.316318 230.03314 
L 214.440363 241.247355 
L 227.564408 241.247355 
L 240.688452 241.247355 
L 253.812497 230.03314 
L 266.936542 230.03314 
L 280.060586 241.247355 
" clip-path="url(#p31ca13634d)" style="fill: none; stroke: #000000; stroke-opacity: 0.836364; stroke-width: 1.5; stroke-linecap: square"/>
   </g>
  </g>
  <g id="axes_18">
   <g id="FillBetweenPolyCollection_17">
    <defs>
     <path id="m39ddf005db" d="M 4.401847 -84.475713 
L 4.401847 -84.475713 
L 15.898655 -84.475713 
L 27.395464 -84.475713 
L 38.892273 -84.475713 
L 50.389081 -84.475713 
L 61.88589 -84.475713 
L 73.382699 -84.475713 
L 84.879507 -84.475713 
L 96.376316 -84.475713 
L 107.873125 -84.475713 
L 119.369933 -84.475713 
L 130.866742 -84.475713 
L 142.36355 -84.475713 
L 153.860359 -84.475713 
L 165.357168 -84.475713 
L 176.853976 -84.475713 
L 188.350785 -84.475713 
L 199.847594 -84.475713 
L 211.344402 -84.475713 
L 222.841211 -84.475713 
L 234.33802 -84.475713 
L 245.834828 -84.475713 
L 245.834828 -84.475713 
L 245.834828 -84.475713 
L 234.33802 -98.493481 
L 222.841211 -112.51125 
L 211.344402 -84.475713 
L 199.847594 -84.475713 
L 188.350785 -84.475713 
L 176.853976 -84.475713 
L 165.357168 -84.475713 
L 153.860359 -84.475713 
L 142.36355 -84.475713 
L 130.866742 -84.475713 
L 119.369933 -112.51125 
L 107.873125 -84.475713 
L 96.376316 -84.475713 
L 84.879507 -112.51125 
L 73.382699 -84.475713 
L 61.88589 -112.51125 
L 50.389081 -112.51125 
L 38.892273 -126.529019 
L 27.395464 -140.546787 
L 15.898655 -112.51125 
L 4.401847 -84.475713 
z
" style="stroke: #ff4b44; stroke-opacity: 0.863636"/>
    </defs>
    <g clip-path="url(#p115250950e)">
     <use xlink:href="#m39ddf005db" x="0" y="337.40125" style="fill: #ff4b44; fill-opacity: 0.863636; stroke: #ff4b44; stroke-opacity: 0.863636"/>
    </g>
   </g>
   <g id="line2d_39">
    <path d="M 4.401847 252.925537 
L 15.898655 252.925537 
L 27.395464 252.925537 
L 38.892273 252.925537 
L 50.389081 252.925537 
L 61.88589 252.925537 
L 73.382699 252.925537 
L 84.879507 252.925537 
L 96.376316 252.925537 
L 107.873125 252.925537 
L 119.369933 252.925537 
L 130.866742 252.925537 
L 142.36355 252.925537 
L 153.860359 252.925537 
L 165.357168 252.925537 
L 176.853976 252.925537 
L 188.350785 252.925537 
L 199.847594 252.925537 
L 211.344402 252.925537 
L 222.841211 252.925537 
L 234.33802 252.925537 
L 245.834828 252.925537 
" clip-path="url(#p115250950e)" style="fill: none; stroke: #ff4b44; stroke-opacity: 0.863636; stroke-width: 1.5; stroke-linecap: square"/>
   </g>
   <g id="line2d_40">
    <path d="M 4.401847 252.925537 
L 15.898655 224.89 
L 27.395464 196.854463 
L 38.892273 210.872231 
L 50.389081 224.89 
L 61.88589 224.89 
L 73.382699 252.925537 
L 84.879507 224.89 
L 96.376316 252.925537 
L 107.873125 252.925537 
L 119.369933 224.89 
L 130.866742 252.925537 
L 142.36355 252.925537 
L 153.860359 252.925537 
L 165.357168 252.925537 
L 176.853976 252.925537 
L 188.350785 252.925537 
L 199.847594 252.925537 
L 211.344402 252.925537 
L 222.841211 224.89 
L 234.33802 238.907769 
L 245.834828 252.925537 
" clip-path="url(#p115250950e)" style="fill: none; stroke: #000000; stroke-opacity: 0.863636; stroke-width: 1.5; stroke-linecap: square"/>
   </g>
  </g>
  <g id="axes_19">
   <g id="FillBetweenPolyCollection_18">
    <defs>
     <path id="mcf06911cf0" d="M 11.056226 -72.797531 
L 11.056226 -72.797531 
L 21.617988 -72.797531 
L 32.17975 -72.797531 
L 42.741511 -72.797531 
L 53.303273 -72.797531 
L 63.865035 -72.797531 
L 74.426797 -72.797531 
L 84.988559 -72.797531 
L 95.55032 -72.797531 
L 106.112082 -72.797531 
L 116.673844 -72.797531 
L 127.235606 -72.797531 
L 137.797368 -72.797531 
L 148.35913 -72.797531 
L 158.920891 -72.797531 
L 169.482653 -72.797531 
L 180.044415 -72.797531 
L 190.606177 -72.797531 
L 201.167939 -72.797531 
L 211.7297 -72.797531 
L 222.291462 -72.797531 
L 232.853224 -72.797531 
L 232.853224 -72.797531 
L 232.853224 -72.797531 
L 222.291462 -84.011746 
L 211.7297 -84.011746 
L 201.167939 -72.797531 
L 190.606177 -84.011746 
L 180.044415 -72.797531 
L 169.482653 -72.797531 
L 158.920891 -72.797531 
L 148.35913 -72.797531 
L 137.797368 -72.797531 
L 127.235606 -72.797531 
L 116.673844 -95.225961 
L 106.112082 -84.011746 
L 95.55032 -84.011746 
L 84.988559 -72.797531 
L 74.426797 -95.225961 
L 63.865035 -84.011746 
L 53.303273 -72.797531 
L 42.741511 -95.225961 
L 32.17975 -128.868605 
L 21.617988 -106.440176 
L 11.056226 -72.797531 
z
" style="stroke: #ff4b44; stroke-opacity: 0.890909"/>
    </defs>
    <g clip-path="url(#p991b43f2cd)">
     <use xlink:href="#mcf06911cf0" x="0" y="337.40125" style="fill: #ff4b44; fill-opacity: 0.890909; stroke: #ff4b44; stroke-opacity: 0.890909"/>
    </g>
   </g>
   <g id="line2d_41">
    <path d="M 11.056226 264.603719 
L 21.617988 264.603719 
L 32.17975 264.603719 
L 42.741511 264.603719 
L 53.303273 264.603719 
L 63.865035 264.603719 
L 74.426797 264.603719 
L 84.988559 264.603719 
L 95.55032 264.603719 
L 106.112082 264.603719 
L 116.673844 264.603719 
L 127.235606 264.603719 
L 137.797368 264.603719 
L 148.35913 264.603719 
L 158.920891 264.603719 
L 169.482653 264.603719 
L 180.044415 264.603719 
L 190.606177 264.603719 
L 201.167939 264.603719 
L 211.7297 264.603719 
L 222.291462 264.603719 
L 232.853224 264.603719 
" clip-path="url(#p991b43f2cd)" style="fill: none; stroke: #ff4b44; stroke-opacity: 0.890909; stroke-width: 1.5; stroke-linecap: square"/>
   </g>
   <g id="line2d_42">
    <path d="M 11.056226 264.603719 
L 21.617988 230.961074 
L 32.17975 208.532645 
L 42.741511 242.175289 
L 53.303273 264.603719 
L 63.865035 253.389504 
L 74.426797 242.175289 
L 84.988559 264.603719 
L 95.55032 253.389504 
L 106.112082 253.389504 
L 116.673844 242.175289 
L 127.235606 264.603719 
L 137.797368 264.603719 
L 148.35913 264.603719 
L 158.920891 264.603719 
L 169.482653 264.603719 
L 180.044415 264.603719 
L 190.606177 253.389504 
L 201.167939 264.603719 
L 211.7297 253.389504 
L 222.291462 253.389504 
L 232.853224 264.603719 
" clip-path="url(#p991b43f2cd)" style="fill: none; stroke: #000000; stroke-opacity: 0.890909; stroke-width: 1.5; stroke-linecap: square"/>
   </g>
  </g>
  <g id="axes_20">
   <g id="FillBetweenPolyCollection_19">
    <defs>
     <path id="mb84d3adeb7" d="M 8.081395 -61.119349 
L 8.081395 -61.119349 
L 20.925749 -61.119349 
L 33.770103 -61.119349 
L 46.614457 -61.119349 
L 59.458811 -61.119349 
L 72.303165 -61.119349 
L 85.147519 -61.119349 
L 97.991873 -61.119349 
L 110.836227 -61.119349 
L 123.680581 -61.119349 
L 136.524935 -61.119349 
L 149.36929 -61.119349 
L 162.213644 -61.119349 
L 175.057998 -61.119349 
L 187.902352 -61.119349 
L 200.746706 -61.119349 
L 213.59106 -61.119349 
L 226.435414 -61.119349 
L 239.279768 -61.119349 
L 252.124122 -61.119349 
L 264.968476 -61.119349 
L 277.81283 -61.119349 
L 277.81283 -61.119349 
L 277.81283 -61.119349 
L 264.968476 -70.464528 
L 252.124122 -61.119349 
L 239.279768 -70.464528 
L 226.435414 -61.119349 
L 213.59106 -61.119349 
L 200.746706 -61.119349 
L 187.902352 -61.119349 
L 175.057998 -61.119349 
L 162.213644 -61.119349 
L 149.36929 -70.464528 
L 136.524935 -61.119349 
L 123.680581 -70.464528 
L 110.836227 -70.464528 
L 97.991873 -61.119349 
L 85.147519 -61.119349 
L 72.303165 -98.500065 
L 59.458811 -61.119349 
L 46.614457 -89.154886 
L 33.770103 -117.190424 
L 20.925749 -79.809707 
L 8.081395 -61.119349 
z
" style="stroke: #ff4b44; stroke-opacity: 0.918182"/>
    </defs>
    <g clip-path="url(#p69e7dd5a32)">
     <use xlink:href="#mb84d3adeb7" x="0" y="337.40125" style="fill: #ff4b44; fill-opacity: 0.918182; stroke: #ff4b44; stroke-opacity: 0.918182"/>
    </g>
   </g>
   <g id="line2d_43">
    <path d="M 8.081395 276.281901 
L 20.925749 276.281901 
L 33.770103 276.281901 
L 46.614457 276.281901 
L 59.458811 276.281901 
L 72.303165 276.281901 
L 85.147519 276.281901 
L 97.991873 276.281901 
L 110.836227 276.281901 
L 123.680581 276.281901 
L 136.524935 276.281901 
L 149.36929 276.281901 
L 162.213644 276.281901 
L 175.057998 276.281901 
L 187.902352 276.281901 
L 200.746706 276.281901 
L 213.59106 276.281901 
L 226.435414 276.281901 
L 239.279768 276.281901 
L 252.124122 276.281901 
L 264.968476 276.281901 
L 277.81283 276.281901 
" clip-path="url(#p69e7dd5a32)" style="fill: none; stroke: #ff4b44; stroke-opacity: 0.918182; stroke-width: 1.5; stroke-linecap: square"/>
   </g>
   <g id="line2d_44">
    <path d="M 8.081395 276.281901 
L 20.925749 257.591543 
L 33.770103 220.210826 
L 46.614457 248.246364 
L 59.458811 276.281901 
L 72.303165 238.901185 
L 85.147519 276.281901 
L 97.991873 276.281901 
L 110.836227 266.936722 
L 123.680581 266.936722 
L 136.524935 276.281901 
L 149.36929 266.936722 
L 162.213644 276.281901 
L 175.057998 276.281901 
L 187.902352 276.281901 
L 200.746706 276.281901 
L 213.59106 276.281901 
L 226.435414 276.281901 
L 239.279768 266.936722 
L 252.124122 276.281901 
L 264.968476 266.936722 
L 277.81283 276.281901 
" clip-path="url(#p69e7dd5a32)" style="fill: none; stroke: #000000; stroke-opacity: 0.918182; stroke-width: 1.5; stroke-linecap: square"/>
   </g>
  </g>
  <g id="axes_21">
   <g id="FillBetweenPolyCollection_20">
    <defs>
     <path id="mf4cb06d734" d="M 2.315397 -49.441167 
L 2.315397 -49.441167 
L 18.475462 -49.441167 
L 34.635526 -49.441167 
L 50.795591 -49.441167 
L 66.955655 -49.441167 
L 83.11572 -49.441167 
L 99.275785 -49.441167 
L 115.435849 -49.441167 
L 131.595914 -49.441167 
L 147.755978 -49.441167 
L 163.916043 -49.441167 
L 180.076107 -49.441167 
L 196.236172 -49.441167 
L 212.396236 -49.441167 
L 228.556301 -49.441167 
L 244.716365 -49.441167 
L 260.87643 -49.441167 
L 277.036495 -49.441167 
L 293.196559 -49.441167 
L 309.356624 -49.441167 
L 325.516688 -49.441167 
L 341.676753 -49.441167 
L 341.676753 -49.441167 
L 341.676753 -49.441167 
L 325.516688 -60.655382 
L 309.356624 -49.441167 
L 293.196559 -49.441167 
L 277.036495 -49.441167 
L 260.87643 -60.655382 
L 244.716365 -49.441167 
L 228.556301 -49.441167 
L 212.396236 -49.441167 
L 196.236172 -49.441167 
L 180.076107 -49.441167 
L 163.916043 -49.441167 
L 147.755978 -60.655382 
L 131.595914 -60.655382 
L 115.435849 -49.441167 
L 99.275785 -49.441167 
L 83.11572 -83.083812 
L 66.955655 -83.083812 
L 50.795591 -83.083812 
L 34.635526 -105.512242 
L 18.475462 -71.869597 
L 2.315397 -49.441167 
z
" style="stroke: #ff4b44; stroke-opacity: 0.945455"/>
    </defs>
    <g clip-path="url(#p6e1527ee10)">
     <use xlink:href="#mf4cb06d734" x="0" y="337.40125" style="fill: #ff4b44; fill-opacity: 0.945455; stroke: #ff4b44; stroke-opacity: 0.945455"/>
    </g>
   </g>
   <g id="line2d_45">
    <path d="M 2.315397 287.960083 
L 18.475462 287.960083 
L 34.635526 287.960083 
L 50.795591 287.960083 
L 66.955655 287.960083 
L 83.11572 287.960083 
L 99.275785 287.960083 
L 115.435849 287.960083 
L 131.595914 287.960083 
L 147.755978 287.960083 
L 163.916043 287.960083 
L 180.076107 287.960083 
L 196.236172 287.960083 
L 212.396236 287.960083 
L 228.556301 287.960083 
L 244.716365 287.960083 
L 260.87643 287.960083 
L 277.036495 287.960083 
L 293.196559 287.960083 
L 309.356624 287.960083 
L 325.516688 287.960083 
L 341.676753 287.960083 
" clip-path="url(#p6e1527ee10)" style="fill: none; stroke: #ff4b44; stroke-opacity: 0.945455; stroke-width: 1.5; stroke-linecap: square"/>
   </g>
   <g id="line2d_46">
    <path d="M 2.315397 287.960083 
L 18.475462 265.531653 
L 34.635526 231.889008 
L 50.795591 254.317438 
L 66.955655 254.317438 
L 83.11572 254.317438 
L 99.275785 287.960083 
L 115.435849 287.960083 
L 131.595914 276.745868 
L 147.755978 276.745868 
L 163.916043 287.960083 
L 180.076107 287.960083 
L 196.236172 287.960083 
L 212.396236 287.960083 
L 228.556301 287.960083 
L 244.716365 287.960083 
L 260.87643 276.745868 
L 277.036495 287.960083 
L 293.196559 287.960083 
L 309.356624 287.960083 
L 325.516688 276.745868 
L 341.676753 287.960083 
" clip-path="url(#p6e1527ee10)" style="fill: none; stroke: #000000; stroke-opacity: 0.945455; stroke-width: 1.5; stroke-linecap: square"/>
   </g>
  </g>
  <g id="axes_22">
   <g id="FillBetweenPolyCollection_21">
    <defs>
     <path id="m9c42881b4f" d="M -5.622544 -37.762986 
L -5.622544 -37.762986 
L 13.872247 -37.762986 
L 33.367037 -37.762986 
L 52.861827 -37.762986 
L 72.356618 -37.762986 
L 91.851408 -37.762986 
L 111.346198 -37.762986 
L 130.840989 -37.762986 
L 150.335779 -37.762986 
L 169.830569 -37.762986 
L 189.32536 -37.762986 
L 208.82015 -37.762986 
L 228.314941 -37.762986 
L 247.809731 -37.762986 
L 267.304521 -37.762986 
L 286.799312 -37.762986 
L 306.294102 -37.762986 
L 325.788892 -37.762986 
L 345.283683 -37.762986 
L 364.778473 -37.762986 
L 384.273263 -37.762986 
L 403.768054 -37.762986 
L 403.768054 -37.762986 
L 403.768054 -37.762986 
L 384.273263 -44.77187 
L 364.778473 -37.762986 
L 345.283683 -37.762986 
L 325.788892 -37.762986 
L 306.294102 -44.77187 
L 286.799312 -37.762986 
L 267.304521 -37.762986 
L 247.809731 -37.762986 
L 228.314941 -37.762986 
L 208.82015 -37.762986 
L 189.32536 -37.762986 
L 169.830569 -37.762986 
L 150.335779 -44.77187 
L 130.840989 -37.762986 
L 111.346198 -51.780754 
L 91.851408 -44.77187 
L 72.356618 -51.780754 
L 52.861827 -58.789638 
L 33.367037 -93.83406 
L 13.872247 -44.77187 
L -5.622544 -37.762986 
z
" style="stroke: #ff4b44; stroke-opacity: 0.972727"/>
    </defs>
    <g clip-path="url(#p8efd699546)">
     <use xlink:href="#m9c42881b4f" x="0" y="337.40125" style="fill: #ff4b44; fill-opacity: 0.972727; stroke: #ff4b44; stroke-opacity: 0.972727"/>
    </g>
   </g>
   <g id="line2d_47">
    <path d="M -1 299.638264 
L 13.872247 299.638264 
L 33.367037 299.638264 
L 52.861827 299.638264 
L 72.356618 299.638264 
L 91.851408 299.638264 
L 111.346198 299.638264 
L 130.840989 299.638264 
L 150.335779 299.638264 
L 169.830569 299.638264 
L 189.32536 299.638264 
L 208.82015 299.638264 
L 228.314941 299.638264 
L 247.809731 299.638264 
L 267.304521 299.638264 
L 286.799312 299.638264 
L 306.294102 299.638264 
L 325.788892 299.638264 
L 345.283683 299.638264 
L 364.778473 299.638264 
L 384.273263 299.638264 
L 403.768054 299.638264 
" clip-path="url(#p8efd699546)" style="fill: none; stroke: #ff4b44; stroke-opacity: 0.972727; stroke-width: 1.5; stroke-linecap: square"/>
   </g>
   <g id="line2d_48">
    <path d="M -1 297.97634 
L 13.872247 292.62938 
L 33.367037 243.56719 
L 52.861827 278.611612 
L 72.356618 285.620496 
L 91.851408 292.62938 
L 111.346198 285.620496 
L 130.840989 299.638264 
L 150.335779 292.62938 
L 169.830569 299.638264 
L 189.32536 299.638264 
L 208.82015 299.638264 
L 228.314941 299.638264 
L 247.809731 299.638264 
L 267.304521 299.638264 
L 286.799312 299.638264 
L 306.294102 292.62938 
L 325.788892 299.638264 
L 345.283683 299.638264 
L 364.778473 299.638264 
L 384.273263 292.62938 
L 403.768054 299.638264 
" clip-path="url(#p8efd699546)" style="fill: none; stroke: #000000; stroke-opacity: 0.972727; stroke-width: 1.5; stroke-linecap: square"/>
   </g>
  </g>
  <g id="axes_23">
   <g id="FillBetweenPolyCollection_22">
    <defs>
     <path id="m197ee4ae0d" d="M -2.845702 -26.084804 
L -2.845702 -26.084804 
L 17.205775 -26.084804 
L 37.257251 -26.084804 
L 57.308727 -26.084804 
L 77.360204 -26.084804 
L 97.41168 -26.084804 
L 117.463156 -26.084804 
L 137.514633 -26.084804 
L 157.566109 -26.084804 
L 177.617585 -26.084804 
L 197.669062 -26.084804 
L 217.720538 -26.084804 
L 237.772015 -26.084804 
L 257.823491 -26.084804 
L 277.874967 -26.084804 
L 297.926444 -26.084804 
L 317.97792 -26.084804 
L 338.029396 -26.084804 
L 358.080873 -26.084804 
L 378.132349 -26.084804 
L 398.183825 -26.084804 
L 418.235302 -26.084804 
L 418.235302 -26.084804 
L 418.235302 -26.084804 
L 398.183825 -33.093688 
L 378.132349 -26.084804 
L 358.080873 -26.084804 
L 338.029396 -26.084804 
L 317.97792 -33.093688 
L 297.926444 -26.084804 
L 277.874967 -26.084804 
L 257.823491 -26.084804 
L 237.772015 -26.084804 
L 217.720538 -26.084804 
L 197.669062 -26.084804 
L 177.617585 -33.093688 
L 157.566109 -26.084804 
L 137.514633 -26.084804 
L 117.463156 -33.093688 
L 97.41168 -26.084804 
L 77.360204 -40.102572 
L 57.308727 -47.111457 
L 37.257251 -82.155878 
L 17.205775 -47.111457 
L -2.845702 -26.084804 
z
" style="stroke: #ff4b44"/>
    </defs>
    <g clip-path="url(#p3d30e82178)">
     <use xlink:href="#m197ee4ae0d" x="0" y="337.40125" style="fill: #ff4b44; stroke: #ff4b44"/>
    </g>
   </g>
   <g id="line2d_49">
    <path d="M -1 311.316446 
L 17.205775 311.316446 
L 37.257251 311.316446 
L 57.308727 311.316446 
L 77.360204 311.316446 
L 97.41168 311.316446 
L 117.463156 311.316446 
L 137.514633 311.316446 
L 157.566109 311.316446 
L 177.617585 311.316446 
L 197.669062 311.316446 
L 217.720538 311.316446 
L 237.772015 311.316446 
L 257.823491 311.316446 
L 277.874967 311.316446 
L 297.926444 311.316446 
L 317.97792 311.316446 
L 338.029396 311.316446 
L 358.080873 311.316446 
L 378.132349 311.316446 
L 398.183825 311.316446 
L 418.235302 311.316446 
" clip-path="url(#p3d30e82178)" style="fill: none; stroke: #ff4b44; stroke-width: 1.5; stroke-linecap: square"/>
   </g>
   <g id="line2d_50">
    <path d="M -1 309.380981 
L 17.205775 290.289793 
L 37.257251 255.245372 
L 57.308727 290.289793 
L 77.360204 297.298678 
L 97.41168 311.316446 
L 117.463156 304.307562 
L 137.514633 311.316446 
L 157.566109 311.316446 
L 177.617585 304.307562 
L 197.669062 311.316446 
L 217.720538 311.316446 
L 237.772015 311.316446 
L 257.823491 311.316446 
L 277.874967 311.316446 
L 297.926444 311.316446 
L 317.97792 304.307562 
L 338.029396 311.316446 
L 358.080873 311.316446 
L 378.132349 311.316446 
L 398.183825 304.307562 
L 418.235302 311.316446 
" clip-path="url(#p3d30e82178)" style="fill: none; stroke: #000000; stroke-width: 1.5; stroke-linecap: square"/>
   </g>
  </g>
  <g id="text_7">
   <!-- La Liga -->
   <g style="fill: #ff4b44" transform="translate(226.8 100.08) scale(0.18 -0.18)">
    <defs>
     <path id="Lato-Regular-4c" d="M 1178 522 
L 3162 522 
L 3162 0 
L 557 0 
L 557 4586 
L 1178 4586 
L 1178 522 
z
" transform="scale(0.015625)"/>
     <path id="Lato-Regular-61" d="M 2848 0 
L 2595 0 
Q 2512 0 2461 25 
Q 2410 51 2394 134 
L 2330 435 
Q 2202 320 2080 229 
Q 1958 138 1824 75 
Q 1690 13 1538 -19 
Q 1386 -51 1200 -51 
Q 1011 -51 846 1 
Q 682 54 560 160 
Q 438 266 366 427 
Q 294 589 294 810 
Q 294 1002 400 1179 
Q 506 1357 741 1494 
Q 976 1632 1357 1720 
Q 1738 1808 2288 1821 
L 2288 2074 
Q 2288 2451 2126 2644 
Q 1965 2838 1648 2838 
Q 1440 2838 1297 2785 
Q 1155 2733 1051 2667 
Q 947 2602 872 2549 
Q 797 2496 723 2496 
Q 666 2496 622 2526 
Q 579 2557 554 2602 
L 451 2784 
Q 720 3043 1030 3171 
Q 1341 3299 1718 3299 
Q 1990 3299 2201 3209 
Q 2413 3120 2557 2960 
Q 2701 2800 2774 2573 
Q 2848 2346 2848 2074 
L 2848 0 
z
M 1370 349 
Q 1520 349 1645 379 
Q 1770 410 1880 466 
Q 1990 522 2091 602 
Q 2192 682 2288 784 
L 2288 1459 
Q 1894 1446 1619 1396 
Q 1344 1347 1171 1267 
Q 998 1187 920 1078 
Q 842 970 842 835 
Q 842 707 883 614 
Q 925 522 995 462 
Q 1066 403 1162 376 
Q 1258 349 1370 349 
z
" transform="scale(0.015625)"/>
     <path id="Lato-Regular-20" transform="scale(0.015625)"/>
     <path id="Lato-Regular-69" d="M 1101 3242 
L 1101 0 
L 531 0 
L 531 3242 
L 1101 3242 
z
M 1229 4259 
Q 1229 4176 1195 4104 
Q 1162 4032 1106 3976 
Q 1050 3920 976 3888 
Q 902 3856 819 3856 
Q 736 3856 664 3888 
Q 592 3920 536 3976 
Q 480 4032 448 4104 
Q 416 4176 416 4259 
Q 416 4342 448 4417 
Q 480 4493 536 4549 
Q 592 4605 664 4637 
Q 736 4669 819 4669 
Q 902 4669 976 4637 
Q 1050 4605 1106 4549 
Q 1162 4493 1195 4417 
Q 1229 4342 1229 4259 
z
" transform="scale(0.015625)"/>
     <path id="Lato-Regular-67" d="M 1558 3296 
Q 1770 3296 1954 3249 
Q 2138 3203 2288 3114 
L 3168 3114 
L 3168 2902 
Q 3168 2797 3034 2768 
L 2666 2717 
Q 2774 2509 2774 2253 
Q 2774 2016 2683 1822 
Q 2592 1629 2430 1491 
Q 2269 1354 2046 1280 
Q 1824 1206 1558 1206 
Q 1331 1206 1130 1261 
Q 1027 1197 974 1123 
Q 922 1050 922 979 
Q 922 864 1014 805 
Q 1107 746 1260 720 
Q 1414 694 1609 688 
Q 1805 682 2008 667 
Q 2211 653 2406 617 
Q 2602 582 2755 502 
Q 2909 422 3001 281 
Q 3094 141 3094 -83 
Q 3094 -291 2990 -486 
Q 2886 -682 2691 -834 
Q 2496 -986 2214 -1077 
Q 1933 -1168 1578 -1168 
Q 1222 -1168 955 -1097 
Q 688 -1027 512 -908 
Q 336 -790 248 -635 
Q 160 -480 160 -310 
Q 160 -70 312 98 
Q 464 266 730 365 
Q 592 429 510 536 
Q 429 643 429 822 
Q 429 893 454 968 
Q 480 1043 533 1116 
Q 586 1190 662 1257 
Q 739 1325 842 1376 
Q 602 1510 466 1732 
Q 330 1955 330 2253 
Q 330 2490 421 2683 
Q 512 2877 675 3013 
Q 838 3149 1064 3222 
Q 1290 3296 1558 3296 
z
M 2570 -176 
Q 2570 -54 2502 19 
Q 2435 93 2320 133 
Q 2205 173 2054 192 
Q 1904 211 1737 219 
Q 1571 227 1398 236 
Q 1226 246 1069 272 
Q 886 186 772 61 
Q 659 -64 659 -237 
Q 659 -346 715 -440 
Q 771 -534 886 -603 
Q 1002 -672 1176 -712 
Q 1350 -752 1587 -752 
Q 1818 -752 2000 -710 
Q 2182 -669 2308 -592 
Q 2435 -515 2502 -409 
Q 2570 -304 2570 -176 
z
M 1558 1584 
Q 1731 1584 1864 1632 
Q 1997 1680 2086 1766 
Q 2176 1853 2221 1973 
Q 2266 2093 2266 2237 
Q 2266 2534 2085 2710 
Q 1904 2886 1558 2886 
Q 1216 2886 1035 2710 
Q 854 2534 854 2237 
Q 854 2093 900 1973 
Q 947 1853 1036 1766 
Q 1126 1680 1257 1632 
Q 1389 1584 1558 1584 
z
" transform="scale(0.015625)"/>
    </defs>
    <use xlink:href="#Lato-Regular-4c"/>
    <use xlink:href="#Lato-Regular-61" transform="translate(51.400009 0)"/>
    <use xlink:href="#Lato-Regular-20" transform="translate(102.100021 0)"/>
    <use xlink:href="#Lato-Regular-4c" transform="translate(121.400024 0)"/>
    <use xlink:href="#Lato-Regular-69" transform="translate(172.800034 0)"/>
    <use xlink:href="#Lato-Regular-67" transform="translate(198.40004 0)"/>
    <use xlink:href="#Lato-Regular-61" transform="translate(249.500046 0)"/>
   </g>
  </g>
 </g>
 <defs>
  <clipPath id="pefea4643d0">
   <rect x="7.2" y="7.2" width="439.2" height="61.678182"/>
  </clipPath>
  <clipPath id="pf0a10b28d8">
   <rect x="7.2" y="18.878182" width="439.2" height="61.678182"/>
  </clipPath>
  <clipPath id="p4a0f974581">
   <rect x="7.2" y="30.556364" width="439.2" height="61.678182"/>
  </clipPath>
  <clipPath id="pd6de41231e">
   <rect x="7.2" y="42.234545" width="439.2" height="61.678182"/>
  </clipPath>
  <clipPath id="p5b9966183e">
   <rect x="7.2" y="53.912727" width="439.2" height="61.678182"/>
  </clipPath>
  <clipPath id="p2da7a5de42">
   <rect x="7.2" y="65.590909" width="439.2" height="61.678182"/>
  </clipPath>
  <clipPath id="p868e3a45b7">
   <rect x="7.2" y="77.269091" width="439.2" height="61.678182"/>
  </clipPath>
  <clipPath id="pc1b57232fd">
   <rect x="7.2" y="88.947273" width="439.2" height="61.678182"/>
  </clipPath>
  <clipPath id="p1df8d53c32">
   <rect x="7.2" y="100.625455" width="439.2" height="61.678182"/>
  </clipPath>
  <clipPath id="p5b364ae586">
   <rect x="7.2" y="112.303636" width="439.2" height="61.678182"/>
  </clipPath>
  <clipPath id="p8a4ca02ff4">
   <rect x="7.2" y="123.981818" width="439.2" height="61.678182"/>
  </clipPath>
  <clipPath id="p0e910d8df7">
   <rect x="7.2" y="135.66" width="439.2" height="61.678182"/>
  </clipPath>
  <clipPath id="p1d0da6ea93">
   <rect x="7.2" y="147.338182" width="439.2" height="61.678182"/>
  </clipPath>
  <clipPath id="pe6d152c540">
   <rect x="7.2" y="159.016364" width="439.2" height="61.678182"/>
  </clipPath>
  <clipPath id="p8535637e9b">
   <rect x="7.2" y="170.694545" width="439.2" height="61.678182"/>
  </clipPath>
  <clipPath id="p31ca13634d">
   <rect x="7.2" y="182.372727" width="439.2" height="61.678182"/>
  </clipPath>
  <clipPath id="p115250950e">
   <rect x="7.2" y="194.050909" width="439.2" height="61.678182"/>
  </clipPath>
  <clipPath id="p991b43f2cd">
   <rect x="7.2" y="205.729091" width="439.2" height="61.678182"/>
  </clipPath>
  <clipPath id="p69e7dd5a32">
   <rect x="7.2" y="217.407273" width="439.2" height="61.678182"/>
  </clipPath>
  <clipPath id="p6e1527ee10">
   <rect x="7.2" y="229.085455" width="439.2" height="61.678182"/>
  </clipPath>
  <clipPath id="p8efd699546">
   <rect x="7.2" y="240.763636" width="439.2" height="61.678182"/>
  </clipPath>
  <clipPath id="p3d30e82178">
   <rect x="7.2" y="252.441818" width="439.2" height="61.678182"/>
  </clipPath>
 </defs>
</svg>
