<?xml version="1.0" encoding="utf-8" standalone="no"?>
<!DOCTYPE svg PUBLIC "-//W3C//DTD SVG 1.1//EN"
  "http://www.w3.org/Graphics/SVG/1.1/DTD/svg11.dtd">
<svg xmlns:xlink="http://www.w3.org/1999/xlink" width="453.6pt" height="337.40125pt" viewBox="0 0 453.6 337.40125" xmlns="http://www.w3.org/2000/svg" version="1.1">
 <metadata>
  <rdf:RDF xmlns:dc="http://purl.org/dc/elements/1.1/" xmlns:cc="http://creativecommons.org/ns#" xmlns:rdf="http://www.w3.org/1999/02/22-rdf-syntax-ns#">
   <cc:Work>
    <dc:type rdf:resource="http://purl.org/dc/dcmitype/StillImage"/>
    <dc:date>2025-11-26T11:50:01.221516</dc:date>
    <dc:format>image/svg+xml</dc:format>
    <dc:creator>
     <cc:Agent>
      <dc:title>Matplotlib v3.10.5, https://matplotlib.org/</dc:title>
     </cc:Agent>
    </dc:creator>
   </cc:Work>
  </rdf:RDF>
 </metadata>
 <defs>
  <style type="text/css">*{stroke-linejoin: round; stroke-linecap: butt}</style>
 </defs>
 <g id="figure_1">
  <g id="patch_1">
   <path d="M 0 337.40125 
L 453.6 337.40125 
L 453.6 0 
L 0 0 
z
" style="fill: #f5f5dc"/>
  </g>
  <g id="axes_1">
   <g id="patch_2">
    <path d="M 7.2 314.12 
L 446.4 314.12 
L 446.4 7.2 
L 7.2 7.2 
z
" style="fill: #f5f5dc"/>
   </g>
   <g id="matplotlib.axis_1">
    <g id="xtick_1">
     <g id="line2d_1">
      <defs>
       <path id="maf98575915" d="M 0 0 
L 0 3.5 
" style="stroke: #000000; stroke-width: 0.8"/>
      </defs>
      <g>
       <use xlink:href="#maf98575915" x="75.825" y="314.12" style="stroke: #000000; stroke-width: 0.8"/>
      </g>
     </g>
     <g id="text_1">
      <!-- €250M -->
      <g transform="translate(59.625 328.485625) scale(0.1 -0.1)">
       <defs>
        <path id="Lato-Regular-20ac" d="M 109 2877 
L 579 2877 
Q 643 3280 795 3605 
Q 947 3930 1172 4158 
Q 1398 4387 1692 4508 
Q 1987 4630 2333 4630 
Q 2762 4630 3066 4470 
Q 3370 4310 3594 4029 
L 3398 3811 
Q 3373 3782 3347 3761 
Q 3322 3741 3277 3741 
Q 3222 3741 3163 3801 
Q 3104 3862 3005 3936 
Q 2906 4010 2750 4070 
Q 2595 4131 2355 4131 
Q 1888 4131 1579 3811 
Q 1270 3491 1168 2877 
L 2918 2877 
L 2918 2701 
Q 2918 2643 2875 2596 
Q 2832 2550 2755 2550 
L 1130 2550 
Q 1126 2486 1124 2422 
Q 1123 2358 1123 2291 
Q 1123 2240 1123 2192 
Q 1123 2144 1126 2096 
L 2621 2096 
L 2621 1917 
Q 2621 1862 2576 1816 
Q 2531 1770 2454 1770 
L 1155 1770 
Q 1245 1110 1552 780 
Q 1859 451 2326 451 
Q 2499 451 2630 484 
Q 2762 518 2858 569 
Q 2954 621 3022 680 
Q 3091 739 3142 790 
Q 3194 842 3234 875 
Q 3274 909 3312 909 
Q 3338 909 3357 897 
Q 3376 886 3402 864 
L 3642 640 
Q 3418 314 3085 133 
Q 2752 -48 2294 -48 
Q 1923 -48 1625 78 
Q 1328 205 1110 440 
Q 893 675 753 1012 
Q 614 1350 563 1770 
L 109 1770 
L 109 2096 
L 538 2096 
Q 534 2144 534 2192 
Q 534 2240 534 2291 
Q 534 2355 536 2420 
Q 538 2486 541 2550 
L 109 2550 
L 109 2877 
z
" transform="scale(0.015625)"/>
        <path id="Lato-Regular-32" d="M 1923 4637 
Q 2214 4637 2467 4550 
Q 2720 4464 2904 4299 
Q 3088 4134 3193 3897 
Q 3299 3661 3299 3360 
Q 3299 3104 3222 2886 
Q 3146 2669 3014 2469 
Q 2883 2269 2712 2081 
Q 2541 1894 2349 1699 
L 1142 464 
Q 1270 499 1401 520 
Q 1533 541 1654 541 
L 3190 541 
Q 3283 541 3337 486 
Q 3392 432 3392 346 
L 3392 0 
L 333 0 
L 333 195 
Q 333 256 357 320 
Q 381 384 435 438 
L 1904 1914 
Q 2086 2099 2236 2270 
Q 2387 2442 2494 2614 
Q 2602 2787 2659 2964 
Q 2717 3142 2717 3344 
Q 2717 3546 2653 3698 
Q 2589 3850 2477 3949 
Q 2365 4048 2214 4097 
Q 2064 4147 1891 4147 
Q 1718 4147 1571 4096 
Q 1424 4045 1310 3953 
Q 1197 3862 1118 3737 
Q 1040 3613 1008 3462 
Q 982 3370 931 3328 
Q 880 3286 797 3286 
Q 781 3286 763 3288 
Q 746 3290 723 3293 
L 426 3344 
Q 470 3658 598 3899 
Q 726 4141 923 4304 
Q 1120 4467 1374 4552 
Q 1629 4637 1923 4637 
z
" transform="scale(0.015625)"/>
        <path id="Lato-Regular-35" d="M 3130 4336 
Q 3130 4214 3053 4136 
Q 2976 4058 2794 4058 
L 1354 4058 
L 1142 2854 
Q 1501 2931 1805 2931 
Q 2163 2931 2436 2825 
Q 2710 2720 2896 2534 
Q 3082 2349 3176 2096 
Q 3270 1843 3270 1546 
Q 3270 1181 3142 886 
Q 3014 592 2792 382 
Q 2570 173 2269 61 
Q 1968 -51 1619 -51 
Q 1418 -51 1232 -11 
Q 1046 29 886 96 
Q 726 163 588 249 
Q 451 336 346 432 
L 518 675 
Q 576 758 672 758 
Q 733 758 814 708 
Q 896 659 1011 598 
Q 1126 538 1281 488 
Q 1437 438 1651 438 
Q 1891 438 2083 515 
Q 2275 592 2411 734 
Q 2547 877 2620 1075 
Q 2694 1274 2694 1520 
Q 2694 1734 2632 1907 
Q 2570 2080 2443 2201 
Q 2317 2323 2128 2390 
Q 1939 2458 1686 2458 
Q 1514 2458 1328 2429 
Q 1142 2400 944 2336 
L 586 2442 
L 957 4586 
L 3130 4586 
L 3130 4336 
z
" transform="scale(0.015625)"/>
        <path id="Lato-Regular-30" d="M 3520 2291 
Q 3520 1690 3390 1250 
Q 3261 810 3037 522 
Q 2813 234 2507 93 
Q 2202 -48 1853 -48 
Q 1501 -48 1198 93 
Q 896 234 672 522 
Q 448 810 320 1250 
Q 192 1690 192 2291 
Q 192 2893 320 3334 
Q 448 3776 672 4065 
Q 896 4355 1198 4496 
Q 1501 4637 1853 4637 
Q 2202 4637 2507 4496 
Q 2813 4355 3037 4065 
Q 3261 3776 3390 3334 
Q 3520 2893 3520 2291 
z
M 2928 2291 
Q 2928 2816 2840 3173 
Q 2752 3530 2603 3747 
Q 2454 3965 2259 4059 
Q 2064 4154 1853 4154 
Q 1642 4154 1446 4059 
Q 1251 3965 1104 3747 
Q 957 3530 869 3173 
Q 781 2816 781 2291 
Q 781 1766 869 1411 
Q 957 1056 1104 838 
Q 1251 621 1446 526 
Q 1642 432 1853 432 
Q 2064 432 2259 526 
Q 2454 621 2603 838 
Q 2752 1056 2840 1411 
Q 2928 1766 2928 2291 
z
" transform="scale(0.015625)"/>
        <path id="Lato-Regular-4d" d="M 2813 1658 
Q 2858 1581 2891 1496 
Q 2925 1411 2957 1325 
Q 2989 1414 3024 1496 
Q 3059 1578 3104 1661 
L 4656 4480 
Q 4698 4554 4742 4570 
Q 4787 4586 4870 4586 
L 5328 4586 
L 5328 0 
L 4784 0 
L 4784 3370 
Q 4784 3437 4787 3513 
Q 4790 3590 4797 3670 
L 3226 803 
Q 3146 659 3002 659 
L 2912 659 
Q 2768 659 2688 803 
L 1082 3680 
Q 1091 3597 1096 3517 
Q 1101 3437 1101 3370 
L 1101 0 
L 557 0 
L 557 4586 
L 1014 4586 
Q 1098 4586 1142 4570 
Q 1187 4554 1229 4480 
L 2813 1658 
L 2813 1658 
z
" transform="scale(0.015625)"/>
       </defs>
       <use xlink:href="#Lato-Regular-20ac"/>
       <use xlink:href="#Lato-Regular-32" transform="translate(58 0)"/>
       <use xlink:href="#Lato-Regular-35" transform="translate(116 0)"/>
       <use xlink:href="#Lato-Regular-30" transform="translate(174 0)"/>
       <use xlink:href="#Lato-Regular-4d" transform="translate(232 0)"/>
      </g>
     </g>
    </g>
    <g id="xtick_2">
     <g id="line2d_2">
      <g>
       <use xlink:href="#maf98575915" x="144.45" y="314.12" style="stroke: #000000; stroke-width: 0.8"/>
      </g>
     </g>
     <g id="text_2">
      <!-- €500M -->
      <g transform="translate(128.25 328.485625) scale(0.1 -0.1)">
       <use xlink:href="#Lato-Regular-20ac"/>
       <use xlink:href="#Lato-Regular-35" transform="translate(58 0)"/>
       <use xlink:href="#Lato-Regular-30" transform="translate(116 0)"/>
       <use xlink:href="#Lato-Regular-30" transform="translate(174 0)"/>
       <use xlink:href="#Lato-Regular-4d" transform="translate(232 0)"/>
      </g>
     </g>
    </g>
    <g id="xtick_3">
     <g id="line2d_3">
      <g>
       <use xlink:href="#maf98575915" x="213.075" y="314.12" style="stroke: #000000; stroke-width: 0.8"/>
      </g>
     </g>
     <g id="text_3">
      <!-- €750M -->
      <g transform="translate(196.875 328.485625) scale(0.1 -0.1)">
       <defs>
        <path id="Lato-Regular-37" d="M 3469 4586 
L 3469 4330 
Q 3469 4221 3445 4150 
Q 3421 4080 3395 4032 
L 1498 202 
Q 1456 118 1382 59 
Q 1309 0 1184 0 
L 778 0 
L 2704 3782 
Q 2746 3862 2789 3929 
Q 2832 3997 2886 4058 
L 493 4058 
Q 438 4058 395 4101 
Q 352 4144 352 4198 
L 352 4586 
L 3469 4586 
z
" transform="scale(0.015625)"/>
       </defs>
       <use xlink:href="#Lato-Regular-20ac"/>
       <use xlink:href="#Lato-Regular-37" transform="translate(58 0)"/>
       <use xlink:href="#Lato-Regular-35" transform="translate(116 0)"/>
       <use xlink:href="#Lato-Regular-30" transform="translate(174 0)"/>
       <use xlink:href="#Lato-Regular-4d" transform="translate(232 0)"/>
      </g>
     </g>
    </g>
    <g id="xtick_4">
     <g id="line2d_4">
      <g>
       <use xlink:href="#maf98575915" x="281.7" y="314.12" style="stroke: #000000; stroke-width: 0.8"/>
      </g>
     </g>
     <g id="text_4">
      <!-- €1B -->
      <g transform="translate(272.664844 328.485625) scale(0.1 -0.1)">
       <defs>
        <path id="Lato-Regular-31" d="M 918 435 
L 1904 435 
L 1904 3562 
Q 1904 3702 1914 3846 
L 1094 3146 
Q 1062 3120 1030 3109 
Q 998 3098 970 3098 
Q 922 3098 883 3118 
Q 845 3139 826 3168 
L 646 3414 
L 2010 4595 
L 2474 4595 
L 2474 435 
L 3376 435 
L 3376 0 
L 918 0 
L 918 435 
z
" transform="scale(0.015625)"/>
        <path id="Lato-Regular-42" d="M 557 0 
L 557 4586 
L 2019 4586 
Q 2442 4586 2747 4502 
Q 3053 4419 3249 4265 
Q 3446 4112 3540 3889 
Q 3635 3667 3635 3389 
Q 3635 3219 3582 3062 
Q 3530 2906 3422 2771 
Q 3315 2637 3153 2531 
Q 2992 2426 2774 2358 
Q 3277 2259 3533 1996 
Q 3789 1734 3789 1306 
Q 3789 1014 3681 774 
Q 3574 534 3368 361 
Q 3162 189 2862 94 
Q 2563 0 2179 0 
L 557 0 
z
M 1178 2090 
L 1178 493 
L 2170 493 
Q 2435 493 2625 553 
Q 2816 614 2939 724 
Q 3062 835 3120 987 
Q 3178 1139 3178 1322 
Q 3178 1677 2926 1883 
Q 2675 2090 2166 2090 
L 1178 2090 
z
M 1178 2531 
L 1997 2531 
Q 2259 2531 2451 2588 
Q 2643 2646 2769 2748 
Q 2896 2851 2957 2996 
Q 3018 3142 3018 3315 
Q 3018 3718 2774 3907 
Q 2531 4096 2019 4096 
L 1178 4096 
L 1178 2531 
z
" transform="scale(0.015625)"/>
       </defs>
       <use xlink:href="#Lato-Regular-20ac"/>
       <use xlink:href="#Lato-Regular-31" transform="translate(58 0)"/>
       <use xlink:href="#Lato-Regular-42" transform="translate(116 0)"/>
      </g>
     </g>
    </g>
    <g id="xtick_5">
     <g id="line2d_5">
      <g>
       <use xlink:href="#maf98575915" x="350.325" y="314.12" style="stroke: #000000; stroke-width: 0.8"/>
      </g>
     </g>
     <g id="text_5">
      <!-- €1.25B -->
      <g transform="translate(334.429688 328.485625) scale(0.1 -0.1)">
       <defs>
        <path id="Lato-Regular-2e" d="M 282 352 
Q 282 435 312 508 
Q 342 582 395 636 
Q 448 691 521 723 
Q 595 755 678 755 
Q 762 755 835 723 
Q 909 691 963 636 
Q 1018 582 1048 508 
Q 1078 435 1078 352 
Q 1078 266 1048 194 
Q 1018 122 963 67 
Q 909 13 835 -17 
Q 762 -48 678 -48 
Q 595 -48 521 -17 
Q 448 13 395 67 
Q 342 122 312 194 
Q 282 266 282 352 
z
" transform="scale(0.015625)"/>
       </defs>
       <use xlink:href="#Lato-Regular-20ac"/>
       <use xlink:href="#Lato-Regular-31" transform="translate(58 0)"/>
       <use xlink:href="#Lato-Regular-2e" transform="translate(116 0)"/>
       <use xlink:href="#Lato-Regular-32" transform="translate(137.199997 0)"/>
       <use xlink:href="#Lato-Regular-35" transform="translate(195.199997 0)"/>
       <use xlink:href="#Lato-Regular-42" transform="translate(253.199997 0)"/>
      </g>
     </g>
    </g>
    <g id="xtick_6">
     <g id="line2d_6">
      <g>
       <use xlink:href="#maf98575915" x="418.95" y="314.12" style="stroke: #000000; stroke-width: 0.8"/>
      </g>
     </g>
     <g id="text_6">
      <!-- €1.5B -->
      <g transform="translate(405.954688 328.485625) scale(0.1 -0.1)">
       <use xlink:href="#Lato-Regular-20ac"/>
       <use xlink:href="#Lato-Regular-31" transform="translate(58 0)"/>
       <use xlink:href="#Lato-Regular-2e" transform="translate(116 0)"/>
       <use xlink:href="#Lato-Regular-35" transform="translate(137.199997 0)"/>
       <use xlink:href="#Lato-Regular-42" transform="translate(195.199997 0)"/>
      </g>
     </g>
    </g>
   </g>
  </g>
  <g id="axes_2">
   <g id="FillBetweenPolyCollection_1">
    <defs>
     <path id="me7cb9b7e99" d="M 5.082856 -271.708913 
L 5.082856 -271.708913 
L 9.429439 -271.708913 
L 13.776022 -271.708913 
L 18.122605 -271.708913 
L 22.469187 -271.708913 
L 26.81577 -271.708913 
L 31.162353 -271.708913 
L 35.508935 -271.708913 
L 39.855518 -271.708913 
L 44.202101 -271.708913 
L 48.548684 -271.708913 
L 52.895266 -271.708913 
L 57.241849 -271.708913 
L 61.588432 -271.708913 
L 65.935015 -271.708913 
L 70.281597 -271.708913 
L 74.62818 -271.708913 
L 78.974763 -271.708913 
L 83.321345 -271.708913 
L 87.667928 -271.708913 
L 92.014511 -271.708913 
L 96.361094 -271.708913 
L 96.361094 -271.708913 
L 96.361094 -271.708913 
L 92.014511 -277.279612 
L 87.667928 -271.708913 
L 83.321345 -277.279612 
L 78.974763 -271.708913 
L 74.62818 -271.708913 
L 70.281597 -271.708913 
L 65.935015 -271.708913 
L 61.588432 -277.279612 
L 57.241849 -271.708913 
L 52.895266 -271.708913 
L 48.548684 -277.279612 
L 44.202101 -271.708913 
L 39.855518 -277.279612 
L 35.508935 -271.708913 
L 31.162353 -277.279612 
L 26.81577 -282.850311 
L 22.469187 -288.42101 
L 18.122605 -293.991708 
L 13.776022 -288.42101 
L 9.429439 -282.850311 
L 5.082856 -271.708913 
z
" style="stroke: #ff4b44; stroke-opacity: 0.427273"/>
    </defs>
    <g clip-path="url(#pdb061aceec)">
     <use xlink:href="#me7cb9b7e99" x="0" y="337.40125" style="fill: #ff4b44; fill-opacity: 0.427273; stroke: #ff4b44; stroke-opacity: 0.427273"/>
    </g>
   </g>
   <g id="line2d_7">
    <path d="M 5.082856 65.692337 
L 9.429439 65.692337 
L 13.776022 65.692337 
L 18.122605 65.692337 
L 22.469187 65.692337 
L 26.81577 65.692337 
L 31.162353 65.692337 
L 35.508935 65.692337 
L 39.855518 65.692337 
L 44.202101 65.692337 
L 48.548684 65.692337 
L 52.895266 65.692337 
L 57.241849 65.692337 
L 61.588432 65.692337 
L 65.935015 65.692337 
L 70.281597 65.692337 
L 74.62818 65.692337 
L 78.974763 65.692337 
L 83.321345 65.692337 
L 87.667928 65.692337 
L 92.014511 65.692337 
L 96.361094 65.692337 
" clip-path="url(#pdb061aceec)" style="fill: none; stroke: #ff4b44; stroke-opacity: 0.427273; stroke-width: 1.5; stroke-linecap: square"/>
   </g>
   <g id="line2d_8">
    <path d="M 5.082856 65.692337 
L 9.429439 54.550939 
L 13.776022 48.98024 
L 18.122605 43.409542 
L 22.469187 48.98024 
L 26.81577 54.550939 
L 31.162353 60.121638 
L 35.508935 65.692337 
L 39.855518 60.121638 
L 44.202101 65.692337 
L 48.548684 60.121638 
L 52.895266 65.692337 
L 57.241849 65.692337 
L 61.588432 60.121638 
L 65.935015 65.692337 
L 70.281597 65.692337 
L 74.62818 65.692337 
L 78.974763 65.692337 
L 83.321345 60.121638 
L 87.667928 65.692337 
L 92.014511 60.121638 
L 96.361094 65.692337 
" clip-path="url(#pdb061aceec)" style="fill: none; stroke: #000000; stroke-opacity: 0.427273; stroke-width: 1.5; stroke-linecap: square"/>
   </g>
  </g>
  <g id="axes_3">
   <g id="FillBetweenPolyCollection_2">
    <defs>
     <path id="m672fdf436d" d="M 7.184279 -260.303459 
L 7.184279 -260.303459 
L 11.756201 -260.303459 
L 16.328123 -260.303459 
L 20.900045 -260.303459 
L 25.471968 -260.303459 
L 30.04389 -260.303459 
L 34.615812 -260.303459 
L 39.187735 -260.303459 
L 43.759657 -260.303459 
L 48.331579 -260.303459 
L 52.903501 -260.303459 
L 57.475424 -260.303459 
L 62.047346 -260.303459 
L 66.619268 -260.303459 
L 71.19119 -260.303459 
L 75.763113 -260.303459 
L 80.335035 -260.303459 
L 84.906957 -260.303459 
L 89.47888 -260.303459 
L 94.050802 -260.303459 
L 98.622724 -260.303459 
L 103.194646 -260.303459 
L 103.194646 -260.303459 
L 103.194646 -260.303459 
L 98.622724 -265.874158 
L 94.050802 -260.303459 
L 89.47888 -260.303459 
L 84.906957 -265.874158 
L 80.335035 -260.303459 
L 75.763113 -260.303459 
L 71.19119 -260.303459 
L 66.619268 -265.874158 
L 62.047346 -260.303459 
L 57.475424 -260.303459 
L 52.903501 -260.303459 
L 48.331579 -260.303459 
L 43.759657 -271.444856 
L 39.187735 -260.303459 
L 34.615812 -265.874158 
L 30.04389 -271.444856 
L 25.471968 -271.444856 
L 20.900045 -282.586254 
L 16.328123 -288.156952 
L 11.756201 -265.874158 
L 7.184279 -260.303459 
z
" style="stroke: #ff4b44; stroke-opacity: 0.454545"/>
    </defs>
    <g clip-path="url(#p673e7280db)">
     <use xlink:href="#m672fdf436d" x="0" y="337.40125" style="fill: #ff4b44; fill-opacity: 0.454545; stroke: #ff4b44; stroke-opacity: 0.454545"/>
    </g>
   </g>
   <g id="line2d_9">
    <path d="M 7.184279 77.097791 
L 11.756201 77.097791 
L 16.328123 77.097791 
L 20.900045 77.097791 
L 25.471968 77.097791 
L 30.04389 77.097791 
L 34.615812 77.097791 
L 39.187735 77.097791 
L 43.759657 77.097791 
L 48.331579 77.097791 
L 52.903501 77.097791 
L 57.475424 77.097791 
L 62.047346 77.097791 
L 66.619268 77.097791 
L 71.19119 77.097791 
L 75.763113 77.097791 
L 80.335035 77.097791 
L 84.906957 77.097791 
L 89.47888 77.097791 
L 94.050802 77.097791 
L 98.622724 77.097791 
L 103.194646 77.097791 
" clip-path="url(#p673e7280db)" style="fill: none; stroke: #ff4b44; stroke-opacity: 0.454545; stroke-width: 1.5; stroke-linecap: square"/>
   </g>
   <g id="line2d_10">
    <path d="M 7.184279 77.097791 
L 11.756201 71.527092 
L 16.328123 49.244298 
L 20.900045 54.814996 
L 25.471968 65.956394 
L 30.04389 65.956394 
L 34.615812 71.527092 
L 39.187735 77.097791 
L 43.759657 65.956394 
L 48.331579 77.097791 
L 52.903501 77.097791 
L 57.475424 77.097791 
L 62.047346 77.097791 
L 66.619268 71.527092 
L 71.19119 77.097791 
L 75.763113 77.097791 
L 80.335035 77.097791 
L 84.906957 71.527092 
L 89.47888 77.097791 
L 94.050802 77.097791 
L 98.622724 71.527092 
L 103.194646 77.097791 
" clip-path="url(#p673e7280db)" style="fill: none; stroke: #000000; stroke-opacity: 0.454545; stroke-width: 1.5; stroke-linecap: square"/>
   </g>
  </g>
  <g id="axes_4">
   <g id="FillBetweenPolyCollection_3">
    <defs>
     <path id="m96522fc219" d="M 8.088132 -248.898004 
L 8.088132 -248.898004 
L 13.238002 -248.898004 
L 18.387871 -248.898004 
L 23.537741 -248.898004 
L 28.68761 -248.898004 
L 33.83748 -248.898004 
L 38.98735 -248.898004 
L 44.137219 -248.898004 
L 49.287089 -248.898004 
L 54.436958 -248.898004 
L 59.586828 -248.898004 
L 64.736697 -248.898004 
L 69.886567 -248.898004 
L 75.036436 -248.898004 
L 80.186306 -248.898004 
L 85.336175 -248.898004 
L 90.486045 -248.898004 
L 95.635915 -248.898004 
L 100.785784 -248.898004 
L 105.935654 -248.898004 
L 111.085523 -248.898004 
L 116.235393 -248.898004 
L 116.235393 -248.898004 
L 116.235393 -248.898004 
L 111.085523 -254.468703 
L 105.935654 -254.468703 
L 100.785784 -248.898004 
L 95.635915 -248.898004 
L 90.486045 -248.898004 
L 85.336175 -248.898004 
L 80.186306 -248.898004 
L 75.036436 -248.898004 
L 69.886567 -254.468703 
L 64.736697 -248.898004 
L 59.586828 -248.898004 
L 54.436958 -254.468703 
L 49.287089 -248.898004 
L 44.137219 -254.468703 
L 38.98735 -260.039402 
L 33.83748 -254.468703 
L 28.68761 -260.039402 
L 23.537741 -276.751498 
L 18.387871 -271.180799 
L 13.238002 -254.468703 
L 8.088132 -248.898004 
z
" style="stroke: #ff4b44; stroke-opacity: 0.481818"/>
    </defs>
    <g clip-path="url(#pd52aa050f6)">
     <use xlink:href="#m96522fc219" x="0" y="337.40125" style="fill: #ff4b44; fill-opacity: 0.481818; stroke: #ff4b44; stroke-opacity: 0.481818"/>
    </g>
   </g>
   <g id="line2d_11">
    <path d="M 8.088132 88.503246 
L 13.238002 88.503246 
L 18.387871 88.503246 
L 23.537741 88.503246 
L 28.68761 88.503246 
L 33.83748 88.503246 
L 38.98735 88.503246 
L 44.137219 88.503246 
L 49.287089 88.503246 
L 54.436958 88.503246 
L 59.586828 88.503246 
L 64.736697 88.503246 
L 69.886567 88.503246 
L 75.036436 88.503246 
L 80.186306 88.503246 
L 85.336175 88.503246 
L 90.486045 88.503246 
L 95.635915 88.503246 
L 100.785784 88.503246 
L 105.935654 88.503246 
L 111.085523 88.503246 
L 116.235393 88.503246 
" clip-path="url(#pd52aa050f6)" style="fill: none; stroke: #ff4b44; stroke-opacity: 0.481818; stroke-width: 1.5; stroke-linecap: square"/>
   </g>
   <g id="line2d_12">
    <path d="M 8.088132 88.503246 
L 13.238002 82.932547 
L 18.387871 66.220451 
L 23.537741 60.649752 
L 28.68761 77.361848 
L 33.83748 82.932547 
L 38.98735 77.361848 
L 44.137219 82.932547 
L 49.287089 88.503246 
L 54.436958 82.932547 
L 59.586828 88.503246 
L 64.736697 88.503246 
L 69.886567 82.932547 
L 75.036436 88.503246 
L 80.186306 88.503246 
L 85.336175 88.503246 
L 90.486045 88.503246 
L 95.635915 88.503246 
L 100.785784 88.503246 
L 105.935654 82.932547 
L 111.085523 82.932547 
L 116.235393 88.503246 
" clip-path="url(#pd52aa050f6)" style="fill: none; stroke: #000000; stroke-opacity: 0.481818; stroke-width: 1.5; stroke-linecap: square"/>
   </g>
  </g>
  <g id="axes_5">
   <g id="FillBetweenPolyCollection_4">
    <defs>
     <path id="m2a822264e9" d="M 11.161285 -237.49255 
L 11.161285 -237.49255 
L 16.734134 -237.49255 
L 22.306983 -237.49255 
L 27.879832 -237.49255 
L 33.452681 -237.49255 
L 39.02553 -237.49255 
L 44.598379 -237.49255 
L 50.171228 -237.49255 
L 55.744077 -237.49255 
L 61.316926 -237.49255 
L 66.889775 -237.49255 
L 72.462625 -237.49255 
L 78.035474 -237.49255 
L 83.608323 -237.49255 
L 89.181172 -237.49255 
L 94.754021 -237.49255 
L 100.32687 -237.49255 
L 105.899719 -237.49255 
L 111.472568 -237.49255 
L 117.045417 -237.49255 
L 122.618266 -237.49255 
L 128.191115 -237.49255 
L 128.191115 -237.49255 
L 128.191115 -237.49255 
L 122.618266 -243.063248 
L 117.045417 -237.49255 
L 111.472568 -237.49255 
L 105.899719 -243.063248 
L 100.32687 -237.49255 
L 94.754021 -237.49255 
L 89.181172 -237.49255 
L 83.608323 -237.49255 
L 78.035474 -237.49255 
L 72.462625 -243.063248 
L 66.889775 -243.063248 
L 61.316926 -243.063248 
L 55.744077 -237.49255 
L 50.171228 -243.063248 
L 44.598379 -237.49255 
L 39.02553 -248.633947 
L 33.452681 -237.49255 
L 27.879832 -276.487441 
L 22.306983 -259.775345 
L 16.734134 -243.063248 
L 11.161285 -237.49255 
z
" style="stroke: #ff4b44; stroke-opacity: 0.509091"/>
    </defs>
    <g clip-path="url(#pa12add0e54)">
     <use xlink:href="#m2a822264e9" x="0" y="337.40125" style="fill: #ff4b44; fill-opacity: 0.509091; stroke: #ff4b44; stroke-opacity: 0.509091"/>
    </g>
   </g>
   <g id="line2d_13">
    <path d="M 11.161285 99.9087 
L 16.734134 99.9087 
L 22.306983 99.9087 
L 27.879832 99.9087 
L 33.452681 99.9087 
L 39.02553 99.9087 
L 44.598379 99.9087 
L 50.171228 99.9087 
L 55.744077 99.9087 
L 61.316926 99.9087 
L 66.889775 99.9087 
L 72.462625 99.9087 
L 78.035474 99.9087 
L 83.608323 99.9087 
L 89.181172 99.9087 
L 94.754021 99.9087 
L 100.32687 99.9087 
L 105.899719 99.9087 
L 111.472568 99.9087 
L 117.045417 99.9087 
L 122.618266 99.9087 
L 128.191115 99.9087 
" clip-path="url(#pa12add0e54)" style="fill: none; stroke: #ff4b44; stroke-opacity: 0.509091; stroke-width: 1.5; stroke-linecap: square"/>
   </g>
   <g id="line2d_14">
    <path d="M 11.161285 99.9087 
L 16.734134 94.338002 
L 22.306983 77.625905 
L 27.879832 60.913809 
L 33.452681 99.9087 
L 39.02553 88.767303 
L 44.598379 99.9087 
L 50.171228 94.338002 
L 55.744077 99.9087 
L 61.316926 94.338002 
L 66.889775 94.338002 
L 72.462625 94.338002 
L 78.035474 99.9087 
L 83.608323 99.9087 
L 89.181172 99.9087 
L 94.754021 99.9087 
L 100.32687 99.9087 
L 105.899719 94.338002 
L 111.472568 99.9087 
L 117.045417 99.9087 
L 122.618266 94.338002 
L 128.191115 99.9087 
" clip-path="url(#pa12add0e54)" style="fill: none; stroke: #000000; stroke-opacity: 0.509091; stroke-width: 1.5; stroke-linecap: square"/>
   </g>
  </g>
  <g id="axes_6">
   <g id="FillBetweenPolyCollection_5">
    <defs>
     <path id="m31d23b86c5" d="M 9.332615 -226.087095 
L 9.332615 -226.087095 
L 15.206416 -226.087095 
L 21.080217 -226.087095 
L 26.954018 -226.087095 
L 32.827819 -226.087095 
L 38.70162 -226.087095 
L 44.575421 -226.087095 
L 50.449222 -226.087095 
L 56.323023 -226.087095 
L 62.196824 -226.087095 
L 68.070625 -226.087095 
L 73.944425 -226.087095 
L 79.818226 -226.087095 
L 85.692027 -226.087095 
L 91.565828 -226.087095 
L 97.439629 -226.087095 
L 103.31343 -226.087095 
L 109.187231 -226.087095 
L 115.061032 -226.087095 
L 120.934833 -226.087095 
L 126.808634 -226.087095 
L 132.682435 -226.087095 
L 132.682435 -226.087095 
L 132.682435 -226.087095 
L 126.808634 -237.228493 
L 120.934833 -226.087095 
L 115.061032 -226.087095 
L 109.187231 -226.087095 
L 103.31343 -226.087095 
L 97.439629 -226.087095 
L 91.565828 -226.087095 
L 85.692027 -226.087095 
L 79.818226 -226.087095 
L 73.944425 -226.087095 
L 68.070625 -237.228493 
L 62.196824 -231.657794 
L 56.323023 -231.657794 
L 50.449222 -226.087095 
L 44.575421 -226.087095 
L 38.70162 -231.657794 
L 32.827819 -237.228493 
L 26.954018 -259.511288 
L 21.080217 -242.799191 
L 15.206416 -237.228493 
L 9.332615 -226.087095 
z
" style="stroke: #ff4b44; stroke-opacity: 0.536364"/>
    </defs>
    <g clip-path="url(#p5b7681f6d0)">
     <use xlink:href="#m31d23b86c5" x="0" y="337.40125" style="fill: #ff4b44; fill-opacity: 0.536364; stroke: #ff4b44; stroke-opacity: 0.536364"/>
    </g>
   </g>
   <g id="line2d_15">
    <path d="M 9.332615 111.314155 
L 15.206416 111.314155 
L 21.080217 111.314155 
L 26.954018 111.314155 
L 32.827819 111.314155 
L 38.70162 111.314155 
L 44.575421 111.314155 
L 50.449222 111.314155 
L 56.323023 111.314155 
L 62.196824 111.314155 
L 68.070625 111.314155 
L 73.944425 111.314155 
L 79.818226 111.314155 
L 85.692027 111.314155 
L 91.565828 111.314155 
L 97.439629 111.314155 
L 103.31343 111.314155 
L 109.187231 111.314155 
L 115.061032 111.314155 
L 120.934833 111.314155 
L 126.808634 111.314155 
L 132.682435 111.314155 
" clip-path="url(#p5b7681f6d0)" style="fill: none; stroke: #ff4b44; stroke-opacity: 0.536364; stroke-width: 1.5; stroke-linecap: square"/>
   </g>
   <g id="line2d_16">
    <path d="M 9.332615 111.314155 
L 15.206416 100.172757 
L 21.080217 94.602059 
L 26.954018 77.889962 
L 32.827819 100.172757 
L 38.70162 105.743456 
L 44.575421 111.314155 
L 50.449222 111.314155 
L 56.323023 105.743456 
L 62.196824 105.743456 
L 68.070625 100.172757 
L 73.944425 111.314155 
L 79.818226 111.314155 
L 85.692027 111.314155 
L 91.565828 111.314155 
L 97.439629 111.314155 
L 103.31343 111.314155 
L 109.187231 111.314155 
L 115.061032 111.314155 
L 120.934833 111.314155 
L 126.808634 100.172757 
L 132.682435 111.314155 
" clip-path="url(#p5b7681f6d0)" style="fill: none; stroke: #000000; stroke-opacity: 0.536364; stroke-width: 1.5; stroke-linecap: square"/>
   </g>
  </g>
  <g id="axes_7">
   <g id="FillBetweenPolyCollection_6">
    <defs>
     <path id="m071590124b" d="M 6.48081 -214.681641 
L 6.48081 -214.681641 
L 13.71114 -214.681641 
L 20.94147 -214.681641 
L 28.1718 -214.681641 
L 35.40213 -214.681641 
L 42.63246 -214.681641 
L 49.86279 -214.681641 
L 57.09312 -214.681641 
L 64.32345 -214.681641 
L 71.55378 -214.681641 
L 78.78411 -214.681641 
L 86.01444 -214.681641 
L 93.24477 -214.681641 
L 100.4751 -214.681641 
L 107.70543 -214.681641 
L 114.93576 -214.681641 
L 122.16609 -214.681641 
L 129.39642 -214.681641 
L 136.62675 -214.681641 
L 143.85708 -214.681641 
L 151.08741 -214.681641 
L 158.31774 -214.681641 
L 158.31774 -214.681641 
L 158.31774 -214.681641 
L 151.08741 -220.252339 
L 143.85708 -214.681641 
L 136.62675 -214.681641 
L 129.39642 -220.252339 
L 122.16609 -214.681641 
L 114.93576 -214.681641 
L 107.70543 -214.681641 
L 100.4751 -214.681641 
L 93.24477 -214.681641 
L 86.01444 -214.681641 
L 78.78411 -214.681641 
L 71.55378 -220.252339 
L 64.32345 -225.823038 
L 57.09312 -214.681641 
L 49.86279 -220.252339 
L 42.63246 -214.681641 
L 35.40213 -220.252339 
L 28.1718 -253.676532 
L 20.94147 -236.964436 
L 13.71114 -225.823038 
L 6.48081 -214.681641 
z
" style="stroke: #ff4b44; stroke-opacity: 0.563636"/>
    </defs>
    <g clip-path="url(#pa8dab681fb)">
     <use xlink:href="#m071590124b" x="0" y="337.40125" style="fill: #ff4b44; fill-opacity: 0.563636; stroke: #ff4b44; stroke-opacity: 0.563636"/>
    </g>
   </g>
   <g id="line2d_17">
    <path d="M 6.48081 122.719609 
L 13.71114 122.719609 
L 20.94147 122.719609 
L 28.1718 122.719609 
L 35.40213 122.719609 
L 42.63246 122.719609 
L 49.86279 122.719609 
L 57.09312 122.719609 
L 64.32345 122.719609 
L 71.55378 122.719609 
L 78.78411 122.719609 
L 86.01444 122.719609 
L 93.24477 122.719609 
L 100.4751 122.719609 
L 107.70543 122.719609 
L 114.93576 122.719609 
L 122.16609 122.719609 
L 129.39642 122.719609 
L 136.62675 122.719609 
L 143.85708 122.719609 
L 151.08741 122.719609 
L 158.31774 122.719609 
" clip-path="url(#pa8dab681fb)" style="fill: none; stroke: #ff4b44; stroke-opacity: 0.563636; stroke-width: 1.5; stroke-linecap: square"/>
   </g>
   <g id="line2d_18">
    <path d="M 6.48081 122.719609 
L 13.71114 111.578212 
L 20.94147 100.436814 
L 28.1718 83.724718 
L 35.40213 117.148911 
L 42.63246 122.719609 
L 49.86279 117.148911 
L 57.09312 122.719609 
L 64.32345 111.578212 
L 71.55378 117.148911 
L 78.78411 122.719609 
L 86.01444 122.719609 
L 93.24477 122.719609 
L 100.4751 122.719609 
L 107.70543 122.719609 
L 114.93576 122.719609 
L 122.16609 122.719609 
L 129.39642 117.148911 
L 136.62675 122.719609 
L 143.85708 122.719609 
L 151.08741 117.148911 
L 158.31774 122.719609 
" clip-path="url(#pa8dab681fb)" style="fill: none; stroke: #000000; stroke-opacity: 0.563636; stroke-width: 1.5; stroke-linecap: square"/>
   </g>
  </g>
  <g id="axes_8">
   <g id="FillBetweenPolyCollection_7">
    <defs>
     <path id="mcc9d9d0234" d="M 6.140929 -203.276186 
L 6.140929 -203.276186 
L 14.634957 -203.276186 
L 23.128985 -203.276186 
L 31.623014 -203.276186 
L 40.117042 -203.276186 
L 48.61107 -203.276186 
L 57.105098 -203.276186 
L 65.599126 -203.276186 
L 74.093155 -203.276186 
L 82.587183 -203.276186 
L 91.081211 -203.276186 
L 99.575239 -203.276186 
L 108.069267 -203.276186 
L 116.563295 -203.276186 
L 125.057324 -203.276186 
L 133.551352 -203.276186 
L 142.04538 -203.276186 
L 150.539408 -203.276186 
L 159.033436 -203.276186 
L 167.527465 -203.276186 
L 176.021493 -203.276186 
L 184.515521 -203.276186 
L 184.515521 -203.276186 
L 184.515521 -203.276186 
L 176.021493 -208.846885 
L 167.527465 -203.276186 
L 159.033436 -203.276186 
L 150.539408 -208.846885 
L 142.04538 -203.276186 
L 133.551352 -203.276186 
L 125.057324 -203.276186 
L 116.563295 -203.276186 
L 108.069267 -203.276186 
L 99.575239 -203.276186 
L 91.081211 -203.276186 
L 82.587183 -203.276186 
L 74.093155 -203.276186 
L 65.599126 -203.276186 
L 57.105098 -225.558981 
L 48.61107 -203.276186 
L 40.117042 -208.846885 
L 31.623014 -214.417584 
L 23.128985 -258.983173 
L 14.634957 -208.846885 
L 6.140929 -203.276186 
z
" style="stroke: #ff4b44; stroke-opacity: 0.590909"/>
    </defs>
    <g clip-path="url(#p953adc4f98)">
     <use xlink:href="#mcc9d9d0234" x="0" y="337.40125" style="fill: #ff4b44; fill-opacity: 0.590909; stroke: #ff4b44; stroke-opacity: 0.590909"/>
    </g>
   </g>
   <g id="line2d_19">
    <path d="M 6.140929 134.125064 
L 14.634957 134.125064 
L 23.128985 134.125064 
L 31.623014 134.125064 
L 40.117042 134.125064 
L 48.61107 134.125064 
L 57.105098 134.125064 
L 65.599126 134.125064 
L 74.093155 134.125064 
L 82.587183 134.125064 
L 91.081211 134.125064 
L 99.575239 134.125064 
L 108.069267 134.125064 
L 116.563295 134.125064 
L 125.057324 134.125064 
L 133.551352 134.125064 
L 142.04538 134.125064 
L 150.539408 134.125064 
L 159.033436 134.125064 
L 167.527465 134.125064 
L 176.021493 134.125064 
L 184.515521 134.125064 
" clip-path="url(#p953adc4f98)" style="fill: none; stroke: #ff4b44; stroke-opacity: 0.590909; stroke-width: 1.5; stroke-linecap: square"/>
   </g>
   <g id="line2d_20">
    <path d="M 6.140929 134.125064 
L 14.634957 128.554365 
L 23.128985 78.418077 
L 31.623014 122.983666 
L 40.117042 128.554365 
L 48.61107 134.125064 
L 57.105098 111.842269 
L 65.599126 134.125064 
L 74.093155 134.125064 
L 82.587183 134.125064 
L 91.081211 134.125064 
L 99.575239 134.125064 
L 108.069267 134.125064 
L 116.563295 134.125064 
L 125.057324 134.125064 
L 133.551352 134.125064 
L 142.04538 134.125064 
L 150.539408 128.554365 
L 159.033436 134.125064 
L 167.527465 134.125064 
L 176.021493 128.554365 
L 184.515521 134.125064 
" clip-path="url(#p953adc4f98)" style="fill: none; stroke: #000000; stroke-opacity: 0.590909; stroke-width: 1.5; stroke-linecap: square"/>
   </g>
  </g>
  <g id="axes_9">
   <g id="FillBetweenPolyCollection_8">
    <defs>
     <path id="m9aa43620ae" d="M 6.710641 -191.870732 
L 6.710641 -191.870732 
L 15.364129 -191.870732 
L 24.017617 -191.870732 
L 32.671105 -191.870732 
L 41.324592 -191.870732 
L 49.97808 -191.870732 
L 58.631568 -191.870732 
L 67.285055 -191.870732 
L 75.938543 -191.870732 
L 84.592031 -191.870732 
L 93.245519 -191.870732 
L 101.899006 -191.870732 
L 110.552494 -191.870732 
L 119.205982 -191.870732 
L 127.85947 -191.870732 
L 136.512957 -191.870732 
L 145.166445 -191.870732 
L 153.819933 -191.870732 
L 162.47342 -191.870732 
L 171.126908 -191.870732 
L 179.780396 -191.870732 
L 188.433884 -191.870732 
L 188.433884 -191.870732 
L 188.433884 -191.870732 
L 179.780396 -197.44143 
L 171.126908 -191.870732 
L 162.47342 -191.870732 
L 153.819933 -197.44143 
L 145.166445 -191.870732 
L 136.512957 -191.870732 
L 127.85947 -191.870732 
L 119.205982 -191.870732 
L 110.552494 -191.870732 
L 101.899006 -191.870732 
L 93.245519 -191.870732 
L 84.592031 -191.870732 
L 75.938543 -191.870732 
L 67.285055 -197.44143 
L 58.631568 -197.44143 
L 49.97808 -197.44143 
L 41.324592 -208.582828 
L 32.671105 -197.44143 
L 24.017617 -236.436321 
L 15.364129 -208.582828 
L 6.710641 -191.870732 
z
" style="stroke: #ff4b44; stroke-opacity: 0.618182"/>
    </defs>
    <g clip-path="url(#pf021a9cd2f)">
     <use xlink:href="#m9aa43620ae" x="0" y="337.40125" style="fill: #ff4b44; fill-opacity: 0.618182; stroke: #ff4b44; stroke-opacity: 0.618182"/>
    </g>
   </g>
   <g id="line2d_21">
    <path d="M 6.710641 145.530518 
L 15.364129 145.530518 
L 24.017617 145.530518 
L 32.671105 145.530518 
L 41.324592 145.530518 
L 49.97808 145.530518 
L 58.631568 145.530518 
L 67.285055 145.530518 
L 75.938543 145.530518 
L 84.592031 145.530518 
L 93.245519 145.530518 
L 101.899006 145.530518 
L 110.552494 145.530518 
L 119.205982 145.530518 
L 127.85947 145.530518 
L 136.512957 145.530518 
L 145.166445 145.530518 
L 153.819933 145.530518 
L 162.47342 145.530518 
L 171.126908 145.530518 
L 179.780396 145.530518 
L 188.433884 145.530518 
" clip-path="url(#pf021a9cd2f)" style="fill: none; stroke: #ff4b44; stroke-opacity: 0.618182; stroke-width: 1.5; stroke-linecap: square"/>
   </g>
   <g id="line2d_22">
    <path d="M 6.710641 145.530518 
L 15.364129 128.818422 
L 24.017617 100.964929 
L 32.671105 139.95982 
L 41.324592 128.818422 
L 49.97808 139.95982 
L 58.631568 139.95982 
L 67.285055 139.95982 
L 75.938543 145.530518 
L 84.592031 145.530518 
L 93.245519 145.530518 
L 101.899006 145.530518 
L 110.552494 145.530518 
L 119.205982 145.530518 
L 127.85947 145.530518 
L 136.512957 145.530518 
L 145.166445 145.530518 
L 153.819933 139.95982 
L 162.47342 145.530518 
L 171.126908 145.530518 
L 179.780396 139.95982 
L 188.433884 145.530518 
" clip-path="url(#pf021a9cd2f)" style="fill: none; stroke: #000000; stroke-opacity: 0.618182; stroke-width: 1.5; stroke-linecap: square"/>
   </g>
  </g>
  <g id="axes_10">
   <g id="FillBetweenPolyCollection_9">
    <defs>
     <path id="m8275835d1b" d="M 6.91452 -180.465277 
L 6.91452 -180.465277 
L 15.11658 -180.465277 
L 23.31864 -180.465277 
L 31.5207 -180.465277 
L 39.72276 -180.465277 
L 47.92482 -180.465277 
L 56.12688 -180.465277 
L 64.32894 -180.465277 
L 72.531 -180.465277 
L 80.73306 -180.465277 
L 88.93512 -180.465277 
L 97.13718 -180.465277 
L 105.33924 -180.465277 
L 113.5413 -180.465277 
L 121.74336 -180.465277 
L 129.94542 -180.465277 
L 138.14748 -180.465277 
L 146.34954 -180.465277 
L 154.5516 -180.465277 
L 162.75366 -180.465277 
L 170.95572 -180.465277 
L 179.15778 -180.465277 
L 179.15778 -180.465277 
L 179.15778 -180.465277 
L 170.95572 -191.606674 
L 162.75366 -180.465277 
L 154.5516 -180.465277 
L 146.34954 -180.465277 
L 138.14748 -180.465277 
L 129.94542 -180.465277 
L 121.74336 -180.465277 
L 113.5413 -180.465277 
L 105.33924 -180.465277 
L 97.13718 -180.465277 
L 88.93512 -180.465277 
L 80.73306 -186.035976 
L 72.531 -180.465277 
L 64.32894 -180.465277 
L 56.12688 -186.035976 
L 47.92482 -186.035976 
L 39.72276 -197.177373 
L 31.5207 -180.465277 
L 23.31864 -236.172264 
L 15.11658 -191.606674 
L 6.91452 -180.465277 
z
" style="stroke: #ff4b44; stroke-opacity: 0.645455"/>
    </defs>
    <g clip-path="url(#pe296da650a)">
     <use xlink:href="#m8275835d1b" x="0" y="337.40125" style="fill: #ff4b44; fill-opacity: 0.645455; stroke: #ff4b44; stroke-opacity: 0.645455"/>
    </g>
   </g>
   <g id="line2d_23">
    <path d="M 6.91452 156.935973 
L 15.11658 156.935973 
L 23.31864 156.935973 
L 31.5207 156.935973 
L 39.72276 156.935973 
L 47.92482 156.935973 
L 56.12688 156.935973 
L 64.32894 156.935973 
L 72.531 156.935973 
L 80.73306 156.935973 
L 88.93512 156.935973 
L 97.13718 156.935973 
L 105.33924 156.935973 
L 113.5413 156.935973 
L 121.74336 156.935973 
L 129.94542 156.935973 
L 138.14748 156.935973 
L 146.34954 156.935973 
L 154.5516 156.935973 
L 162.75366 156.935973 
L 170.95572 156.935973 
L 179.15778 156.935973 
" clip-path="url(#pe296da650a)" style="fill: none; stroke: #ff4b44; stroke-opacity: 0.645455; stroke-width: 1.5; stroke-linecap: square"/>
   </g>
   <g id="line2d_24">
    <path d="M 6.91452 156.935973 
L 15.11658 145.794576 
L 23.31864 101.228986 
L 31.5207 156.935973 
L 39.72276 140.223877 
L 47.92482 151.365274 
L 56.12688 151.365274 
L 64.32894 156.935973 
L 72.531 156.935973 
L 80.73306 151.365274 
L 88.93512 156.935973 
L 97.13718 156.935973 
L 105.33924 156.935973 
L 113.5413 156.935973 
L 121.74336 156.935973 
L 129.94542 156.935973 
L 138.14748 156.935973 
L 146.34954 156.935973 
L 154.5516 156.935973 
L 162.75366 156.935973 
L 170.95572 145.794576 
L 179.15778 156.935973 
" clip-path="url(#pe296da650a)" style="fill: none; stroke: #000000; stroke-opacity: 0.645455; stroke-width: 1.5; stroke-linecap: square"/>
   </g>
  </g>
  <g id="axes_11">
   <g id="FillBetweenPolyCollection_10">
    <defs>
     <path id="m323be09535" d="M 5.220356 -169.059823 
L 5.220356 -169.059823 
L 14.209233 -169.059823 
L 23.19811 -169.059823 
L 32.186986 -169.059823 
L 41.175863 -169.059823 
L 50.16474 -169.059823 
L 59.153617 -169.059823 
L 68.142494 -169.059823 
L 77.13137 -169.059823 
L 86.120247 -169.059823 
L 95.109124 -169.059823 
L 104.098001 -169.059823 
L 113.086878 -169.059823 
L 122.075755 -169.059823 
L 131.064631 -169.059823 
L 140.053508 -169.059823 
L 149.042385 -169.059823 
L 158.031262 -169.059823 
L 167.020139 -169.059823 
L 176.009015 -169.059823 
L 184.997892 -169.059823 
L 193.986769 -169.059823 
L 193.986769 -169.059823 
L 193.986769 -169.059823 
L 184.997892 -174.630521 
L 176.009015 -169.059823 
L 167.020139 -174.630521 
L 158.031262 -169.059823 
L 149.042385 -169.059823 
L 140.053508 -169.059823 
L 131.064631 -169.059823 
L 122.075755 -169.059823 
L 113.086878 -169.059823 
L 104.098001 -169.059823 
L 95.109124 -174.630521 
L 86.120247 -169.059823 
L 77.13137 -169.059823 
L 68.142494 -169.059823 
L 59.153617 -174.630521 
L 50.16474 -174.630521 
L 41.175863 -180.20122 
L 32.186986 -174.630521 
L 23.19811 -224.76681 
L 14.209233 -180.20122 
L 5.220356 -169.059823 
z
" style="stroke: #ff4b44; stroke-opacity: 0.672727"/>
    </defs>
    <g clip-path="url(#p09a15997ef)">
     <use xlink:href="#m323be09535" x="0" y="337.40125" style="fill: #ff4b44; fill-opacity: 0.672727; stroke: #ff4b44; stroke-opacity: 0.672727"/>
    </g>
   </g>
   <g id="line2d_25">
    <path d="M 5.220356 168.341427 
L 14.209233 168.341427 
L 23.19811 168.341427 
L 32.186986 168.341427 
L 41.175863 168.341427 
L 50.16474 168.341427 
L 59.153617 168.341427 
L 68.142494 168.341427 
L 77.13137 168.341427 
L 86.120247 168.341427 
L 95.109124 168.341427 
L 104.098001 168.341427 
L 113.086878 168.341427 
L 122.075755 168.341427 
L 131.064631 168.341427 
L 140.053508 168.341427 
L 149.042385 168.341427 
L 158.031262 168.341427 
L 167.020139 168.341427 
L 176.009015 168.341427 
L 184.997892 168.341427 
L 193.986769 168.341427 
" clip-path="url(#p09a15997ef)" style="fill: none; stroke: #ff4b44; stroke-opacity: 0.672727; stroke-width: 1.5; stroke-linecap: square"/>
   </g>
   <g id="line2d_26">
    <path d="M 5.220356 168.341427 
L 14.209233 157.20003 
L 23.19811 112.63444 
L 32.186986 162.770729 
L 41.175863 157.20003 
L 50.16474 162.770729 
L 59.153617 162.770729 
L 68.142494 168.341427 
L 77.13137 168.341427 
L 86.120247 168.341427 
L 95.109124 162.770729 
L 104.098001 168.341427 
L 113.086878 168.341427 
L 122.075755 168.341427 
L 131.064631 168.341427 
L 140.053508 168.341427 
L 149.042385 168.341427 
L 158.031262 168.341427 
L 167.020139 162.770729 
L 176.009015 168.341427 
L 184.997892 162.770729 
L 193.986769 168.341427 
" clip-path="url(#p09a15997ef)" style="fill: none; stroke: #000000; stroke-opacity: 0.672727; stroke-width: 1.5; stroke-linecap: square"/>
   </g>
  </g>
  <g id="axes_12">
   <g id="FillBetweenPolyCollection_11">
    <defs>
     <path id="m40aba947bd" d="M 0.129878 -157.654368 
L 0.129878 -157.654368 
L 11.485195 -157.654368 
L 22.840511 -157.654368 
L 34.195827 -157.654368 
L 45.551144 -157.654368 
L 56.90646 -157.654368 
L 68.261776 -157.654368 
L 79.617093 -157.654368 
L 90.972409 -157.654368 
L 102.327725 -157.654368 
L 113.683042 -157.654368 
L 125.038358 -157.654368 
L 136.393675 -157.654368 
L 147.748991 -157.654368 
L 159.104307 -157.654368 
L 170.459624 -157.654368 
L 181.81494 -157.654368 
L 193.170256 -157.654368 
L 204.525573 -157.654368 
L 215.880889 -157.654368 
L 227.236205 -157.654368 
L 238.591522 -157.654368 
L 238.591522 -157.654368 
L 238.591522 -157.654368 
L 227.236205 -163.225067 
L 215.880889 -157.654368 
L 204.525573 -157.654368 
L 193.170256 -157.654368 
L 181.81494 -157.654368 
L 170.459624 -163.225067 
L 159.104307 -157.654368 
L 147.748991 -157.654368 
L 136.393675 -157.654368 
L 125.038358 -157.654368 
L 113.683042 -157.654368 
L 102.327725 -163.225067 
L 90.972409 -157.654368 
L 79.617093 -157.654368 
L 68.261776 -163.225067 
L 56.90646 -163.225067 
L 45.551144 -163.225067 
L 34.195827 -174.366464 
L 22.840511 -213.361355 
L 11.485195 -163.225067 
L 0.129878 -157.654368 
z
" style="stroke: #ff4b44; stroke-opacity: 0.7"/>
    </defs>
    <g clip-path="url(#p264d7b7dbc)">
     <use xlink:href="#m40aba947bd" x="0" y="337.40125" style="fill: #ff4b44; fill-opacity: 0.7; stroke: #ff4b44; stroke-opacity: 0.7"/>
    </g>
   </g>
   <g id="line2d_27">
    <path d="M 0.129878 179.746882 
L 11.485195 179.746882 
L 22.840511 179.746882 
L 34.195827 179.746882 
L 45.551144 179.746882 
L 56.90646 179.746882 
L 68.261776 179.746882 
L 79.617093 179.746882 
L 90.972409 179.746882 
L 102.327725 179.746882 
L 113.683042 179.746882 
L 125.038358 179.746882 
L 136.393675 179.746882 
L 147.748991 179.746882 
L 159.104307 179.746882 
L 170.459624 179.746882 
L 181.81494 179.746882 
L 193.170256 179.746882 
L 204.525573 179.746882 
L 215.880889 179.746882 
L 227.236205 179.746882 
L 238.591522 179.746882 
" clip-path="url(#p264d7b7dbc)" style="fill: none; stroke: #ff4b44; stroke-opacity: 0.7; stroke-width: 1.5; stroke-linecap: square"/>
   </g>
   <g id="line2d_28">
    <path d="M 0.129878 179.746882 
L 11.485195 174.176183 
L 22.840511 124.039895 
L 34.195827 163.034786 
L 45.551144 174.176183 
L 56.90646 174.176183 
L 68.261776 174.176183 
L 79.617093 179.746882 
L 90.972409 179.746882 
L 102.327725 174.176183 
L 113.683042 179.746882 
L 125.038358 179.746882 
L 136.393675 179.746882 
L 147.748991 179.746882 
L 159.104307 179.746882 
L 170.459624 174.176183 
L 181.81494 179.746882 
L 193.170256 179.746882 
L 204.525573 179.746882 
L 215.880889 179.746882 
L 227.236205 174.176183 
L 238.591522 179.746882 
" clip-path="url(#p264d7b7dbc)" style="fill: none; stroke: #000000; stroke-opacity: 0.7; stroke-width: 1.5; stroke-linecap: square"/>
   </g>
  </g>
  <g id="axes_13">
   <g id="FillBetweenPolyCollection_12">
    <defs>
     <path id="m723da6e8df" d="M 2.188129 -146.248913 
L 2.188129 -146.248913 
L 12.576207 -146.248913 
L 22.964285 -146.248913 
L 33.352364 -146.248913 
L 43.740442 -146.248913 
L 54.12852 -146.248913 
L 64.516598 -146.248913 
L 74.904676 -146.248913 
L 85.292755 -146.248913 
L 95.680833 -146.248913 
L 106.068911 -146.248913 
L 116.456989 -146.248913 
L 126.845067 -146.248913 
L 137.233145 -146.248913 
L 147.621224 -146.248913 
L 158.009302 -146.248913 
L 168.39738 -146.248913 
L 178.785458 -146.248913 
L 189.173536 -146.248913 
L 199.561615 -146.248913 
L 209.949693 -146.248913 
L 220.337771 -146.248913 
L 220.337771 -146.248913 
L 220.337771 -146.248913 
L 209.949693 -151.819612 
L 199.561615 -151.819612 
L 189.173536 -146.248913 
L 178.785458 -146.248913 
L 168.39738 -146.248913 
L 158.009302 -146.248913 
L 147.621224 -146.248913 
L 137.233145 -146.248913 
L 126.845067 -151.819612 
L 116.456989 -146.248913 
L 106.068911 -146.248913 
L 95.680833 -146.248913 
L 85.292755 -146.248913 
L 74.904676 -157.390311 
L 64.516598 -146.248913 
L 54.12852 -146.248913 
L 43.740442 -162.96101 
L 33.352364 -157.390311 
L 22.964285 -196.385202 
L 12.576207 -151.819612 
L 2.188129 -146.248913 
z
" style="stroke: #ff4b44; stroke-opacity: 0.727273"/>
    </defs>
    <g clip-path="url(#p008a387b06)">
     <use xlink:href="#m723da6e8df" x="0" y="337.40125" style="fill: #ff4b44; fill-opacity: 0.727273; stroke: #ff4b44; stroke-opacity: 0.727273"/>
    </g>
   </g>
   <g id="line2d_29">
    <path d="M 2.188129 191.152337 
L 12.576207 191.152337 
L 22.964285 191.152337 
L 33.352364 191.152337 
L 43.740442 191.152337 
L 54.12852 191.152337 
L 64.516598 191.152337 
L 74.904676 191.152337 
L 85.292755 191.152337 
L 95.680833 191.152337 
L 106.068911 191.152337 
L 116.456989 191.152337 
L 126.845067 191.152337 
L 137.233145 191.152337 
L 147.621224 191.152337 
L 158.009302 191.152337 
L 168.39738 191.152337 
L 178.785458 191.152337 
L 189.173536 191.152337 
L 199.561615 191.152337 
L 209.949693 191.152337 
L 220.337771 191.152337 
" clip-path="url(#p008a387b06)" style="fill: none; stroke: #ff4b44; stroke-opacity: 0.727273; stroke-width: 1.5; stroke-linecap: square"/>
   </g>
   <g id="line2d_30">
    <path d="M 2.188129 191.152337 
L 12.576207 185.581638 
L 22.964285 141.016048 
L 33.352364 180.010939 
L 43.740442 174.44024 
L 54.12852 191.152337 
L 64.516598 191.152337 
L 74.904676 180.010939 
L 85.292755 191.152337 
L 95.680833 191.152337 
L 106.068911 191.152337 
L 116.456989 191.152337 
L 126.845067 185.581638 
L 137.233145 191.152337 
L 147.621224 191.152337 
L 158.009302 191.152337 
L 168.39738 191.152337 
L 178.785458 191.152337 
L 189.173536 191.152337 
L 199.561615 185.581638 
L 209.949693 185.581638 
L 220.337771 191.152337 
" clip-path="url(#p008a387b06)" style="fill: none; stroke: #000000; stroke-opacity: 0.727273; stroke-width: 1.5; stroke-linecap: square"/>
   </g>
  </g>
  <g id="axes_14">
   <g id="FillBetweenPolyCollection_13">
    <defs>
     <path id="m045407e588" d="M 3.803686 -134.843459 
L 3.803686 -134.843459 
L 15.182959 -134.843459 
L 26.562232 -134.843459 
L 37.941505 -134.843459 
L 49.320777 -134.843459 
L 60.70005 -134.843459 
L 72.079323 -134.843459 
L 83.458595 -134.843459 
L 94.837868 -134.843459 
L 106.217141 -134.843459 
L 117.596414 -134.843459 
L 128.975686 -134.843459 
L 140.354959 -134.843459 
L 151.734232 -134.843459 
L 163.113505 -134.843459 
L 174.492777 -134.843459 
L 185.87205 -134.843459 
L 197.251323 -134.843459 
L 208.630595 -134.843459 
L 220.009868 -134.843459 
L 231.389141 -134.843459 
L 242.768414 -134.843459 
L 242.768414 -134.843459 
L 242.768414 -134.843459 
L 231.389141 -140.414158 
L 220.009868 -140.414158 
L 208.630595 -134.843459 
L 197.251323 -134.843459 
L 185.87205 -134.843459 
L 174.492777 -134.843459 
L 163.113505 -134.843459 
L 151.734232 -140.414158 
L 140.354959 -134.843459 
L 128.975686 -134.843459 
L 117.596414 -134.843459 
L 106.217141 -134.843459 
L 94.837868 -134.843459 
L 83.458595 -145.984856 
L 72.079323 -134.843459 
L 60.70005 -140.414158 
L 49.320777 -145.984856 
L 37.941505 -145.984856 
L 26.562232 -179.409049 
L 15.182959 -145.984856 
L 3.803686 -134.843459 
z
" style="stroke: #ff4b44; stroke-opacity: 0.754545"/>
    </defs>
    <g clip-path="url(#pee9cba69a4)">
     <use xlink:href="#m045407e588" x="0" y="337.40125" style="fill: #ff4b44; fill-opacity: 0.754545; stroke: #ff4b44; stroke-opacity: 0.754545"/>
    </g>
   </g>
   <g id="line2d_31">
    <path d="M 3.803686 202.557791 
L 15.182959 202.557791 
L 26.562232 202.557791 
L 37.941505 202.557791 
L 49.320777 202.557791 
L 60.70005 202.557791 
L 72.079323 202.557791 
L 83.458595 202.557791 
L 94.837868 202.557791 
L 106.217141 202.557791 
L 117.596414 202.557791 
L 128.975686 202.557791 
L 140.354959 202.557791 
L 151.734232 202.557791 
L 163.113505 202.557791 
L 174.492777 202.557791 
L 185.87205 202.557791 
L 197.251323 202.557791 
L 208.630595 202.557791 
L 220.009868 202.557791 
L 231.389141 202.557791 
L 242.768414 202.557791 
" clip-path="url(#pee9cba69a4)" style="fill: none; stroke: #ff4b44; stroke-opacity: 0.754545; stroke-width: 1.5; stroke-linecap: square"/>
   </g>
   <g id="line2d_32">
    <path d="M 3.803686 202.557791 
L 15.182959 191.416394 
L 26.562232 157.992201 
L 37.941505 191.416394 
L 49.320777 191.416394 
L 60.70005 196.987092 
L 72.079323 202.557791 
L 83.458595 191.416394 
L 94.837868 202.557791 
L 106.217141 202.557791 
L 117.596414 202.557791 
L 128.975686 202.557791 
L 140.354959 202.557791 
L 151.734232 196.987092 
L 163.113505 202.557791 
L 174.492777 202.557791 
L 185.87205 202.557791 
L 197.251323 202.557791 
L 208.630595 202.557791 
L 220.009868 196.987092 
L 231.389141 196.987092 
L 242.768414 202.557791 
" clip-path="url(#pee9cba69a4)" style="fill: none; stroke: #000000; stroke-opacity: 0.754545; stroke-width: 1.5; stroke-linecap: square"/>
   </g>
  </g>
  <g id="axes_15">
   <g id="FillBetweenPolyCollection_14">
    <defs>
     <path id="m416e4aa2c8" d="M 1.694029 -123.438004 
L 1.694029 -123.438004 
L 17.187807 -123.438004 
L 32.681585 -123.438004 
L 48.175364 -123.438004 
L 63.669142 -123.438004 
L 79.16292 -123.438004 
L 94.656698 -123.438004 
L 110.150476 -123.438004 
L 125.644255 -123.438004 
L 141.138033 -123.438004 
L 156.631811 -123.438004 
L 172.125589 -123.438004 
L 187.619367 -123.438004 
L 203.113145 -123.438004 
L 218.606924 -123.438004 
L 234.100702 -123.438004 
L 249.59448 -123.438004 
L 265.088258 -123.438004 
L 280.582036 -123.438004 
L 296.075815 -123.438004 
L 311.569593 -123.438004 
L 327.063371 -123.438004 
L 327.063371 -123.438004 
L 327.063371 -123.438004 
L 311.569593 -129.008703 
L 296.075815 -123.438004 
L 280.582036 -123.438004 
L 265.088258 -129.008703 
L 249.59448 -123.438004 
L 234.100702 -123.438004 
L 218.606924 -123.438004 
L 203.113145 -129.008703 
L 187.619367 -123.438004 
L 172.125589 -123.438004 
L 156.631811 -123.438004 
L 141.138033 -123.438004 
L 125.644255 -123.438004 
L 110.150476 -129.008703 
L 94.656698 -123.438004 
L 79.16292 -134.579402 
L 63.669142 -134.579402 
L 48.175364 -134.579402 
L 32.681585 -156.862197 
L 17.187807 -145.720799 
L 1.694029 -123.438004 
z
" style="stroke: #ff4b44; stroke-opacity: 0.781818"/>
    </defs>
    <g clip-path="url(#p655760557b)">
     <use xlink:href="#m416e4aa2c8" x="0" y="337.40125" style="fill: #ff4b44; fill-opacity: 0.781818; stroke: #ff4b44; stroke-opacity: 0.781818"/>
    </g>
   </g>
   <g id="line2d_33">
    <path d="M 1.694029 213.963246 
L 17.187807 213.963246 
L 32.681585 213.963246 
L 48.175364 213.963246 
L 63.669142 213.963246 
L 79.16292 213.963246 
L 94.656698 213.963246 
L 110.150476 213.963246 
L 125.644255 213.963246 
L 141.138033 213.963246 
L 156.631811 213.963246 
L 172.125589 213.963246 
L 187.619367 213.963246 
L 203.113145 213.963246 
L 218.606924 213.963246 
L 234.100702 213.963246 
L 249.59448 213.963246 
L 265.088258 213.963246 
L 280.582036 213.963246 
L 296.075815 213.963246 
L 311.569593 213.963246 
L 327.063371 213.963246 
" clip-path="url(#p655760557b)" style="fill: none; stroke: #ff4b44; stroke-opacity: 0.781818; stroke-width: 1.5; stroke-linecap: square"/>
   </g>
   <g id="line2d_34">
    <path d="M 1.694029 213.963246 
L 17.187807 191.680451 
L 32.681585 180.539053 
L 48.175364 202.821848 
L 63.669142 202.821848 
L 79.16292 202.821848 
L 94.656698 213.963246 
L 110.150476 208.392547 
L 125.644255 213.963246 
L 141.138033 213.963246 
L 156.631811 213.963246 
L 172.125589 213.963246 
L 187.619367 213.963246 
L 203.113145 208.392547 
L 218.606924 213.963246 
L 234.100702 213.963246 
L 249.59448 213.963246 
L 265.088258 208.392547 
L 280.582036 213.963246 
L 296.075815 213.963246 
L 311.569593 208.392547 
L 327.063371 213.963246 
" clip-path="url(#p655760557b)" style="fill: none; stroke: #000000; stroke-opacity: 0.781818; stroke-width: 1.5; stroke-linecap: square"/>
   </g>
  </g>
  <g id="axes_16">
   <g id="FillBetweenPolyCollection_15">
    <defs>
     <path id="m94a1e9d113" d="M 2.122249 -112.03255 
L 2.122249 -112.03255 
L 18.571287 -112.03255 
L 35.020325 -112.03255 
L 51.469364 -112.03255 
L 67.918402 -112.03255 
L 84.36744 -112.03255 
L 100.816478 -112.03255 
L 117.265516 -112.03255 
L 133.714555 -112.03255 
L 150.163593 -112.03255 
L 166.612631 -112.03255 
L 183.061669 -112.03255 
L 199.510707 -112.03255 
L 215.959745 -112.03255 
L 232.408784 -112.03255 
L 248.857822 -112.03255 
L 265.30686 -112.03255 
L 281.755898 -112.03255 
L 298.204936 -112.03255 
L 314.653975 -112.03255 
L 331.103013 -112.03255 
L 347.552051 -112.03255 
L 347.552051 -112.03255 
L 347.552051 -112.03255 
L 331.103013 -117.603248 
L 314.653975 -112.03255 
L 298.204936 -112.03255 
L 281.755898 -112.03255 
L 265.30686 -117.603248 
L 248.857822 -117.603248 
L 232.408784 -112.03255 
L 215.959745 -112.03255 
L 199.510707 -112.03255 
L 183.061669 -112.03255 
L 166.612631 -112.03255 
L 150.163593 -117.603248 
L 133.714555 -112.03255 
L 117.265516 -112.03255 
L 100.816478 -112.03255 
L 84.36744 -128.744646 
L 67.918402 -128.744646 
L 51.469364 -123.173947 
L 35.020325 -151.027441 
L 18.571287 -117.603248 
L 2.122249 -112.03255 
z
" style="stroke: #ff4b44; stroke-opacity: 0.809091"/>
    </defs>
    <g clip-path="url(#pc458506975)">
     <use xlink:href="#m94a1e9d113" x="0" y="337.40125" style="fill: #ff4b44; fill-opacity: 0.809091; stroke: #ff4b44; stroke-opacity: 0.809091"/>
    </g>
   </g>
   <g id="line2d_35">
    <path d="M 2.122249 225.3687 
L 18.571287 225.3687 
L 35.020325 225.3687 
L 51.469364 225.3687 
L 67.918402 225.3687 
L 84.36744 225.3687 
L 100.816478 225.3687 
L 117.265516 225.3687 
L 133.714555 225.3687 
L 150.163593 225.3687 
L 166.612631 225.3687 
L 183.061669 225.3687 
L 199.510707 225.3687 
L 215.959745 225.3687 
L 232.408784 225.3687 
L 248.857822 225.3687 
L 265.30686 225.3687 
L 281.755898 225.3687 
L 298.204936 225.3687 
L 314.653975 225.3687 
L 331.103013 225.3687 
L 347.552051 225.3687 
" clip-path="url(#pc458506975)" style="fill: none; stroke: #ff4b44; stroke-opacity: 0.809091; stroke-width: 1.5; stroke-linecap: square"/>
   </g>
   <g id="line2d_36">
    <path d="M 2.122249 225.3687 
L 18.571287 219.798002 
L 35.020325 186.373809 
L 51.469364 214.227303 
L 67.918402 208.656604 
L 84.36744 208.656604 
L 100.816478 225.3687 
L 117.265516 225.3687 
L 133.714555 225.3687 
L 150.163593 219.798002 
L 166.612631 225.3687 
L 183.061669 225.3687 
L 199.510707 225.3687 
L 215.959745 225.3687 
L 232.408784 225.3687 
L 248.857822 219.798002 
L 265.30686 219.798002 
L 281.755898 225.3687 
L 298.204936 225.3687 
L 314.653975 225.3687 
L 331.103013 219.798002 
L 347.552051 225.3687 
" clip-path="url(#pc458506975)" style="fill: none; stroke: #000000; stroke-opacity: 0.809091; stroke-width: 1.5; stroke-linecap: square"/>
   </g>
  </g>
  <g id="axes_17">
   <g id="FillBetweenPolyCollection_16">
    <defs>
     <path id="m80b3db3ac9" d="M 4.455649 -100.627095 
L 4.455649 -100.627095 
L 17.579693 -100.627095 
L 30.703738 -100.627095 
L 43.827783 -100.627095 
L 56.951827 -100.627095 
L 70.075872 -100.627095 
L 83.199917 -100.627095 
L 96.323961 -100.627095 
L 109.448006 -100.627095 
L 122.572051 -100.627095 
L 135.696095 -100.627095 
L 148.82014 -100.627095 
L 161.944184 -100.627095 
L 175.068229 -100.627095 
L 188.192274 -100.627095 
L 201.316318 -100.627095 
L 214.440363 -100.627095 
L 227.564408 -100.627095 
L 240.688452 -100.627095 
L 253.812497 -100.627095 
L 266.936542 -100.627095 
L 280.060586 -100.627095 
L 280.060586 -100.627095 
L 280.060586 -100.627095 
L 266.936542 -106.197794 
L 253.812497 -106.197794 
L 240.688452 -100.627095 
L 227.564408 -100.627095 
L 214.440363 -100.627095 
L 201.316318 -106.197794 
L 188.192274 -100.627095 
L 175.068229 -100.627095 
L 161.944184 -100.627095 
L 148.82014 -100.627095 
L 135.696095 -100.627095 
L 122.572051 -106.197794 
L 109.448006 -100.627095 
L 96.323961 -106.197794 
L 83.199917 -106.197794 
L 70.075872 -117.339191 
L 56.951827 -111.768493 
L 43.827783 -111.768493 
L 30.703738 -128.480589 
L 17.579693 -111.768493 
L 4.455649 -100.627095 
z
" style="stroke: #ff4b44; stroke-opacity: 0.836364"/>
    </defs>
    <g clip-path="url(#p423b275a19)">
     <use xlink:href="#m80b3db3ac9" x="0" y="337.40125" style="fill: #ff4b44; fill-opacity: 0.836364; stroke: #ff4b44; stroke-opacity: 0.836364"/>
    </g>
   </g>
   <g id="line2d_37">
    <path d="M 4.455649 236.774155 
L 17.579693 236.774155 
L 30.703738 236.774155 
L 43.827783 236.774155 
L 56.951827 236.774155 
L 70.075872 236.774155 
L 83.199917 236.774155 
L 96.323961 236.774155 
L 109.448006 236.774155 
L 122.572051 236.774155 
L 135.696095 236.774155 
L 148.82014 236.774155 
L 161.944184 236.774155 
L 175.068229 236.774155 
L 188.192274 236.774155 
L 201.316318 236.774155 
L 214.440363 236.774155 
L 227.564408 236.774155 
L 240.688452 236.774155 
L 253.812497 236.774155 
L 266.936542 236.774155 
L 280.060586 236.774155 
" clip-path="url(#p423b275a19)" style="fill: none; stroke: #ff4b44; stroke-opacity: 0.836364; stroke-width: 1.5; stroke-linecap: square"/>
   </g>
   <g id="line2d_38">
    <path d="M 4.455649 236.774155 
L 17.579693 225.632757 
L 30.703738 208.920661 
L 43.827783 225.632757 
L 56.951827 225.632757 
L 70.075872 220.062059 
L 83.199917 231.203456 
L 96.323961 231.203456 
L 109.448006 236.774155 
L 122.572051 231.203456 
L 135.696095 236.774155 
L 148.82014 236.774155 
L 161.944184 236.774155 
L 175.068229 236.774155 
L 188.192274 236.774155 
L 201.316318 231.203456 
L 214.440363 236.774155 
L 227.564408 236.774155 
L 240.688452 236.774155 
L 253.812497 231.203456 
L 266.936542 231.203456 
L 280.060586 236.774155 
" clip-path="url(#p423b275a19)" style="fill: none; stroke: #000000; stroke-opacity: 0.836364; stroke-width: 1.5; stroke-linecap: square"/>
   </g>
  </g>
  <g id="axes_18">
   <g id="FillBetweenPolyCollection_17">
    <defs>
     <path id="m49449ecdad" d="M 4.401847 -89.221641 
L 4.401847 -89.221641 
L 15.898655 -89.221641 
L 27.395464 -89.221641 
L 38.892273 -89.221641 
L 50.389081 -89.221641 
L 61.88589 -89.221641 
L 73.382699 -89.221641 
L 84.879507 -89.221641 
L 96.376316 -89.221641 
L 107.873125 -89.221641 
L 119.369933 -89.221641 
L 130.866742 -89.221641 
L 142.36355 -89.221641 
L 153.860359 -89.221641 
L 165.357168 -89.221641 
L 176.853976 -89.221641 
L 188.350785 -89.221641 
L 199.847594 -89.221641 
L 211.344402 -89.221641 
L 222.841211 -89.221641 
L 234.33802 -89.221641 
L 245.834828 -89.221641 
L 245.834828 -89.221641 
L 245.834828 -89.221641 
L 234.33802 -94.792339 
L 222.841211 -100.363038 
L 211.344402 -89.221641 
L 199.847594 -89.221641 
L 188.350785 -89.221641 
L 176.853976 -89.221641 
L 165.357168 -89.221641 
L 153.860359 -89.221641 
L 142.36355 -89.221641 
L 130.866742 -89.221641 
L 119.369933 -100.363038 
L 107.873125 -89.221641 
L 96.376316 -89.221641 
L 84.879507 -100.363038 
L 73.382699 -89.221641 
L 61.88589 -100.363038 
L 50.389081 -100.363038 
L 38.892273 -105.933737 
L 27.395464 -111.504436 
L 15.898655 -100.363038 
L 4.401847 -89.221641 
z
" style="stroke: #ff4b44; stroke-opacity: 0.863636"/>
    </defs>
    <g clip-path="url(#pce281c1721)">
     <use xlink:href="#m49449ecdad" x="0" y="337.40125" style="fill: #ff4b44; fill-opacity: 0.863636; stroke: #ff4b44; stroke-opacity: 0.863636"/>
    </g>
   </g>
   <g id="line2d_39">
    <path d="M 4.401847 248.179609 
L 15.898655 248.179609 
L 27.395464 248.179609 
L 38.892273 248.179609 
L 50.389081 248.179609 
L 61.88589 248.179609 
L 73.382699 248.179609 
L 84.879507 248.179609 
L 96.376316 248.179609 
L 107.873125 248.179609 
L 119.369933 248.179609 
L 130.866742 248.179609 
L 142.36355 248.179609 
L 153.860359 248.179609 
L 165.357168 248.179609 
L 176.853976 248.179609 
L 188.350785 248.179609 
L 199.847594 248.179609 
L 211.344402 248.179609 
L 222.841211 248.179609 
L 234.33802 248.179609 
L 245.834828 248.179609 
" clip-path="url(#pce281c1721)" style="fill: none; stroke: #ff4b44; stroke-opacity: 0.863636; stroke-width: 1.5; stroke-linecap: square"/>
   </g>
   <g id="line2d_40">
    <path d="M 4.401847 248.179609 
L 15.898655 237.038212 
L 27.395464 225.896814 
L 38.892273 231.467513 
L 50.389081 237.038212 
L 61.88589 237.038212 
L 73.382699 248.179609 
L 84.879507 237.038212 
L 96.376316 248.179609 
L 107.873125 248.179609 
L 119.369933 237.038212 
L 130.866742 248.179609 
L 142.36355 248.179609 
L 153.860359 248.179609 
L 165.357168 248.179609 
L 176.853976 248.179609 
L 188.350785 248.179609 
L 199.847594 248.179609 
L 211.344402 248.179609 
L 222.841211 237.038212 
L 234.33802 242.608911 
L 245.834828 248.179609 
" clip-path="url(#pce281c1721)" style="fill: none; stroke: #000000; stroke-opacity: 0.863636; stroke-width: 1.5; stroke-linecap: square"/>
   </g>
  </g>
  <g id="axes_19">
   <g id="FillBetweenPolyCollection_18">
    <defs>
     <path id="m87ae168dff" d="M 11.056226 -77.816186 
L 11.056226 -77.816186 
L 21.617988 -77.816186 
L 32.17975 -77.816186 
L 42.741511 -77.816186 
L 53.303273 -77.816186 
L 63.865035 -77.816186 
L 74.426797 -77.816186 
L 84.988559 -77.816186 
L 95.55032 -77.816186 
L 106.112082 -77.816186 
L 116.673844 -77.816186 
L 127.235606 -77.816186 
L 137.797368 -77.816186 
L 148.35913 -77.816186 
L 158.920891 -77.816186 
L 169.482653 -77.816186 
L 180.044415 -77.816186 
L 190.606177 -77.816186 
L 201.167939 -77.816186 
L 211.7297 -77.816186 
L 222.291462 -77.816186 
L 232.853224 -77.816186 
L 232.853224 -77.816186 
L 232.853224 -77.816186 
L 222.291462 -83.386885 
L 211.7297 -83.386885 
L 201.167939 -77.816186 
L 190.606177 -83.386885 
L 180.044415 -77.816186 
L 169.482653 -77.816186 
L 158.920891 -77.816186 
L 148.35913 -77.816186 
L 137.797368 -77.816186 
L 127.235606 -77.816186 
L 116.673844 -88.957584 
L 106.112082 -83.386885 
L 95.55032 -83.386885 
L 84.988559 -77.816186 
L 74.426797 -88.957584 
L 63.865035 -83.386885 
L 53.303273 -77.816186 
L 42.741511 -88.957584 
L 32.17975 -105.66968 
L 21.617988 -94.528282 
L 11.056226 -77.816186 
z
" style="stroke: #ff4b44; stroke-opacity: 0.890909"/>
    </defs>
    <g clip-path="url(#p5eea02b4e3)">
     <use xlink:href="#m87ae168dff" x="0" y="337.40125" style="fill: #ff4b44; fill-opacity: 0.890909; stroke: #ff4b44; stroke-opacity: 0.890909"/>
    </g>
   </g>
   <g id="line2d_41">
    <path d="M 11.056226 259.585064 
L 21.617988 259.585064 
L 32.17975 259.585064 
L 42.741511 259.585064 
L 53.303273 259.585064 
L 63.865035 259.585064 
L 74.426797 259.585064 
L 84.988559 259.585064 
L 95.55032 259.585064 
L 106.112082 259.585064 
L 116.673844 259.585064 
L 127.235606 259.585064 
L 137.797368 259.585064 
L 148.35913 259.585064 
L 158.920891 259.585064 
L 169.482653 259.585064 
L 180.044415 259.585064 
L 190.606177 259.585064 
L 201.167939 259.585064 
L 211.7297 259.585064 
L 222.291462 259.585064 
L 232.853224 259.585064 
" clip-path="url(#p5eea02b4e3)" style="fill: none; stroke: #ff4b44; stroke-opacity: 0.890909; stroke-width: 1.5; stroke-linecap: square"/>
   </g>
   <g id="line2d_42">
    <path d="M 11.056226 259.585064 
L 21.617988 242.872968 
L 32.17975 231.73157 
L 42.741511 248.443666 
L 53.303273 259.585064 
L 63.865035 254.014365 
L 74.426797 248.443666 
L 84.988559 259.585064 
L 95.55032 254.014365 
L 106.112082 254.014365 
L 116.673844 248.443666 
L 127.235606 259.585064 
L 137.797368 259.585064 
L 148.35913 259.585064 
L 158.920891 259.585064 
L 169.482653 259.585064 
L 180.044415 259.585064 
L 190.606177 254.014365 
L 201.167939 259.585064 
L 211.7297 254.014365 
L 222.291462 254.014365 
L 232.853224 259.585064 
" clip-path="url(#p5eea02b4e3)" style="fill: none; stroke: #000000; stroke-opacity: 0.890909; stroke-width: 1.5; stroke-linecap: square"/>
   </g>
  </g>
  <g id="axes_20">
   <g id="FillBetweenPolyCollection_19">
    <defs>
     <path id="m6f126b884e" d="M 8.081395 -66.410732 
L 8.081395 -66.410732 
L 20.925749 -66.410732 
L 33.770103 -66.410732 
L 46.614457 -66.410732 
L 59.458811 -66.410732 
L 72.303165 -66.410732 
L 85.147519 -66.410732 
L 97.991873 -66.410732 
L 110.836227 -66.410732 
L 123.680581 -66.410732 
L 136.524935 -66.410732 
L 149.36929 -66.410732 
L 162.213644 -66.410732 
L 175.057998 -66.410732 
L 187.902352 -66.410732 
L 200.746706 -66.410732 
L 213.59106 -66.410732 
L 226.435414 -66.410732 
L 239.279768 -66.410732 
L 252.124122 -66.410732 
L 264.968476 -66.410732 
L 277.81283 -66.410732 
L 277.81283 -66.410732 
L 277.81283 -66.410732 
L 264.968476 -71.98143 
L 252.124122 -66.410732 
L 239.279768 -71.98143 
L 226.435414 -66.410732 
L 213.59106 -66.410732 
L 200.746706 -66.410732 
L 187.902352 -66.410732 
L 175.057998 -66.410732 
L 162.213644 -66.410732 
L 149.36929 -71.98143 
L 136.524935 -66.410732 
L 123.680581 -71.98143 
L 110.836227 -71.98143 
L 97.991873 -66.410732 
L 85.147519 -66.410732 
L 72.303165 -88.693526 
L 59.458811 -66.410732 
L 46.614457 -83.122828 
L 33.770103 -99.834924 
L 20.925749 -77.552129 
L 8.081395 -66.410732 
z
" style="stroke: #ff4b44; stroke-opacity: 0.918182"/>
    </defs>
    <g clip-path="url(#p406ef7f547)">
     <use xlink:href="#m6f126b884e" x="0" y="337.40125" style="fill: #ff4b44; fill-opacity: 0.918182; stroke: #ff4b44; stroke-opacity: 0.918182"/>
    </g>
   </g>
   <g id="line2d_43">
    <path d="M 8.081395 270.990518 
L 20.925749 270.990518 
L 33.770103 270.990518 
L 46.614457 270.990518 
L 59.458811 270.990518 
L 72.303165 270.990518 
L 85.147519 270.990518 
L 97.991873 270.990518 
L 110.836227 270.990518 
L 123.680581 270.990518 
L 136.524935 270.990518 
L 149.36929 270.990518 
L 162.213644 270.990518 
L 175.057998 270.990518 
L 187.902352 270.990518 
L 200.746706 270.990518 
L 213.59106 270.990518 
L 226.435414 270.990518 
L 239.279768 270.990518 
L 252.124122 270.990518 
L 264.968476 270.990518 
L 277.81283 270.990518 
" clip-path="url(#p406ef7f547)" style="fill: none; stroke: #ff4b44; stroke-opacity: 0.918182; stroke-width: 1.5; stroke-linecap: square"/>
   </g>
   <g id="line2d_44">
    <path d="M 8.081395 270.990518 
L 20.925749 259.849121 
L 33.770103 237.566326 
L 46.614457 254.278422 
L 59.458811 270.990518 
L 72.303165 248.707724 
L 85.147519 270.990518 
L 97.991873 270.990518 
L 110.836227 265.41982 
L 123.680581 265.41982 
L 136.524935 270.990518 
L 149.36929 265.41982 
L 162.213644 270.990518 
L 175.057998 270.990518 
L 187.902352 270.990518 
L 200.746706 270.990518 
L 213.59106 270.990518 
L 226.435414 270.990518 
L 239.279768 265.41982 
L 252.124122 270.990518 
L 264.968476 265.41982 
L 277.81283 270.990518 
" clip-path="url(#p406ef7f547)" style="fill: none; stroke: #000000; stroke-opacity: 0.918182; stroke-width: 1.5; stroke-linecap: square"/>
   </g>
  </g>
  <g id="axes_21">
   <g id="FillBetweenPolyCollection_20">
    <defs>
     <path id="mba51f56e8e" d="M 2.315397 -55.005277 
L 2.315397 -55.005277 
L 18.475462 -55.005277 
L 34.635526 -55.005277 
L 50.795591 -55.005277 
L 66.955655 -55.005277 
L 83.11572 -55.005277 
L 99.275785 -55.005277 
L 115.435849 -55.005277 
L 131.595914 -55.005277 
L 147.755978 -55.005277 
L 163.916043 -55.005277 
L 180.076107 -55.005277 
L 196.236172 -55.005277 
L 212.396236 -55.005277 
L 228.556301 -55.005277 
L 244.716365 -55.005277 
L 260.87643 -55.005277 
L 277.036495 -55.005277 
L 293.196559 -55.005277 
L 309.356624 -55.005277 
L 325.516688 -55.005277 
L 341.676753 -55.005277 
L 341.676753 -55.005277 
L 341.676753 -55.005277 
L 325.516688 -60.575976 
L 309.356624 -55.005277 
L 293.196559 -55.005277 
L 277.036495 -55.005277 
L 260.87643 -60.575976 
L 244.716365 -55.005277 
L 228.556301 -55.005277 
L 212.396236 -55.005277 
L 196.236172 -55.005277 
L 180.076107 -55.005277 
L 163.916043 -55.005277 
L 147.755978 -60.575976 
L 131.595914 -60.575976 
L 115.435849 -55.005277 
L 99.275785 -55.005277 
L 83.11572 -71.717373 
L 66.955655 -71.717373 
L 50.795591 -71.717373 
L 34.635526 -82.858771 
L 18.475462 -66.146674 
L 2.315397 -55.005277 
z
" style="stroke: #ff4b44; stroke-opacity: 0.945455"/>
    </defs>
    <g clip-path="url(#p5f2eb9a0c4)">
     <use xlink:href="#mba51f56e8e" x="0" y="337.40125" style="fill: #ff4b44; fill-opacity: 0.945455; stroke: #ff4b44; stroke-opacity: 0.945455"/>
    </g>
   </g>
   <g id="line2d_45">
    <path d="M 2.315397 282.395973 
L 18.475462 282.395973 
L 34.635526 282.395973 
L 50.795591 282.395973 
L 66.955655 282.395973 
L 83.11572 282.395973 
L 99.275785 282.395973 
L 115.435849 282.395973 
L 131.595914 282.395973 
L 147.755978 282.395973 
L 163.916043 282.395973 
L 180.076107 282.395973 
L 196.236172 282.395973 
L 212.396236 282.395973 
L 228.556301 282.395973 
L 244.716365 282.395973 
L 260.87643 282.395973 
L 277.036495 282.395973 
L 293.196559 282.395973 
L 309.356624 282.395973 
L 325.516688 282.395973 
L 341.676753 282.395973 
" clip-path="url(#p5f2eb9a0c4)" style="fill: none; stroke: #ff4b44; stroke-opacity: 0.945455; stroke-width: 1.5; stroke-linecap: square"/>
   </g>
   <g id="line2d_46">
    <path d="M 2.315397 282.395973 
L 18.475462 271.254576 
L 34.635526 254.542479 
L 50.795591 265.683877 
L 66.955655 265.683877 
L 83.11572 265.683877 
L 99.275785 282.395973 
L 115.435849 282.395973 
L 131.595914 276.825274 
L 147.755978 276.825274 
L 163.916043 282.395973 
L 180.076107 282.395973 
L 196.236172 282.395973 
L 212.396236 282.395973 
L 228.556301 282.395973 
L 244.716365 282.395973 
L 260.87643 276.825274 
L 277.036495 282.395973 
L 293.196559 282.395973 
L 309.356624 282.395973 
L 325.516688 276.825274 
L 341.676753 282.395973 
" clip-path="url(#p5f2eb9a0c4)" style="fill: none; stroke: #000000; stroke-opacity: 0.945455; stroke-width: 1.5; stroke-linecap: square"/>
   </g>
  </g>
  <g id="axes_22">
   <g id="FillBetweenPolyCollection_21">
    <defs>
     <path id="m0bae00d49c" d="M -5.622544 -43.599823 
L -5.622544 -43.599823 
L 13.872247 -43.599823 
L 33.367037 -43.599823 
L 52.861827 -43.599823 
L 72.356618 -43.599823 
L 91.851408 -43.599823 
L 111.346198 -43.599823 
L 130.840989 -43.599823 
L 150.335779 -43.599823 
L 169.830569 -43.599823 
L 189.32536 -43.599823 
L 208.82015 -43.599823 
L 228.314941 -43.599823 
L 247.809731 -43.599823 
L 267.304521 -43.599823 
L 286.799312 -43.599823 
L 306.294102 -43.599823 
L 325.788892 -43.599823 
L 345.283683 -43.599823 
L 364.778473 -43.599823 
L 384.273263 -43.599823 
L 403.768054 -43.599823 
L 403.768054 -43.599823 
L 403.768054 -43.599823 
L 384.273263 -49.170521 
L 364.778473 -43.599823 
L 345.283683 -43.599823 
L 325.788892 -43.599823 
L 306.294102 -49.170521 
L 286.799312 -43.599823 
L 267.304521 -43.599823 
L 247.809731 -43.599823 
L 228.314941 -43.599823 
L 208.82015 -43.599823 
L 189.32536 -43.599823 
L 169.830569 -43.599823 
L 150.335779 -49.170521 
L 130.840989 -43.599823 
L 111.346198 -54.74122 
L 91.851408 -49.170521 
L 72.356618 -54.74122 
L 52.861827 -60.311919 
L 33.367037 -88.165412 
L 13.872247 -49.170521 
L -5.622544 -43.599823 
z
" style="stroke: #ff4b44; stroke-opacity: 0.972727"/>
    </defs>
    <g clip-path="url(#pd753187dd1)">
     <use xlink:href="#m0bae00d49c" x="0" y="337.40125" style="fill: #ff4b44; fill-opacity: 0.972727; stroke: #ff4b44; stroke-opacity: 0.972727"/>
    </g>
   </g>
   <g id="line2d_47">
    <path d="M -1 293.801427 
L 13.872247 293.801427 
L 33.367037 293.801427 
L 52.861827 293.801427 
L 72.356618 293.801427 
L 91.851408 293.801427 
L 111.346198 293.801427 
L 130.840989 293.801427 
L 150.335779 293.801427 
L 169.830569 293.801427 
L 189.32536 293.801427 
L 208.82015 293.801427 
L 228.314941 293.801427 
L 247.809731 293.801427 
L 267.304521 293.801427 
L 286.799312 293.801427 
L 306.294102 293.801427 
L 325.788892 293.801427 
L 345.283683 293.801427 
L 364.778473 293.801427 
L 384.273263 293.801427 
L 403.768054 293.801427 
" clip-path="url(#pd753187dd1)" style="fill: none; stroke: #ff4b44; stroke-opacity: 0.972727; stroke-width: 1.5; stroke-linecap: square"/>
   </g>
   <g id="line2d_48">
    <path d="M -1 292.480521 
L 13.872247 288.230729 
L 33.367037 249.235838 
L 52.861827 277.089331 
L 72.356618 282.66003 
L 91.851408 288.230729 
L 111.346198 282.66003 
L 130.840989 293.801427 
L 150.335779 288.230729 
L 169.830569 293.801427 
L 189.32536 293.801427 
L 208.82015 293.801427 
L 228.314941 293.801427 
L 247.809731 293.801427 
L 267.304521 293.801427 
L 286.799312 293.801427 
L 306.294102 288.230729 
L 325.788892 293.801427 
L 345.283683 293.801427 
L 364.778473 293.801427 
L 384.273263 288.230729 
L 403.768054 293.801427 
" clip-path="url(#pd753187dd1)" style="fill: none; stroke: #000000; stroke-opacity: 0.972727; stroke-width: 1.5; stroke-linecap: square"/>
   </g>
  </g>
  <g id="axes_23">
   <g id="FillBetweenPolyCollection_22">
    <defs>
     <path id="m8f5c693bed" d="M -2.845702 -32.194368 
L -2.845702 -32.194368 
L 17.205775 -32.194368 
L 37.257251 -32.194368 
L 57.308727 -32.194368 
L 77.360204 -32.194368 
L 97.41168 -32.194368 
L 117.463156 -32.194368 
L 137.514633 -32.194368 
L 157.566109 -32.194368 
L 177.617585 -32.194368 
L 197.669062 -32.194368 
L 217.720538 -32.194368 
L 237.772015 -32.194368 
L 257.823491 -32.194368 
L 277.874967 -32.194368 
L 297.926444 -32.194368 
L 317.97792 -32.194368 
L 338.029396 -32.194368 
L 358.080873 -32.194368 
L 378.132349 -32.194368 
L 398.183825 -32.194368 
L 418.235302 -32.194368 
L 418.235302 -32.194368 
L 418.235302 -32.194368 
L 398.183825 -37.765067 
L 378.132349 -32.194368 
L 358.080873 -32.194368 
L 338.029396 -32.194368 
L 317.97792 -37.765067 
L 297.926444 -32.194368 
L 277.874967 -32.194368 
L 257.823491 -32.194368 
L 237.772015 -32.194368 
L 217.720538 -32.194368 
L 197.669062 -32.194368 
L 177.617585 -37.765067 
L 157.566109 -32.194368 
L 137.514633 -32.194368 
L 117.463156 -37.765067 
L 97.41168 -32.194368 
L 77.360204 -43.335765 
L 57.308727 -48.906464 
L 37.257251 -76.759958 
L 17.205775 -48.906464 
L -2.845702 -32.194368 
z
" style="stroke: #ff4b44"/>
    </defs>
    <g clip-path="url(#p3d5a5a17d7)">
     <use xlink:href="#m8f5c693bed" x="0" y="337.40125" style="fill: #ff4b44; stroke: #ff4b44"/>
    </g>
   </g>
   <g id="line2d_49">
    <path d="M -1 305.206882 
L 17.205775 305.206882 
L 37.257251 305.206882 
L 57.308727 305.206882 
L 77.360204 305.206882 
L 97.41168 305.206882 
L 117.463156 305.206882 
L 137.514633 305.206882 
L 157.566109 305.206882 
L 177.617585 305.206882 
L 197.669062 305.206882 
L 217.720538 305.206882 
L 237.772015 305.206882 
L 257.823491 305.206882 
L 277.874967 305.206882 
L 297.926444 305.206882 
L 317.97792 305.206882 
L 338.029396 305.206882 
L 358.080873 305.206882 
L 378.132349 305.206882 
L 398.183825 305.206882 
L 418.235302 305.206882 
" clip-path="url(#p3d5a5a17d7)" style="fill: none; stroke: #ff4b44; stroke-width: 1.5; stroke-linecap: square"/>
   </g>
   <g id="line2d_50">
    <path d="M -1 303.668564 
L 17.205775 288.494786 
L 37.257251 260.641292 
L 57.308727 288.494786 
L 77.360204 294.065485 
L 97.41168 305.206882 
L 117.463156 299.636183 
L 137.514633 305.206882 
L 157.566109 305.206882 
L 177.617585 299.636183 
L 197.669062 305.206882 
L 217.720538 305.206882 
L 237.772015 305.206882 
L 257.823491 305.206882 
L 277.874967 305.206882 
L 297.926444 305.206882 
L 317.97792 299.636183 
L 338.029396 305.206882 
L 358.080873 305.206882 
L 378.132349 305.206882 
L 398.183825 299.636183 
L 418.235302 305.206882 
" clip-path="url(#p3d5a5a17d7)" style="fill: none; stroke: #000000; stroke-width: 1.5; stroke-linecap: square"/>
   </g>
  </g>
  <g id="text_7">
   <!-- La Liga -->
   <g style="fill: #ff4b44" transform="translate(226.8 100.08) scale(0.18 -0.18)">
    <defs>
     <path id="Lato-Regular-4c" d="M 1178 522 
L 3162 522 
L 3162 0 
L 557 0 
L 557 4586 
L 1178 4586 
L 1178 522 
z
" transform="scale(0.015625)"/>
     <path id="Lato-Regular-61" d="M 2848 0 
L 2595 0 
Q 2512 0 2461 25 
Q 2410 51 2394 134 
L 2330 435 
Q 2202 320 2080 229 
Q 1958 138 1824 75 
Q 1690 13 1538 -19 
Q 1386 -51 1200 -51 
Q 1011 -51 846 1 
Q 682 54 560 160 
Q 438 266 366 427 
Q 294 589 294 810 
Q 294 1002 400 1179 
Q 506 1357 741 1494 
Q 976 1632 1357 1720 
Q 1738 1808 2288 1821 
L 2288 2074 
Q 2288 2451 2126 2644 
Q 1965 2838 1648 2838 
Q 1440 2838 1297 2785 
Q 1155 2733 1051 2667 
Q 947 2602 872 2549 
Q 797 2496 723 2496 
Q 666 2496 622 2526 
Q 579 2557 554 2602 
L 451 2784 
Q 720 3043 1030 3171 
Q 1341 3299 1718 3299 
Q 1990 3299 2201 3209 
Q 2413 3120 2557 2960 
Q 2701 2800 2774 2573 
Q 2848 2346 2848 2074 
L 2848 0 
z
M 1370 349 
Q 1520 349 1645 379 
Q 1770 410 1880 466 
Q 1990 522 2091 602 
Q 2192 682 2288 784 
L 2288 1459 
Q 1894 1446 1619 1396 
Q 1344 1347 1171 1267 
Q 998 1187 920 1078 
Q 842 970 842 835 
Q 842 707 883 614 
Q 925 522 995 462 
Q 1066 403 1162 376 
Q 1258 349 1370 349 
z
" transform="scale(0.015625)"/>
     <path id="Lato-Regular-20" transform="scale(0.015625)"/>
     <path id="Lato-Regular-69" d="M 1101 3242 
L 1101 0 
L 531 0 
L 531 3242 
L 1101 3242 
z
M 1229 4259 
Q 1229 4176 1195 4104 
Q 1162 4032 1106 3976 
Q 1050 3920 976 3888 
Q 902 3856 819 3856 
Q 736 3856 664 3888 
Q 592 3920 536 3976 
Q 480 4032 448 4104 
Q 416 4176 416 4259 
Q 416 4342 448 4417 
Q 480 4493 536 4549 
Q 592 4605 664 4637 
Q 736 4669 819 4669 
Q 902 4669 976 4637 
Q 1050 4605 1106 4549 
Q 1162 4493 1195 4417 
Q 1229 4342 1229 4259 
z
" transform="scale(0.015625)"/>
     <path id="Lato-Regular-67" d="M 1558 3296 
Q 1770 3296 1954 3249 
Q 2138 3203 2288 3114 
L 3168 3114 
L 3168 2902 
Q 3168 2797 3034 2768 
L 2666 2717 
Q 2774 2509 2774 2253 
Q 2774 2016 2683 1822 
Q 2592 1629 2430 1491 
Q 2269 1354 2046 1280 
Q 1824 1206 1558 1206 
Q 1331 1206 1130 1261 
Q 1027 1197 974 1123 
Q 922 1050 922 979 
Q 922 864 1014 805 
Q 1107 746 1260 720 
Q 1414 694 1609 688 
Q 1805 682 2008 667 
Q 2211 653 2406 617 
Q 2602 582 2755 502 
Q 2909 422 3001 281 
Q 3094 141 3094 -83 
Q 3094 -291 2990 -486 
Q 2886 -682 2691 -834 
Q 2496 -986 2214 -1077 
Q 1933 -1168 1578 -1168 
Q 1222 -1168 955 -1097 
Q 688 -1027 512 -908 
Q 336 -790 248 -635 
Q 160 -480 160 -310 
Q 160 -70 312 98 
Q 464 266 730 365 
Q 592 429 510 536 
Q 429 643 429 822 
Q 429 893 454 968 
Q 480 1043 533 1116 
Q 586 1190 662 1257 
Q 739 1325 842 1376 
Q 602 1510 466 1732 
Q 330 1955 330 2253 
Q 330 2490 421 2683 
Q 512 2877 675 3013 
Q 838 3149 1064 3222 
Q 1290 3296 1558 3296 
z
M 2570 -176 
Q 2570 -54 2502 19 
Q 2435 93 2320 133 
Q 2205 173 2054 192 
Q 1904 211 1737 219 
Q 1571 227 1398 236 
Q 1226 246 1069 272 
Q 886 186 772 61 
Q 659 -64 659 -237 
Q 659 -346 715 -440 
Q 771 -534 886 -603 
Q 1002 -672 1176 -712 
Q 1350 -752 1587 -752 
Q 1818 -752 2000 -710 
Q 2182 -669 2308 -592 
Q 2435 -515 2502 -409 
Q 2570 -304 2570 -176 
z
M 1558 1584 
Q 1731 1584 1864 1632 
Q 1997 1680 2086 1766 
Q 2176 1853 2221 1973 
Q 2266 2093 2266 2237 
Q 2266 2534 2085 2710 
Q 1904 2886 1558 2886 
Q 1216 2886 1035 2710 
Q 854 2534 854 2237 
Q 854 2093 900 1973 
Q 947 1853 1036 1766 
Q 1126 1680 1257 1632 
Q 1389 1584 1558 1584 
z
" transform="scale(0.015625)"/>
    </defs>
    <use xlink:href="#Lato-Regular-4c"/>
    <use xlink:href="#Lato-Regular-61" transform="translate(51.400009 0)"/>
    <use xlink:href="#Lato-Regular-20" transform="translate(102.100021 0)"/>
    <use xlink:href="#Lato-Regular-4c" transform="translate(121.400024 0)"/>
    <use xlink:href="#Lato-Regular-69" transform="translate(172.800034 0)"/>
    <use xlink:href="#Lato-Regular-67" transform="translate(198.40004 0)"/>
    <use xlink:href="#Lato-Regular-61" transform="translate(249.500046 0)"/>
   </g>
  </g>
 </g>
 <defs>
  <clipPath id="pdb061aceec">
   <rect x="7.2" y="7.2" width="439.2" height="67.405455"/>
  </clipPath>
  <clipPath id="p673e7280db">
   <rect x="7.2" y="18.605455" width="439.2" height="67.405455"/>
  </clipPath>
  <clipPath id="pd52aa050f6">
   <rect x="7.2" y="30.010909" width="439.2" height="67.405455"/>
  </clipPath>
  <clipPath id="pa12add0e54">
   <rect x="7.2" y="41.416364" width="439.2" height="67.405455"/>
  </clipPath>
  <clipPath id="p5b7681f6d0">
   <rect x="7.2" y="52.821818" width="439.2" height="67.405455"/>
  </clipPath>
  <clipPath id="pa8dab681fb">
   <rect x="7.2" y="64.227273" width="439.2" height="67.405455"/>
  </clipPath>
  <clipPath id="p953adc4f98">
   <rect x="7.2" y="75.632727" width="439.2" height="67.405455"/>
  </clipPath>
  <clipPath id="pf021a9cd2f">
   <rect x="7.2" y="87.038182" width="439.2" height="67.405455"/>
  </clipPath>
  <clipPath id="pe296da650a">
   <rect x="7.2" y="98.443636" width="439.2" height="67.405455"/>
  </clipPath>
  <clipPath id="p09a15997ef">
   <rect x="7.2" y="109.849091" width="439.2" height="67.405455"/>
  </clipPath>
  <clipPath id="p264d7b7dbc">
   <rect x="7.2" y="121.254545" width="439.2" height="67.405455"/>
  </clipPath>
  <clipPath id="p008a387b06">
   <rect x="7.2" y="132.66" width="439.2" height="67.405455"/>
  </clipPath>
  <clipPath id="pee9cba69a4">
   <rect x="7.2" y="144.065455" width="439.2" height="67.405455"/>
  </clipPath>
  <clipPath id="p655760557b">
   <rect x="7.2" y="155.470909" width="439.2" height="67.405455"/>
  </clipPath>
  <clipPath id="pc458506975">
   <rect x="7.2" y="166.876364" width="439.2" height="67.405455"/>
  </clipPath>
  <clipPath id="p423b275a19">
   <rect x="7.2" y="178.281818" width="439.2" height="67.405455"/>
  </clipPath>
  <clipPath id="pce281c1721">
   <rect x="7.2" y="189.687273" width="439.2" height="67.405455"/>
  </clipPath>
  <clipPath id="p5eea02b4e3">
   <rect x="7.2" y="201.092727" width="439.2" height="67.405455"/>
  </clipPath>
  <clipPath id="p406ef7f547">
   <rect x="7.2" y="212.498182" width="439.2" height="67.405455"/>
  </clipPath>
  <clipPath id="p5f2eb9a0c4">
   <rect x="7.2" y="223.903636" width="439.2" height="67.405455"/>
  </clipPath>
  <clipPath id="pd753187dd1">
   <rect x="7.2" y="235.309091" width="439.2" height="67.405455"/>
  </clipPath>
  <clipPath id="p3d5a5a17d7">
   <rect x="7.2" y="246.714545" width="439.2" height="67.405455"/>
  </clipPath>
 </defs>
</svg>
