<?xml version="1.0" encoding="utf-8" standalone="no"?>
<!DOCTYPE svg PUBLIC "-//W3C//DTD SVG 1.1//EN"
  "http://www.w3.org/Graphics/SVG/1.1/DTD/svg11.dtd">
<svg xmlns:xlink="http://www.w3.org/1999/xlink" width="452.801254pt" height="337.40125pt" viewBox="0 0 452.801254 337.40125" xmlns="http://www.w3.org/2000/svg" version="1.1">
 <metadata>
  <rdf:RDF xmlns:dc="http://purl.org/dc/elements/1.1/" xmlns:cc="http://creativecommons.org/ns#" xmlns:rdf="http://www.w3.org/1999/02/22-rdf-syntax-ns#">
   <cc:Work>
    <dc:type rdf:resource="http://purl.org/dc/dcmitype/StillImage"/>
    <dc:date>2025-12-01T11:21:23.792144</dc:date>
    <dc:format>image/svg+xml</dc:format>
    <dc:creator>
     <cc:Agent>
      <dc:title>Matplotlib v3.10.5, https://matplotlib.org/</dc:title>
     </cc:Agent>
    </dc:creator>
   </cc:Work>
  </rdf:RDF>
 </metadata>
 <defs>
  <style type="text/css">*{stroke-linejoin: round; stroke-linecap: butt}</style>
 </defs>
 <g id="figure_1">
  <g id="patch_1">
   <path d="M 0 337.40125 
L 452.801254 337.40125 
L 452.801254 0 
L 0 0 
z
" style="fill: #f5f5dc"/>
  </g>
  <g id="axes_1">
   <g id="patch_2">
    <path d="M 7.378117 314.12 
L 445.601254 314.12 
L 445.601254 7.2 
L 7.378117 7.2 
z
" style="fill: #f5f5dc"/>
   </g>
   <g id="matplotlib.axis_1">
    <g id="xtick_1">
     <g id="line2d_1">
      <defs>
       <path id="m5e3b5bce5b" d="M 0 0 
L 0 3.5 
" style="stroke: #808080; stroke-width: 0.8"/>
      </defs>
      <g>
       <use xlink:href="#m5e3b5bce5b" x="10.1" y="314.12" style="fill: #808080; stroke: #808080; stroke-width: 0.8"/>
      </g>
     </g>
     <g id="text_1">
      <!-- 0 -->
      <g style="fill: #808080" transform="translate(7.2 328.485625) scale(0.1 -0.1)">
       <defs>
        <path id="Lato-Regular-30" d="M 3520 2291 
Q 3520 1690 3390 1250 
Q 3261 810 3037 522 
Q 2813 234 2507 93 
Q 2202 -48 1853 -48 
Q 1501 -48 1198 93 
Q 896 234 672 522 
Q 448 810 320 1250 
Q 192 1690 192 2291 
Q 192 2893 320 3334 
Q 448 3776 672 4065 
Q 896 4355 1198 4496 
Q 1501 4637 1853 4637 
Q 2202 4637 2507 4496 
Q 2813 4355 3037 4065 
Q 3261 3776 3390 3334 
Q 3520 2893 3520 2291 
z
M 2928 2291 
Q 2928 2816 2840 3173 
Q 2752 3530 2603 3747 
Q 2454 3965 2259 4059 
Q 2064 4154 1853 4154 
Q 1642 4154 1446 4059 
Q 1251 3965 1104 3747 
Q 957 3530 869 3173 
Q 781 2816 781 2291 
Q 781 1766 869 1411 
Q 957 1056 1104 838 
Q 1251 621 1446 526 
Q 1642 432 1853 432 
Q 2064 432 2259 526 
Q 2454 621 2603 838 
Q 2752 1056 2840 1411 
Q 2928 1766 2928 2291 
z
" transform="scale(0.015625)"/>
       </defs>
       <use xlink:href="#Lato-Regular-30"/>
      </g>
     </g>
    </g>
    <g id="xtick_2">
     <g id="line2d_2">
      <g>
       <use xlink:href="#m5e3b5bce5b" x="78.147071" y="314.12" style="fill: #808080; stroke: #808080; stroke-width: 0.8"/>
      </g>
     </g>
     <g id="text_2">
      <!-- €250M -->
      <g style="fill: #808080" transform="translate(61.947071 328.485625) scale(0.1 -0.1)">
       <defs>
        <path id="Lato-Regular-20ac" d="M 109 2877 
L 579 2877 
Q 643 3280 795 3605 
Q 947 3930 1172 4158 
Q 1398 4387 1692 4508 
Q 1987 4630 2333 4630 
Q 2762 4630 3066 4470 
Q 3370 4310 3594 4029 
L 3398 3811 
Q 3373 3782 3347 3761 
Q 3322 3741 3277 3741 
Q 3222 3741 3163 3801 
Q 3104 3862 3005 3936 
Q 2906 4010 2750 4070 
Q 2595 4131 2355 4131 
Q 1888 4131 1579 3811 
Q 1270 3491 1168 2877 
L 2918 2877 
L 2918 2701 
Q 2918 2643 2875 2596 
Q 2832 2550 2755 2550 
L 1130 2550 
Q 1126 2486 1124 2422 
Q 1123 2358 1123 2291 
Q 1123 2240 1123 2192 
Q 1123 2144 1126 2096 
L 2621 2096 
L 2621 1917 
Q 2621 1862 2576 1816 
Q 2531 1770 2454 1770 
L 1155 1770 
Q 1245 1110 1552 780 
Q 1859 451 2326 451 
Q 2499 451 2630 484 
Q 2762 518 2858 569 
Q 2954 621 3022 680 
Q 3091 739 3142 790 
Q 3194 842 3234 875 
Q 3274 909 3312 909 
Q 3338 909 3357 897 
Q 3376 886 3402 864 
L 3642 640 
Q 3418 314 3085 133 
Q 2752 -48 2294 -48 
Q 1923 -48 1625 78 
Q 1328 205 1110 440 
Q 893 675 753 1012 
Q 614 1350 563 1770 
L 109 1770 
L 109 2096 
L 538 2096 
Q 534 2144 534 2192 
Q 534 2240 534 2291 
Q 534 2355 536 2420 
Q 538 2486 541 2550 
L 109 2550 
L 109 2877 
z
" transform="scale(0.015625)"/>
        <path id="Lato-Regular-32" d="M 1923 4637 
Q 2214 4637 2467 4550 
Q 2720 4464 2904 4299 
Q 3088 4134 3193 3897 
Q 3299 3661 3299 3360 
Q 3299 3104 3222 2886 
Q 3146 2669 3014 2469 
Q 2883 2269 2712 2081 
Q 2541 1894 2349 1699 
L 1142 464 
Q 1270 499 1401 520 
Q 1533 541 1654 541 
L 3190 541 
Q 3283 541 3337 486 
Q 3392 432 3392 346 
L 3392 0 
L 333 0 
L 333 195 
Q 333 256 357 320 
Q 381 384 435 438 
L 1904 1914 
Q 2086 2099 2236 2270 
Q 2387 2442 2494 2614 
Q 2602 2787 2659 2964 
Q 2717 3142 2717 3344 
Q 2717 3546 2653 3698 
Q 2589 3850 2477 3949 
Q 2365 4048 2214 4097 
Q 2064 4147 1891 4147 
Q 1718 4147 1571 4096 
Q 1424 4045 1310 3953 
Q 1197 3862 1118 3737 
Q 1040 3613 1008 3462 
Q 982 3370 931 3328 
Q 880 3286 797 3286 
Q 781 3286 763 3288 
Q 746 3290 723 3293 
L 426 3344 
Q 470 3658 598 3899 
Q 726 4141 923 4304 
Q 1120 4467 1374 4552 
Q 1629 4637 1923 4637 
z
" transform="scale(0.015625)"/>
        <path id="Lato-Regular-35" d="M 3130 4336 
Q 3130 4214 3053 4136 
Q 2976 4058 2794 4058 
L 1354 4058 
L 1142 2854 
Q 1501 2931 1805 2931 
Q 2163 2931 2436 2825 
Q 2710 2720 2896 2534 
Q 3082 2349 3176 2096 
Q 3270 1843 3270 1546 
Q 3270 1181 3142 886 
Q 3014 592 2792 382 
Q 2570 173 2269 61 
Q 1968 -51 1619 -51 
Q 1418 -51 1232 -11 
Q 1046 29 886 96 
Q 726 163 588 249 
Q 451 336 346 432 
L 518 675 
Q 576 758 672 758 
Q 733 758 814 708 
Q 896 659 1011 598 
Q 1126 538 1281 488 
Q 1437 438 1651 438 
Q 1891 438 2083 515 
Q 2275 592 2411 734 
Q 2547 877 2620 1075 
Q 2694 1274 2694 1520 
Q 2694 1734 2632 1907 
Q 2570 2080 2443 2201 
Q 2317 2323 2128 2390 
Q 1939 2458 1686 2458 
Q 1514 2458 1328 2429 
Q 1142 2400 944 2336 
L 586 2442 
L 957 4586 
L 3130 4586 
L 3130 4336 
z
" transform="scale(0.015625)"/>
        <path id="Lato-Regular-4d" d="M 2813 1658 
Q 2858 1581 2891 1496 
Q 2925 1411 2957 1325 
Q 2989 1414 3024 1496 
Q 3059 1578 3104 1661 
L 4656 4480 
Q 4698 4554 4742 4570 
Q 4787 4586 4870 4586 
L 5328 4586 
L 5328 0 
L 4784 0 
L 4784 3370 
Q 4784 3437 4787 3513 
Q 4790 3590 4797 3670 
L 3226 803 
Q 3146 659 3002 659 
L 2912 659 
Q 2768 659 2688 803 
L 1082 3680 
Q 1091 3597 1096 3517 
Q 1101 3437 1101 3370 
L 1101 0 
L 557 0 
L 557 4586 
L 1014 4586 
Q 1098 4586 1142 4570 
Q 1187 4554 1229 4480 
L 2813 1658 
L 2813 1658 
z
" transform="scale(0.015625)"/>
       </defs>
       <use xlink:href="#Lato-Regular-20ac"/>
       <use xlink:href="#Lato-Regular-32" transform="translate(58 0)"/>
       <use xlink:href="#Lato-Regular-35" transform="translate(116 0)"/>
       <use xlink:href="#Lato-Regular-30" transform="translate(174 0)"/>
       <use xlink:href="#Lato-Regular-4d" transform="translate(232 0)"/>
      </g>
     </g>
    </g>
    <g id="xtick_3">
     <g id="line2d_3">
      <g>
       <use xlink:href="#m5e3b5bce5b" x="146.194142" y="314.12" style="fill: #808080; stroke: #808080; stroke-width: 0.8"/>
      </g>
     </g>
     <g id="text_3">
      <!-- €500M -->
      <g style="fill: #808080" transform="translate(129.994142 328.485625) scale(0.1 -0.1)">
       <use xlink:href="#Lato-Regular-20ac"/>
       <use xlink:href="#Lato-Regular-35" transform="translate(58 0)"/>
       <use xlink:href="#Lato-Regular-30" transform="translate(116 0)"/>
       <use xlink:href="#Lato-Regular-30" transform="translate(174 0)"/>
       <use xlink:href="#Lato-Regular-4d" transform="translate(232 0)"/>
      </g>
     </g>
    </g>
    <g id="xtick_4">
     <g id="line2d_4">
      <g>
       <use xlink:href="#m5e3b5bce5b" x="214.241213" y="314.12" style="fill: #808080; stroke: #808080; stroke-width: 0.8"/>
      </g>
     </g>
     <g id="text_4">
      <!-- €750M -->
      <g style="fill: #808080" transform="translate(198.041213 328.485625) scale(0.1 -0.1)">
       <defs>
        <path id="Lato-Regular-37" d="M 3469 4586 
L 3469 4330 
Q 3469 4221 3445 4150 
Q 3421 4080 3395 4032 
L 1498 202 
Q 1456 118 1382 59 
Q 1309 0 1184 0 
L 778 0 
L 2704 3782 
Q 2746 3862 2789 3929 
Q 2832 3997 2886 4058 
L 493 4058 
Q 438 4058 395 4101 
Q 352 4144 352 4198 
L 352 4586 
L 3469 4586 
z
" transform="scale(0.015625)"/>
       </defs>
       <use xlink:href="#Lato-Regular-20ac"/>
       <use xlink:href="#Lato-Regular-37" transform="translate(58 0)"/>
       <use xlink:href="#Lato-Regular-35" transform="translate(116 0)"/>
       <use xlink:href="#Lato-Regular-30" transform="translate(174 0)"/>
       <use xlink:href="#Lato-Regular-4d" transform="translate(232 0)"/>
      </g>
     </g>
    </g>
    <g id="xtick_5">
     <g id="line2d_5">
      <g>
       <use xlink:href="#m5e3b5bce5b" x="282.288284" y="314.12" style="fill: #808080; stroke: #808080; stroke-width: 0.8"/>
      </g>
     </g>
     <g id="text_5">
      <!-- €1B -->
      <g style="fill: #808080" transform="translate(273.253127 328.485625) scale(0.1 -0.1)">
       <defs>
        <path id="Lato-Regular-31" d="M 918 435 
L 1904 435 
L 1904 3562 
Q 1904 3702 1914 3846 
L 1094 3146 
Q 1062 3120 1030 3109 
Q 998 3098 970 3098 
Q 922 3098 883 3118 
Q 845 3139 826 3168 
L 646 3414 
L 2010 4595 
L 2474 4595 
L 2474 435 
L 3376 435 
L 3376 0 
L 918 0 
L 918 435 
z
" transform="scale(0.015625)"/>
        <path id="Lato-Regular-42" d="M 557 0 
L 557 4586 
L 2019 4586 
Q 2442 4586 2747 4502 
Q 3053 4419 3249 4265 
Q 3446 4112 3540 3889 
Q 3635 3667 3635 3389 
Q 3635 3219 3582 3062 
Q 3530 2906 3422 2771 
Q 3315 2637 3153 2531 
Q 2992 2426 2774 2358 
Q 3277 2259 3533 1996 
Q 3789 1734 3789 1306 
Q 3789 1014 3681 774 
Q 3574 534 3368 361 
Q 3162 189 2862 94 
Q 2563 0 2179 0 
L 557 0 
z
M 1178 2090 
L 1178 493 
L 2170 493 
Q 2435 493 2625 553 
Q 2816 614 2939 724 
Q 3062 835 3120 987 
Q 3178 1139 3178 1322 
Q 3178 1677 2926 1883 
Q 2675 2090 2166 2090 
L 1178 2090 
z
M 1178 2531 
L 1997 2531 
Q 2259 2531 2451 2588 
Q 2643 2646 2769 2748 
Q 2896 2851 2957 2996 
Q 3018 3142 3018 3315 
Q 3018 3718 2774 3907 
Q 2531 4096 2019 4096 
L 1178 4096 
L 1178 2531 
z
" transform="scale(0.015625)"/>
       </defs>
       <use xlink:href="#Lato-Regular-20ac"/>
       <use xlink:href="#Lato-Regular-31" transform="translate(58 0)"/>
       <use xlink:href="#Lato-Regular-42" transform="translate(116 0)"/>
      </g>
     </g>
    </g>
    <g id="xtick_6">
     <g id="line2d_6">
      <g>
       <use xlink:href="#m5e3b5bce5b" x="350.335355" y="314.12" style="fill: #808080; stroke: #808080; stroke-width: 0.8"/>
      </g>
     </g>
     <g id="text_6">
      <!-- €1.25B -->
      <g style="fill: #808080" transform="translate(334.440042 328.485625) scale(0.1 -0.1)">
       <defs>
        <path id="Lato-Regular-2e" d="M 282 352 
Q 282 435 312 508 
Q 342 582 395 636 
Q 448 691 521 723 
Q 595 755 678 755 
Q 762 755 835 723 
Q 909 691 963 636 
Q 1018 582 1048 508 
Q 1078 435 1078 352 
Q 1078 266 1048 194 
Q 1018 122 963 67 
Q 909 13 835 -17 
Q 762 -48 678 -48 
Q 595 -48 521 -17 
Q 448 13 395 67 
Q 342 122 312 194 
Q 282 266 282 352 
z
" transform="scale(0.015625)"/>
       </defs>
       <use xlink:href="#Lato-Regular-20ac"/>
       <use xlink:href="#Lato-Regular-31" transform="translate(58 0)"/>
       <use xlink:href="#Lato-Regular-2e" transform="translate(116 0)"/>
       <use xlink:href="#Lato-Regular-32" transform="translate(137.199997 0)"/>
       <use xlink:href="#Lato-Regular-35" transform="translate(195.199997 0)"/>
       <use xlink:href="#Lato-Regular-42" transform="translate(253.199997 0)"/>
      </g>
     </g>
    </g>
    <g id="xtick_7">
     <g id="line2d_7">
      <g>
       <use xlink:href="#m5e3b5bce5b" x="418.382425" y="314.12" style="fill: #808080; stroke: #808080; stroke-width: 0.8"/>
      </g>
     </g>
     <g id="text_7">
      <!-- €1.5B -->
      <g style="fill: #808080" transform="translate(405.387113 328.485625) scale(0.1 -0.1)">
       <use xlink:href="#Lato-Regular-20ac"/>
       <use xlink:href="#Lato-Regular-31" transform="translate(58 0)"/>
       <use xlink:href="#Lato-Regular-2e" transform="translate(116 0)"/>
       <use xlink:href="#Lato-Regular-35" transform="translate(137.199997 0)"/>
       <use xlink:href="#Lato-Regular-42" transform="translate(195.199997 0)"/>
      </g>
     </g>
    </g>
   </g>
  </g>
  <g id="axes_2">
   <g id="FillBetweenPolyCollection_1">
    <defs>
     <path id="m7d22a878c3" d="M 11.468008 -265.85968 
L 11.468008 -265.85968 
L 14.811003 -265.85968 
L 18.153999 -265.85968 
L 21.496995 -265.85968 
L 24.83999 -265.85968 
L 28.182986 -265.85968 
L 31.525981 -265.85968 
L 34.868977 -265.85968 
L 38.211972 -265.85968 
L 41.554968 -265.85968 
L 44.897963 -265.85968 
L 48.240959 -265.85968 
L 51.583955 -265.85968 
L 54.92695 -265.85968 
L 58.269946 -265.85968 
L 61.612941 -265.85968 
L 64.955937 -265.85968 
L 68.298932 -265.85968 
L 71.641928 -265.85968 
L 74.984924 -265.85968 
L 78.327919 -265.85968 
L 81.670915 -265.85968 
L 85.01391 -265.85968 
L 88.356906 -265.85968 
L 91.699901 -265.85968 
L 95.042897 -265.85968 
L 95.042897 -265.85968 
L 95.042897 -265.85968 
L 91.699901 -281.179101 
L 88.356906 -265.85968 
L 85.01391 -281.179101 
L 81.670915 -265.85968 
L 78.327919 -265.85968 
L 74.984924 -265.85968 
L 71.641928 -265.85968 
L 68.298932 -265.85968 
L 64.955937 -281.179101 
L 61.612941 -265.85968 
L 58.269946 -265.85968 
L 54.92695 -265.85968 
L 51.583955 -265.85968 
L 48.240959 -281.179101 
L 44.897963 -281.179101 
L 41.554968 -265.85968 
L 38.211972 -265.85968 
L 34.868977 -281.179101 
L 31.525981 -265.85968 
L 28.182986 -296.498523 
L 24.83999 -311.817944 
L 21.496995 -296.498523 
L 18.153999 -327.137366 
L 14.811003 -311.817944 
L 11.468008 -265.85968 
z
" style="stroke: #ff4b44; stroke-opacity: 0.427273"/>
    </defs>
    <g clip-path="url(#pd67438cddb)">
     <use xlink:href="#m7d22a878c3" x="0" y="337.40125" style="fill: #ff4b44; fill-opacity: 0.427273; stroke: #ff4b44; stroke-opacity: 0.427273"/>
    </g>
   </g>
   <g id="line2d_8">
    <path d="M 11.468008 71.54157 
L 14.811003 71.54157 
L 18.153999 71.54157 
L 21.496995 71.54157 
L 24.83999 71.54157 
L 28.182986 71.54157 
L 31.525981 71.54157 
L 34.868977 71.54157 
L 38.211972 71.54157 
L 41.554968 71.54157 
L 44.897963 71.54157 
L 48.240959 71.54157 
L 51.583955 71.54157 
L 54.92695 71.54157 
L 58.269946 71.54157 
L 61.612941 71.54157 
L 64.955937 71.54157 
L 68.298932 71.54157 
L 71.641928 71.54157 
L 74.984924 71.54157 
L 78.327919 71.54157 
L 81.670915 71.54157 
L 85.01391 71.54157 
L 88.356906 71.54157 
L 91.699901 71.54157 
L 95.042897 71.54157 
" clip-path="url(#pd67438cddb)" style="fill: none; stroke: #ff4b44; stroke-opacity: 0.427273; stroke-width: 1.5; stroke-linecap: square"/>
   </g>
   <g id="line2d_9">
    <path d="M 11.468008 71.54157 
L 14.811003 25.583306 
L 18.153999 10.263884 
L 21.496995 40.902727 
L 24.83999 25.583306 
L 28.182986 40.902727 
L 31.525981 71.54157 
L 34.868977 56.222149 
L 38.211972 71.54157 
L 41.554968 71.54157 
L 44.897963 56.222149 
L 48.240959 56.222149 
L 51.583955 71.54157 
L 54.92695 71.54157 
L 58.269946 71.54157 
L 61.612941 71.54157 
L 64.955937 56.222149 
L 68.298932 71.54157 
L 71.641928 71.54157 
L 74.984924 71.54157 
L 78.327919 71.54157 
L 81.670915 71.54157 
L 85.01391 56.222149 
L 88.356906 71.54157 
L 91.699901 56.222149 
L 95.042897 71.54157 
" clip-path="url(#pd67438cddb)" style="fill: none; stroke: #000000; stroke-opacity: 0.427273; stroke-width: 1.5; stroke-linecap: square"/>
   </g>
  </g>
  <g id="axes_3">
   <g id="FillBetweenPolyCollection_2">
    <defs>
     <path id="me1ec3d36b2" d="M 13.731489 -254.454225 
L 13.731489 -254.454225 
L 17.247795 -254.454225 
L 20.764101 -254.454225 
L 24.280408 -254.454225 
L 27.796714 -254.454225 
L 31.31302 -254.454225 
L 34.829326 -254.454225 
L 38.345632 -254.454225 
L 41.861939 -254.454225 
L 45.378245 -254.454225 
L 48.894551 -254.454225 
L 52.410857 -254.454225 
L 55.927164 -254.454225 
L 59.44347 -254.454225 
L 62.959776 -254.454225 
L 66.476082 -254.454225 
L 69.992388 -254.454225 
L 73.508695 -254.454225 
L 77.025001 -254.454225 
L 80.541307 -254.454225 
L 84.057613 -254.454225 
L 87.57392 -254.454225 
L 91.090226 -254.454225 
L 94.606532 -254.454225 
L 98.122838 -254.454225 
L 101.639144 -254.454225 
L 101.639144 -254.454225 
L 101.639144 -254.454225 
L 98.122838 -269.773647 
L 94.606532 -254.454225 
L 91.090226 -254.454225 
L 87.57392 -269.773647 
L 84.057613 -254.454225 
L 80.541307 -254.454225 
L 77.025001 -254.454225 
L 73.508695 -254.454225 
L 69.992388 -254.454225 
L 66.476082 -269.773647 
L 62.959776 -254.454225 
L 59.44347 -254.454225 
L 55.927164 -254.454225 
L 52.410857 -254.454225 
L 48.894551 -254.454225 
L 45.378245 -285.093068 
L 41.861939 -254.454225 
L 38.345632 -254.454225 
L 34.829326 -285.093068 
L 31.31302 -269.773647 
L 27.796714 -285.093068 
L 24.280408 -300.41249 
L 20.764101 -315.731911 
L 17.247795 -300.41249 
L 13.731489 -254.454225 
z
" style="stroke: #ff4b44; stroke-opacity: 0.454545"/>
    </defs>
    <g clip-path="url(#p6fa53d9c76)">
     <use xlink:href="#me1ec3d36b2" x="0" y="337.40125" style="fill: #ff4b44; fill-opacity: 0.454545; stroke: #ff4b44; stroke-opacity: 0.454545"/>
    </g>
   </g>
   <g id="line2d_10">
    <path d="M 13.731489 82.947025 
L 17.247795 82.947025 
L 20.764101 82.947025 
L 24.280408 82.947025 
L 27.796714 82.947025 
L 31.31302 82.947025 
L 34.829326 82.947025 
L 38.345632 82.947025 
L 41.861939 82.947025 
L 45.378245 82.947025 
L 48.894551 82.947025 
L 52.410857 82.947025 
L 55.927164 82.947025 
L 59.44347 82.947025 
L 62.959776 82.947025 
L 66.476082 82.947025 
L 69.992388 82.947025 
L 73.508695 82.947025 
L 77.025001 82.947025 
L 80.541307 82.947025 
L 84.057613 82.947025 
L 87.57392 82.947025 
L 91.090226 82.947025 
L 94.606532 82.947025 
L 98.122838 82.947025 
L 101.639144 82.947025 
" clip-path="url(#p6fa53d9c76)" style="fill: none; stroke: #ff4b44; stroke-opacity: 0.454545; stroke-width: 1.5; stroke-linecap: square"/>
   </g>
   <g id="line2d_11">
    <path d="M 13.731489 82.947025 
L 17.247795 36.98876 
L 20.764101 21.669339 
L 24.280408 36.98876 
L 27.796714 52.308182 
L 31.31302 67.627603 
L 34.829326 52.308182 
L 38.345632 82.947025 
L 41.861939 82.947025 
L 45.378245 52.308182 
L 48.894551 82.947025 
L 52.410857 82.947025 
L 55.927164 82.947025 
L 59.44347 82.947025 
L 62.959776 82.947025 
L 66.476082 67.627603 
L 69.992388 82.947025 
L 73.508695 82.947025 
L 77.025001 82.947025 
L 80.541307 82.947025 
L 84.057613 82.947025 
L 87.57392 67.627603 
L 91.090226 82.947025 
L 94.606532 82.947025 
L 98.122838 67.627603 
L 101.639144 82.947025 
" clip-path="url(#p6fa53d9c76)" style="fill: none; stroke: #000000; stroke-opacity: 0.454545; stroke-width: 1.5; stroke-linecap: square"/>
   </g>
  </g>
  <g id="axes_4">
   <g id="FillBetweenPolyCollection_3">
    <defs>
     <path id="m73f8321469" d="M 15.088766 -243.048771 
L 15.088766 -243.048771 
L 19.049577 -243.048771 
L 23.010388 -243.048771 
L 26.971198 -243.048771 
L 30.932009 -243.048771 
L 34.892819 -243.048771 
L 38.85363 -243.048771 
L 42.814441 -243.048771 
L 46.775251 -243.048771 
L 50.736062 -243.048771 
L 54.696873 -243.048771 
L 58.657683 -243.048771 
L 62.618494 -243.048771 
L 66.579304 -243.048771 
L 70.540115 -243.048771 
L 74.500926 -243.048771 
L 78.461736 -243.048771 
L 82.422547 -243.048771 
L 86.383358 -243.048771 
L 90.344168 -243.048771 
L 94.304979 -243.048771 
L 98.265789 -243.048771 
L 102.2266 -243.048771 
L 106.187411 -243.048771 
L 110.148221 -243.048771 
L 114.109032 -243.048771 
L 114.109032 -243.048771 
L 114.109032 -243.048771 
L 110.148221 -273.687614 
L 106.187411 -243.048771 
L 102.2266 -243.048771 
L 98.265789 -243.048771 
L 94.304979 -243.048771 
L 90.344168 -243.048771 
L 86.383358 -243.048771 
L 82.422547 -243.048771 
L 78.461736 -243.048771 
L 74.500926 -258.368192 
L 70.540115 -243.048771 
L 66.579304 -243.048771 
L 62.618494 -243.048771 
L 58.657683 -258.368192 
L 54.696873 -243.048771 
L 50.736062 -243.048771 
L 46.775251 -258.368192 
L 42.814441 -258.368192 
L 38.85363 -273.687614 
L 34.892819 -243.048771 
L 30.932009 -273.687614 
L 26.971198 -304.326457 
L 23.010388 -304.326457 
L 19.049577 -273.687614 
L 15.088766 -243.048771 
z
" style="stroke: #ff4b44; stroke-opacity: 0.481818"/>
    </defs>
    <g clip-path="url(#pab49324892)">
     <use xlink:href="#m73f8321469" x="0" y="337.40125" style="fill: #ff4b44; fill-opacity: 0.481818; stroke: #ff4b44; stroke-opacity: 0.481818"/>
    </g>
   </g>
   <g id="line2d_12">
    <path d="M 15.088766 94.352479 
L 19.049577 94.352479 
L 23.010388 94.352479 
L 26.971198 94.352479 
L 30.932009 94.352479 
L 34.892819 94.352479 
L 38.85363 94.352479 
L 42.814441 94.352479 
L 46.775251 94.352479 
L 50.736062 94.352479 
L 54.696873 94.352479 
L 58.657683 94.352479 
L 62.618494 94.352479 
L 66.579304 94.352479 
L 70.540115 94.352479 
L 74.500926 94.352479 
L 78.461736 94.352479 
L 82.422547 94.352479 
L 86.383358 94.352479 
L 90.344168 94.352479 
L 94.304979 94.352479 
L 98.265789 94.352479 
L 102.2266 94.352479 
L 106.187411 94.352479 
L 110.148221 94.352479 
L 114.109032 94.352479 
" clip-path="url(#pab49324892)" style="fill: none; stroke: #ff4b44; stroke-opacity: 0.481818; stroke-width: 1.5; stroke-linecap: square"/>
   </g>
   <g id="line2d_13">
    <path d="M 15.088766 94.352479 
L 19.049577 63.713636 
L 23.010388 33.074793 
L 26.971198 33.074793 
L 30.932009 63.713636 
L 34.892819 94.352479 
L 38.85363 63.713636 
L 42.814441 79.033058 
L 46.775251 79.033058 
L 50.736062 94.352479 
L 54.696873 94.352479 
L 58.657683 79.033058 
L 62.618494 94.352479 
L 66.579304 94.352479 
L 70.540115 94.352479 
L 74.500926 79.033058 
L 78.461736 94.352479 
L 82.422547 94.352479 
L 86.383358 94.352479 
L 90.344168 94.352479 
L 94.304979 94.352479 
L 98.265789 94.352479 
L 102.2266 94.352479 
L 106.187411 94.352479 
L 110.148221 63.713636 
L 114.109032 94.352479 
" clip-path="url(#pab49324892)" style="fill: none; stroke: #000000; stroke-opacity: 0.481818; stroke-width: 1.5; stroke-linecap: square"/>
   </g>
  </g>
  <g id="axes_5">
   <g id="FillBetweenPolyCollection_4">
    <defs>
     <path id="mdadbeaed58" d="M 18.473454 -231.643316 
L 18.473454 -231.643316 
L 22.759582 -231.643316 
L 27.04571 -231.643316 
L 31.331838 -231.643316 
L 35.617966 -231.643316 
L 39.904094 -231.643316 
L 44.190222 -231.643316 
L 48.47635 -231.643316 
L 52.762478 -231.643316 
L 57.048605 -231.643316 
L 61.334733 -231.643316 
L 65.620861 -231.643316 
L 69.906989 -231.643316 
L 74.193117 -231.643316 
L 78.479245 -231.643316 
L 82.765373 -231.643316 
L 87.051501 -231.643316 
L 91.337629 -231.643316 
L 95.623757 -231.643316 
L 99.909885 -231.643316 
L 104.196013 -231.643316 
L 108.482141 -231.643316 
L 112.768269 -231.643316 
L 117.054397 -231.643316 
L 121.340525 -231.643316 
L 125.626653 -231.643316 
L 125.626653 -231.643316 
L 125.626653 -231.643316 
L 121.340525 -241.856264 
L 117.054397 -231.643316 
L 112.768269 -231.643316 
L 108.482141 -241.856264 
L 104.196013 -231.643316 
L 99.909885 -231.643316 
L 95.623757 -231.643316 
L 91.337629 -231.643316 
L 87.051501 -231.643316 
L 82.765373 -231.643316 
L 78.479245 -231.643316 
L 74.193117 -241.856264 
L 69.906989 -231.643316 
L 65.620861 -252.069211 
L 61.334733 -231.643316 
L 57.048605 -231.643316 
L 52.762478 -241.856264 
L 48.47635 -231.643316 
L 44.190222 -252.069211 
L 39.904094 -231.643316 
L 35.617966 -231.643316 
L 31.331838 -292.921002 
L 27.04571 -262.282159 
L 22.759582 -262.282159 
L 18.473454 -231.643316 
z
" style="stroke: #ff4b44; stroke-opacity: 0.509091"/>
    </defs>
    <g clip-path="url(#p0fc56d534f)">
     <use xlink:href="#mdadbeaed58" x="0" y="337.40125" style="fill: #ff4b44; fill-opacity: 0.509091; stroke: #ff4b44; stroke-opacity: 0.509091"/>
    </g>
   </g>
   <g id="line2d_14">
    <path d="M 18.473454 105.757934 
L 22.759582 105.757934 
L 27.04571 105.757934 
L 31.331838 105.757934 
L 35.617966 105.757934 
L 39.904094 105.757934 
L 44.190222 105.757934 
L 48.47635 105.757934 
L 52.762478 105.757934 
L 57.048605 105.757934 
L 61.334733 105.757934 
L 65.620861 105.757934 
L 69.906989 105.757934 
L 74.193117 105.757934 
L 78.479245 105.757934 
L 82.765373 105.757934 
L 87.051501 105.757934 
L 91.337629 105.757934 
L 95.623757 105.757934 
L 99.909885 105.757934 
L 104.196013 105.757934 
L 108.482141 105.757934 
L 112.768269 105.757934 
L 117.054397 105.757934 
L 121.340525 105.757934 
L 125.626653 105.757934 
" clip-path="url(#p0fc56d534f)" style="fill: none; stroke: #ff4b44; stroke-opacity: 0.509091; stroke-width: 1.5; stroke-linecap: square"/>
   </g>
   <g id="line2d_15">
    <path d="M 18.473454 105.757934 
L 22.759582 75.119091 
L 27.04571 75.119091 
L 31.331838 44.480248 
L 35.617966 105.757934 
L 39.904094 105.757934 
L 44.190222 85.332039 
L 48.47635 105.757934 
L 52.762478 95.544986 
L 57.048605 105.757934 
L 61.334733 105.757934 
L 65.620861 85.332039 
L 69.906989 105.757934 
L 74.193117 95.544986 
L 78.479245 105.757934 
L 82.765373 105.757934 
L 87.051501 105.757934 
L 91.337629 105.757934 
L 95.623757 105.757934 
L 99.909885 105.757934 
L 104.196013 105.757934 
L 108.482141 95.544986 
L 112.768269 105.757934 
L 117.054397 105.757934 
L 121.340525 95.544986 
L 125.626653 105.757934 
" clip-path="url(#p0fc56d534f)" style="fill: none; stroke: #000000; stroke-opacity: 0.509091; stroke-width: 1.5; stroke-linecap: square"/>
   </g>
  </g>
  <g id="axes_6">
   <g id="FillBetweenPolyCollection_5">
    <defs>
     <path id="ma2deef8c72" d="M 16.900258 -220.237862 
L 16.900258 -220.237862 
L 21.417851 -220.237862 
L 25.935443 -220.237862 
L 30.453036 -220.237862 
L 34.970629 -220.237862 
L 39.488221 -220.237862 
L 44.005814 -220.237862 
L 48.523407 -220.237862 
L 53.040999 -220.237862 
L 57.558592 -220.237862 
L 62.076185 -220.237862 
L 66.593777 -220.237862 
L 71.11137 -220.237862 
L 75.628963 -220.237862 
L 80.146556 -220.237862 
L 84.664148 -220.237862 
L 89.181741 -220.237862 
L 93.699334 -220.237862 
L 98.216926 -220.237862 
L 102.734519 -220.237862 
L 107.252112 -220.237862 
L 111.769704 -220.237862 
L 116.287297 -220.237862 
L 120.80489 -220.237862 
L 125.322483 -220.237862 
L 129.840075 -220.237862 
L 129.840075 -220.237862 
L 129.840075 -220.237862 
L 125.322483 -240.663757 
L 120.80489 -220.237862 
L 116.287297 -220.237862 
L 111.769704 -220.237862 
L 107.252112 -220.237862 
L 102.734519 -220.237862 
L 98.216926 -220.237862 
L 93.699334 -220.237862 
L 89.181741 -220.237862 
L 84.664148 -220.237862 
L 80.146556 -220.237862 
L 75.628963 -220.237862 
L 71.11137 -240.663757 
L 66.593777 -230.450809 
L 62.076185 -220.237862 
L 57.558592 -230.450809 
L 53.040999 -220.237862 
L 48.523407 -220.237862 
L 44.005814 -230.450809 
L 39.488221 -220.237862 
L 34.970629 -240.663757 
L 30.453036 -281.515548 
L 25.935443 -240.663757 
L 21.417851 -250.876705 
L 16.900258 -220.237862 
z
" style="stroke: #ff4b44; stroke-opacity: 0.536364"/>
    </defs>
    <g clip-path="url(#pec40658e27)">
     <use xlink:href="#ma2deef8c72" x="0" y="337.40125" style="fill: #ff4b44; fill-opacity: 0.536364; stroke: #ff4b44; stroke-opacity: 0.536364"/>
    </g>
   </g>
   <g id="line2d_16">
    <path d="M 16.900258 117.163388 
L 21.417851 117.163388 
L 25.935443 117.163388 
L 30.453036 117.163388 
L 34.970629 117.163388 
L 39.488221 117.163388 
L 44.005814 117.163388 
L 48.523407 117.163388 
L 53.040999 117.163388 
L 57.558592 117.163388 
L 62.076185 117.163388 
L 66.593777 117.163388 
L 71.11137 117.163388 
L 75.628963 117.163388 
L 80.146556 117.163388 
L 84.664148 117.163388 
L 89.181741 117.163388 
L 93.699334 117.163388 
L 98.216926 117.163388 
L 102.734519 117.163388 
L 107.252112 117.163388 
L 111.769704 117.163388 
L 116.287297 117.163388 
L 120.80489 117.163388 
L 125.322483 117.163388 
L 129.840075 117.163388 
" clip-path="url(#pec40658e27)" style="fill: none; stroke: #ff4b44; stroke-opacity: 0.536364; stroke-width: 1.5; stroke-linecap: square"/>
   </g>
   <g id="line2d_17">
    <path d="M 16.900258 117.163388 
L 21.417851 86.524545 
L 25.935443 96.737493 
L 30.453036 55.885702 
L 34.970629 96.737493 
L 39.488221 117.163388 
L 44.005814 106.950441 
L 48.523407 117.163388 
L 53.040999 117.163388 
L 57.558592 106.950441 
L 62.076185 117.163388 
L 66.593777 106.950441 
L 71.11137 96.737493 
L 75.628963 117.163388 
L 80.146556 117.163388 
L 84.664148 117.163388 
L 89.181741 117.163388 
L 93.699334 117.163388 
L 98.216926 117.163388 
L 102.734519 117.163388 
L 107.252112 117.163388 
L 111.769704 117.163388 
L 116.287297 117.163388 
L 120.80489 117.163388 
L 125.322483 96.737493 
L 129.840075 117.163388 
" clip-path="url(#pec40658e27)" style="fill: none; stroke: #000000; stroke-opacity: 0.536364; stroke-width: 1.5; stroke-linecap: square"/>
   </g>
  </g>
  <g id="axes_7">
   <g id="FillBetweenPolyCollection_6">
    <defs>
     <path id="mc97048bd2a" d="M 15.154589 -208.832407 
L 15.154589 -208.832407 
L 20.7155 -208.832407 
L 26.276411 -208.832407 
L 31.837323 -208.832407 
L 37.398234 -208.832407 
L 42.959145 -208.832407 
L 48.520057 -208.832407 
L 54.080968 -208.832407 
L 59.641879 -208.832407 
L 65.202791 -208.832407 
L 70.763702 -208.832407 
L 76.324613 -208.832407 
L 81.885525 -208.832407 
L 87.446436 -208.832407 
L 93.007347 -208.832407 
L 98.568259 -208.832407 
L 104.12917 -208.832407 
L 109.690081 -208.832407 
L 115.250993 -208.832407 
L 120.811904 -208.832407 
L 126.372815 -208.832407 
L 131.933727 -208.832407 
L 137.494638 -208.832407 
L 143.055549 -208.832407 
L 148.616461 -208.832407 
L 154.177372 -208.832407 
L 154.177372 -208.832407 
L 154.177372 -208.832407 
L 148.616461 -217.586362 
L 143.055549 -208.832407 
L 137.494638 -208.832407 
L 131.933727 -217.586362 
L 126.372815 -208.832407 
L 120.811904 -208.832407 
L 115.250993 -208.832407 
L 109.690081 -208.832407 
L 104.12917 -208.832407 
L 98.568259 -208.832407 
L 93.007347 -208.832407 
L 87.446436 -208.832407 
L 81.885525 -208.832407 
L 76.324613 -217.586362 
L 70.763702 -217.586362 
L 65.202791 -217.586362 
L 59.641879 -208.832407 
L 54.080968 -217.586362 
L 48.520057 -208.832407 
L 42.959145 -208.832407 
L 37.398234 -217.586362 
L 31.837323 -243.848228 
L 26.276411 -270.110093 
L 20.7155 -226.340317 
L 15.154589 -208.832407 
z
" style="stroke: #ff4b44; stroke-opacity: 0.563636"/>
    </defs>
    <g clip-path="url(#p04e6ba05b1)">
     <use xlink:href="#mc97048bd2a" x="0" y="337.40125" style="fill: #ff4b44; fill-opacity: 0.563636; stroke: #ff4b44; stroke-opacity: 0.563636"/>
    </g>
   </g>
   <g id="line2d_18">
    <path d="M 15.154589 128.568843 
L 20.7155 128.568843 
L 26.276411 128.568843 
L 31.837323 128.568843 
L 37.398234 128.568843 
L 42.959145 128.568843 
L 48.520057 128.568843 
L 54.080968 128.568843 
L 59.641879 128.568843 
L 65.202791 128.568843 
L 70.763702 128.568843 
L 76.324613 128.568843 
L 81.885525 128.568843 
L 87.446436 128.568843 
L 93.007347 128.568843 
L 98.568259 128.568843 
L 104.12917 128.568843 
L 109.690081 128.568843 
L 115.250993 128.568843 
L 120.811904 128.568843 
L 126.372815 128.568843 
L 131.933727 128.568843 
L 137.494638 128.568843 
L 143.055549 128.568843 
L 148.616461 128.568843 
L 154.177372 128.568843 
" clip-path="url(#p04e6ba05b1)" style="fill: none; stroke: #ff4b44; stroke-opacity: 0.563636; stroke-width: 1.5; stroke-linecap: square"/>
   </g>
   <g id="line2d_19">
    <path d="M 15.154589 128.568843 
L 20.7155 111.060933 
L 26.276411 67.291157 
L 31.837323 93.553022 
L 37.398234 119.814888 
L 42.959145 128.568843 
L 48.520057 128.568843 
L 54.080968 119.814888 
L 59.641879 128.568843 
L 65.202791 119.814888 
L 70.763702 119.814888 
L 76.324613 119.814888 
L 81.885525 128.568843 
L 87.446436 128.568843 
L 93.007347 128.568843 
L 98.568259 128.568843 
L 104.12917 128.568843 
L 109.690081 128.568843 
L 115.250993 128.568843 
L 120.811904 128.568843 
L 126.372815 128.568843 
L 131.933727 119.814888 
L 137.494638 128.568843 
L 143.055549 128.568843 
L 148.616461 119.814888 
L 154.177372 128.568843 
" clip-path="url(#p04e6ba05b1)" style="fill: none; stroke: #000000; stroke-opacity: 0.563636; stroke-width: 1.5; stroke-linecap: square"/>
   </g>
  </g>
  <g id="axes_8">
   <g id="FillBetweenPolyCollection_7">
    <defs>
     <path id="m826d7e67e4" d="M 15.825638 -197.426952 
L 15.825638 -197.426952 
L 22.35847 -197.426952 
L 28.891303 -197.426952 
L 35.424136 -197.426952 
L 41.956969 -197.426952 
L 48.489802 -197.426952 
L 55.022635 -197.426952 
L 61.555468 -197.426952 
L 68.088301 -197.426952 
L 74.621133 -197.426952 
L 81.153966 -197.426952 
L 87.686799 -197.426952 
L 94.219632 -197.426952 
L 100.752465 -197.426952 
L 107.285298 -197.426952 
L 113.818131 -197.426952 
L 120.350964 -197.426952 
L 126.883796 -197.426952 
L 133.416629 -197.426952 
L 139.949462 -197.426952 
L 146.482295 -197.426952 
L 153.015128 -197.426952 
L 159.547961 -197.426952 
L 166.080794 -197.426952 
L 172.613626 -197.426952 
L 179.146459 -197.426952 
L 179.146459 -197.426952 
L 179.146459 -197.426952 
L 172.613626 -205.086663 
L 166.080794 -197.426952 
L 159.547961 -197.426952 
L 153.015128 -205.086663 
L 146.482295 -197.426952 
L 139.949462 -197.426952 
L 133.416629 -197.426952 
L 126.883796 -197.426952 
L 120.350964 -197.426952 
L 113.818131 -197.426952 
L 107.285298 -197.426952 
L 100.752465 -197.426952 
L 94.219632 -197.426952 
L 87.686799 -197.426952 
L 81.153966 -197.426952 
L 74.621133 -197.426952 
L 68.088301 -197.426952 
L 61.555468 -205.086663 
L 55.022635 -220.406085 
L 48.489802 -197.426952 
L 41.956969 -205.086663 
L 35.424136 -197.426952 
L 28.891303 -258.704638 
L 22.35847 -235.725506 
L 15.825638 -197.426952 
z
" style="stroke: #ff4b44; stroke-opacity: 0.590909"/>
    </defs>
    <g clip-path="url(#p0209ac6a8b)">
     <use xlink:href="#m826d7e67e4" x="0" y="337.40125" style="fill: #ff4b44; fill-opacity: 0.590909; stroke: #ff4b44; stroke-opacity: 0.590909"/>
    </g>
   </g>
   <g id="line2d_20">
    <path d="M 15.825638 139.974298 
L 22.35847 139.974298 
L 28.891303 139.974298 
L 35.424136 139.974298 
L 41.956969 139.974298 
L 48.489802 139.974298 
L 55.022635 139.974298 
L 61.555468 139.974298 
L 68.088301 139.974298 
L 74.621133 139.974298 
L 81.153966 139.974298 
L 87.686799 139.974298 
L 94.219632 139.974298 
L 100.752465 139.974298 
L 107.285298 139.974298 
L 113.818131 139.974298 
L 120.350964 139.974298 
L 126.883796 139.974298 
L 133.416629 139.974298 
L 139.949462 139.974298 
L 146.482295 139.974298 
L 153.015128 139.974298 
L 159.547961 139.974298 
L 166.080794 139.974298 
L 172.613626 139.974298 
L 179.146459 139.974298 
" clip-path="url(#p0209ac6a8b)" style="fill: none; stroke: #ff4b44; stroke-opacity: 0.590909; stroke-width: 1.5; stroke-linecap: square"/>
   </g>
   <g id="line2d_21">
    <path d="M 15.825638 139.974298 
L 22.35847 101.675744 
L 28.891303 78.696612 
L 35.424136 139.974298 
L 41.956969 132.314587 
L 48.489802 139.974298 
L 55.022635 116.995165 
L 61.555468 132.314587 
L 68.088301 139.974298 
L 74.621133 139.974298 
L 81.153966 139.974298 
L 87.686799 139.974298 
L 94.219632 139.974298 
L 100.752465 139.974298 
L 107.285298 139.974298 
L 113.818131 139.974298 
L 120.350964 139.974298 
L 126.883796 139.974298 
L 133.416629 139.974298 
L 139.949462 139.974298 
L 146.482295 139.974298 
L 153.015128 132.314587 
L 159.547961 139.974298 
L 166.080794 139.974298 
L 172.613626 132.314587 
L 179.146459 139.974298 
" clip-path="url(#p0209ac6a8b)" style="fill: none; stroke: #000000; stroke-opacity: 0.590909; stroke-width: 1.5; stroke-linecap: square"/>
   </g>
  </g>
  <g id="axes_9">
   <g id="FillBetweenPolyCollection_8">
    <defs>
     <path id="m622030df24" d="M 16.517755 -186.021498 
L 16.517755 -186.021498 
L 23.173229 -186.021498 
L 29.828704 -186.021498 
L 36.484179 -186.021498 
L 43.139653 -186.021498 
L 49.795128 -186.021498 
L 56.450603 -186.021498 
L 63.106077 -186.021498 
L 69.761552 -186.021498 
L 76.417026 -186.021498 
L 83.072501 -186.021498 
L 89.727976 -186.021498 
L 96.38345 -186.021498 
L 103.038925 -186.021498 
L 109.6944 -186.021498 
L 116.349874 -186.021498 
L 123.005349 -186.021498 
L 129.660824 -186.021498 
L 136.316298 -186.021498 
L 142.971773 -186.021498 
L 149.627247 -186.021498 
L 156.282722 -186.021498 
L 162.938197 -186.021498 
L 169.593671 -186.021498 
L 176.249146 -186.021498 
L 182.904621 -186.021498 
L 182.904621 -186.021498 
L 182.904621 -186.021498 
L 176.249146 -196.234446 
L 169.593671 -186.021498 
L 162.938197 -186.021498 
L 156.282722 -196.234446 
L 149.627247 -186.021498 
L 142.971773 -186.021498 
L 136.316298 -186.021498 
L 129.660824 -186.021498 
L 123.005349 -186.021498 
L 116.349874 -186.021498 
L 109.6944 -186.021498 
L 103.038925 -186.021498 
L 96.38345 -186.021498 
L 89.727976 -186.021498 
L 83.072501 -186.021498 
L 76.417026 -186.021498 
L 69.761552 -196.234446 
L 63.106077 -186.021498 
L 56.450603 -196.234446 
L 49.795128 -206.447393 
L 43.139653 -206.447393 
L 36.484179 -186.021498 
L 29.828704 -247.299184 
L 23.173229 -247.299184 
L 16.517755 -186.021498 
z
" style="stroke: #ff4b44; stroke-opacity: 0.618182"/>
    </defs>
    <g clip-path="url(#p26129e9b11)">
     <use xlink:href="#m622030df24" x="0" y="337.40125" style="fill: #ff4b44; fill-opacity: 0.618182; stroke: #ff4b44; stroke-opacity: 0.618182"/>
    </g>
   </g>
   <g id="line2d_22">
    <path d="M 16.517755 151.379752 
L 23.173229 151.379752 
L 29.828704 151.379752 
L 36.484179 151.379752 
L 43.139653 151.379752 
L 49.795128 151.379752 
L 56.450603 151.379752 
L 63.106077 151.379752 
L 69.761552 151.379752 
L 76.417026 151.379752 
L 83.072501 151.379752 
L 89.727976 151.379752 
L 96.38345 151.379752 
L 103.038925 151.379752 
L 109.6944 151.379752 
L 116.349874 151.379752 
L 123.005349 151.379752 
L 129.660824 151.379752 
L 136.316298 151.379752 
L 142.971773 151.379752 
L 149.627247 151.379752 
L 156.282722 151.379752 
L 162.938197 151.379752 
L 169.593671 151.379752 
L 176.249146 151.379752 
L 182.904621 151.379752 
" clip-path="url(#p26129e9b11)" style="fill: none; stroke: #ff4b44; stroke-opacity: 0.618182; stroke-width: 1.5; stroke-linecap: square"/>
   </g>
   <g id="line2d_23">
    <path d="M 16.517755 151.379752 
L 23.173229 90.102066 
L 29.828704 90.102066 
L 36.484179 151.379752 
L 43.139653 130.953857 
L 49.795128 130.953857 
L 56.450603 141.166804 
L 63.106077 151.379752 
L 69.761552 141.166804 
L 76.417026 151.379752 
L 83.072501 151.379752 
L 89.727976 151.379752 
L 96.38345 151.379752 
L 103.038925 151.379752 
L 109.6944 151.379752 
L 116.349874 151.379752 
L 123.005349 151.379752 
L 129.660824 151.379752 
L 136.316298 151.379752 
L 142.971773 151.379752 
L 149.627247 151.379752 
L 156.282722 141.166804 
L 162.938197 151.379752 
L 169.593671 151.379752 
L 176.249146 141.166804 
L 182.904621 151.379752 
" clip-path="url(#p26129e9b11)" style="fill: none; stroke: #000000; stroke-opacity: 0.618182; stroke-width: 1.5; stroke-linecap: square"/>
   </g>
  </g>
  <g id="axes_10">
   <g id="FillBetweenPolyCollection_9">
    <defs>
     <path id="m5d09399ba3" d="M 16.359807 -174.616043 
L 16.359807 -174.616043 
L 22.668085 -174.616043 
L 28.976362 -174.616043 
L 35.28464 -174.616043 
L 41.592917 -174.616043 
L 47.901195 -174.616043 
L 54.209472 -174.616043 
L 60.51775 -174.616043 
L 66.826027 -174.616043 
L 73.134305 -174.616043 
L 79.442582 -174.616043 
L 85.75086 -174.616043 
L 92.059138 -174.616043 
L 98.367415 -174.616043 
L 104.675693 -174.616043 
L 110.98397 -174.616043 
L 117.292248 -174.616043 
L 123.600525 -174.616043 
L 129.908803 -174.616043 
L 136.21708 -174.616043 
L 142.525358 -174.616043 
L 148.833635 -174.616043 
L 155.141913 -174.616043 
L 161.45019 -174.616043 
L 167.758468 -174.616043 
L 174.066745 -174.616043 
L 174.066745 -174.616043 
L 174.066745 -174.616043 
L 167.758468 -189.935465 
L 161.45019 -174.616043 
L 155.141913 -174.616043 
L 148.833635 -174.616043 
L 142.525358 -174.616043 
L 136.21708 -174.616043 
L 129.908803 -174.616043 
L 123.600525 -174.616043 
L 117.292248 -174.616043 
L 110.98397 -174.616043 
L 104.675693 -174.616043 
L 98.367415 -174.616043 
L 92.059138 -174.616043 
L 85.75086 -182.275754 
L 79.442582 -174.616043 
L 73.134305 -174.616043 
L 66.826027 -174.616043 
L 60.51775 -174.616043 
L 54.209472 -182.275754 
L 47.901195 -182.275754 
L 41.592917 -197.595176 
L 35.28464 -174.616043 
L 28.976362 -205.254886 
L 22.668085 -235.893729 
L 16.359807 -174.616043 
z
" style="stroke: #ff4b44; stroke-opacity: 0.645455"/>
    </defs>
    <g clip-path="url(#p93e560bdf6)">
     <use xlink:href="#m5d09399ba3" x="0" y="337.40125" style="fill: #ff4b44; fill-opacity: 0.645455; stroke: #ff4b44; stroke-opacity: 0.645455"/>
    </g>
   </g>
   <g id="line2d_24">
    <path d="M 16.359807 162.785207 
L 22.668085 162.785207 
L 28.976362 162.785207 
L 35.28464 162.785207 
L 41.592917 162.785207 
L 47.901195 162.785207 
L 54.209472 162.785207 
L 60.51775 162.785207 
L 66.826027 162.785207 
L 73.134305 162.785207 
L 79.442582 162.785207 
L 85.75086 162.785207 
L 92.059138 162.785207 
L 98.367415 162.785207 
L 104.675693 162.785207 
L 110.98397 162.785207 
L 117.292248 162.785207 
L 123.600525 162.785207 
L 129.908803 162.785207 
L 136.21708 162.785207 
L 142.525358 162.785207 
L 148.833635 162.785207 
L 155.141913 162.785207 
L 161.45019 162.785207 
L 167.758468 162.785207 
L 174.066745 162.785207 
" clip-path="url(#p93e560bdf6)" style="fill: none; stroke: #ff4b44; stroke-opacity: 0.645455; stroke-width: 1.5; stroke-linecap: square"/>
   </g>
   <g id="line2d_25">
    <path d="M 16.359807 162.785207 
L 22.668085 101.507521 
L 28.976362 132.146364 
L 35.28464 162.785207 
L 41.592917 139.806074 
L 47.901195 155.125496 
L 54.209472 155.125496 
L 60.51775 162.785207 
L 66.826027 162.785207 
L 73.134305 162.785207 
L 79.442582 162.785207 
L 85.75086 155.125496 
L 92.059138 162.785207 
L 98.367415 162.785207 
L 104.675693 162.785207 
L 110.98397 162.785207 
L 117.292248 162.785207 
L 123.600525 162.785207 
L 129.908803 162.785207 
L 136.21708 162.785207 
L 142.525358 162.785207 
L 148.833635 162.785207 
L 155.141913 162.785207 
L 161.45019 162.785207 
L 167.758468 147.465785 
L 174.066745 162.785207 
" clip-path="url(#p93e560bdf6)" style="fill: none; stroke: #000000; stroke-opacity: 0.645455; stroke-width: 1.5; stroke-linecap: square"/>
   </g>
  </g>
  <g id="axes_11">
   <g id="FillBetweenPolyCollection_10">
    <defs>
     <path id="m16711708c7" d="M 15.307564 -163.210589 
L 15.307564 -163.210589 
L 22.220989 -163.210589 
L 29.134415 -163.210589 
L 36.04784 -163.210589 
L 42.961265 -163.210589 
L 49.874691 -163.210589 
L 56.788116 -163.210589 
L 63.701541 -163.210589 
L 70.614967 -163.210589 
L 77.528392 -163.210589 
L 84.441818 -163.210589 
L 91.355243 -163.210589 
L 98.268668 -163.210589 
L 105.182094 -163.210589 
L 112.095519 -163.210589 
L 119.008944 -163.210589 
L 125.92237 -163.210589 
L 132.835795 -163.210589 
L 139.749221 -163.210589 
L 146.662646 -163.210589 
L 153.576071 -163.210589 
L 160.489497 -163.210589 
L 167.402922 -163.210589 
L 174.316347 -163.210589 
L 181.229773 -163.210589 
L 188.143198 -163.210589 
L 188.143198 -163.210589 
L 188.143198 -163.210589 
L 181.229773 -170.019221 
L 174.316347 -170.019221 
L 167.402922 -163.210589 
L 160.489497 -163.210589 
L 153.576071 -163.210589 
L 146.662646 -163.210589 
L 139.749221 -163.210589 
L 132.835795 -163.210589 
L 125.92237 -163.210589 
L 119.008944 -163.210589 
L 112.095519 -163.210589 
L 105.182094 -163.210589 
L 98.268668 -163.210589 
L 91.355243 -170.019221 
L 84.441818 -163.210589 
L 77.528392 -163.210589 
L 70.614967 -163.210589 
L 63.701541 -163.210589 
L 56.788116 -170.019221 
L 49.874691 -176.827852 
L 42.961265 -170.019221 
L 36.04784 -163.210589 
L 29.134415 -190.445116 
L 22.220989 -224.488275 
L 15.307564 -163.210589 
z
" style="stroke: #ff4b44; stroke-opacity: 0.672727"/>
    </defs>
    <g clip-path="url(#pda7aa0a016)">
     <use xlink:href="#m16711708c7" x="0" y="337.40125" style="fill: #ff4b44; fill-opacity: 0.672727; stroke: #ff4b44; stroke-opacity: 0.672727"/>
    </g>
   </g>
   <g id="line2d_26">
    <path d="M 15.307564 174.190661 
L 22.220989 174.190661 
L 29.134415 174.190661 
L 36.04784 174.190661 
L 42.961265 174.190661 
L 49.874691 174.190661 
L 56.788116 174.190661 
L 63.701541 174.190661 
L 70.614967 174.190661 
L 77.528392 174.190661 
L 84.441818 174.190661 
L 91.355243 174.190661 
L 98.268668 174.190661 
L 105.182094 174.190661 
L 112.095519 174.190661 
L 119.008944 174.190661 
L 125.92237 174.190661 
L 132.835795 174.190661 
L 139.749221 174.190661 
L 146.662646 174.190661 
L 153.576071 174.190661 
L 160.489497 174.190661 
L 167.402922 174.190661 
L 174.316347 174.190661 
L 181.229773 174.190661 
L 188.143198 174.190661 
" clip-path="url(#pda7aa0a016)" style="fill: none; stroke: #ff4b44; stroke-opacity: 0.672727; stroke-width: 1.5; stroke-linecap: square"/>
   </g>
   <g id="line2d_27">
    <path d="M 15.307564 174.190661 
L 22.220989 112.912975 
L 29.134415 146.956134 
L 36.04784 174.190661 
L 42.961265 167.382029 
L 49.874691 160.573398 
L 56.788116 167.382029 
L 63.701541 174.190661 
L 70.614967 174.190661 
L 77.528392 174.190661 
L 84.441818 174.190661 
L 91.355243 167.382029 
L 98.268668 174.190661 
L 105.182094 174.190661 
L 112.095519 174.190661 
L 119.008944 174.190661 
L 125.92237 174.190661 
L 132.835795 174.190661 
L 139.749221 174.190661 
L 146.662646 174.190661 
L 153.576071 174.190661 
L 160.489497 174.190661 
L 167.402922 174.190661 
L 174.316347 167.382029 
L 181.229773 167.382029 
L 188.143198 174.190661 
" clip-path="url(#pda7aa0a016)" style="fill: none; stroke: #000000; stroke-opacity: 0.672727; stroke-width: 1.5; stroke-linecap: square"/>
   </g>
  </g>
  <g id="axes_12">
   <g id="FillBetweenPolyCollection_11">
    <defs>
     <path id="ma9654270b5" d="M 12.147693 -151.805134 
L 12.147693 -151.805134 
L 20.881169 -151.805134 
L 29.614644 -151.805134 
L 38.348119 -151.805134 
L 47.081594 -151.805134 
L 55.815069 -151.805134 
L 64.548544 -151.805134 
L 73.282019 -151.805134 
L 82.015495 -151.805134 
L 90.74897 -151.805134 
L 99.482445 -151.805134 
L 108.21592 -151.805134 
L 116.949395 -151.805134 
L 125.68287 -151.805134 
L 134.416345 -151.805134 
L 143.149821 -151.805134 
L 151.883296 -151.805134 
L 160.616771 -151.805134 
L 169.350246 -151.805134 
L 178.083721 -151.805134 
L 186.817196 -151.805134 
L 195.550671 -151.805134 
L 204.284147 -151.805134 
L 213.017622 -151.805134 
L 221.751097 -151.805134 
L 230.484572 -151.805134 
L 230.484572 -151.805134 
L 230.484572 -151.805134 
L 221.751097 -159.464845 
L 213.017622 -151.805134 
L 204.284147 -151.805134 
L 195.550671 -151.805134 
L 186.817196 -151.805134 
L 178.083721 -159.464845 
L 169.350246 -151.805134 
L 160.616771 -151.805134 
L 151.883296 -151.805134 
L 143.149821 -151.805134 
L 134.416345 -151.805134 
L 125.68287 -151.805134 
L 116.949395 -151.805134 
L 108.21592 -159.464845 
L 99.482445 -151.805134 
L 90.74897 -151.805134 
L 82.015495 -151.805134 
L 73.282019 -159.464845 
L 64.548544 -151.805134 
L 55.815069 -159.464845 
L 47.081594 -159.464845 
L 38.348119 -167.124556 
L 29.614644 -182.443977 
L 20.881169 -213.08282 
L 12.147693 -151.805134 
z
" style="stroke: #ff4b44; stroke-opacity: 0.7"/>
    </defs>
    <g clip-path="url(#p50e64e6995)">
     <use xlink:href="#ma9654270b5" x="0" y="337.40125" style="fill: #ff4b44; fill-opacity: 0.7; stroke: #ff4b44; stroke-opacity: 0.7"/>
    </g>
   </g>
   <g id="line2d_28">
    <path d="M 12.147693 185.596116 
L 20.881169 185.596116 
L 29.614644 185.596116 
L 38.348119 185.596116 
L 47.081594 185.596116 
L 55.815069 185.596116 
L 64.548544 185.596116 
L 73.282019 185.596116 
L 82.015495 185.596116 
L 90.74897 185.596116 
L 99.482445 185.596116 
L 108.21592 185.596116 
L 116.949395 185.596116 
L 125.68287 185.596116 
L 134.416345 185.596116 
L 143.149821 185.596116 
L 151.883296 185.596116 
L 160.616771 185.596116 
L 169.350246 185.596116 
L 178.083721 185.596116 
L 186.817196 185.596116 
L 195.550671 185.596116 
L 204.284147 185.596116 
L 213.017622 185.596116 
L 221.751097 185.596116 
L 230.484572 185.596116 
" clip-path="url(#p50e64e6995)" style="fill: none; stroke: #ff4b44; stroke-opacity: 0.7; stroke-width: 1.5; stroke-linecap: square"/>
   </g>
   <g id="line2d_29">
    <path d="M 12.147693 185.596116 
L 20.881169 124.31843 
L 29.614644 154.957273 
L 38.348119 170.276694 
L 47.081594 177.936405 
L 55.815069 177.936405 
L 64.548544 185.596116 
L 73.282019 177.936405 
L 82.015495 185.596116 
L 90.74897 185.596116 
L 99.482445 185.596116 
L 108.21592 177.936405 
L 116.949395 185.596116 
L 125.68287 185.596116 
L 134.416345 185.596116 
L 143.149821 185.596116 
L 151.883296 185.596116 
L 160.616771 185.596116 
L 169.350246 185.596116 
L 178.083721 177.936405 
L 186.817196 185.596116 
L 195.550671 185.596116 
L 204.284147 185.596116 
L 213.017622 185.596116 
L 221.751097 177.936405 
L 230.484572 185.596116 
" clip-path="url(#p50e64e6995)" style="fill: none; stroke: #000000; stroke-opacity: 0.7; stroke-width: 1.5; stroke-linecap: square"/>
   </g>
  </g>
  <g id="axes_13">
   <g id="FillBetweenPolyCollection_12">
    <defs>
     <path id="m05c26cacc4" d="M 13.417033 -140.39968 
L 13.417033 -140.39968 
L 21.406597 -140.39968 
L 29.39616 -140.39968 
L 37.385724 -140.39968 
L 45.375287 -140.39968 
L 53.364851 -140.39968 
L 61.354415 -140.39968 
L 69.343978 -140.39968 
L 77.333542 -140.39968 
L 85.323106 -140.39968 
L 93.312669 -140.39968 
L 101.302233 -140.39968 
L 109.291797 -140.39968 
L 117.28136 -140.39968 
L 125.270924 -140.39968 
L 133.260487 -140.39968 
L 141.250051 -140.39968 
L 149.239615 -140.39968 
L 157.229178 -140.39968 
L 165.218742 -140.39968 
L 173.208306 -140.39968 
L 181.197869 -140.39968 
L 189.187433 -140.39968 
L 197.176996 -140.39968 
L 205.16656 -140.39968 
L 213.156124 -140.39968 
L 213.156124 -140.39968 
L 213.156124 -140.39968 
L 205.16656 -160.825575 
L 197.176996 -140.39968 
L 189.187433 -140.39968 
L 181.197869 -140.39968 
L 173.208306 -140.39968 
L 165.218742 -140.39968 
L 157.229178 -140.39968 
L 149.239615 -140.39968 
L 141.250051 -140.39968 
L 133.260487 -140.39968 
L 125.270924 -150.612627 
L 117.28136 -140.39968 
L 109.291797 -140.39968 
L 101.302233 -140.39968 
L 93.312669 -140.39968 
L 85.323106 -140.39968 
L 77.333542 -150.612627 
L 69.343978 -150.612627 
L 61.354415 -140.39968 
L 53.364851 -150.612627 
L 45.375287 -160.825575 
L 37.385724 -150.612627 
L 29.39616 -201.677366 
L 21.406597 -191.464418 
L 13.417033 -140.39968 
z
" style="stroke: #ff4b44; stroke-opacity: 0.727273"/>
    </defs>
    <g clip-path="url(#p928e8b315a)">
     <use xlink:href="#m05c26cacc4" x="0" y="337.40125" style="fill: #ff4b44; fill-opacity: 0.727273; stroke: #ff4b44; stroke-opacity: 0.727273"/>
    </g>
   </g>
   <g id="line2d_30">
    <path d="M 13.417033 197.00157 
L 21.406597 197.00157 
L 29.39616 197.00157 
L 37.385724 197.00157 
L 45.375287 197.00157 
L 53.364851 197.00157 
L 61.354415 197.00157 
L 69.343978 197.00157 
L 77.333542 197.00157 
L 85.323106 197.00157 
L 93.312669 197.00157 
L 101.302233 197.00157 
L 109.291797 197.00157 
L 117.28136 197.00157 
L 125.270924 197.00157 
L 133.260487 197.00157 
L 141.250051 197.00157 
L 149.239615 197.00157 
L 157.229178 197.00157 
L 165.218742 197.00157 
L 173.208306 197.00157 
L 181.197869 197.00157 
L 189.187433 197.00157 
L 197.176996 197.00157 
L 205.16656 197.00157 
L 213.156124 197.00157 
" clip-path="url(#p928e8b315a)" style="fill: none; stroke: #ff4b44; stroke-opacity: 0.727273; stroke-width: 1.5; stroke-linecap: square"/>
   </g>
   <g id="line2d_31">
    <path d="M 13.417033 197.00157 
L 21.406597 145.936832 
L 29.39616 135.723884 
L 37.385724 186.788623 
L 45.375287 176.575675 
L 53.364851 186.788623 
L 61.354415 197.00157 
L 69.343978 186.788623 
L 77.333542 186.788623 
L 85.323106 197.00157 
L 93.312669 197.00157 
L 101.302233 197.00157 
L 109.291797 197.00157 
L 117.28136 197.00157 
L 125.270924 186.788623 
L 133.260487 197.00157 
L 141.250051 197.00157 
L 149.239615 197.00157 
L 157.229178 197.00157 
L 165.218742 197.00157 
L 173.208306 197.00157 
L 181.197869 197.00157 
L 189.187433 197.00157 
L 197.176996 197.00157 
L 205.16656 176.575675 
L 213.156124 197.00157 
" clip-path="url(#p928e8b315a)" style="fill: none; stroke: #000000; stroke-opacity: 0.727273; stroke-width: 1.5; stroke-linecap: square"/>
   </g>
  </g>
  <g id="axes_14">
   <g id="FillBetweenPolyCollection_13">
    <defs>
     <path id="m6f8512b309" d="M 15.809673 -128.994225 
L 15.809673 -128.994225 
L 24.561573 -128.994225 
L 33.313473 -128.994225 
L 42.065373 -128.994225 
L 50.817273 -128.994225 
L 59.569174 -128.994225 
L 68.321074 -128.994225 
L 77.072974 -128.994225 
L 85.824874 -128.994225 
L 94.576774 -128.994225 
L 103.328675 -128.994225 
L 112.080575 -128.994225 
L 120.832475 -128.994225 
L 129.584375 -128.994225 
L 138.336275 -128.994225 
L 147.088176 -128.994225 
L 155.840076 -128.994225 
L 164.591976 -128.994225 
L 173.343876 -128.994225 
L 182.095776 -128.994225 
L 190.847677 -128.994225 
L 199.599577 -128.994225 
L 208.351477 -128.994225 
L 217.103377 -128.994225 
L 225.855277 -128.994225 
L 234.607178 -128.994225 
L 234.607178 -128.994225 
L 234.607178 -128.994225 
L 225.855277 -139.207173 
L 217.103377 -139.207173 
L 208.351477 -128.994225 
L 199.599577 -128.994225 
L 190.847677 -128.994225 
L 182.095776 -128.994225 
L 173.343876 -128.994225 
L 164.591976 -128.994225 
L 155.840076 -128.994225 
L 147.088176 -139.207173 
L 138.336275 -128.994225 
L 129.584375 -128.994225 
L 120.832475 -128.994225 
L 112.080575 -128.994225 
L 103.328675 -128.994225 
L 94.576774 -128.994225 
L 85.824874 -139.207173 
L 77.072974 -139.207173 
L 68.321074 -128.994225 
L 59.569174 -149.420121 
L 50.817273 -139.207173 
L 42.065373 -139.207173 
L 33.313473 -190.271911 
L 24.561573 -180.058963 
L 15.809673 -128.994225 
z
" style="stroke: #ff4b44; stroke-opacity: 0.754545"/>
    </defs>
    <g clip-path="url(#p1c3d6df792)">
     <use xlink:href="#m6f8512b309" x="0" y="337.40125" style="fill: #ff4b44; fill-opacity: 0.754545; stroke: #ff4b44; stroke-opacity: 0.754545"/>
    </g>
   </g>
   <g id="line2d_32">
    <path d="M 15.809673 208.407025 
L 24.561573 208.407025 
L 33.313473 208.407025 
L 42.065373 208.407025 
L 50.817273 208.407025 
L 59.569174 208.407025 
L 68.321074 208.407025 
L 77.072974 208.407025 
L 85.824874 208.407025 
L 94.576774 208.407025 
L 103.328675 208.407025 
L 112.080575 208.407025 
L 120.832475 208.407025 
L 129.584375 208.407025 
L 138.336275 208.407025 
L 147.088176 208.407025 
L 155.840076 208.407025 
L 164.591976 208.407025 
L 173.343876 208.407025 
L 182.095776 208.407025 
L 190.847677 208.407025 
L 199.599577 208.407025 
L 208.351477 208.407025 
L 217.103377 208.407025 
L 225.855277 208.407025 
L 234.607178 208.407025 
" clip-path="url(#p1c3d6df792)" style="fill: none; stroke: #ff4b44; stroke-opacity: 0.754545; stroke-width: 1.5; stroke-linecap: square"/>
   </g>
   <g id="line2d_33">
    <path d="M 15.809673 208.407025 
L 24.561573 157.342287 
L 33.313473 147.129339 
L 42.065373 198.194077 
L 50.817273 198.194077 
L 59.569174 187.981129 
L 68.321074 208.407025 
L 77.072974 198.194077 
L 85.824874 198.194077 
L 94.576774 208.407025 
L 103.328675 208.407025 
L 112.080575 208.407025 
L 120.832475 208.407025 
L 129.584375 208.407025 
L 138.336275 208.407025 
L 147.088176 198.194077 
L 155.840076 208.407025 
L 164.591976 208.407025 
L 173.343876 208.407025 
L 182.095776 208.407025 
L 190.847677 208.407025 
L 199.599577 208.407025 
L 208.351477 208.407025 
L 217.103377 198.194077 
L 225.855277 198.194077 
L 234.607178 208.407025 
" clip-path="url(#p1c3d6df792)" style="fill: none; stroke: #000000; stroke-opacity: 0.754545; stroke-width: 1.5; stroke-linecap: square"/>
   </g>
  </g>
  <g id="axes_15">
   <g id="FillBetweenPolyCollection_14">
    <defs>
     <path id="m8834051eee" d="M 16.999973 -117.588771 
L 16.999973 -117.588771 
L 28.916376 -117.588771 
L 40.832779 -117.588771 
L 52.749182 -117.588771 
L 64.665585 -117.588771 
L 76.581988 -117.588771 
L 88.498391 -117.588771 
L 100.414794 -117.588771 
L 112.331197 -117.588771 
L 124.247601 -117.588771 
L 136.164004 -117.588771 
L 148.080407 -117.588771 
L 159.99681 -117.588771 
L 171.913213 -117.588771 
L 183.829616 -117.588771 
L 195.746019 -117.588771 
L 207.662422 -117.588771 
L 219.578825 -117.588771 
L 231.495228 -117.588771 
L 243.411631 -117.588771 
L 255.328034 -117.588771 
L 267.244437 -117.588771 
L 279.16084 -117.588771 
L 291.077243 -117.588771 
L 302.993646 -117.588771 
L 314.910049 -117.588771 
L 314.910049 -117.588771 
L 314.910049 -117.588771 
L 302.993646 -125.248481 
L 291.077243 -117.588771 
L 279.16084 -117.588771 
L 267.244437 -125.248481 
L 255.328034 -117.588771 
L 243.411631 -117.588771 
L 231.495228 -117.588771 
L 219.578825 -117.588771 
L 207.662422 -125.248481 
L 195.746019 -117.588771 
L 183.829616 -117.588771 
L 171.913213 -117.588771 
L 159.99681 -117.588771 
L 148.080407 -117.588771 
L 136.164004 -117.588771 
L 124.247601 -125.248481 
L 112.331197 -117.588771 
L 100.414794 -117.588771 
L 88.498391 -117.588771 
L 76.581988 -140.567903 
L 64.665585 -125.248481 
L 52.749182 -125.248481 
L 40.832779 -140.567903 
L 28.916376 -178.866457 
L 16.999973 -117.588771 
z
" style="stroke: #ff4b44; stroke-opacity: 0.781818"/>
    </defs>
    <g clip-path="url(#p48e6c44b43)">
     <use xlink:href="#m8834051eee" x="0" y="337.40125" style="fill: #ff4b44; fill-opacity: 0.781818; stroke: #ff4b44; stroke-opacity: 0.781818"/>
    </g>
   </g>
   <g id="line2d_34">
    <path d="M 16.999973 219.812479 
L 28.916376 219.812479 
L 40.832779 219.812479 
L 52.749182 219.812479 
L 64.665585 219.812479 
L 76.581988 219.812479 
L 88.498391 219.812479 
L 100.414794 219.812479 
L 112.331197 219.812479 
L 124.247601 219.812479 
L 136.164004 219.812479 
L 148.080407 219.812479 
L 159.99681 219.812479 
L 171.913213 219.812479 
L 183.829616 219.812479 
L 195.746019 219.812479 
L 207.662422 219.812479 
L 219.578825 219.812479 
L 231.495228 219.812479 
L 243.411631 219.812479 
L 255.328034 219.812479 
L 267.244437 219.812479 
L 279.16084 219.812479 
L 291.077243 219.812479 
L 302.993646 219.812479 
L 314.910049 219.812479 
" clip-path="url(#p48e6c44b43)" style="fill: none; stroke: #ff4b44; stroke-opacity: 0.781818; stroke-width: 1.5; stroke-linecap: square"/>
   </g>
   <g id="line2d_35">
    <path d="M 16.999973 219.812479 
L 28.916376 158.534793 
L 40.832779 196.833347 
L 52.749182 212.152769 
L 64.665585 212.152769 
L 76.581988 196.833347 
L 88.498391 219.812479 
L 100.414794 219.812479 
L 112.331197 219.812479 
L 124.247601 212.152769 
L 136.164004 219.812479 
L 148.080407 219.812479 
L 159.99681 219.812479 
L 171.913213 219.812479 
L 183.829616 219.812479 
L 195.746019 219.812479 
L 207.662422 212.152769 
L 219.578825 219.812479 
L 231.495228 219.812479 
L 243.411631 219.812479 
L 255.328034 219.812479 
L 267.244437 212.152769 
L 279.16084 219.812479 
L 291.077243 219.812479 
L 302.993646 212.152769 
L 314.910049 219.812479 
" clip-path="url(#p48e6c44b43)" style="fill: none; stroke: #000000; stroke-opacity: 0.781818; stroke-width: 1.5; stroke-linecap: square"/>
   </g>
  </g>
  <g id="axes_16">
   <g id="FillBetweenPolyCollection_15">
    <defs>
     <path id="m08707249d8" d="M 18.186609 -106.183316 
L 18.186609 -106.183316 
L 30.837711 -106.183316 
L 43.488813 -106.183316 
L 56.139915 -106.183316 
L 68.791017 -106.183316 
L 81.442119 -106.183316 
L 94.093222 -106.183316 
L 106.744324 -106.183316 
L 119.395426 -106.183316 
L 132.046528 -106.183316 
L 144.69763 -106.183316 
L 157.348732 -106.183316 
L 169.999834 -106.183316 
L 182.650936 -106.183316 
L 195.302038 -106.183316 
L 207.95314 -106.183316 
L 220.604242 -106.183316 
L 233.255344 -106.183316 
L 245.906446 -106.183316 
L 258.557548 -106.183316 
L 271.20865 -106.183316 
L 283.859752 -106.183316 
L 296.510854 -106.183316 
L 309.161956 -106.183316 
L 321.813058 -106.183316 
L 334.46416 -106.183316 
L 334.46416 -106.183316 
L 334.46416 -106.183316 
L 321.813058 -118.438853 
L 309.161956 -106.183316 
L 296.510854 -106.183316 
L 283.859752 -106.183316 
L 271.20865 -118.438853 
L 258.557548 -118.438853 
L 245.906446 -106.183316 
L 233.255344 -106.183316 
L 220.604242 -106.183316 
L 207.95314 -106.183316 
L 195.302038 -106.183316 
L 182.650936 -106.183316 
L 169.999834 -106.183316 
L 157.348732 -106.183316 
L 144.69763 -118.438853 
L 132.046528 -106.183316 
L 119.395426 -106.183316 
L 106.744324 -106.183316 
L 94.093222 -142.949928 
L 81.442119 -106.183316 
L 68.791017 -142.949928 
L 56.139915 -118.438853 
L 43.488813 -155.205465 
L 30.837711 -167.461002 
L 18.186609 -106.183316 
z
" style="stroke: #ff4b44; stroke-opacity: 0.809091"/>
    </defs>
    <g clip-path="url(#p818a105bf7)">
     <use xlink:href="#m08707249d8" x="0" y="337.40125" style="fill: #ff4b44; fill-opacity: 0.809091; stroke: #ff4b44; stroke-opacity: 0.809091"/>
    </g>
   </g>
   <g id="line2d_36">
    <path d="M 18.186609 231.217934 
L 30.837711 231.217934 
L 43.488813 231.217934 
L 56.139915 231.217934 
L 68.791017 231.217934 
L 81.442119 231.217934 
L 94.093222 231.217934 
L 106.744324 231.217934 
L 119.395426 231.217934 
L 132.046528 231.217934 
L 144.69763 231.217934 
L 157.348732 231.217934 
L 169.999834 231.217934 
L 182.650936 231.217934 
L 195.302038 231.217934 
L 207.95314 231.217934 
L 220.604242 231.217934 
L 233.255344 231.217934 
L 245.906446 231.217934 
L 258.557548 231.217934 
L 271.20865 231.217934 
L 283.859752 231.217934 
L 296.510854 231.217934 
L 309.161956 231.217934 
L 321.813058 231.217934 
L 334.46416 231.217934 
" clip-path="url(#p818a105bf7)" style="fill: none; stroke: #ff4b44; stroke-opacity: 0.809091; stroke-width: 1.5; stroke-linecap: square"/>
   </g>
   <g id="line2d_37">
    <path d="M 18.186609 231.217934 
L 30.837711 169.940248 
L 43.488813 182.195785 
L 56.139915 218.962397 
L 68.791017 194.451322 
L 81.442119 231.217934 
L 94.093222 194.451322 
L 106.744324 231.217934 
L 119.395426 231.217934 
L 132.046528 231.217934 
L 144.69763 218.962397 
L 157.348732 231.217934 
L 169.999834 231.217934 
L 182.650936 231.217934 
L 195.302038 231.217934 
L 207.95314 231.217934 
L 220.604242 231.217934 
L 233.255344 231.217934 
L 245.906446 231.217934 
L 258.557548 218.962397 
L 271.20865 218.962397 
L 283.859752 231.217934 
L 296.510854 231.217934 
L 309.161956 231.217934 
L 321.813058 218.962397 
L 334.46416 231.217934 
" clip-path="url(#p818a105bf7)" style="fill: none; stroke: #000000; stroke-opacity: 0.809091; stroke-width: 1.5; stroke-linecap: square"/>
   </g>
  </g>
  <g id="axes_17">
   <g id="FillBetweenPolyCollection_16">
    <defs>
     <path id="m7c18ed7647" d="M 17.84797 -94.777862 
L 17.84797 -94.777862 
L 27.94179 -94.777862 
L 38.03561 -94.777862 
L 48.12943 -94.777862 
L 58.22325 -94.777862 
L 68.31707 -94.777862 
L 78.410889 -94.777862 
L 88.504709 -94.777862 
L 98.598529 -94.777862 
L 108.692349 -94.777862 
L 118.786169 -94.777862 
L 128.879989 -94.777862 
L 138.973808 -94.777862 
L 149.067628 -94.777862 
L 159.161448 -94.777862 
L 169.255268 -94.777862 
L 179.349088 -94.777862 
L 189.442908 -94.777862 
L 199.536727 -94.777862 
L 209.630547 -94.777862 
L 219.724367 -94.777862 
L 229.818187 -94.777862 
L 239.912007 -94.777862 
L 250.005827 -94.777862 
L 260.099647 -94.777862 
L 270.193466 -94.777862 
L 270.193466 -94.777862 
L 270.193466 -94.777862 
L 260.099647 -125.416705 
L 250.005827 -94.777862 
L 239.912007 -94.777862 
L 229.818187 -94.777862 
L 219.724367 -94.777862 
L 209.630547 -110.097283 
L 199.536727 -94.777862 
L 189.442908 -94.777862 
L 179.349088 -94.777862 
L 169.255268 -94.777862 
L 159.161448 -94.777862 
L 149.067628 -94.777862 
L 138.973808 -94.777862 
L 128.879989 -110.097283 
L 118.786169 -94.777862 
L 108.692349 -110.097283 
L 98.598529 -94.777862 
L 88.504709 -110.097283 
L 78.410889 -110.097283 
L 68.31707 -125.416705 
L 58.22325 -125.416705 
L 48.12943 -110.097283 
L 38.03561 -156.055548 
L 27.94179 -156.055548 
L 17.84797 -94.777862 
z
" style="stroke: #ff4b44; stroke-opacity: 0.836364"/>
    </defs>
    <g clip-path="url(#pf7097620cc)">
     <use xlink:href="#m7c18ed7647" x="0" y="337.40125" style="fill: #ff4b44; fill-opacity: 0.836364; stroke: #ff4b44; stroke-opacity: 0.836364"/>
    </g>
   </g>
   <g id="line2d_38">
    <path d="M 17.84797 242.623388 
L 27.94179 242.623388 
L 38.03561 242.623388 
L 48.12943 242.623388 
L 58.22325 242.623388 
L 68.31707 242.623388 
L 78.410889 242.623388 
L 88.504709 242.623388 
L 98.598529 242.623388 
L 108.692349 242.623388 
L 118.786169 242.623388 
L 128.879989 242.623388 
L 138.973808 242.623388 
L 149.067628 242.623388 
L 159.161448 242.623388 
L 169.255268 242.623388 
L 179.349088 242.623388 
L 189.442908 242.623388 
L 199.536727 242.623388 
L 209.630547 242.623388 
L 219.724367 242.623388 
L 229.818187 242.623388 
L 239.912007 242.623388 
L 250.005827 242.623388 
L 260.099647 242.623388 
L 270.193466 242.623388 
" clip-path="url(#pf7097620cc)" style="fill: none; stroke: #ff4b44; stroke-opacity: 0.836364; stroke-width: 1.5; stroke-linecap: square"/>
   </g>
   <g id="line2d_39">
    <path d="M 17.84797 242.623388 
L 27.94179 181.345702 
L 38.03561 181.345702 
L 48.12943 227.303967 
L 58.22325 211.984545 
L 68.31707 211.984545 
L 78.410889 227.303967 
L 88.504709 227.303967 
L 98.598529 242.623388 
L 108.692349 227.303967 
L 118.786169 242.623388 
L 128.879989 227.303967 
L 138.973808 242.623388 
L 149.067628 242.623388 
L 159.161448 242.623388 
L 169.255268 242.623388 
L 179.349088 242.623388 
L 189.442908 242.623388 
L 199.536727 242.623388 
L 209.630547 227.303967 
L 219.724367 242.623388 
L 229.818187 242.623388 
L 239.912007 242.623388 
L 250.005827 242.623388 
L 260.099647 211.984545 
L 270.193466 242.623388 
" clip-path="url(#pf7097620cc)" style="fill: none; stroke: #000000; stroke-opacity: 0.836364; stroke-width: 1.5; stroke-linecap: square"/>
   </g>
  </g>
  <g id="axes_18">
   <g id="FillBetweenPolyCollection_17">
    <defs>
     <path id="m023924d7fd" d="M 16.496556 -83.372407 
L 16.496556 -83.372407 
L 25.338854 -83.372407 
L 34.181152 -83.372407 
L 43.02345 -83.372407 
L 51.865748 -83.372407 
L 60.708046 -83.372407 
L 69.550344 -83.372407 
L 78.392642 -83.372407 
L 87.23494 -83.372407 
L 96.077239 -83.372407 
L 104.919537 -83.372407 
L 113.761835 -83.372407 
L 122.604133 -83.372407 
L 131.446431 -83.372407 
L 140.288729 -83.372407 
L 149.131027 -83.372407 
L 157.973325 -83.372407 
L 166.815623 -83.372407 
L 175.657922 -83.372407 
L 184.50022 -83.372407 
L 193.342518 -83.372407 
L 202.184816 -83.372407 
L 211.027114 -83.372407 
L 219.869412 -83.372407 
L 228.71171 -83.372407 
L 237.554008 -83.372407 
L 237.554008 -83.372407 
L 237.554008 -83.372407 
L 228.71171 -114.01125 
L 219.869412 -98.691829 
L 211.027114 -83.372407 
L 202.184816 -83.372407 
L 193.342518 -83.372407 
L 184.50022 -83.372407 
L 175.657922 -83.372407 
L 166.815623 -83.372407 
L 157.973325 -83.372407 
L 149.131027 -83.372407 
L 140.288729 -83.372407 
L 131.446431 -83.372407 
L 122.604133 -114.01125 
L 113.761835 -83.372407 
L 104.919537 -83.372407 
L 96.077239 -83.372407 
L 87.23494 -114.01125 
L 78.392642 -83.372407 
L 69.550344 -114.01125 
L 60.708046 -98.691829 
L 51.865748 -98.691829 
L 43.02345 -114.01125 
L 34.181152 -129.330671 
L 25.338854 -144.650093 
L 16.496556 -83.372407 
z
" style="stroke: #ff4b44; stroke-opacity: 0.863636"/>
    </defs>
    <g clip-path="url(#p6fac4a9fd1)">
     <use xlink:href="#m023924d7fd" x="0" y="337.40125" style="fill: #ff4b44; fill-opacity: 0.863636; stroke: #ff4b44; stroke-opacity: 0.863636"/>
    </g>
   </g>
   <g id="line2d_40">
    <path d="M 16.496556 254.028843 
L 25.338854 254.028843 
L 34.181152 254.028843 
L 43.02345 254.028843 
L 51.865748 254.028843 
L 60.708046 254.028843 
L 69.550344 254.028843 
L 78.392642 254.028843 
L 87.23494 254.028843 
L 96.077239 254.028843 
L 104.919537 254.028843 
L 113.761835 254.028843 
L 122.604133 254.028843 
L 131.446431 254.028843 
L 140.288729 254.028843 
L 149.131027 254.028843 
L 157.973325 254.028843 
L 166.815623 254.028843 
L 175.657922 254.028843 
L 184.50022 254.028843 
L 193.342518 254.028843 
L 202.184816 254.028843 
L 211.027114 254.028843 
L 219.869412 254.028843 
L 228.71171 254.028843 
L 237.554008 254.028843 
" clip-path="url(#p6fac4a9fd1)" style="fill: none; stroke: #ff4b44; stroke-opacity: 0.863636; stroke-width: 1.5; stroke-linecap: square"/>
   </g>
   <g id="line2d_41">
    <path d="M 16.496556 254.028843 
L 25.338854 192.751157 
L 34.181152 208.070579 
L 43.02345 223.39 
L 51.865748 238.709421 
L 60.708046 238.709421 
L 69.550344 223.39 
L 78.392642 254.028843 
L 87.23494 223.39 
L 96.077239 254.028843 
L 104.919537 254.028843 
L 113.761835 254.028843 
L 122.604133 223.39 
L 131.446431 254.028843 
L 140.288729 254.028843 
L 149.131027 254.028843 
L 157.973325 254.028843 
L 166.815623 254.028843 
L 175.657922 254.028843 
L 184.50022 254.028843 
L 193.342518 254.028843 
L 202.184816 254.028843 
L 211.027114 254.028843 
L 219.869412 238.709421 
L 228.71171 223.39 
L 237.554008 254.028843 
" clip-path="url(#p6fac4a9fd1)" style="fill: none; stroke: #000000; stroke-opacity: 0.863636; stroke-width: 1.5; stroke-linecap: square"/>
   </g>
  </g>
  <g id="axes_19">
   <g id="FillBetweenPolyCollection_18">
    <defs>
     <path id="me0ef3912de" d="M 22.348996 -71.966952 
L 22.348996 -71.966952 
L 30.472141 -71.966952 
L 38.595287 -71.966952 
L 46.718432 -71.966952 
L 54.841577 -71.966952 
L 62.964723 -71.966952 
L 71.087868 -71.966952 
L 79.211013 -71.966952 
L 87.334158 -71.966952 
L 95.457304 -71.966952 
L 103.580449 -71.966952 
L 111.703594 -71.966952 
L 119.826739 -71.966952 
L 127.949885 -71.966952 
L 136.07303 -71.966952 
L 144.196175 -71.966952 
L 152.31932 -71.966952 
L 160.442466 -71.966952 
L 168.565611 -71.966952 
L 176.688756 -71.966952 
L 184.811901 -71.966952 
L 192.935047 -71.966952 
L 201.058192 -71.966952 
L 209.181337 -71.966952 
L 217.304482 -71.966952 
L 225.427628 -71.966952 
L 225.427628 -71.966952 
L 225.427628 -71.966952 
L 217.304482 -82.1799 
L 209.181337 -82.1799 
L 201.058192 -71.966952 
L 192.935047 -82.1799 
L 184.811901 -71.966952 
L 176.688756 -71.966952 
L 168.565611 -71.966952 
L 160.442466 -71.966952 
L 152.31932 -71.966952 
L 144.196175 -71.966952 
L 136.07303 -71.966952 
L 127.949885 -71.966952 
L 119.826739 -82.1799 
L 111.703594 -92.392848 
L 103.580449 -71.966952 
L 95.457304 -82.1799 
L 87.334158 -71.966952 
L 79.211013 -82.1799 
L 71.087868 -82.1799 
L 62.964723 -82.1799 
L 54.841577 -71.966952 
L 46.718432 -92.392848 
L 38.595287 -92.392848 
L 30.472141 -133.244638 
L 22.348996 -71.966952 
z
" style="stroke: #ff4b44; stroke-opacity: 0.890909"/>
    </defs>
    <g clip-path="url(#p2ce2e99bb4)">
     <use xlink:href="#me0ef3912de" x="0" y="337.40125" style="fill: #ff4b44; fill-opacity: 0.890909; stroke: #ff4b44; stroke-opacity: 0.890909"/>
    </g>
   </g>
   <g id="line2d_42">
    <path d="M 22.348996 265.434298 
L 30.472141 265.434298 
L 38.595287 265.434298 
L 46.718432 265.434298 
L 54.841577 265.434298 
L 62.964723 265.434298 
L 71.087868 265.434298 
L 79.211013 265.434298 
L 87.334158 265.434298 
L 95.457304 265.434298 
L 103.580449 265.434298 
L 111.703594 265.434298 
L 119.826739 265.434298 
L 127.949885 265.434298 
L 136.07303 265.434298 
L 144.196175 265.434298 
L 152.31932 265.434298 
L 160.442466 265.434298 
L 168.565611 265.434298 
L 176.688756 265.434298 
L 184.811901 265.434298 
L 192.935047 265.434298 
L 201.058192 265.434298 
L 209.181337 265.434298 
L 217.304482 265.434298 
L 225.427628 265.434298 
" clip-path="url(#p2ce2e99bb4)" style="fill: none; stroke: #ff4b44; stroke-opacity: 0.890909; stroke-width: 1.5; stroke-linecap: square"/>
   </g>
   <g id="line2d_43">
    <path d="M 22.348996 265.434298 
L 30.472141 204.156612 
L 38.595287 245.008402 
L 46.718432 245.008402 
L 54.841577 265.434298 
L 62.964723 255.22135 
L 71.087868 255.22135 
L 79.211013 255.22135 
L 87.334158 265.434298 
L 95.457304 255.22135 
L 103.580449 265.434298 
L 111.703594 245.008402 
L 119.826739 255.22135 
L 127.949885 265.434298 
L 136.07303 265.434298 
L 144.196175 265.434298 
L 152.31932 265.434298 
L 160.442466 265.434298 
L 168.565611 265.434298 
L 176.688756 265.434298 
L 184.811901 265.434298 
L 192.935047 255.22135 
L 201.058192 265.434298 
L 209.181337 255.22135 
L 217.304482 255.22135 
L 225.427628 265.434298 
" clip-path="url(#p2ce2e99bb4)" style="fill: none; stroke: #000000; stroke-opacity: 0.890909; stroke-width: 1.5; stroke-linecap: square"/>
   </g>
  </g>
  <g id="axes_20">
   <g id="FillBetweenPolyCollection_19">
    <defs>
     <path id="m785ade4558" d="M 21.220069 -60.561498 
L 21.220069 -60.561498 
L 31.098776 -60.561498 
L 40.977484 -60.561498 
L 50.856191 -60.561498 
L 60.734899 -60.561498 
L 70.613606 -60.561498 
L 80.492313 -60.561498 
L 90.371021 -60.561498 
L 100.249728 -60.561498 
L 110.128435 -60.561498 
L 120.007143 -60.561498 
L 129.88585 -60.561498 
L 139.764557 -60.561498 
L 149.643265 -60.561498 
L 159.521972 -60.561498 
L 169.400679 -60.561498 
L 179.279387 -60.561498 
L 189.158094 -60.561498 
L 199.036801 -60.561498 
L 208.915509 -60.561498 
L 218.794216 -60.561498 
L 228.672923 -60.561498 
L 238.551631 -60.561498 
L 248.430338 -60.561498 
L 258.309045 -60.561498 
L 268.187753 -60.561498 
L 268.187753 -60.561498 
L 268.187753 -60.561498 
L 258.309045 -72.817035 
L 248.430338 -60.561498 
L 238.551631 -72.817035 
L 228.672923 -60.561498 
L 218.794216 -60.561498 
L 208.915509 -60.561498 
L 199.036801 -60.561498 
L 189.158094 -60.561498 
L 179.279387 -60.561498 
L 169.400679 -60.561498 
L 159.521972 -72.817035 
L 149.643265 -60.561498 
L 139.764557 -60.561498 
L 129.88585 -72.817035 
L 120.007143 -60.561498 
L 110.128435 -72.817035 
L 100.249728 -60.561498 
L 90.371021 -60.561498 
L 80.492313 -85.072572 
L 70.613606 -85.072572 
L 60.734899 -60.561498 
L 50.856191 -97.32811 
L 40.977484 -121.839184 
L 31.098776 -97.32811 
L 21.220069 -60.561498 
z
" style="stroke: #ff4b44; stroke-opacity: 0.918182"/>
    </defs>
    <g clip-path="url(#p67c908c449)">
     <use xlink:href="#m785ade4558" x="0" y="337.40125" style="fill: #ff4b44; fill-opacity: 0.918182; stroke: #ff4b44; stroke-opacity: 0.918182"/>
    </g>
   </g>
   <g id="line2d_44">
    <path d="M 21.220069 276.839752 
L 31.098776 276.839752 
L 40.977484 276.839752 
L 50.856191 276.839752 
L 60.734899 276.839752 
L 70.613606 276.839752 
L 80.492313 276.839752 
L 90.371021 276.839752 
L 100.249728 276.839752 
L 110.128435 276.839752 
L 120.007143 276.839752 
L 129.88585 276.839752 
L 139.764557 276.839752 
L 149.643265 276.839752 
L 159.521972 276.839752 
L 169.400679 276.839752 
L 179.279387 276.839752 
L 189.158094 276.839752 
L 199.036801 276.839752 
L 208.915509 276.839752 
L 218.794216 276.839752 
L 228.672923 276.839752 
L 238.551631 276.839752 
L 248.430338 276.839752 
L 258.309045 276.839752 
L 268.187753 276.839752 
" clip-path="url(#p67c908c449)" style="fill: none; stroke: #ff4b44; stroke-opacity: 0.918182; stroke-width: 1.5; stroke-linecap: square"/>
   </g>
   <g id="line2d_45">
    <path d="M 21.220069 276.839752 
L 31.098776 240.07314 
L 40.977484 215.562066 
L 50.856191 240.07314 
L 60.734899 276.839752 
L 70.613606 252.328678 
L 80.492313 252.328678 
L 90.371021 276.839752 
L 100.249728 276.839752 
L 110.128435 264.584215 
L 120.007143 276.839752 
L 129.88585 264.584215 
L 139.764557 276.839752 
L 149.643265 276.839752 
L 159.521972 264.584215 
L 169.400679 276.839752 
L 179.279387 276.839752 
L 189.158094 276.839752 
L 199.036801 276.839752 
L 208.915509 276.839752 
L 218.794216 276.839752 
L 228.672923 276.839752 
L 238.551631 264.584215 
L 248.430338 276.839752 
L 258.309045 264.584215 
L 268.187753 276.839752 
" clip-path="url(#p67c908c449)" style="fill: none; stroke: #000000; stroke-opacity: 0.918182; stroke-width: 1.5; stroke-linecap: square"/>
   </g>
  </g>
  <g id="axes_21">
   <g id="FillBetweenPolyCollection_20">
    <defs>
     <path id="m50b3e4dc24" d="M 18.147613 -49.156043 
L 18.147613 -49.156043 
L 30.576463 -49.156043 
L 43.005313 -49.156043 
L 55.434163 -49.156043 
L 67.863012 -49.156043 
L 80.291862 -49.156043 
L 92.720712 -49.156043 
L 105.149562 -49.156043 
L 117.578412 -49.156043 
L 130.007262 -49.156043 
L 142.436111 -49.156043 
L 154.864961 -49.156043 
L 167.293811 -49.156043 
L 179.722661 -49.156043 
L 192.151511 -49.156043 
L 204.580361 -49.156043 
L 217.009211 -49.156043 
L 229.43806 -49.156043 
L 241.86691 -49.156043 
L 254.29576 -49.156043 
L 266.72461 -49.156043 
L 279.15346 -49.156043 
L 291.58231 -49.156043 
L 304.011159 -49.156043 
L 316.440009 -49.156043 
L 328.868859 -49.156043 
L 328.868859 -49.156043 
L 328.868859 -49.156043 
L 316.440009 -59.368991 
L 304.011159 -49.156043 
L 291.58231 -49.156043 
L 279.15346 -49.156043 
L 266.72461 -49.156043 
L 254.29576 -59.368991 
L 241.86691 -49.156043 
L 229.43806 -49.156043 
L 217.009211 -49.156043 
L 204.580361 -49.156043 
L 192.151511 -49.156043 
L 179.722661 -49.156043 
L 167.293811 -49.156043 
L 154.864961 -49.156043 
L 142.436111 -59.368991 
L 130.007262 -59.368991 
L 117.578412 -49.156043 
L 105.149562 -49.156043 
L 92.720712 -69.581939 
L 80.291862 -69.581939 
L 67.863012 -69.581939 
L 55.434163 -59.368991 
L 43.005313 -110.433729 
L 30.576463 -79.794886 
L 18.147613 -49.156043 
z
" style="stroke: #ff4b44; stroke-opacity: 0.945455"/>
    </defs>
    <g clip-path="url(#p7ccd77f8c4)">
     <use xlink:href="#m50b3e4dc24" x="0" y="337.40125" style="fill: #ff4b44; fill-opacity: 0.945455; stroke: #ff4b44; stroke-opacity: 0.945455"/>
    </g>
   </g>
   <g id="line2d_46">
    <path d="M 18.147613 288.245207 
L 30.576463 288.245207 
L 43.005313 288.245207 
L 55.434163 288.245207 
L 67.863012 288.245207 
L 80.291862 288.245207 
L 92.720712 288.245207 
L 105.149562 288.245207 
L 117.578412 288.245207 
L 130.007262 288.245207 
L 142.436111 288.245207 
L 154.864961 288.245207 
L 167.293811 288.245207 
L 179.722661 288.245207 
L 192.151511 288.245207 
L 204.580361 288.245207 
L 217.009211 288.245207 
L 229.43806 288.245207 
L 241.86691 288.245207 
L 254.29576 288.245207 
L 266.72461 288.245207 
L 279.15346 288.245207 
L 291.58231 288.245207 
L 304.011159 288.245207 
L 316.440009 288.245207 
L 328.868859 288.245207 
" clip-path="url(#p7ccd77f8c4)" style="fill: none; stroke: #ff4b44; stroke-opacity: 0.945455; stroke-width: 1.5; stroke-linecap: square"/>
   </g>
   <g id="line2d_47">
    <path d="M 18.147613 288.245207 
L 30.576463 257.606364 
L 43.005313 226.967521 
L 55.434163 278.032259 
L 67.863012 267.819311 
L 80.291862 267.819311 
L 92.720712 267.819311 
L 105.149562 288.245207 
L 117.578412 288.245207 
L 130.007262 278.032259 
L 142.436111 278.032259 
L 154.864961 288.245207 
L 167.293811 288.245207 
L 179.722661 288.245207 
L 192.151511 288.245207 
L 204.580361 288.245207 
L 217.009211 288.245207 
L 229.43806 288.245207 
L 241.86691 288.245207 
L 254.29576 278.032259 
L 266.72461 288.245207 
L 279.15346 288.245207 
L 291.58231 288.245207 
L 304.011159 288.245207 
L 316.440009 278.032259 
L 328.868859 288.245207 
" clip-path="url(#p7ccd77f8c4)" style="fill: none; stroke: #000000; stroke-opacity: 0.945455; stroke-width: 1.5; stroke-linecap: square"/>
   </g>
  </g>
  <g id="axes_22">
   <g id="FillBetweenPolyCollection_21">
    <defs>
     <path id="me3a75c2cb1" d="M 12.936673 -37.750589 
L 12.936673 -37.750589 
L 27.93029 -37.750589 
L 42.923907 -37.750589 
L 57.917525 -37.750589 
L 72.911142 -37.750589 
L 87.904759 -37.750589 
L 102.898376 -37.750589 
L 117.891994 -37.750589 
L 132.885611 -37.750589 
L 147.879228 -37.750589 
L 162.872845 -37.750589 
L 177.866463 -37.750589 
L 192.86008 -37.750589 
L 207.853697 -37.750589 
L 222.847314 -37.750589 
L 237.840931 -37.750589 
L 252.834549 -37.750589 
L 267.828166 -37.750589 
L 282.821783 -37.750589 
L 297.8154 -37.750589 
L 312.809018 -37.750589 
L 327.802635 -37.750589 
L 342.796252 -37.750589 
L 357.789869 -37.750589 
L 372.783487 -37.750589 
L 387.777104 -37.750589 
L 387.777104 -37.750589 
L 387.777104 -37.750589 
L 372.783487 -47.963537 
L 357.789869 -37.750589 
L 342.796252 -37.750589 
L 327.802635 -37.750589 
L 312.809018 -37.750589 
L 297.8154 -47.963537 
L 282.821783 -37.750589 
L 267.828166 -37.750589 
L 252.834549 -37.750589 
L 237.840931 -37.750589 
L 222.847314 -37.750589 
L 207.853697 -37.750589 
L 192.86008 -37.750589 
L 177.866463 -37.750589 
L 162.872845 -47.963537 
L 147.879228 -37.750589 
L 132.885611 -37.750589 
L 117.891994 -47.963537 
L 102.898376 -47.963537 
L 87.904759 -58.176484 
L 72.911142 -47.963537 
L 57.917525 -58.176484 
L 42.923907 -78.602379 
L 27.93029 -99.028275 
L 12.936673 -37.750589 
z
" style="stroke: #ff4b44; stroke-opacity: 0.972727"/>
    </defs>
    <g clip-path="url(#p8370c244ad)">
     <use xlink:href="#me3a75c2cb1" x="0" y="337.40125" style="fill: #ff4b44; fill-opacity: 0.972727; stroke: #ff4b44; stroke-opacity: 0.972727"/>
    </g>
   </g>
   <g id="line2d_48">
    <path d="M 12.936673 299.650661 
L 27.93029 299.650661 
L 42.923907 299.650661 
L 57.917525 299.650661 
L 72.911142 299.650661 
L 87.904759 299.650661 
L 102.898376 299.650661 
L 117.891994 299.650661 
L 132.885611 299.650661 
L 147.879228 299.650661 
L 162.872845 299.650661 
L 177.866463 299.650661 
L 192.86008 299.650661 
L 207.853697 299.650661 
L 222.847314 299.650661 
L 237.840931 299.650661 
L 252.834549 299.650661 
L 267.828166 299.650661 
L 282.821783 299.650661 
L 297.8154 299.650661 
L 312.809018 299.650661 
L 327.802635 299.650661 
L 342.796252 299.650661 
L 357.789869 299.650661 
L 372.783487 299.650661 
L 387.777104 299.650661 
" clip-path="url(#p8370c244ad)" style="fill: none; stroke: #ff4b44; stroke-opacity: 0.972727; stroke-width: 1.5; stroke-linecap: square"/>
   </g>
   <g id="line2d_49">
    <path d="M 12.936673 299.650661 
L 27.93029 238.372975 
L 42.923907 258.798871 
L 57.917525 279.224766 
L 72.911142 289.437713 
L 87.904759 279.224766 
L 102.898376 289.437713 
L 117.891994 289.437713 
L 132.885611 299.650661 
L 147.879228 299.650661 
L 162.872845 289.437713 
L 177.866463 299.650661 
L 192.86008 299.650661 
L 207.853697 299.650661 
L 222.847314 299.650661 
L 237.840931 299.650661 
L 252.834549 299.650661 
L 267.828166 299.650661 
L 282.821783 299.650661 
L 297.8154 289.437713 
L 312.809018 299.650661 
L 327.802635 299.650661 
L 342.796252 299.650661 
L 357.789869 299.650661 
L 372.783487 289.437713 
L 387.777104 299.650661 
" clip-path="url(#p8370c244ad)" style="fill: none; stroke: #000000; stroke-opacity: 0.972727; stroke-width: 1.5; stroke-linecap: square"/>
   </g>
  </g>
  <g id="axes_23">
   <g id="FillBetweenPolyCollection_22">
    <defs>
     <path id="m1b4557d3ee" d="M 16.134205 -26.345134 
L 16.134205 -26.345134 
L 31.555974 -26.345134 
L 46.977744 -26.345134 
L 62.399513 -26.345134 
L 77.821282 -26.345134 
L 93.243052 -26.345134 
L 108.664821 -26.345134 
L 124.086591 -26.345134 
L 139.50836 -26.345134 
L 154.930129 -26.345134 
L 170.351899 -26.345134 
L 185.773668 -26.345134 
L 201.195438 -26.345134 
L 216.617207 -26.345134 
L 232.038976 -26.345134 
L 247.460746 -26.345134 
L 262.882515 -26.345134 
L 278.304285 -26.345134 
L 293.726054 -26.345134 
L 309.147823 -26.345134 
L 324.569593 -26.345134 
L 339.991362 -26.345134 
L 355.413132 -26.345134 
L 370.834901 -26.345134 
L 386.25667 -26.345134 
L 401.67844 -26.345134 
L 401.67844 -26.345134 
L 401.67844 -26.345134 
L 386.25667 -33.153766 
L 370.834901 -26.345134 
L 355.413132 -26.345134 
L 339.991362 -26.345134 
L 324.569593 -26.345134 
L 309.147823 -33.153766 
L 293.726054 -26.345134 
L 278.304285 -26.345134 
L 262.882515 -26.345134 
L 247.460746 -26.345134 
L 232.038976 -26.345134 
L 216.617207 -26.345134 
L 201.195438 -26.345134 
L 185.773668 -33.153766 
L 170.351899 -26.345134 
L 154.930129 -26.345134 
L 139.50836 -26.345134 
L 124.086591 -26.345134 
L 108.664821 -33.153766 
L 93.243052 -33.153766 
L 77.821282 -33.153766 
L 62.399513 -39.962398 
L 46.977744 -46.77103 
L 31.555974 -87.62282 
L 16.134205 -26.345134 
z
" style="stroke: #ff4b44"/>
    </defs>
    <g clip-path="url(#pa3788aceb4)">
     <use xlink:href="#m1b4557d3ee" x="0" y="337.40125" style="fill: #ff4b44; stroke: #ff4b44"/>
    </g>
   </g>
   <g id="line2d_50">
    <path d="M 16.134205 311.056116 
L 31.555974 311.056116 
L 46.977744 311.056116 
L 62.399513 311.056116 
L 77.821282 311.056116 
L 93.243052 311.056116 
L 108.664821 311.056116 
L 124.086591 311.056116 
L 139.50836 311.056116 
L 154.930129 311.056116 
L 170.351899 311.056116 
L 185.773668 311.056116 
L 201.195438 311.056116 
L 216.617207 311.056116 
L 232.038976 311.056116 
L 247.460746 311.056116 
L 262.882515 311.056116 
L 278.304285 311.056116 
L 293.726054 311.056116 
L 309.147823 311.056116 
L 324.569593 311.056116 
L 339.991362 311.056116 
L 355.413132 311.056116 
L 370.834901 311.056116 
L 386.25667 311.056116 
L 401.67844 311.056116 
" clip-path="url(#pa3788aceb4)" style="fill: none; stroke: #ff4b44; stroke-width: 1.5; stroke-linecap: square"/>
   </g>
   <g id="line2d_51">
    <path d="M 16.134205 311.056116 
L 31.555974 249.77843 
L 46.977744 290.63022 
L 62.399513 297.438852 
L 77.821282 304.247484 
L 93.243052 304.247484 
L 108.664821 304.247484 
L 124.086591 311.056116 
L 139.50836 311.056116 
L 154.930129 311.056116 
L 170.351899 311.056116 
L 185.773668 304.247484 
L 201.195438 311.056116 
L 216.617207 311.056116 
L 232.038976 311.056116 
L 247.460746 311.056116 
L 262.882515 311.056116 
L 278.304285 311.056116 
L 293.726054 311.056116 
L 309.147823 304.247484 
L 324.569593 311.056116 
L 339.991362 311.056116 
L 355.413132 311.056116 
L 370.834901 311.056116 
L 386.25667 304.247484 
L 401.67844 311.056116 
" clip-path="url(#pa3788aceb4)" style="fill: none; stroke: #000000; stroke-width: 1.5; stroke-linecap: square"/>
   </g>
  </g>
  <g id="text_8">
   <!-- La Liga -->
   <g style="fill: #ff4b44" transform="translate(226.001254 100.08) scale(0.18 -0.18)">
    <defs>
     <path id="Lato-Regular-4c" d="M 1178 522 
L 3162 522 
L 3162 0 
L 557 0 
L 557 4586 
L 1178 4586 
L 1178 522 
z
" transform="scale(0.015625)"/>
     <path id="Lato-Regular-61" d="M 2848 0 
L 2595 0 
Q 2512 0 2461 25 
Q 2410 51 2394 134 
L 2330 435 
Q 2202 320 2080 229 
Q 1958 138 1824 75 
Q 1690 13 1538 -19 
Q 1386 -51 1200 -51 
Q 1011 -51 846 1 
Q 682 54 560 160 
Q 438 266 366 427 
Q 294 589 294 810 
Q 294 1002 400 1179 
Q 506 1357 741 1494 
Q 976 1632 1357 1720 
Q 1738 1808 2288 1821 
L 2288 2074 
Q 2288 2451 2126 2644 
Q 1965 2838 1648 2838 
Q 1440 2838 1297 2785 
Q 1155 2733 1051 2667 
Q 947 2602 872 2549 
Q 797 2496 723 2496 
Q 666 2496 622 2526 
Q 579 2557 554 2602 
L 451 2784 
Q 720 3043 1030 3171 
Q 1341 3299 1718 3299 
Q 1990 3299 2201 3209 
Q 2413 3120 2557 2960 
Q 2701 2800 2774 2573 
Q 2848 2346 2848 2074 
L 2848 0 
z
M 1370 349 
Q 1520 349 1645 379 
Q 1770 410 1880 466 
Q 1990 522 2091 602 
Q 2192 682 2288 784 
L 2288 1459 
Q 1894 1446 1619 1396 
Q 1344 1347 1171 1267 
Q 998 1187 920 1078 
Q 842 970 842 835 
Q 842 707 883 614 
Q 925 522 995 462 
Q 1066 403 1162 376 
Q 1258 349 1370 349 
z
" transform="scale(0.015625)"/>
     <path id="Lato-Regular-20" transform="scale(0.015625)"/>
     <path id="Lato-Regular-69" d="M 1101 3242 
L 1101 0 
L 531 0 
L 531 3242 
L 1101 3242 
z
M 1229 4259 
Q 1229 4176 1195 4104 
Q 1162 4032 1106 3976 
Q 1050 3920 976 3888 
Q 902 3856 819 3856 
Q 736 3856 664 3888 
Q 592 3920 536 3976 
Q 480 4032 448 4104 
Q 416 4176 416 4259 
Q 416 4342 448 4417 
Q 480 4493 536 4549 
Q 592 4605 664 4637 
Q 736 4669 819 4669 
Q 902 4669 976 4637 
Q 1050 4605 1106 4549 
Q 1162 4493 1195 4417 
Q 1229 4342 1229 4259 
z
" transform="scale(0.015625)"/>
     <path id="Lato-Regular-67" d="M 1558 3296 
Q 1770 3296 1954 3249 
Q 2138 3203 2288 3114 
L 3168 3114 
L 3168 2902 
Q 3168 2797 3034 2768 
L 2666 2717 
Q 2774 2509 2774 2253 
Q 2774 2016 2683 1822 
Q 2592 1629 2430 1491 
Q 2269 1354 2046 1280 
Q 1824 1206 1558 1206 
Q 1331 1206 1130 1261 
Q 1027 1197 974 1123 
Q 922 1050 922 979 
Q 922 864 1014 805 
Q 1107 746 1260 720 
Q 1414 694 1609 688 
Q 1805 682 2008 667 
Q 2211 653 2406 617 
Q 2602 582 2755 502 
Q 2909 422 3001 281 
Q 3094 141 3094 -83 
Q 3094 -291 2990 -486 
Q 2886 -682 2691 -834 
Q 2496 -986 2214 -1077 
Q 1933 -1168 1578 -1168 
Q 1222 -1168 955 -1097 
Q 688 -1027 512 -908 
Q 336 -790 248 -635 
Q 160 -480 160 -310 
Q 160 -70 312 98 
Q 464 266 730 365 
Q 592 429 510 536 
Q 429 643 429 822 
Q 429 893 454 968 
Q 480 1043 533 1116 
Q 586 1190 662 1257 
Q 739 1325 842 1376 
Q 602 1510 466 1732 
Q 330 1955 330 2253 
Q 330 2490 421 2683 
Q 512 2877 675 3013 
Q 838 3149 1064 3222 
Q 1290 3296 1558 3296 
z
M 2570 -176 
Q 2570 -54 2502 19 
Q 2435 93 2320 133 
Q 2205 173 2054 192 
Q 1904 211 1737 219 
Q 1571 227 1398 236 
Q 1226 246 1069 272 
Q 886 186 772 61 
Q 659 -64 659 -237 
Q 659 -346 715 -440 
Q 771 -534 886 -603 
Q 1002 -672 1176 -712 
Q 1350 -752 1587 -752 
Q 1818 -752 2000 -710 
Q 2182 -669 2308 -592 
Q 2435 -515 2502 -409 
Q 2570 -304 2570 -176 
z
M 1558 1584 
Q 1731 1584 1864 1632 
Q 1997 1680 2086 1766 
Q 2176 1853 2221 1973 
Q 2266 2093 2266 2237 
Q 2266 2534 2085 2710 
Q 1904 2886 1558 2886 
Q 1216 2886 1035 2710 
Q 854 2534 854 2237 
Q 854 2093 900 1973 
Q 947 1853 1036 1766 
Q 1126 1680 1257 1632 
Q 1389 1584 1558 1584 
z
" transform="scale(0.015625)"/>
    </defs>
    <use xlink:href="#Lato-Regular-4c"/>
    <use xlink:href="#Lato-Regular-61" transform="translate(51.400009 0)"/>
    <use xlink:href="#Lato-Regular-20" transform="translate(102.100021 0)"/>
    <use xlink:href="#Lato-Regular-4c" transform="translate(121.400024 0)"/>
    <use xlink:href="#Lato-Regular-69" transform="translate(172.800034 0)"/>
    <use xlink:href="#Lato-Regular-67" transform="translate(198.40004 0)"/>
    <use xlink:href="#Lato-Regular-61" transform="translate(249.500046 0)"/>
   </g>
  </g>
 </g>
 <defs>
  <clipPath id="pd67438cddb">
   <rect x="7.378117" y="7.2" width="438.223137" height="67.405455"/>
  </clipPath>
  <clipPath id="p6fa53d9c76">
   <rect x="7.378117" y="18.605455" width="438.223137" height="67.405455"/>
  </clipPath>
  <clipPath id="pab49324892">
   <rect x="7.378117" y="30.010909" width="438.223137" height="67.405455"/>
  </clipPath>
  <clipPath id="p0fc56d534f">
   <rect x="7.378117" y="41.416364" width="438.223137" height="67.405455"/>
  </clipPath>
  <clipPath id="pec40658e27">
   <rect x="7.378117" y="52.821818" width="438.223137" height="67.405455"/>
  </clipPath>
  <clipPath id="p04e6ba05b1">
   <rect x="7.378117" y="64.227273" width="438.223137" height="67.405455"/>
  </clipPath>
  <clipPath id="p0209ac6a8b">
   <rect x="7.378117" y="75.632727" width="438.223137" height="67.405455"/>
  </clipPath>
  <clipPath id="p26129e9b11">
   <rect x="7.378117" y="87.038182" width="438.223137" height="67.405455"/>
  </clipPath>
  <clipPath id="p93e560bdf6">
   <rect x="7.378117" y="98.443636" width="438.223137" height="67.405455"/>
  </clipPath>
  <clipPath id="pda7aa0a016">
   <rect x="7.378117" y="109.849091" width="438.223137" height="67.405455"/>
  </clipPath>
  <clipPath id="p50e64e6995">
   <rect x="7.378117" y="121.254545" width="438.223137" height="67.405455"/>
  </clipPath>
  <clipPath id="p928e8b315a">
   <rect x="7.378117" y="132.66" width="438.223137" height="67.405455"/>
  </clipPath>
  <clipPath id="p1c3d6df792">
   <rect x="7.378117" y="144.065455" width="438.223137" height="67.405455"/>
  </clipPath>
  <clipPath id="p48e6c44b43">
   <rect x="7.378117" y="155.470909" width="438.223137" height="67.405455"/>
  </clipPath>
  <clipPath id="p818a105bf7">
   <rect x="7.378117" y="166.876364" width="438.223137" height="67.405455"/>
  </clipPath>
  <clipPath id="pf7097620cc">
   <rect x="7.378117" y="178.281818" width="438.223137" height="67.405455"/>
  </clipPath>
  <clipPath id="p6fac4a9fd1">
   <rect x="7.378117" y="189.687273" width="438.223137" height="67.405455"/>
  </clipPath>
  <clipPath id="p2ce2e99bb4">
   <rect x="7.378117" y="201.092727" width="438.223137" height="67.405455"/>
  </clipPath>
  <clipPath id="p67c908c449">
   <rect x="7.378117" y="212.498182" width="438.223137" height="67.405455"/>
  </clipPath>
  <clipPath id="p7ccd77f8c4">
   <rect x="7.378117" y="223.903636" width="438.223137" height="67.405455"/>
  </clipPath>
  <clipPath id="p8370c244ad">
   <rect x="7.378117" y="235.309091" width="438.223137" height="67.405455"/>
  </clipPath>
  <clipPath id="pa3788aceb4">
   <rect x="7.378117" y="246.714545" width="438.223137" height="67.405455"/>
  </clipPath>
 </defs>
</svg>
