<?xml version="1.0" encoding="utf-8" standalone="no"?>
<!DOCTYPE svg PUBLIC "-//W3C//DTD SVG 1.1//EN"
  "http://www.w3.org/Graphics/SVG/1.1/DTD/svg11.dtd">
<svg xmlns:xlink="http://www.w3.org/1999/xlink" width="453.6pt" height="337.40125pt" viewBox="0 0 453.6 337.40125" xmlns="http://www.w3.org/2000/svg" version="1.1">
 <metadata>
  <rdf:RDF xmlns:dc="http://purl.org/dc/elements/1.1/" xmlns:cc="http://creativecommons.org/ns#" xmlns:rdf="http://www.w3.org/1999/02/22-rdf-syntax-ns#">
   <cc:Work>
    <dc:type rdf:resource="http://purl.org/dc/dcmitype/StillImage"/>
    <dc:date>2025-11-26T11:50:02.869975</dc:date>
    <dc:format>image/svg+xml</dc:format>
    <dc:creator>
     <cc:Agent>
      <dc:title>Matplotlib v3.10.5, https://matplotlib.org/</dc:title>
     </cc:Agent>
    </dc:creator>
   </cc:Work>
  </rdf:RDF>
 </metadata>
 <defs>
  <style type="text/css">*{stroke-linejoin: round; stroke-linecap: butt}</style>
 </defs>
 <g id="figure_1">
  <g id="patch_1">
   <path d="M 0 337.40125 
L 453.6 337.40125 
L 453.6 0 
L 0 0 
z
" style="fill: #f5f5dc"/>
  </g>
  <g id="axes_1">
   <g id="patch_2">
    <path d="M 7.2 314.12 
L 446.4 314.12 
L 446.4 7.2 
L 7.2 7.2 
z
" style="fill: #f5f5dc"/>
   </g>
   <g id="matplotlib.axis_1">
    <g id="xtick_1">
     <g id="line2d_1">
      <defs>
       <path id="m1e24a015f1" d="M 0 0 
L 0 3.5 
" style="stroke: #000000; stroke-width: 0.8"/>
      </defs>
      <g>
       <use xlink:href="#m1e24a015f1" x="75.825" y="314.12" style="stroke: #000000; stroke-width: 0.8"/>
      </g>
     </g>
     <g id="text_1">
      <!-- €250M -->
      <g transform="translate(59.625 328.485625) scale(0.1 -0.1)">
       <defs>
        <path id="Lato-Regular-20ac" d="M 109 2877 
L 579 2877 
Q 643 3280 795 3605 
Q 947 3930 1172 4158 
Q 1398 4387 1692 4508 
Q 1987 4630 2333 4630 
Q 2762 4630 3066 4470 
Q 3370 4310 3594 4029 
L 3398 3811 
Q 3373 3782 3347 3761 
Q 3322 3741 3277 3741 
Q 3222 3741 3163 3801 
Q 3104 3862 3005 3936 
Q 2906 4010 2750 4070 
Q 2595 4131 2355 4131 
Q 1888 4131 1579 3811 
Q 1270 3491 1168 2877 
L 2918 2877 
L 2918 2701 
Q 2918 2643 2875 2596 
Q 2832 2550 2755 2550 
L 1130 2550 
Q 1126 2486 1124 2422 
Q 1123 2358 1123 2291 
Q 1123 2240 1123 2192 
Q 1123 2144 1126 2096 
L 2621 2096 
L 2621 1917 
Q 2621 1862 2576 1816 
Q 2531 1770 2454 1770 
L 1155 1770 
Q 1245 1110 1552 780 
Q 1859 451 2326 451 
Q 2499 451 2630 484 
Q 2762 518 2858 569 
Q 2954 621 3022 680 
Q 3091 739 3142 790 
Q 3194 842 3234 875 
Q 3274 909 3312 909 
Q 3338 909 3357 897 
Q 3376 886 3402 864 
L 3642 640 
Q 3418 314 3085 133 
Q 2752 -48 2294 -48 
Q 1923 -48 1625 78 
Q 1328 205 1110 440 
Q 893 675 753 1012 
Q 614 1350 563 1770 
L 109 1770 
L 109 2096 
L 538 2096 
Q 534 2144 534 2192 
Q 534 2240 534 2291 
Q 534 2355 536 2420 
Q 538 2486 541 2550 
L 109 2550 
L 109 2877 
z
" transform="scale(0.015625)"/>
        <path id="Lato-Regular-32" d="M 1923 4637 
Q 2214 4637 2467 4550 
Q 2720 4464 2904 4299 
Q 3088 4134 3193 3897 
Q 3299 3661 3299 3360 
Q 3299 3104 3222 2886 
Q 3146 2669 3014 2469 
Q 2883 2269 2712 2081 
Q 2541 1894 2349 1699 
L 1142 464 
Q 1270 499 1401 520 
Q 1533 541 1654 541 
L 3190 541 
Q 3283 541 3337 486 
Q 3392 432 3392 346 
L 3392 0 
L 333 0 
L 333 195 
Q 333 256 357 320 
Q 381 384 435 438 
L 1904 1914 
Q 2086 2099 2236 2270 
Q 2387 2442 2494 2614 
Q 2602 2787 2659 2964 
Q 2717 3142 2717 3344 
Q 2717 3546 2653 3698 
Q 2589 3850 2477 3949 
Q 2365 4048 2214 4097 
Q 2064 4147 1891 4147 
Q 1718 4147 1571 4096 
Q 1424 4045 1310 3953 
Q 1197 3862 1118 3737 
Q 1040 3613 1008 3462 
Q 982 3370 931 3328 
Q 880 3286 797 3286 
Q 781 3286 763 3288 
Q 746 3290 723 3293 
L 426 3344 
Q 470 3658 598 3899 
Q 726 4141 923 4304 
Q 1120 4467 1374 4552 
Q 1629 4637 1923 4637 
z
" transform="scale(0.015625)"/>
        <path id="Lato-Regular-35" d="M 3130 4336 
Q 3130 4214 3053 4136 
Q 2976 4058 2794 4058 
L 1354 4058 
L 1142 2854 
Q 1501 2931 1805 2931 
Q 2163 2931 2436 2825 
Q 2710 2720 2896 2534 
Q 3082 2349 3176 2096 
Q 3270 1843 3270 1546 
Q 3270 1181 3142 886 
Q 3014 592 2792 382 
Q 2570 173 2269 61 
Q 1968 -51 1619 -51 
Q 1418 -51 1232 -11 
Q 1046 29 886 96 
Q 726 163 588 249 
Q 451 336 346 432 
L 518 675 
Q 576 758 672 758 
Q 733 758 814 708 
Q 896 659 1011 598 
Q 1126 538 1281 488 
Q 1437 438 1651 438 
Q 1891 438 2083 515 
Q 2275 592 2411 734 
Q 2547 877 2620 1075 
Q 2694 1274 2694 1520 
Q 2694 1734 2632 1907 
Q 2570 2080 2443 2201 
Q 2317 2323 2128 2390 
Q 1939 2458 1686 2458 
Q 1514 2458 1328 2429 
Q 1142 2400 944 2336 
L 586 2442 
L 957 4586 
L 3130 4586 
L 3130 4336 
z
" transform="scale(0.015625)"/>
        <path id="Lato-Regular-30" d="M 3520 2291 
Q 3520 1690 3390 1250 
Q 3261 810 3037 522 
Q 2813 234 2507 93 
Q 2202 -48 1853 -48 
Q 1501 -48 1198 93 
Q 896 234 672 522 
Q 448 810 320 1250 
Q 192 1690 192 2291 
Q 192 2893 320 3334 
Q 448 3776 672 4065 
Q 896 4355 1198 4496 
Q 1501 4637 1853 4637 
Q 2202 4637 2507 4496 
Q 2813 4355 3037 4065 
Q 3261 3776 3390 3334 
Q 3520 2893 3520 2291 
z
M 2928 2291 
Q 2928 2816 2840 3173 
Q 2752 3530 2603 3747 
Q 2454 3965 2259 4059 
Q 2064 4154 1853 4154 
Q 1642 4154 1446 4059 
Q 1251 3965 1104 3747 
Q 957 3530 869 3173 
Q 781 2816 781 2291 
Q 781 1766 869 1411 
Q 957 1056 1104 838 
Q 1251 621 1446 526 
Q 1642 432 1853 432 
Q 2064 432 2259 526 
Q 2454 621 2603 838 
Q 2752 1056 2840 1411 
Q 2928 1766 2928 2291 
z
" transform="scale(0.015625)"/>
        <path id="Lato-Regular-4d" d="M 2813 1658 
Q 2858 1581 2891 1496 
Q 2925 1411 2957 1325 
Q 2989 1414 3024 1496 
Q 3059 1578 3104 1661 
L 4656 4480 
Q 4698 4554 4742 4570 
Q 4787 4586 4870 4586 
L 5328 4586 
L 5328 0 
L 4784 0 
L 4784 3370 
Q 4784 3437 4787 3513 
Q 4790 3590 4797 3670 
L 3226 803 
Q 3146 659 3002 659 
L 2912 659 
Q 2768 659 2688 803 
L 1082 3680 
Q 1091 3597 1096 3517 
Q 1101 3437 1101 3370 
L 1101 0 
L 557 0 
L 557 4586 
L 1014 4586 
Q 1098 4586 1142 4570 
Q 1187 4554 1229 4480 
L 2813 1658 
L 2813 1658 
z
" transform="scale(0.015625)"/>
       </defs>
       <use xlink:href="#Lato-Regular-20ac"/>
       <use xlink:href="#Lato-Regular-32" transform="translate(58 0)"/>
       <use xlink:href="#Lato-Regular-35" transform="translate(116 0)"/>
       <use xlink:href="#Lato-Regular-30" transform="translate(174 0)"/>
       <use xlink:href="#Lato-Regular-4d" transform="translate(232 0)"/>
      </g>
     </g>
    </g>
    <g id="xtick_2">
     <g id="line2d_2">
      <g>
       <use xlink:href="#m1e24a015f1" x="144.45" y="314.12" style="stroke: #000000; stroke-width: 0.8"/>
      </g>
     </g>
     <g id="text_2">
      <!-- €500M -->
      <g transform="translate(128.25 328.485625) scale(0.1 -0.1)">
       <use xlink:href="#Lato-Regular-20ac"/>
       <use xlink:href="#Lato-Regular-35" transform="translate(58 0)"/>
       <use xlink:href="#Lato-Regular-30" transform="translate(116 0)"/>
       <use xlink:href="#Lato-Regular-30" transform="translate(174 0)"/>
       <use xlink:href="#Lato-Regular-4d" transform="translate(232 0)"/>
      </g>
     </g>
    </g>
    <g id="xtick_3">
     <g id="line2d_3">
      <g>
       <use xlink:href="#m1e24a015f1" x="213.075" y="314.12" style="stroke: #000000; stroke-width: 0.8"/>
      </g>
     </g>
     <g id="text_3">
      <!-- €750M -->
      <g transform="translate(196.875 328.485625) scale(0.1 -0.1)">
       <defs>
        <path id="Lato-Regular-37" d="M 3469 4586 
L 3469 4330 
Q 3469 4221 3445 4150 
Q 3421 4080 3395 4032 
L 1498 202 
Q 1456 118 1382 59 
Q 1309 0 1184 0 
L 778 0 
L 2704 3782 
Q 2746 3862 2789 3929 
Q 2832 3997 2886 4058 
L 493 4058 
Q 438 4058 395 4101 
Q 352 4144 352 4198 
L 352 4586 
L 3469 4586 
z
" transform="scale(0.015625)"/>
       </defs>
       <use xlink:href="#Lato-Regular-20ac"/>
       <use xlink:href="#Lato-Regular-37" transform="translate(58 0)"/>
       <use xlink:href="#Lato-Regular-35" transform="translate(116 0)"/>
       <use xlink:href="#Lato-Regular-30" transform="translate(174 0)"/>
       <use xlink:href="#Lato-Regular-4d" transform="translate(232 0)"/>
      </g>
     </g>
    </g>
    <g id="xtick_4">
     <g id="line2d_4">
      <g>
       <use xlink:href="#m1e24a015f1" x="281.7" y="314.12" style="stroke: #000000; stroke-width: 0.8"/>
      </g>
     </g>
     <g id="text_4">
      <!-- €1B -->
      <g transform="translate(272.664844 328.485625) scale(0.1 -0.1)">
       <defs>
        <path id="Lato-Regular-31" d="M 918 435 
L 1904 435 
L 1904 3562 
Q 1904 3702 1914 3846 
L 1094 3146 
Q 1062 3120 1030 3109 
Q 998 3098 970 3098 
Q 922 3098 883 3118 
Q 845 3139 826 3168 
L 646 3414 
L 2010 4595 
L 2474 4595 
L 2474 435 
L 3376 435 
L 3376 0 
L 918 0 
L 918 435 
z
" transform="scale(0.015625)"/>
        <path id="Lato-Regular-42" d="M 557 0 
L 557 4586 
L 2019 4586 
Q 2442 4586 2747 4502 
Q 3053 4419 3249 4265 
Q 3446 4112 3540 3889 
Q 3635 3667 3635 3389 
Q 3635 3219 3582 3062 
Q 3530 2906 3422 2771 
Q 3315 2637 3153 2531 
Q 2992 2426 2774 2358 
Q 3277 2259 3533 1996 
Q 3789 1734 3789 1306 
Q 3789 1014 3681 774 
Q 3574 534 3368 361 
Q 3162 189 2862 94 
Q 2563 0 2179 0 
L 557 0 
z
M 1178 2090 
L 1178 493 
L 2170 493 
Q 2435 493 2625 553 
Q 2816 614 2939 724 
Q 3062 835 3120 987 
Q 3178 1139 3178 1322 
Q 3178 1677 2926 1883 
Q 2675 2090 2166 2090 
L 1178 2090 
z
M 1178 2531 
L 1997 2531 
Q 2259 2531 2451 2588 
Q 2643 2646 2769 2748 
Q 2896 2851 2957 2996 
Q 3018 3142 3018 3315 
Q 3018 3718 2774 3907 
Q 2531 4096 2019 4096 
L 1178 4096 
L 1178 2531 
z
" transform="scale(0.015625)"/>
       </defs>
       <use xlink:href="#Lato-Regular-20ac"/>
       <use xlink:href="#Lato-Regular-31" transform="translate(58 0)"/>
       <use xlink:href="#Lato-Regular-42" transform="translate(116 0)"/>
      </g>
     </g>
    </g>
    <g id="xtick_5">
     <g id="line2d_5">
      <g>
       <use xlink:href="#m1e24a015f1" x="350.325" y="314.12" style="stroke: #000000; stroke-width: 0.8"/>
      </g>
     </g>
     <g id="text_5">
      <!-- €1.25B -->
      <g transform="translate(334.429688 328.485625) scale(0.1 -0.1)">
       <defs>
        <path id="Lato-Regular-2e" d="M 282 352 
Q 282 435 312 508 
Q 342 582 395 636 
Q 448 691 521 723 
Q 595 755 678 755 
Q 762 755 835 723 
Q 909 691 963 636 
Q 1018 582 1048 508 
Q 1078 435 1078 352 
Q 1078 266 1048 194 
Q 1018 122 963 67 
Q 909 13 835 -17 
Q 762 -48 678 -48 
Q 595 -48 521 -17 
Q 448 13 395 67 
Q 342 122 312 194 
Q 282 266 282 352 
z
" transform="scale(0.015625)"/>
       </defs>
       <use xlink:href="#Lato-Regular-20ac"/>
       <use xlink:href="#Lato-Regular-31" transform="translate(58 0)"/>
       <use xlink:href="#Lato-Regular-2e" transform="translate(116 0)"/>
       <use xlink:href="#Lato-Regular-32" transform="translate(137.199997 0)"/>
       <use xlink:href="#Lato-Regular-35" transform="translate(195.199997 0)"/>
       <use xlink:href="#Lato-Regular-42" transform="translate(253.199997 0)"/>
      </g>
     </g>
    </g>
    <g id="xtick_6">
     <g id="line2d_6">
      <g>
       <use xlink:href="#m1e24a015f1" x="418.95" y="314.12" style="stroke: #000000; stroke-width: 0.8"/>
      </g>
     </g>
     <g id="text_6">
      <!-- €1.5B -->
      <g transform="translate(405.954688 328.485625) scale(0.1 -0.1)">
       <use xlink:href="#Lato-Regular-20ac"/>
       <use xlink:href="#Lato-Regular-31" transform="translate(58 0)"/>
       <use xlink:href="#Lato-Regular-2e" transform="translate(116 0)"/>
       <use xlink:href="#Lato-Regular-35" transform="translate(137.199997 0)"/>
       <use xlink:href="#Lato-Regular-42" transform="translate(195.199997 0)"/>
      </g>
     </g>
    </g>
   </g>
  </g>
  <g id="axes_2">
   <g id="FillBetweenPolyCollection_1">
    <defs>
     <path id="m9678c1a726" d="M 9.974446 -271.708913 
L 9.974446 -271.708913 
L 11.702299 -271.708913 
L 13.430152 -271.708913 
L 15.158005 -271.708913 
L 16.885857 -271.708913 
L 18.61371 -271.708913 
L 20.341563 -271.708913 
L 22.069415 -271.708913 
L 23.797268 -271.708913 
L 25.525121 -271.708913 
L 27.252974 -271.708913 
L 28.980826 -271.708913 
L 30.708679 -271.708913 
L 32.436532 -271.708913 
L 34.164385 -271.708913 
L 35.892237 -271.708913 
L 37.62009 -271.708913 
L 39.347943 -271.708913 
L 41.075795 -271.708913 
L 42.803648 -271.708913 
L 44.531501 -271.708913 
L 46.259354 -271.708913 
L 46.259354 -271.708913 
L 46.259354 -271.708913 
L 44.531501 -277.898579 
L 42.803648 -271.708913 
L 41.075795 -271.708913 
L 39.347943 -271.708913 
L 37.62009 -271.708913 
L 35.892237 -277.898579 
L 34.164385 -271.708913 
L 32.436532 -271.708913 
L 30.708679 -271.708913 
L 28.980826 -284.088244 
L 27.252974 -271.708913 
L 25.525121 -271.708913 
L 23.797268 -277.898579 
L 22.069415 -290.277909 
L 20.341563 -290.277909 
L 18.61371 -271.708913 
L 16.885857 -302.65724 
L 15.158005 -277.898579 
L 13.430152 -284.088244 
L 11.702299 -277.898579 
L 9.974446 -271.708913 
z
" style="stroke: #cdfb0a; stroke-opacity: 0.427273"/>
    </defs>
    <g clip-path="url(#p2c8032cb2f)">
     <use xlink:href="#m9678c1a726" x="0" y="337.40125" style="fill: #cdfb0a; fill-opacity: 0.427273; stroke: #cdfb0a; stroke-opacity: 0.427273"/>
    </g>
   </g>
   <g id="line2d_7">
    <path d="M 9.974446 65.692337 
L 11.702299 65.692337 
L 13.430152 65.692337 
L 15.158005 65.692337 
L 16.885857 65.692337 
L 18.61371 65.692337 
L 20.341563 65.692337 
L 22.069415 65.692337 
L 23.797268 65.692337 
L 25.525121 65.692337 
L 27.252974 65.692337 
L 28.980826 65.692337 
L 30.708679 65.692337 
L 32.436532 65.692337 
L 34.164385 65.692337 
L 35.892237 65.692337 
L 37.62009 65.692337 
L 39.347943 65.692337 
L 41.075795 65.692337 
L 42.803648 65.692337 
L 44.531501 65.692337 
L 46.259354 65.692337 
" clip-path="url(#p2c8032cb2f)" style="fill: none; stroke: #cdfb0a; stroke-opacity: 0.427273; stroke-width: 1.5; stroke-linecap: square"/>
   </g>
   <g id="line2d_8">
    <path d="M 9.974446 65.692337 
L 11.702299 59.502671 
L 13.430152 53.313006 
L 15.158005 59.502671 
L 16.885857 34.74401 
L 18.61371 65.692337 
L 20.341563 47.123341 
L 22.069415 47.123341 
L 23.797268 59.502671 
L 25.525121 65.692337 
L 27.252974 65.692337 
L 28.980826 53.313006 
L 30.708679 65.692337 
L 32.436532 65.692337 
L 34.164385 65.692337 
L 35.892237 59.502671 
L 37.62009 65.692337 
L 39.347943 65.692337 
L 41.075795 65.692337 
L 42.803648 65.692337 
L 44.531501 59.502671 
L 46.259354 65.692337 
" clip-path="url(#p2c8032cb2f)" style="fill: none; stroke: #000000; stroke-opacity: 0.427273; stroke-width: 1.5; stroke-linecap: square"/>
   </g>
  </g>
  <g id="axes_3">
   <g id="FillBetweenPolyCollection_2">
    <defs>
     <path id="mee45bbbbc2" d="M 11.132737 -260.303459 
L 11.132737 -260.303459 
L 13.350647 -260.303459 
L 15.568557 -260.303459 
L 17.786467 -260.303459 
L 20.004377 -260.303459 
L 22.222287 -260.303459 
L 24.440197 -260.303459 
L 26.658107 -260.303459 
L 28.876017 -260.303459 
L 31.093927 -260.303459 
L 33.311837 -260.303459 
L 35.529748 -260.303459 
L 37.747658 -260.303459 
L 39.965568 -260.303459 
L 42.183478 -260.303459 
L 44.401388 -260.303459 
L 46.619298 -260.303459 
L 48.837208 -260.303459 
L 51.055118 -260.303459 
L 53.273028 -260.303459 
L 55.490938 -260.303459 
L 57.708848 -260.303459 
L 57.708848 -260.303459 
L 57.708848 -260.303459 
L 55.490938 -266.493124 
L 53.273028 -260.303459 
L 51.055118 -260.303459 
L 48.837208 -260.303459 
L 46.619298 -260.303459 
L 44.401388 -260.303459 
L 42.183478 -260.303459 
L 39.965568 -260.303459 
L 37.747658 -266.493124 
L 35.529748 -260.303459 
L 33.311837 -266.493124 
L 31.093927 -266.493124 
L 28.876017 -272.682789 
L 26.658107 -272.682789 
L 24.440197 -272.682789 
L 22.222287 -272.682789 
L 20.004377 -272.682789 
L 17.786467 -278.872455 
L 15.568557 -272.682789 
L 13.350647 -266.493124 
L 11.132737 -260.303459 
z
" style="stroke: #cdfb0a; stroke-opacity: 0.454545"/>
    </defs>
    <g clip-path="url(#pead76d92e1)">
     <use xlink:href="#mee45bbbbc2" x="0" y="337.40125" style="fill: #cdfb0a; fill-opacity: 0.454545; stroke: #cdfb0a; stroke-opacity: 0.454545"/>
    </g>
   </g>
   <g id="line2d_9">
    <path d="M 11.132737 77.097791 
L 13.350647 77.097791 
L 15.568557 77.097791 
L 17.786467 77.097791 
L 20.004377 77.097791 
L 22.222287 77.097791 
L 24.440197 77.097791 
L 26.658107 77.097791 
L 28.876017 77.097791 
L 31.093927 77.097791 
L 33.311837 77.097791 
L 35.529748 77.097791 
L 37.747658 77.097791 
L 39.965568 77.097791 
L 42.183478 77.097791 
L 44.401388 77.097791 
L 46.619298 77.097791 
L 48.837208 77.097791 
L 51.055118 77.097791 
L 53.273028 77.097791 
L 55.490938 77.097791 
L 57.708848 77.097791 
" clip-path="url(#pead76d92e1)" style="fill: none; stroke: #cdfb0a; stroke-opacity: 0.454545; stroke-width: 1.5; stroke-linecap: square"/>
   </g>
   <g id="line2d_10">
    <path d="M 11.132737 77.097791 
L 13.350647 70.908126 
L 15.568557 64.718461 
L 17.786467 58.528795 
L 20.004377 64.718461 
L 22.222287 64.718461 
L 24.440197 64.718461 
L 26.658107 64.718461 
L 28.876017 64.718461 
L 31.093927 70.908126 
L 33.311837 70.908126 
L 35.529748 77.097791 
L 37.747658 70.908126 
L 39.965568 77.097791 
L 42.183478 77.097791 
L 44.401388 77.097791 
L 46.619298 77.097791 
L 48.837208 77.097791 
L 51.055118 77.097791 
L 53.273028 77.097791 
L 55.490938 70.908126 
L 57.708848 77.097791 
" clip-path="url(#pead76d92e1)" style="fill: none; stroke: #000000; stroke-opacity: 0.454545; stroke-width: 1.5; stroke-linecap: square"/>
   </g>
  </g>
  <g id="axes_4">
   <g id="FillBetweenPolyCollection_3">
    <defs>
     <path id="m2bce3267b1" d="M 9.452497 -248.898004 
L 9.452497 -248.898004 
L 12.638244 -248.898004 
L 15.823991 -248.898004 
L 19.009739 -248.898004 
L 22.195486 -248.898004 
L 25.381233 -248.898004 
L 28.56698 -248.898004 
L 31.752727 -248.898004 
L 34.938475 -248.898004 
L 38.124222 -248.898004 
L 41.309969 -248.898004 
L 44.495716 -248.898004 
L 47.681463 -248.898004 
L 50.86721 -248.898004 
L 54.052958 -248.898004 
L 57.238705 -248.898004 
L 60.424452 -248.898004 
L 63.610199 -248.898004 
L 66.795946 -248.898004 
L 69.981694 -248.898004 
L 73.167441 -248.898004 
L 76.353188 -248.898004 
L 76.353188 -248.898004 
L 76.353188 -248.898004 
L 73.167441 -255.08767 
L 69.981694 -248.898004 
L 66.795946 -248.898004 
L 63.610199 -248.898004 
L 60.424452 -248.898004 
L 57.238705 -248.898004 
L 54.052958 -248.898004 
L 50.86721 -248.898004 
L 47.681463 -248.898004 
L 44.495716 -248.898004 
L 41.309969 -255.08767 
L 38.124222 -248.898004 
L 34.938475 -261.277335 
L 31.752727 -261.277335 
L 28.56698 -267.467 
L 25.381233 -255.08767 
L 22.195486 -255.08767 
L 19.009739 -279.846331 
L 15.823991 -261.277335 
L 12.638244 -261.277335 
L 9.452497 -248.898004 
z
" style="stroke: #cdfb0a; stroke-opacity: 0.481818"/>
    </defs>
    <g clip-path="url(#p4580b70db2)">
     <use xlink:href="#m2bce3267b1" x="0" y="337.40125" style="fill: #cdfb0a; fill-opacity: 0.481818; stroke: #cdfb0a; stroke-opacity: 0.481818"/>
    </g>
   </g>
   <g id="line2d_11">
    <path d="M 9.452497 88.503246 
L 12.638244 88.503246 
L 15.823991 88.503246 
L 19.009739 88.503246 
L 22.195486 88.503246 
L 25.381233 88.503246 
L 28.56698 88.503246 
L 31.752727 88.503246 
L 34.938475 88.503246 
L 38.124222 88.503246 
L 41.309969 88.503246 
L 44.495716 88.503246 
L 47.681463 88.503246 
L 50.86721 88.503246 
L 54.052958 88.503246 
L 57.238705 88.503246 
L 60.424452 88.503246 
L 63.610199 88.503246 
L 66.795946 88.503246 
L 69.981694 88.503246 
L 73.167441 88.503246 
L 76.353188 88.503246 
" clip-path="url(#p4580b70db2)" style="fill: none; stroke: #cdfb0a; stroke-opacity: 0.481818; stroke-width: 1.5; stroke-linecap: square"/>
   </g>
   <g id="line2d_12">
    <path d="M 9.452497 88.503246 
L 12.638244 76.123915 
L 15.823991 76.123915 
L 19.009739 57.554919 
L 22.195486 82.31358 
L 25.381233 82.31358 
L 28.56698 69.93425 
L 31.752727 76.123915 
L 34.938475 76.123915 
L 38.124222 88.503246 
L 41.309969 82.31358 
L 44.495716 88.503246 
L 47.681463 88.503246 
L 50.86721 88.503246 
L 54.052958 88.503246 
L 57.238705 88.503246 
L 60.424452 88.503246 
L 63.610199 88.503246 
L 66.795946 88.503246 
L 69.981694 88.503246 
L 73.167441 82.31358 
L 76.353188 88.503246 
" clip-path="url(#p4580b70db2)" style="fill: none; stroke: #000000; stroke-opacity: 0.481818; stroke-width: 1.5; stroke-linecap: square"/>
   </g>
  </g>
  <g id="axes_5">
   <g id="FillBetweenPolyCollection_4">
    <defs>
     <path id="m13ead124df" d="M 12.054408 -237.49255 
L 12.054408 -237.49255 
L 14.785433 -237.49255 
L 17.516459 -237.49255 
L 20.247484 -237.49255 
L 22.97851 -237.49255 
L 25.709535 -237.49255 
L 28.44056 -237.49255 
L 31.171586 -237.49255 
L 33.902611 -237.49255 
L 36.633637 -237.49255 
L 39.364662 -237.49255 
L 42.095688 -237.49255 
L 44.826713 -237.49255 
L 47.557739 -237.49255 
L 50.288764 -237.49255 
L 53.01979 -237.49255 
L 55.750815 -237.49255 
L 58.48184 -237.49255 
L 61.212866 -237.49255 
L 63.943891 -237.49255 
L 66.674917 -237.49255 
L 69.405942 -237.49255 
L 69.405942 -237.49255 
L 69.405942 -237.49255 
L 66.674917 -243.682215 
L 63.943891 -237.49255 
L 61.212866 -237.49255 
L 58.48184 -237.49255 
L 55.750815 -237.49255 
L 53.01979 -237.49255 
L 50.288764 -237.49255 
L 47.557739 -237.49255 
L 44.826713 -243.682215 
L 42.095688 -237.49255 
L 39.364662 -237.49255 
L 36.633637 -237.49255 
L 33.902611 -243.682215 
L 31.171586 -249.87188 
L 28.44056 -262.251211 
L 25.709535 -262.251211 
L 22.97851 -249.87188 
L 20.247484 -243.682215 
L 17.516459 -256.061546 
L 14.785433 -243.682215 
L 12.054408 -237.49255 
z
" style="stroke: #cdfb0a; stroke-opacity: 0.509091"/>
    </defs>
    <g clip-path="url(#p2ba15d17a0)">
     <use xlink:href="#m13ead124df" x="0" y="337.40125" style="fill: #cdfb0a; fill-opacity: 0.509091; stroke: #cdfb0a; stroke-opacity: 0.509091"/>
    </g>
   </g>
   <g id="line2d_13">
    <path d="M 12.054408 99.9087 
L 14.785433 99.9087 
L 17.516459 99.9087 
L 20.247484 99.9087 
L 22.97851 99.9087 
L 25.709535 99.9087 
L 28.44056 99.9087 
L 31.171586 99.9087 
L 33.902611 99.9087 
L 36.633637 99.9087 
L 39.364662 99.9087 
L 42.095688 99.9087 
L 44.826713 99.9087 
L 47.557739 99.9087 
L 50.288764 99.9087 
L 53.01979 99.9087 
L 55.750815 99.9087 
L 58.48184 99.9087 
L 61.212866 99.9087 
L 63.943891 99.9087 
L 66.674917 99.9087 
L 69.405942 99.9087 
" clip-path="url(#p2ba15d17a0)" style="fill: none; stroke: #cdfb0a; stroke-opacity: 0.509091; stroke-width: 1.5; stroke-linecap: square"/>
   </g>
   <g id="line2d_14">
    <path d="M 12.054408 99.9087 
L 14.785433 93.719035 
L 17.516459 81.339704 
L 20.247484 93.719035 
L 22.97851 87.52937 
L 25.709535 75.150039 
L 28.44056 75.150039 
L 31.171586 87.52937 
L 33.902611 93.719035 
L 36.633637 99.9087 
L 39.364662 99.9087 
L 42.095688 99.9087 
L 44.826713 93.719035 
L 47.557739 99.9087 
L 50.288764 99.9087 
L 53.01979 99.9087 
L 55.750815 99.9087 
L 58.48184 99.9087 
L 61.212866 99.9087 
L 63.943891 99.9087 
L 66.674917 93.719035 
L 69.405942 99.9087 
" clip-path="url(#p2ba15d17a0)" style="fill: none; stroke: #000000; stroke-opacity: 0.509091; stroke-width: 1.5; stroke-linecap: square"/>
   </g>
  </g>
  <g id="axes_6">
   <g id="FillBetweenPolyCollection_5">
    <defs>
     <path id="me011b43a10" d="M 12.293472 -226.087095 
L 12.293472 -226.087095 
L 14.989312 -226.087095 
L 17.685151 -226.087095 
L 20.380991 -226.087095 
L 23.07683 -226.087095 
L 25.77267 -226.087095 
L 28.46851 -226.087095 
L 31.164349 -226.087095 
L 33.860189 -226.087095 
L 36.556028 -226.087095 
L 39.251868 -226.087095 
L 41.947707 -226.087095 
L 44.643547 -226.087095 
L 47.339386 -226.087095 
L 50.035226 -226.087095 
L 52.731065 -226.087095 
L 55.426905 -226.087095 
L 58.122745 -226.087095 
L 60.818584 -226.087095 
L 63.514424 -226.087095 
L 66.210263 -226.087095 
L 68.906103 -226.087095 
L 68.906103 -226.087095 
L 68.906103 -226.087095 
L 66.210263 -232.27676 
L 63.514424 -226.087095 
L 60.818584 -226.087095 
L 58.122745 -226.087095 
L 55.426905 -226.087095 
L 52.731065 -226.087095 
L 50.035226 -226.087095 
L 47.339386 -232.27676 
L 44.643547 -226.087095 
L 41.947707 -232.27676 
L 39.251868 -226.087095 
L 36.556028 -226.087095 
L 33.860189 -232.27676 
L 31.164349 -232.27676 
L 28.46851 -244.656091 
L 25.77267 -232.27676 
L 23.07683 -244.656091 
L 20.380991 -244.656091 
L 17.685151 -250.845756 
L 14.989312 -232.27676 
L 12.293472 -226.087095 
z
" style="stroke: #cdfb0a; stroke-opacity: 0.536364"/>
    </defs>
    <g clip-path="url(#p5ee453d0c5)">
     <use xlink:href="#me011b43a10" x="0" y="337.40125" style="fill: #cdfb0a; fill-opacity: 0.536364; stroke: #cdfb0a; stroke-opacity: 0.536364"/>
    </g>
   </g>
   <g id="line2d_15">
    <path d="M 12.293472 111.314155 
L 14.989312 111.314155 
L 17.685151 111.314155 
L 20.380991 111.314155 
L 23.07683 111.314155 
L 25.77267 111.314155 
L 28.46851 111.314155 
L 31.164349 111.314155 
L 33.860189 111.314155 
L 36.556028 111.314155 
L 39.251868 111.314155 
L 41.947707 111.314155 
L 44.643547 111.314155 
L 47.339386 111.314155 
L 50.035226 111.314155 
L 52.731065 111.314155 
L 55.426905 111.314155 
L 58.122745 111.314155 
L 60.818584 111.314155 
L 63.514424 111.314155 
L 66.210263 111.314155 
L 68.906103 111.314155 
" clip-path="url(#p5ee453d0c5)" style="fill: none; stroke: #cdfb0a; stroke-opacity: 0.536364; stroke-width: 1.5; stroke-linecap: square"/>
   </g>
   <g id="line2d_16">
    <path d="M 12.293472 111.314155 
L 14.989312 105.12449 
L 17.685151 86.555494 
L 20.380991 92.745159 
L 23.07683 92.745159 
L 25.77267 105.12449 
L 28.46851 92.745159 
L 31.164349 105.12449 
L 33.860189 105.12449 
L 36.556028 111.314155 
L 39.251868 111.314155 
L 41.947707 105.12449 
L 44.643547 111.314155 
L 47.339386 105.12449 
L 50.035226 111.314155 
L 52.731065 111.314155 
L 55.426905 111.314155 
L 58.122745 111.314155 
L 60.818584 111.314155 
L 63.514424 111.314155 
L 66.210263 105.12449 
L 68.906103 111.314155 
" clip-path="url(#p5ee453d0c5)" style="fill: none; stroke: #000000; stroke-opacity: 0.536364; stroke-width: 1.5; stroke-linecap: square"/>
   </g>
  </g>
  <g id="axes_7">
   <g id="FillBetweenPolyCollection_6">
    <defs>
     <path id="m6313e4fddd" d="M 12.022715 -214.681641 
L 12.022715 -214.681641 
L 14.684866 -214.681641 
L 17.347017 -214.681641 
L 20.009168 -214.681641 
L 22.671319 -214.681641 
L 25.33347 -214.681641 
L 27.995621 -214.681641 
L 30.657772 -214.681641 
L 33.319923 -214.681641 
L 35.982074 -214.681641 
L 38.644225 -214.681641 
L 41.306375 -214.681641 
L 43.968526 -214.681641 
L 46.630677 -214.681641 
L 49.292828 -214.681641 
L 51.954979 -214.681641 
L 54.61713 -214.681641 
L 57.279281 -214.681641 
L 59.941432 -214.681641 
L 62.603583 -214.681641 
L 65.265734 -214.681641 
L 67.927885 -214.681641 
L 67.927885 -214.681641 
L 67.927885 -214.681641 
L 65.265734 -220.871306 
L 62.603583 -214.681641 
L 59.941432 -214.681641 
L 57.279281 -214.681641 
L 54.61713 -214.681641 
L 51.954979 -214.681641 
L 49.292828 -214.681641 
L 46.630677 -227.060971 
L 43.968526 -214.681641 
L 41.306375 -214.681641 
L 38.644225 -214.681641 
L 35.982074 -220.871306 
L 33.319923 -220.871306 
L 30.657772 -233.250636 
L 27.995621 -220.871306 
L 25.33347 -220.871306 
L 22.671319 -245.629967 
L 20.009168 -233.250636 
L 17.347017 -220.871306 
L 14.684866 -220.871306 
L 12.022715 -214.681641 
z
" style="stroke: #cdfb0a; stroke-opacity: 0.563636"/>
    </defs>
    <g clip-path="url(#p2fb1f8b6c8)">
     <use xlink:href="#m6313e4fddd" x="0" y="337.40125" style="fill: #cdfb0a; fill-opacity: 0.563636; stroke: #cdfb0a; stroke-opacity: 0.563636"/>
    </g>
   </g>
   <g id="line2d_17">
    <path d="M 12.022715 122.719609 
L 14.684866 122.719609 
L 17.347017 122.719609 
L 20.009168 122.719609 
L 22.671319 122.719609 
L 25.33347 122.719609 
L 27.995621 122.719609 
L 30.657772 122.719609 
L 33.319923 122.719609 
L 35.982074 122.719609 
L 38.644225 122.719609 
L 41.306375 122.719609 
L 43.968526 122.719609 
L 46.630677 122.719609 
L 49.292828 122.719609 
L 51.954979 122.719609 
L 54.61713 122.719609 
L 57.279281 122.719609 
L 59.941432 122.719609 
L 62.603583 122.719609 
L 65.265734 122.719609 
L 67.927885 122.719609 
" clip-path="url(#p2fb1f8b6c8)" style="fill: none; stroke: #cdfb0a; stroke-opacity: 0.563636; stroke-width: 1.5; stroke-linecap: square"/>
   </g>
   <g id="line2d_18">
    <path d="M 12.022715 122.719609 
L 14.684866 116.529944 
L 17.347017 116.529944 
L 20.009168 104.150614 
L 22.671319 91.771283 
L 25.33347 116.529944 
L 27.995621 116.529944 
L 30.657772 104.150614 
L 33.319923 116.529944 
L 35.982074 116.529944 
L 38.644225 122.719609 
L 41.306375 122.719609 
L 43.968526 122.719609 
L 46.630677 110.340279 
L 49.292828 122.719609 
L 51.954979 122.719609 
L 54.61713 122.719609 
L 57.279281 122.719609 
L 59.941432 122.719609 
L 62.603583 122.719609 
L 65.265734 116.529944 
L 67.927885 122.719609 
" clip-path="url(#p2fb1f8b6c8)" style="fill: none; stroke: #000000; stroke-opacity: 0.563636; stroke-width: 1.5; stroke-linecap: square"/>
   </g>
  </g>
  <g id="axes_8">
   <g id="FillBetweenPolyCollection_7">
    <defs>
     <path id="mfb2f0b5fba" d="M 9.276468 -203.276186 
L 9.276468 -203.276186 
L 11.826323 -203.276186 
L 14.376179 -203.276186 
L 16.926034 -203.276186 
L 19.47589 -203.276186 
L 22.025745 -203.276186 
L 24.5756 -203.276186 
L 27.125456 -203.276186 
L 29.675311 -203.276186 
L 32.225167 -203.276186 
L 34.775022 -203.276186 
L 37.324878 -203.276186 
L 39.874733 -203.276186 
L 42.424589 -203.276186 
L 44.974444 -203.276186 
L 47.5243 -203.276186 
L 50.074155 -203.276186 
L 52.62401 -203.276186 
L 55.173866 -203.276186 
L 57.723721 -203.276186 
L 60.273577 -203.276186 
L 62.823432 -203.276186 
L 62.823432 -203.276186 
L 62.823432 -203.276186 
L 60.273577 -209.465851 
L 57.723721 -203.276186 
L 55.173866 -203.276186 
L 52.62401 -209.465851 
L 50.074155 -203.276186 
L 47.5243 -203.276186 
L 44.974444 -203.276186 
L 42.424589 -209.465851 
L 39.874733 -209.465851 
L 37.324878 -209.465851 
L 34.775022 -209.465851 
L 32.225167 -203.276186 
L 29.675311 -209.465851 
L 27.125456 -215.655517 
L 24.5756 -228.034847 
L 22.025745 -221.845182 
L 19.47589 -209.465851 
L 16.926034 -215.655517 
L 14.376179 -203.276186 
L 11.826323 -209.465851 
L 9.276468 -203.276186 
z
" style="stroke: #cdfb0a; stroke-opacity: 0.590909"/>
    </defs>
    <g clip-path="url(#pd256489e70)">
     <use xlink:href="#mfb2f0b5fba" x="0" y="337.40125" style="fill: #cdfb0a; fill-opacity: 0.590909; stroke: #cdfb0a; stroke-opacity: 0.590909"/>
    </g>
   </g>
   <g id="line2d_19">
    <path d="M 9.276468 134.125064 
L 11.826323 134.125064 
L 14.376179 134.125064 
L 16.926034 134.125064 
L 19.47589 134.125064 
L 22.025745 134.125064 
L 24.5756 134.125064 
L 27.125456 134.125064 
L 29.675311 134.125064 
L 32.225167 134.125064 
L 34.775022 134.125064 
L 37.324878 134.125064 
L 39.874733 134.125064 
L 42.424589 134.125064 
L 44.974444 134.125064 
L 47.5243 134.125064 
L 50.074155 134.125064 
L 52.62401 134.125064 
L 55.173866 134.125064 
L 57.723721 134.125064 
L 60.273577 134.125064 
L 62.823432 134.125064 
" clip-path="url(#pd256489e70)" style="fill: none; stroke: #cdfb0a; stroke-opacity: 0.590909; stroke-width: 1.5; stroke-linecap: square"/>
   </g>
   <g id="line2d_20">
    <path d="M 9.276468 134.125064 
L 11.826323 127.935399 
L 14.376179 134.125064 
L 16.926034 121.745733 
L 19.47589 127.935399 
L 22.025745 115.556068 
L 24.5756 109.366403 
L 27.125456 121.745733 
L 29.675311 127.935399 
L 32.225167 134.125064 
L 34.775022 127.935399 
L 37.324878 127.935399 
L 39.874733 127.935399 
L 42.424589 127.935399 
L 44.974444 134.125064 
L 47.5243 134.125064 
L 50.074155 134.125064 
L 52.62401 127.935399 
L 55.173866 134.125064 
L 57.723721 134.125064 
L 60.273577 127.935399 
L 62.823432 134.125064 
" clip-path="url(#pd256489e70)" style="fill: none; stroke: #000000; stroke-opacity: 0.590909; stroke-width: 1.5; stroke-linecap: square"/>
   </g>
  </g>
  <g id="axes_9">
   <g id="FillBetweenPolyCollection_8">
    <defs>
     <path id="m61e9173c71" d="M 10.803686 -191.870732 
L 10.803686 -191.870732 
L 13.566903 -191.870732 
L 16.33012 -191.870732 
L 19.093336 -191.870732 
L 21.856553 -191.870732 
L 24.61977 -191.870732 
L 27.382987 -191.870732 
L 30.146204 -191.870732 
L 32.90942 -191.870732 
L 35.672637 -191.870732 
L 38.435854 -191.870732 
L 41.199071 -191.870732 
L 43.962288 -191.870732 
L 46.725505 -191.870732 
L 49.488721 -191.870732 
L 52.251938 -191.870732 
L 55.015155 -191.870732 
L 57.778372 -191.870732 
L 60.541589 -191.870732 
L 63.304805 -191.870732 
L 66.068022 -191.870732 
L 68.831239 -191.870732 
L 68.831239 -191.870732 
L 68.831239 -191.870732 
L 66.068022 -198.060397 
L 63.304805 -191.870732 
L 60.541589 -191.870732 
L 57.778372 -191.870732 
L 55.015155 -191.870732 
L 52.251938 -198.060397 
L 49.488721 -191.870732 
L 46.725505 -204.250062 
L 43.962288 -191.870732 
L 41.199071 -191.870732 
L 38.435854 -191.870732 
L 35.672637 -198.060397 
L 32.90942 -191.870732 
L 30.146204 -216.629393 
L 27.382987 -191.870732 
L 24.61977 -198.060397 
L 21.856553 -216.629393 
L 19.093336 -204.250062 
L 16.33012 -210.439727 
L 13.566903 -198.060397 
L 10.803686 -191.870732 
z
" style="stroke: #cdfb0a; stroke-opacity: 0.618182"/>
    </defs>
    <g clip-path="url(#p37c407528d)">
     <use xlink:href="#m61e9173c71" x="0" y="337.40125" style="fill: #cdfb0a; fill-opacity: 0.618182; stroke: #cdfb0a; stroke-opacity: 0.618182"/>
    </g>
   </g>
   <g id="line2d_21">
    <path d="M 10.803686 145.530518 
L 13.566903 145.530518 
L 16.33012 145.530518 
L 19.093336 145.530518 
L 21.856553 145.530518 
L 24.61977 145.530518 
L 27.382987 145.530518 
L 30.146204 145.530518 
L 32.90942 145.530518 
L 35.672637 145.530518 
L 38.435854 145.530518 
L 41.199071 145.530518 
L 43.962288 145.530518 
L 46.725505 145.530518 
L 49.488721 145.530518 
L 52.251938 145.530518 
L 55.015155 145.530518 
L 57.778372 145.530518 
L 60.541589 145.530518 
L 63.304805 145.530518 
L 66.068022 145.530518 
L 68.831239 145.530518 
" clip-path="url(#p37c407528d)" style="fill: none; stroke: #cdfb0a; stroke-opacity: 0.618182; stroke-width: 1.5; stroke-linecap: square"/>
   </g>
   <g id="line2d_22">
    <path d="M 10.803686 145.530518 
L 13.566903 139.340853 
L 16.33012 126.961523 
L 19.093336 133.151188 
L 21.856553 120.771857 
L 24.61977 139.340853 
L 27.382987 145.530518 
L 30.146204 120.771857 
L 32.90942 145.530518 
L 35.672637 139.340853 
L 38.435854 145.530518 
L 41.199071 145.530518 
L 43.962288 145.530518 
L 46.725505 133.151188 
L 49.488721 145.530518 
L 52.251938 139.340853 
L 55.015155 145.530518 
L 57.778372 145.530518 
L 60.541589 145.530518 
L 63.304805 145.530518 
L 66.068022 139.340853 
L 68.831239 145.530518 
" clip-path="url(#p37c407528d)" style="fill: none; stroke: #000000; stroke-opacity: 0.618182; stroke-width: 1.5; stroke-linecap: square"/>
   </g>
  </g>
  <g id="axes_10">
   <g id="FillBetweenPolyCollection_9">
    <defs>
     <path id="m4a9607297b" d="M 7.358711 -180.465277 
L 7.358711 -180.465277 
L 11.727753 -180.465277 
L 16.096795 -180.465277 
L 20.465836 -180.465277 
L 24.834878 -180.465277 
L 29.20392 -180.465277 
L 33.572962 -180.465277 
L 37.942004 -180.465277 
L 42.311045 -180.465277 
L 46.680087 -180.465277 
L 51.049129 -180.465277 
L 55.418171 -180.465277 
L 59.787213 -180.465277 
L 64.156255 -180.465277 
L 68.525296 -180.465277 
L 72.894338 -180.465277 
L 77.26338 -180.465277 
L 81.632422 -180.465277 
L 86.001464 -180.465277 
L 90.370505 -180.465277 
L 94.739547 -180.465277 
L 99.108589 -180.465277 
L 99.108589 -180.465277 
L 99.108589 -180.465277 
L 94.739547 -186.654942 
L 90.370505 -180.465277 
L 86.001464 -180.465277 
L 81.632422 -180.465277 
L 77.26338 -180.465277 
L 72.894338 -180.465277 
L 68.525296 -180.465277 
L 64.156255 -180.465277 
L 59.787213 -180.465277 
L 55.418171 -180.465277 
L 51.049129 -186.654942 
L 46.680087 -186.654942 
L 42.311045 -180.465277 
L 37.942004 -186.654942 
L 33.572962 -192.844608 
L 29.20392 -199.034273 
L 24.834878 -192.844608 
L 20.465836 -192.844608 
L 16.096795 -217.603269 
L 11.727753 -186.654942 
L 7.358711 -180.465277 
z
" style="stroke: #cdfb0a; stroke-opacity: 0.645455"/>
    </defs>
    <g clip-path="url(#p5a1552f9e5)">
     <use xlink:href="#m4a9607297b" x="0" y="337.40125" style="fill: #cdfb0a; fill-opacity: 0.645455; stroke: #cdfb0a; stroke-opacity: 0.645455"/>
    </g>
   </g>
   <g id="line2d_23">
    <path d="M 7.358711 156.935973 
L 11.727753 156.935973 
L 16.096795 156.935973 
L 20.465836 156.935973 
L 24.834878 156.935973 
L 29.20392 156.935973 
L 33.572962 156.935973 
L 37.942004 156.935973 
L 42.311045 156.935973 
L 46.680087 156.935973 
L 51.049129 156.935973 
L 55.418171 156.935973 
L 59.787213 156.935973 
L 64.156255 156.935973 
L 68.525296 156.935973 
L 72.894338 156.935973 
L 77.26338 156.935973 
L 81.632422 156.935973 
L 86.001464 156.935973 
L 90.370505 156.935973 
L 94.739547 156.935973 
L 99.108589 156.935973 
" clip-path="url(#p5a1552f9e5)" style="fill: none; stroke: #cdfb0a; stroke-opacity: 0.645455; stroke-width: 1.5; stroke-linecap: square"/>
   </g>
   <g id="line2d_24">
    <path d="M 7.358711 156.935973 
L 11.727753 150.746308 
L 16.096795 119.797981 
L 20.465836 144.556642 
L 24.834878 144.556642 
L 29.20392 138.366977 
L 33.572962 144.556642 
L 37.942004 150.746308 
L 42.311045 156.935973 
L 46.680087 150.746308 
L 51.049129 150.746308 
L 55.418171 156.935973 
L 59.787213 156.935973 
L 64.156255 156.935973 
L 68.525296 156.935973 
L 72.894338 156.935973 
L 77.26338 156.935973 
L 81.632422 156.935973 
L 86.001464 156.935973 
L 90.370505 156.935973 
L 94.739547 150.746308 
L 99.108589 156.935973 
" clip-path="url(#p5a1552f9e5)" style="fill: none; stroke: #000000; stroke-opacity: 0.645455; stroke-width: 1.5; stroke-linecap: square"/>
   </g>
  </g>
  <g id="axes_11">
   <g id="FillBetweenPolyCollection_10">
    <defs>
     <path id="m0b456b70f9" d="M 5.478985 -169.059823 
L 5.478985 -169.059823 
L 11.181647 -169.059823 
L 16.88431 -169.059823 
L 22.586973 -169.059823 
L 28.289635 -169.059823 
L 33.992298 -169.059823 
L 39.694961 -169.059823 
L 45.397623 -169.059823 
L 51.100286 -169.059823 
L 56.802949 -169.059823 
L 62.505611 -169.059823 
L 68.208274 -169.059823 
L 73.910936 -169.059823 
L 79.613599 -169.059823 
L 85.316262 -169.059823 
L 91.018924 -169.059823 
L 96.721587 -169.059823 
L 102.42425 -169.059823 
L 108.126912 -169.059823 
L 113.829575 -169.059823 
L 119.532238 -169.059823 
L 125.2349 -169.059823 
L 125.2349 -169.059823 
L 125.2349 -169.059823 
L 119.532238 -175.249488 
L 113.829575 -169.059823 
L 108.126912 -169.059823 
L 102.42425 -169.059823 
L 96.721587 -169.059823 
L 91.018924 -169.059823 
L 85.316262 -169.059823 
L 79.613599 -169.059823 
L 73.910936 -175.249488 
L 68.208274 -169.059823 
L 62.505611 -169.059823 
L 56.802949 -169.059823 
L 51.100286 -169.059823 
L 45.397623 -175.249488 
L 39.694961 -175.249488 
L 33.992298 -181.439153 
L 28.289635 -181.439153 
L 22.586973 -200.008149 
L 16.88431 -206.197814 
L 11.181647 -175.249488 
L 5.478985 -169.059823 
z
" style="stroke: #cdfb0a; stroke-opacity: 0.672727"/>
    </defs>
    <g clip-path="url(#p08371e6174)">
     <use xlink:href="#m0b456b70f9" x="0" y="337.40125" style="fill: #cdfb0a; fill-opacity: 0.672727; stroke: #cdfb0a; stroke-opacity: 0.672727"/>
    </g>
   </g>
   <g id="line2d_25">
    <path d="M 5.478985 168.341427 
L 11.181647 168.341427 
L 16.88431 168.341427 
L 22.586973 168.341427 
L 28.289635 168.341427 
L 33.992298 168.341427 
L 39.694961 168.341427 
L 45.397623 168.341427 
L 51.100286 168.341427 
L 56.802949 168.341427 
L 62.505611 168.341427 
L 68.208274 168.341427 
L 73.910936 168.341427 
L 79.613599 168.341427 
L 85.316262 168.341427 
L 91.018924 168.341427 
L 96.721587 168.341427 
L 102.42425 168.341427 
L 108.126912 168.341427 
L 113.829575 168.341427 
L 119.532238 168.341427 
L 125.2349 168.341427 
" clip-path="url(#p08371e6174)" style="fill: none; stroke: #cdfb0a; stroke-opacity: 0.672727; stroke-width: 1.5; stroke-linecap: square"/>
   </g>
   <g id="line2d_26">
    <path d="M 5.478985 168.341427 
L 11.181647 162.151762 
L 16.88431 131.203436 
L 22.586973 137.393101 
L 28.289635 155.962097 
L 33.992298 155.962097 
L 39.694961 162.151762 
L 45.397623 162.151762 
L 51.100286 168.341427 
L 56.802949 168.341427 
L 62.505611 168.341427 
L 68.208274 168.341427 
L 73.910936 162.151762 
L 79.613599 168.341427 
L 85.316262 168.341427 
L 91.018924 168.341427 
L 96.721587 168.341427 
L 102.42425 168.341427 
L 108.126912 168.341427 
L 113.829575 168.341427 
L 119.532238 162.151762 
L 125.2349 168.341427 
" clip-path="url(#p08371e6174)" style="fill: none; stroke: #000000; stroke-opacity: 0.672727; stroke-width: 1.5; stroke-linecap: square"/>
   </g>
  </g>
  <g id="axes_12">
   <g id="FillBetweenPolyCollection_11">
    <defs>
     <path id="mc9b81715ff" d="M 7.944644 -157.654368 
L 7.944644 -157.654368 
L 12.985961 -157.654368 
L 18.027278 -157.654368 
L 23.068595 -157.654368 
L 28.109913 -157.654368 
L 33.15123 -157.654368 
L 38.192547 -157.654368 
L 43.233865 -157.654368 
L 48.275182 -157.654368 
L 53.316499 -157.654368 
L 58.357816 -157.654368 
L 63.399134 -157.654368 
L 68.440451 -157.654368 
L 73.481768 -157.654368 
L 78.523085 -157.654368 
L 83.564403 -157.654368 
L 88.60572 -157.654368 
L 93.647037 -157.654368 
L 98.688355 -157.654368 
L 103.729672 -157.654368 
L 108.770989 -157.654368 
L 113.812306 -157.654368 
L 113.812306 -157.654368 
L 113.812306 -157.654368 
L 108.770989 -163.844033 
L 103.729672 -157.654368 
L 98.688355 -157.654368 
L 93.647037 -157.654368 
L 88.60572 -157.654368 
L 83.564403 -157.654368 
L 78.523085 -157.654368 
L 73.481768 -157.654368 
L 68.440451 -157.654368 
L 63.399134 -157.654368 
L 58.357816 -163.844033 
L 53.316499 -157.654368 
L 48.275182 -163.844033 
L 43.233865 -163.844033 
L 38.192547 -157.654368 
L 33.15123 -157.654368 
L 28.109913 -176.223364 
L 23.068595 -188.602694 
L 18.027278 -194.792359 
L 12.985961 -170.033698 
L 7.944644 -157.654368 
z
" style="stroke: #cdfb0a; stroke-opacity: 0.7"/>
    </defs>
    <g clip-path="url(#p8cf9c7d49f)">
     <use xlink:href="#mc9b81715ff" x="0" y="337.40125" style="fill: #cdfb0a; fill-opacity: 0.7; stroke: #cdfb0a; stroke-opacity: 0.7"/>
    </g>
   </g>
   <g id="line2d_27">
    <path d="M 7.944644 179.746882 
L 12.985961 179.746882 
L 18.027278 179.746882 
L 23.068595 179.746882 
L 28.109913 179.746882 
L 33.15123 179.746882 
L 38.192547 179.746882 
L 43.233865 179.746882 
L 48.275182 179.746882 
L 53.316499 179.746882 
L 58.357816 179.746882 
L 63.399134 179.746882 
L 68.440451 179.746882 
L 73.481768 179.746882 
L 78.523085 179.746882 
L 83.564403 179.746882 
L 88.60572 179.746882 
L 93.647037 179.746882 
L 98.688355 179.746882 
L 103.729672 179.746882 
L 108.770989 179.746882 
L 113.812306 179.746882 
" clip-path="url(#p8cf9c7d49f)" style="fill: none; stroke: #cdfb0a; stroke-opacity: 0.7; stroke-width: 1.5; stroke-linecap: square"/>
   </g>
   <g id="line2d_28">
    <path d="M 7.944644 179.746882 
L 12.985961 167.367552 
L 18.027278 142.608891 
L 23.068595 148.798556 
L 28.109913 161.177886 
L 33.15123 179.746882 
L 38.192547 179.746882 
L 43.233865 173.557217 
L 48.275182 173.557217 
L 53.316499 179.746882 
L 58.357816 173.557217 
L 63.399134 179.746882 
L 68.440451 179.746882 
L 73.481768 179.746882 
L 78.523085 179.746882 
L 83.564403 179.746882 
L 88.60572 179.746882 
L 93.647037 179.746882 
L 98.688355 179.746882 
L 103.729672 179.746882 
L 108.770989 173.557217 
L 113.812306 179.746882 
" clip-path="url(#p8cf9c7d49f)" style="fill: none; stroke: #000000; stroke-opacity: 0.7; stroke-width: 1.5; stroke-linecap: square"/>
   </g>
  </g>
  <g id="axes_13">
   <g id="FillBetweenPolyCollection_12">
    <defs>
     <path id="m19f9c4e370" d="M 3.907996 -146.248913 
L 3.907996 -146.248913 
L 10.165099 -146.248913 
L 16.422202 -146.248913 
L 22.679305 -146.248913 
L 28.936407 -146.248913 
L 35.19351 -146.248913 
L 41.450613 -146.248913 
L 47.707715 -146.248913 
L 53.964818 -146.248913 
L 60.221921 -146.248913 
L 66.479024 -146.248913 
L 72.736126 -146.248913 
L 78.993229 -146.248913 
L 85.250332 -146.248913 
L 91.507435 -146.248913 
L 97.764537 -146.248913 
L 104.02164 -146.248913 
L 110.278743 -146.248913 
L 116.535845 -146.248913 
L 122.792948 -146.248913 
L 129.050051 -146.248913 
L 135.307154 -146.248913 
L 135.307154 -146.248913 
L 135.307154 -146.248913 
L 129.050051 -152.438579 
L 122.792948 -146.248913 
L 116.535845 -146.248913 
L 110.278743 -146.248913 
L 104.02164 -146.248913 
L 97.764537 -146.248913 
L 91.507435 -146.248913 
L 85.250332 -146.248913 
L 78.993229 -146.248913 
L 72.736126 -152.438579 
L 66.479024 -146.248913 
L 60.221921 -146.248913 
L 53.964818 -152.438579 
L 47.707715 -146.248913 
L 41.450613 -152.438579 
L 35.19351 -164.817909 
L 28.936407 -158.628244 
L 22.679305 -152.438579 
L 16.422202 -201.955901 
L 10.165099 -152.438579 
L 3.907996 -146.248913 
z
" style="stroke: #cdfb0a; stroke-opacity: 0.727273"/>
    </defs>
    <g clip-path="url(#p03e6e82565)">
     <use xlink:href="#m19f9c4e370" x="0" y="337.40125" style="fill: #cdfb0a; fill-opacity: 0.727273; stroke: #cdfb0a; stroke-opacity: 0.727273"/>
    </g>
   </g>
   <g id="line2d_29">
    <path d="M 3.907996 191.152337 
L 10.165099 191.152337 
L 16.422202 191.152337 
L 22.679305 191.152337 
L 28.936407 191.152337 
L 35.19351 191.152337 
L 41.450613 191.152337 
L 47.707715 191.152337 
L 53.964818 191.152337 
L 60.221921 191.152337 
L 66.479024 191.152337 
L 72.736126 191.152337 
L 78.993229 191.152337 
L 85.250332 191.152337 
L 91.507435 191.152337 
L 97.764537 191.152337 
L 104.02164 191.152337 
L 110.278743 191.152337 
L 116.535845 191.152337 
L 122.792948 191.152337 
L 129.050051 191.152337 
L 135.307154 191.152337 
" clip-path="url(#p03e6e82565)" style="fill: none; stroke: #cdfb0a; stroke-opacity: 0.727273; stroke-width: 1.5; stroke-linecap: square"/>
   </g>
   <g id="line2d_30">
    <path d="M 3.907996 191.152337 
L 10.165099 184.962671 
L 16.422202 135.445349 
L 22.679305 184.962671 
L 28.936407 178.773006 
L 35.19351 172.583341 
L 41.450613 184.962671 
L 47.707715 191.152337 
L 53.964818 184.962671 
L 60.221921 191.152337 
L 66.479024 191.152337 
L 72.736126 184.962671 
L 78.993229 191.152337 
L 85.250332 191.152337 
L 91.507435 191.152337 
L 97.764537 191.152337 
L 104.02164 191.152337 
L 110.278743 191.152337 
L 116.535845 191.152337 
L 122.792948 191.152337 
L 129.050051 184.962671 
L 135.307154 191.152337 
" clip-path="url(#p03e6e82565)" style="fill: none; stroke: #000000; stroke-opacity: 0.727273; stroke-width: 1.5; stroke-linecap: square"/>
   </g>
  </g>
  <g id="axes_14">
   <g id="FillBetweenPolyCollection_13">
    <defs>
     <path id="m3c8692f527" d="M 6.026138 -134.843459 
L 6.026138 -134.843459 
L 13.329835 -134.843459 
L 20.633531 -134.843459 
L 27.937227 -134.843459 
L 35.240924 -134.843459 
L 42.54462 -134.843459 
L 49.848316 -134.843459 
L 57.152013 -134.843459 
L 64.455709 -134.843459 
L 71.759405 -134.843459 
L 79.063102 -134.843459 
L 86.366798 -134.843459 
L 93.670495 -134.843459 
L 100.974191 -134.843459 
L 108.277887 -134.843459 
L 115.581584 -134.843459 
L 122.88528 -134.843459 
L 130.188976 -134.843459 
L 137.492673 -134.843459 
L 144.796369 -134.843459 
L 152.100065 -134.843459 
L 159.403762 -134.843459 
L 159.403762 -134.843459 
L 159.403762 -134.843459 
L 152.100065 -141.033124 
L 144.796369 -134.843459 
L 137.492673 -134.843459 
L 130.188976 -134.843459 
L 122.88528 -134.843459 
L 115.581584 -134.843459 
L 108.277887 -134.843459 
L 100.974191 -134.843459 
L 93.670495 -141.033124 
L 86.366798 -134.843459 
L 79.063102 -134.843459 
L 71.759405 -134.843459 
L 64.455709 -141.033124 
L 57.152013 -134.843459 
L 49.848316 -134.843459 
L 42.54462 -147.222789 
L 35.240924 -141.033124 
L 27.937227 -159.60212 
L 20.633531 -184.360781 
L 13.329835 -147.222789 
L 6.026138 -134.843459 
z
" style="stroke: #cdfb0a; stroke-opacity: 0.754545"/>
    </defs>
    <g clip-path="url(#p3254ca8f90)">
     <use xlink:href="#m3c8692f527" x="0" y="337.40125" style="fill: #cdfb0a; fill-opacity: 0.754545; stroke: #cdfb0a; stroke-opacity: 0.754545"/>
    </g>
   </g>
   <g id="line2d_31">
    <path d="M 6.026138 202.557791 
L 13.329835 202.557791 
L 20.633531 202.557791 
L 27.937227 202.557791 
L 35.240924 202.557791 
L 42.54462 202.557791 
L 49.848316 202.557791 
L 57.152013 202.557791 
L 64.455709 202.557791 
L 71.759405 202.557791 
L 79.063102 202.557791 
L 86.366798 202.557791 
L 93.670495 202.557791 
L 100.974191 202.557791 
L 108.277887 202.557791 
L 115.581584 202.557791 
L 122.88528 202.557791 
L 130.188976 202.557791 
L 137.492673 202.557791 
L 144.796369 202.557791 
L 152.100065 202.557791 
L 159.403762 202.557791 
" clip-path="url(#p3254ca8f90)" style="fill: none; stroke: #cdfb0a; stroke-opacity: 0.754545; stroke-width: 1.5; stroke-linecap: square"/>
   </g>
   <g id="line2d_32">
    <path d="M 6.026138 202.557791 
L 13.329835 190.178461 
L 20.633531 153.040469 
L 27.937227 177.79913 
L 35.240924 196.368126 
L 42.54462 190.178461 
L 49.848316 202.557791 
L 57.152013 202.557791 
L 64.455709 196.368126 
L 71.759405 202.557791 
L 79.063102 202.557791 
L 86.366798 202.557791 
L 93.670495 196.368126 
L 100.974191 202.557791 
L 108.277887 202.557791 
L 115.581584 202.557791 
L 122.88528 202.557791 
L 130.188976 202.557791 
L 137.492673 202.557791 
L 144.796369 202.557791 
L 152.100065 196.368126 
L 159.403762 202.557791 
" clip-path="url(#p3254ca8f90)" style="fill: none; stroke: #000000; stroke-opacity: 0.754545; stroke-width: 1.5; stroke-linecap: square"/>
   </g>
  </g>
  <g id="axes_15">
   <g id="FillBetweenPolyCollection_14">
    <defs>
     <path id="m389d3c0542" d="M 2.496318 -123.438004 
L 2.496318 -123.438004 
L 15.298748 -123.438004 
L 28.101179 -123.438004 
L 40.903609 -123.438004 
L 53.70604 -123.438004 
L 66.50847 -123.438004 
L 79.3109 -123.438004 
L 92.113331 -123.438004 
L 104.915761 -123.438004 
L 117.718192 -123.438004 
L 130.520622 -123.438004 
L 143.323053 -123.438004 
L 156.125483 -123.438004 
L 168.927914 -123.438004 
L 181.730344 -123.438004 
L 194.532775 -123.438004 
L 207.335205 -123.438004 
L 220.137635 -123.438004 
L 232.940066 -123.438004 
L 245.742496 -123.438004 
L 258.544927 -123.438004 
L 271.347357 -123.438004 
L 271.347357 -123.438004 
L 271.347357 -123.438004 
L 258.544927 -129.62767 
L 245.742496 -123.438004 
L 232.940066 -123.438004 
L 220.137635 -123.438004 
L 207.335205 -123.438004 
L 194.532775 -123.438004 
L 181.730344 -123.438004 
L 168.927914 -123.438004 
L 156.125483 -129.62767 
L 143.323053 -123.438004 
L 130.520622 -123.438004 
L 117.718192 -123.438004 
L 104.915761 -129.62767 
L 92.113331 -123.438004 
L 79.3109 -123.438004 
L 66.50847 -135.817335 
L 53.70604 -129.62767 
L 40.903609 -148.196665 
L 28.101179 -160.575996 
L 15.298748 -148.196665 
L 2.496318 -123.438004 
z
" style="stroke: #cdfb0a; stroke-opacity: 0.781818"/>
    </defs>
    <g clip-path="url(#p6ecbf5bdc5)">
     <use xlink:href="#m389d3c0542" x="0" y="337.40125" style="fill: #cdfb0a; fill-opacity: 0.781818; stroke: #cdfb0a; stroke-opacity: 0.781818"/>
    </g>
   </g>
   <g id="line2d_33">
    <path d="M 2.496318 213.963246 
L 15.298748 213.963246 
L 28.101179 213.963246 
L 40.903609 213.963246 
L 53.70604 213.963246 
L 66.50847 213.963246 
L 79.3109 213.963246 
L 92.113331 213.963246 
L 104.915761 213.963246 
L 117.718192 213.963246 
L 130.520622 213.963246 
L 143.323053 213.963246 
L 156.125483 213.963246 
L 168.927914 213.963246 
L 181.730344 213.963246 
L 194.532775 213.963246 
L 207.335205 213.963246 
L 220.137635 213.963246 
L 232.940066 213.963246 
L 245.742496 213.963246 
L 258.544927 213.963246 
L 271.347357 213.963246 
" clip-path="url(#p6ecbf5bdc5)" style="fill: none; stroke: #cdfb0a; stroke-opacity: 0.781818; stroke-width: 1.5; stroke-linecap: square"/>
   </g>
   <g id="line2d_34">
    <path d="M 2.496318 213.963246 
L 15.298748 189.204585 
L 28.101179 176.825254 
L 40.903609 189.204585 
L 53.70604 207.77358 
L 66.50847 201.583915 
L 79.3109 213.963246 
L 92.113331 213.963246 
L 104.915761 207.77358 
L 117.718192 213.963246 
L 130.520622 213.963246 
L 143.323053 213.963246 
L 156.125483 207.77358 
L 168.927914 213.963246 
L 181.730344 213.963246 
L 194.532775 213.963246 
L 207.335205 213.963246 
L 220.137635 213.963246 
L 232.940066 213.963246 
L 245.742496 213.963246 
L 258.544927 207.77358 
L 271.347357 213.963246 
" clip-path="url(#p6ecbf5bdc5)" style="fill: none; stroke: #000000; stroke-opacity: 0.781818; stroke-width: 1.5; stroke-linecap: square"/>
   </g>
  </g>
  <g id="axes_16">
   <g id="FillBetweenPolyCollection_15">
    <defs>
     <path id="m9007efa69e" d="M 6.412435 -112.03255 
L 6.412435 -112.03255 
L 20.549684 -112.03255 
L 34.686933 -112.03255 
L 48.824182 -112.03255 
L 62.961431 -112.03255 
L 77.09868 -112.03255 
L 91.235929 -112.03255 
L 105.373178 -112.03255 
L 119.510427 -112.03255 
L 133.647676 -112.03255 
L 147.784925 -112.03255 
L 161.922175 -112.03255 
L 176.059424 -112.03255 
L 190.196673 -112.03255 
L 204.333922 -112.03255 
L 218.471171 -112.03255 
L 232.60842 -112.03255 
L 246.745669 -112.03255 
L 260.882918 -112.03255 
L 275.020167 -112.03255 
L 289.157416 -112.03255 
L 303.294665 -112.03255 
L 303.294665 -112.03255 
L 303.294665 -112.03255 
L 289.157416 -118.222215 
L 275.020167 -112.03255 
L 260.882918 -112.03255 
L 246.745669 -112.03255 
L 232.60842 -112.03255 
L 218.471171 -112.03255 
L 204.333922 -112.03255 
L 190.196673 -112.03255 
L 176.059424 -112.03255 
L 161.922175 -112.03255 
L 147.784925 -112.03255 
L 133.647676 -118.222215 
L 119.510427 -118.222215 
L 105.373178 -112.03255 
L 91.235929 -112.03255 
L 77.09868 -124.41188 
L 62.961431 -124.41188 
L 48.824182 -124.41188 
L 34.686933 -155.360207 
L 20.549684 -136.791211 
L 6.412435 -112.03255 
z
" style="stroke: #cdfb0a; stroke-opacity: 0.809091"/>
    </defs>
    <g clip-path="url(#pca6dcd50da)">
     <use xlink:href="#m9007efa69e" x="0" y="337.40125" style="fill: #cdfb0a; fill-opacity: 0.809091; stroke: #cdfb0a; stroke-opacity: 0.809091"/>
    </g>
   </g>
   <g id="line2d_35">
    <path d="M 6.412435 225.3687 
L 20.549684 225.3687 
L 34.686933 225.3687 
L 48.824182 225.3687 
L 62.961431 225.3687 
L 77.09868 225.3687 
L 91.235929 225.3687 
L 105.373178 225.3687 
L 119.510427 225.3687 
L 133.647676 225.3687 
L 147.784925 225.3687 
L 161.922175 225.3687 
L 176.059424 225.3687 
L 190.196673 225.3687 
L 204.333922 225.3687 
L 218.471171 225.3687 
L 232.60842 225.3687 
L 246.745669 225.3687 
L 260.882918 225.3687 
L 275.020167 225.3687 
L 289.157416 225.3687 
L 303.294665 225.3687 
" clip-path="url(#pca6dcd50da)" style="fill: none; stroke: #cdfb0a; stroke-opacity: 0.809091; stroke-width: 1.5; stroke-linecap: square"/>
   </g>
   <g id="line2d_36">
    <path d="M 6.412435 225.3687 
L 20.549684 200.610039 
L 34.686933 182.041043 
L 48.824182 212.98937 
L 62.961431 212.98937 
L 77.09868 212.98937 
L 91.235929 225.3687 
L 105.373178 225.3687 
L 119.510427 219.179035 
L 133.647676 219.179035 
L 147.784925 225.3687 
L 161.922175 225.3687 
L 176.059424 225.3687 
L 190.196673 225.3687 
L 204.333922 225.3687 
L 218.471171 225.3687 
L 232.60842 225.3687 
L 246.745669 225.3687 
L 260.882918 225.3687 
L 275.020167 225.3687 
L 289.157416 219.179035 
L 303.294665 225.3687 
" clip-path="url(#pca6dcd50da)" style="fill: none; stroke: #000000; stroke-opacity: 0.809091; stroke-width: 1.5; stroke-linecap: square"/>
   </g>
  </g>
  <g id="axes_17">
   <g id="FillBetweenPolyCollection_16">
    <defs>
     <path id="m8a20359448" d="M 3.81826 -100.627095 
L 3.81826 -100.627095 
L 16.191272 -100.627095 
L 28.564285 -100.627095 
L 40.937298 -100.627095 
L 53.31031 -100.627095 
L 65.683323 -100.627095 
L 78.056336 -100.627095 
L 90.429348 -100.627095 
L 102.802361 -100.627095 
L 115.175374 -100.627095 
L 127.548386 -100.627095 
L 139.921399 -100.627095 
L 152.294411 -100.627095 
L 164.667424 -100.627095 
L 177.040437 -100.627095 
L 189.413449 -100.627095 
L 201.786462 -100.627095 
L 214.159475 -100.627095 
L 226.532487 -100.627095 
L 238.9055 -100.627095 
L 251.278513 -100.627095 
L 263.651525 -100.627095 
L 263.651525 -100.627095 
L 263.651525 -100.627095 
L 251.278513 -106.81676 
L 238.9055 -100.627095 
L 226.532487 -100.627095 
L 214.159475 -100.627095 
L 201.786462 -100.627095 
L 189.413449 -100.627095 
L 177.040437 -100.627095 
L 164.667424 -100.627095 
L 152.294411 -100.627095 
L 139.921399 -100.627095 
L 127.548386 -100.627095 
L 115.175374 -106.81676 
L 102.802361 -106.81676 
L 90.429348 -100.627095 
L 78.056336 -106.81676 
L 65.683323 -106.81676 
L 53.31031 -113.006426 
L 40.937298 -119.196091 
L 28.564285 -137.765087 
L 16.191272 -125.385756 
L 3.81826 -100.627095 
z
" style="stroke: #cdfb0a; stroke-opacity: 0.836364"/>
    </defs>
    <g clip-path="url(#p8ddf83f9b8)">
     <use xlink:href="#m8a20359448" x="0" y="337.40125" style="fill: #cdfb0a; fill-opacity: 0.836364; stroke: #cdfb0a; stroke-opacity: 0.836364"/>
    </g>
   </g>
   <g id="line2d_37">
    <path d="M 3.81826 236.774155 
L 16.191272 236.774155 
L 28.564285 236.774155 
L 40.937298 236.774155 
L 53.31031 236.774155 
L 65.683323 236.774155 
L 78.056336 236.774155 
L 90.429348 236.774155 
L 102.802361 236.774155 
L 115.175374 236.774155 
L 127.548386 236.774155 
L 139.921399 236.774155 
L 152.294411 236.774155 
L 164.667424 236.774155 
L 177.040437 236.774155 
L 189.413449 236.774155 
L 201.786462 236.774155 
L 214.159475 236.774155 
L 226.532487 236.774155 
L 238.9055 236.774155 
L 251.278513 236.774155 
L 263.651525 236.774155 
" clip-path="url(#p8ddf83f9b8)" style="fill: none; stroke: #cdfb0a; stroke-opacity: 0.836364; stroke-width: 1.5; stroke-linecap: square"/>
   </g>
   <g id="line2d_38">
    <path d="M 3.81826 236.774155 
L 16.191272 212.015494 
L 28.564285 199.636163 
L 40.937298 218.205159 
L 53.31031 224.394824 
L 65.683323 230.58449 
L 78.056336 230.58449 
L 90.429348 236.774155 
L 102.802361 230.58449 
L 115.175374 230.58449 
L 127.548386 236.774155 
L 139.921399 236.774155 
L 152.294411 236.774155 
L 164.667424 236.774155 
L 177.040437 236.774155 
L 189.413449 236.774155 
L 201.786462 236.774155 
L 214.159475 236.774155 
L 226.532487 236.774155 
L 238.9055 236.774155 
L 251.278513 230.58449 
L 263.651525 236.774155 
" clip-path="url(#p8ddf83f9b8)" style="fill: none; stroke: #000000; stroke-opacity: 0.836364; stroke-width: 1.5; stroke-linecap: square"/>
   </g>
  </g>
  <g id="axes_18">
   <g id="FillBetweenPolyCollection_17">
    <defs>
     <path id="m92c84b678c" d="M 8.914876 -89.221641 
L 8.914876 -89.221641 
L 20.063569 -89.221641 
L 31.212262 -89.221641 
L 42.360955 -89.221641 
L 53.509647 -89.221641 
L 64.65834 -89.221641 
L 75.807033 -89.221641 
L 86.955725 -89.221641 
L 98.104418 -89.221641 
L 109.253111 -89.221641 
L 120.401804 -89.221641 
L 131.550496 -89.221641 
L 142.699189 -89.221641 
L 153.847882 -89.221641 
L 164.996575 -89.221641 
L 176.145267 -89.221641 
L 187.29396 -89.221641 
L 198.442653 -89.221641 
L 209.591345 -89.221641 
L 220.740038 -89.221641 
L 231.888731 -89.221641 
L 243.037424 -89.221641 
L 243.037424 -89.221641 
L 243.037424 -89.221641 
L 231.888731 -95.411306 
L 220.740038 -89.221641 
L 209.591345 -89.221641 
L 198.442653 -89.221641 
L 187.29396 -89.221641 
L 176.145267 -89.221641 
L 164.996575 -89.221641 
L 153.847882 -89.221641 
L 142.699189 -89.221641 
L 131.550496 -89.221641 
L 120.401804 -95.411306 
L 109.253111 -95.411306 
L 98.104418 -95.411306 
L 86.955725 -95.411306 
L 75.807033 -101.600971 
L 64.65834 -89.221641 
L 53.509647 -95.411306 
L 42.360955 -107.790636 
L 31.212262 -132.549297 
L 20.063569 -101.600971 
L 8.914876 -89.221641 
z
" style="stroke: #cdfb0a; stroke-opacity: 0.863636"/>
    </defs>
    <g clip-path="url(#p42a12ee6f6)">
     <use xlink:href="#m92c84b678c" x="0" y="337.40125" style="fill: #cdfb0a; fill-opacity: 0.863636; stroke: #cdfb0a; stroke-opacity: 0.863636"/>
    </g>
   </g>
   <g id="line2d_39">
    <path d="M 8.914876 248.179609 
L 20.063569 248.179609 
L 31.212262 248.179609 
L 42.360955 248.179609 
L 53.509647 248.179609 
L 64.65834 248.179609 
L 75.807033 248.179609 
L 86.955725 248.179609 
L 98.104418 248.179609 
L 109.253111 248.179609 
L 120.401804 248.179609 
L 131.550496 248.179609 
L 142.699189 248.179609 
L 153.847882 248.179609 
L 164.996575 248.179609 
L 176.145267 248.179609 
L 187.29396 248.179609 
L 198.442653 248.179609 
L 209.591345 248.179609 
L 220.740038 248.179609 
L 231.888731 248.179609 
L 243.037424 248.179609 
" clip-path="url(#p42a12ee6f6)" style="fill: none; stroke: #cdfb0a; stroke-opacity: 0.863636; stroke-width: 1.5; stroke-linecap: square"/>
   </g>
   <g id="line2d_40">
    <path d="M 8.914876 248.179609 
L 20.063569 235.800279 
L 31.212262 204.851953 
L 42.360955 229.610614 
L 53.509647 241.989944 
L 64.65834 248.179609 
L 75.807033 235.800279 
L 86.955725 241.989944 
L 98.104418 241.989944 
L 109.253111 241.989944 
L 120.401804 241.989944 
L 131.550496 248.179609 
L 142.699189 248.179609 
L 153.847882 248.179609 
L 164.996575 248.179609 
L 176.145267 248.179609 
L 187.29396 248.179609 
L 198.442653 248.179609 
L 209.591345 248.179609 
L 220.740038 248.179609 
L 231.888731 241.989944 
L 243.037424 248.179609 
" clip-path="url(#p42a12ee6f6)" style="fill: none; stroke: #000000; stroke-opacity: 0.863636; stroke-width: 1.5; stroke-linecap: square"/>
   </g>
  </g>
  <g id="axes_19">
   <g id="FillBetweenPolyCollection_18">
    <defs>
     <path id="me7c3048ba1" d="M 5.95377 -77.816186 
L 5.95377 -77.816186 
L 18.232155 -77.816186 
L 30.51054 -77.816186 
L 42.788925 -77.816186 
L 55.06731 -77.816186 
L 67.345695 -77.816186 
L 79.62408 -77.816186 
L 91.902465 -77.816186 
L 104.18085 -77.816186 
L 116.459235 -77.816186 
L 128.73762 -77.816186 
L 141.016005 -77.816186 
L 153.29439 -77.816186 
L 165.572775 -77.816186 
L 177.85116 -77.816186 
L 190.129545 -77.816186 
L 202.40793 -77.816186 
L 214.686315 -77.816186 
L 226.9647 -77.816186 
L 239.243085 -77.816186 
L 251.52147 -77.816186 
L 263.799855 -77.816186 
L 263.799855 -77.816186 
L 263.799855 -77.816186 
L 251.52147 -84.005851 
L 239.243085 -77.816186 
L 226.9647 -77.816186 
L 214.686315 -77.816186 
L 202.40793 -77.816186 
L 190.129545 -77.816186 
L 177.85116 -77.816186 
L 165.572775 -77.816186 
L 153.29439 -77.816186 
L 141.016005 -77.816186 
L 128.73762 -77.816186 
L 116.459235 -90.195517 
L 104.18085 -77.816186 
L 91.902465 -90.195517 
L 79.62408 -90.195517 
L 67.345695 -77.816186 
L 55.06731 -84.005851 
L 42.788925 -108.764512 
L 30.51054 -108.764512 
L 18.232155 -90.195517 
L 5.95377 -77.816186 
z
" style="stroke: #cdfb0a; stroke-opacity: 0.890909"/>
    </defs>
    <g clip-path="url(#pfe31d2b98b)">
     <use xlink:href="#me7c3048ba1" x="0" y="337.40125" style="fill: #cdfb0a; fill-opacity: 0.890909; stroke: #cdfb0a; stroke-opacity: 0.890909"/>
    </g>
   </g>
   <g id="line2d_41">
    <path d="M 5.95377 259.585064 
L 18.232155 259.585064 
L 30.51054 259.585064 
L 42.788925 259.585064 
L 55.06731 259.585064 
L 67.345695 259.585064 
L 79.62408 259.585064 
L 91.902465 259.585064 
L 104.18085 259.585064 
L 116.459235 259.585064 
L 128.73762 259.585064 
L 141.016005 259.585064 
L 153.29439 259.585064 
L 165.572775 259.585064 
L 177.85116 259.585064 
L 190.129545 259.585064 
L 202.40793 259.585064 
L 214.686315 259.585064 
L 226.9647 259.585064 
L 239.243085 259.585064 
L 251.52147 259.585064 
L 263.799855 259.585064 
" clip-path="url(#pfe31d2b98b)" style="fill: none; stroke: #cdfb0a; stroke-opacity: 0.890909; stroke-width: 1.5; stroke-linecap: square"/>
   </g>
   <g id="line2d_42">
    <path d="M 5.95377 259.585064 
L 18.232155 247.205733 
L 30.51054 228.636738 
L 42.788925 228.636738 
L 55.06731 253.395399 
L 67.345695 259.585064 
L 79.62408 247.205733 
L 91.902465 247.205733 
L 104.18085 259.585064 
L 116.459235 247.205733 
L 128.73762 259.585064 
L 141.016005 259.585064 
L 153.29439 259.585064 
L 165.572775 259.585064 
L 177.85116 259.585064 
L 190.129545 259.585064 
L 202.40793 259.585064 
L 214.686315 259.585064 
L 226.9647 259.585064 
L 239.243085 259.585064 
L 251.52147 253.395399 
L 263.799855 259.585064 
" clip-path="url(#pfe31d2b98b)" style="fill: none; stroke: #000000; stroke-opacity: 0.890909; stroke-width: 1.5; stroke-linecap: square"/>
   </g>
  </g>
  <g id="axes_20">
   <g id="FillBetweenPolyCollection_19">
    <defs>
     <path id="m95ac944f2c" d="M -2.639078 -66.410732 
L -2.639078 -66.410732 
L 10.298855 -66.410732 
L 23.236789 -66.410732 
L 36.174723 -66.410732 
L 49.112656 -66.410732 
L 62.05059 -66.410732 
L 74.988524 -66.410732 
L 87.926457 -66.410732 
L 100.864391 -66.410732 
L 113.802325 -66.410732 
L 126.740258 -66.410732 
L 139.678192 -66.410732 
L 152.616125 -66.410732 
L 165.554059 -66.410732 
L 178.491993 -66.410732 
L 191.429926 -66.410732 
L 204.36786 -66.410732 
L 217.305794 -66.410732 
L 230.243727 -66.410732 
L 243.181661 -66.410732 
L 256.119595 -66.410732 
L 269.057528 -66.410732 
L 269.057528 -66.410732 
L 269.057528 -66.410732 
L 256.119595 -72.600397 
L 243.181661 -66.410732 
L 230.243727 -66.410732 
L 217.305794 -66.410732 
L 204.36786 -66.410732 
L 191.429926 -66.410732 
L 178.491993 -66.410732 
L 165.554059 -66.410732 
L 152.616125 -66.410732 
L 139.678192 -66.410732 
L 126.740258 -66.410732 
L 113.802325 -78.790062 
L 100.864391 -78.790062 
L 87.926457 -72.600397 
L 74.988524 -78.790062 
L 62.05059 -66.410732 
L 49.112656 -84.979727 
L 36.174723 -84.979727 
L 23.236789 -97.359058 
L 10.298855 -72.600397 
L -2.639078 -66.410732 
z
" style="stroke: #cdfb0a; stroke-opacity: 0.918182"/>
    </defs>
    <g clip-path="url(#p2d4d94f1f3)">
     <use xlink:href="#m95ac944f2c" x="0" y="337.40125" style="fill: #cdfb0a; fill-opacity: 0.918182; stroke: #cdfb0a; stroke-opacity: 0.918182"/>
    </g>
   </g>
   <g id="line2d_43">
    <path d="M -1 270.990518 
L 10.298855 270.990518 
L 23.236789 270.990518 
L 36.174723 270.990518 
L 49.112656 270.990518 
L 62.05059 270.990518 
L 74.988524 270.990518 
L 87.926457 270.990518 
L 100.864391 270.990518 
L 113.802325 270.990518 
L 126.740258 270.990518 
L 139.678192 270.990518 
L 152.616125 270.990518 
L 165.554059 270.990518 
L 178.491993 270.990518 
L 191.429926 270.990518 
L 204.36786 270.990518 
L 217.305794 270.990518 
L 230.243727 270.990518 
L 243.181661 270.990518 
L 256.119595 270.990518 
L 269.057528 270.990518 
" clip-path="url(#p2d4d94f1f3)" style="fill: none; stroke: #cdfb0a; stroke-opacity: 0.918182; stroke-width: 1.5; stroke-linecap: square"/>
   </g>
   <g id="line2d_44">
    <path d="M -1 270.206363 
L 10.298855 264.800853 
L 23.236789 240.042192 
L 36.174723 252.421523 
L 49.112656 252.421523 
L 62.05059 270.990518 
L 74.988524 258.611188 
L 87.926457 264.800853 
L 100.864391 258.611188 
L 113.802325 258.611188 
L 126.740258 270.990518 
L 139.678192 270.990518 
L 152.616125 270.990518 
L 165.554059 270.990518 
L 178.491993 270.990518 
L 191.429926 270.990518 
L 204.36786 270.990518 
L 217.305794 270.990518 
L 230.243727 270.990518 
L 243.181661 270.990518 
L 256.119595 264.800853 
L 269.057528 270.990518 
" clip-path="url(#p2d4d94f1f3)" style="fill: none; stroke: #000000; stroke-opacity: 0.918182; stroke-width: 1.5; stroke-linecap: square"/>
   </g>
  </g>
  <g id="axes_21">
   <g id="FillBetweenPolyCollection_20">
    <defs>
     <path id="m00e164aeae" d="M 4.902435 -55.005277 
L 4.902435 -55.005277 
L 19.25604 -55.005277 
L 33.609645 -55.005277 
L 47.96325 -55.005277 
L 62.316855 -55.005277 
L 76.67046 -55.005277 
L 91.024065 -55.005277 
L 105.37767 -55.005277 
L 119.731275 -55.005277 
L 134.08488 -55.005277 
L 148.438485 -55.005277 
L 162.79209 -55.005277 
L 177.145695 -55.005277 
L 191.4993 -55.005277 
L 205.852905 -55.005277 
L 220.20651 -55.005277 
L 234.560115 -55.005277 
L 248.91372 -55.005277 
L 263.267325 -55.005277 
L 277.62093 -55.005277 
L 291.974535 -55.005277 
L 306.32814 -55.005277 
L 306.32814 -55.005277 
L 306.32814 -55.005277 
L 291.974535 -61.194942 
L 277.62093 -55.005277 
L 263.267325 -55.005277 
L 248.91372 -55.005277 
L 234.560115 -55.005277 
L 220.20651 -55.005277 
L 205.852905 -55.005277 
L 191.4993 -55.005277 
L 177.145695 -55.005277 
L 162.79209 -55.005277 
L 148.438485 -55.005277 
L 134.08488 -55.005277 
L 119.731275 -61.194942 
L 105.37767 -61.194942 
L 91.024065 -73.574273 
L 76.67046 -61.194942 
L 62.316855 -61.194942 
L 47.96325 -92.143269 
L 33.609645 -67.384608 
L 19.25604 -67.384608 
L 4.902435 -55.005277 
z
" style="stroke: #cdfb0a; stroke-opacity: 0.945455"/>
    </defs>
    <g clip-path="url(#p94146b71b6)">
     <use xlink:href="#m00e164aeae" x="0" y="337.40125" style="fill: #cdfb0a; fill-opacity: 0.945455; stroke: #cdfb0a; stroke-opacity: 0.945455"/>
    </g>
   </g>
   <g id="line2d_45">
    <path d="M 4.902435 282.395973 
L 19.25604 282.395973 
L 33.609645 282.395973 
L 47.96325 282.395973 
L 62.316855 282.395973 
L 76.67046 282.395973 
L 91.024065 282.395973 
L 105.37767 282.395973 
L 119.731275 282.395973 
L 134.08488 282.395973 
L 148.438485 282.395973 
L 162.79209 282.395973 
L 177.145695 282.395973 
L 191.4993 282.395973 
L 205.852905 282.395973 
L 220.20651 282.395973 
L 234.560115 282.395973 
L 248.91372 282.395973 
L 263.267325 282.395973 
L 277.62093 282.395973 
L 291.974535 282.395973 
L 306.32814 282.395973 
" clip-path="url(#p94146b71b6)" style="fill: none; stroke: #cdfb0a; stroke-opacity: 0.945455; stroke-width: 1.5; stroke-linecap: square"/>
   </g>
   <g id="line2d_46">
    <path d="M 4.902435 282.395973 
L 19.25604 270.016642 
L 33.609645 270.016642 
L 47.96325 245.257981 
L 62.316855 276.206308 
L 76.67046 276.206308 
L 91.024065 263.826977 
L 105.37767 276.206308 
L 119.731275 276.206308 
L 134.08488 282.395973 
L 148.438485 282.395973 
L 162.79209 282.395973 
L 177.145695 282.395973 
L 191.4993 282.395973 
L 205.852905 282.395973 
L 220.20651 282.395973 
L 234.560115 282.395973 
L 248.91372 282.395973 
L 263.267325 282.395973 
L 277.62093 282.395973 
L 291.974535 276.206308 
L 306.32814 282.395973 
" clip-path="url(#p94146b71b6)" style="fill: none; stroke: #000000; stroke-opacity: 0.945455; stroke-width: 1.5; stroke-linecap: square"/>
   </g>
  </g>
  <g id="axes_22">
   <g id="FillBetweenPolyCollection_21">
    <defs>
     <path id="mf3f2fd2960" d="M -0.349499 -43.599823 
L -0.349499 -43.599823 
L 15.946069 -43.599823 
L 32.241637 -43.599823 
L 48.537205 -43.599823 
L 64.832772 -43.599823 
L 81.12834 -43.599823 
L 97.423908 -43.599823 
L 113.719475 -43.599823 
L 130.015043 -43.599823 
L 146.310611 -43.599823 
L 162.606179 -43.599823 
L 178.901746 -43.599823 
L 195.197314 -43.599823 
L 211.492882 -43.599823 
L 227.78845 -43.599823 
L 244.084017 -43.599823 
L 260.379585 -43.599823 
L 276.675153 -43.599823 
L 292.97072 -43.599823 
L 309.266288 -43.599823 
L 325.561856 -43.599823 
L 341.857424 -43.599823 
L 341.857424 -43.599823 
L 341.857424 -43.599823 
L 325.561856 -49.789488 
L 309.266288 -43.599823 
L 292.97072 -43.599823 
L 276.675153 -43.599823 
L 260.379585 -43.599823 
L 244.084017 -43.599823 
L 227.78845 -43.599823 
L 211.492882 -43.599823 
L 195.197314 -43.599823 
L 178.901746 -43.599823 
L 162.606179 -43.599823 
L 146.310611 -43.599823 
L 130.015043 -43.599823 
L 113.719475 -49.789488 
L 97.423908 -68.358483 
L 81.12834 -49.789488 
L 64.832772 -55.979153 
L 48.537205 -55.979153 
L 32.241637 -80.737814 
L 15.946069 -49.789488 
L -0.349499 -43.599823 
z
" style="stroke: #cdfb0a; stroke-opacity: 0.972727"/>
    </defs>
    <g clip-path="url(#p6c1cb53edb)">
     <use xlink:href="#mf3f2fd2960" x="0" y="337.40125" style="fill: #cdfb0a; fill-opacity: 0.972727; stroke: #cdfb0a; stroke-opacity: 0.972727"/>
    </g>
   </g>
   <g id="line2d_47">
    <path d="M -0.349499 293.801427 
L 15.946069 293.801427 
L 32.241637 293.801427 
L 48.537205 293.801427 
L 64.832772 293.801427 
L 81.12834 293.801427 
L 97.423908 293.801427 
L 113.719475 293.801427 
L 130.015043 293.801427 
L 146.310611 293.801427 
L 162.606179 293.801427 
L 178.901746 293.801427 
L 195.197314 293.801427 
L 211.492882 293.801427 
L 227.78845 293.801427 
L 244.084017 293.801427 
L 260.379585 293.801427 
L 276.675153 293.801427 
L 292.97072 293.801427 
L 309.266288 293.801427 
L 325.561856 293.801427 
L 341.857424 293.801427 
" clip-path="url(#p6c1cb53edb)" style="fill: none; stroke: #cdfb0a; stroke-opacity: 0.972727; stroke-width: 1.5; stroke-linecap: square"/>
   </g>
   <g id="line2d_48">
    <path d="M -0.349499 293.801427 
L 15.946069 287.611762 
L 32.241637 256.663436 
L 48.537205 281.422097 
L 64.832772 281.422097 
L 81.12834 287.611762 
L 97.423908 269.042767 
L 113.719475 287.611762 
L 130.015043 293.801427 
L 146.310611 293.801427 
L 162.606179 293.801427 
L 178.901746 293.801427 
L 195.197314 293.801427 
L 211.492882 293.801427 
L 227.78845 293.801427 
L 244.084017 293.801427 
L 260.379585 293.801427 
L 276.675153 293.801427 
L 292.97072 293.801427 
L 309.266288 293.801427 
L 325.561856 287.611762 
L 341.857424 293.801427 
" clip-path="url(#p6c1cb53edb)" style="fill: none; stroke: #000000; stroke-opacity: 0.972727; stroke-width: 1.5; stroke-linecap: square"/>
   </g>
  </g>
  <g id="axes_23">
   <g id="FillBetweenPolyCollection_22">
    <defs>
     <path id="mdf50ddcaef" d="M -6.143944 -32.194368 
L -6.143944 -32.194368 
L 10.585833 -32.194368 
L 27.31561 -32.194368 
L 44.045386 -32.194368 
L 60.775163 -32.194368 
L 77.50494 -32.194368 
L 94.234717 -32.194368 
L 110.964494 -32.194368 
L 127.69427 -32.194368 
L 144.424047 -32.194368 
L 161.153824 -32.194368 
L 177.883601 -32.194368 
L 194.613378 -32.194368 
L 211.343155 -32.194368 
L 228.072931 -32.194368 
L 244.802708 -32.194368 
L 261.532485 -32.194368 
L 278.262262 -32.194368 
L 294.992039 -32.194368 
L 311.721815 -32.194368 
L 328.451592 -32.194368 
L 345.181369 -32.194368 
L 345.181369 -32.194368 
L 345.181369 -32.194368 
L 328.451592 -38.384033 
L 311.721815 -32.194368 
L 294.992039 -32.194368 
L 278.262262 -32.194368 
L 261.532485 -32.194368 
L 244.802708 -32.194368 
L 228.072931 -32.194368 
L 211.343155 -32.194368 
L 194.613378 -32.194368 
L 177.883601 -32.194368 
L 161.153824 -32.194368 
L 144.424047 -32.194368 
L 127.69427 -32.194368 
L 110.964494 -44.573698 
L 94.234717 -32.194368 
L 77.50494 -38.384033 
L 60.775163 -56.953029 
L 44.045386 -32.194368 
L 27.31561 -87.901355 
L 10.585833 -38.384033 
L -6.143944 -32.194368 
z
" style="stroke: #cdfb0a"/>
    </defs>
    <g clip-path="url(#p96e71d0ae9)">
     <use xlink:href="#mdf50ddcaef" x="0" y="337.40125" style="fill: #cdfb0a; stroke: #cdfb0a"/>
    </g>
   </g>
   <g id="line2d_49">
    <path d="M -1 305.206882 
L 10.585833 305.206882 
L 27.31561 305.206882 
L 44.045386 305.206882 
L 60.775163 305.206882 
L 77.50494 305.206882 
L 94.234717 305.206882 
L 110.964494 305.206882 
L 127.69427 305.206882 
L 144.424047 305.206882 
L 161.153824 305.206882 
L 177.883601 305.206882 
L 194.613378 305.206882 
L 211.343155 305.206882 
L 228.072931 305.206882 
L 244.802708 305.206882 
L 261.532485 305.206882 
L 278.262262 305.206882 
L 294.992039 305.206882 
L 311.721815 305.206882 
L 328.451592 305.206882 
L 345.181369 305.206882 
" clip-path="url(#p96e71d0ae9)" style="fill: none; stroke: #cdfb0a; stroke-width: 1.5; stroke-linecap: square"/>
   </g>
   <g id="line2d_50">
    <path d="M -1 303.303731 
L 10.585833 299.017217 
L 27.31561 249.499895 
L 44.045386 305.206882 
L 60.775163 280.448221 
L 77.50494 299.017217 
L 94.234717 305.206882 
L 110.964494 292.827552 
L 127.69427 305.206882 
L 144.424047 305.206882 
L 161.153824 305.206882 
L 177.883601 305.206882 
L 194.613378 305.206882 
L 211.343155 305.206882 
L 228.072931 305.206882 
L 244.802708 305.206882 
L 261.532485 305.206882 
L 278.262262 305.206882 
L 294.992039 305.206882 
L 311.721815 305.206882 
L 328.451592 299.017217 
L 345.181369 305.206882 
" clip-path="url(#p96e71d0ae9)" style="fill: none; stroke: #000000; stroke-width: 1.5; stroke-linecap: square"/>
   </g>
  </g>
  <g id="text_7">
   <!-- Ligue 1 -->
   <g style="fill: #cdfb0a" transform="translate(226.8 100.08) scale(0.18 -0.18)">
    <defs>
     <path id="Lato-Regular-4c" d="M 1178 522 
L 3162 522 
L 3162 0 
L 557 0 
L 557 4586 
L 1178 4586 
L 1178 522 
z
" transform="scale(0.015625)"/>
     <path id="Lato-Regular-69" d="M 1101 3242 
L 1101 0 
L 531 0 
L 531 3242 
L 1101 3242 
z
M 1229 4259 
Q 1229 4176 1195 4104 
Q 1162 4032 1106 3976 
Q 1050 3920 976 3888 
Q 902 3856 819 3856 
Q 736 3856 664 3888 
Q 592 3920 536 3976 
Q 480 4032 448 4104 
Q 416 4176 416 4259 
Q 416 4342 448 4417 
Q 480 4493 536 4549 
Q 592 4605 664 4637 
Q 736 4669 819 4669 
Q 902 4669 976 4637 
Q 1050 4605 1106 4549 
Q 1162 4493 1195 4417 
Q 1229 4342 1229 4259 
z
" transform="scale(0.015625)"/>
     <path id="Lato-Regular-67" d="M 1558 3296 
Q 1770 3296 1954 3249 
Q 2138 3203 2288 3114 
L 3168 3114 
L 3168 2902 
Q 3168 2797 3034 2768 
L 2666 2717 
Q 2774 2509 2774 2253 
Q 2774 2016 2683 1822 
Q 2592 1629 2430 1491 
Q 2269 1354 2046 1280 
Q 1824 1206 1558 1206 
Q 1331 1206 1130 1261 
Q 1027 1197 974 1123 
Q 922 1050 922 979 
Q 922 864 1014 805 
Q 1107 746 1260 720 
Q 1414 694 1609 688 
Q 1805 682 2008 667 
Q 2211 653 2406 617 
Q 2602 582 2755 502 
Q 2909 422 3001 281 
Q 3094 141 3094 -83 
Q 3094 -291 2990 -486 
Q 2886 -682 2691 -834 
Q 2496 -986 2214 -1077 
Q 1933 -1168 1578 -1168 
Q 1222 -1168 955 -1097 
Q 688 -1027 512 -908 
Q 336 -790 248 -635 
Q 160 -480 160 -310 
Q 160 -70 312 98 
Q 464 266 730 365 
Q 592 429 510 536 
Q 429 643 429 822 
Q 429 893 454 968 
Q 480 1043 533 1116 
Q 586 1190 662 1257 
Q 739 1325 842 1376 
Q 602 1510 466 1732 
Q 330 1955 330 2253 
Q 330 2490 421 2683 
Q 512 2877 675 3013 
Q 838 3149 1064 3222 
Q 1290 3296 1558 3296 
z
M 2570 -176 
Q 2570 -54 2502 19 
Q 2435 93 2320 133 
Q 2205 173 2054 192 
Q 1904 211 1737 219 
Q 1571 227 1398 236 
Q 1226 246 1069 272 
Q 886 186 772 61 
Q 659 -64 659 -237 
Q 659 -346 715 -440 
Q 771 -534 886 -603 
Q 1002 -672 1176 -712 
Q 1350 -752 1587 -752 
Q 1818 -752 2000 -710 
Q 2182 -669 2308 -592 
Q 2435 -515 2502 -409 
Q 2570 -304 2570 -176 
z
M 1558 1584 
Q 1731 1584 1864 1632 
Q 1997 1680 2086 1766 
Q 2176 1853 2221 1973 
Q 2266 2093 2266 2237 
Q 2266 2534 2085 2710 
Q 1904 2886 1558 2886 
Q 1216 2886 1035 2710 
Q 854 2534 854 2237 
Q 854 2093 900 1973 
Q 947 1853 1036 1766 
Q 1126 1680 1257 1632 
Q 1389 1584 1558 1584 
z
" transform="scale(0.015625)"/>
     <path id="Lato-Regular-75" d="M 960 3242 
L 960 1174 
Q 960 806 1129 604 
Q 1299 403 1642 403 
Q 1891 403 2112 521 
Q 2333 640 2518 851 
L 2518 3242 
L 3088 3242 
L 3088 0 
L 2749 0 
Q 2627 0 2595 118 
L 2550 467 
Q 2339 234 2076 91 
Q 1814 -51 1475 -51 
Q 1210 -51 1006 37 
Q 803 125 665 285 
Q 528 445 459 672 
Q 390 899 390 1174 
L 390 3242 
L 960 3242 
z
" transform="scale(0.015625)"/>
     <path id="Lato-Regular-65" d="M 1750 3293 
Q 2042 3293 2288 3195 
Q 2534 3098 2713 2914 
Q 2893 2730 2993 2459 
Q 3094 2189 3094 1843 
Q 3094 1709 3065 1664 
Q 3037 1619 2957 1619 
L 800 1619 
Q 806 1312 883 1085 
Q 960 858 1094 706 
Q 1229 554 1414 478 
Q 1600 403 1830 403 
Q 2045 403 2200 452 
Q 2355 502 2467 560 
Q 2579 618 2654 667 
Q 2730 717 2784 717 
Q 2854 717 2893 662 
L 3053 454 
Q 2947 326 2800 232 
Q 2653 138 2485 77 
Q 2317 16 2137 -14 
Q 1958 -45 1782 -45 
Q 1446 -45 1163 68 
Q 880 182 673 401 
Q 467 621 352 944 
Q 237 1267 237 1686 
Q 237 2026 341 2320 
Q 445 2614 640 2830 
Q 835 3046 1116 3169 
Q 1398 3293 1750 3293 
z
M 1763 2874 
Q 1350 2874 1113 2635 
Q 877 2397 819 1974 
L 2582 1974 
Q 2582 2173 2528 2337 
Q 2474 2502 2368 2622 
Q 2262 2742 2110 2808 
Q 1958 2874 1763 2874 
z
" transform="scale(0.015625)"/>
     <path id="Lato-Regular-20" transform="scale(0.015625)"/>
    </defs>
    <use xlink:href="#Lato-Regular-4c"/>
    <use xlink:href="#Lato-Regular-69" transform="translate(51.400009 0)"/>
    <use xlink:href="#Lato-Regular-67" transform="translate(77.000015 0)"/>
    <use xlink:href="#Lato-Regular-75" transform="translate(128.100021 0)"/>
    <use xlink:href="#Lato-Regular-65" transform="translate(183.700027 0)"/>
    <use xlink:href="#Lato-Regular-20" transform="translate(236.100037 0)"/>
    <use xlink:href="#Lato-Regular-31" transform="translate(255.40004 0)"/>
   </g>
  </g>
 </g>
 <defs>
  <clipPath id="p2c8032cb2f">
   <rect x="7.2" y="7.2" width="439.2" height="67.405455"/>
  </clipPath>
  <clipPath id="pead76d92e1">
   <rect x="7.2" y="18.605455" width="439.2" height="67.405455"/>
  </clipPath>
  <clipPath id="p4580b70db2">
   <rect x="7.2" y="30.010909" width="439.2" height="67.405455"/>
  </clipPath>
  <clipPath id="p2ba15d17a0">
   <rect x="7.2" y="41.416364" width="439.2" height="67.405455"/>
  </clipPath>
  <clipPath id="p5ee453d0c5">
   <rect x="7.2" y="52.821818" width="439.2" height="67.405455"/>
  </clipPath>
  <clipPath id="p2fb1f8b6c8">
   <rect x="7.2" y="64.227273" width="439.2" height="67.405455"/>
  </clipPath>
  <clipPath id="pd256489e70">
   <rect x="7.2" y="75.632727" width="439.2" height="67.405455"/>
  </clipPath>
  <clipPath id="p37c407528d">
   <rect x="7.2" y="87.038182" width="439.2" height="67.405455"/>
  </clipPath>
  <clipPath id="p5a1552f9e5">
   <rect x="7.2" y="98.443636" width="439.2" height="67.405455"/>
  </clipPath>
  <clipPath id="p08371e6174">
   <rect x="7.2" y="109.849091" width="439.2" height="67.405455"/>
  </clipPath>
  <clipPath id="p8cf9c7d49f">
   <rect x="7.2" y="121.254545" width="439.2" height="67.405455"/>
  </clipPath>
  <clipPath id="p03e6e82565">
   <rect x="7.2" y="132.66" width="439.2" height="67.405455"/>
  </clipPath>
  <clipPath id="p3254ca8f90">
   <rect x="7.2" y="144.065455" width="439.2" height="67.405455"/>
  </clipPath>
  <clipPath id="p6ecbf5bdc5">
   <rect x="7.2" y="155.470909" width="439.2" height="67.405455"/>
  </clipPath>
  <clipPath id="pca6dcd50da">
   <rect x="7.2" y="166.876364" width="439.2" height="67.405455"/>
  </clipPath>
  <clipPath id="p8ddf83f9b8">
   <rect x="7.2" y="178.281818" width="439.2" height="67.405455"/>
  </clipPath>
  <clipPath id="p42a12ee6f6">
   <rect x="7.2" y="189.687273" width="439.2" height="67.405455"/>
  </clipPath>
  <clipPath id="pfe31d2b98b">
   <rect x="7.2" y="201.092727" width="439.2" height="67.405455"/>
  </clipPath>
  <clipPath id="p2d4d94f1f3">
   <rect x="7.2" y="212.498182" width="439.2" height="67.405455"/>
  </clipPath>
  <clipPath id="p94146b71b6">
   <rect x="7.2" y="223.903636" width="439.2" height="67.405455"/>
  </clipPath>
  <clipPath id="p6c1cb53edb">
   <rect x="7.2" y="235.309091" width="439.2" height="67.405455"/>
  </clipPath>
  <clipPath id="p96e71d0ae9">
   <rect x="7.2" y="246.714545" width="439.2" height="67.405455"/>
  </clipPath>
 </defs>
</svg>
