<?xml version="1.0" encoding="utf-8" standalone="no"?>
<!DOCTYPE svg PUBLIC "-//W3C//DTD SVG 1.1//EN"
  "http://www.w3.org/Graphics/SVG/1.1/DTD/svg11.dtd">
<svg xmlns:xlink="http://www.w3.org/1999/xlink" width="453.6pt" height="337.40125pt" viewBox="0 0 453.6 337.40125" xmlns="http://www.w3.org/2000/svg" version="1.1">
 <metadata>
  <rdf:RDF xmlns:dc="http://purl.org/dc/elements/1.1/" xmlns:cc="http://creativecommons.org/ns#" xmlns:rdf="http://www.w3.org/1999/02/22-rdf-syntax-ns#">
   <cc:Work>
    <dc:type rdf:resource="http://purl.org/dc/dcmitype/StillImage"/>
    <dc:date>2025-11-27T18:45:03.555123</dc:date>
    <dc:format>image/svg+xml</dc:format>
    <dc:creator>
     <cc:Agent>
      <dc:title>Matplotlib v3.10.5, https://matplotlib.org/</dc:title>
     </cc:Agent>
    </dc:creator>
   </cc:Work>
  </rdf:RDF>
 </metadata>
 <defs>
  <style type="text/css">*{stroke-linejoin: round; stroke-linecap: butt}</style>
 </defs>
 <g id="figure_1">
  <g id="patch_1">
   <path d="M 0 337.40125 
L 453.6 337.40125 
L 453.6 0 
L 0 0 
z
" style="fill: #f5f5dc"/>
  </g>
  <g id="axes_1">
   <g id="patch_2">
    <path d="M 7.2 314.12 
L 446.4 314.12 
L 446.4 7.2 
L 7.2 7.2 
z
" style="fill: #f5f5dc"/>
   </g>
   <g id="matplotlib.axis_1">
    <g id="xtick_1">
     <g id="line2d_1">
      <defs>
       <path id="maaac6cc80c" d="M 0 0 
L 0 3.5 
" style="stroke: #000000; stroke-width: 0.8"/>
      </defs>
      <g>
       <use xlink:href="#maaac6cc80c" x="75.825" y="314.12" style="stroke: #000000; stroke-width: 0.8"/>
      </g>
     </g>
     <g id="text_1">
      <!-- €250M -->
      <g transform="translate(59.625 328.485625) scale(0.1 -0.1)">
       <defs>
        <path id="Lato-Regular-20ac" d="M 109 2877 
L 579 2877 
Q 643 3280 795 3605 
Q 947 3930 1172 4158 
Q 1398 4387 1692 4508 
Q 1987 4630 2333 4630 
Q 2762 4630 3066 4470 
Q 3370 4310 3594 4029 
L 3398 3811 
Q 3373 3782 3347 3761 
Q 3322 3741 3277 3741 
Q 3222 3741 3163 3801 
Q 3104 3862 3005 3936 
Q 2906 4010 2750 4070 
Q 2595 4131 2355 4131 
Q 1888 4131 1579 3811 
Q 1270 3491 1168 2877 
L 2918 2877 
L 2918 2701 
Q 2918 2643 2875 2596 
Q 2832 2550 2755 2550 
L 1130 2550 
Q 1126 2486 1124 2422 
Q 1123 2358 1123 2291 
Q 1123 2240 1123 2192 
Q 1123 2144 1126 2096 
L 2621 2096 
L 2621 1917 
Q 2621 1862 2576 1816 
Q 2531 1770 2454 1770 
L 1155 1770 
Q 1245 1110 1552 780 
Q 1859 451 2326 451 
Q 2499 451 2630 484 
Q 2762 518 2858 569 
Q 2954 621 3022 680 
Q 3091 739 3142 790 
Q 3194 842 3234 875 
Q 3274 909 3312 909 
Q 3338 909 3357 897 
Q 3376 886 3402 864 
L 3642 640 
Q 3418 314 3085 133 
Q 2752 -48 2294 -48 
Q 1923 -48 1625 78 
Q 1328 205 1110 440 
Q 893 675 753 1012 
Q 614 1350 563 1770 
L 109 1770 
L 109 2096 
L 538 2096 
Q 534 2144 534 2192 
Q 534 2240 534 2291 
Q 534 2355 536 2420 
Q 538 2486 541 2550 
L 109 2550 
L 109 2877 
z
" transform="scale(0.015625)"/>
        <path id="Lato-Regular-32" d="M 1923 4637 
Q 2214 4637 2467 4550 
Q 2720 4464 2904 4299 
Q 3088 4134 3193 3897 
Q 3299 3661 3299 3360 
Q 3299 3104 3222 2886 
Q 3146 2669 3014 2469 
Q 2883 2269 2712 2081 
Q 2541 1894 2349 1699 
L 1142 464 
Q 1270 499 1401 520 
Q 1533 541 1654 541 
L 3190 541 
Q 3283 541 3337 486 
Q 3392 432 3392 346 
L 3392 0 
L 333 0 
L 333 195 
Q 333 256 357 320 
Q 381 384 435 438 
L 1904 1914 
Q 2086 2099 2236 2270 
Q 2387 2442 2494 2614 
Q 2602 2787 2659 2964 
Q 2717 3142 2717 3344 
Q 2717 3546 2653 3698 
Q 2589 3850 2477 3949 
Q 2365 4048 2214 4097 
Q 2064 4147 1891 4147 
Q 1718 4147 1571 4096 
Q 1424 4045 1310 3953 
Q 1197 3862 1118 3737 
Q 1040 3613 1008 3462 
Q 982 3370 931 3328 
Q 880 3286 797 3286 
Q 781 3286 763 3288 
Q 746 3290 723 3293 
L 426 3344 
Q 470 3658 598 3899 
Q 726 4141 923 4304 
Q 1120 4467 1374 4552 
Q 1629 4637 1923 4637 
z
" transform="scale(0.015625)"/>
        <path id="Lato-Regular-35" d="M 3130 4336 
Q 3130 4214 3053 4136 
Q 2976 4058 2794 4058 
L 1354 4058 
L 1142 2854 
Q 1501 2931 1805 2931 
Q 2163 2931 2436 2825 
Q 2710 2720 2896 2534 
Q 3082 2349 3176 2096 
Q 3270 1843 3270 1546 
Q 3270 1181 3142 886 
Q 3014 592 2792 382 
Q 2570 173 2269 61 
Q 1968 -51 1619 -51 
Q 1418 -51 1232 -11 
Q 1046 29 886 96 
Q 726 163 588 249 
Q 451 336 346 432 
L 518 675 
Q 576 758 672 758 
Q 733 758 814 708 
Q 896 659 1011 598 
Q 1126 538 1281 488 
Q 1437 438 1651 438 
Q 1891 438 2083 515 
Q 2275 592 2411 734 
Q 2547 877 2620 1075 
Q 2694 1274 2694 1520 
Q 2694 1734 2632 1907 
Q 2570 2080 2443 2201 
Q 2317 2323 2128 2390 
Q 1939 2458 1686 2458 
Q 1514 2458 1328 2429 
Q 1142 2400 944 2336 
L 586 2442 
L 957 4586 
L 3130 4586 
L 3130 4336 
z
" transform="scale(0.015625)"/>
        <path id="Lato-Regular-30" d="M 3520 2291 
Q 3520 1690 3390 1250 
Q 3261 810 3037 522 
Q 2813 234 2507 93 
Q 2202 -48 1853 -48 
Q 1501 -48 1198 93 
Q 896 234 672 522 
Q 448 810 320 1250 
Q 192 1690 192 2291 
Q 192 2893 320 3334 
Q 448 3776 672 4065 
Q 896 4355 1198 4496 
Q 1501 4637 1853 4637 
Q 2202 4637 2507 4496 
Q 2813 4355 3037 4065 
Q 3261 3776 3390 3334 
Q 3520 2893 3520 2291 
z
M 2928 2291 
Q 2928 2816 2840 3173 
Q 2752 3530 2603 3747 
Q 2454 3965 2259 4059 
Q 2064 4154 1853 4154 
Q 1642 4154 1446 4059 
Q 1251 3965 1104 3747 
Q 957 3530 869 3173 
Q 781 2816 781 2291 
Q 781 1766 869 1411 
Q 957 1056 1104 838 
Q 1251 621 1446 526 
Q 1642 432 1853 432 
Q 2064 432 2259 526 
Q 2454 621 2603 838 
Q 2752 1056 2840 1411 
Q 2928 1766 2928 2291 
z
" transform="scale(0.015625)"/>
        <path id="Lato-Regular-4d" d="M 2813 1658 
Q 2858 1581 2891 1496 
Q 2925 1411 2957 1325 
Q 2989 1414 3024 1496 
Q 3059 1578 3104 1661 
L 4656 4480 
Q 4698 4554 4742 4570 
Q 4787 4586 4870 4586 
L 5328 4586 
L 5328 0 
L 4784 0 
L 4784 3370 
Q 4784 3437 4787 3513 
Q 4790 3590 4797 3670 
L 3226 803 
Q 3146 659 3002 659 
L 2912 659 
Q 2768 659 2688 803 
L 1082 3680 
Q 1091 3597 1096 3517 
Q 1101 3437 1101 3370 
L 1101 0 
L 557 0 
L 557 4586 
L 1014 4586 
Q 1098 4586 1142 4570 
Q 1187 4554 1229 4480 
L 2813 1658 
L 2813 1658 
z
" transform="scale(0.015625)"/>
       </defs>
       <use xlink:href="#Lato-Regular-20ac"/>
       <use xlink:href="#Lato-Regular-32" transform="translate(58 0)"/>
       <use xlink:href="#Lato-Regular-35" transform="translate(116 0)"/>
       <use xlink:href="#Lato-Regular-30" transform="translate(174 0)"/>
       <use xlink:href="#Lato-Regular-4d" transform="translate(232 0)"/>
      </g>
     </g>
    </g>
    <g id="xtick_2">
     <g id="line2d_2">
      <g>
       <use xlink:href="#maaac6cc80c" x="144.45" y="314.12" style="stroke: #000000; stroke-width: 0.8"/>
      </g>
     </g>
     <g id="text_2">
      <!-- €500M -->
      <g transform="translate(128.25 328.485625) scale(0.1 -0.1)">
       <use xlink:href="#Lato-Regular-20ac"/>
       <use xlink:href="#Lato-Regular-35" transform="translate(58 0)"/>
       <use xlink:href="#Lato-Regular-30" transform="translate(116 0)"/>
       <use xlink:href="#Lato-Regular-30" transform="translate(174 0)"/>
       <use xlink:href="#Lato-Regular-4d" transform="translate(232 0)"/>
      </g>
     </g>
    </g>
    <g id="xtick_3">
     <g id="line2d_3">
      <g>
       <use xlink:href="#maaac6cc80c" x="213.075" y="314.12" style="stroke: #000000; stroke-width: 0.8"/>
      </g>
     </g>
     <g id="text_3">
      <!-- €750M -->
      <g transform="translate(196.875 328.485625) scale(0.1 -0.1)">
       <defs>
        <path id="Lato-Regular-37" d="M 3469 4586 
L 3469 4330 
Q 3469 4221 3445 4150 
Q 3421 4080 3395 4032 
L 1498 202 
Q 1456 118 1382 59 
Q 1309 0 1184 0 
L 778 0 
L 2704 3782 
Q 2746 3862 2789 3929 
Q 2832 3997 2886 4058 
L 493 4058 
Q 438 4058 395 4101 
Q 352 4144 352 4198 
L 352 4586 
L 3469 4586 
z
" transform="scale(0.015625)"/>
       </defs>
       <use xlink:href="#Lato-Regular-20ac"/>
       <use xlink:href="#Lato-Regular-37" transform="translate(58 0)"/>
       <use xlink:href="#Lato-Regular-35" transform="translate(116 0)"/>
       <use xlink:href="#Lato-Regular-30" transform="translate(174 0)"/>
       <use xlink:href="#Lato-Regular-4d" transform="translate(232 0)"/>
      </g>
     </g>
    </g>
    <g id="xtick_4">
     <g id="line2d_4">
      <g>
       <use xlink:href="#maaac6cc80c" x="281.7" y="314.12" style="stroke: #000000; stroke-width: 0.8"/>
      </g>
     </g>
     <g id="text_4">
      <!-- €1B -->
      <g transform="translate(272.664844 328.485625) scale(0.1 -0.1)">
       <defs>
        <path id="Lato-Regular-31" d="M 918 435 
L 1904 435 
L 1904 3562 
Q 1904 3702 1914 3846 
L 1094 3146 
Q 1062 3120 1030 3109 
Q 998 3098 970 3098 
Q 922 3098 883 3118 
Q 845 3139 826 3168 
L 646 3414 
L 2010 4595 
L 2474 4595 
L 2474 435 
L 3376 435 
L 3376 0 
L 918 0 
L 918 435 
z
" transform="scale(0.015625)"/>
        <path id="Lato-Regular-42" d="M 557 0 
L 557 4586 
L 2019 4586 
Q 2442 4586 2747 4502 
Q 3053 4419 3249 4265 
Q 3446 4112 3540 3889 
Q 3635 3667 3635 3389 
Q 3635 3219 3582 3062 
Q 3530 2906 3422 2771 
Q 3315 2637 3153 2531 
Q 2992 2426 2774 2358 
Q 3277 2259 3533 1996 
Q 3789 1734 3789 1306 
Q 3789 1014 3681 774 
Q 3574 534 3368 361 
Q 3162 189 2862 94 
Q 2563 0 2179 0 
L 557 0 
z
M 1178 2090 
L 1178 493 
L 2170 493 
Q 2435 493 2625 553 
Q 2816 614 2939 724 
Q 3062 835 3120 987 
Q 3178 1139 3178 1322 
Q 3178 1677 2926 1883 
Q 2675 2090 2166 2090 
L 1178 2090 
z
M 1178 2531 
L 1997 2531 
Q 2259 2531 2451 2588 
Q 2643 2646 2769 2748 
Q 2896 2851 2957 2996 
Q 3018 3142 3018 3315 
Q 3018 3718 2774 3907 
Q 2531 4096 2019 4096 
L 1178 4096 
L 1178 2531 
z
" transform="scale(0.015625)"/>
       </defs>
       <use xlink:href="#Lato-Regular-20ac"/>
       <use xlink:href="#Lato-Regular-31" transform="translate(58 0)"/>
       <use xlink:href="#Lato-Regular-42" transform="translate(116 0)"/>
      </g>
     </g>
    </g>
    <g id="xtick_5">
     <g id="line2d_5">
      <g>
       <use xlink:href="#maaac6cc80c" x="350.325" y="314.12" style="stroke: #000000; stroke-width: 0.8"/>
      </g>
     </g>
     <g id="text_5">
      <!-- €1.25B -->
      <g transform="translate(334.429688 328.485625) scale(0.1 -0.1)">
       <defs>
        <path id="Lato-Regular-2e" d="M 282 352 
Q 282 435 312 508 
Q 342 582 395 636 
Q 448 691 521 723 
Q 595 755 678 755 
Q 762 755 835 723 
Q 909 691 963 636 
Q 1018 582 1048 508 
Q 1078 435 1078 352 
Q 1078 266 1048 194 
Q 1018 122 963 67 
Q 909 13 835 -17 
Q 762 -48 678 -48 
Q 595 -48 521 -17 
Q 448 13 395 67 
Q 342 122 312 194 
Q 282 266 282 352 
z
" transform="scale(0.015625)"/>
       </defs>
       <use xlink:href="#Lato-Regular-20ac"/>
       <use xlink:href="#Lato-Regular-31" transform="translate(58 0)"/>
       <use xlink:href="#Lato-Regular-2e" transform="translate(116 0)"/>
       <use xlink:href="#Lato-Regular-32" transform="translate(137.199997 0)"/>
       <use xlink:href="#Lato-Regular-35" transform="translate(195.199997 0)"/>
       <use xlink:href="#Lato-Regular-42" transform="translate(253.199997 0)"/>
      </g>
     </g>
    </g>
    <g id="xtick_6">
     <g id="line2d_6">
      <g>
       <use xlink:href="#maaac6cc80c" x="418.95" y="314.12" style="stroke: #000000; stroke-width: 0.8"/>
      </g>
     </g>
     <g id="text_6">
      <!-- €1.5B -->
      <g transform="translate(405.954688 328.485625) scale(0.1 -0.1)">
       <use xlink:href="#Lato-Regular-20ac"/>
       <use xlink:href="#Lato-Regular-31" transform="translate(58 0)"/>
       <use xlink:href="#Lato-Regular-2e" transform="translate(116 0)"/>
       <use xlink:href="#Lato-Regular-35" transform="translate(137.199997 0)"/>
       <use xlink:href="#Lato-Regular-42" transform="translate(195.199997 0)"/>
      </g>
     </g>
    </g>
   </g>
  </g>
  <g id="axes_2">
   <g id="FillBetweenPolyCollection_1">
    <defs>
     <path id="mf49339204c" d="M 9.974446 -271.326622 
L 9.974446 -271.326622 
L 11.702299 -271.326622 
L 13.430152 -271.326622 
L 15.158005 -271.326622 
L 16.885857 -271.326622 
L 18.61371 -271.326622 
L 20.341563 -271.326622 
L 22.069415 -271.326622 
L 23.797268 -271.326622 
L 25.525121 -271.326622 
L 27.252974 -271.326622 
L 28.980826 -271.326622 
L 30.708679 -271.326622 
L 32.436532 -271.326622 
L 34.164385 -271.326622 
L 35.892237 -271.326622 
L 37.62009 -271.326622 
L 39.347943 -271.326622 
L 41.075795 -271.326622 
L 42.803648 -271.326622 
L 44.531501 -271.326622 
L 46.259354 -271.326622 
L 46.259354 -271.326622 
L 46.259354 -271.326622 
L 44.531501 -282.540837 
L 42.803648 -271.326622 
L 41.075795 -271.326622 
L 39.347943 -271.326622 
L 37.62009 -271.326622 
L 35.892237 -282.540837 
L 34.164385 -271.326622 
L 32.436532 -271.326622 
L 30.708679 -271.326622 
L 28.980826 -293.755052 
L 27.252974 -271.326622 
L 25.525121 -271.326622 
L 23.797268 -282.540837 
L 22.069415 -304.969267 
L 20.341563 -304.969267 
L 18.61371 -271.326622 
L 16.885857 -327.397696 
L 15.158005 -282.540837 
L 13.430152 -293.755052 
L 11.702299 -282.540837 
L 9.974446 -271.326622 
z
" style="stroke: #cdfb0a; stroke-opacity: 0.427273"/>
    </defs>
    <g clip-path="url(#p70757b7d50)">
     <use xlink:href="#mf49339204c" x="0" y="337.40125" style="fill: #cdfb0a; fill-opacity: 0.427273; stroke: #cdfb0a; stroke-opacity: 0.427273"/>
    </g>
   </g>
   <g id="line2d_7">
    <path d="M 9.974446 66.074628 
L 11.702299 66.074628 
L 13.430152 66.074628 
L 15.158005 66.074628 
L 16.885857 66.074628 
L 18.61371 66.074628 
L 20.341563 66.074628 
L 22.069415 66.074628 
L 23.797268 66.074628 
L 25.525121 66.074628 
L 27.252974 66.074628 
L 28.980826 66.074628 
L 30.708679 66.074628 
L 32.436532 66.074628 
L 34.164385 66.074628 
L 35.892237 66.074628 
L 37.62009 66.074628 
L 39.347943 66.074628 
L 41.075795 66.074628 
L 42.803648 66.074628 
L 44.531501 66.074628 
L 46.259354 66.074628 
" clip-path="url(#p70757b7d50)" style="fill: none; stroke: #cdfb0a; stroke-opacity: 0.427273; stroke-width: 1.5; stroke-linecap: square"/>
   </g>
   <g id="line2d_8">
    <path d="M 9.974446 66.074628 
L 11.702299 54.860413 
L 13.430152 43.646198 
L 15.158005 54.860413 
L 16.885857 10.003554 
L 18.61371 66.074628 
L 20.341563 32.431983 
L 22.069415 32.431983 
L 23.797268 54.860413 
L 25.525121 66.074628 
L 27.252974 66.074628 
L 28.980826 43.646198 
L 30.708679 66.074628 
L 32.436532 66.074628 
L 34.164385 66.074628 
L 35.892237 54.860413 
L 37.62009 66.074628 
L 39.347943 66.074628 
L 41.075795 66.074628 
L 42.803648 66.074628 
L 44.531501 54.860413 
L 46.259354 66.074628 
" clip-path="url(#p70757b7d50)" style="fill: none; stroke: #000000; stroke-opacity: 0.427273; stroke-width: 1.5; stroke-linecap: square"/>
   </g>
  </g>
  <g id="axes_3">
   <g id="FillBetweenPolyCollection_2">
    <defs>
     <path id="mcd95ce8a8b" d="M 11.132737 -259.64844 
L 11.132737 -259.64844 
L 13.350647 -259.64844 
L 15.568557 -259.64844 
L 17.786467 -259.64844 
L 20.004377 -259.64844 
L 22.222287 -259.64844 
L 24.440197 -259.64844 
L 26.658107 -259.64844 
L 28.876017 -259.64844 
L 31.093927 -259.64844 
L 33.311837 -259.64844 
L 35.529748 -259.64844 
L 37.747658 -259.64844 
L 39.965568 -259.64844 
L 42.183478 -259.64844 
L 44.401388 -259.64844 
L 46.619298 -259.64844 
L 48.837208 -259.64844 
L 51.055118 -259.64844 
L 53.273028 -259.64844 
L 55.490938 -259.64844 
L 57.708848 -259.64844 
L 57.708848 -259.64844 
L 57.708848 -259.64844 
L 55.490938 -278.338798 
L 53.273028 -259.64844 
L 51.055118 -259.64844 
L 48.837208 -259.64844 
L 46.619298 -259.64844 
L 44.401388 -259.64844 
L 42.183478 -259.64844 
L 39.965568 -259.64844 
L 37.747658 -278.338798 
L 35.529748 -259.64844 
L 33.311837 -278.338798 
L 31.093927 -278.338798 
L 28.876017 -297.029156 
L 26.658107 -297.029156 
L 24.440197 -297.029156 
L 22.222287 -297.029156 
L 20.004377 -297.029156 
L 17.786467 -315.719514 
L 15.568557 -297.029156 
L 13.350647 -278.338798 
L 11.132737 -259.64844 
z
" style="stroke: #cdfb0a; stroke-opacity: 0.454545"/>
    </defs>
    <g clip-path="url(#p33cdca1808)">
     <use xlink:href="#mcd95ce8a8b" x="0" y="337.40125" style="fill: #cdfb0a; fill-opacity: 0.454545; stroke: #cdfb0a; stroke-opacity: 0.454545"/>
    </g>
   </g>
   <g id="line2d_9">
    <path d="M 11.132737 77.75281 
L 13.350647 77.75281 
L 15.568557 77.75281 
L 17.786467 77.75281 
L 20.004377 77.75281 
L 22.222287 77.75281 
L 24.440197 77.75281 
L 26.658107 77.75281 
L 28.876017 77.75281 
L 31.093927 77.75281 
L 33.311837 77.75281 
L 35.529748 77.75281 
L 37.747658 77.75281 
L 39.965568 77.75281 
L 42.183478 77.75281 
L 44.401388 77.75281 
L 46.619298 77.75281 
L 48.837208 77.75281 
L 51.055118 77.75281 
L 53.273028 77.75281 
L 55.490938 77.75281 
L 57.708848 77.75281 
" clip-path="url(#p33cdca1808)" style="fill: none; stroke: #cdfb0a; stroke-opacity: 0.454545; stroke-width: 1.5; stroke-linecap: square"/>
   </g>
   <g id="line2d_10">
    <path d="M 11.132737 77.75281 
L 13.350647 59.062452 
L 15.568557 40.372094 
L 17.786467 21.681736 
L 20.004377 40.372094 
L 22.222287 40.372094 
L 24.440197 40.372094 
L 26.658107 40.372094 
L 28.876017 40.372094 
L 31.093927 59.062452 
L 33.311837 59.062452 
L 35.529748 77.75281 
L 37.747658 59.062452 
L 39.965568 77.75281 
L 42.183478 77.75281 
L 44.401388 77.75281 
L 46.619298 77.75281 
L 48.837208 77.75281 
L 51.055118 77.75281 
L 53.273028 77.75281 
L 55.490938 59.062452 
L 57.708848 77.75281 
" clip-path="url(#p33cdca1808)" style="fill: none; stroke: #000000; stroke-opacity: 0.454545; stroke-width: 1.5; stroke-linecap: square"/>
   </g>
  </g>
  <g id="axes_4">
   <g id="FillBetweenPolyCollection_3">
    <defs>
     <path id="m61a1cbbeb8" d="M 9.452497 -247.970258 
L 9.452497 -247.970258 
L 12.638244 -247.970258 
L 15.823991 -247.970258 
L 19.009739 -247.970258 
L 22.195486 -247.970258 
L 25.381233 -247.970258 
L 28.56698 -247.970258 
L 31.752727 -247.970258 
L 34.938475 -247.970258 
L 38.124222 -247.970258 
L 41.309969 -247.970258 
L 44.495716 -247.970258 
L 47.681463 -247.970258 
L 50.86721 -247.970258 
L 54.052958 -247.970258 
L 57.238705 -247.970258 
L 60.424452 -247.970258 
L 63.610199 -247.970258 
L 66.795946 -247.970258 
L 69.981694 -247.970258 
L 73.167441 -247.970258 
L 76.353188 -247.970258 
L 76.353188 -247.970258 
L 76.353188 -247.970258 
L 73.167441 -259.184473 
L 69.981694 -247.970258 
L 66.795946 -247.970258 
L 63.610199 -247.970258 
L 60.424452 -247.970258 
L 57.238705 -247.970258 
L 54.052958 -247.970258 
L 50.86721 -247.970258 
L 47.681463 -247.970258 
L 44.495716 -247.970258 
L 41.309969 -259.184473 
L 38.124222 -247.970258 
L 34.938475 -270.398688 
L 31.752727 -270.398688 
L 28.56698 -281.612903 
L 25.381233 -259.184473 
L 22.195486 -259.184473 
L 19.009739 -304.041333 
L 15.823991 -270.398688 
L 12.638244 -270.398688 
L 9.452497 -247.970258 
z
" style="stroke: #cdfb0a; stroke-opacity: 0.481818"/>
    </defs>
    <g clip-path="url(#p9f3219e072)">
     <use xlink:href="#m61a1cbbeb8" x="0" y="337.40125" style="fill: #cdfb0a; fill-opacity: 0.481818; stroke: #cdfb0a; stroke-opacity: 0.481818"/>
    </g>
   </g>
   <g id="line2d_11">
    <path d="M 9.452497 89.430992 
L 12.638244 89.430992 
L 15.823991 89.430992 
L 19.009739 89.430992 
L 22.195486 89.430992 
L 25.381233 89.430992 
L 28.56698 89.430992 
L 31.752727 89.430992 
L 34.938475 89.430992 
L 38.124222 89.430992 
L 41.309969 89.430992 
L 44.495716 89.430992 
L 47.681463 89.430992 
L 50.86721 89.430992 
L 54.052958 89.430992 
L 57.238705 89.430992 
L 60.424452 89.430992 
L 63.610199 89.430992 
L 66.795946 89.430992 
L 69.981694 89.430992 
L 73.167441 89.430992 
L 76.353188 89.430992 
" clip-path="url(#p9f3219e072)" style="fill: none; stroke: #cdfb0a; stroke-opacity: 0.481818; stroke-width: 1.5; stroke-linecap: square"/>
   </g>
   <g id="line2d_12">
    <path d="M 9.452497 89.430992 
L 12.638244 67.002562 
L 15.823991 67.002562 
L 19.009739 33.359917 
L 22.195486 78.216777 
L 25.381233 78.216777 
L 28.56698 55.788347 
L 31.752727 67.002562 
L 34.938475 67.002562 
L 38.124222 89.430992 
L 41.309969 78.216777 
L 44.495716 89.430992 
L 47.681463 89.430992 
L 50.86721 89.430992 
L 54.052958 89.430992 
L 57.238705 89.430992 
L 60.424452 89.430992 
L 63.610199 89.430992 
L 66.795946 89.430992 
L 69.981694 89.430992 
L 73.167441 78.216777 
L 76.353188 89.430992 
" clip-path="url(#p9f3219e072)" style="fill: none; stroke: #000000; stroke-opacity: 0.481818; stroke-width: 1.5; stroke-linecap: square"/>
   </g>
  </g>
  <g id="axes_5">
   <g id="FillBetweenPolyCollection_4">
    <defs>
     <path id="m607a6a8a78" d="M 12.054408 -236.292076 
L 12.054408 -236.292076 
L 14.785433 -236.292076 
L 17.516459 -236.292076 
L 20.247484 -236.292076 
L 22.97851 -236.292076 
L 25.709535 -236.292076 
L 28.44056 -236.292076 
L 31.171586 -236.292076 
L 33.902611 -236.292076 
L 36.633637 -236.292076 
L 39.364662 -236.292076 
L 42.095688 -236.292076 
L 44.826713 -236.292076 
L 47.557739 -236.292076 
L 50.288764 -236.292076 
L 53.01979 -236.292076 
L 55.750815 -236.292076 
L 58.48184 -236.292076 
L 61.212866 -236.292076 
L 63.943891 -236.292076 
L 66.674917 -236.292076 
L 69.405942 -236.292076 
L 69.405942 -236.292076 
L 69.405942 -236.292076 
L 66.674917 -250.309845 
L 63.943891 -236.292076 
L 61.212866 -236.292076 
L 58.48184 -236.292076 
L 55.750815 -236.292076 
L 53.01979 -236.292076 
L 50.288764 -236.292076 
L 47.557739 -236.292076 
L 44.826713 -250.309845 
L 42.095688 -236.292076 
L 39.364662 -236.292076 
L 36.633637 -236.292076 
L 33.902611 -250.309845 
L 31.171586 -264.327614 
L 28.44056 -292.363151 
L 25.709535 -292.363151 
L 22.97851 -264.327614 
L 20.247484 -250.309845 
L 17.516459 -278.345382 
L 14.785433 -250.309845 
L 12.054408 -236.292076 
z
" style="stroke: #cdfb0a; stroke-opacity: 0.509091"/>
    </defs>
    <g clip-path="url(#pa71fc82101)">
     <use xlink:href="#m607a6a8a78" x="0" y="337.40125" style="fill: #cdfb0a; fill-opacity: 0.509091; stroke: #cdfb0a; stroke-opacity: 0.509091"/>
    </g>
   </g>
   <g id="line2d_13">
    <path d="M 12.054408 101.109174 
L 14.785433 101.109174 
L 17.516459 101.109174 
L 20.247484 101.109174 
L 22.97851 101.109174 
L 25.709535 101.109174 
L 28.44056 101.109174 
L 31.171586 101.109174 
L 33.902611 101.109174 
L 36.633637 101.109174 
L 39.364662 101.109174 
L 42.095688 101.109174 
L 44.826713 101.109174 
L 47.557739 101.109174 
L 50.288764 101.109174 
L 53.01979 101.109174 
L 55.750815 101.109174 
L 58.48184 101.109174 
L 61.212866 101.109174 
L 63.943891 101.109174 
L 66.674917 101.109174 
L 69.405942 101.109174 
" clip-path="url(#pa71fc82101)" style="fill: none; stroke: #cdfb0a; stroke-opacity: 0.509091; stroke-width: 1.5; stroke-linecap: square"/>
   </g>
   <g id="line2d_14">
    <path d="M 12.054408 101.109174 
L 14.785433 87.091405 
L 17.516459 59.055868 
L 20.247484 87.091405 
L 22.97851 73.073636 
L 25.709535 45.038099 
L 28.44056 45.038099 
L 31.171586 73.073636 
L 33.902611 87.091405 
L 36.633637 101.109174 
L 39.364662 101.109174 
L 42.095688 101.109174 
L 44.826713 87.091405 
L 47.557739 101.109174 
L 50.288764 101.109174 
L 53.01979 101.109174 
L 55.750815 101.109174 
L 58.48184 101.109174 
L 61.212866 101.109174 
L 63.943891 101.109174 
L 66.674917 87.091405 
L 69.405942 101.109174 
" clip-path="url(#pa71fc82101)" style="fill: none; stroke: #000000; stroke-opacity: 0.509091; stroke-width: 1.5; stroke-linecap: square"/>
   </g>
  </g>
  <g id="axes_6">
   <g id="FillBetweenPolyCollection_5">
    <defs>
     <path id="m3b10bf04a0" d="M 12.293472 -224.613895 
L 12.293472 -224.613895 
L 14.989312 -224.613895 
L 17.685151 -224.613895 
L 20.380991 -224.613895 
L 23.07683 -224.613895 
L 25.77267 -224.613895 
L 28.46851 -224.613895 
L 31.164349 -224.613895 
L 33.860189 -224.613895 
L 36.556028 -224.613895 
L 39.251868 -224.613895 
L 41.947707 -224.613895 
L 44.643547 -224.613895 
L 47.339386 -224.613895 
L 50.035226 -224.613895 
L 52.731065 -224.613895 
L 55.426905 -224.613895 
L 58.122745 -224.613895 
L 60.818584 -224.613895 
L 63.514424 -224.613895 
L 66.210263 -224.613895 
L 68.906103 -224.613895 
L 68.906103 -224.613895 
L 68.906103 -224.613895 
L 66.210263 -238.631663 
L 63.514424 -224.613895 
L 60.818584 -224.613895 
L 58.122745 -224.613895 
L 55.426905 -224.613895 
L 52.731065 -224.613895 
L 50.035226 -224.613895 
L 47.339386 -238.631663 
L 44.643547 -224.613895 
L 41.947707 -238.631663 
L 39.251868 -224.613895 
L 36.556028 -224.613895 
L 33.860189 -238.631663 
L 31.164349 -238.631663 
L 28.46851 -266.6672 
L 25.77267 -238.631663 
L 23.07683 -266.6672 
L 20.380991 -266.6672 
L 17.685151 -280.684969 
L 14.989312 -238.631663 
L 12.293472 -224.613895 
z
" style="stroke: #cdfb0a; stroke-opacity: 0.536364"/>
    </defs>
    <g clip-path="url(#p7272e7f677)">
     <use xlink:href="#m3b10bf04a0" x="0" y="337.40125" style="fill: #cdfb0a; fill-opacity: 0.536364; stroke: #cdfb0a; stroke-opacity: 0.536364"/>
    </g>
   </g>
   <g id="line2d_15">
    <path d="M 12.293472 112.787355 
L 14.989312 112.787355 
L 17.685151 112.787355 
L 20.380991 112.787355 
L 23.07683 112.787355 
L 25.77267 112.787355 
L 28.46851 112.787355 
L 31.164349 112.787355 
L 33.860189 112.787355 
L 36.556028 112.787355 
L 39.251868 112.787355 
L 41.947707 112.787355 
L 44.643547 112.787355 
L 47.339386 112.787355 
L 50.035226 112.787355 
L 52.731065 112.787355 
L 55.426905 112.787355 
L 58.122745 112.787355 
L 60.818584 112.787355 
L 63.514424 112.787355 
L 66.210263 112.787355 
L 68.906103 112.787355 
" clip-path="url(#p7272e7f677)" style="fill: none; stroke: #cdfb0a; stroke-opacity: 0.536364; stroke-width: 1.5; stroke-linecap: square"/>
   </g>
   <g id="line2d_16">
    <path d="M 12.293472 112.787355 
L 14.989312 98.769587 
L 17.685151 56.716281 
L 20.380991 70.73405 
L 23.07683 70.73405 
L 25.77267 98.769587 
L 28.46851 70.73405 
L 31.164349 98.769587 
L 33.860189 98.769587 
L 36.556028 112.787355 
L 39.251868 112.787355 
L 41.947707 98.769587 
L 44.643547 112.787355 
L 47.339386 98.769587 
L 50.035226 112.787355 
L 52.731065 112.787355 
L 55.426905 112.787355 
L 58.122745 112.787355 
L 60.818584 112.787355 
L 63.514424 112.787355 
L 66.210263 98.769587 
L 68.906103 112.787355 
" clip-path="url(#p7272e7f677)" style="fill: none; stroke: #000000; stroke-opacity: 0.536364; stroke-width: 1.5; stroke-linecap: square"/>
   </g>
  </g>
  <g id="axes_7">
   <g id="FillBetweenPolyCollection_6">
    <defs>
     <path id="m94558374e7" d="M 12.022715 -212.935713 
L 12.022715 -212.935713 
L 14.684866 -212.935713 
L 17.347017 -212.935713 
L 20.009168 -212.935713 
L 22.671319 -212.935713 
L 25.33347 -212.935713 
L 27.995621 -212.935713 
L 30.657772 -212.935713 
L 33.319923 -212.935713 
L 35.982074 -212.935713 
L 38.644225 -212.935713 
L 41.306375 -212.935713 
L 43.968526 -212.935713 
L 46.630677 -212.935713 
L 49.292828 -212.935713 
L 51.954979 -212.935713 
L 54.61713 -212.935713 
L 57.279281 -212.935713 
L 59.941432 -212.935713 
L 62.603583 -212.935713 
L 65.265734 -212.935713 
L 67.927885 -212.935713 
L 67.927885 -212.935713 
L 67.927885 -212.935713 
L 65.265734 -224.149928 
L 62.603583 -212.935713 
L 59.941432 -212.935713 
L 57.279281 -212.935713 
L 54.61713 -212.935713 
L 51.954979 -212.935713 
L 49.292828 -212.935713 
L 46.630677 -235.364143 
L 43.968526 -212.935713 
L 41.306375 -212.935713 
L 38.644225 -212.935713 
L 35.982074 -224.149928 
L 33.319923 -224.149928 
L 30.657772 -246.578357 
L 27.995621 -224.149928 
L 25.33347 -224.149928 
L 22.671319 -269.006787 
L 20.009168 -246.578357 
L 17.347017 -224.149928 
L 14.684866 -224.149928 
L 12.022715 -212.935713 
z
" style="stroke: #cdfb0a; stroke-opacity: 0.563636"/>
    </defs>
    <g clip-path="url(#p6c384f3762)">
     <use xlink:href="#m94558374e7" x="0" y="337.40125" style="fill: #cdfb0a; fill-opacity: 0.563636; stroke: #cdfb0a; stroke-opacity: 0.563636"/>
    </g>
   </g>
   <g id="line2d_17">
    <path d="M 12.022715 124.465537 
L 14.684866 124.465537 
L 17.347017 124.465537 
L 20.009168 124.465537 
L 22.671319 124.465537 
L 25.33347 124.465537 
L 27.995621 124.465537 
L 30.657772 124.465537 
L 33.319923 124.465537 
L 35.982074 124.465537 
L 38.644225 124.465537 
L 41.306375 124.465537 
L 43.968526 124.465537 
L 46.630677 124.465537 
L 49.292828 124.465537 
L 51.954979 124.465537 
L 54.61713 124.465537 
L 57.279281 124.465537 
L 59.941432 124.465537 
L 62.603583 124.465537 
L 65.265734 124.465537 
L 67.927885 124.465537 
" clip-path="url(#p6c384f3762)" style="fill: none; stroke: #cdfb0a; stroke-opacity: 0.563636; stroke-width: 1.5; stroke-linecap: square"/>
   </g>
   <g id="line2d_18">
    <path d="M 12.022715 124.465537 
L 14.684866 113.251322 
L 17.347017 113.251322 
L 20.009168 90.822893 
L 22.671319 68.394463 
L 25.33347 113.251322 
L 27.995621 113.251322 
L 30.657772 90.822893 
L 33.319923 113.251322 
L 35.982074 113.251322 
L 38.644225 124.465537 
L 41.306375 124.465537 
L 43.968526 124.465537 
L 46.630677 102.037107 
L 49.292828 124.465537 
L 51.954979 124.465537 
L 54.61713 124.465537 
L 57.279281 124.465537 
L 59.941432 124.465537 
L 62.603583 124.465537 
L 65.265734 113.251322 
L 67.927885 124.465537 
" clip-path="url(#p6c384f3762)" style="fill: none; stroke: #000000; stroke-opacity: 0.563636; stroke-width: 1.5; stroke-linecap: square"/>
   </g>
  </g>
  <g id="axes_8">
   <g id="FillBetweenPolyCollection_7">
    <defs>
     <path id="mb3bff7b379" d="M 9.276468 -201.257531 
L 9.276468 -201.257531 
L 11.826323 -201.257531 
L 14.376179 -201.257531 
L 16.926034 -201.257531 
L 19.47589 -201.257531 
L 22.025745 -201.257531 
L 24.5756 -201.257531 
L 27.125456 -201.257531 
L 29.675311 -201.257531 
L 32.225167 -201.257531 
L 34.775022 -201.257531 
L 37.324878 -201.257531 
L 39.874733 -201.257531 
L 42.424589 -201.257531 
L 44.974444 -201.257531 
L 47.5243 -201.257531 
L 50.074155 -201.257531 
L 52.62401 -201.257531 
L 55.173866 -201.257531 
L 57.723721 -201.257531 
L 60.273577 -201.257531 
L 62.823432 -201.257531 
L 62.823432 -201.257531 
L 62.823432 -201.257531 
L 60.273577 -215.2753 
L 57.723721 -201.257531 
L 55.173866 -201.257531 
L 52.62401 -215.2753 
L 50.074155 -201.257531 
L 47.5243 -201.257531 
L 44.974444 -201.257531 
L 42.424589 -215.2753 
L 39.874733 -215.2753 
L 37.324878 -215.2753 
L 34.775022 -215.2753 
L 32.225167 -201.257531 
L 29.675311 -215.2753 
L 27.125456 -229.293068 
L 24.5756 -257.328605 
L 22.025745 -243.310837 
L 19.47589 -215.2753 
L 16.926034 -229.293068 
L 14.376179 -201.257531 
L 11.826323 -215.2753 
L 9.276468 -201.257531 
z
" style="stroke: #cdfb0a; stroke-opacity: 0.590909"/>
    </defs>
    <g clip-path="url(#pda9092d5e5)">
     <use xlink:href="#mb3bff7b379" x="0" y="337.40125" style="fill: #cdfb0a; fill-opacity: 0.590909; stroke: #cdfb0a; stroke-opacity: 0.590909"/>
    </g>
   </g>
   <g id="line2d_19">
    <path d="M 9.276468 136.143719 
L 11.826323 136.143719 
L 14.376179 136.143719 
L 16.926034 136.143719 
L 19.47589 136.143719 
L 22.025745 136.143719 
L 24.5756 136.143719 
L 27.125456 136.143719 
L 29.675311 136.143719 
L 32.225167 136.143719 
L 34.775022 136.143719 
L 37.324878 136.143719 
L 39.874733 136.143719 
L 42.424589 136.143719 
L 44.974444 136.143719 
L 47.5243 136.143719 
L 50.074155 136.143719 
L 52.62401 136.143719 
L 55.173866 136.143719 
L 57.723721 136.143719 
L 60.273577 136.143719 
L 62.823432 136.143719 
" clip-path="url(#pda9092d5e5)" style="fill: none; stroke: #cdfb0a; stroke-opacity: 0.590909; stroke-width: 1.5; stroke-linecap: square"/>
   </g>
   <g id="line2d_20">
    <path d="M 9.276468 136.143719 
L 11.826323 122.12595 
L 14.376179 136.143719 
L 16.926034 108.108182 
L 19.47589 122.12595 
L 22.025745 94.090413 
L 24.5756 80.072645 
L 27.125456 108.108182 
L 29.675311 122.12595 
L 32.225167 136.143719 
L 34.775022 122.12595 
L 37.324878 122.12595 
L 39.874733 122.12595 
L 42.424589 122.12595 
L 44.974444 136.143719 
L 47.5243 136.143719 
L 50.074155 136.143719 
L 52.62401 122.12595 
L 55.173866 136.143719 
L 57.723721 136.143719 
L 60.273577 122.12595 
L 62.823432 136.143719 
" clip-path="url(#pda9092d5e5)" style="fill: none; stroke: #000000; stroke-opacity: 0.590909; stroke-width: 1.5; stroke-linecap: square"/>
   </g>
  </g>
  <g id="axes_9">
   <g id="FillBetweenPolyCollection_8">
    <defs>
     <path id="m9f74a367c0" d="M 10.803686 -189.579349 
L 10.803686 -189.579349 
L 13.566903 -189.579349 
L 16.33012 -189.579349 
L 19.093336 -189.579349 
L 21.856553 -189.579349 
L 24.61977 -189.579349 
L 27.382987 -189.579349 
L 30.146204 -189.579349 
L 32.90942 -189.579349 
L 35.672637 -189.579349 
L 38.435854 -189.579349 
L 41.199071 -189.579349 
L 43.962288 -189.579349 
L 46.725505 -189.579349 
L 49.488721 -189.579349 
L 52.251938 -189.579349 
L 55.015155 -189.579349 
L 57.778372 -189.579349 
L 60.541589 -189.579349 
L 63.304805 -189.579349 
L 66.068022 -189.579349 
L 68.831239 -189.579349 
L 68.831239 -189.579349 
L 68.831239 -189.579349 
L 66.068022 -203.597118 
L 63.304805 -189.579349 
L 60.541589 -189.579349 
L 57.778372 -189.579349 
L 55.015155 -189.579349 
L 52.251938 -203.597118 
L 49.488721 -189.579349 
L 46.725505 -217.614886 
L 43.962288 -189.579349 
L 41.199071 -189.579349 
L 38.435854 -189.579349 
L 35.672637 -203.597118 
L 32.90942 -189.579349 
L 30.146204 -245.650424 
L 27.382987 -189.579349 
L 24.61977 -203.597118 
L 21.856553 -245.650424 
L 19.093336 -217.614886 
L 16.33012 -231.632655 
L 13.566903 -203.597118 
L 10.803686 -189.579349 
z
" style="stroke: #cdfb0a; stroke-opacity: 0.618182"/>
    </defs>
    <g clip-path="url(#p642c511c8a)">
     <use xlink:href="#m9f74a367c0" x="0" y="337.40125" style="fill: #cdfb0a; fill-opacity: 0.618182; stroke: #cdfb0a; stroke-opacity: 0.618182"/>
    </g>
   </g>
   <g id="line2d_21">
    <path d="M 10.803686 147.821901 
L 13.566903 147.821901 
L 16.33012 147.821901 
L 19.093336 147.821901 
L 21.856553 147.821901 
L 24.61977 147.821901 
L 27.382987 147.821901 
L 30.146204 147.821901 
L 32.90942 147.821901 
L 35.672637 147.821901 
L 38.435854 147.821901 
L 41.199071 147.821901 
L 43.962288 147.821901 
L 46.725505 147.821901 
L 49.488721 147.821901 
L 52.251938 147.821901 
L 55.015155 147.821901 
L 57.778372 147.821901 
L 60.541589 147.821901 
L 63.304805 147.821901 
L 66.068022 147.821901 
L 68.831239 147.821901 
" clip-path="url(#p642c511c8a)" style="fill: none; stroke: #cdfb0a; stroke-opacity: 0.618182; stroke-width: 1.5; stroke-linecap: square"/>
   </g>
   <g id="line2d_22">
    <path d="M 10.803686 147.821901 
L 13.566903 133.804132 
L 16.33012 105.768595 
L 19.093336 119.786364 
L 21.856553 91.750826 
L 24.61977 133.804132 
L 27.382987 147.821901 
L 30.146204 91.750826 
L 32.90942 147.821901 
L 35.672637 133.804132 
L 38.435854 147.821901 
L 41.199071 147.821901 
L 43.962288 147.821901 
L 46.725505 119.786364 
L 49.488721 147.821901 
L 52.251938 133.804132 
L 55.015155 147.821901 
L 57.778372 147.821901 
L 60.541589 147.821901 
L 63.304805 147.821901 
L 66.068022 133.804132 
L 68.831239 147.821901 
" clip-path="url(#p642c511c8a)" style="fill: none; stroke: #000000; stroke-opacity: 0.618182; stroke-width: 1.5; stroke-linecap: square"/>
   </g>
  </g>
  <g id="axes_10">
   <g id="FillBetweenPolyCollection_9">
    <defs>
     <path id="m4766b3d125" d="M 7.358711 -177.901167 
L 7.358711 -177.901167 
L 11.727753 -177.901167 
L 16.096795 -177.901167 
L 20.465836 -177.901167 
L 24.834878 -177.901167 
L 29.20392 -177.901167 
L 33.572962 -177.901167 
L 37.942004 -177.901167 
L 42.311045 -177.901167 
L 46.680087 -177.901167 
L 51.049129 -177.901167 
L 55.418171 -177.901167 
L 59.787213 -177.901167 
L 64.156255 -177.901167 
L 68.525296 -177.901167 
L 72.894338 -177.901167 
L 77.26338 -177.901167 
L 81.632422 -177.901167 
L 86.001464 -177.901167 
L 90.370505 -177.901167 
L 94.739547 -177.901167 
L 99.108589 -177.901167 
L 99.108589 -177.901167 
L 99.108589 -177.901167 
L 94.739547 -187.246346 
L 90.370505 -177.901167 
L 86.001464 -177.901167 
L 81.632422 -177.901167 
L 77.26338 -177.901167 
L 72.894338 -177.901167 
L 68.525296 -177.901167 
L 64.156255 -177.901167 
L 59.787213 -177.901167 
L 55.418171 -177.901167 
L 51.049129 -187.246346 
L 46.680087 -187.246346 
L 42.311045 -177.901167 
L 37.942004 -187.246346 
L 33.572962 -196.591525 
L 29.20392 -205.936705 
L 24.834878 -196.591525 
L 20.465836 -196.591525 
L 16.096795 -233.972242 
L 11.727753 -187.246346 
L 7.358711 -177.901167 
z
" style="stroke: #cdfb0a; stroke-opacity: 0.645455"/>
    </defs>
    <g clip-path="url(#pa24e1d90fa)">
     <use xlink:href="#m4766b3d125" x="0" y="337.40125" style="fill: #cdfb0a; fill-opacity: 0.645455; stroke: #cdfb0a; stroke-opacity: 0.645455"/>
    </g>
   </g>
   <g id="line2d_23">
    <path d="M 7.358711 159.500083 
L 11.727753 159.500083 
L 16.096795 159.500083 
L 20.465836 159.500083 
L 24.834878 159.500083 
L 29.20392 159.500083 
L 33.572962 159.500083 
L 37.942004 159.500083 
L 42.311045 159.500083 
L 46.680087 159.500083 
L 51.049129 159.500083 
L 55.418171 159.500083 
L 59.787213 159.500083 
L 64.156255 159.500083 
L 68.525296 159.500083 
L 72.894338 159.500083 
L 77.26338 159.500083 
L 81.632422 159.500083 
L 86.001464 159.500083 
L 90.370505 159.500083 
L 94.739547 159.500083 
L 99.108589 159.500083 
" clip-path="url(#pa24e1d90fa)" style="fill: none; stroke: #cdfb0a; stroke-opacity: 0.645455; stroke-width: 1.5; stroke-linecap: square"/>
   </g>
   <g id="line2d_24">
    <path d="M 7.358711 159.500083 
L 11.727753 150.154904 
L 16.096795 103.429008 
L 20.465836 140.809725 
L 24.834878 140.809725 
L 29.20392 131.464545 
L 33.572962 140.809725 
L 37.942004 150.154904 
L 42.311045 159.500083 
L 46.680087 150.154904 
L 51.049129 150.154904 
L 55.418171 159.500083 
L 59.787213 159.500083 
L 64.156255 159.500083 
L 68.525296 159.500083 
L 72.894338 159.500083 
L 77.26338 159.500083 
L 81.632422 159.500083 
L 86.001464 159.500083 
L 90.370505 159.500083 
L 94.739547 150.154904 
L 99.108589 159.500083 
" clip-path="url(#pa24e1d90fa)" style="fill: none; stroke: #000000; stroke-opacity: 0.645455; stroke-width: 1.5; stroke-linecap: square"/>
   </g>
  </g>
  <g id="axes_11">
   <g id="FillBetweenPolyCollection_10">
    <defs>
     <path id="me6d8836120" d="M 5.478985 -166.222986 
L 5.478985 -166.222986 
L 11.181647 -166.222986 
L 16.88431 -166.222986 
L 22.586973 -166.222986 
L 28.289635 -166.222986 
L 33.992298 -166.222986 
L 39.694961 -166.222986 
L 45.397623 -166.222986 
L 51.100286 -166.222986 
L 56.802949 -166.222986 
L 62.505611 -166.222986 
L 68.208274 -166.222986 
L 73.910936 -166.222986 
L 79.613599 -166.222986 
L 85.316262 -166.222986 
L 91.018924 -166.222986 
L 96.721587 -166.222986 
L 102.42425 -166.222986 
L 108.126912 -166.222986 
L 113.829575 -166.222986 
L 119.532238 -166.222986 
L 125.2349 -166.222986 
L 125.2349 -166.222986 
L 125.2349 -166.222986 
L 119.532238 -175.568165 
L 113.829575 -166.222986 
L 108.126912 -166.222986 
L 102.42425 -166.222986 
L 96.721587 -166.222986 
L 91.018924 -166.222986 
L 85.316262 -166.222986 
L 79.613599 -166.222986 
L 73.910936 -175.568165 
L 68.208274 -166.222986 
L 62.505611 -166.222986 
L 56.802949 -166.222986 
L 51.100286 -166.222986 
L 45.397623 -175.568165 
L 39.694961 -175.568165 
L 33.992298 -184.913344 
L 28.289635 -184.913344 
L 22.586973 -212.948881 
L 16.88431 -222.29406 
L 11.181647 -175.568165 
L 5.478985 -166.222986 
z
" style="stroke: #cdfb0a; stroke-opacity: 0.672727"/>
    </defs>
    <g clip-path="url(#p469809d4c1)">
     <use xlink:href="#me6d8836120" x="0" y="337.40125" style="fill: #cdfb0a; fill-opacity: 0.672727; stroke: #cdfb0a; stroke-opacity: 0.672727"/>
    </g>
   </g>
   <g id="line2d_25">
    <path d="M 5.478985 171.178264 
L 11.181647 171.178264 
L 16.88431 171.178264 
L 22.586973 171.178264 
L 28.289635 171.178264 
L 33.992298 171.178264 
L 39.694961 171.178264 
L 45.397623 171.178264 
L 51.100286 171.178264 
L 56.802949 171.178264 
L 62.505611 171.178264 
L 68.208274 171.178264 
L 73.910936 171.178264 
L 79.613599 171.178264 
L 85.316262 171.178264 
L 91.018924 171.178264 
L 96.721587 171.178264 
L 102.42425 171.178264 
L 108.126912 171.178264 
L 113.829575 171.178264 
L 119.532238 171.178264 
L 125.2349 171.178264 
" clip-path="url(#p469809d4c1)" style="fill: none; stroke: #cdfb0a; stroke-opacity: 0.672727; stroke-width: 1.5; stroke-linecap: square"/>
   </g>
   <g id="line2d_26">
    <path d="M 5.478985 171.178264 
L 11.181647 161.833085 
L 16.88431 115.10719 
L 22.586973 124.452369 
L 28.289635 152.487906 
L 33.992298 152.487906 
L 39.694961 161.833085 
L 45.397623 161.833085 
L 51.100286 171.178264 
L 56.802949 171.178264 
L 62.505611 171.178264 
L 68.208274 171.178264 
L 73.910936 161.833085 
L 79.613599 171.178264 
L 85.316262 171.178264 
L 91.018924 171.178264 
L 96.721587 171.178264 
L 102.42425 171.178264 
L 108.126912 171.178264 
L 113.829575 171.178264 
L 119.532238 161.833085 
L 125.2349 171.178264 
" clip-path="url(#p469809d4c1)" style="fill: none; stroke: #000000; stroke-opacity: 0.672727; stroke-width: 1.5; stroke-linecap: square"/>
   </g>
  </g>
  <g id="axes_12">
   <g id="FillBetweenPolyCollection_11">
    <defs>
     <path id="m5447a20524" d="M 7.944644 -154.544804 
L 7.944644 -154.544804 
L 12.985961 -154.544804 
L 18.027278 -154.544804 
L 23.068595 -154.544804 
L 28.109913 -154.544804 
L 33.15123 -154.544804 
L 38.192547 -154.544804 
L 43.233865 -154.544804 
L 48.275182 -154.544804 
L 53.316499 -154.544804 
L 58.357816 -154.544804 
L 63.399134 -154.544804 
L 68.440451 -154.544804 
L 73.481768 -154.544804 
L 78.523085 -154.544804 
L 83.564403 -154.544804 
L 88.60572 -154.544804 
L 93.647037 -154.544804 
L 98.688355 -154.544804 
L 103.729672 -154.544804 
L 108.770989 -154.544804 
L 113.812306 -154.544804 
L 113.812306 -154.544804 
L 113.812306 -154.544804 
L 108.770989 -163.889983 
L 103.729672 -154.544804 
L 98.688355 -154.544804 
L 93.647037 -154.544804 
L 88.60572 -154.544804 
L 83.564403 -154.544804 
L 78.523085 -154.544804 
L 73.481768 -154.544804 
L 68.440451 -154.544804 
L 63.399134 -154.544804 
L 58.357816 -163.889983 
L 53.316499 -154.544804 
L 48.275182 -163.889983 
L 43.233865 -163.889983 
L 38.192547 -154.544804 
L 33.15123 -154.544804 
L 28.109913 -182.580341 
L 23.068595 -201.270699 
L 18.027278 -210.615878 
L 12.985961 -173.235162 
L 7.944644 -154.544804 
z
" style="stroke: #cdfb0a; stroke-opacity: 0.7"/>
    </defs>
    <g clip-path="url(#p533bb33c8e)">
     <use xlink:href="#m5447a20524" x="0" y="337.40125" style="fill: #cdfb0a; fill-opacity: 0.7; stroke: #cdfb0a; stroke-opacity: 0.7"/>
    </g>
   </g>
   <g id="line2d_27">
    <path d="M 7.944644 182.856446 
L 12.985961 182.856446 
L 18.027278 182.856446 
L 23.068595 182.856446 
L 28.109913 182.856446 
L 33.15123 182.856446 
L 38.192547 182.856446 
L 43.233865 182.856446 
L 48.275182 182.856446 
L 53.316499 182.856446 
L 58.357816 182.856446 
L 63.399134 182.856446 
L 68.440451 182.856446 
L 73.481768 182.856446 
L 78.523085 182.856446 
L 83.564403 182.856446 
L 88.60572 182.856446 
L 93.647037 182.856446 
L 98.688355 182.856446 
L 103.729672 182.856446 
L 108.770989 182.856446 
L 113.812306 182.856446 
" clip-path="url(#p533bb33c8e)" style="fill: none; stroke: #cdfb0a; stroke-opacity: 0.7; stroke-width: 1.5; stroke-linecap: square"/>
   </g>
   <g id="line2d_28">
    <path d="M 7.944644 182.856446 
L 12.985961 164.166088 
L 18.027278 126.785372 
L 23.068595 136.130551 
L 28.109913 154.820909 
L 33.15123 182.856446 
L 38.192547 182.856446 
L 43.233865 173.511267 
L 48.275182 173.511267 
L 53.316499 182.856446 
L 58.357816 173.511267 
L 63.399134 182.856446 
L 68.440451 182.856446 
L 73.481768 182.856446 
L 78.523085 182.856446 
L 83.564403 182.856446 
L 88.60572 182.856446 
L 93.647037 182.856446 
L 98.688355 182.856446 
L 103.729672 182.856446 
L 108.770989 173.511267 
L 113.812306 182.856446 
" clip-path="url(#p533bb33c8e)" style="fill: none; stroke: #000000; stroke-opacity: 0.7; stroke-width: 1.5; stroke-linecap: square"/>
   </g>
  </g>
  <g id="axes_13">
   <g id="FillBetweenPolyCollection_12">
    <defs>
     <path id="m435e89c87a" d="M 3.907996 -142.866622 
L 3.907996 -142.866622 
L 10.165099 -142.866622 
L 16.422202 -142.866622 
L 22.679305 -142.866622 
L 28.936407 -142.866622 
L 35.19351 -142.866622 
L 41.450613 -142.866622 
L 47.707715 -142.866622 
L 53.964818 -142.866622 
L 60.221921 -142.866622 
L 66.479024 -142.866622 
L 72.736126 -142.866622 
L 78.993229 -142.866622 
L 85.250332 -142.866622 
L 91.507435 -142.866622 
L 97.764537 -142.866622 
L 104.02164 -142.866622 
L 110.278743 -142.866622 
L 116.535845 -142.866622 
L 122.792948 -142.866622 
L 129.050051 -142.866622 
L 135.307154 -142.866622 
L 135.307154 -142.866622 
L 135.307154 -142.866622 
L 129.050051 -149.096741 
L 122.792948 -142.866622 
L 116.535845 -142.866622 
L 110.278743 -142.866622 
L 104.02164 -142.866622 
L 97.764537 -142.866622 
L 91.507435 -142.866622 
L 85.250332 -142.866622 
L 78.993229 -142.866622 
L 72.736126 -149.096741 
L 66.479024 -142.866622 
L 60.221921 -142.866622 
L 53.964818 -149.096741 
L 47.707715 -142.866622 
L 41.450613 -149.096741 
L 35.19351 -161.55698 
L 28.936407 -155.326861 
L 22.679305 -149.096741 
L 16.422202 -198.937696 
L 10.165099 -149.096741 
L 3.907996 -142.866622 
z
" style="stroke: #cdfb0a; stroke-opacity: 0.727273"/>
    </defs>
    <g clip-path="url(#p900a636a73)">
     <use xlink:href="#m435e89c87a" x="0" y="337.40125" style="fill: #cdfb0a; fill-opacity: 0.727273; stroke: #cdfb0a; stroke-opacity: 0.727273"/>
    </g>
   </g>
   <g id="line2d_29">
    <path d="M 3.907996 194.534628 
L 10.165099 194.534628 
L 16.422202 194.534628 
L 22.679305 194.534628 
L 28.936407 194.534628 
L 35.19351 194.534628 
L 41.450613 194.534628 
L 47.707715 194.534628 
L 53.964818 194.534628 
L 60.221921 194.534628 
L 66.479024 194.534628 
L 72.736126 194.534628 
L 78.993229 194.534628 
L 85.250332 194.534628 
L 91.507435 194.534628 
L 97.764537 194.534628 
L 104.02164 194.534628 
L 110.278743 194.534628 
L 116.535845 194.534628 
L 122.792948 194.534628 
L 129.050051 194.534628 
L 135.307154 194.534628 
" clip-path="url(#p900a636a73)" style="fill: none; stroke: #cdfb0a; stroke-opacity: 0.727273; stroke-width: 1.5; stroke-linecap: square"/>
   </g>
   <g id="line2d_30">
    <path d="M 3.907996 194.534628 
L 10.165099 188.304509 
L 16.422202 138.463554 
L 22.679305 188.304509 
L 28.936407 182.074389 
L 35.19351 175.84427 
L 41.450613 188.304509 
L 47.707715 194.534628 
L 53.964818 188.304509 
L 60.221921 194.534628 
L 66.479024 194.534628 
L 72.736126 188.304509 
L 78.993229 194.534628 
L 85.250332 194.534628 
L 91.507435 194.534628 
L 97.764537 194.534628 
L 104.02164 194.534628 
L 110.278743 194.534628 
L 116.535845 194.534628 
L 122.792948 194.534628 
L 129.050051 188.304509 
L 135.307154 194.534628 
" clip-path="url(#p900a636a73)" style="fill: none; stroke: #000000; stroke-opacity: 0.727273; stroke-width: 1.5; stroke-linecap: square"/>
   </g>
  </g>
  <g id="axes_14">
   <g id="FillBetweenPolyCollection_13">
    <defs>
     <path id="meae9d3e474" d="M 6.026138 -131.18844 
L 6.026138 -131.18844 
L 13.329835 -131.18844 
L 20.633531 -131.18844 
L 27.937227 -131.18844 
L 35.240924 -131.18844 
L 42.54462 -131.18844 
L 49.848316 -131.18844 
L 57.152013 -131.18844 
L 64.455709 -131.18844 
L 71.759405 -131.18844 
L 79.063102 -131.18844 
L 86.366798 -131.18844 
L 93.670495 -131.18844 
L 100.974191 -131.18844 
L 108.277887 -131.18844 
L 115.581584 -131.18844 
L 122.88528 -131.18844 
L 130.188976 -131.18844 
L 137.492673 -131.18844 
L 144.796369 -131.18844 
L 152.100065 -131.18844 
L 159.403762 -131.18844 
L 159.403762 -131.18844 
L 159.403762 -131.18844 
L 152.100065 -138.197324 
L 144.796369 -131.18844 
L 137.492673 -131.18844 
L 130.188976 -131.18844 
L 122.88528 -131.18844 
L 115.581584 -131.18844 
L 108.277887 -131.18844 
L 100.974191 -131.18844 
L 93.670495 -138.197324 
L 86.366798 -131.18844 
L 79.063102 -131.18844 
L 71.759405 -131.18844 
L 64.455709 -138.197324 
L 57.152013 -131.18844 
L 49.848316 -131.18844 
L 42.54462 -145.206209 
L 35.240924 -138.197324 
L 27.937227 -159.223977 
L 20.633531 -187.259514 
L 13.329835 -145.206209 
L 6.026138 -131.18844 
z
" style="stroke: #cdfb0a; stroke-opacity: 0.754545"/>
    </defs>
    <g clip-path="url(#p3de5873009)">
     <use xlink:href="#meae9d3e474" x="0" y="337.40125" style="fill: #cdfb0a; fill-opacity: 0.754545; stroke: #cdfb0a; stroke-opacity: 0.754545"/>
    </g>
   </g>
   <g id="line2d_31">
    <path d="M 6.026138 206.21281 
L 13.329835 206.21281 
L 20.633531 206.21281 
L 27.937227 206.21281 
L 35.240924 206.21281 
L 42.54462 206.21281 
L 49.848316 206.21281 
L 57.152013 206.21281 
L 64.455709 206.21281 
L 71.759405 206.21281 
L 79.063102 206.21281 
L 86.366798 206.21281 
L 93.670495 206.21281 
L 100.974191 206.21281 
L 108.277887 206.21281 
L 115.581584 206.21281 
L 122.88528 206.21281 
L 130.188976 206.21281 
L 137.492673 206.21281 
L 144.796369 206.21281 
L 152.100065 206.21281 
L 159.403762 206.21281 
" clip-path="url(#p3de5873009)" style="fill: none; stroke: #cdfb0a; stroke-opacity: 0.754545; stroke-width: 1.5; stroke-linecap: square"/>
   </g>
   <g id="line2d_32">
    <path d="M 6.026138 206.21281 
L 13.329835 192.195041 
L 20.633531 150.141736 
L 27.937227 178.177273 
L 35.240924 199.203926 
L 42.54462 192.195041 
L 49.848316 206.21281 
L 57.152013 206.21281 
L 64.455709 199.203926 
L 71.759405 206.21281 
L 79.063102 206.21281 
L 86.366798 206.21281 
L 93.670495 199.203926 
L 100.974191 206.21281 
L 108.277887 206.21281 
L 115.581584 206.21281 
L 122.88528 206.21281 
L 130.188976 206.21281 
L 137.492673 206.21281 
L 144.796369 206.21281 
L 152.100065 199.203926 
L 159.403762 206.21281 
" clip-path="url(#p3de5873009)" style="fill: none; stroke: #000000; stroke-opacity: 0.754545; stroke-width: 1.5; stroke-linecap: square"/>
   </g>
  </g>
  <g id="axes_15">
   <g id="FillBetweenPolyCollection_14">
    <defs>
     <path id="mda359ace1a" d="M 2.496318 -119.510258 
L 2.496318 -119.510258 
L 15.298748 -119.510258 
L 28.101179 -119.510258 
L 40.903609 -119.510258 
L 53.70604 -119.510258 
L 66.50847 -119.510258 
L 79.3109 -119.510258 
L 92.113331 -119.510258 
L 104.915761 -119.510258 
L 117.718192 -119.510258 
L 130.520622 -119.510258 
L 143.323053 -119.510258 
L 156.125483 -119.510258 
L 168.927914 -119.510258 
L 181.730344 -119.510258 
L 194.532775 -119.510258 
L 207.335205 -119.510258 
L 220.137635 -119.510258 
L 232.940066 -119.510258 
L 245.742496 -119.510258 
L 258.544927 -119.510258 
L 271.347357 -119.510258 
L 271.347357 -119.510258 
L 271.347357 -119.510258 
L 258.544927 -128.855437 
L 245.742496 -119.510258 
L 232.940066 -119.510258 
L 220.137635 -119.510258 
L 207.335205 -119.510258 
L 194.532775 -119.510258 
L 181.730344 -119.510258 
L 168.927914 -119.510258 
L 156.125483 -128.855437 
L 143.323053 -119.510258 
L 130.520622 -119.510258 
L 117.718192 -119.510258 
L 104.915761 -128.855437 
L 92.113331 -119.510258 
L 79.3109 -119.510258 
L 66.50847 -138.200616 
L 53.70604 -128.855437 
L 40.903609 -156.890975 
L 28.101179 -175.581333 
L 15.298748 -156.890975 
L 2.496318 -119.510258 
z
" style="stroke: #cdfb0a; stroke-opacity: 0.781818"/>
    </defs>
    <g clip-path="url(#p9e26f24d6e)">
     <use xlink:href="#mda359ace1a" x="0" y="337.40125" style="fill: #cdfb0a; fill-opacity: 0.781818; stroke: #cdfb0a; stroke-opacity: 0.781818"/>
    </g>
   </g>
   <g id="line2d_33">
    <path d="M 2.496318 217.890992 
L 15.298748 217.890992 
L 28.101179 217.890992 
L 40.903609 217.890992 
L 53.70604 217.890992 
L 66.50847 217.890992 
L 79.3109 217.890992 
L 92.113331 217.890992 
L 104.915761 217.890992 
L 117.718192 217.890992 
L 130.520622 217.890992 
L 143.323053 217.890992 
L 156.125483 217.890992 
L 168.927914 217.890992 
L 181.730344 217.890992 
L 194.532775 217.890992 
L 207.335205 217.890992 
L 220.137635 217.890992 
L 232.940066 217.890992 
L 245.742496 217.890992 
L 258.544927 217.890992 
L 271.347357 217.890992 
" clip-path="url(#p9e26f24d6e)" style="fill: none; stroke: #cdfb0a; stroke-opacity: 0.781818; stroke-width: 1.5; stroke-linecap: square"/>
   </g>
   <g id="line2d_34">
    <path d="M 2.496318 217.890992 
L 15.298748 180.510275 
L 28.101179 161.819917 
L 40.903609 180.510275 
L 53.70604 208.545813 
L 66.50847 199.200634 
L 79.3109 217.890992 
L 92.113331 217.890992 
L 104.915761 208.545813 
L 117.718192 217.890992 
L 130.520622 217.890992 
L 143.323053 217.890992 
L 156.125483 208.545813 
L 168.927914 217.890992 
L 181.730344 217.890992 
L 194.532775 217.890992 
L 207.335205 217.890992 
L 220.137635 217.890992 
L 232.940066 217.890992 
L 245.742496 217.890992 
L 258.544927 208.545813 
L 271.347357 217.890992 
" clip-path="url(#p9e26f24d6e)" style="fill: none; stroke: #000000; stroke-opacity: 0.781818; stroke-width: 1.5; stroke-linecap: square"/>
   </g>
  </g>
  <g id="axes_16">
   <g id="FillBetweenPolyCollection_15">
    <defs>
     <path id="mba4ab63929" d="M 6.412435 -107.832076 
L 6.412435 -107.832076 
L 20.549684 -107.832076 
L 34.686933 -107.832076 
L 48.824182 -107.832076 
L 62.961431 -107.832076 
L 77.09868 -107.832076 
L 91.235929 -107.832076 
L 105.373178 -107.832076 
L 119.510427 -107.832076 
L 133.647676 -107.832076 
L 147.784925 -107.832076 
L 161.922175 -107.832076 
L 176.059424 -107.832076 
L 190.196673 -107.832076 
L 204.333922 -107.832076 
L 218.471171 -107.832076 
L 232.60842 -107.832076 
L 246.745669 -107.832076 
L 260.882918 -107.832076 
L 275.020167 -107.832076 
L 289.157416 -107.832076 
L 303.294665 -107.832076 
L 303.294665 -107.832076 
L 303.294665 -107.832076 
L 289.157416 -115.84223 
L 275.020167 -107.832076 
L 260.882918 -107.832076 
L 246.745669 -107.832076 
L 232.60842 -107.832076 
L 218.471171 -107.832076 
L 204.333922 -107.832076 
L 190.196673 -107.832076 
L 176.059424 -107.832076 
L 161.922175 -107.832076 
L 147.784925 -107.832076 
L 133.647676 -115.84223 
L 119.510427 -115.84223 
L 105.373178 -107.832076 
L 91.235929 -107.832076 
L 77.09868 -123.852383 
L 62.961431 -123.852383 
L 48.824182 -123.852383 
L 34.686933 -163.903151 
L 20.549684 -139.87269 
L 6.412435 -107.832076 
z
" style="stroke: #cdfb0a; stroke-opacity: 0.809091"/>
    </defs>
    <g clip-path="url(#p600b3a24f8)">
     <use xlink:href="#mba4ab63929" x="0" y="337.40125" style="fill: #cdfb0a; fill-opacity: 0.809091; stroke: #cdfb0a; stroke-opacity: 0.809091"/>
    </g>
   </g>
   <g id="line2d_35">
    <path d="M 6.412435 229.569174 
L 20.549684 229.569174 
L 34.686933 229.569174 
L 48.824182 229.569174 
L 62.961431 229.569174 
L 77.09868 229.569174 
L 91.235929 229.569174 
L 105.373178 229.569174 
L 119.510427 229.569174 
L 133.647676 229.569174 
L 147.784925 229.569174 
L 161.922175 229.569174 
L 176.059424 229.569174 
L 190.196673 229.569174 
L 204.333922 229.569174 
L 218.471171 229.569174 
L 232.60842 229.569174 
L 246.745669 229.569174 
L 260.882918 229.569174 
L 275.020167 229.569174 
L 289.157416 229.569174 
L 303.294665 229.569174 
" clip-path="url(#p600b3a24f8)" style="fill: none; stroke: #cdfb0a; stroke-opacity: 0.809091; stroke-width: 1.5; stroke-linecap: square"/>
   </g>
   <g id="line2d_36">
    <path d="M 6.412435 229.569174 
L 20.549684 197.52856 
L 34.686933 173.498099 
L 48.824182 213.548867 
L 62.961431 213.548867 
L 77.09868 213.548867 
L 91.235929 229.569174 
L 105.373178 229.569174 
L 119.510427 221.55902 
L 133.647676 221.55902 
L 147.784925 229.569174 
L 161.922175 229.569174 
L 176.059424 229.569174 
L 190.196673 229.569174 
L 204.333922 229.569174 
L 218.471171 229.569174 
L 232.60842 229.569174 
L 246.745669 229.569174 
L 260.882918 229.569174 
L 275.020167 229.569174 
L 289.157416 221.55902 
L 303.294665 229.569174 
" clip-path="url(#p600b3a24f8)" style="fill: none; stroke: #000000; stroke-opacity: 0.809091; stroke-width: 1.5; stroke-linecap: square"/>
   </g>
  </g>
  <g id="axes_17">
   <g id="FillBetweenPolyCollection_16">
    <defs>
     <path id="mb2a40e228e" d="M 3.81826 -96.153895 
L 3.81826 -96.153895 
L 16.191272 -96.153895 
L 28.564285 -96.153895 
L 40.937298 -96.153895 
L 53.31031 -96.153895 
L 65.683323 -96.153895 
L 78.056336 -96.153895 
L 90.429348 -96.153895 
L 102.802361 -96.153895 
L 115.175374 -96.153895 
L 127.548386 -96.153895 
L 139.921399 -96.153895 
L 152.294411 -96.153895 
L 164.667424 -96.153895 
L 177.040437 -96.153895 
L 189.413449 -96.153895 
L 201.786462 -96.153895 
L 214.159475 -96.153895 
L 226.532487 -96.153895 
L 238.9055 -96.153895 
L 251.278513 -96.153895 
L 263.651525 -96.153895 
L 263.651525 -96.153895 
L 263.651525 -96.153895 
L 251.278513 -105.499074 
L 238.9055 -96.153895 
L 226.532487 -96.153895 
L 214.159475 -96.153895 
L 201.786462 -96.153895 
L 189.413449 -96.153895 
L 177.040437 -96.153895 
L 164.667424 -96.153895 
L 152.294411 -96.153895 
L 139.921399 -96.153895 
L 127.548386 -96.153895 
L 115.175374 -105.499074 
L 102.802361 -105.499074 
L 90.429348 -96.153895 
L 78.056336 -105.499074 
L 65.683323 -105.499074 
L 53.31031 -114.844253 
L 40.937298 -124.189432 
L 28.564285 -152.224969 
L 16.191272 -133.534611 
L 3.81826 -96.153895 
z
" style="stroke: #cdfb0a; stroke-opacity: 0.836364"/>
    </defs>
    <g clip-path="url(#pd133ad58fc)">
     <use xlink:href="#mb2a40e228e" x="0" y="337.40125" style="fill: #cdfb0a; fill-opacity: 0.836364; stroke: #cdfb0a; stroke-opacity: 0.836364"/>
    </g>
   </g>
   <g id="line2d_37">
    <path d="M 3.81826 241.247355 
L 16.191272 241.247355 
L 28.564285 241.247355 
L 40.937298 241.247355 
L 53.31031 241.247355 
L 65.683323 241.247355 
L 78.056336 241.247355 
L 90.429348 241.247355 
L 102.802361 241.247355 
L 115.175374 241.247355 
L 127.548386 241.247355 
L 139.921399 241.247355 
L 152.294411 241.247355 
L 164.667424 241.247355 
L 177.040437 241.247355 
L 189.413449 241.247355 
L 201.786462 241.247355 
L 214.159475 241.247355 
L 226.532487 241.247355 
L 238.9055 241.247355 
L 251.278513 241.247355 
L 263.651525 241.247355 
" clip-path="url(#pd133ad58fc)" style="fill: none; stroke: #cdfb0a; stroke-opacity: 0.836364; stroke-width: 1.5; stroke-linecap: square"/>
   </g>
   <g id="line2d_38">
    <path d="M 3.81826 241.247355 
L 16.191272 203.866639 
L 28.564285 185.176281 
L 40.937298 213.211818 
L 53.31031 222.556997 
L 65.683323 231.902176 
L 78.056336 231.902176 
L 90.429348 241.247355 
L 102.802361 231.902176 
L 115.175374 231.902176 
L 127.548386 241.247355 
L 139.921399 241.247355 
L 152.294411 241.247355 
L 164.667424 241.247355 
L 177.040437 241.247355 
L 189.413449 241.247355 
L 201.786462 241.247355 
L 214.159475 241.247355 
L 226.532487 241.247355 
L 238.9055 241.247355 
L 251.278513 231.902176 
L 263.651525 241.247355 
" clip-path="url(#pd133ad58fc)" style="fill: none; stroke: #000000; stroke-opacity: 0.836364; stroke-width: 1.5; stroke-linecap: square"/>
   </g>
  </g>
  <g id="axes_18">
   <g id="FillBetweenPolyCollection_17">
    <defs>
     <path id="mee5ee8a12e" d="M 8.914876 -84.475713 
L 8.914876 -84.475713 
L 20.063569 -84.475713 
L 31.212262 -84.475713 
L 42.360955 -84.475713 
L 53.509647 -84.475713 
L 64.65834 -84.475713 
L 75.807033 -84.475713 
L 86.955725 -84.475713 
L 98.104418 -84.475713 
L 109.253111 -84.475713 
L 120.401804 -84.475713 
L 131.550496 -84.475713 
L 142.699189 -84.475713 
L 153.847882 -84.475713 
L 164.996575 -84.475713 
L 176.145267 -84.475713 
L 187.29396 -84.475713 
L 198.442653 -84.475713 
L 209.591345 -84.475713 
L 220.740038 -84.475713 
L 231.888731 -84.475713 
L 243.037424 -84.475713 
L 243.037424 -84.475713 
L 243.037424 -84.475713 
L 231.888731 -92.485866 
L 220.740038 -84.475713 
L 209.591345 -84.475713 
L 198.442653 -84.475713 
L 187.29396 -84.475713 
L 176.145267 -84.475713 
L 164.996575 -84.475713 
L 153.847882 -84.475713 
L 142.699189 -84.475713 
L 131.550496 -84.475713 
L 120.401804 -92.485866 
L 109.253111 -92.485866 
L 98.104418 -92.485866 
L 86.955725 -92.485866 
L 75.807033 -100.49602 
L 64.65834 -84.475713 
L 53.509647 -92.485866 
L 42.360955 -108.506173 
L 31.212262 -140.546787 
L 20.063569 -100.49602 
L 8.914876 -84.475713 
z
" style="stroke: #cdfb0a; stroke-opacity: 0.863636"/>
    </defs>
    <g clip-path="url(#p5189aa152f)">
     <use xlink:href="#mee5ee8a12e" x="0" y="337.40125" style="fill: #cdfb0a; fill-opacity: 0.863636; stroke: #cdfb0a; stroke-opacity: 0.863636"/>
    </g>
   </g>
   <g id="line2d_39">
    <path d="M 8.914876 252.925537 
L 20.063569 252.925537 
L 31.212262 252.925537 
L 42.360955 252.925537 
L 53.509647 252.925537 
L 64.65834 252.925537 
L 75.807033 252.925537 
L 86.955725 252.925537 
L 98.104418 252.925537 
L 109.253111 252.925537 
L 120.401804 252.925537 
L 131.550496 252.925537 
L 142.699189 252.925537 
L 153.847882 252.925537 
L 164.996575 252.925537 
L 176.145267 252.925537 
L 187.29396 252.925537 
L 198.442653 252.925537 
L 209.591345 252.925537 
L 220.740038 252.925537 
L 231.888731 252.925537 
L 243.037424 252.925537 
" clip-path="url(#p5189aa152f)" style="fill: none; stroke: #cdfb0a; stroke-opacity: 0.863636; stroke-width: 1.5; stroke-linecap: square"/>
   </g>
   <g id="line2d_40">
    <path d="M 8.914876 252.925537 
L 20.063569 236.90523 
L 31.212262 196.854463 
L 42.360955 228.895077 
L 53.509647 244.915384 
L 64.65834 252.925537 
L 75.807033 236.90523 
L 86.955725 244.915384 
L 98.104418 244.915384 
L 109.253111 244.915384 
L 120.401804 244.915384 
L 131.550496 252.925537 
L 142.699189 252.925537 
L 153.847882 252.925537 
L 164.996575 252.925537 
L 176.145267 252.925537 
L 187.29396 252.925537 
L 198.442653 252.925537 
L 209.591345 252.925537 
L 220.740038 252.925537 
L 231.888731 244.915384 
L 243.037424 252.925537 
" clip-path="url(#p5189aa152f)" style="fill: none; stroke: #000000; stroke-opacity: 0.863636; stroke-width: 1.5; stroke-linecap: square"/>
   </g>
  </g>
  <g id="axes_19">
   <g id="FillBetweenPolyCollection_18">
    <defs>
     <path id="m24d217e29f" d="M 5.95377 -72.797531 
L 5.95377 -72.797531 
L 18.232155 -72.797531 
L 30.51054 -72.797531 
L 42.788925 -72.797531 
L 55.06731 -72.797531 
L 67.345695 -72.797531 
L 79.62408 -72.797531 
L 91.902465 -72.797531 
L 104.18085 -72.797531 
L 116.459235 -72.797531 
L 128.73762 -72.797531 
L 141.016005 -72.797531 
L 153.29439 -72.797531 
L 165.572775 -72.797531 
L 177.85116 -72.797531 
L 190.129545 -72.797531 
L 202.40793 -72.797531 
L 214.686315 -72.797531 
L 226.9647 -72.797531 
L 239.243085 -72.797531 
L 251.52147 -72.797531 
L 263.799855 -72.797531 
L 263.799855 -72.797531 
L 263.799855 -72.797531 
L 251.52147 -84.011746 
L 239.243085 -72.797531 
L 226.9647 -72.797531 
L 214.686315 -72.797531 
L 202.40793 -72.797531 
L 190.129545 -72.797531 
L 177.85116 -72.797531 
L 165.572775 -72.797531 
L 153.29439 -72.797531 
L 141.016005 -72.797531 
L 128.73762 -72.797531 
L 116.459235 -95.225961 
L 104.18085 -72.797531 
L 91.902465 -95.225961 
L 79.62408 -95.225961 
L 67.345695 -72.797531 
L 55.06731 -84.011746 
L 42.788925 -128.868605 
L 30.51054 -128.868605 
L 18.232155 -95.225961 
L 5.95377 -72.797531 
z
" style="stroke: #cdfb0a; stroke-opacity: 0.890909"/>
    </defs>
    <g clip-path="url(#p43f4ea0c4e)">
     <use xlink:href="#m24d217e29f" x="0" y="337.40125" style="fill: #cdfb0a; fill-opacity: 0.890909; stroke: #cdfb0a; stroke-opacity: 0.890909"/>
    </g>
   </g>
   <g id="line2d_41">
    <path d="M 5.95377 264.603719 
L 18.232155 264.603719 
L 30.51054 264.603719 
L 42.788925 264.603719 
L 55.06731 264.603719 
L 67.345695 264.603719 
L 79.62408 264.603719 
L 91.902465 264.603719 
L 104.18085 264.603719 
L 116.459235 264.603719 
L 128.73762 264.603719 
L 141.016005 264.603719 
L 153.29439 264.603719 
L 165.572775 264.603719 
L 177.85116 264.603719 
L 190.129545 264.603719 
L 202.40793 264.603719 
L 214.686315 264.603719 
L 226.9647 264.603719 
L 239.243085 264.603719 
L 251.52147 264.603719 
L 263.799855 264.603719 
" clip-path="url(#p43f4ea0c4e)" style="fill: none; stroke: #cdfb0a; stroke-opacity: 0.890909; stroke-width: 1.5; stroke-linecap: square"/>
   </g>
   <g id="line2d_42">
    <path d="M 5.95377 264.603719 
L 18.232155 242.175289 
L 30.51054 208.532645 
L 42.788925 208.532645 
L 55.06731 253.389504 
L 67.345695 264.603719 
L 79.62408 242.175289 
L 91.902465 242.175289 
L 104.18085 264.603719 
L 116.459235 242.175289 
L 128.73762 264.603719 
L 141.016005 264.603719 
L 153.29439 264.603719 
L 165.572775 264.603719 
L 177.85116 264.603719 
L 190.129545 264.603719 
L 202.40793 264.603719 
L 214.686315 264.603719 
L 226.9647 264.603719 
L 239.243085 264.603719 
L 251.52147 253.389504 
L 263.799855 264.603719 
" clip-path="url(#p43f4ea0c4e)" style="fill: none; stroke: #000000; stroke-opacity: 0.890909; stroke-width: 1.5; stroke-linecap: square"/>
   </g>
  </g>
  <g id="axes_20">
   <g id="FillBetweenPolyCollection_19">
    <defs>
     <path id="m294dfc2c3a" d="M -2.639078 -61.119349 
L -2.639078 -61.119349 
L 10.298855 -61.119349 
L 23.236789 -61.119349 
L 36.174723 -61.119349 
L 49.112656 -61.119349 
L 62.05059 -61.119349 
L 74.988524 -61.119349 
L 87.926457 -61.119349 
L 100.864391 -61.119349 
L 113.802325 -61.119349 
L 126.740258 -61.119349 
L 139.678192 -61.119349 
L 152.616125 -61.119349 
L 165.554059 -61.119349 
L 178.491993 -61.119349 
L 191.429926 -61.119349 
L 204.36786 -61.119349 
L 217.305794 -61.119349 
L 230.243727 -61.119349 
L 243.181661 -61.119349 
L 256.119595 -61.119349 
L 269.057528 -61.119349 
L 269.057528 -61.119349 
L 269.057528 -61.119349 
L 256.119595 -72.333564 
L 243.181661 -61.119349 
L 230.243727 -61.119349 
L 217.305794 -61.119349 
L 204.36786 -61.119349 
L 191.429926 -61.119349 
L 178.491993 -61.119349 
L 165.554059 -61.119349 
L 152.616125 -61.119349 
L 139.678192 -61.119349 
L 126.740258 -61.119349 
L 113.802325 -83.547779 
L 100.864391 -83.547779 
L 87.926457 -72.333564 
L 74.988524 -83.547779 
L 62.05059 -61.119349 
L 49.112656 -94.761994 
L 36.174723 -94.761994 
L 23.236789 -117.190424 
L 10.298855 -72.333564 
L -2.639078 -61.119349 
z
" style="stroke: #cdfb0a; stroke-opacity: 0.918182"/>
    </defs>
    <g clip-path="url(#pc032553e70)">
     <use xlink:href="#m294dfc2c3a" x="0" y="337.40125" style="fill: #cdfb0a; fill-opacity: 0.918182; stroke: #cdfb0a; stroke-opacity: 0.918182"/>
    </g>
   </g>
   <g id="line2d_43">
    <path d="M -1 276.281901 
L 10.298855 276.281901 
L 23.236789 276.281901 
L 36.174723 276.281901 
L 49.112656 276.281901 
L 62.05059 276.281901 
L 74.988524 276.281901 
L 87.926457 276.281901 
L 100.864391 276.281901 
L 113.802325 276.281901 
L 126.740258 276.281901 
L 139.678192 276.281901 
L 152.616125 276.281901 
L 165.554059 276.281901 
L 178.491993 276.281901 
L 191.429926 276.281901 
L 204.36786 276.281901 
L 217.305794 276.281901 
L 230.243727 276.281901 
L 243.181661 276.281901 
L 256.119595 276.281901 
L 269.057528 276.281901 
" clip-path="url(#pc032553e70)" style="fill: none; stroke: #cdfb0a; stroke-opacity: 0.918182; stroke-width: 1.5; stroke-linecap: square"/>
   </g>
   <g id="line2d_44">
    <path d="M -1 274.861197 
L 10.298855 265.067686 
L 23.236789 220.210826 
L 36.174723 242.639256 
L 49.112656 242.639256 
L 62.05059 276.281901 
L 74.988524 253.853471 
L 87.926457 265.067686 
L 100.864391 253.853471 
L 113.802325 253.853471 
L 126.740258 276.281901 
L 139.678192 276.281901 
L 152.616125 276.281901 
L 165.554059 276.281901 
L 178.491993 276.281901 
L 191.429926 276.281901 
L 204.36786 276.281901 
L 217.305794 276.281901 
L 230.243727 276.281901 
L 243.181661 276.281901 
L 256.119595 265.067686 
L 269.057528 276.281901 
" clip-path="url(#pc032553e70)" style="fill: none; stroke: #000000; stroke-opacity: 0.918182; stroke-width: 1.5; stroke-linecap: square"/>
   </g>
  </g>
  <g id="axes_21">
   <g id="FillBetweenPolyCollection_20">
    <defs>
     <path id="m78514f14b8" d="M 4.902435 -49.441167 
L 4.902435 -49.441167 
L 19.25604 -49.441167 
L 33.609645 -49.441167 
L 47.96325 -49.441167 
L 62.316855 -49.441167 
L 76.67046 -49.441167 
L 91.024065 -49.441167 
L 105.37767 -49.441167 
L 119.731275 -49.441167 
L 134.08488 -49.441167 
L 148.438485 -49.441167 
L 162.79209 -49.441167 
L 177.145695 -49.441167 
L 191.4993 -49.441167 
L 205.852905 -49.441167 
L 220.20651 -49.441167 
L 234.560115 -49.441167 
L 248.91372 -49.441167 
L 263.267325 -49.441167 
L 277.62093 -49.441167 
L 291.974535 -49.441167 
L 306.32814 -49.441167 
L 306.32814 -49.441167 
L 306.32814 -49.441167 
L 291.974535 -58.786346 
L 277.62093 -49.441167 
L 263.267325 -49.441167 
L 248.91372 -49.441167 
L 234.560115 -49.441167 
L 220.20651 -49.441167 
L 205.852905 -49.441167 
L 191.4993 -49.441167 
L 177.145695 -49.441167 
L 162.79209 -49.441167 
L 148.438485 -49.441167 
L 134.08488 -49.441167 
L 119.731275 -58.786346 
L 105.37767 -58.786346 
L 91.024065 -77.476705 
L 76.67046 -58.786346 
L 62.316855 -58.786346 
L 47.96325 -105.512242 
L 33.609645 -68.131525 
L 19.25604 -68.131525 
L 4.902435 -49.441167 
z
" style="stroke: #cdfb0a; stroke-opacity: 0.945455"/>
    </defs>
    <g clip-path="url(#pefef175a3f)">
     <use xlink:href="#m78514f14b8" x="0" y="337.40125" style="fill: #cdfb0a; fill-opacity: 0.945455; stroke: #cdfb0a; stroke-opacity: 0.945455"/>
    </g>
   </g>
   <g id="line2d_45">
    <path d="M 4.902435 287.960083 
L 19.25604 287.960083 
L 33.609645 287.960083 
L 47.96325 287.960083 
L 62.316855 287.960083 
L 76.67046 287.960083 
L 91.024065 287.960083 
L 105.37767 287.960083 
L 119.731275 287.960083 
L 134.08488 287.960083 
L 148.438485 287.960083 
L 162.79209 287.960083 
L 177.145695 287.960083 
L 191.4993 287.960083 
L 205.852905 287.960083 
L 220.20651 287.960083 
L 234.560115 287.960083 
L 248.91372 287.960083 
L 263.267325 287.960083 
L 277.62093 287.960083 
L 291.974535 287.960083 
L 306.32814 287.960083 
" clip-path="url(#pefef175a3f)" style="fill: none; stroke: #cdfb0a; stroke-opacity: 0.945455; stroke-width: 1.5; stroke-linecap: square"/>
   </g>
   <g id="line2d_46">
    <path d="M 4.902435 287.960083 
L 19.25604 269.269725 
L 33.609645 269.269725 
L 47.96325 231.889008 
L 62.316855 278.614904 
L 76.67046 278.614904 
L 91.024065 259.924545 
L 105.37767 278.614904 
L 119.731275 278.614904 
L 134.08488 287.960083 
L 148.438485 287.960083 
L 162.79209 287.960083 
L 177.145695 287.960083 
L 191.4993 287.960083 
L 205.852905 287.960083 
L 220.20651 287.960083 
L 234.560115 287.960083 
L 248.91372 287.960083 
L 263.267325 287.960083 
L 277.62093 287.960083 
L 291.974535 278.614904 
L 306.32814 287.960083 
" clip-path="url(#pefef175a3f)" style="fill: none; stroke: #000000; stroke-opacity: 0.945455; stroke-width: 1.5; stroke-linecap: square"/>
   </g>
  </g>
  <g id="axes_22">
   <g id="FillBetweenPolyCollection_21">
    <defs>
     <path id="mde25943645" d="M -0.349499 -37.762986 
L -0.349499 -37.762986 
L 15.946069 -37.762986 
L 32.241637 -37.762986 
L 48.537205 -37.762986 
L 64.832772 -37.762986 
L 81.12834 -37.762986 
L 97.423908 -37.762986 
L 113.719475 -37.762986 
L 130.015043 -37.762986 
L 146.310611 -37.762986 
L 162.606179 -37.762986 
L 178.901746 -37.762986 
L 195.197314 -37.762986 
L 211.492882 -37.762986 
L 227.78845 -37.762986 
L 244.084017 -37.762986 
L 260.379585 -37.762986 
L 276.675153 -37.762986 
L 292.97072 -37.762986 
L 309.266288 -37.762986 
L 325.561856 -37.762986 
L 341.857424 -37.762986 
L 341.857424 -37.762986 
L 341.857424 -37.762986 
L 325.561856 -47.108165 
L 309.266288 -37.762986 
L 292.97072 -37.762986 
L 276.675153 -37.762986 
L 260.379585 -37.762986 
L 244.084017 -37.762986 
L 227.78845 -37.762986 
L 211.492882 -37.762986 
L 195.197314 -37.762986 
L 178.901746 -37.762986 
L 162.606179 -37.762986 
L 146.310611 -37.762986 
L 130.015043 -37.762986 
L 113.719475 -47.108165 
L 97.423908 -75.143702 
L 81.12834 -47.108165 
L 64.832772 -56.453344 
L 48.537205 -56.453344 
L 32.241637 -93.83406 
L 15.946069 -47.108165 
L -0.349499 -37.762986 
z
" style="stroke: #cdfb0a; stroke-opacity: 0.972727"/>
    </defs>
    <g clip-path="url(#pb466335f6d)">
     <use xlink:href="#mde25943645" x="0" y="337.40125" style="fill: #cdfb0a; fill-opacity: 0.972727; stroke: #cdfb0a; stroke-opacity: 0.972727"/>
    </g>
   </g>
   <g id="line2d_47">
    <path d="M -0.349499 299.638264 
L 15.946069 299.638264 
L 32.241637 299.638264 
L 48.537205 299.638264 
L 64.832772 299.638264 
L 81.12834 299.638264 
L 97.423908 299.638264 
L 113.719475 299.638264 
L 130.015043 299.638264 
L 146.310611 299.638264 
L 162.606179 299.638264 
L 178.901746 299.638264 
L 195.197314 299.638264 
L 211.492882 299.638264 
L 227.78845 299.638264 
L 244.084017 299.638264 
L 260.379585 299.638264 
L 276.675153 299.638264 
L 292.97072 299.638264 
L 309.266288 299.638264 
L 325.561856 299.638264 
L 341.857424 299.638264 
" clip-path="url(#pb466335f6d)" style="fill: none; stroke: #cdfb0a; stroke-opacity: 0.972727; stroke-width: 1.5; stroke-linecap: square"/>
   </g>
   <g id="line2d_48">
    <path d="M -0.349499 299.638264 
L 15.946069 290.293085 
L 32.241637 243.56719 
L 48.537205 280.947906 
L 64.832772 280.947906 
L 81.12834 290.293085 
L 97.423908 262.257548 
L 113.719475 290.293085 
L 130.015043 299.638264 
L 146.310611 299.638264 
L 162.606179 299.638264 
L 178.901746 299.638264 
L 195.197314 299.638264 
L 211.492882 299.638264 
L 227.78845 299.638264 
L 244.084017 299.638264 
L 260.379585 299.638264 
L 276.675153 299.638264 
L 292.97072 299.638264 
L 309.266288 299.638264 
L 325.561856 290.293085 
L 341.857424 299.638264 
" clip-path="url(#pb466335f6d)" style="fill: none; stroke: #000000; stroke-opacity: 0.972727; stroke-width: 1.5; stroke-linecap: square"/>
   </g>
  </g>
  <g id="axes_23">
   <g id="FillBetweenPolyCollection_22">
    <defs>
     <path id="m66e652c66d" d="M -6.143944 -26.084804 
L -6.143944 -26.084804 
L 10.585833 -26.084804 
L 27.31561 -26.084804 
L 44.045386 -26.084804 
L 60.775163 -26.084804 
L 77.50494 -26.084804 
L 94.234717 -26.084804 
L 110.964494 -26.084804 
L 127.69427 -26.084804 
L 144.424047 -26.084804 
L 161.153824 -26.084804 
L 177.883601 -26.084804 
L 194.613378 -26.084804 
L 211.343155 -26.084804 
L 228.072931 -26.084804 
L 244.802708 -26.084804 
L 261.532485 -26.084804 
L 278.262262 -26.084804 
L 294.992039 -26.084804 
L 311.721815 -26.084804 
L 328.451592 -26.084804 
L 345.181369 -26.084804 
L 345.181369 -26.084804 
L 345.181369 -26.084804 
L 328.451592 -32.314923 
L 311.721815 -26.084804 
L 294.992039 -26.084804 
L 278.262262 -26.084804 
L 261.532485 -26.084804 
L 244.802708 -26.084804 
L 228.072931 -26.084804 
L 211.343155 -26.084804 
L 194.613378 -26.084804 
L 177.883601 -26.084804 
L 161.153824 -26.084804 
L 144.424047 -26.084804 
L 127.69427 -26.084804 
L 110.964494 -38.545042 
L 94.234717 -26.084804 
L 77.50494 -32.314923 
L 60.775163 -51.005281 
L 44.045386 -26.084804 
L 27.31561 -82.155878 
L 10.585833 -32.314923 
L -6.143944 -26.084804 
z
" style="stroke: #cdfb0a"/>
    </defs>
    <g clip-path="url(#pae1eabf7ba)">
     <use xlink:href="#m66e652c66d" x="0" y="337.40125" style="fill: #cdfb0a; stroke: #cdfb0a"/>
    </g>
   </g>
   <g id="line2d_49">
    <path d="M -1 311.316446 
L 10.585833 311.316446 
L 27.31561 311.316446 
L 44.045386 311.316446 
L 60.775163 311.316446 
L 77.50494 311.316446 
L 94.234717 311.316446 
L 110.964494 311.316446 
L 127.69427 311.316446 
L 144.424047 311.316446 
L 161.153824 311.316446 
L 177.883601 311.316446 
L 194.613378 311.316446 
L 211.343155 311.316446 
L 228.072931 311.316446 
L 244.802708 311.316446 
L 261.532485 311.316446 
L 278.262262 311.316446 
L 294.992039 311.316446 
L 311.721815 311.316446 
L 328.451592 311.316446 
L 345.181369 311.316446 
" clip-path="url(#pae1eabf7ba)" style="fill: none; stroke: #cdfb0a; stroke-width: 1.5; stroke-linecap: square"/>
   </g>
   <g id="line2d_50">
    <path d="M -1 309.400857 
L 10.585833 305.086327 
L 27.31561 255.245372 
L 44.045386 311.316446 
L 60.775163 286.395969 
L 77.50494 305.086327 
L 94.234717 311.316446 
L 110.964494 298.856208 
L 127.69427 311.316446 
L 144.424047 311.316446 
L 161.153824 311.316446 
L 177.883601 311.316446 
L 194.613378 311.316446 
L 211.343155 311.316446 
L 228.072931 311.316446 
L 244.802708 311.316446 
L 261.532485 311.316446 
L 278.262262 311.316446 
L 294.992039 311.316446 
L 311.721815 311.316446 
L 328.451592 305.086327 
L 345.181369 311.316446 
" clip-path="url(#pae1eabf7ba)" style="fill: none; stroke: #000000; stroke-width: 1.5; stroke-linecap: square"/>
   </g>
  </g>
  <g id="text_7">
   <!-- Ligue 1 -->
   <g style="fill: #cdfb0a" transform="translate(226.8 100.08) scale(0.18 -0.18)">
    <defs>
     <path id="Lato-Regular-4c" d="M 1178 522 
L 3162 522 
L 3162 0 
L 557 0 
L 557 4586 
L 1178 4586 
L 1178 522 
z
" transform="scale(0.015625)"/>
     <path id="Lato-Regular-69" d="M 1101 3242 
L 1101 0 
L 531 0 
L 531 3242 
L 1101 3242 
z
M 1229 4259 
Q 1229 4176 1195 4104 
Q 1162 4032 1106 3976 
Q 1050 3920 976 3888 
Q 902 3856 819 3856 
Q 736 3856 664 3888 
Q 592 3920 536 3976 
Q 480 4032 448 4104 
Q 416 4176 416 4259 
Q 416 4342 448 4417 
Q 480 4493 536 4549 
Q 592 4605 664 4637 
Q 736 4669 819 4669 
Q 902 4669 976 4637 
Q 1050 4605 1106 4549 
Q 1162 4493 1195 4417 
Q 1229 4342 1229 4259 
z
" transform="scale(0.015625)"/>
     <path id="Lato-Regular-67" d="M 1558 3296 
Q 1770 3296 1954 3249 
Q 2138 3203 2288 3114 
L 3168 3114 
L 3168 2902 
Q 3168 2797 3034 2768 
L 2666 2717 
Q 2774 2509 2774 2253 
Q 2774 2016 2683 1822 
Q 2592 1629 2430 1491 
Q 2269 1354 2046 1280 
Q 1824 1206 1558 1206 
Q 1331 1206 1130 1261 
Q 1027 1197 974 1123 
Q 922 1050 922 979 
Q 922 864 1014 805 
Q 1107 746 1260 720 
Q 1414 694 1609 688 
Q 1805 682 2008 667 
Q 2211 653 2406 617 
Q 2602 582 2755 502 
Q 2909 422 3001 281 
Q 3094 141 3094 -83 
Q 3094 -291 2990 -486 
Q 2886 -682 2691 -834 
Q 2496 -986 2214 -1077 
Q 1933 -1168 1578 -1168 
Q 1222 -1168 955 -1097 
Q 688 -1027 512 -908 
Q 336 -790 248 -635 
Q 160 -480 160 -310 
Q 160 -70 312 98 
Q 464 266 730 365 
Q 592 429 510 536 
Q 429 643 429 822 
Q 429 893 454 968 
Q 480 1043 533 1116 
Q 586 1190 662 1257 
Q 739 1325 842 1376 
Q 602 1510 466 1732 
Q 330 1955 330 2253 
Q 330 2490 421 2683 
Q 512 2877 675 3013 
Q 838 3149 1064 3222 
Q 1290 3296 1558 3296 
z
M 2570 -176 
Q 2570 -54 2502 19 
Q 2435 93 2320 133 
Q 2205 173 2054 192 
Q 1904 211 1737 219 
Q 1571 227 1398 236 
Q 1226 246 1069 272 
Q 886 186 772 61 
Q 659 -64 659 -237 
Q 659 -346 715 -440 
Q 771 -534 886 -603 
Q 1002 -672 1176 -712 
Q 1350 -752 1587 -752 
Q 1818 -752 2000 -710 
Q 2182 -669 2308 -592 
Q 2435 -515 2502 -409 
Q 2570 -304 2570 -176 
z
M 1558 1584 
Q 1731 1584 1864 1632 
Q 1997 1680 2086 1766 
Q 2176 1853 2221 1973 
Q 2266 2093 2266 2237 
Q 2266 2534 2085 2710 
Q 1904 2886 1558 2886 
Q 1216 2886 1035 2710 
Q 854 2534 854 2237 
Q 854 2093 900 1973 
Q 947 1853 1036 1766 
Q 1126 1680 1257 1632 
Q 1389 1584 1558 1584 
z
" transform="scale(0.015625)"/>
     <path id="Lato-Regular-75" d="M 960 3242 
L 960 1174 
Q 960 806 1129 604 
Q 1299 403 1642 403 
Q 1891 403 2112 521 
Q 2333 640 2518 851 
L 2518 3242 
L 3088 3242 
L 3088 0 
L 2749 0 
Q 2627 0 2595 118 
L 2550 467 
Q 2339 234 2076 91 
Q 1814 -51 1475 -51 
Q 1210 -51 1006 37 
Q 803 125 665 285 
Q 528 445 459 672 
Q 390 899 390 1174 
L 390 3242 
L 960 3242 
z
" transform="scale(0.015625)"/>
     <path id="Lato-Regular-65" d="M 1750 3293 
Q 2042 3293 2288 3195 
Q 2534 3098 2713 2914 
Q 2893 2730 2993 2459 
Q 3094 2189 3094 1843 
Q 3094 1709 3065 1664 
Q 3037 1619 2957 1619 
L 800 1619 
Q 806 1312 883 1085 
Q 960 858 1094 706 
Q 1229 554 1414 478 
Q 1600 403 1830 403 
Q 2045 403 2200 452 
Q 2355 502 2467 560 
Q 2579 618 2654 667 
Q 2730 717 2784 717 
Q 2854 717 2893 662 
L 3053 454 
Q 2947 326 2800 232 
Q 2653 138 2485 77 
Q 2317 16 2137 -14 
Q 1958 -45 1782 -45 
Q 1446 -45 1163 68 
Q 880 182 673 401 
Q 467 621 352 944 
Q 237 1267 237 1686 
Q 237 2026 341 2320 
Q 445 2614 640 2830 
Q 835 3046 1116 3169 
Q 1398 3293 1750 3293 
z
M 1763 2874 
Q 1350 2874 1113 2635 
Q 877 2397 819 1974 
L 2582 1974 
Q 2582 2173 2528 2337 
Q 2474 2502 2368 2622 
Q 2262 2742 2110 2808 
Q 1958 2874 1763 2874 
z
" transform="scale(0.015625)"/>
     <path id="Lato-Regular-20" transform="scale(0.015625)"/>
    </defs>
    <use xlink:href="#Lato-Regular-4c"/>
    <use xlink:href="#Lato-Regular-69" transform="translate(51.400009 0)"/>
    <use xlink:href="#Lato-Regular-67" transform="translate(77.000015 0)"/>
    <use xlink:href="#Lato-Regular-75" transform="translate(128.100021 0)"/>
    <use xlink:href="#Lato-Regular-65" transform="translate(183.700027 0)"/>
    <use xlink:href="#Lato-Regular-20" transform="translate(236.100037 0)"/>
    <use xlink:href="#Lato-Regular-31" transform="translate(255.40004 0)"/>
   </g>
  </g>
 </g>
 <defs>
  <clipPath id="p70757b7d50">
   <rect x="7.2" y="7.2" width="439.2" height="61.678182"/>
  </clipPath>
  <clipPath id="p33cdca1808">
   <rect x="7.2" y="18.878182" width="439.2" height="61.678182"/>
  </clipPath>
  <clipPath id="p9f3219e072">
   <rect x="7.2" y="30.556364" width="439.2" height="61.678182"/>
  </clipPath>
  <clipPath id="pa71fc82101">
   <rect x="7.2" y="42.234545" width="439.2" height="61.678182"/>
  </clipPath>
  <clipPath id="p7272e7f677">
   <rect x="7.2" y="53.912727" width="439.2" height="61.678182"/>
  </clipPath>
  <clipPath id="p6c384f3762">
   <rect x="7.2" y="65.590909" width="439.2" height="61.678182"/>
  </clipPath>
  <clipPath id="pda9092d5e5">
   <rect x="7.2" y="77.269091" width="439.2" height="61.678182"/>
  </clipPath>
  <clipPath id="p642c511c8a">
   <rect x="7.2" y="88.947273" width="439.2" height="61.678182"/>
  </clipPath>
  <clipPath id="pa24e1d90fa">
   <rect x="7.2" y="100.625455" width="439.2" height="61.678182"/>
  </clipPath>
  <clipPath id="p469809d4c1">
   <rect x="7.2" y="112.303636" width="439.2" height="61.678182"/>
  </clipPath>
  <clipPath id="p533bb33c8e">
   <rect x="7.2" y="123.981818" width="439.2" height="61.678182"/>
  </clipPath>
  <clipPath id="p900a636a73">
   <rect x="7.2" y="135.66" width="439.2" height="61.678182"/>
  </clipPath>
  <clipPath id="p3de5873009">
   <rect x="7.2" y="147.338182" width="439.2" height="61.678182"/>
  </clipPath>
  <clipPath id="p9e26f24d6e">
   <rect x="7.2" y="159.016364" width="439.2" height="61.678182"/>
  </clipPath>
  <clipPath id="p600b3a24f8">
   <rect x="7.2" y="170.694545" width="439.2" height="61.678182"/>
  </clipPath>
  <clipPath id="pd133ad58fc">
   <rect x="7.2" y="182.372727" width="439.2" height="61.678182"/>
  </clipPath>
  <clipPath id="p5189aa152f">
   <rect x="7.2" y="194.050909" width="439.2" height="61.678182"/>
  </clipPath>
  <clipPath id="p43f4ea0c4e">
   <rect x="7.2" y="205.729091" width="439.2" height="61.678182"/>
  </clipPath>
  <clipPath id="pc032553e70">
   <rect x="7.2" y="217.407273" width="439.2" height="61.678182"/>
  </clipPath>
  <clipPath id="pefef175a3f">
   <rect x="7.2" y="229.085455" width="439.2" height="61.678182"/>
  </clipPath>
  <clipPath id="pb466335f6d">
   <rect x="7.2" y="240.763636" width="439.2" height="61.678182"/>
  </clipPath>
  <clipPath id="pae1eabf7ba">
   <rect x="7.2" y="252.441818" width="439.2" height="61.678182"/>
  </clipPath>
 </defs>
</svg>
