<?xml version="1.0" encoding="utf-8" standalone="no"?>
<!DOCTYPE svg PUBLIC "-//W3C//DTD SVG 1.1//EN"
  "http://www.w3.org/Graphics/SVG/1.1/DTD/svg11.dtd">
<svg xmlns:xlink="http://www.w3.org/1999/xlink" width="453.6pt" height="337.40125pt" viewBox="0 0 453.6 337.40125" xmlns="http://www.w3.org/2000/svg" version="1.1">
 <metadata>
  <rdf:RDF xmlns:dc="http://purl.org/dc/elements/1.1/" xmlns:cc="http://creativecommons.org/ns#" xmlns:rdf="http://www.w3.org/1999/02/22-rdf-syntax-ns#">
   <cc:Work>
    <dc:type rdf:resource="http://purl.org/dc/dcmitype/StillImage"/>
    <dc:date>2025-11-26T11:50:02.371681</dc:date>
    <dc:format>image/svg+xml</dc:format>
    <dc:creator>
     <cc:Agent>
      <dc:title>Matplotlib v3.10.5, https://matplotlib.org/</dc:title>
     </cc:Agent>
    </dc:creator>
   </cc:Work>
  </rdf:RDF>
 </metadata>
 <defs>
  <style type="text/css">*{stroke-linejoin: round; stroke-linecap: butt}</style>
 </defs>
 <g id="figure_1">
  <g id="patch_1">
   <path d="M 0 337.40125 
L 453.6 337.40125 
L 453.6 0 
L 0 0 
z
" style="fill: #f5f5dc"/>
  </g>
  <g id="axes_1">
   <g id="patch_2">
    <path d="M 7.2 314.12 
L 446.4 314.12 
L 446.4 7.2 
L 7.2 7.2 
z
" style="fill: #f5f5dc"/>
   </g>
   <g id="matplotlib.axis_1">
    <g id="xtick_1">
     <g id="line2d_1">
      <defs>
       <path id="m770b0d9997" d="M 0 0 
L 0 3.5 
" style="stroke: #000000; stroke-width: 0.8"/>
      </defs>
      <g>
       <use xlink:href="#m770b0d9997" x="75.825" y="314.12" style="stroke: #000000; stroke-width: 0.8"/>
      </g>
     </g>
     <g id="text_1">
      <!-- €250M -->
      <g transform="translate(59.625 328.485625) scale(0.1 -0.1)">
       <defs>
        <path id="Lato-Regular-20ac" d="M 109 2877 
L 579 2877 
Q 643 3280 795 3605 
Q 947 3930 1172 4158 
Q 1398 4387 1692 4508 
Q 1987 4630 2333 4630 
Q 2762 4630 3066 4470 
Q 3370 4310 3594 4029 
L 3398 3811 
Q 3373 3782 3347 3761 
Q 3322 3741 3277 3741 
Q 3222 3741 3163 3801 
Q 3104 3862 3005 3936 
Q 2906 4010 2750 4070 
Q 2595 4131 2355 4131 
Q 1888 4131 1579 3811 
Q 1270 3491 1168 2877 
L 2918 2877 
L 2918 2701 
Q 2918 2643 2875 2596 
Q 2832 2550 2755 2550 
L 1130 2550 
Q 1126 2486 1124 2422 
Q 1123 2358 1123 2291 
Q 1123 2240 1123 2192 
Q 1123 2144 1126 2096 
L 2621 2096 
L 2621 1917 
Q 2621 1862 2576 1816 
Q 2531 1770 2454 1770 
L 1155 1770 
Q 1245 1110 1552 780 
Q 1859 451 2326 451 
Q 2499 451 2630 484 
Q 2762 518 2858 569 
Q 2954 621 3022 680 
Q 3091 739 3142 790 
Q 3194 842 3234 875 
Q 3274 909 3312 909 
Q 3338 909 3357 897 
Q 3376 886 3402 864 
L 3642 640 
Q 3418 314 3085 133 
Q 2752 -48 2294 -48 
Q 1923 -48 1625 78 
Q 1328 205 1110 440 
Q 893 675 753 1012 
Q 614 1350 563 1770 
L 109 1770 
L 109 2096 
L 538 2096 
Q 534 2144 534 2192 
Q 534 2240 534 2291 
Q 534 2355 536 2420 
Q 538 2486 541 2550 
L 109 2550 
L 109 2877 
z
" transform="scale(0.015625)"/>
        <path id="Lato-Regular-32" d="M 1923 4637 
Q 2214 4637 2467 4550 
Q 2720 4464 2904 4299 
Q 3088 4134 3193 3897 
Q 3299 3661 3299 3360 
Q 3299 3104 3222 2886 
Q 3146 2669 3014 2469 
Q 2883 2269 2712 2081 
Q 2541 1894 2349 1699 
L 1142 464 
Q 1270 499 1401 520 
Q 1533 541 1654 541 
L 3190 541 
Q 3283 541 3337 486 
Q 3392 432 3392 346 
L 3392 0 
L 333 0 
L 333 195 
Q 333 256 357 320 
Q 381 384 435 438 
L 1904 1914 
Q 2086 2099 2236 2270 
Q 2387 2442 2494 2614 
Q 2602 2787 2659 2964 
Q 2717 3142 2717 3344 
Q 2717 3546 2653 3698 
Q 2589 3850 2477 3949 
Q 2365 4048 2214 4097 
Q 2064 4147 1891 4147 
Q 1718 4147 1571 4096 
Q 1424 4045 1310 3953 
Q 1197 3862 1118 3737 
Q 1040 3613 1008 3462 
Q 982 3370 931 3328 
Q 880 3286 797 3286 
Q 781 3286 763 3288 
Q 746 3290 723 3293 
L 426 3344 
Q 470 3658 598 3899 
Q 726 4141 923 4304 
Q 1120 4467 1374 4552 
Q 1629 4637 1923 4637 
z
" transform="scale(0.015625)"/>
        <path id="Lato-Regular-35" d="M 3130 4336 
Q 3130 4214 3053 4136 
Q 2976 4058 2794 4058 
L 1354 4058 
L 1142 2854 
Q 1501 2931 1805 2931 
Q 2163 2931 2436 2825 
Q 2710 2720 2896 2534 
Q 3082 2349 3176 2096 
Q 3270 1843 3270 1546 
Q 3270 1181 3142 886 
Q 3014 592 2792 382 
Q 2570 173 2269 61 
Q 1968 -51 1619 -51 
Q 1418 -51 1232 -11 
Q 1046 29 886 96 
Q 726 163 588 249 
Q 451 336 346 432 
L 518 675 
Q 576 758 672 758 
Q 733 758 814 708 
Q 896 659 1011 598 
Q 1126 538 1281 488 
Q 1437 438 1651 438 
Q 1891 438 2083 515 
Q 2275 592 2411 734 
Q 2547 877 2620 1075 
Q 2694 1274 2694 1520 
Q 2694 1734 2632 1907 
Q 2570 2080 2443 2201 
Q 2317 2323 2128 2390 
Q 1939 2458 1686 2458 
Q 1514 2458 1328 2429 
Q 1142 2400 944 2336 
L 586 2442 
L 957 4586 
L 3130 4586 
L 3130 4336 
z
" transform="scale(0.015625)"/>
        <path id="Lato-Regular-30" d="M 3520 2291 
Q 3520 1690 3390 1250 
Q 3261 810 3037 522 
Q 2813 234 2507 93 
Q 2202 -48 1853 -48 
Q 1501 -48 1198 93 
Q 896 234 672 522 
Q 448 810 320 1250 
Q 192 1690 192 2291 
Q 192 2893 320 3334 
Q 448 3776 672 4065 
Q 896 4355 1198 4496 
Q 1501 4637 1853 4637 
Q 2202 4637 2507 4496 
Q 2813 4355 3037 4065 
Q 3261 3776 3390 3334 
Q 3520 2893 3520 2291 
z
M 2928 2291 
Q 2928 2816 2840 3173 
Q 2752 3530 2603 3747 
Q 2454 3965 2259 4059 
Q 2064 4154 1853 4154 
Q 1642 4154 1446 4059 
Q 1251 3965 1104 3747 
Q 957 3530 869 3173 
Q 781 2816 781 2291 
Q 781 1766 869 1411 
Q 957 1056 1104 838 
Q 1251 621 1446 526 
Q 1642 432 1853 432 
Q 2064 432 2259 526 
Q 2454 621 2603 838 
Q 2752 1056 2840 1411 
Q 2928 1766 2928 2291 
z
" transform="scale(0.015625)"/>
        <path id="Lato-Regular-4d" d="M 2813 1658 
Q 2858 1581 2891 1496 
Q 2925 1411 2957 1325 
Q 2989 1414 3024 1496 
Q 3059 1578 3104 1661 
L 4656 4480 
Q 4698 4554 4742 4570 
Q 4787 4586 4870 4586 
L 5328 4586 
L 5328 0 
L 4784 0 
L 4784 3370 
Q 4784 3437 4787 3513 
Q 4790 3590 4797 3670 
L 3226 803 
Q 3146 659 3002 659 
L 2912 659 
Q 2768 659 2688 803 
L 1082 3680 
Q 1091 3597 1096 3517 
Q 1101 3437 1101 3370 
L 1101 0 
L 557 0 
L 557 4586 
L 1014 4586 
Q 1098 4586 1142 4570 
Q 1187 4554 1229 4480 
L 2813 1658 
L 2813 1658 
z
" transform="scale(0.015625)"/>
       </defs>
       <use xlink:href="#Lato-Regular-20ac"/>
       <use xlink:href="#Lato-Regular-32" transform="translate(58 0)"/>
       <use xlink:href="#Lato-Regular-35" transform="translate(116 0)"/>
       <use xlink:href="#Lato-Regular-30" transform="translate(174 0)"/>
       <use xlink:href="#Lato-Regular-4d" transform="translate(232 0)"/>
      </g>
     </g>
    </g>
    <g id="xtick_2">
     <g id="line2d_2">
      <g>
       <use xlink:href="#m770b0d9997" x="144.45" y="314.12" style="stroke: #000000; stroke-width: 0.8"/>
      </g>
     </g>
     <g id="text_2">
      <!-- €500M -->
      <g transform="translate(128.25 328.485625) scale(0.1 -0.1)">
       <use xlink:href="#Lato-Regular-20ac"/>
       <use xlink:href="#Lato-Regular-35" transform="translate(58 0)"/>
       <use xlink:href="#Lato-Regular-30" transform="translate(116 0)"/>
       <use xlink:href="#Lato-Regular-30" transform="translate(174 0)"/>
       <use xlink:href="#Lato-Regular-4d" transform="translate(232 0)"/>
      </g>
     </g>
    </g>
    <g id="xtick_3">
     <g id="line2d_3">
      <g>
       <use xlink:href="#m770b0d9997" x="213.075" y="314.12" style="stroke: #000000; stroke-width: 0.8"/>
      </g>
     </g>
     <g id="text_3">
      <!-- €750M -->
      <g transform="translate(196.875 328.485625) scale(0.1 -0.1)">
       <defs>
        <path id="Lato-Regular-37" d="M 3469 4586 
L 3469 4330 
Q 3469 4221 3445 4150 
Q 3421 4080 3395 4032 
L 1498 202 
Q 1456 118 1382 59 
Q 1309 0 1184 0 
L 778 0 
L 2704 3782 
Q 2746 3862 2789 3929 
Q 2832 3997 2886 4058 
L 493 4058 
Q 438 4058 395 4101 
Q 352 4144 352 4198 
L 352 4586 
L 3469 4586 
z
" transform="scale(0.015625)"/>
       </defs>
       <use xlink:href="#Lato-Regular-20ac"/>
       <use xlink:href="#Lato-Regular-37" transform="translate(58 0)"/>
       <use xlink:href="#Lato-Regular-35" transform="translate(116 0)"/>
       <use xlink:href="#Lato-Regular-30" transform="translate(174 0)"/>
       <use xlink:href="#Lato-Regular-4d" transform="translate(232 0)"/>
      </g>
     </g>
    </g>
    <g id="xtick_4">
     <g id="line2d_4">
      <g>
       <use xlink:href="#m770b0d9997" x="281.7" y="314.12" style="stroke: #000000; stroke-width: 0.8"/>
      </g>
     </g>
     <g id="text_4">
      <!-- €1B -->
      <g transform="translate(272.664844 328.485625) scale(0.1 -0.1)">
       <defs>
        <path id="Lato-Regular-31" d="M 918 435 
L 1904 435 
L 1904 3562 
Q 1904 3702 1914 3846 
L 1094 3146 
Q 1062 3120 1030 3109 
Q 998 3098 970 3098 
Q 922 3098 883 3118 
Q 845 3139 826 3168 
L 646 3414 
L 2010 4595 
L 2474 4595 
L 2474 435 
L 3376 435 
L 3376 0 
L 918 0 
L 918 435 
z
" transform="scale(0.015625)"/>
        <path id="Lato-Regular-42" d="M 557 0 
L 557 4586 
L 2019 4586 
Q 2442 4586 2747 4502 
Q 3053 4419 3249 4265 
Q 3446 4112 3540 3889 
Q 3635 3667 3635 3389 
Q 3635 3219 3582 3062 
Q 3530 2906 3422 2771 
Q 3315 2637 3153 2531 
Q 2992 2426 2774 2358 
Q 3277 2259 3533 1996 
Q 3789 1734 3789 1306 
Q 3789 1014 3681 774 
Q 3574 534 3368 361 
Q 3162 189 2862 94 
Q 2563 0 2179 0 
L 557 0 
z
M 1178 2090 
L 1178 493 
L 2170 493 
Q 2435 493 2625 553 
Q 2816 614 2939 724 
Q 3062 835 3120 987 
Q 3178 1139 3178 1322 
Q 3178 1677 2926 1883 
Q 2675 2090 2166 2090 
L 1178 2090 
z
M 1178 2531 
L 1997 2531 
Q 2259 2531 2451 2588 
Q 2643 2646 2769 2748 
Q 2896 2851 2957 2996 
Q 3018 3142 3018 3315 
Q 3018 3718 2774 3907 
Q 2531 4096 2019 4096 
L 1178 4096 
L 1178 2531 
z
" transform="scale(0.015625)"/>
       </defs>
       <use xlink:href="#Lato-Regular-20ac"/>
       <use xlink:href="#Lato-Regular-31" transform="translate(58 0)"/>
       <use xlink:href="#Lato-Regular-42" transform="translate(116 0)"/>
      </g>
     </g>
    </g>
    <g id="xtick_5">
     <g id="line2d_5">
      <g>
       <use xlink:href="#m770b0d9997" x="350.325" y="314.12" style="stroke: #000000; stroke-width: 0.8"/>
      </g>
     </g>
     <g id="text_5">
      <!-- €1.25B -->
      <g transform="translate(334.429688 328.485625) scale(0.1 -0.1)">
       <defs>
        <path id="Lato-Regular-2e" d="M 282 352 
Q 282 435 312 508 
Q 342 582 395 636 
Q 448 691 521 723 
Q 595 755 678 755 
Q 762 755 835 723 
Q 909 691 963 636 
Q 1018 582 1048 508 
Q 1078 435 1078 352 
Q 1078 266 1048 194 
Q 1018 122 963 67 
Q 909 13 835 -17 
Q 762 -48 678 -48 
Q 595 -48 521 -17 
Q 448 13 395 67 
Q 342 122 312 194 
Q 282 266 282 352 
z
" transform="scale(0.015625)"/>
       </defs>
       <use xlink:href="#Lato-Regular-20ac"/>
       <use xlink:href="#Lato-Regular-31" transform="translate(58 0)"/>
       <use xlink:href="#Lato-Regular-2e" transform="translate(116 0)"/>
       <use xlink:href="#Lato-Regular-32" transform="translate(137.199997 0)"/>
       <use xlink:href="#Lato-Regular-35" transform="translate(195.199997 0)"/>
       <use xlink:href="#Lato-Regular-42" transform="translate(253.199997 0)"/>
      </g>
     </g>
    </g>
    <g id="xtick_6">
     <g id="line2d_6">
      <g>
       <use xlink:href="#m770b0d9997" x="418.95" y="314.12" style="stroke: #000000; stroke-width: 0.8"/>
      </g>
     </g>
     <g id="text_6">
      <!-- €1.5B -->
      <g transform="translate(405.954688 328.485625) scale(0.1 -0.1)">
       <use xlink:href="#Lato-Regular-20ac"/>
       <use xlink:href="#Lato-Regular-31" transform="translate(58 0)"/>
       <use xlink:href="#Lato-Regular-2e" transform="translate(116 0)"/>
       <use xlink:href="#Lato-Regular-35" transform="translate(137.199997 0)"/>
       <use xlink:href="#Lato-Regular-42" transform="translate(195.199997 0)"/>
      </g>
     </g>
    </g>
   </g>
  </g>
  <g id="axes_2">
   <g id="FillBetweenPolyCollection_1">
    <defs>
     <path id="m1be0ac83c3" d="M 9.72555 -271.708913 
L 9.72555 -271.708913 
L 14.223806 -271.708913 
L 18.722063 -271.708913 
L 23.220319 -271.708913 
L 27.718576 -271.708913 
L 32.216832 -271.708913 
L 36.715088 -271.708913 
L 41.213345 -271.708913 
L 45.711601 -271.708913 
L 50.209858 -271.708913 
L 54.708114 -271.708913 
L 59.206371 -271.708913 
L 63.704627 -271.708913 
L 68.202884 -271.708913 
L 72.70114 -271.708913 
L 77.199397 -271.708913 
L 81.697653 -271.708913 
L 86.195909 -271.708913 
L 90.694166 -271.708913 
L 95.192422 -271.708913 
L 99.690679 -271.708913 
L 104.188935 -271.708913 
L 104.188935 -271.708913 
L 104.188935 -271.708913 
L 99.690679 -279.667054 
L 95.192422 -271.708913 
L 90.694166 -271.708913 
L 86.195909 -279.667054 
L 81.697653 -271.708913 
L 77.199397 -279.667054 
L 72.70114 -271.708913 
L 68.202884 -279.667054 
L 63.704627 -271.708913 
L 59.206371 -271.708913 
L 54.708114 -271.708913 
L 50.209858 -271.708913 
L 45.711601 -271.708913 
L 41.213345 -287.625195 
L 36.715088 -279.667054 
L 32.216832 -303.541478 
L 27.718576 -287.625195 
L 23.220319 -311.499619 
L 18.722063 -279.667054 
L 14.223806 -279.667054 
L 9.72555 -271.708913 
z
" style="stroke: #924bce; stroke-opacity: 0.427273"/>
    </defs>
    <g clip-path="url(#p8537344f1d)">
     <use xlink:href="#m1be0ac83c3" x="0" y="337.40125" style="fill: #924bce; fill-opacity: 0.427273; stroke: #924bce; stroke-opacity: 0.427273"/>
    </g>
   </g>
   <g id="line2d_7">
    <path d="M 9.72555 65.692337 
L 14.223806 65.692337 
L 18.722063 65.692337 
L 23.220319 65.692337 
L 27.718576 65.692337 
L 32.216832 65.692337 
L 36.715088 65.692337 
L 41.213345 65.692337 
L 45.711601 65.692337 
L 50.209858 65.692337 
L 54.708114 65.692337 
L 59.206371 65.692337 
L 63.704627 65.692337 
L 68.202884 65.692337 
L 72.70114 65.692337 
L 77.199397 65.692337 
L 81.697653 65.692337 
L 86.195909 65.692337 
L 90.694166 65.692337 
L 95.192422 65.692337 
L 99.690679 65.692337 
L 104.188935 65.692337 
" clip-path="url(#p8537344f1d)" style="fill: none; stroke: #924bce; stroke-opacity: 0.427273; stroke-width: 1.5; stroke-linecap: square"/>
   </g>
   <g id="line2d_8">
    <path d="M 9.72555 65.692337 
L 14.223806 57.734196 
L 18.722063 57.734196 
L 23.220319 25.901631 
L 27.718576 49.776055 
L 32.216832 33.859772 
L 36.715088 57.734196 
L 41.213345 49.776055 
L 45.711601 65.692337 
L 50.209858 65.692337 
L 54.708114 65.692337 
L 59.206371 65.692337 
L 63.704627 65.692337 
L 68.202884 57.734196 
L 72.70114 65.692337 
L 77.199397 57.734196 
L 81.697653 65.692337 
L 86.195909 57.734196 
L 90.694166 65.692337 
L 95.192422 65.692337 
L 99.690679 57.734196 
L 104.188935 65.692337 
" clip-path="url(#p8537344f1d)" style="fill: none; stroke: #000000; stroke-opacity: 0.427273; stroke-width: 1.5; stroke-linecap: square"/>
   </g>
  </g>
  <g id="axes_3">
   <g id="FillBetweenPolyCollection_2">
    <defs>
     <path id="m3923da1d6a" d="M 10.059442 -260.303459 
L 10.059442 -260.303459 
L 14.986667 -260.303459 
L 19.913892 -260.303459 
L 24.841117 -260.303459 
L 29.768342 -260.303459 
L 34.695567 -260.303459 
L 39.622792 -260.303459 
L 44.550017 -260.303459 
L 49.477242 -260.303459 
L 54.404467 -260.303459 
L 59.331692 -260.303459 
L 64.258918 -260.303459 
L 69.186143 -260.303459 
L 74.113368 -260.303459 
L 79.040593 -260.303459 
L 83.967818 -260.303459 
L 88.895043 -260.303459 
L 93.822268 -260.303459 
L 98.749493 -260.303459 
L 103.676718 -260.303459 
L 108.603943 -260.303459 
L 113.531168 -260.303459 
L 113.531168 -260.303459 
L 113.531168 -260.303459 
L 108.603943 -268.2616 
L 103.676718 -260.303459 
L 98.749493 -260.303459 
L 93.822268 -260.303459 
L 88.895043 -260.303459 
L 83.967818 -260.303459 
L 79.040593 -268.2616 
L 74.113368 -260.303459 
L 69.186143 -268.2616 
L 64.258918 -268.2616 
L 59.331692 -260.303459 
L 54.404467 -260.303459 
L 49.477242 -276.219741 
L 44.550017 -260.303459 
L 39.622792 -260.303459 
L 34.695567 -284.177882 
L 29.768342 -292.136023 
L 24.841117 -300.094164 
L 19.913892 -268.2616 
L 14.986667 -268.2616 
L 10.059442 -260.303459 
z
" style="stroke: #924bce; stroke-opacity: 0.454545"/>
    </defs>
    <g clip-path="url(#paaf19bdf4b)">
     <use xlink:href="#m3923da1d6a" x="0" y="337.40125" style="fill: #924bce; fill-opacity: 0.454545; stroke: #924bce; stroke-opacity: 0.454545"/>
    </g>
   </g>
   <g id="line2d_9">
    <path d="M 10.059442 77.097791 
L 14.986667 77.097791 
L 19.913892 77.097791 
L 24.841117 77.097791 
L 29.768342 77.097791 
L 34.695567 77.097791 
L 39.622792 77.097791 
L 44.550017 77.097791 
L 49.477242 77.097791 
L 54.404467 77.097791 
L 59.331692 77.097791 
L 64.258918 77.097791 
L 69.186143 77.097791 
L 74.113368 77.097791 
L 79.040593 77.097791 
L 83.967818 77.097791 
L 88.895043 77.097791 
L 93.822268 77.097791 
L 98.749493 77.097791 
L 103.676718 77.097791 
L 108.603943 77.097791 
L 113.531168 77.097791 
" clip-path="url(#paaf19bdf4b)" style="fill: none; stroke: #924bce; stroke-opacity: 0.454545; stroke-width: 1.5; stroke-linecap: square"/>
   </g>
   <g id="line2d_10">
    <path d="M 10.059442 77.097791 
L 14.986667 69.13965 
L 19.913892 69.13965 
L 24.841117 37.307086 
L 29.768342 45.265227 
L 34.695567 53.223368 
L 39.622792 77.097791 
L 44.550017 77.097791 
L 49.477242 61.181509 
L 54.404467 77.097791 
L 59.331692 77.097791 
L 64.258918 69.13965 
L 69.186143 69.13965 
L 74.113368 77.097791 
L 79.040593 69.13965 
L 83.967818 77.097791 
L 88.895043 77.097791 
L 93.822268 77.097791 
L 98.749493 77.097791 
L 103.676718 77.097791 
L 108.603943 69.13965 
L 113.531168 77.097791 
" clip-path="url(#paaf19bdf4b)" style="fill: none; stroke: #000000; stroke-opacity: 0.454545; stroke-width: 1.5; stroke-linecap: square"/>
   </g>
  </g>
  <g id="axes_4">
   <g id="FillBetweenPolyCollection_3">
    <defs>
     <path id="md217e1ec19" d="M 8.561919 -248.898004 
L 8.561919 -248.898004 
L 14.30965 -248.898004 
L 20.05738 -248.898004 
L 25.805111 -248.898004 
L 31.552841 -248.898004 
L 37.300572 -248.898004 
L 43.048303 -248.898004 
L 48.796033 -248.898004 
L 54.543764 -248.898004 
L 60.291494 -248.898004 
L 66.039225 -248.898004 
L 71.786955 -248.898004 
L 77.534686 -248.898004 
L 83.282416 -248.898004 
L 89.030147 -248.898004 
L 94.777877 -248.898004 
L 100.525608 -248.898004 
L 106.273339 -248.898004 
L 112.021069 -248.898004 
L 117.7688 -248.898004 
L 123.51653 -248.898004 
L 129.264261 -248.898004 
L 129.264261 -248.898004 
L 129.264261 -248.898004 
L 123.51653 -256.856145 
L 117.7688 -248.898004 
L 112.021069 -248.898004 
L 106.273339 -248.898004 
L 100.525608 -248.898004 
L 94.777877 -248.898004 
L 89.030147 -248.898004 
L 83.282416 -256.856145 
L 77.534686 -256.856145 
L 71.786955 -256.856145 
L 66.039225 -248.898004 
L 60.291494 -248.898004 
L 54.543764 -256.856145 
L 48.796033 -256.856145 
L 43.048303 -248.898004 
L 37.300572 -272.772427 
L 31.552841 -288.688709 
L 25.805111 -272.772427 
L 20.05738 -256.856145 
L 14.30965 -264.814286 
L 8.561919 -248.898004 
z
" style="stroke: #924bce; stroke-opacity: 0.481818"/>
    </defs>
    <g clip-path="url(#p2972cb69fa)">
     <use xlink:href="#md217e1ec19" x="0" y="337.40125" style="fill: #924bce; fill-opacity: 0.481818; stroke: #924bce; stroke-opacity: 0.481818"/>
    </g>
   </g>
   <g id="line2d_11">
    <path d="M 8.561919 88.503246 
L 14.30965 88.503246 
L 20.05738 88.503246 
L 25.805111 88.503246 
L 31.552841 88.503246 
L 37.300572 88.503246 
L 43.048303 88.503246 
L 48.796033 88.503246 
L 54.543764 88.503246 
L 60.291494 88.503246 
L 66.039225 88.503246 
L 71.786955 88.503246 
L 77.534686 88.503246 
L 83.282416 88.503246 
L 89.030147 88.503246 
L 94.777877 88.503246 
L 100.525608 88.503246 
L 106.273339 88.503246 
L 112.021069 88.503246 
L 117.7688 88.503246 
L 123.51653 88.503246 
L 129.264261 88.503246 
" clip-path="url(#p2972cb69fa)" style="fill: none; stroke: #924bce; stroke-opacity: 0.481818; stroke-width: 1.5; stroke-linecap: square"/>
   </g>
   <g id="line2d_12">
    <path d="M 8.561919 88.503246 
L 14.30965 72.586964 
L 20.05738 80.545105 
L 25.805111 64.628823 
L 31.552841 48.712541 
L 37.300572 64.628823 
L 43.048303 88.503246 
L 48.796033 80.545105 
L 54.543764 80.545105 
L 60.291494 88.503246 
L 66.039225 88.503246 
L 71.786955 80.545105 
L 77.534686 80.545105 
L 83.282416 80.545105 
L 89.030147 88.503246 
L 94.777877 88.503246 
L 100.525608 88.503246 
L 106.273339 88.503246 
L 112.021069 88.503246 
L 117.7688 88.503246 
L 123.51653 80.545105 
L 129.264261 88.503246 
" clip-path="url(#p2972cb69fa)" style="fill: none; stroke: #000000; stroke-opacity: 0.481818; stroke-width: 1.5; stroke-linecap: square"/>
   </g>
  </g>
  <g id="axes_5">
   <g id="FillBetweenPolyCollection_4">
    <defs>
     <path id="m6680ae0973" d="M 13.369762 -237.49255 
L 13.369762 -237.49255 
L 19.11854 -237.49255 
L 24.867319 -237.49255 
L 30.616098 -237.49255 
L 36.364876 -237.49255 
L 42.113655 -237.49255 
L 47.862434 -237.49255 
L 53.611212 -237.49255 
L 59.359991 -237.49255 
L 65.10877 -237.49255 
L 70.857548 -237.49255 
L 76.606327 -237.49255 
L 82.355105 -237.49255 
L 88.103884 -237.49255 
L 93.852663 -237.49255 
L 99.601441 -237.49255 
L 105.35022 -237.49255 
L 111.098999 -237.49255 
L 116.847777 -237.49255 
L 122.596556 -237.49255 
L 128.345335 -237.49255 
L 134.094113 -237.49255 
L 134.094113 -237.49255 
L 134.094113 -237.49255 
L 128.345335 -245.450691 
L 122.596556 -237.49255 
L 116.847777 -237.49255 
L 111.098999 -237.49255 
L 105.35022 -245.450691 
L 99.601441 -237.49255 
L 93.852663 -245.450691 
L 88.103884 -237.49255 
L 82.355105 -237.49255 
L 76.606327 -245.450691 
L 70.857548 -237.49255 
L 65.10877 -245.450691 
L 59.359991 -237.49255 
L 53.611212 -237.49255 
L 47.862434 -261.366973 
L 42.113655 -261.366973 
L 36.364876 -261.366973 
L 30.616098 -269.325114 
L 24.867319 -245.450691 
L 19.11854 -245.450691 
L 13.369762 -237.49255 
z
" style="stroke: #924bce; stroke-opacity: 0.509091"/>
    </defs>
    <g clip-path="url(#p69e24a5338)">
     <use xlink:href="#m6680ae0973" x="0" y="337.40125" style="fill: #924bce; fill-opacity: 0.509091; stroke: #924bce; stroke-opacity: 0.509091"/>
    </g>
   </g>
   <g id="line2d_13">
    <path d="M 13.369762 99.9087 
L 19.11854 99.9087 
L 24.867319 99.9087 
L 30.616098 99.9087 
L 36.364876 99.9087 
L 42.113655 99.9087 
L 47.862434 99.9087 
L 53.611212 99.9087 
L 59.359991 99.9087 
L 65.10877 99.9087 
L 70.857548 99.9087 
L 76.606327 99.9087 
L 82.355105 99.9087 
L 88.103884 99.9087 
L 93.852663 99.9087 
L 99.601441 99.9087 
L 105.35022 99.9087 
L 111.098999 99.9087 
L 116.847777 99.9087 
L 122.596556 99.9087 
L 128.345335 99.9087 
L 134.094113 99.9087 
" clip-path="url(#p69e24a5338)" style="fill: none; stroke: #924bce; stroke-opacity: 0.509091; stroke-width: 1.5; stroke-linecap: square"/>
   </g>
   <g id="line2d_14">
    <path d="M 13.369762 99.9087 
L 19.11854 91.950559 
L 24.867319 91.950559 
L 30.616098 68.076136 
L 36.364876 76.034277 
L 42.113655 76.034277 
L 47.862434 76.034277 
L 53.611212 99.9087 
L 59.359991 99.9087 
L 65.10877 91.950559 
L 70.857548 99.9087 
L 76.606327 91.950559 
L 82.355105 99.9087 
L 88.103884 99.9087 
L 93.852663 91.950559 
L 99.601441 99.9087 
L 105.35022 91.950559 
L 111.098999 99.9087 
L 116.847777 99.9087 
L 122.596556 99.9087 
L 128.345335 91.950559 
L 134.094113 99.9087 
" clip-path="url(#p69e24a5338)" style="fill: none; stroke: #000000; stroke-opacity: 0.509091; stroke-width: 1.5; stroke-linecap: square"/>
   </g>
  </g>
  <g id="axes_6">
   <g id="FillBetweenPolyCollection_5">
    <defs>
     <path id="m7c72f63d11" d="M 16.929029 -226.087095 
L 16.929029 -226.087095 
L 22.695026 -226.087095 
L 28.461023 -226.087095 
L 34.22702 -226.087095 
L 39.993018 -226.087095 
L 45.759015 -226.087095 
L 51.525012 -226.087095 
L 57.29101 -226.087095 
L 63.057007 -226.087095 
L 68.823004 -226.087095 
L 74.589001 -226.087095 
L 80.354999 -226.087095 
L 86.120996 -226.087095 
L 91.886993 -226.087095 
L 97.65299 -226.087095 
L 103.418988 -226.087095 
L 109.184985 -226.087095 
L 114.950982 -226.087095 
L 120.71698 -226.087095 
L 126.482977 -226.087095 
L 132.248974 -226.087095 
L 138.014971 -226.087095 
L 138.014971 -226.087095 
L 138.014971 -226.087095 
L 132.248974 -234.045236 
L 126.482977 -234.045236 
L 120.71698 -226.087095 
L 114.950982 -226.087095 
L 109.184985 -226.087095 
L 103.418988 -234.045236 
L 97.65299 -226.087095 
L 91.886993 -234.045236 
L 86.120996 -234.045236 
L 80.354999 -234.045236 
L 74.589001 -226.087095 
L 68.823004 -226.087095 
L 63.057007 -226.087095 
L 57.29101 -234.045236 
L 51.525012 -242.003377 
L 45.759015 -242.003377 
L 39.993018 -234.045236 
L 34.22702 -242.003377 
L 28.461023 -249.961518 
L 22.695026 -249.961518 
L 16.929029 -226.087095 
z
" style="stroke: #924bce; stroke-opacity: 0.536364"/>
    </defs>
    <g clip-path="url(#p4868466689)">
     <use xlink:href="#m7c72f63d11" x="0" y="337.40125" style="fill: #924bce; fill-opacity: 0.536364; stroke: #924bce; stroke-opacity: 0.536364"/>
    </g>
   </g>
   <g id="line2d_15">
    <path d="M 16.929029 111.314155 
L 22.695026 111.314155 
L 28.461023 111.314155 
L 34.22702 111.314155 
L 39.993018 111.314155 
L 45.759015 111.314155 
L 51.525012 111.314155 
L 57.29101 111.314155 
L 63.057007 111.314155 
L 68.823004 111.314155 
L 74.589001 111.314155 
L 80.354999 111.314155 
L 86.120996 111.314155 
L 91.886993 111.314155 
L 97.65299 111.314155 
L 103.418988 111.314155 
L 109.184985 111.314155 
L 114.950982 111.314155 
L 120.71698 111.314155 
L 126.482977 111.314155 
L 132.248974 111.314155 
L 138.014971 111.314155 
" clip-path="url(#p4868466689)" style="fill: none; stroke: #924bce; stroke-opacity: 0.536364; stroke-width: 1.5; stroke-linecap: square"/>
   </g>
   <g id="line2d_16">
    <path d="M 16.929029 111.314155 
L 22.695026 87.439732 
L 28.461023 87.439732 
L 34.22702 95.397873 
L 39.993018 103.356014 
L 45.759015 95.397873 
L 51.525012 95.397873 
L 57.29101 103.356014 
L 63.057007 111.314155 
L 68.823004 111.314155 
L 74.589001 111.314155 
L 80.354999 103.356014 
L 86.120996 103.356014 
L 91.886993 103.356014 
L 97.65299 111.314155 
L 103.418988 103.356014 
L 109.184985 111.314155 
L 114.950982 111.314155 
L 120.71698 111.314155 
L 126.482977 103.356014 
L 132.248974 103.356014 
L 138.014971 111.314155 
" clip-path="url(#p4868466689)" style="fill: none; stroke: #000000; stroke-opacity: 0.536364; stroke-width: 1.5; stroke-linecap: square"/>
   </g>
  </g>
  <g id="axes_7">
   <g id="FillBetweenPolyCollection_6">
    <defs>
     <path id="me093491871" d="M 12.355859 -214.681641 
L 12.355859 -214.681641 
L 18.401846 -214.681641 
L 24.447833 -214.681641 
L 30.49382 -214.681641 
L 36.539808 -214.681641 
L 42.585795 -214.681641 
L 48.631782 -214.681641 
L 54.67777 -214.681641 
L 60.723757 -214.681641 
L 66.769744 -214.681641 
L 72.815731 -214.681641 
L 78.861719 -214.681641 
L 84.907706 -214.681641 
L 90.953693 -214.681641 
L 96.99968 -214.681641 
L 103.045668 -214.681641 
L 109.091655 -214.681641 
L 115.137642 -214.681641 
L 121.18363 -214.681641 
L 127.229617 -214.681641 
L 133.275604 -214.681641 
L 139.321591 -214.681641 
L 139.321591 -214.681641 
L 139.321591 -214.681641 
L 133.275604 -222.639782 
L 127.229617 -214.681641 
L 121.18363 -214.681641 
L 115.137642 -222.639782 
L 109.091655 -214.681641 
L 103.045668 -214.681641 
L 96.99968 -222.639782 
L 90.953693 -230.597923 
L 84.907706 -214.681641 
L 78.861719 -222.639782 
L 72.815731 -214.681641 
L 66.769744 -222.639782 
L 60.723757 -214.681641 
L 54.67777 -222.639782 
L 48.631782 -214.681641 
L 42.585795 -230.597923 
L 36.539808 -230.597923 
L 30.49382 -246.514205 
L 24.447833 -238.556064 
L 18.401846 -222.639782 
L 12.355859 -214.681641 
z
" style="stroke: #924bce; stroke-opacity: 0.563636"/>
    </defs>
    <g clip-path="url(#p11083a1274)">
     <use xlink:href="#me093491871" x="0" y="337.40125" style="fill: #924bce; fill-opacity: 0.563636; stroke: #924bce; stroke-opacity: 0.563636"/>
    </g>
   </g>
   <g id="line2d_17">
    <path d="M 12.355859 122.719609 
L 18.401846 122.719609 
L 24.447833 122.719609 
L 30.49382 122.719609 
L 36.539808 122.719609 
L 42.585795 122.719609 
L 48.631782 122.719609 
L 54.67777 122.719609 
L 60.723757 122.719609 
L 66.769744 122.719609 
L 72.815731 122.719609 
L 78.861719 122.719609 
L 84.907706 122.719609 
L 90.953693 122.719609 
L 96.99968 122.719609 
L 103.045668 122.719609 
L 109.091655 122.719609 
L 115.137642 122.719609 
L 121.18363 122.719609 
L 127.229617 122.719609 
L 133.275604 122.719609 
L 139.321591 122.719609 
" clip-path="url(#p11083a1274)" style="fill: none; stroke: #924bce; stroke-opacity: 0.563636; stroke-width: 1.5; stroke-linecap: square"/>
   </g>
   <g id="line2d_18">
    <path d="M 12.355859 122.719609 
L 18.401846 114.761468 
L 24.447833 98.845186 
L 30.49382 90.887045 
L 36.539808 106.803327 
L 42.585795 106.803327 
L 48.631782 122.719609 
L 54.67777 114.761468 
L 60.723757 122.719609 
L 66.769744 114.761468 
L 72.815731 122.719609 
L 78.861719 114.761468 
L 84.907706 122.719609 
L 90.953693 106.803327 
L 96.99968 114.761468 
L 103.045668 122.719609 
L 109.091655 122.719609 
L 115.137642 114.761468 
L 121.18363 122.719609 
L 127.229617 122.719609 
L 133.275604 114.761468 
L 139.321591 122.719609 
" clip-path="url(#p11083a1274)" style="fill: none; stroke: #000000; stroke-opacity: 0.563636; stroke-width: 1.5; stroke-linecap: square"/>
   </g>
  </g>
  <g id="axes_8">
   <g id="FillBetweenPolyCollection_7">
    <defs>
     <path id="mf536719c71" d="M 13.465438 -203.276186 
L 13.465438 -203.276186 
L 19.066286 -203.276186 
L 24.667134 -203.276186 
L 30.267982 -203.276186 
L 35.86883 -203.276186 
L 41.469678 -203.276186 
L 47.070526 -203.276186 
L 52.671374 -203.276186 
L 58.272222 -203.276186 
L 63.87307 -203.276186 
L 69.473918 -203.276186 
L 75.074767 -203.276186 
L 80.675615 -203.276186 
L 86.276463 -203.276186 
L 91.877311 -203.276186 
L 97.478159 -203.276186 
L 103.079007 -203.276186 
L 108.679855 -203.276186 
L 114.280703 -203.276186 
L 119.881551 -203.276186 
L 125.482399 -203.276186 
L 131.083247 -203.276186 
L 131.083247 -203.276186 
L 131.083247 -203.276186 
L 125.482399 -211.234327 
L 119.881551 -211.234327 
L 114.280703 -211.234327 
L 108.679855 -203.276186 
L 103.079007 -211.234327 
L 97.478159 -211.234327 
L 91.877311 -211.234327 
L 86.276463 -203.276186 
L 80.675615 -203.276186 
L 75.074767 -203.276186 
L 69.473918 -203.276186 
L 63.87307 -211.234327 
L 58.272222 -211.234327 
L 52.671374 -203.276186 
L 47.070526 -219.192468 
L 41.469678 -211.234327 
L 35.86883 -235.10875 
L 30.267982 -235.10875 
L 24.667134 -203.276186 
L 19.066286 -211.234327 
L 13.465438 -203.276186 
z
" style="stroke: #924bce; stroke-opacity: 0.590909"/>
    </defs>
    <g clip-path="url(#pe21badb4d0)">
     <use xlink:href="#mf536719c71" x="0" y="337.40125" style="fill: #924bce; fill-opacity: 0.590909; stroke: #924bce; stroke-opacity: 0.590909"/>
    </g>
   </g>
   <g id="line2d_19">
    <path d="M 13.465438 134.125064 
L 19.066286 134.125064 
L 24.667134 134.125064 
L 30.267982 134.125064 
L 35.86883 134.125064 
L 41.469678 134.125064 
L 47.070526 134.125064 
L 52.671374 134.125064 
L 58.272222 134.125064 
L 63.87307 134.125064 
L 69.473918 134.125064 
L 75.074767 134.125064 
L 80.675615 134.125064 
L 86.276463 134.125064 
L 91.877311 134.125064 
L 97.478159 134.125064 
L 103.079007 134.125064 
L 108.679855 134.125064 
L 114.280703 134.125064 
L 119.881551 134.125064 
L 125.482399 134.125064 
L 131.083247 134.125064 
" clip-path="url(#pe21badb4d0)" style="fill: none; stroke: #924bce; stroke-opacity: 0.590909; stroke-width: 1.5; stroke-linecap: square"/>
   </g>
   <g id="line2d_20">
    <path d="M 13.465438 134.125064 
L 19.066286 126.166923 
L 24.667134 134.125064 
L 30.267982 102.2925 
L 35.86883 102.2925 
L 41.469678 126.166923 
L 47.070526 118.208782 
L 52.671374 134.125064 
L 58.272222 126.166923 
L 63.87307 126.166923 
L 69.473918 134.125064 
L 75.074767 134.125064 
L 80.675615 134.125064 
L 86.276463 134.125064 
L 91.877311 126.166923 
L 97.478159 126.166923 
L 103.079007 126.166923 
L 108.679855 134.125064 
L 114.280703 126.166923 
L 119.881551 126.166923 
L 125.482399 126.166923 
L 131.083247 134.125064 
" clip-path="url(#pe21badb4d0)" style="fill: none; stroke: #000000; stroke-opacity: 0.590909; stroke-width: 1.5; stroke-linecap: square"/>
   </g>
  </g>
  <g id="axes_9">
   <g id="FillBetweenPolyCollection_8">
    <defs>
     <path id="m5cd218337d" d="M 14.54587 -191.870732 
L 14.54587 -191.870732 
L 21.131624 -191.870732 
L 27.717378 -191.870732 
L 34.303132 -191.870732 
L 40.888886 -191.870732 
L 47.47464 -191.870732 
L 54.060394 -191.870732 
L 60.646148 -191.870732 
L 67.231902 -191.870732 
L 73.817656 -191.870732 
L 80.40341 -191.870732 
L 86.989165 -191.870732 
L 93.574919 -191.870732 
L 100.160673 -191.870732 
L 106.746427 -191.870732 
L 113.332181 -191.870732 
L 119.917935 -191.870732 
L 126.503689 -191.870732 
L 133.089443 -191.870732 
L 139.675197 -191.870732 
L 146.260951 -191.870732 
L 152.846705 -191.870732 
L 152.846705 -191.870732 
L 152.846705 -191.870732 
L 146.260951 -199.828873 
L 139.675197 -191.870732 
L 133.089443 -191.870732 
L 126.503689 -191.870732 
L 119.917935 -199.828873 
L 113.332181 -199.828873 
L 106.746427 -199.828873 
L 100.160673 -191.870732 
L 93.574919 -199.828873 
L 86.989165 -191.870732 
L 80.40341 -191.870732 
L 73.817656 -199.828873 
L 67.231902 -191.870732 
L 60.646148 -191.870732 
L 54.060394 -207.787014 
L 47.47464 -191.870732 
L 40.888886 -207.787014 
L 34.303132 -207.787014 
L 27.717378 -247.577719 
L 21.131624 -199.828873 
L 14.54587 -191.870732 
z
" style="stroke: #924bce; stroke-opacity: 0.618182"/>
    </defs>
    <g clip-path="url(#p4a83657f58)">
     <use xlink:href="#m5cd218337d" x="0" y="337.40125" style="fill: #924bce; fill-opacity: 0.618182; stroke: #924bce; stroke-opacity: 0.618182"/>
    </g>
   </g>
   <g id="line2d_21">
    <path d="M 14.54587 145.530518 
L 21.131624 145.530518 
L 27.717378 145.530518 
L 34.303132 145.530518 
L 40.888886 145.530518 
L 47.47464 145.530518 
L 54.060394 145.530518 
L 60.646148 145.530518 
L 67.231902 145.530518 
L 73.817656 145.530518 
L 80.40341 145.530518 
L 86.989165 145.530518 
L 93.574919 145.530518 
L 100.160673 145.530518 
L 106.746427 145.530518 
L 113.332181 145.530518 
L 119.917935 145.530518 
L 126.503689 145.530518 
L 133.089443 145.530518 
L 139.675197 145.530518 
L 146.260951 145.530518 
L 152.846705 145.530518 
" clip-path="url(#p4a83657f58)" style="fill: none; stroke: #924bce; stroke-opacity: 0.618182; stroke-width: 1.5; stroke-linecap: square"/>
   </g>
   <g id="line2d_22">
    <path d="M 14.54587 145.530518 
L 21.131624 137.572377 
L 27.717378 89.823531 
L 34.303132 129.614236 
L 40.888886 129.614236 
L 47.47464 145.530518 
L 54.060394 129.614236 
L 60.646148 145.530518 
L 67.231902 145.530518 
L 73.817656 137.572377 
L 80.40341 145.530518 
L 86.989165 145.530518 
L 93.574919 137.572377 
L 100.160673 145.530518 
L 106.746427 137.572377 
L 113.332181 137.572377 
L 119.917935 137.572377 
L 126.503689 145.530518 
L 133.089443 145.530518 
L 139.675197 145.530518 
L 146.260951 137.572377 
L 152.846705 145.530518 
" clip-path="url(#p4a83657f58)" style="fill: none; stroke: #000000; stroke-opacity: 0.618182; stroke-width: 1.5; stroke-linecap: square"/>
   </g>
  </g>
  <g id="axes_10">
   <g id="FillBetweenPolyCollection_9">
    <defs>
     <path id="m92845b17b4" d="M 10.795201 -180.465277 
L 10.795201 -180.465277 
L 17.620519 -180.465277 
L 24.445837 -180.465277 
L 31.271155 -180.465277 
L 38.096472 -180.465277 
L 44.92179 -180.465277 
L 51.747108 -180.465277 
L 58.572425 -180.465277 
L 65.397743 -180.465277 
L 72.223061 -180.465277 
L 79.048379 -180.465277 
L 85.873696 -180.465277 
L 92.699014 -180.465277 
L 99.524332 -180.465277 
L 106.34965 -180.465277 
L 113.174967 -180.465277 
L 120.000285 -180.465277 
L 126.825603 -180.465277 
L 133.65092 -180.465277 
L 140.476238 -180.465277 
L 147.301556 -180.465277 
L 154.126874 -180.465277 
L 154.126874 -180.465277 
L 154.126874 -180.465277 
L 147.301556 -188.423418 
L 140.476238 -180.465277 
L 133.65092 -196.381559 
L 126.825603 -180.465277 
L 120.000285 -180.465277 
L 113.174967 -180.465277 
L 106.34965 -180.465277 
L 99.524332 -180.465277 
L 92.699014 -180.465277 
L 85.873696 -204.3397 
L 79.048379 -180.465277 
L 72.223061 -180.465277 
L 65.397743 -188.423418 
L 58.572425 -180.465277 
L 51.747108 -180.465277 
L 44.92179 -196.381559 
L 38.096472 -228.214123 
L 31.271155 -204.3397 
L 24.445837 -188.423418 
L 17.620519 -188.423418 
L 10.795201 -180.465277 
z
" style="stroke: #924bce; stroke-opacity: 0.645455"/>
    </defs>
    <g clip-path="url(#p8888cb6cb4)">
     <use xlink:href="#m92845b17b4" x="0" y="337.40125" style="fill: #924bce; fill-opacity: 0.645455; stroke: #924bce; stroke-opacity: 0.645455"/>
    </g>
   </g>
   <g id="line2d_23">
    <path d="M 10.795201 156.935973 
L 17.620519 156.935973 
L 24.445837 156.935973 
L 31.271155 156.935973 
L 38.096472 156.935973 
L 44.92179 156.935973 
L 51.747108 156.935973 
L 58.572425 156.935973 
L 65.397743 156.935973 
L 72.223061 156.935973 
L 79.048379 156.935973 
L 85.873696 156.935973 
L 92.699014 156.935973 
L 99.524332 156.935973 
L 106.34965 156.935973 
L 113.174967 156.935973 
L 120.000285 156.935973 
L 126.825603 156.935973 
L 133.65092 156.935973 
L 140.476238 156.935973 
L 147.301556 156.935973 
L 154.126874 156.935973 
" clip-path="url(#p8888cb6cb4)" style="fill: none; stroke: #924bce; stroke-opacity: 0.645455; stroke-width: 1.5; stroke-linecap: square"/>
   </g>
   <g id="line2d_24">
    <path d="M 10.795201 156.935973 
L 17.620519 148.977832 
L 24.445837 148.977832 
L 31.271155 133.06155 
L 38.096472 109.187127 
L 44.92179 141.019691 
L 51.747108 156.935973 
L 58.572425 156.935973 
L 65.397743 148.977832 
L 72.223061 156.935973 
L 79.048379 156.935973 
L 85.873696 133.06155 
L 92.699014 156.935973 
L 99.524332 156.935973 
L 106.34965 156.935973 
L 113.174967 156.935973 
L 120.000285 156.935973 
L 126.825603 156.935973 
L 133.65092 141.019691 
L 140.476238 156.935973 
L 147.301556 148.977832 
L 154.126874 156.935973 
" clip-path="url(#p8888cb6cb4)" style="fill: none; stroke: #000000; stroke-opacity: 0.645455; stroke-width: 1.5; stroke-linecap: square"/>
   </g>
  </g>
  <g id="axes_11">
   <g id="FillBetweenPolyCollection_10">
    <defs>
     <path id="mf68ce5841b" d="M 15.60494 -169.059823 
L 15.60494 -169.059823 
L 23.331616 -169.059823 
L 31.058292 -169.059823 
L 38.784968 -169.059823 
L 46.511644 -169.059823 
L 54.23832 -169.059823 
L 61.964996 -169.059823 
L 69.691672 -169.059823 
L 77.418348 -169.059823 
L 85.145024 -169.059823 
L 92.8717 -169.059823 
L 100.598375 -169.059823 
L 108.325051 -169.059823 
L 116.051727 -169.059823 
L 123.778403 -169.059823 
L 131.505079 -169.059823 
L 139.231755 -169.059823 
L 146.958431 -169.059823 
L 154.685107 -169.059823 
L 162.411783 -169.059823 
L 170.138459 -169.059823 
L 177.865135 -169.059823 
L 177.865135 -169.059823 
L 177.865135 -169.059823 
L 170.138459 -177.017964 
L 162.411783 -169.059823 
L 154.685107 -169.059823 
L 146.958431 -169.059823 
L 139.231755 -169.059823 
L 131.505079 -177.017964 
L 123.778403 -169.059823 
L 116.051727 -184.976105 
L 108.325051 -169.059823 
L 100.598375 -169.059823 
L 92.8717 -177.017964 
L 85.145024 -177.017964 
L 77.418348 -169.059823 
L 69.691672 -169.059823 
L 61.964996 -177.017964 
L 54.23832 -177.017964 
L 46.511644 -177.017964 
L 38.784968 -216.808669 
L 31.058292 -192.934246 
L 23.331616 -184.976105 
L 15.60494 -169.059823 
z
" style="stroke: #924bce; stroke-opacity: 0.672727"/>
    </defs>
    <g clip-path="url(#pe15a54ca5e)">
     <use xlink:href="#mf68ce5841b" x="0" y="337.40125" style="fill: #924bce; fill-opacity: 0.672727; stroke: #924bce; stroke-opacity: 0.672727"/>
    </g>
   </g>
   <g id="line2d_25">
    <path d="M 15.60494 168.341427 
L 23.331616 168.341427 
L 31.058292 168.341427 
L 38.784968 168.341427 
L 46.511644 168.341427 
L 54.23832 168.341427 
L 61.964996 168.341427 
L 69.691672 168.341427 
L 77.418348 168.341427 
L 85.145024 168.341427 
L 92.8717 168.341427 
L 100.598375 168.341427 
L 108.325051 168.341427 
L 116.051727 168.341427 
L 123.778403 168.341427 
L 131.505079 168.341427 
L 139.231755 168.341427 
L 146.958431 168.341427 
L 154.685107 168.341427 
L 162.411783 168.341427 
L 170.138459 168.341427 
L 177.865135 168.341427 
" clip-path="url(#pe15a54ca5e)" style="fill: none; stroke: #924bce; stroke-opacity: 0.672727; stroke-width: 1.5; stroke-linecap: square"/>
   </g>
   <g id="line2d_26">
    <path d="M 15.60494 168.341427 
L 23.331616 152.425145 
L 31.058292 144.467004 
L 38.784968 120.592581 
L 46.511644 160.383286 
L 54.23832 160.383286 
L 61.964996 160.383286 
L 69.691672 168.341427 
L 77.418348 168.341427 
L 85.145024 160.383286 
L 92.8717 160.383286 
L 100.598375 168.341427 
L 108.325051 168.341427 
L 116.051727 152.425145 
L 123.778403 168.341427 
L 131.505079 160.383286 
L 139.231755 168.341427 
L 146.958431 168.341427 
L 154.685107 168.341427 
L 162.411783 168.341427 
L 170.138459 160.383286 
L 177.865135 168.341427 
" clip-path="url(#pe15a54ca5e)" style="fill: none; stroke: #000000; stroke-opacity: 0.672727; stroke-width: 1.5; stroke-linecap: square"/>
   </g>
  </g>
  <g id="axes_12">
   <g id="FillBetweenPolyCollection_11">
    <defs>
     <path id="m82577ecb58" d="M 11.549328 -157.654368 
L 11.549328 -157.654368 
L 19.106063 -157.654368 
L 26.662799 -157.654368 
L 34.219534 -157.654368 
L 41.77627 -157.654368 
L 49.333005 -157.654368 
L 56.88974 -157.654368 
L 64.446476 -157.654368 
L 72.003211 -157.654368 
L 79.559947 -157.654368 
L 87.116682 -157.654368 
L 94.673418 -157.654368 
L 102.230153 -157.654368 
L 109.786889 -157.654368 
L 117.343624 -157.654368 
L 124.90036 -157.654368 
L 132.457095 -157.654368 
L 140.01383 -157.654368 
L 147.570566 -157.654368 
L 155.127301 -157.654368 
L 162.684037 -157.654368 
L 170.240772 -157.654368 
L 170.240772 -157.654368 
L 170.240772 -157.654368 
L 162.684037 -165.612509 
L 155.127301 -157.654368 
L 147.570566 -165.612509 
L 140.01383 -157.654368 
L 132.457095 -165.612509 
L 124.90036 -157.654368 
L 117.343624 -165.612509 
L 109.786889 -157.654368 
L 102.230153 -157.654368 
L 94.673418 -165.612509 
L 87.116682 -165.612509 
L 79.559947 -157.654368 
L 72.003211 -157.654368 
L 64.446476 -165.612509 
L 56.88974 -165.612509 
L 49.333005 -165.612509 
L 41.77627 -197.445073 
L 34.219534 -189.486932 
L 26.662799 -165.612509 
L 19.106063 -165.612509 
L 11.549328 -157.654368 
z
" style="stroke: #924bce; stroke-opacity: 0.7"/>
    </defs>
    <g clip-path="url(#paa22f97dc2)">
     <use xlink:href="#m82577ecb58" x="0" y="337.40125" style="fill: #924bce; fill-opacity: 0.7; stroke: #924bce; stroke-opacity: 0.7"/>
    </g>
   </g>
   <g id="line2d_27">
    <path d="M 11.549328 179.746882 
L 19.106063 179.746882 
L 26.662799 179.746882 
L 34.219534 179.746882 
L 41.77627 179.746882 
L 49.333005 179.746882 
L 56.88974 179.746882 
L 64.446476 179.746882 
L 72.003211 179.746882 
L 79.559947 179.746882 
L 87.116682 179.746882 
L 94.673418 179.746882 
L 102.230153 179.746882 
L 109.786889 179.746882 
L 117.343624 179.746882 
L 124.90036 179.746882 
L 132.457095 179.746882 
L 140.01383 179.746882 
L 147.570566 179.746882 
L 155.127301 179.746882 
L 162.684037 179.746882 
L 170.240772 179.746882 
" clip-path="url(#paa22f97dc2)" style="fill: none; stroke: #924bce; stroke-opacity: 0.7; stroke-width: 1.5; stroke-linecap: square"/>
   </g>
   <g id="line2d_28">
    <path d="M 11.549328 179.746882 
L 19.106063 171.788741 
L 26.662799 171.788741 
L 34.219534 147.914318 
L 41.77627 139.956177 
L 49.333005 171.788741 
L 56.88974 171.788741 
L 64.446476 171.788741 
L 72.003211 179.746882 
L 79.559947 179.746882 
L 87.116682 171.788741 
L 94.673418 171.788741 
L 102.230153 179.746882 
L 109.786889 179.746882 
L 117.343624 171.788741 
L 124.90036 179.746882 
L 132.457095 171.788741 
L 140.01383 179.746882 
L 147.570566 171.788741 
L 155.127301 179.746882 
L 162.684037 171.788741 
L 170.240772 179.746882 
" clip-path="url(#paa22f97dc2)" style="fill: none; stroke: #000000; stroke-opacity: 0.7; stroke-width: 1.5; stroke-linecap: square"/>
   </g>
  </g>
  <g id="axes_13">
   <g id="FillBetweenPolyCollection_12">
    <defs>
     <path id="m030bd8798c" d="M 25.567045 -146.248913 
L 25.567045 -146.248913 
L 32.358674 -146.248913 
L 39.150303 -146.248913 
L 45.941932 -146.248913 
L 52.733561 -146.248913 
L 59.52519 -146.248913 
L 66.316819 -146.248913 
L 73.108448 -146.248913 
L 79.900077 -146.248913 
L 86.691706 -146.248913 
L 93.483335 -146.248913 
L 100.274965 -146.248913 
L 107.066594 -146.248913 
L 113.858223 -146.248913 
L 120.649852 -146.248913 
L 127.441481 -146.248913 
L 134.23311 -146.248913 
L 141.024739 -146.248913 
L 147.816368 -146.248913 
L 154.607997 -146.248913 
L 161.399626 -146.248913 
L 168.191255 -146.248913 
L 168.191255 -146.248913 
L 168.191255 -146.248913 
L 161.399626 -154.207054 
L 154.607997 -146.248913 
L 147.816368 -146.248913 
L 141.024739 -154.207054 
L 134.23311 -154.207054 
L 127.441481 -154.207054 
L 120.649852 -146.248913 
L 113.858223 -146.248913 
L 107.066594 -162.165195 
L 100.274965 -146.248913 
L 93.483335 -146.248913 
L 86.691706 -146.248913 
L 79.900077 -146.248913 
L 73.108448 -154.207054 
L 66.316819 -154.207054 
L 59.52519 -162.165195 
L 52.733561 -154.207054 
L 45.941932 -178.081478 
L 39.150303 -178.081478 
L 32.358674 -154.207054 
L 25.567045 -146.248913 
z
" style="stroke: #924bce; stroke-opacity: 0.727273"/>
    </defs>
    <g clip-path="url(#pe23493f7f0)">
     <use xlink:href="#m030bd8798c" x="0" y="337.40125" style="fill: #924bce; fill-opacity: 0.727273; stroke: #924bce; stroke-opacity: 0.727273"/>
    </g>
   </g>
   <g id="line2d_29">
    <path d="M 25.567045 191.152337 
L 32.358674 191.152337 
L 39.150303 191.152337 
L 45.941932 191.152337 
L 52.733561 191.152337 
L 59.52519 191.152337 
L 66.316819 191.152337 
L 73.108448 191.152337 
L 79.900077 191.152337 
L 86.691706 191.152337 
L 93.483335 191.152337 
L 100.274965 191.152337 
L 107.066594 191.152337 
L 113.858223 191.152337 
L 120.649852 191.152337 
L 127.441481 191.152337 
L 134.23311 191.152337 
L 141.024739 191.152337 
L 147.816368 191.152337 
L 154.607997 191.152337 
L 161.399626 191.152337 
L 168.191255 191.152337 
" clip-path="url(#pe23493f7f0)" style="fill: none; stroke: #924bce; stroke-opacity: 0.727273; stroke-width: 1.5; stroke-linecap: square"/>
   </g>
   <g id="line2d_30">
    <path d="M 25.567045 191.152337 
L 32.358674 183.194196 
L 39.150303 159.319772 
L 45.941932 159.319772 
L 52.733561 183.194196 
L 59.52519 175.236055 
L 66.316819 183.194196 
L 73.108448 183.194196 
L 79.900077 191.152337 
L 86.691706 191.152337 
L 93.483335 191.152337 
L 100.274965 191.152337 
L 107.066594 175.236055 
L 113.858223 191.152337 
L 120.649852 191.152337 
L 127.441481 183.194196 
L 134.23311 183.194196 
L 141.024739 183.194196 
L 147.816368 191.152337 
L 154.607997 191.152337 
L 161.399626 183.194196 
L 168.191255 191.152337 
" clip-path="url(#pe23493f7f0)" style="fill: none; stroke: #000000; stroke-opacity: 0.727273; stroke-width: 1.5; stroke-linecap: square"/>
   </g>
  </g>
  <g id="axes_14">
   <g id="FillBetweenPolyCollection_13">
    <defs>
     <path id="m131fdb49c0" d="M 25.051583 -134.843459 
L 25.051583 -134.843459 
L 33.728578 -134.843459 
L 42.405573 -134.843459 
L 51.082568 -134.843459 
L 59.759563 -134.843459 
L 68.436558 -134.843459 
L 77.113553 -134.843459 
L 85.790548 -134.843459 
L 94.467543 -134.843459 
L 103.144538 -134.843459 
L 111.821533 -134.843459 
L 120.498527 -134.843459 
L 129.175522 -134.843459 
L 137.852517 -134.843459 
L 146.529512 -134.843459 
L 155.206507 -134.843459 
L 163.883502 -134.843459 
L 172.560497 -134.843459 
L 181.237492 -134.843459 
L 189.914487 -134.843459 
L 198.591482 -134.843459 
L 207.268477 -134.843459 
L 207.268477 -134.843459 
L 207.268477 -134.843459 
L 198.591482 -142.8016 
L 189.914487 -134.843459 
L 181.237492 -134.843459 
L 172.560497 -134.843459 
L 163.883502 -142.8016 
L 155.206507 -158.717882 
L 146.529512 -134.843459 
L 137.852517 -134.843459 
L 129.175522 -134.843459 
L 120.498527 -142.8016 
L 111.821533 -134.843459 
L 103.144538 -134.843459 
L 94.467543 -142.8016 
L 85.790548 -142.8016 
L 77.113553 -142.8016 
L 68.436558 -150.759741 
L 59.759563 -142.8016 
L 51.082568 -150.759741 
L 42.405573 -174.634164 
L 33.728578 -142.8016 
L 25.051583 -134.843459 
z
" style="stroke: #924bce; stroke-opacity: 0.754545"/>
    </defs>
    <g clip-path="url(#p811bceeaab)">
     <use xlink:href="#m131fdb49c0" x="0" y="337.40125" style="fill: #924bce; fill-opacity: 0.754545; stroke: #924bce; stroke-opacity: 0.754545"/>
    </g>
   </g>
   <g id="line2d_31">
    <path d="M 25.051583 202.557791 
L 33.728578 202.557791 
L 42.405573 202.557791 
L 51.082568 202.557791 
L 59.759563 202.557791 
L 68.436558 202.557791 
L 77.113553 202.557791 
L 85.790548 202.557791 
L 94.467543 202.557791 
L 103.144538 202.557791 
L 111.821533 202.557791 
L 120.498527 202.557791 
L 129.175522 202.557791 
L 137.852517 202.557791 
L 146.529512 202.557791 
L 155.206507 202.557791 
L 163.883502 202.557791 
L 172.560497 202.557791 
L 181.237492 202.557791 
L 189.914487 202.557791 
L 198.591482 202.557791 
L 207.268477 202.557791 
" clip-path="url(#p811bceeaab)" style="fill: none; stroke: #924bce; stroke-opacity: 0.754545; stroke-width: 1.5; stroke-linecap: square"/>
   </g>
   <g id="line2d_32">
    <path d="M 25.051583 202.557791 
L 33.728578 194.59965 
L 42.405573 162.767086 
L 51.082568 186.641509 
L 59.759563 194.59965 
L 68.436558 186.641509 
L 77.113553 194.59965 
L 85.790548 194.59965 
L 94.467543 194.59965 
L 103.144538 202.557791 
L 111.821533 202.557791 
L 120.498527 194.59965 
L 129.175522 202.557791 
L 137.852517 202.557791 
L 146.529512 202.557791 
L 155.206507 178.683368 
L 163.883502 194.59965 
L 172.560497 202.557791 
L 181.237492 202.557791 
L 189.914487 202.557791 
L 198.591482 194.59965 
L 207.268477 202.557791 
" clip-path="url(#p811bceeaab)" style="fill: none; stroke: #000000; stroke-opacity: 0.754545; stroke-width: 1.5; stroke-linecap: square"/>
   </g>
  </g>
  <g id="axes_15">
   <g id="FillBetweenPolyCollection_14">
    <defs>
     <path id="m94a1e54997" d="M 18.264596 -123.438004 
L 18.264596 -123.438004 
L 31.799193 -123.438004 
L 45.33379 -123.438004 
L 58.868386 -123.438004 
L 72.402983 -123.438004 
L 85.93758 -123.438004 
L 99.472177 -123.438004 
L 113.006774 -123.438004 
L 126.54137 -123.438004 
L 140.075967 -123.438004 
L 153.610564 -123.438004 
L 167.145161 -123.438004 
L 180.679758 -123.438004 
L 194.214355 -123.438004 
L 207.748951 -123.438004 
L 221.283548 -123.438004 
L 234.818145 -123.438004 
L 248.352742 -123.438004 
L 261.887339 -123.438004 
L 275.421935 -123.438004 
L 288.956532 -123.438004 
L 302.491129 -123.438004 
L 302.491129 -123.438004 
L 302.491129 -123.438004 
L 288.956532 -131.396145 
L 275.421935 -123.438004 
L 261.887339 -123.438004 
L 248.352742 -139.354286 
L 234.818145 -139.354286 
L 221.283548 -123.438004 
L 207.748951 -123.438004 
L 194.214355 -131.396145 
L 180.679758 -123.438004 
L 167.145161 -123.438004 
L 153.610564 -123.438004 
L 140.075967 -123.438004 
L 126.54137 -123.438004 
L 113.006774 -131.396145 
L 99.472177 -123.438004 
L 85.93758 -139.354286 
L 72.402983 -139.354286 
L 58.868386 -171.186851 
L 45.33379 -139.354286 
L 31.799193 -131.396145 
L 18.264596 -123.438004 
z
" style="stroke: #924bce; stroke-opacity: 0.781818"/>
    </defs>
    <g clip-path="url(#pf61a06f43e)">
     <use xlink:href="#m94a1e54997" x="0" y="337.40125" style="fill: #924bce; fill-opacity: 0.781818; stroke: #924bce; stroke-opacity: 0.781818"/>
    </g>
   </g>
   <g id="line2d_33">
    <path d="M 18.264596 213.963246 
L 31.799193 213.963246 
L 45.33379 213.963246 
L 58.868386 213.963246 
L 72.402983 213.963246 
L 85.93758 213.963246 
L 99.472177 213.963246 
L 113.006774 213.963246 
L 126.54137 213.963246 
L 140.075967 213.963246 
L 153.610564 213.963246 
L 167.145161 213.963246 
L 180.679758 213.963246 
L 194.214355 213.963246 
L 207.748951 213.963246 
L 221.283548 213.963246 
L 234.818145 213.963246 
L 248.352742 213.963246 
L 261.887339 213.963246 
L 275.421935 213.963246 
L 288.956532 213.963246 
L 302.491129 213.963246 
" clip-path="url(#pf61a06f43e)" style="fill: none; stroke: #924bce; stroke-opacity: 0.781818; stroke-width: 1.5; stroke-linecap: square"/>
   </g>
   <g id="line2d_34">
    <path d="M 18.264596 213.963246 
L 31.799193 206.005105 
L 45.33379 198.046964 
L 58.868386 166.214399 
L 72.402983 198.046964 
L 85.93758 198.046964 
L 99.472177 213.963246 
L 113.006774 206.005105 
L 126.54137 213.963246 
L 140.075967 213.963246 
L 153.610564 213.963246 
L 167.145161 213.963246 
L 180.679758 213.963246 
L 194.214355 206.005105 
L 207.748951 213.963246 
L 221.283548 213.963246 
L 234.818145 198.046964 
L 248.352742 198.046964 
L 261.887339 213.963246 
L 275.421935 213.963246 
L 288.956532 206.005105 
L 302.491129 213.963246 
" clip-path="url(#pf61a06f43e)" style="fill: none; stroke: #000000; stroke-opacity: 0.781818; stroke-width: 1.5; stroke-linecap: square"/>
   </g>
  </g>
  <g id="axes_16">
   <g id="FillBetweenPolyCollection_15">
    <defs>
     <path id="m899a80102f" d="M 16.518027 -112.03255 
L 16.518027 -112.03255 
L 32.793382 -112.03255 
L 49.068736 -112.03255 
L 65.344091 -112.03255 
L 81.619445 -112.03255 
L 97.8948 -112.03255 
L 114.170155 -112.03255 
L 130.445509 -112.03255 
L 146.720864 -112.03255 
L 162.996218 -112.03255 
L 179.271573 -112.03255 
L 195.546927 -112.03255 
L 211.822282 -112.03255 
L 228.097636 -112.03255 
L 244.372991 -112.03255 
L 260.648345 -112.03255 
L 276.9237 -112.03255 
L 293.199055 -112.03255 
L 309.474409 -112.03255 
L 325.749764 -112.03255 
L 342.025118 -112.03255 
L 358.300473 -112.03255 
L 358.300473 -112.03255 
L 358.300473 -112.03255 
L 342.025118 -119.990691 
L 325.749764 -127.948832 
L 309.474409 -112.03255 
L 293.199055 -112.03255 
L 276.9237 -112.03255 
L 260.648345 -119.990691 
L 244.372991 -112.03255 
L 228.097636 -119.990691 
L 211.822282 -112.03255 
L 195.546927 -119.990691 
L 179.271573 -112.03255 
L 162.996218 -112.03255 
L 146.720864 -119.990691 
L 130.445509 -119.990691 
L 114.170155 -112.03255 
L 97.8948 -143.865114 
L 81.619445 -135.906973 
L 65.344091 -135.906973 
L 49.068736 -119.990691 
L 32.793382 -119.990691 
L 16.518027 -112.03255 
z
" style="stroke: #924bce; stroke-opacity: 0.809091"/>
    </defs>
    <g clip-path="url(#pa652ab3256)">
     <use xlink:href="#m899a80102f" x="0" y="337.40125" style="fill: #924bce; fill-opacity: 0.809091; stroke: #924bce; stroke-opacity: 0.809091"/>
    </g>
   </g>
   <g id="line2d_35">
    <path d="M 16.518027 225.3687 
L 32.793382 225.3687 
L 49.068736 225.3687 
L 65.344091 225.3687 
L 81.619445 225.3687 
L 97.8948 225.3687 
L 114.170155 225.3687 
L 130.445509 225.3687 
L 146.720864 225.3687 
L 162.996218 225.3687 
L 179.271573 225.3687 
L 195.546927 225.3687 
L 211.822282 225.3687 
L 228.097636 225.3687 
L 244.372991 225.3687 
L 260.648345 225.3687 
L 276.9237 225.3687 
L 293.199055 225.3687 
L 309.474409 225.3687 
L 325.749764 225.3687 
L 342.025118 225.3687 
L 358.300473 225.3687 
" clip-path="url(#pa652ab3256)" style="fill: none; stroke: #924bce; stroke-opacity: 0.809091; stroke-width: 1.5; stroke-linecap: square"/>
   </g>
   <g id="line2d_36">
    <path d="M 16.518027 225.3687 
L 32.793382 217.410559 
L 49.068736 217.410559 
L 65.344091 201.494277 
L 81.619445 201.494277 
L 97.8948 193.536136 
L 114.170155 225.3687 
L 130.445509 217.410559 
L 146.720864 217.410559 
L 162.996218 225.3687 
L 179.271573 225.3687 
L 195.546927 217.410559 
L 211.822282 225.3687 
L 228.097636 217.410559 
L 244.372991 225.3687 
L 260.648345 217.410559 
L 276.9237 225.3687 
L 293.199055 225.3687 
L 309.474409 225.3687 
L 325.749764 209.452418 
L 342.025118 217.410559 
L 358.300473 225.3687 
" clip-path="url(#pa652ab3256)" style="fill: none; stroke: #000000; stroke-opacity: 0.809091; stroke-width: 1.5; stroke-linecap: square"/>
   </g>
  </g>
  <g id="axes_17">
   <g id="FillBetweenPolyCollection_16">
    <defs>
     <path id="md72d90be46" d="M 27.050842 -100.627095 
L 27.050842 -100.627095 
L 40.696985 -100.627095 
L 54.343129 -100.627095 
L 67.989273 -100.627095 
L 81.635416 -100.627095 
L 95.28156 -100.627095 
L 108.927704 -100.627095 
L 122.573847 -100.627095 
L 136.219991 -100.627095 
L 149.866135 -100.627095 
L 163.512278 -100.627095 
L 177.158422 -100.627095 
L 190.804565 -100.627095 
L 204.450709 -100.627095 
L 218.096853 -100.627095 
L 231.742996 -100.627095 
L 245.38914 -100.627095 
L 259.035284 -100.627095 
L 272.681427 -100.627095 
L 286.327571 -100.627095 
L 299.973715 -100.627095 
L 313.619858 -100.627095 
L 313.619858 -100.627095 
L 313.619858 -100.627095 
L 299.973715 -108.585236 
L 286.327571 -108.585236 
L 272.681427 -100.627095 
L 259.035284 -100.627095 
L 245.38914 -100.627095 
L 231.742996 -108.585236 
L 218.096853 -100.627095 
L 204.450709 -108.585236 
L 190.804565 -108.585236 
L 177.158422 -108.585236 
L 163.512278 -100.627095 
L 149.866135 -100.627095 
L 136.219991 -100.627095 
L 122.573847 -116.543377 
L 108.927704 -100.627095 
L 95.28156 -116.543377 
L 81.635416 -116.543377 
L 67.989273 -132.459659 
L 54.343129 -116.543377 
L 40.696985 -116.543377 
L 27.050842 -100.627095 
z
" style="stroke: #924bce; stroke-opacity: 0.836364"/>
    </defs>
    <g clip-path="url(#pb0305c583a)">
     <use xlink:href="#md72d90be46" x="0" y="337.40125" style="fill: #924bce; fill-opacity: 0.836364; stroke: #924bce; stroke-opacity: 0.836364"/>
    </g>
   </g>
   <g id="line2d_37">
    <path d="M 27.050842 236.774155 
L 40.696985 236.774155 
L 54.343129 236.774155 
L 67.989273 236.774155 
L 81.635416 236.774155 
L 95.28156 236.774155 
L 108.927704 236.774155 
L 122.573847 236.774155 
L 136.219991 236.774155 
L 149.866135 236.774155 
L 163.512278 236.774155 
L 177.158422 236.774155 
L 190.804565 236.774155 
L 204.450709 236.774155 
L 218.096853 236.774155 
L 231.742996 236.774155 
L 245.38914 236.774155 
L 259.035284 236.774155 
L 272.681427 236.774155 
L 286.327571 236.774155 
L 299.973715 236.774155 
L 313.619858 236.774155 
" clip-path="url(#pb0305c583a)" style="fill: none; stroke: #924bce; stroke-opacity: 0.836364; stroke-width: 1.5; stroke-linecap: square"/>
   </g>
   <g id="line2d_38">
    <path d="M 27.050842 236.774155 
L 40.696985 220.857873 
L 54.343129 220.857873 
L 67.989273 204.941591 
L 81.635416 220.857873 
L 95.28156 220.857873 
L 108.927704 236.774155 
L 122.573847 220.857873 
L 136.219991 236.774155 
L 149.866135 236.774155 
L 163.512278 236.774155 
L 177.158422 228.816014 
L 190.804565 228.816014 
L 204.450709 228.816014 
L 218.096853 236.774155 
L 231.742996 228.816014 
L 245.38914 236.774155 
L 259.035284 236.774155 
L 272.681427 236.774155 
L 286.327571 228.816014 
L 299.973715 228.816014 
L 313.619858 236.774155 
" clip-path="url(#pb0305c583a)" style="fill: none; stroke: #000000; stroke-opacity: 0.836364; stroke-width: 1.5; stroke-linecap: square"/>
   </g>
  </g>
  <g id="axes_18">
   <g id="FillBetweenPolyCollection_17">
    <defs>
     <path id="mf9ebb122b5" d="M 25.395357 -89.221641 
L 25.395357 -89.221641 
L 38.986102 -89.221641 
L 52.576846 -89.221641 
L 66.167591 -89.221641 
L 79.758335 -89.221641 
L 93.34908 -89.221641 
L 106.939825 -89.221641 
L 120.530569 -89.221641 
L 134.121314 -89.221641 
L 147.712058 -89.221641 
L 161.302803 -89.221641 
L 174.893547 -89.221641 
L 188.484292 -89.221641 
L 202.075036 -89.221641 
L 215.665781 -89.221641 
L 229.256525 -89.221641 
L 242.84727 -89.221641 
L 256.438015 -89.221641 
L 270.028759 -89.221641 
L 283.619504 -89.221641 
L 297.210248 -89.221641 
L 310.800993 -89.221641 
L 310.800993 -89.221641 
L 310.800993 -89.221641 
L 297.210248 -97.179782 
L 283.619504 -89.221641 
L 270.028759 -97.179782 
L 256.438015 -97.179782 
L 242.84727 -89.221641 
L 229.256525 -89.221641 
L 215.665781 -97.179782 
L 202.075036 -97.179782 
L 188.484292 -89.221641 
L 174.893547 -97.179782 
L 161.302803 -89.221641 
L 147.712058 -105.137923 
L 134.121314 -97.179782 
L 120.530569 -97.179782 
L 106.939825 -89.221641 
L 93.34908 -105.137923 
L 79.758335 -113.096064 
L 66.167591 -105.137923 
L 52.576846 -105.137923 
L 38.986102 -97.179782 
L 25.395357 -89.221641 
z
" style="stroke: #924bce; stroke-opacity: 0.863636"/>
    </defs>
    <g clip-path="url(#p0e86494956)">
     <use xlink:href="#mf9ebb122b5" x="0" y="337.40125" style="fill: #924bce; fill-opacity: 0.863636; stroke: #924bce; stroke-opacity: 0.863636"/>
    </g>
   </g>
   <g id="line2d_39">
    <path d="M 25.395357 248.179609 
L 38.986102 248.179609 
L 52.576846 248.179609 
L 66.167591 248.179609 
L 79.758335 248.179609 
L 93.34908 248.179609 
L 106.939825 248.179609 
L 120.530569 248.179609 
L 134.121314 248.179609 
L 147.712058 248.179609 
L 161.302803 248.179609 
L 174.893547 248.179609 
L 188.484292 248.179609 
L 202.075036 248.179609 
L 215.665781 248.179609 
L 229.256525 248.179609 
L 242.84727 248.179609 
L 256.438015 248.179609 
L 270.028759 248.179609 
L 283.619504 248.179609 
L 297.210248 248.179609 
L 310.800993 248.179609 
" clip-path="url(#p0e86494956)" style="fill: none; stroke: #924bce; stroke-opacity: 0.863636; stroke-width: 1.5; stroke-linecap: square"/>
   </g>
   <g id="line2d_40">
    <path d="M 25.395357 248.179609 
L 38.986102 240.221468 
L 52.576846 232.263327 
L 66.167591 232.263327 
L 79.758335 224.305186 
L 93.34908 232.263327 
L 106.939825 248.179609 
L 120.530569 240.221468 
L 134.121314 240.221468 
L 147.712058 232.263327 
L 161.302803 248.179609 
L 174.893547 240.221468 
L 188.484292 248.179609 
L 202.075036 240.221468 
L 215.665781 240.221468 
L 229.256525 248.179609 
L 242.84727 248.179609 
L 256.438015 240.221468 
L 270.028759 240.221468 
L 283.619504 248.179609 
L 297.210248 240.221468 
L 310.800993 248.179609 
" clip-path="url(#p0e86494956)" style="fill: none; stroke: #000000; stroke-opacity: 0.863636; stroke-width: 1.5; stroke-linecap: square"/>
   </g>
  </g>
  <g id="axes_19">
   <g id="FillBetweenPolyCollection_18">
    <defs>
     <path id="mebaf9f5095" d="M 27.828176 -77.816186 
L 27.828176 -77.816186 
L 40.736913 -77.816186 
L 53.64565 -77.816186 
L 66.554386 -77.816186 
L 79.463123 -77.816186 
L 92.37186 -77.816186 
L 105.280597 -77.816186 
L 118.189334 -77.816186 
L 131.09807 -77.816186 
L 144.006807 -77.816186 
L 156.915544 -77.816186 
L 169.824281 -77.816186 
L 182.733018 -77.816186 
L 195.641755 -77.816186 
L 208.550491 -77.816186 
L 221.459228 -77.816186 
L 234.367965 -77.816186 
L 247.276702 -77.816186 
L 260.185439 -77.816186 
L 273.094175 -77.816186 
L 286.002912 -77.816186 
L 298.911649 -77.816186 
L 298.911649 -77.816186 
L 298.911649 -77.816186 
L 286.002912 -85.774327 
L 273.094175 -77.816186 
L 260.185439 -93.732468 
L 247.276702 -77.816186 
L 234.367965 -77.816186 
L 221.459228 -85.774327 
L 208.550491 -77.816186 
L 195.641755 -85.774327 
L 182.733018 -77.816186 
L 169.824281 -85.774327 
L 156.915544 -85.774327 
L 144.006807 -93.732468 
L 131.09807 -77.816186 
L 118.189334 -77.816186 
L 105.280597 -93.732468 
L 92.37186 -101.690609 
L 79.463123 -101.690609 
L 66.554386 -77.816186 
L 53.64565 -93.732468 
L 40.736913 -85.774327 
L 27.828176 -77.816186 
z
" style="stroke: #924bce; stroke-opacity: 0.890909"/>
    </defs>
    <g clip-path="url(#p29e0fd9a9d)">
     <use xlink:href="#mebaf9f5095" x="0" y="337.40125" style="fill: #924bce; fill-opacity: 0.890909; stroke: #924bce; stroke-opacity: 0.890909"/>
    </g>
   </g>
   <g id="line2d_41">
    <path d="M 27.828176 259.585064 
L 40.736913 259.585064 
L 53.64565 259.585064 
L 66.554386 259.585064 
L 79.463123 259.585064 
L 92.37186 259.585064 
L 105.280597 259.585064 
L 118.189334 259.585064 
L 131.09807 259.585064 
L 144.006807 259.585064 
L 156.915544 259.585064 
L 169.824281 259.585064 
L 182.733018 259.585064 
L 195.641755 259.585064 
L 208.550491 259.585064 
L 221.459228 259.585064 
L 234.367965 259.585064 
L 247.276702 259.585064 
L 260.185439 259.585064 
L 273.094175 259.585064 
L 286.002912 259.585064 
L 298.911649 259.585064 
" clip-path="url(#p29e0fd9a9d)" style="fill: none; stroke: #924bce; stroke-opacity: 0.890909; stroke-width: 1.5; stroke-linecap: square"/>
   </g>
   <g id="line2d_42">
    <path d="M 27.828176 259.585064 
L 40.736913 251.626923 
L 53.64565 243.668782 
L 66.554386 259.585064 
L 79.463123 235.710641 
L 92.37186 235.710641 
L 105.280597 243.668782 
L 118.189334 259.585064 
L 131.09807 259.585064 
L 144.006807 243.668782 
L 156.915544 251.626923 
L 169.824281 251.626923 
L 182.733018 259.585064 
L 195.641755 251.626923 
L 208.550491 259.585064 
L 221.459228 251.626923 
L 234.367965 259.585064 
L 247.276702 259.585064 
L 260.185439 243.668782 
L 273.094175 259.585064 
L 286.002912 251.626923 
L 298.911649 259.585064 
" clip-path="url(#p29e0fd9a9d)" style="fill: none; stroke: #000000; stroke-opacity: 0.890909; stroke-width: 1.5; stroke-linecap: square"/>
   </g>
  </g>
  <g id="axes_20">
   <g id="FillBetweenPolyCollection_19">
    <defs>
     <path id="m9fa23af593" d="M 68.811775 -66.410732 
L 68.811775 -66.410732 
L 81.730244 -66.410732 
L 94.648713 -66.410732 
L 107.567182 -66.410732 
L 120.485651 -66.410732 
L 133.40412 -66.410732 
L 146.322589 -66.410732 
L 159.241058 -66.410732 
L 172.159527 -66.410732 
L 185.077996 -66.410732 
L 197.996465 -66.410732 
L 210.914935 -66.410732 
L 223.833404 -66.410732 
L 236.751873 -66.410732 
L 249.670342 -66.410732 
L 262.588811 -66.410732 
L 275.50728 -66.410732 
L 288.425749 -66.410732 
L 301.344218 -66.410732 
L 314.262687 -66.410732 
L 327.181156 -66.410732 
L 340.099625 -66.410732 
L 340.099625 -66.410732 
L 340.099625 -66.410732 
L 327.181156 -74.368873 
L 314.262687 -66.410732 
L 301.344218 -66.410732 
L 288.425749 -66.410732 
L 275.50728 -82.327014 
L 262.588811 -66.410732 
L 249.670342 -66.410732 
L 236.751873 -74.368873 
L 223.833404 -74.368873 
L 210.914935 -66.410732 
L 197.996465 -66.410732 
L 185.077996 -74.368873 
L 172.159527 -66.410732 
L 159.241058 -74.368873 
L 146.322589 -98.243296 
L 133.40412 -74.368873 
L 120.485651 -82.327014 
L 107.567182 -90.285155 
L 94.648713 -82.327014 
L 81.730244 -74.368873 
L 68.811775 -66.410732 
z
" style="stroke: #924bce; stroke-opacity: 0.918182"/>
    </defs>
    <g clip-path="url(#p02faac365c)">
     <use xlink:href="#m9fa23af593" x="0" y="337.40125" style="fill: #924bce; fill-opacity: 0.918182; stroke: #924bce; stroke-opacity: 0.918182"/>
    </g>
   </g>
   <g id="line2d_43">
    <path d="M 68.811775 270.990518 
L 81.730244 270.990518 
L 94.648713 270.990518 
L 107.567182 270.990518 
L 120.485651 270.990518 
L 133.40412 270.990518 
L 146.322589 270.990518 
L 159.241058 270.990518 
L 172.159527 270.990518 
L 185.077996 270.990518 
L 197.996465 270.990518 
L 210.914935 270.990518 
L 223.833404 270.990518 
L 236.751873 270.990518 
L 249.670342 270.990518 
L 262.588811 270.990518 
L 275.50728 270.990518 
L 288.425749 270.990518 
L 301.344218 270.990518 
L 314.262687 270.990518 
L 327.181156 270.990518 
L 340.099625 270.990518 
" clip-path="url(#p02faac365c)" style="fill: none; stroke: #924bce; stroke-opacity: 0.918182; stroke-width: 1.5; stroke-linecap: square"/>
   </g>
   <g id="line2d_44">
    <path d="M 68.811775 270.990518 
L 81.730244 263.032377 
L 94.648713 255.074236 
L 107.567182 247.116095 
L 120.485651 255.074236 
L 133.40412 263.032377 
L 146.322589 239.157954 
L 159.241058 263.032377 
L 172.159527 270.990518 
L 185.077996 263.032377 
L 197.996465 270.990518 
L 210.914935 270.990518 
L 223.833404 263.032377 
L 236.751873 263.032377 
L 249.670342 270.990518 
L 262.588811 270.990518 
L 275.50728 255.074236 
L 288.425749 270.990518 
L 301.344218 270.990518 
L 314.262687 270.990518 
L 327.181156 263.032377 
L 340.099625 270.990518 
" clip-path="url(#p02faac365c)" style="fill: none; stroke: #000000; stroke-opacity: 0.918182; stroke-width: 1.5; stroke-linecap: square"/>
   </g>
  </g>
  <g id="axes_21">
   <g id="FillBetweenPolyCollection_20">
    <defs>
     <path id="m80fa2fd4a7" d="M 19.543017 -55.005277 
L 19.543017 -55.005277 
L 39.293542 -55.005277 
L 59.044066 -55.005277 
L 78.794591 -55.005277 
L 98.545115 -55.005277 
L 118.29564 -55.005277 
L 138.046165 -55.005277 
L 157.796689 -55.005277 
L 177.547214 -55.005277 
L 197.297738 -55.005277 
L 217.048263 -55.005277 
L 236.798787 -55.005277 
L 256.549312 -55.005277 
L 276.299836 -55.005277 
L 296.050361 -55.005277 
L 315.800885 -55.005277 
L 335.55141 -55.005277 
L 355.301935 -55.005277 
L 375.052459 -55.005277 
L 394.802984 -55.005277 
L 414.553508 -55.005277 
L 434.304033 -55.005277 
L 434.304033 -55.005277 
L 434.304033 -55.005277 
L 414.553508 -62.963418 
L 394.802984 -55.005277 
L 375.052459 -55.005277 
L 355.301935 -55.005277 
L 335.55141 -62.963418 
L 315.800885 -55.005277 
L 296.050361 -55.005277 
L 276.299836 -70.921559 
L 256.549312 -55.005277 
L 236.798787 -70.921559 
L 217.048263 -55.005277 
L 197.297738 -62.963418 
L 177.547214 -62.963418 
L 157.796689 -62.963418 
L 138.046165 -86.837841 
L 118.29564 -86.837841 
L 98.545115 -55.005277 
L 78.794591 -62.963418 
L 59.044066 -55.005277 
L 39.293542 -70.921559 
L 19.543017 -55.005277 
z
" style="stroke: #924bce; stroke-opacity: 0.945455"/>
    </defs>
    <g clip-path="url(#p5652c8e780)">
     <use xlink:href="#m80fa2fd4a7" x="0" y="337.40125" style="fill: #924bce; fill-opacity: 0.945455; stroke: #924bce; stroke-opacity: 0.945455"/>
    </g>
   </g>
   <g id="line2d_45">
    <path d="M 19.543017 282.395973 
L 39.293542 282.395973 
L 59.044066 282.395973 
L 78.794591 282.395973 
L 98.545115 282.395973 
L 118.29564 282.395973 
L 138.046165 282.395973 
L 157.796689 282.395973 
L 177.547214 282.395973 
L 197.297738 282.395973 
L 217.048263 282.395973 
L 236.798787 282.395973 
L 256.549312 282.395973 
L 276.299836 282.395973 
L 296.050361 282.395973 
L 315.800885 282.395973 
L 335.55141 282.395973 
L 355.301935 282.395973 
L 375.052459 282.395973 
L 394.802984 282.395973 
L 414.553508 282.395973 
L 434.304033 282.395973 
" clip-path="url(#p5652c8e780)" style="fill: none; stroke: #924bce; stroke-opacity: 0.945455; stroke-width: 1.5; stroke-linecap: square"/>
   </g>
   <g id="line2d_46">
    <path d="M 19.543017 282.395973 
L 39.293542 266.479691 
L 59.044066 282.395973 
L 78.794591 274.437832 
L 98.545115 282.395973 
L 118.29564 250.563409 
L 138.046165 250.563409 
L 157.796689 274.437832 
L 177.547214 274.437832 
L 197.297738 274.437832 
L 217.048263 282.395973 
L 236.798787 266.479691 
L 256.549312 282.395973 
L 276.299836 266.479691 
L 296.050361 282.395973 
L 315.800885 282.395973 
L 335.55141 274.437832 
L 355.301935 282.395973 
L 375.052459 282.395973 
L 394.802984 282.395973 
L 414.553508 274.437832 
L 434.304033 282.395973 
" clip-path="url(#p5652c8e780)" style="fill: none; stroke: #000000; stroke-opacity: 0.945455; stroke-width: 1.5; stroke-linecap: square"/>
   </g>
  </g>
  <g id="axes_22">
   <g id="FillBetweenPolyCollection_21">
    <defs>
     <path id="m1c3112a424" d="M 54.651817 -43.599823 
L 54.651817 -43.599823 
L 71.221385 -43.599823 
L 87.790954 -43.599823 
L 104.360523 -43.599823 
L 120.930091 -43.599823 
L 137.49966 -43.599823 
L 154.069229 -43.599823 
L 170.638797 -43.599823 
L 187.208366 -43.599823 
L 203.777935 -43.599823 
L 220.347503 -43.599823 
L 236.917072 -43.599823 
L 253.48664 -43.599823 
L 270.056209 -43.599823 
L 286.625778 -43.599823 
L 303.195346 -43.599823 
L 319.764915 -43.599823 
L 336.334484 -43.599823 
L 352.904052 -43.599823 
L 369.473621 -43.599823 
L 386.04319 -43.599823 
L 402.612758 -43.599823 
L 402.612758 -43.599823 
L 402.612758 -43.599823 
L 386.04319 -51.557964 
L 369.473621 -43.599823 
L 352.904052 -43.599823 
L 336.334484 -51.557964 
L 319.764915 -51.557964 
L 303.195346 -43.599823 
L 286.625778 -43.599823 
L 270.056209 -51.557964 
L 253.48664 -43.599823 
L 236.917072 -51.557964 
L 220.347503 -51.557964 
L 203.777935 -43.599823 
L 187.208366 -67.474246 
L 170.638797 -43.599823 
L 154.069229 -59.516105 
L 137.49966 -51.557964 
L 120.930091 -67.474246 
L 104.360523 -59.516105 
L 87.790954 -59.516105 
L 71.221385 -51.557964 
L 54.651817 -43.599823 
z
" style="stroke: #924bce; stroke-opacity: 0.972727"/>
    </defs>
    <g clip-path="url(#p648dd87e64)">
     <use xlink:href="#m1c3112a424" x="0" y="337.40125" style="fill: #924bce; fill-opacity: 0.972727; stroke: #924bce; stroke-opacity: 0.972727"/>
    </g>
   </g>
   <g id="line2d_47">
    <path d="M 54.651817 293.801427 
L 71.221385 293.801427 
L 87.790954 293.801427 
L 104.360523 293.801427 
L 120.930091 293.801427 
L 137.49966 293.801427 
L 154.069229 293.801427 
L 170.638797 293.801427 
L 187.208366 293.801427 
L 203.777935 293.801427 
L 220.347503 293.801427 
L 236.917072 293.801427 
L 253.48664 293.801427 
L 270.056209 293.801427 
L 286.625778 293.801427 
L 303.195346 293.801427 
L 319.764915 293.801427 
L 336.334484 293.801427 
L 352.904052 293.801427 
L 369.473621 293.801427 
L 386.04319 293.801427 
L 402.612758 293.801427 
" clip-path="url(#p648dd87e64)" style="fill: none; stroke: #924bce; stroke-opacity: 0.972727; stroke-width: 1.5; stroke-linecap: square"/>
   </g>
   <g id="line2d_48">
    <path d="M 54.651817 293.801427 
L 71.221385 285.843286 
L 87.790954 277.885145 
L 104.360523 277.885145 
L 120.930091 269.927004 
L 137.49966 285.843286 
L 154.069229 277.885145 
L 170.638797 293.801427 
L 187.208366 269.927004 
L 203.777935 293.801427 
L 220.347503 285.843286 
L 236.917072 285.843286 
L 253.48664 293.801427 
L 270.056209 285.843286 
L 286.625778 293.801427 
L 303.195346 293.801427 
L 319.764915 285.843286 
L 336.334484 285.843286 
L 352.904052 293.801427 
L 369.473621 293.801427 
L 386.04319 285.843286 
L 402.612758 293.801427 
" clip-path="url(#p648dd87e64)" style="fill: none; stroke: #000000; stroke-opacity: 0.972727; stroke-width: 1.5; stroke-linecap: square"/>
   </g>
  </g>
  <g id="axes_23">
   <g id="FillBetweenPolyCollection_22">
    <defs>
     <path id="mf6a3ae79d1" d="M 53.824324 -32.194368 
L 53.824324 -32.194368 
L 69.738087 -32.194368 
L 85.65185 -32.194368 
L 101.565614 -32.194368 
L 117.479377 -32.194368 
L 133.39314 -32.194368 
L 149.306903 -32.194368 
L 165.220666 -32.194368 
L 181.13443 -32.194368 
L 197.048193 -32.194368 
L 212.961956 -32.194368 
L 228.875719 -32.194368 
L 244.789482 -32.194368 
L 260.703245 -32.194368 
L 276.617009 -32.194368 
L 292.530772 -32.194368 
L 308.444535 -32.194368 
L 324.358298 -32.194368 
L 340.272061 -32.194368 
L 356.185825 -32.194368 
L 372.099588 -32.194368 
L 388.013351 -32.194368 
L 388.013351 -32.194368 
L 388.013351 -32.194368 
L 372.099588 -40.152509 
L 356.185825 -32.194368 
L 340.272061 -40.152509 
L 324.358298 -48.11065 
L 308.444535 -32.194368 
L 292.530772 -32.194368 
L 276.617009 -32.194368 
L 260.703245 -40.152509 
L 244.789482 -32.194368 
L 228.875719 -32.194368 
L 212.961956 -48.11065 
L 197.048193 -32.194368 
L 181.13443 -40.152509 
L 165.220666 -32.194368 
L 149.306903 -48.11065 
L 133.39314 -56.068791 
L 117.479377 -64.026932 
L 101.565614 -48.11065 
L 85.65185 -32.194368 
L 69.738087 -40.152509 
L 53.824324 -32.194368 
z
" style="stroke: #924bce"/>
    </defs>
    <g clip-path="url(#p230a3b7650)">
     <use xlink:href="#mf6a3ae79d1" x="0" y="337.40125" style="fill: #924bce; stroke: #924bce"/>
    </g>
   </g>
   <g id="line2d_49">
    <path d="M 53.824324 305.206882 
L 69.738087 305.206882 
L 85.65185 305.206882 
L 101.565614 305.206882 
L 117.479377 305.206882 
L 133.39314 305.206882 
L 149.306903 305.206882 
L 165.220666 305.206882 
L 181.13443 305.206882 
L 197.048193 305.206882 
L 212.961956 305.206882 
L 228.875719 305.206882 
L 244.789482 305.206882 
L 260.703245 305.206882 
L 276.617009 305.206882 
L 292.530772 305.206882 
L 308.444535 305.206882 
L 324.358298 305.206882 
L 340.272061 305.206882 
L 356.185825 305.206882 
L 372.099588 305.206882 
L 388.013351 305.206882 
" clip-path="url(#p230a3b7650)" style="fill: none; stroke: #924bce; stroke-width: 1.5; stroke-linecap: square"/>
   </g>
   <g id="line2d_50">
    <path d="M 53.824324 305.206882 
L 69.738087 297.248741 
L 85.65185 305.206882 
L 101.565614 289.2906 
L 117.479377 273.374318 
L 133.39314 281.332459 
L 149.306903 289.2906 
L 165.220666 305.206882 
L 181.13443 297.248741 
L 197.048193 305.206882 
L 212.961956 289.2906 
L 228.875719 305.206882 
L 244.789482 305.206882 
L 260.703245 297.248741 
L 276.617009 305.206882 
L 292.530772 305.206882 
L 308.444535 305.206882 
L 324.358298 289.2906 
L 340.272061 297.248741 
L 356.185825 305.206882 
L 372.099588 297.248741 
L 388.013351 305.206882 
" clip-path="url(#p230a3b7650)" style="fill: none; stroke: #000000; stroke-width: 1.5; stroke-linecap: square"/>
   </g>
  </g>
  <g id="text_7">
   <!-- Premier League -->
   <g style="fill: #924bce" transform="translate(226.8 100.08) scale(0.18 -0.18)">
    <defs>
     <path id="Lato-Regular-50" d="M 1238 1715 
L 1238 0 
L 621 0 
L 621 4586 
L 1974 4586 
Q 2410 4586 2731 4485 
Q 3053 4384 3264 4198 
Q 3475 4013 3579 3750 
Q 3683 3488 3683 3165 
Q 3683 2845 3571 2579 
Q 3459 2314 3243 2122 
Q 3027 1930 2707 1822 
Q 2387 1715 1974 1715 
L 1238 1715 
z
M 1238 2208 
L 1974 2208 
Q 2240 2208 2443 2278 
Q 2646 2349 2784 2475 
Q 2922 2602 2992 2778 
Q 3062 2954 3062 3165 
Q 3062 3603 2792 3849 
Q 2522 4096 1974 4096 
L 1238 4096 
L 1238 2208 
z
" transform="scale(0.015625)"/>
     <path id="Lato-Regular-72" d="M 467 0 
L 467 3242 
L 794 3242 
Q 886 3242 921 3206 
Q 957 3171 970 3085 
L 1008 2579 
Q 1174 2918 1419 3108 
Q 1664 3299 1994 3299 
Q 2128 3299 2237 3268 
Q 2346 3238 2438 3184 
L 2365 2758 
Q 2342 2678 2266 2678 
Q 2221 2678 2128 2708 
Q 2035 2739 1869 2739 
Q 1571 2739 1371 2566 
Q 1171 2394 1037 2064 
L 1037 0 
L 467 0 
z
" transform="scale(0.015625)"/>
     <path id="Lato-Regular-65" d="M 1750 3293 
Q 2042 3293 2288 3195 
Q 2534 3098 2713 2914 
Q 2893 2730 2993 2459 
Q 3094 2189 3094 1843 
Q 3094 1709 3065 1664 
Q 3037 1619 2957 1619 
L 800 1619 
Q 806 1312 883 1085 
Q 960 858 1094 706 
Q 1229 554 1414 478 
Q 1600 403 1830 403 
Q 2045 403 2200 452 
Q 2355 502 2467 560 
Q 2579 618 2654 667 
Q 2730 717 2784 717 
Q 2854 717 2893 662 
L 3053 454 
Q 2947 326 2800 232 
Q 2653 138 2485 77 
Q 2317 16 2137 -14 
Q 1958 -45 1782 -45 
Q 1446 -45 1163 68 
Q 880 182 673 401 
Q 467 621 352 944 
Q 237 1267 237 1686 
Q 237 2026 341 2320 
Q 445 2614 640 2830 
Q 835 3046 1116 3169 
Q 1398 3293 1750 3293 
z
M 1763 2874 
Q 1350 2874 1113 2635 
Q 877 2397 819 1974 
L 2582 1974 
Q 2582 2173 2528 2337 
Q 2474 2502 2368 2622 
Q 2262 2742 2110 2808 
Q 1958 2874 1763 2874 
z
" transform="scale(0.015625)"/>
     <path id="Lato-Regular-6d" d="M 467 0 
L 467 3242 
L 806 3242 
Q 928 3242 960 3123 
L 1002 2790 
Q 1181 3011 1403 3152 
Q 1626 3293 1920 3293 
Q 2250 3293 2453 3110 
Q 2656 2928 2746 2618 
Q 2813 2794 2923 2922 
Q 3034 3050 3171 3133 
Q 3309 3216 3464 3254 
Q 3619 3293 3779 3293 
Q 4035 3293 4235 3211 
Q 4435 3130 4574 2973 
Q 4714 2816 4787 2587 
Q 4861 2358 4861 2064 
L 4861 0 
L 4291 0 
L 4291 2064 
Q 4291 2445 4124 2641 
Q 3958 2838 3642 2838 
Q 3501 2838 3374 2788 
Q 3248 2739 3152 2643 
Q 3056 2547 3000 2401 
Q 2944 2256 2944 2064 
L 2944 0 
L 2374 0 
L 2374 2064 
Q 2374 2454 2217 2646 
Q 2061 2838 1760 2838 
Q 1549 2838 1368 2724 
Q 1187 2611 1037 2416 
L 1037 0 
L 467 0 
z
" transform="scale(0.015625)"/>
     <path id="Lato-Regular-69" d="M 1101 3242 
L 1101 0 
L 531 0 
L 531 3242 
L 1101 3242 
z
M 1229 4259 
Q 1229 4176 1195 4104 
Q 1162 4032 1106 3976 
Q 1050 3920 976 3888 
Q 902 3856 819 3856 
Q 736 3856 664 3888 
Q 592 3920 536 3976 
Q 480 4032 448 4104 
Q 416 4176 416 4259 
Q 416 4342 448 4417 
Q 480 4493 536 4549 
Q 592 4605 664 4637 
Q 736 4669 819 4669 
Q 902 4669 976 4637 
Q 1050 4605 1106 4549 
Q 1162 4493 1195 4417 
Q 1229 4342 1229 4259 
z
" transform="scale(0.015625)"/>
     <path id="Lato-Regular-20" transform="scale(0.015625)"/>
     <path id="Lato-Regular-4c" d="M 1178 522 
L 3162 522 
L 3162 0 
L 557 0 
L 557 4586 
L 1178 4586 
L 1178 522 
z
" transform="scale(0.015625)"/>
     <path id="Lato-Regular-61" d="M 2848 0 
L 2595 0 
Q 2512 0 2461 25 
Q 2410 51 2394 134 
L 2330 435 
Q 2202 320 2080 229 
Q 1958 138 1824 75 
Q 1690 13 1538 -19 
Q 1386 -51 1200 -51 
Q 1011 -51 846 1 
Q 682 54 560 160 
Q 438 266 366 427 
Q 294 589 294 810 
Q 294 1002 400 1179 
Q 506 1357 741 1494 
Q 976 1632 1357 1720 
Q 1738 1808 2288 1821 
L 2288 2074 
Q 2288 2451 2126 2644 
Q 1965 2838 1648 2838 
Q 1440 2838 1297 2785 
Q 1155 2733 1051 2667 
Q 947 2602 872 2549 
Q 797 2496 723 2496 
Q 666 2496 622 2526 
Q 579 2557 554 2602 
L 451 2784 
Q 720 3043 1030 3171 
Q 1341 3299 1718 3299 
Q 1990 3299 2201 3209 
Q 2413 3120 2557 2960 
Q 2701 2800 2774 2573 
Q 2848 2346 2848 2074 
L 2848 0 
z
M 1370 349 
Q 1520 349 1645 379 
Q 1770 410 1880 466 
Q 1990 522 2091 602 
Q 2192 682 2288 784 
L 2288 1459 
Q 1894 1446 1619 1396 
Q 1344 1347 1171 1267 
Q 998 1187 920 1078 
Q 842 970 842 835 
Q 842 707 883 614 
Q 925 522 995 462 
Q 1066 403 1162 376 
Q 1258 349 1370 349 
z
" transform="scale(0.015625)"/>
     <path id="Lato-Regular-67" d="M 1558 3296 
Q 1770 3296 1954 3249 
Q 2138 3203 2288 3114 
L 3168 3114 
L 3168 2902 
Q 3168 2797 3034 2768 
L 2666 2717 
Q 2774 2509 2774 2253 
Q 2774 2016 2683 1822 
Q 2592 1629 2430 1491 
Q 2269 1354 2046 1280 
Q 1824 1206 1558 1206 
Q 1331 1206 1130 1261 
Q 1027 1197 974 1123 
Q 922 1050 922 979 
Q 922 864 1014 805 
Q 1107 746 1260 720 
Q 1414 694 1609 688 
Q 1805 682 2008 667 
Q 2211 653 2406 617 
Q 2602 582 2755 502 
Q 2909 422 3001 281 
Q 3094 141 3094 -83 
Q 3094 -291 2990 -486 
Q 2886 -682 2691 -834 
Q 2496 -986 2214 -1077 
Q 1933 -1168 1578 -1168 
Q 1222 -1168 955 -1097 
Q 688 -1027 512 -908 
Q 336 -790 248 -635 
Q 160 -480 160 -310 
Q 160 -70 312 98 
Q 464 266 730 365 
Q 592 429 510 536 
Q 429 643 429 822 
Q 429 893 454 968 
Q 480 1043 533 1116 
Q 586 1190 662 1257 
Q 739 1325 842 1376 
Q 602 1510 466 1732 
Q 330 1955 330 2253 
Q 330 2490 421 2683 
Q 512 2877 675 3013 
Q 838 3149 1064 3222 
Q 1290 3296 1558 3296 
z
M 2570 -176 
Q 2570 -54 2502 19 
Q 2435 93 2320 133 
Q 2205 173 2054 192 
Q 1904 211 1737 219 
Q 1571 227 1398 236 
Q 1226 246 1069 272 
Q 886 186 772 61 
Q 659 -64 659 -237 
Q 659 -346 715 -440 
Q 771 -534 886 -603 
Q 1002 -672 1176 -712 
Q 1350 -752 1587 -752 
Q 1818 -752 2000 -710 
Q 2182 -669 2308 -592 
Q 2435 -515 2502 -409 
Q 2570 -304 2570 -176 
z
M 1558 1584 
Q 1731 1584 1864 1632 
Q 1997 1680 2086 1766 
Q 2176 1853 2221 1973 
Q 2266 2093 2266 2237 
Q 2266 2534 2085 2710 
Q 1904 2886 1558 2886 
Q 1216 2886 1035 2710 
Q 854 2534 854 2237 
Q 854 2093 900 1973 
Q 947 1853 1036 1766 
Q 1126 1680 1257 1632 
Q 1389 1584 1558 1584 
z
" transform="scale(0.015625)"/>
     <path id="Lato-Regular-75" d="M 960 3242 
L 960 1174 
Q 960 806 1129 604 
Q 1299 403 1642 403 
Q 1891 403 2112 521 
Q 2333 640 2518 851 
L 2518 3242 
L 3088 3242 
L 3088 0 
L 2749 0 
Q 2627 0 2595 118 
L 2550 467 
Q 2339 234 2076 91 
Q 1814 -51 1475 -51 
Q 1210 -51 1006 37 
Q 803 125 665 285 
Q 528 445 459 672 
Q 390 899 390 1174 
L 390 3242 
L 960 3242 
z
" transform="scale(0.015625)"/>
    </defs>
    <use xlink:href="#Lato-Regular-50"/>
    <use xlink:href="#Lato-Regular-72" transform="translate(61.100006 0)"/>
    <use xlink:href="#Lato-Regular-65" transform="translate(101.400009 0)"/>
    <use xlink:href="#Lato-Regular-6d" transform="translate(153.800018 0)"/>
    <use xlink:href="#Lato-Regular-69" transform="translate(235.900024 0)"/>
    <use xlink:href="#Lato-Regular-65" transform="translate(261.500031 0)"/>
    <use xlink:href="#Lato-Regular-72" transform="translate(313.90004 0)"/>
    <use xlink:href="#Lato-Regular-20" transform="translate(354.200043 0)"/>
    <use xlink:href="#Lato-Regular-4c" transform="translate(373.500046 0)"/>
    <use xlink:href="#Lato-Regular-65" transform="translate(424.900055 0)"/>
    <use xlink:href="#Lato-Regular-61" transform="translate(477.300064 0)"/>
    <use xlink:href="#Lato-Regular-67" transform="translate(528.000076 0)"/>
    <use xlink:href="#Lato-Regular-75" transform="translate(579.100082 0)"/>
    <use xlink:href="#Lato-Regular-65" transform="translate(634.700089 0)"/>
   </g>
  </g>
 </g>
 <defs>
  <clipPath id="p8537344f1d">
   <rect x="7.2" y="7.2" width="439.2" height="67.405455"/>
  </clipPath>
  <clipPath id="paaf19bdf4b">
   <rect x="7.2" y="18.605455" width="439.2" height="67.405455"/>
  </clipPath>
  <clipPath id="p2972cb69fa">
   <rect x="7.2" y="30.010909" width="439.2" height="67.405455"/>
  </clipPath>
  <clipPath id="p69e24a5338">
   <rect x="7.2" y="41.416364" width="439.2" height="67.405455"/>
  </clipPath>
  <clipPath id="p4868466689">
   <rect x="7.2" y="52.821818" width="439.2" height="67.405455"/>
  </clipPath>
  <clipPath id="p11083a1274">
   <rect x="7.2" y="64.227273" width="439.2" height="67.405455"/>
  </clipPath>
  <clipPath id="pe21badb4d0">
   <rect x="7.2" y="75.632727" width="439.2" height="67.405455"/>
  </clipPath>
  <clipPath id="p4a83657f58">
   <rect x="7.2" y="87.038182" width="439.2" height="67.405455"/>
  </clipPath>
  <clipPath id="p8888cb6cb4">
   <rect x="7.2" y="98.443636" width="439.2" height="67.405455"/>
  </clipPath>
  <clipPath id="pe15a54ca5e">
   <rect x="7.2" y="109.849091" width="439.2" height="67.405455"/>
  </clipPath>
  <clipPath id="paa22f97dc2">
   <rect x="7.2" y="121.254545" width="439.2" height="67.405455"/>
  </clipPath>
  <clipPath id="pe23493f7f0">
   <rect x="7.2" y="132.66" width="439.2" height="67.405455"/>
  </clipPath>
  <clipPath id="p811bceeaab">
   <rect x="7.2" y="144.065455" width="439.2" height="67.405455"/>
  </clipPath>
  <clipPath id="pf61a06f43e">
   <rect x="7.2" y="155.470909" width="439.2" height="67.405455"/>
  </clipPath>
  <clipPath id="pa652ab3256">
   <rect x="7.2" y="166.876364" width="439.2" height="67.405455"/>
  </clipPath>
  <clipPath id="pb0305c583a">
   <rect x="7.2" y="178.281818" width="439.2" height="67.405455"/>
  </clipPath>
  <clipPath id="p0e86494956">
   <rect x="7.2" y="189.687273" width="439.2" height="67.405455"/>
  </clipPath>
  <clipPath id="p29e0fd9a9d">
   <rect x="7.2" y="201.092727" width="439.2" height="67.405455"/>
  </clipPath>
  <clipPath id="p02faac365c">
   <rect x="7.2" y="212.498182" width="439.2" height="67.405455"/>
  </clipPath>
  <clipPath id="p5652c8e780">
   <rect x="7.2" y="223.903636" width="439.2" height="67.405455"/>
  </clipPath>
  <clipPath id="p648dd87e64">
   <rect x="7.2" y="235.309091" width="439.2" height="67.405455"/>
  </clipPath>
  <clipPath id="p230a3b7650">
   <rect x="7.2" y="246.714545" width="439.2" height="67.405455"/>
  </clipPath>
 </defs>
</svg>
