<?xml version="1.0" encoding="utf-8" standalone="no"?>
<!DOCTYPE svg PUBLIC "-//W3C//DTD SVG 1.1//EN"
  "http://www.w3.org/Graphics/SVG/1.1/DTD/svg11.dtd">
<svg xmlns:xlink="http://www.w3.org/1999/xlink" width="453.6pt" height="337.40125pt" viewBox="0 0 453.6 337.40125" xmlns="http://www.w3.org/2000/svg" version="1.1">
 <metadata>
  <rdf:RDF xmlns:dc="http://purl.org/dc/elements/1.1/" xmlns:cc="http://creativecommons.org/ns#" xmlns:rdf="http://www.w3.org/1999/02/22-rdf-syntax-ns#">
   <cc:Work>
    <dc:type rdf:resource="http://purl.org/dc/dcmitype/StillImage"/>
    <dc:date>2025-11-27T18:45:03.004793</dc:date>
    <dc:format>image/svg+xml</dc:format>
    <dc:creator>
     <cc:Agent>
      <dc:title>Matplotlib v3.10.5, https://matplotlib.org/</dc:title>
     </cc:Agent>
    </dc:creator>
   </cc:Work>
  </rdf:RDF>
 </metadata>
 <defs>
  <style type="text/css">*{stroke-linejoin: round; stroke-linecap: butt}</style>
 </defs>
 <g id="figure_1">
  <g id="patch_1">
   <path d="M 0 337.40125 
L 453.6 337.40125 
L 453.6 0 
L 0 0 
z
" style="fill: #f5f5dc"/>
  </g>
  <g id="axes_1">
   <g id="patch_2">
    <path d="M 7.2 314.12 
L 446.4 314.12 
L 446.4 7.2 
L 7.2 7.2 
z
" style="fill: #f5f5dc"/>
   </g>
   <g id="matplotlib.axis_1">
    <g id="xtick_1">
     <g id="line2d_1">
      <defs>
       <path id="md4101802e0" d="M 0 0 
L 0 3.5 
" style="stroke: #000000; stroke-width: 0.8"/>
      </defs>
      <g>
       <use xlink:href="#md4101802e0" x="75.825" y="314.12" style="stroke: #000000; stroke-width: 0.8"/>
      </g>
     </g>
     <g id="text_1">
      <!-- €250M -->
      <g transform="translate(59.625 328.485625) scale(0.1 -0.1)">
       <defs>
        <path id="Lato-Regular-20ac" d="M 109 2877 
L 579 2877 
Q 643 3280 795 3605 
Q 947 3930 1172 4158 
Q 1398 4387 1692 4508 
Q 1987 4630 2333 4630 
Q 2762 4630 3066 4470 
Q 3370 4310 3594 4029 
L 3398 3811 
Q 3373 3782 3347 3761 
Q 3322 3741 3277 3741 
Q 3222 3741 3163 3801 
Q 3104 3862 3005 3936 
Q 2906 4010 2750 4070 
Q 2595 4131 2355 4131 
Q 1888 4131 1579 3811 
Q 1270 3491 1168 2877 
L 2918 2877 
L 2918 2701 
Q 2918 2643 2875 2596 
Q 2832 2550 2755 2550 
L 1130 2550 
Q 1126 2486 1124 2422 
Q 1123 2358 1123 2291 
Q 1123 2240 1123 2192 
Q 1123 2144 1126 2096 
L 2621 2096 
L 2621 1917 
Q 2621 1862 2576 1816 
Q 2531 1770 2454 1770 
L 1155 1770 
Q 1245 1110 1552 780 
Q 1859 451 2326 451 
Q 2499 451 2630 484 
Q 2762 518 2858 569 
Q 2954 621 3022 680 
Q 3091 739 3142 790 
Q 3194 842 3234 875 
Q 3274 909 3312 909 
Q 3338 909 3357 897 
Q 3376 886 3402 864 
L 3642 640 
Q 3418 314 3085 133 
Q 2752 -48 2294 -48 
Q 1923 -48 1625 78 
Q 1328 205 1110 440 
Q 893 675 753 1012 
Q 614 1350 563 1770 
L 109 1770 
L 109 2096 
L 538 2096 
Q 534 2144 534 2192 
Q 534 2240 534 2291 
Q 534 2355 536 2420 
Q 538 2486 541 2550 
L 109 2550 
L 109 2877 
z
" transform="scale(0.015625)"/>
        <path id="Lato-Regular-32" d="M 1923 4637 
Q 2214 4637 2467 4550 
Q 2720 4464 2904 4299 
Q 3088 4134 3193 3897 
Q 3299 3661 3299 3360 
Q 3299 3104 3222 2886 
Q 3146 2669 3014 2469 
Q 2883 2269 2712 2081 
Q 2541 1894 2349 1699 
L 1142 464 
Q 1270 499 1401 520 
Q 1533 541 1654 541 
L 3190 541 
Q 3283 541 3337 486 
Q 3392 432 3392 346 
L 3392 0 
L 333 0 
L 333 195 
Q 333 256 357 320 
Q 381 384 435 438 
L 1904 1914 
Q 2086 2099 2236 2270 
Q 2387 2442 2494 2614 
Q 2602 2787 2659 2964 
Q 2717 3142 2717 3344 
Q 2717 3546 2653 3698 
Q 2589 3850 2477 3949 
Q 2365 4048 2214 4097 
Q 2064 4147 1891 4147 
Q 1718 4147 1571 4096 
Q 1424 4045 1310 3953 
Q 1197 3862 1118 3737 
Q 1040 3613 1008 3462 
Q 982 3370 931 3328 
Q 880 3286 797 3286 
Q 781 3286 763 3288 
Q 746 3290 723 3293 
L 426 3344 
Q 470 3658 598 3899 
Q 726 4141 923 4304 
Q 1120 4467 1374 4552 
Q 1629 4637 1923 4637 
z
" transform="scale(0.015625)"/>
        <path id="Lato-Regular-35" d="M 3130 4336 
Q 3130 4214 3053 4136 
Q 2976 4058 2794 4058 
L 1354 4058 
L 1142 2854 
Q 1501 2931 1805 2931 
Q 2163 2931 2436 2825 
Q 2710 2720 2896 2534 
Q 3082 2349 3176 2096 
Q 3270 1843 3270 1546 
Q 3270 1181 3142 886 
Q 3014 592 2792 382 
Q 2570 173 2269 61 
Q 1968 -51 1619 -51 
Q 1418 -51 1232 -11 
Q 1046 29 886 96 
Q 726 163 588 249 
Q 451 336 346 432 
L 518 675 
Q 576 758 672 758 
Q 733 758 814 708 
Q 896 659 1011 598 
Q 1126 538 1281 488 
Q 1437 438 1651 438 
Q 1891 438 2083 515 
Q 2275 592 2411 734 
Q 2547 877 2620 1075 
Q 2694 1274 2694 1520 
Q 2694 1734 2632 1907 
Q 2570 2080 2443 2201 
Q 2317 2323 2128 2390 
Q 1939 2458 1686 2458 
Q 1514 2458 1328 2429 
Q 1142 2400 944 2336 
L 586 2442 
L 957 4586 
L 3130 4586 
L 3130 4336 
z
" transform="scale(0.015625)"/>
        <path id="Lato-Regular-30" d="M 3520 2291 
Q 3520 1690 3390 1250 
Q 3261 810 3037 522 
Q 2813 234 2507 93 
Q 2202 -48 1853 -48 
Q 1501 -48 1198 93 
Q 896 234 672 522 
Q 448 810 320 1250 
Q 192 1690 192 2291 
Q 192 2893 320 3334 
Q 448 3776 672 4065 
Q 896 4355 1198 4496 
Q 1501 4637 1853 4637 
Q 2202 4637 2507 4496 
Q 2813 4355 3037 4065 
Q 3261 3776 3390 3334 
Q 3520 2893 3520 2291 
z
M 2928 2291 
Q 2928 2816 2840 3173 
Q 2752 3530 2603 3747 
Q 2454 3965 2259 4059 
Q 2064 4154 1853 4154 
Q 1642 4154 1446 4059 
Q 1251 3965 1104 3747 
Q 957 3530 869 3173 
Q 781 2816 781 2291 
Q 781 1766 869 1411 
Q 957 1056 1104 838 
Q 1251 621 1446 526 
Q 1642 432 1853 432 
Q 2064 432 2259 526 
Q 2454 621 2603 838 
Q 2752 1056 2840 1411 
Q 2928 1766 2928 2291 
z
" transform="scale(0.015625)"/>
        <path id="Lato-Regular-4d" d="M 2813 1658 
Q 2858 1581 2891 1496 
Q 2925 1411 2957 1325 
Q 2989 1414 3024 1496 
Q 3059 1578 3104 1661 
L 4656 4480 
Q 4698 4554 4742 4570 
Q 4787 4586 4870 4586 
L 5328 4586 
L 5328 0 
L 4784 0 
L 4784 3370 
Q 4784 3437 4787 3513 
Q 4790 3590 4797 3670 
L 3226 803 
Q 3146 659 3002 659 
L 2912 659 
Q 2768 659 2688 803 
L 1082 3680 
Q 1091 3597 1096 3517 
Q 1101 3437 1101 3370 
L 1101 0 
L 557 0 
L 557 4586 
L 1014 4586 
Q 1098 4586 1142 4570 
Q 1187 4554 1229 4480 
L 2813 1658 
L 2813 1658 
z
" transform="scale(0.015625)"/>
       </defs>
       <use xlink:href="#Lato-Regular-20ac"/>
       <use xlink:href="#Lato-Regular-32" transform="translate(58 0)"/>
       <use xlink:href="#Lato-Regular-35" transform="translate(116 0)"/>
       <use xlink:href="#Lato-Regular-30" transform="translate(174 0)"/>
       <use xlink:href="#Lato-Regular-4d" transform="translate(232 0)"/>
      </g>
     </g>
    </g>
    <g id="xtick_2">
     <g id="line2d_2">
      <g>
       <use xlink:href="#md4101802e0" x="144.45" y="314.12" style="stroke: #000000; stroke-width: 0.8"/>
      </g>
     </g>
     <g id="text_2">
      <!-- €500M -->
      <g transform="translate(128.25 328.485625) scale(0.1 -0.1)">
       <use xlink:href="#Lato-Regular-20ac"/>
       <use xlink:href="#Lato-Regular-35" transform="translate(58 0)"/>
       <use xlink:href="#Lato-Regular-30" transform="translate(116 0)"/>
       <use xlink:href="#Lato-Regular-30" transform="translate(174 0)"/>
       <use xlink:href="#Lato-Regular-4d" transform="translate(232 0)"/>
      </g>
     </g>
    </g>
    <g id="xtick_3">
     <g id="line2d_3">
      <g>
       <use xlink:href="#md4101802e0" x="213.075" y="314.12" style="stroke: #000000; stroke-width: 0.8"/>
      </g>
     </g>
     <g id="text_3">
      <!-- €750M -->
      <g transform="translate(196.875 328.485625) scale(0.1 -0.1)">
       <defs>
        <path id="Lato-Regular-37" d="M 3469 4586 
L 3469 4330 
Q 3469 4221 3445 4150 
Q 3421 4080 3395 4032 
L 1498 202 
Q 1456 118 1382 59 
Q 1309 0 1184 0 
L 778 0 
L 2704 3782 
Q 2746 3862 2789 3929 
Q 2832 3997 2886 4058 
L 493 4058 
Q 438 4058 395 4101 
Q 352 4144 352 4198 
L 352 4586 
L 3469 4586 
z
" transform="scale(0.015625)"/>
       </defs>
       <use xlink:href="#Lato-Regular-20ac"/>
       <use xlink:href="#Lato-Regular-37" transform="translate(58 0)"/>
       <use xlink:href="#Lato-Regular-35" transform="translate(116 0)"/>
       <use xlink:href="#Lato-Regular-30" transform="translate(174 0)"/>
       <use xlink:href="#Lato-Regular-4d" transform="translate(232 0)"/>
      </g>
     </g>
    </g>
    <g id="xtick_4">
     <g id="line2d_4">
      <g>
       <use xlink:href="#md4101802e0" x="281.7" y="314.12" style="stroke: #000000; stroke-width: 0.8"/>
      </g>
     </g>
     <g id="text_4">
      <!-- €1B -->
      <g transform="translate(272.664844 328.485625) scale(0.1 -0.1)">
       <defs>
        <path id="Lato-Regular-31" d="M 918 435 
L 1904 435 
L 1904 3562 
Q 1904 3702 1914 3846 
L 1094 3146 
Q 1062 3120 1030 3109 
Q 998 3098 970 3098 
Q 922 3098 883 3118 
Q 845 3139 826 3168 
L 646 3414 
L 2010 4595 
L 2474 4595 
L 2474 435 
L 3376 435 
L 3376 0 
L 918 0 
L 918 435 
z
" transform="scale(0.015625)"/>
        <path id="Lato-Regular-42" d="M 557 0 
L 557 4586 
L 2019 4586 
Q 2442 4586 2747 4502 
Q 3053 4419 3249 4265 
Q 3446 4112 3540 3889 
Q 3635 3667 3635 3389 
Q 3635 3219 3582 3062 
Q 3530 2906 3422 2771 
Q 3315 2637 3153 2531 
Q 2992 2426 2774 2358 
Q 3277 2259 3533 1996 
Q 3789 1734 3789 1306 
Q 3789 1014 3681 774 
Q 3574 534 3368 361 
Q 3162 189 2862 94 
Q 2563 0 2179 0 
L 557 0 
z
M 1178 2090 
L 1178 493 
L 2170 493 
Q 2435 493 2625 553 
Q 2816 614 2939 724 
Q 3062 835 3120 987 
Q 3178 1139 3178 1322 
Q 3178 1677 2926 1883 
Q 2675 2090 2166 2090 
L 1178 2090 
z
M 1178 2531 
L 1997 2531 
Q 2259 2531 2451 2588 
Q 2643 2646 2769 2748 
Q 2896 2851 2957 2996 
Q 3018 3142 3018 3315 
Q 3018 3718 2774 3907 
Q 2531 4096 2019 4096 
L 1178 4096 
L 1178 2531 
z
" transform="scale(0.015625)"/>
       </defs>
       <use xlink:href="#Lato-Regular-20ac"/>
       <use xlink:href="#Lato-Regular-31" transform="translate(58 0)"/>
       <use xlink:href="#Lato-Regular-42" transform="translate(116 0)"/>
      </g>
     </g>
    </g>
    <g id="xtick_5">
     <g id="line2d_5">
      <g>
       <use xlink:href="#md4101802e0" x="350.325" y="314.12" style="stroke: #000000; stroke-width: 0.8"/>
      </g>
     </g>
     <g id="text_5">
      <!-- €1.25B -->
      <g transform="translate(334.429688 328.485625) scale(0.1 -0.1)">
       <defs>
        <path id="Lato-Regular-2e" d="M 282 352 
Q 282 435 312 508 
Q 342 582 395 636 
Q 448 691 521 723 
Q 595 755 678 755 
Q 762 755 835 723 
Q 909 691 963 636 
Q 1018 582 1048 508 
Q 1078 435 1078 352 
Q 1078 266 1048 194 
Q 1018 122 963 67 
Q 909 13 835 -17 
Q 762 -48 678 -48 
Q 595 -48 521 -17 
Q 448 13 395 67 
Q 342 122 312 194 
Q 282 266 282 352 
z
" transform="scale(0.015625)"/>
       </defs>
       <use xlink:href="#Lato-Regular-20ac"/>
       <use xlink:href="#Lato-Regular-31" transform="translate(58 0)"/>
       <use xlink:href="#Lato-Regular-2e" transform="translate(116 0)"/>
       <use xlink:href="#Lato-Regular-32" transform="translate(137.199997 0)"/>
       <use xlink:href="#Lato-Regular-35" transform="translate(195.199997 0)"/>
       <use xlink:href="#Lato-Regular-42" transform="translate(253.199997 0)"/>
      </g>
     </g>
    </g>
    <g id="xtick_6">
     <g id="line2d_6">
      <g>
       <use xlink:href="#md4101802e0" x="418.95" y="314.12" style="stroke: #000000; stroke-width: 0.8"/>
      </g>
     </g>
     <g id="text_6">
      <!-- €1.5B -->
      <g transform="translate(405.954688 328.485625) scale(0.1 -0.1)">
       <use xlink:href="#Lato-Regular-20ac"/>
       <use xlink:href="#Lato-Regular-31" transform="translate(58 0)"/>
       <use xlink:href="#Lato-Regular-2e" transform="translate(116 0)"/>
       <use xlink:href="#Lato-Regular-35" transform="translate(137.199997 0)"/>
       <use xlink:href="#Lato-Regular-42" transform="translate(195.199997 0)"/>
      </g>
     </g>
    </g>
   </g>
  </g>
  <g id="axes_2">
   <g id="FillBetweenPolyCollection_1">
    <defs>
     <path id="m766a4649ed" d="M 9.72555 -271.326622 
L 9.72555 -271.326622 
L 14.223806 -271.326622 
L 18.722063 -271.326622 
L 23.220319 -271.326622 
L 27.718576 -271.326622 
L 32.216832 -271.326622 
L 36.715088 -271.326622 
L 41.213345 -271.326622 
L 45.711601 -271.326622 
L 50.209858 -271.326622 
L 54.708114 -271.326622 
L 59.206371 -271.326622 
L 63.704627 -271.326622 
L 68.202884 -271.326622 
L 72.70114 -271.326622 
L 77.199397 -271.326622 
L 81.697653 -271.326622 
L 86.195909 -271.326622 
L 90.694166 -271.326622 
L 95.192422 -271.326622 
L 99.690679 -271.326622 
L 104.188935 -271.326622 
L 104.188935 -271.326622 
L 104.188935 -271.326622 
L 99.690679 -282.540837 
L 95.192422 -271.326622 
L 90.694166 -271.326622 
L 86.195909 -282.540837 
L 81.697653 -271.326622 
L 77.199397 -282.540837 
L 72.70114 -271.326622 
L 68.202884 -282.540837 
L 63.704627 -271.326622 
L 59.206371 -271.326622 
L 54.708114 -271.326622 
L 50.209858 -271.326622 
L 45.711601 -271.326622 
L 41.213345 -293.755052 
L 36.715088 -282.540837 
L 32.216832 -316.183481 
L 27.718576 -293.755052 
L 23.220319 -327.397696 
L 18.722063 -282.540837 
L 14.223806 -282.540837 
L 9.72555 -271.326622 
z
" style="stroke: #924bce; stroke-opacity: 0.427273"/>
    </defs>
    <g clip-path="url(#p64820f8df5)">
     <use xlink:href="#m766a4649ed" x="0" y="337.40125" style="fill: #924bce; fill-opacity: 0.427273; stroke: #924bce; stroke-opacity: 0.427273"/>
    </g>
   </g>
   <g id="line2d_7">
    <path d="M 9.72555 66.074628 
L 14.223806 66.074628 
L 18.722063 66.074628 
L 23.220319 66.074628 
L 27.718576 66.074628 
L 32.216832 66.074628 
L 36.715088 66.074628 
L 41.213345 66.074628 
L 45.711601 66.074628 
L 50.209858 66.074628 
L 54.708114 66.074628 
L 59.206371 66.074628 
L 63.704627 66.074628 
L 68.202884 66.074628 
L 72.70114 66.074628 
L 77.199397 66.074628 
L 81.697653 66.074628 
L 86.195909 66.074628 
L 90.694166 66.074628 
L 95.192422 66.074628 
L 99.690679 66.074628 
L 104.188935 66.074628 
" clip-path="url(#p64820f8df5)" style="fill: none; stroke: #924bce; stroke-opacity: 0.427273; stroke-width: 1.5; stroke-linecap: square"/>
   </g>
   <g id="line2d_8">
    <path d="M 9.72555 66.074628 
L 14.223806 54.860413 
L 18.722063 54.860413 
L 23.220319 10.003554 
L 27.718576 43.646198 
L 32.216832 21.217769 
L 36.715088 54.860413 
L 41.213345 43.646198 
L 45.711601 66.074628 
L 50.209858 66.074628 
L 54.708114 66.074628 
L 59.206371 66.074628 
L 63.704627 66.074628 
L 68.202884 54.860413 
L 72.70114 66.074628 
L 77.199397 54.860413 
L 81.697653 66.074628 
L 86.195909 54.860413 
L 90.694166 66.074628 
L 95.192422 66.074628 
L 99.690679 54.860413 
L 104.188935 66.074628 
" clip-path="url(#p64820f8df5)" style="fill: none; stroke: #000000; stroke-opacity: 0.427273; stroke-width: 1.5; stroke-linecap: square"/>
   </g>
  </g>
  <g id="axes_3">
   <g id="FillBetweenPolyCollection_2">
    <defs>
     <path id="mafa315f973" d="M 10.059442 -259.64844 
L 10.059442 -259.64844 
L 14.986667 -259.64844 
L 19.913892 -259.64844 
L 24.841117 -259.64844 
L 29.768342 -259.64844 
L 34.695567 -259.64844 
L 39.622792 -259.64844 
L 44.550017 -259.64844 
L 49.477242 -259.64844 
L 54.404467 -259.64844 
L 59.331692 -259.64844 
L 64.258918 -259.64844 
L 69.186143 -259.64844 
L 74.113368 -259.64844 
L 79.040593 -259.64844 
L 83.967818 -259.64844 
L 88.895043 -259.64844 
L 93.822268 -259.64844 
L 98.749493 -259.64844 
L 103.676718 -259.64844 
L 108.603943 -259.64844 
L 113.531168 -259.64844 
L 113.531168 -259.64844 
L 113.531168 -259.64844 
L 108.603943 -270.862655 
L 103.676718 -259.64844 
L 98.749493 -259.64844 
L 93.822268 -259.64844 
L 88.895043 -259.64844 
L 83.967818 -259.64844 
L 79.040593 -270.862655 
L 74.113368 -259.64844 
L 69.186143 -270.862655 
L 64.258918 -270.862655 
L 59.331692 -259.64844 
L 54.404467 -259.64844 
L 49.477242 -282.07687 
L 44.550017 -259.64844 
L 39.622792 -259.64844 
L 34.695567 -293.291085 
L 29.768342 -304.5053 
L 24.841117 -315.719514 
L 19.913892 -270.862655 
L 14.986667 -270.862655 
L 10.059442 -259.64844 
z
" style="stroke: #924bce; stroke-opacity: 0.454545"/>
    </defs>
    <g clip-path="url(#pa335aec7f1)">
     <use xlink:href="#mafa315f973" x="0" y="337.40125" style="fill: #924bce; fill-opacity: 0.454545; stroke: #924bce; stroke-opacity: 0.454545"/>
    </g>
   </g>
   <g id="line2d_9">
    <path d="M 10.059442 77.75281 
L 14.986667 77.75281 
L 19.913892 77.75281 
L 24.841117 77.75281 
L 29.768342 77.75281 
L 34.695567 77.75281 
L 39.622792 77.75281 
L 44.550017 77.75281 
L 49.477242 77.75281 
L 54.404467 77.75281 
L 59.331692 77.75281 
L 64.258918 77.75281 
L 69.186143 77.75281 
L 74.113368 77.75281 
L 79.040593 77.75281 
L 83.967818 77.75281 
L 88.895043 77.75281 
L 93.822268 77.75281 
L 98.749493 77.75281 
L 103.676718 77.75281 
L 108.603943 77.75281 
L 113.531168 77.75281 
" clip-path="url(#pa335aec7f1)" style="fill: none; stroke: #924bce; stroke-opacity: 0.454545; stroke-width: 1.5; stroke-linecap: square"/>
   </g>
   <g id="line2d_10">
    <path d="M 10.059442 77.75281 
L 14.986667 66.538595 
L 19.913892 66.538595 
L 24.841117 21.681736 
L 29.768342 32.89595 
L 34.695567 44.110165 
L 39.622792 77.75281 
L 44.550017 77.75281 
L 49.477242 55.32438 
L 54.404467 77.75281 
L 59.331692 77.75281 
L 64.258918 66.538595 
L 69.186143 66.538595 
L 74.113368 77.75281 
L 79.040593 66.538595 
L 83.967818 77.75281 
L 88.895043 77.75281 
L 93.822268 77.75281 
L 98.749493 77.75281 
L 103.676718 77.75281 
L 108.603943 66.538595 
L 113.531168 77.75281 
" clip-path="url(#pa335aec7f1)" style="fill: none; stroke: #000000; stroke-opacity: 0.454545; stroke-width: 1.5; stroke-linecap: square"/>
   </g>
  </g>
  <g id="axes_4">
   <g id="FillBetweenPolyCollection_3">
    <defs>
     <path id="m363e34a775" d="M 8.561919 -247.970258 
L 8.561919 -247.970258 
L 14.30965 -247.970258 
L 20.05738 -247.970258 
L 25.805111 -247.970258 
L 31.552841 -247.970258 
L 37.300572 -247.970258 
L 43.048303 -247.970258 
L 48.796033 -247.970258 
L 54.543764 -247.970258 
L 60.291494 -247.970258 
L 66.039225 -247.970258 
L 71.786955 -247.970258 
L 77.534686 -247.970258 
L 83.282416 -247.970258 
L 89.030147 -247.970258 
L 94.777877 -247.970258 
L 100.525608 -247.970258 
L 106.273339 -247.970258 
L 112.021069 -247.970258 
L 117.7688 -247.970258 
L 123.51653 -247.970258 
L 129.264261 -247.970258 
L 129.264261 -247.970258 
L 129.264261 -247.970258 
L 123.51653 -259.184473 
L 117.7688 -247.970258 
L 112.021069 -247.970258 
L 106.273339 -247.970258 
L 100.525608 -247.970258 
L 94.777877 -247.970258 
L 89.030147 -247.970258 
L 83.282416 -259.184473 
L 77.534686 -259.184473 
L 71.786955 -259.184473 
L 66.039225 -247.970258 
L 60.291494 -247.970258 
L 54.543764 -259.184473 
L 48.796033 -259.184473 
L 43.048303 -247.970258 
L 37.300572 -281.612903 
L 31.552841 -304.041333 
L 25.805111 -281.612903 
L 20.05738 -259.184473 
L 14.30965 -270.398688 
L 8.561919 -247.970258 
z
" style="stroke: #924bce; stroke-opacity: 0.481818"/>
    </defs>
    <g clip-path="url(#p43538348ae)">
     <use xlink:href="#m363e34a775" x="0" y="337.40125" style="fill: #924bce; fill-opacity: 0.481818; stroke: #924bce; stroke-opacity: 0.481818"/>
    </g>
   </g>
   <g id="line2d_11">
    <path d="M 8.561919 89.430992 
L 14.30965 89.430992 
L 20.05738 89.430992 
L 25.805111 89.430992 
L 31.552841 89.430992 
L 37.300572 89.430992 
L 43.048303 89.430992 
L 48.796033 89.430992 
L 54.543764 89.430992 
L 60.291494 89.430992 
L 66.039225 89.430992 
L 71.786955 89.430992 
L 77.534686 89.430992 
L 83.282416 89.430992 
L 89.030147 89.430992 
L 94.777877 89.430992 
L 100.525608 89.430992 
L 106.273339 89.430992 
L 112.021069 89.430992 
L 117.7688 89.430992 
L 123.51653 89.430992 
L 129.264261 89.430992 
" clip-path="url(#p43538348ae)" style="fill: none; stroke: #924bce; stroke-opacity: 0.481818; stroke-width: 1.5; stroke-linecap: square"/>
   </g>
   <g id="line2d_12">
    <path d="M 8.561919 89.430992 
L 14.30965 67.002562 
L 20.05738 78.216777 
L 25.805111 55.788347 
L 31.552841 33.359917 
L 37.300572 55.788347 
L 43.048303 89.430992 
L 48.796033 78.216777 
L 54.543764 78.216777 
L 60.291494 89.430992 
L 66.039225 89.430992 
L 71.786955 78.216777 
L 77.534686 78.216777 
L 83.282416 78.216777 
L 89.030147 89.430992 
L 94.777877 89.430992 
L 100.525608 89.430992 
L 106.273339 89.430992 
L 112.021069 89.430992 
L 117.7688 89.430992 
L 123.51653 78.216777 
L 129.264261 89.430992 
" clip-path="url(#p43538348ae)" style="fill: none; stroke: #000000; stroke-opacity: 0.481818; stroke-width: 1.5; stroke-linecap: square"/>
   </g>
  </g>
  <g id="axes_5">
   <g id="FillBetweenPolyCollection_4">
    <defs>
     <path id="m3070188a21" d="M 13.369762 -236.292076 
L 13.369762 -236.292076 
L 19.11854 -236.292076 
L 24.867319 -236.292076 
L 30.616098 -236.292076 
L 36.364876 -236.292076 
L 42.113655 -236.292076 
L 47.862434 -236.292076 
L 53.611212 -236.292076 
L 59.359991 -236.292076 
L 65.10877 -236.292076 
L 70.857548 -236.292076 
L 76.606327 -236.292076 
L 82.355105 -236.292076 
L 88.103884 -236.292076 
L 93.852663 -236.292076 
L 99.601441 -236.292076 
L 105.35022 -236.292076 
L 111.098999 -236.292076 
L 116.847777 -236.292076 
L 122.596556 -236.292076 
L 128.345335 -236.292076 
L 134.094113 -236.292076 
L 134.094113 -236.292076 
L 134.094113 -236.292076 
L 128.345335 -250.309845 
L 122.596556 -236.292076 
L 116.847777 -236.292076 
L 111.098999 -236.292076 
L 105.35022 -250.309845 
L 99.601441 -236.292076 
L 93.852663 -250.309845 
L 88.103884 -236.292076 
L 82.355105 -236.292076 
L 76.606327 -250.309845 
L 70.857548 -236.292076 
L 65.10877 -250.309845 
L 59.359991 -236.292076 
L 53.611212 -236.292076 
L 47.862434 -278.345382 
L 42.113655 -278.345382 
L 36.364876 -278.345382 
L 30.616098 -292.363151 
L 24.867319 -250.309845 
L 19.11854 -250.309845 
L 13.369762 -236.292076 
z
" style="stroke: #924bce; stroke-opacity: 0.509091"/>
    </defs>
    <g clip-path="url(#p77b3bfdb22)">
     <use xlink:href="#m3070188a21" x="0" y="337.40125" style="fill: #924bce; fill-opacity: 0.509091; stroke: #924bce; stroke-opacity: 0.509091"/>
    </g>
   </g>
   <g id="line2d_13">
    <path d="M 13.369762 101.109174 
L 19.11854 101.109174 
L 24.867319 101.109174 
L 30.616098 101.109174 
L 36.364876 101.109174 
L 42.113655 101.109174 
L 47.862434 101.109174 
L 53.611212 101.109174 
L 59.359991 101.109174 
L 65.10877 101.109174 
L 70.857548 101.109174 
L 76.606327 101.109174 
L 82.355105 101.109174 
L 88.103884 101.109174 
L 93.852663 101.109174 
L 99.601441 101.109174 
L 105.35022 101.109174 
L 111.098999 101.109174 
L 116.847777 101.109174 
L 122.596556 101.109174 
L 128.345335 101.109174 
L 134.094113 101.109174 
" clip-path="url(#p77b3bfdb22)" style="fill: none; stroke: #924bce; stroke-opacity: 0.509091; stroke-width: 1.5; stroke-linecap: square"/>
   </g>
   <g id="line2d_14">
    <path d="M 13.369762 101.109174 
L 19.11854 87.091405 
L 24.867319 87.091405 
L 30.616098 45.038099 
L 36.364876 59.055868 
L 42.113655 59.055868 
L 47.862434 59.055868 
L 53.611212 101.109174 
L 59.359991 101.109174 
L 65.10877 87.091405 
L 70.857548 101.109174 
L 76.606327 87.091405 
L 82.355105 101.109174 
L 88.103884 101.109174 
L 93.852663 87.091405 
L 99.601441 101.109174 
L 105.35022 87.091405 
L 111.098999 101.109174 
L 116.847777 101.109174 
L 122.596556 101.109174 
L 128.345335 87.091405 
L 134.094113 101.109174 
" clip-path="url(#p77b3bfdb22)" style="fill: none; stroke: #000000; stroke-opacity: 0.509091; stroke-width: 1.5; stroke-linecap: square"/>
   </g>
  </g>
  <g id="axes_6">
   <g id="FillBetweenPolyCollection_5">
    <defs>
     <path id="mf16380aae0" d="M 16.929029 -224.613895 
L 16.929029 -224.613895 
L 22.695026 -224.613895 
L 28.461023 -224.613895 
L 34.22702 -224.613895 
L 39.993018 -224.613895 
L 45.759015 -224.613895 
L 51.525012 -224.613895 
L 57.29101 -224.613895 
L 63.057007 -224.613895 
L 68.823004 -224.613895 
L 74.589001 -224.613895 
L 80.354999 -224.613895 
L 86.120996 -224.613895 
L 91.886993 -224.613895 
L 97.65299 -224.613895 
L 103.418988 -224.613895 
L 109.184985 -224.613895 
L 114.950982 -224.613895 
L 120.71698 -224.613895 
L 126.482977 -224.613895 
L 132.248974 -224.613895 
L 138.014971 -224.613895 
L 138.014971 -224.613895 
L 138.014971 -224.613895 
L 132.248974 -243.304253 
L 126.482977 -243.304253 
L 120.71698 -224.613895 
L 114.950982 -224.613895 
L 109.184985 -224.613895 
L 103.418988 -243.304253 
L 97.65299 -224.613895 
L 91.886993 -243.304253 
L 86.120996 -243.304253 
L 80.354999 -243.304253 
L 74.589001 -224.613895 
L 68.823004 -224.613895 
L 63.057007 -224.613895 
L 57.29101 -243.304253 
L 51.525012 -261.994611 
L 45.759015 -261.994611 
L 39.993018 -243.304253 
L 34.22702 -261.994611 
L 28.461023 -280.684969 
L 22.695026 -280.684969 
L 16.929029 -224.613895 
z
" style="stroke: #924bce; stroke-opacity: 0.536364"/>
    </defs>
    <g clip-path="url(#p2cf7ebd2c2)">
     <use xlink:href="#mf16380aae0" x="0" y="337.40125" style="fill: #924bce; fill-opacity: 0.536364; stroke: #924bce; stroke-opacity: 0.536364"/>
    </g>
   </g>
   <g id="line2d_15">
    <path d="M 16.929029 112.787355 
L 22.695026 112.787355 
L 28.461023 112.787355 
L 34.22702 112.787355 
L 39.993018 112.787355 
L 45.759015 112.787355 
L 51.525012 112.787355 
L 57.29101 112.787355 
L 63.057007 112.787355 
L 68.823004 112.787355 
L 74.589001 112.787355 
L 80.354999 112.787355 
L 86.120996 112.787355 
L 91.886993 112.787355 
L 97.65299 112.787355 
L 103.418988 112.787355 
L 109.184985 112.787355 
L 114.950982 112.787355 
L 120.71698 112.787355 
L 126.482977 112.787355 
L 132.248974 112.787355 
L 138.014971 112.787355 
" clip-path="url(#p2cf7ebd2c2)" style="fill: none; stroke: #924bce; stroke-opacity: 0.536364; stroke-width: 1.5; stroke-linecap: square"/>
   </g>
   <g id="line2d_16">
    <path d="M 16.929029 112.787355 
L 22.695026 56.716281 
L 28.461023 56.716281 
L 34.22702 75.406639 
L 39.993018 94.096997 
L 45.759015 75.406639 
L 51.525012 75.406639 
L 57.29101 94.096997 
L 63.057007 112.787355 
L 68.823004 112.787355 
L 74.589001 112.787355 
L 80.354999 94.096997 
L 86.120996 94.096997 
L 91.886993 94.096997 
L 97.65299 112.787355 
L 103.418988 94.096997 
L 109.184985 112.787355 
L 114.950982 112.787355 
L 120.71698 112.787355 
L 126.482977 94.096997 
L 132.248974 94.096997 
L 138.014971 112.787355 
" clip-path="url(#p2cf7ebd2c2)" style="fill: none; stroke: #000000; stroke-opacity: 0.536364; stroke-width: 1.5; stroke-linecap: square"/>
   </g>
  </g>
  <g id="axes_7">
   <g id="FillBetweenPolyCollection_6">
    <defs>
     <path id="m91572daff8" d="M 12.355859 -212.935713 
L 12.355859 -212.935713 
L 18.401846 -212.935713 
L 24.447833 -212.935713 
L 30.49382 -212.935713 
L 36.539808 -212.935713 
L 42.585795 -212.935713 
L 48.631782 -212.935713 
L 54.67777 -212.935713 
L 60.723757 -212.935713 
L 66.769744 -212.935713 
L 72.815731 -212.935713 
L 78.861719 -212.935713 
L 84.907706 -212.935713 
L 90.953693 -212.935713 
L 96.99968 -212.935713 
L 103.045668 -212.935713 
L 109.091655 -212.935713 
L 115.137642 -212.935713 
L 121.18363 -212.935713 
L 127.229617 -212.935713 
L 133.275604 -212.935713 
L 139.321591 -212.935713 
L 139.321591 -212.935713 
L 139.321591 -212.935713 
L 133.275604 -226.953481 
L 127.229617 -212.935713 
L 121.18363 -212.935713 
L 115.137642 -226.953481 
L 109.091655 -212.935713 
L 103.045668 -212.935713 
L 96.99968 -226.953481 
L 90.953693 -240.97125 
L 84.907706 -212.935713 
L 78.861719 -226.953481 
L 72.815731 -212.935713 
L 66.769744 -226.953481 
L 60.723757 -212.935713 
L 54.67777 -226.953481 
L 48.631782 -212.935713 
L 42.585795 -240.97125 
L 36.539808 -240.97125 
L 30.49382 -269.006787 
L 24.447833 -254.989019 
L 18.401846 -226.953481 
L 12.355859 -212.935713 
z
" style="stroke: #924bce; stroke-opacity: 0.563636"/>
    </defs>
    <g clip-path="url(#p82148c8240)">
     <use xlink:href="#m91572daff8" x="0" y="337.40125" style="fill: #924bce; fill-opacity: 0.563636; stroke: #924bce; stroke-opacity: 0.563636"/>
    </g>
   </g>
   <g id="line2d_17">
    <path d="M 12.355859 124.465537 
L 18.401846 124.465537 
L 24.447833 124.465537 
L 30.49382 124.465537 
L 36.539808 124.465537 
L 42.585795 124.465537 
L 48.631782 124.465537 
L 54.67777 124.465537 
L 60.723757 124.465537 
L 66.769744 124.465537 
L 72.815731 124.465537 
L 78.861719 124.465537 
L 84.907706 124.465537 
L 90.953693 124.465537 
L 96.99968 124.465537 
L 103.045668 124.465537 
L 109.091655 124.465537 
L 115.137642 124.465537 
L 121.18363 124.465537 
L 127.229617 124.465537 
L 133.275604 124.465537 
L 139.321591 124.465537 
" clip-path="url(#p82148c8240)" style="fill: none; stroke: #924bce; stroke-opacity: 0.563636; stroke-width: 1.5; stroke-linecap: square"/>
   </g>
   <g id="line2d_18">
    <path d="M 12.355859 124.465537 
L 18.401846 110.447769 
L 24.447833 82.412231 
L 30.49382 68.394463 
L 36.539808 96.43 
L 42.585795 96.43 
L 48.631782 124.465537 
L 54.67777 110.447769 
L 60.723757 124.465537 
L 66.769744 110.447769 
L 72.815731 124.465537 
L 78.861719 110.447769 
L 84.907706 124.465537 
L 90.953693 96.43 
L 96.99968 110.447769 
L 103.045668 124.465537 
L 109.091655 124.465537 
L 115.137642 110.447769 
L 121.18363 124.465537 
L 127.229617 124.465537 
L 133.275604 110.447769 
L 139.321591 124.465537 
" clip-path="url(#p82148c8240)" style="fill: none; stroke: #000000; stroke-opacity: 0.563636; stroke-width: 1.5; stroke-linecap: square"/>
   </g>
  </g>
  <g id="axes_8">
   <g id="FillBetweenPolyCollection_7">
    <defs>
     <path id="mbba06b25a9" d="M 13.465438 -201.257531 
L 13.465438 -201.257531 
L 19.066286 -201.257531 
L 24.667134 -201.257531 
L 30.267982 -201.257531 
L 35.86883 -201.257531 
L 41.469678 -201.257531 
L 47.070526 -201.257531 
L 52.671374 -201.257531 
L 58.272222 -201.257531 
L 63.87307 -201.257531 
L 69.473918 -201.257531 
L 75.074767 -201.257531 
L 80.675615 -201.257531 
L 86.276463 -201.257531 
L 91.877311 -201.257531 
L 97.478159 -201.257531 
L 103.079007 -201.257531 
L 108.679855 -201.257531 
L 114.280703 -201.257531 
L 119.881551 -201.257531 
L 125.482399 -201.257531 
L 131.083247 -201.257531 
L 131.083247 -201.257531 
L 131.083247 -201.257531 
L 125.482399 -215.2753 
L 119.881551 -215.2753 
L 114.280703 -215.2753 
L 108.679855 -201.257531 
L 103.079007 -215.2753 
L 97.478159 -215.2753 
L 91.877311 -215.2753 
L 86.276463 -201.257531 
L 80.675615 -201.257531 
L 75.074767 -201.257531 
L 69.473918 -201.257531 
L 63.87307 -215.2753 
L 58.272222 -215.2753 
L 52.671374 -201.257531 
L 47.070526 -229.293068 
L 41.469678 -215.2753 
L 35.86883 -257.328605 
L 30.267982 -257.328605 
L 24.667134 -201.257531 
L 19.066286 -215.2753 
L 13.465438 -201.257531 
z
" style="stroke: #924bce; stroke-opacity: 0.590909"/>
    </defs>
    <g clip-path="url(#p78ce5f5e2e)">
     <use xlink:href="#mbba06b25a9" x="0" y="337.40125" style="fill: #924bce; fill-opacity: 0.590909; stroke: #924bce; stroke-opacity: 0.590909"/>
    </g>
   </g>
   <g id="line2d_19">
    <path d="M 13.465438 136.143719 
L 19.066286 136.143719 
L 24.667134 136.143719 
L 30.267982 136.143719 
L 35.86883 136.143719 
L 41.469678 136.143719 
L 47.070526 136.143719 
L 52.671374 136.143719 
L 58.272222 136.143719 
L 63.87307 136.143719 
L 69.473918 136.143719 
L 75.074767 136.143719 
L 80.675615 136.143719 
L 86.276463 136.143719 
L 91.877311 136.143719 
L 97.478159 136.143719 
L 103.079007 136.143719 
L 108.679855 136.143719 
L 114.280703 136.143719 
L 119.881551 136.143719 
L 125.482399 136.143719 
L 131.083247 136.143719 
" clip-path="url(#p78ce5f5e2e)" style="fill: none; stroke: #924bce; stroke-opacity: 0.590909; stroke-width: 1.5; stroke-linecap: square"/>
   </g>
   <g id="line2d_20">
    <path d="M 13.465438 136.143719 
L 19.066286 122.12595 
L 24.667134 136.143719 
L 30.267982 80.072645 
L 35.86883 80.072645 
L 41.469678 122.12595 
L 47.070526 108.108182 
L 52.671374 136.143719 
L 58.272222 122.12595 
L 63.87307 122.12595 
L 69.473918 136.143719 
L 75.074767 136.143719 
L 80.675615 136.143719 
L 86.276463 136.143719 
L 91.877311 122.12595 
L 97.478159 122.12595 
L 103.079007 122.12595 
L 108.679855 136.143719 
L 114.280703 122.12595 
L 119.881551 122.12595 
L 125.482399 122.12595 
L 131.083247 136.143719 
" clip-path="url(#p78ce5f5e2e)" style="fill: none; stroke: #000000; stroke-opacity: 0.590909; stroke-width: 1.5; stroke-linecap: square"/>
   </g>
  </g>
  <g id="axes_9">
   <g id="FillBetweenPolyCollection_8">
    <defs>
     <path id="m65bf457688" d="M 14.54587 -189.579349 
L 14.54587 -189.579349 
L 21.131624 -189.579349 
L 27.717378 -189.579349 
L 34.303132 -189.579349 
L 40.888886 -189.579349 
L 47.47464 -189.579349 
L 54.060394 -189.579349 
L 60.646148 -189.579349 
L 67.231902 -189.579349 
L 73.817656 -189.579349 
L 80.40341 -189.579349 
L 86.989165 -189.579349 
L 93.574919 -189.579349 
L 100.160673 -189.579349 
L 106.746427 -189.579349 
L 113.332181 -189.579349 
L 119.917935 -189.579349 
L 126.503689 -189.579349 
L 133.089443 -189.579349 
L 139.675197 -189.579349 
L 146.260951 -189.579349 
L 152.846705 -189.579349 
L 152.846705 -189.579349 
L 152.846705 -189.579349 
L 146.260951 -197.589503 
L 139.675197 -189.579349 
L 133.089443 -189.579349 
L 126.503689 -189.579349 
L 119.917935 -197.589503 
L 113.332181 -197.589503 
L 106.746427 -197.589503 
L 100.160673 -189.579349 
L 93.574919 -197.589503 
L 86.989165 -189.579349 
L 80.40341 -189.579349 
L 73.817656 -197.589503 
L 67.231902 -189.579349 
L 60.646148 -189.579349 
L 54.060394 -205.599656 
L 47.47464 -189.579349 
L 40.888886 -205.599656 
L 34.303132 -205.599656 
L 27.717378 -245.650424 
L 21.131624 -197.589503 
L 14.54587 -189.579349 
z
" style="stroke: #924bce; stroke-opacity: 0.618182"/>
    </defs>
    <g clip-path="url(#p30875034c2)">
     <use xlink:href="#m65bf457688" x="0" y="337.40125" style="fill: #924bce; fill-opacity: 0.618182; stroke: #924bce; stroke-opacity: 0.618182"/>
    </g>
   </g>
   <g id="line2d_21">
    <path d="M 14.54587 147.821901 
L 21.131624 147.821901 
L 27.717378 147.821901 
L 34.303132 147.821901 
L 40.888886 147.821901 
L 47.47464 147.821901 
L 54.060394 147.821901 
L 60.646148 147.821901 
L 67.231902 147.821901 
L 73.817656 147.821901 
L 80.40341 147.821901 
L 86.989165 147.821901 
L 93.574919 147.821901 
L 100.160673 147.821901 
L 106.746427 147.821901 
L 113.332181 147.821901 
L 119.917935 147.821901 
L 126.503689 147.821901 
L 133.089443 147.821901 
L 139.675197 147.821901 
L 146.260951 147.821901 
L 152.846705 147.821901 
" clip-path="url(#p30875034c2)" style="fill: none; stroke: #924bce; stroke-opacity: 0.618182; stroke-width: 1.5; stroke-linecap: square"/>
   </g>
   <g id="line2d_22">
    <path d="M 14.54587 147.821901 
L 21.131624 139.811747 
L 27.717378 91.750826 
L 34.303132 131.801594 
L 40.888886 131.801594 
L 47.47464 147.821901 
L 54.060394 131.801594 
L 60.646148 147.821901 
L 67.231902 147.821901 
L 73.817656 139.811747 
L 80.40341 147.821901 
L 86.989165 147.821901 
L 93.574919 139.811747 
L 100.160673 147.821901 
L 106.746427 139.811747 
L 113.332181 139.811747 
L 119.917935 139.811747 
L 126.503689 147.821901 
L 133.089443 147.821901 
L 139.675197 147.821901 
L 146.260951 139.811747 
L 152.846705 147.821901 
" clip-path="url(#p30875034c2)" style="fill: none; stroke: #000000; stroke-opacity: 0.618182; stroke-width: 1.5; stroke-linecap: square"/>
   </g>
  </g>
  <g id="axes_10">
   <g id="FillBetweenPolyCollection_9">
    <defs>
     <path id="mdf4fc25b38" d="M 10.795201 -177.901167 
L 10.795201 -177.901167 
L 17.620519 -177.901167 
L 24.445837 -177.901167 
L 31.271155 -177.901167 
L 38.096472 -177.901167 
L 44.92179 -177.901167 
L 51.747108 -177.901167 
L 58.572425 -177.901167 
L 65.397743 -177.901167 
L 72.223061 -177.901167 
L 79.048379 -177.901167 
L 85.873696 -177.901167 
L 92.699014 -177.901167 
L 99.524332 -177.901167 
L 106.34965 -177.901167 
L 113.174967 -177.901167 
L 120.000285 -177.901167 
L 126.825603 -177.901167 
L 133.65092 -177.901167 
L 140.476238 -177.901167 
L 147.301556 -177.901167 
L 154.126874 -177.901167 
L 154.126874 -177.901167 
L 154.126874 -177.901167 
L 147.301556 -187.246346 
L 140.476238 -177.901167 
L 133.65092 -196.591525 
L 126.825603 -177.901167 
L 120.000285 -177.901167 
L 113.174967 -177.901167 
L 106.34965 -177.901167 
L 99.524332 -177.901167 
L 92.699014 -177.901167 
L 85.873696 -205.936705 
L 79.048379 -177.901167 
L 72.223061 -177.901167 
L 65.397743 -187.246346 
L 58.572425 -177.901167 
L 51.747108 -177.901167 
L 44.92179 -196.591525 
L 38.096472 -233.972242 
L 31.271155 -205.936705 
L 24.445837 -187.246346 
L 17.620519 -187.246346 
L 10.795201 -177.901167 
z
" style="stroke: #924bce; stroke-opacity: 0.645455"/>
    </defs>
    <g clip-path="url(#pd569f48ff9)">
     <use xlink:href="#mdf4fc25b38" x="0" y="337.40125" style="fill: #924bce; fill-opacity: 0.645455; stroke: #924bce; stroke-opacity: 0.645455"/>
    </g>
   </g>
   <g id="line2d_23">
    <path d="M 10.795201 159.500083 
L 17.620519 159.500083 
L 24.445837 159.500083 
L 31.271155 159.500083 
L 38.096472 159.500083 
L 44.92179 159.500083 
L 51.747108 159.500083 
L 58.572425 159.500083 
L 65.397743 159.500083 
L 72.223061 159.500083 
L 79.048379 159.500083 
L 85.873696 159.500083 
L 92.699014 159.500083 
L 99.524332 159.500083 
L 106.34965 159.500083 
L 113.174967 159.500083 
L 120.000285 159.500083 
L 126.825603 159.500083 
L 133.65092 159.500083 
L 140.476238 159.500083 
L 147.301556 159.500083 
L 154.126874 159.500083 
" clip-path="url(#pd569f48ff9)" style="fill: none; stroke: #924bce; stroke-opacity: 0.645455; stroke-width: 1.5; stroke-linecap: square"/>
   </g>
   <g id="line2d_24">
    <path d="M 10.795201 159.500083 
L 17.620519 150.154904 
L 24.445837 150.154904 
L 31.271155 131.464545 
L 38.096472 103.429008 
L 44.92179 140.809725 
L 51.747108 159.500083 
L 58.572425 159.500083 
L 65.397743 150.154904 
L 72.223061 159.500083 
L 79.048379 159.500083 
L 85.873696 131.464545 
L 92.699014 159.500083 
L 99.524332 159.500083 
L 106.34965 159.500083 
L 113.174967 159.500083 
L 120.000285 159.500083 
L 126.825603 159.500083 
L 133.65092 140.809725 
L 140.476238 159.500083 
L 147.301556 150.154904 
L 154.126874 159.500083 
" clip-path="url(#pd569f48ff9)" style="fill: none; stroke: #000000; stroke-opacity: 0.645455; stroke-width: 1.5; stroke-linecap: square"/>
   </g>
  </g>
  <g id="axes_11">
   <g id="FillBetweenPolyCollection_10">
    <defs>
     <path id="m0caedea492" d="M 15.60494 -166.222986 
L 15.60494 -166.222986 
L 23.331616 -166.222986 
L 31.058292 -166.222986 
L 38.784968 -166.222986 
L 46.511644 -166.222986 
L 54.23832 -166.222986 
L 61.964996 -166.222986 
L 69.691672 -166.222986 
L 77.418348 -166.222986 
L 85.145024 -166.222986 
L 92.8717 -166.222986 
L 100.598375 -166.222986 
L 108.325051 -166.222986 
L 116.051727 -166.222986 
L 123.778403 -166.222986 
L 131.505079 -166.222986 
L 139.231755 -166.222986 
L 146.958431 -166.222986 
L 154.685107 -166.222986 
L 162.411783 -166.222986 
L 170.138459 -166.222986 
L 177.865135 -166.222986 
L 177.865135 -166.222986 
L 177.865135 -166.222986 
L 170.138459 -175.568165 
L 162.411783 -166.222986 
L 154.685107 -166.222986 
L 146.958431 -166.222986 
L 139.231755 -166.222986 
L 131.505079 -175.568165 
L 123.778403 -166.222986 
L 116.051727 -184.913344 
L 108.325051 -166.222986 
L 100.598375 -166.222986 
L 92.8717 -175.568165 
L 85.145024 -175.568165 
L 77.418348 -166.222986 
L 69.691672 -166.222986 
L 61.964996 -175.568165 
L 54.23832 -175.568165 
L 46.511644 -175.568165 
L 38.784968 -222.29406 
L 31.058292 -194.258523 
L 23.331616 -184.913344 
L 15.60494 -166.222986 
z
" style="stroke: #924bce; stroke-opacity: 0.672727"/>
    </defs>
    <g clip-path="url(#p653b1d2d51)">
     <use xlink:href="#m0caedea492" x="0" y="337.40125" style="fill: #924bce; fill-opacity: 0.672727; stroke: #924bce; stroke-opacity: 0.672727"/>
    </g>
   </g>
   <g id="line2d_25">
    <path d="M 15.60494 171.178264 
L 23.331616 171.178264 
L 31.058292 171.178264 
L 38.784968 171.178264 
L 46.511644 171.178264 
L 54.23832 171.178264 
L 61.964996 171.178264 
L 69.691672 171.178264 
L 77.418348 171.178264 
L 85.145024 171.178264 
L 92.8717 171.178264 
L 100.598375 171.178264 
L 108.325051 171.178264 
L 116.051727 171.178264 
L 123.778403 171.178264 
L 131.505079 171.178264 
L 139.231755 171.178264 
L 146.958431 171.178264 
L 154.685107 171.178264 
L 162.411783 171.178264 
L 170.138459 171.178264 
L 177.865135 171.178264 
" clip-path="url(#p653b1d2d51)" style="fill: none; stroke: #924bce; stroke-opacity: 0.672727; stroke-width: 1.5; stroke-linecap: square"/>
   </g>
   <g id="line2d_26">
    <path d="M 15.60494 171.178264 
L 23.331616 152.487906 
L 31.058292 143.142727 
L 38.784968 115.10719 
L 46.511644 161.833085 
L 54.23832 161.833085 
L 61.964996 161.833085 
L 69.691672 171.178264 
L 77.418348 171.178264 
L 85.145024 161.833085 
L 92.8717 161.833085 
L 100.598375 171.178264 
L 108.325051 171.178264 
L 116.051727 152.487906 
L 123.778403 171.178264 
L 131.505079 161.833085 
L 139.231755 171.178264 
L 146.958431 171.178264 
L 154.685107 171.178264 
L 162.411783 171.178264 
L 170.138459 161.833085 
L 177.865135 171.178264 
" clip-path="url(#p653b1d2d51)" style="fill: none; stroke: #000000; stroke-opacity: 0.672727; stroke-width: 1.5; stroke-linecap: square"/>
   </g>
  </g>
  <g id="axes_12">
   <g id="FillBetweenPolyCollection_11">
    <defs>
     <path id="me30c7f10ac" d="M 11.549328 -154.544804 
L 11.549328 -154.544804 
L 19.106063 -154.544804 
L 26.662799 -154.544804 
L 34.219534 -154.544804 
L 41.77627 -154.544804 
L 49.333005 -154.544804 
L 56.88974 -154.544804 
L 64.446476 -154.544804 
L 72.003211 -154.544804 
L 79.559947 -154.544804 
L 87.116682 -154.544804 
L 94.673418 -154.544804 
L 102.230153 -154.544804 
L 109.786889 -154.544804 
L 117.343624 -154.544804 
L 124.90036 -154.544804 
L 132.457095 -154.544804 
L 140.01383 -154.544804 
L 147.570566 -154.544804 
L 155.127301 -154.544804 
L 162.684037 -154.544804 
L 170.240772 -154.544804 
L 170.240772 -154.544804 
L 170.240772 -154.544804 
L 162.684037 -165.759019 
L 155.127301 -154.544804 
L 147.570566 -165.759019 
L 140.01383 -154.544804 
L 132.457095 -165.759019 
L 124.90036 -154.544804 
L 117.343624 -165.759019 
L 109.786889 -154.544804 
L 102.230153 -154.544804 
L 94.673418 -165.759019 
L 87.116682 -165.759019 
L 79.559947 -154.544804 
L 72.003211 -154.544804 
L 64.446476 -165.759019 
L 56.88974 -165.759019 
L 49.333005 -165.759019 
L 41.77627 -210.615878 
L 34.219534 -199.401663 
L 26.662799 -165.759019 
L 19.106063 -165.759019 
L 11.549328 -154.544804 
z
" style="stroke: #924bce; stroke-opacity: 0.7"/>
    </defs>
    <g clip-path="url(#pb08249bc89)">
     <use xlink:href="#me30c7f10ac" x="0" y="337.40125" style="fill: #924bce; fill-opacity: 0.7; stroke: #924bce; stroke-opacity: 0.7"/>
    </g>
   </g>
   <g id="line2d_27">
    <path d="M 11.549328 182.856446 
L 19.106063 182.856446 
L 26.662799 182.856446 
L 34.219534 182.856446 
L 41.77627 182.856446 
L 49.333005 182.856446 
L 56.88974 182.856446 
L 64.446476 182.856446 
L 72.003211 182.856446 
L 79.559947 182.856446 
L 87.116682 182.856446 
L 94.673418 182.856446 
L 102.230153 182.856446 
L 109.786889 182.856446 
L 117.343624 182.856446 
L 124.90036 182.856446 
L 132.457095 182.856446 
L 140.01383 182.856446 
L 147.570566 182.856446 
L 155.127301 182.856446 
L 162.684037 182.856446 
L 170.240772 182.856446 
" clip-path="url(#pb08249bc89)" style="fill: none; stroke: #924bce; stroke-opacity: 0.7; stroke-width: 1.5; stroke-linecap: square"/>
   </g>
   <g id="line2d_28">
    <path d="M 11.549328 182.856446 
L 19.106063 171.642231 
L 26.662799 171.642231 
L 34.219534 137.999587 
L 41.77627 126.785372 
L 49.333005 171.642231 
L 56.88974 171.642231 
L 64.446476 171.642231 
L 72.003211 182.856446 
L 79.559947 182.856446 
L 87.116682 171.642231 
L 94.673418 171.642231 
L 102.230153 182.856446 
L 109.786889 182.856446 
L 117.343624 171.642231 
L 124.90036 182.856446 
L 132.457095 171.642231 
L 140.01383 182.856446 
L 147.570566 171.642231 
L 155.127301 182.856446 
L 162.684037 171.642231 
L 170.240772 182.856446 
" clip-path="url(#pb08249bc89)" style="fill: none; stroke: #000000; stroke-opacity: 0.7; stroke-width: 1.5; stroke-linecap: square"/>
   </g>
  </g>
  <g id="axes_13">
   <g id="FillBetweenPolyCollection_12">
    <defs>
     <path id="m1c66c5fcbe" d="M 25.567045 -142.866622 
L 25.567045 -142.866622 
L 32.358674 -142.866622 
L 39.150303 -142.866622 
L 45.941932 -142.866622 
L 52.733561 -142.866622 
L 59.52519 -142.866622 
L 66.316819 -142.866622 
L 73.108448 -142.866622 
L 79.900077 -142.866622 
L 86.691706 -142.866622 
L 93.483335 -142.866622 
L 100.274965 -142.866622 
L 107.066594 -142.866622 
L 113.858223 -142.866622 
L 120.649852 -142.866622 
L 127.441481 -142.866622 
L 134.23311 -142.866622 
L 141.024739 -142.866622 
L 147.816368 -142.866622 
L 154.607997 -142.866622 
L 161.399626 -142.866622 
L 168.191255 -142.866622 
L 168.191255 -142.866622 
L 168.191255 -142.866622 
L 161.399626 -156.88439 
L 154.607997 -142.866622 
L 147.816368 -142.866622 
L 141.024739 -156.88439 
L 134.23311 -156.88439 
L 127.441481 -156.88439 
L 120.649852 -142.866622 
L 113.858223 -142.866622 
L 107.066594 -170.902159 
L 100.274965 -142.866622 
L 93.483335 -142.866622 
L 86.691706 -142.866622 
L 79.900077 -142.866622 
L 73.108448 -156.88439 
L 66.316819 -156.88439 
L 59.52519 -170.902159 
L 52.733561 -156.88439 
L 45.941932 -198.937696 
L 39.150303 -198.937696 
L 32.358674 -156.88439 
L 25.567045 -142.866622 
z
" style="stroke: #924bce; stroke-opacity: 0.727273"/>
    </defs>
    <g clip-path="url(#pcff5e989b1)">
     <use xlink:href="#m1c66c5fcbe" x="0" y="337.40125" style="fill: #924bce; fill-opacity: 0.727273; stroke: #924bce; stroke-opacity: 0.727273"/>
    </g>
   </g>
   <g id="line2d_29">
    <path d="M 25.567045 194.534628 
L 32.358674 194.534628 
L 39.150303 194.534628 
L 45.941932 194.534628 
L 52.733561 194.534628 
L 59.52519 194.534628 
L 66.316819 194.534628 
L 73.108448 194.534628 
L 79.900077 194.534628 
L 86.691706 194.534628 
L 93.483335 194.534628 
L 100.274965 194.534628 
L 107.066594 194.534628 
L 113.858223 194.534628 
L 120.649852 194.534628 
L 127.441481 194.534628 
L 134.23311 194.534628 
L 141.024739 194.534628 
L 147.816368 194.534628 
L 154.607997 194.534628 
L 161.399626 194.534628 
L 168.191255 194.534628 
" clip-path="url(#pcff5e989b1)" style="fill: none; stroke: #924bce; stroke-opacity: 0.727273; stroke-width: 1.5; stroke-linecap: square"/>
   </g>
   <g id="line2d_30">
    <path d="M 25.567045 194.534628 
L 32.358674 180.51686 
L 39.150303 138.463554 
L 45.941932 138.463554 
L 52.733561 180.51686 
L 59.52519 166.499091 
L 66.316819 180.51686 
L 73.108448 180.51686 
L 79.900077 194.534628 
L 86.691706 194.534628 
L 93.483335 194.534628 
L 100.274965 194.534628 
L 107.066594 166.499091 
L 113.858223 194.534628 
L 120.649852 194.534628 
L 127.441481 180.51686 
L 134.23311 180.51686 
L 141.024739 180.51686 
L 147.816368 194.534628 
L 154.607997 194.534628 
L 161.399626 180.51686 
L 168.191255 194.534628 
" clip-path="url(#pcff5e989b1)" style="fill: none; stroke: #000000; stroke-opacity: 0.727273; stroke-width: 1.5; stroke-linecap: square"/>
   </g>
  </g>
  <g id="axes_14">
   <g id="FillBetweenPolyCollection_13">
    <defs>
     <path id="maa3d6b127c" d="M 25.051583 -131.18844 
L 25.051583 -131.18844 
L 33.728578 -131.18844 
L 42.405573 -131.18844 
L 51.082568 -131.18844 
L 59.759563 -131.18844 
L 68.436558 -131.18844 
L 77.113553 -131.18844 
L 85.790548 -131.18844 
L 94.467543 -131.18844 
L 103.144538 -131.18844 
L 111.821533 -131.18844 
L 120.498527 -131.18844 
L 129.175522 -131.18844 
L 137.852517 -131.18844 
L 146.529512 -131.18844 
L 155.206507 -131.18844 
L 163.883502 -131.18844 
L 172.560497 -131.18844 
L 181.237492 -131.18844 
L 189.914487 -131.18844 
L 198.591482 -131.18844 
L 207.268477 -131.18844 
L 207.268477 -131.18844 
L 207.268477 -131.18844 
L 198.591482 -142.402655 
L 189.914487 -131.18844 
L 181.237492 -131.18844 
L 172.560497 -131.18844 
L 163.883502 -142.402655 
L 155.206507 -164.831085 
L 146.529512 -131.18844 
L 137.852517 -131.18844 
L 129.175522 -131.18844 
L 120.498527 -142.402655 
L 111.821533 -131.18844 
L 103.144538 -131.18844 
L 94.467543 -142.402655 
L 85.790548 -142.402655 
L 77.113553 -142.402655 
L 68.436558 -153.61687 
L 59.759563 -142.402655 
L 51.082568 -153.61687 
L 42.405573 -187.259514 
L 33.728578 -142.402655 
L 25.051583 -131.18844 
z
" style="stroke: #924bce; stroke-opacity: 0.754545"/>
    </defs>
    <g clip-path="url(#p11a01fa41b)">
     <use xlink:href="#maa3d6b127c" x="0" y="337.40125" style="fill: #924bce; fill-opacity: 0.754545; stroke: #924bce; stroke-opacity: 0.754545"/>
    </g>
   </g>
   <g id="line2d_31">
    <path d="M 25.051583 206.21281 
L 33.728578 206.21281 
L 42.405573 206.21281 
L 51.082568 206.21281 
L 59.759563 206.21281 
L 68.436558 206.21281 
L 77.113553 206.21281 
L 85.790548 206.21281 
L 94.467543 206.21281 
L 103.144538 206.21281 
L 111.821533 206.21281 
L 120.498527 206.21281 
L 129.175522 206.21281 
L 137.852517 206.21281 
L 146.529512 206.21281 
L 155.206507 206.21281 
L 163.883502 206.21281 
L 172.560497 206.21281 
L 181.237492 206.21281 
L 189.914487 206.21281 
L 198.591482 206.21281 
L 207.268477 206.21281 
" clip-path="url(#p11a01fa41b)" style="fill: none; stroke: #924bce; stroke-opacity: 0.754545; stroke-width: 1.5; stroke-linecap: square"/>
   </g>
   <g id="line2d_32">
    <path d="M 25.051583 206.21281 
L 33.728578 194.998595 
L 42.405573 150.141736 
L 51.082568 183.78438 
L 59.759563 194.998595 
L 68.436558 183.78438 
L 77.113553 194.998595 
L 85.790548 194.998595 
L 94.467543 194.998595 
L 103.144538 206.21281 
L 111.821533 206.21281 
L 120.498527 194.998595 
L 129.175522 206.21281 
L 137.852517 206.21281 
L 146.529512 206.21281 
L 155.206507 172.570165 
L 163.883502 194.998595 
L 172.560497 206.21281 
L 181.237492 206.21281 
L 189.914487 206.21281 
L 198.591482 194.998595 
L 207.268477 206.21281 
" clip-path="url(#p11a01fa41b)" style="fill: none; stroke: #000000; stroke-opacity: 0.754545; stroke-width: 1.5; stroke-linecap: square"/>
   </g>
  </g>
  <g id="axes_15">
   <g id="FillBetweenPolyCollection_14">
    <defs>
     <path id="m03c024e340" d="M 18.264596 -119.510258 
L 18.264596 -119.510258 
L 31.799193 -119.510258 
L 45.33379 -119.510258 
L 58.868386 -119.510258 
L 72.402983 -119.510258 
L 85.93758 -119.510258 
L 99.472177 -119.510258 
L 113.006774 -119.510258 
L 126.54137 -119.510258 
L 140.075967 -119.510258 
L 153.610564 -119.510258 
L 167.145161 -119.510258 
L 180.679758 -119.510258 
L 194.214355 -119.510258 
L 207.748951 -119.510258 
L 221.283548 -119.510258 
L 234.818145 -119.510258 
L 248.352742 -119.510258 
L 261.887339 -119.510258 
L 275.421935 -119.510258 
L 288.956532 -119.510258 
L 302.491129 -119.510258 
L 302.491129 -119.510258 
L 302.491129 -119.510258 
L 288.956532 -128.855437 
L 275.421935 -119.510258 
L 261.887339 -119.510258 
L 248.352742 -138.200616 
L 234.818145 -138.200616 
L 221.283548 -119.510258 
L 207.748951 -119.510258 
L 194.214355 -128.855437 
L 180.679758 -119.510258 
L 167.145161 -119.510258 
L 153.610564 -119.510258 
L 140.075967 -119.510258 
L 126.54137 -119.510258 
L 113.006774 -128.855437 
L 99.472177 -119.510258 
L 85.93758 -138.200616 
L 72.402983 -138.200616 
L 58.868386 -175.581333 
L 45.33379 -138.200616 
L 31.799193 -128.855437 
L 18.264596 -119.510258 
z
" style="stroke: #924bce; stroke-opacity: 0.781818"/>
    </defs>
    <g clip-path="url(#p0cb6ae775c)">
     <use xlink:href="#m03c024e340" x="0" y="337.40125" style="fill: #924bce; fill-opacity: 0.781818; stroke: #924bce; stroke-opacity: 0.781818"/>
    </g>
   </g>
   <g id="line2d_33">
    <path d="M 18.264596 217.890992 
L 31.799193 217.890992 
L 45.33379 217.890992 
L 58.868386 217.890992 
L 72.402983 217.890992 
L 85.93758 217.890992 
L 99.472177 217.890992 
L 113.006774 217.890992 
L 126.54137 217.890992 
L 140.075967 217.890992 
L 153.610564 217.890992 
L 167.145161 217.890992 
L 180.679758 217.890992 
L 194.214355 217.890992 
L 207.748951 217.890992 
L 221.283548 217.890992 
L 234.818145 217.890992 
L 248.352742 217.890992 
L 261.887339 217.890992 
L 275.421935 217.890992 
L 288.956532 217.890992 
L 302.491129 217.890992 
" clip-path="url(#p0cb6ae775c)" style="fill: none; stroke: #924bce; stroke-opacity: 0.781818; stroke-width: 1.5; stroke-linecap: square"/>
   </g>
   <g id="line2d_34">
    <path d="M 18.264596 217.890992 
L 31.799193 208.545813 
L 45.33379 199.200634 
L 58.868386 161.819917 
L 72.402983 199.200634 
L 85.93758 199.200634 
L 99.472177 217.890992 
L 113.006774 208.545813 
L 126.54137 217.890992 
L 140.075967 217.890992 
L 153.610564 217.890992 
L 167.145161 217.890992 
L 180.679758 217.890992 
L 194.214355 208.545813 
L 207.748951 217.890992 
L 221.283548 217.890992 
L 234.818145 199.200634 
L 248.352742 199.200634 
L 261.887339 217.890992 
L 275.421935 217.890992 
L 288.956532 208.545813 
L 302.491129 217.890992 
" clip-path="url(#p0cb6ae775c)" style="fill: none; stroke: #000000; stroke-opacity: 0.781818; stroke-width: 1.5; stroke-linecap: square"/>
   </g>
  </g>
  <g id="axes_16">
   <g id="FillBetweenPolyCollection_15">
    <defs>
     <path id="mf1a1b25d9c" d="M 16.518027 -107.832076 
L 16.518027 -107.832076 
L 32.793382 -107.832076 
L 49.068736 -107.832076 
L 65.344091 -107.832076 
L 81.619445 -107.832076 
L 97.8948 -107.832076 
L 114.170155 -107.832076 
L 130.445509 -107.832076 
L 146.720864 -107.832076 
L 162.996218 -107.832076 
L 179.271573 -107.832076 
L 195.546927 -107.832076 
L 211.822282 -107.832076 
L 228.097636 -107.832076 
L 244.372991 -107.832076 
L 260.648345 -107.832076 
L 276.9237 -107.832076 
L 293.199055 -107.832076 
L 309.474409 -107.832076 
L 325.749764 -107.832076 
L 342.025118 -107.832076 
L 358.300473 -107.832076 
L 358.300473 -107.832076 
L 358.300473 -107.832076 
L 342.025118 -121.849845 
L 325.749764 -135.867614 
L 309.474409 -107.832076 
L 293.199055 -107.832076 
L 276.9237 -107.832076 
L 260.648345 -121.849845 
L 244.372991 -107.832076 
L 228.097636 -121.849845 
L 211.822282 -107.832076 
L 195.546927 -121.849845 
L 179.271573 -107.832076 
L 162.996218 -107.832076 
L 146.720864 -121.849845 
L 130.445509 -121.849845 
L 114.170155 -107.832076 
L 97.8948 -163.903151 
L 81.619445 -149.885382 
L 65.344091 -149.885382 
L 49.068736 -121.849845 
L 32.793382 -121.849845 
L 16.518027 -107.832076 
z
" style="stroke: #924bce; stroke-opacity: 0.809091"/>
    </defs>
    <g clip-path="url(#p56736c0745)">
     <use xlink:href="#mf1a1b25d9c" x="0" y="337.40125" style="fill: #924bce; fill-opacity: 0.809091; stroke: #924bce; stroke-opacity: 0.809091"/>
    </g>
   </g>
   <g id="line2d_35">
    <path d="M 16.518027 229.569174 
L 32.793382 229.569174 
L 49.068736 229.569174 
L 65.344091 229.569174 
L 81.619445 229.569174 
L 97.8948 229.569174 
L 114.170155 229.569174 
L 130.445509 229.569174 
L 146.720864 229.569174 
L 162.996218 229.569174 
L 179.271573 229.569174 
L 195.546927 229.569174 
L 211.822282 229.569174 
L 228.097636 229.569174 
L 244.372991 229.569174 
L 260.648345 229.569174 
L 276.9237 229.569174 
L 293.199055 229.569174 
L 309.474409 229.569174 
L 325.749764 229.569174 
L 342.025118 229.569174 
L 358.300473 229.569174 
" clip-path="url(#p56736c0745)" style="fill: none; stroke: #924bce; stroke-opacity: 0.809091; stroke-width: 1.5; stroke-linecap: square"/>
   </g>
   <g id="line2d_36">
    <path d="M 16.518027 229.569174 
L 32.793382 215.551405 
L 49.068736 215.551405 
L 65.344091 187.515868 
L 81.619445 187.515868 
L 97.8948 173.498099 
L 114.170155 229.569174 
L 130.445509 215.551405 
L 146.720864 215.551405 
L 162.996218 229.569174 
L 179.271573 229.569174 
L 195.546927 215.551405 
L 211.822282 229.569174 
L 228.097636 215.551405 
L 244.372991 229.569174 
L 260.648345 215.551405 
L 276.9237 229.569174 
L 293.199055 229.569174 
L 309.474409 229.569174 
L 325.749764 201.533636 
L 342.025118 215.551405 
L 358.300473 229.569174 
" clip-path="url(#p56736c0745)" style="fill: none; stroke: #000000; stroke-opacity: 0.809091; stroke-width: 1.5; stroke-linecap: square"/>
   </g>
  </g>
  <g id="axes_17">
   <g id="FillBetweenPolyCollection_16">
    <defs>
     <path id="m2c311e375a" d="M 27.050842 -96.153895 
L 27.050842 -96.153895 
L 40.696985 -96.153895 
L 54.343129 -96.153895 
L 67.989273 -96.153895 
L 81.635416 -96.153895 
L 95.28156 -96.153895 
L 108.927704 -96.153895 
L 122.573847 -96.153895 
L 136.219991 -96.153895 
L 149.866135 -96.153895 
L 163.512278 -96.153895 
L 177.158422 -96.153895 
L 190.804565 -96.153895 
L 204.450709 -96.153895 
L 218.096853 -96.153895 
L 231.742996 -96.153895 
L 245.38914 -96.153895 
L 259.035284 -96.153895 
L 272.681427 -96.153895 
L 286.327571 -96.153895 
L 299.973715 -96.153895 
L 313.619858 -96.153895 
L 313.619858 -96.153895 
L 313.619858 -96.153895 
L 299.973715 -110.171663 
L 286.327571 -110.171663 
L 272.681427 -96.153895 
L 259.035284 -96.153895 
L 245.38914 -96.153895 
L 231.742996 -110.171663 
L 218.096853 -96.153895 
L 204.450709 -110.171663 
L 190.804565 -110.171663 
L 177.158422 -110.171663 
L 163.512278 -96.153895 
L 149.866135 -96.153895 
L 136.219991 -96.153895 
L 122.573847 -124.189432 
L 108.927704 -96.153895 
L 95.28156 -124.189432 
L 81.635416 -124.189432 
L 67.989273 -152.224969 
L 54.343129 -124.189432 
L 40.696985 -124.189432 
L 27.050842 -96.153895 
z
" style="stroke: #924bce; stroke-opacity: 0.836364"/>
    </defs>
    <g clip-path="url(#p070a013ed3)">
     <use xlink:href="#m2c311e375a" x="0" y="337.40125" style="fill: #924bce; fill-opacity: 0.836364; stroke: #924bce; stroke-opacity: 0.836364"/>
    </g>
   </g>
   <g id="line2d_37">
    <path d="M 27.050842 241.247355 
L 40.696985 241.247355 
L 54.343129 241.247355 
L 67.989273 241.247355 
L 81.635416 241.247355 
L 95.28156 241.247355 
L 108.927704 241.247355 
L 122.573847 241.247355 
L 136.219991 241.247355 
L 149.866135 241.247355 
L 163.512278 241.247355 
L 177.158422 241.247355 
L 190.804565 241.247355 
L 204.450709 241.247355 
L 218.096853 241.247355 
L 231.742996 241.247355 
L 245.38914 241.247355 
L 259.035284 241.247355 
L 272.681427 241.247355 
L 286.327571 241.247355 
L 299.973715 241.247355 
L 313.619858 241.247355 
" clip-path="url(#p070a013ed3)" style="fill: none; stroke: #924bce; stroke-opacity: 0.836364; stroke-width: 1.5; stroke-linecap: square"/>
   </g>
   <g id="line2d_38">
    <path d="M 27.050842 241.247355 
L 40.696985 213.211818 
L 54.343129 213.211818 
L 67.989273 185.176281 
L 81.635416 213.211818 
L 95.28156 213.211818 
L 108.927704 241.247355 
L 122.573847 213.211818 
L 136.219991 241.247355 
L 149.866135 241.247355 
L 163.512278 241.247355 
L 177.158422 227.229587 
L 190.804565 227.229587 
L 204.450709 227.229587 
L 218.096853 241.247355 
L 231.742996 227.229587 
L 245.38914 241.247355 
L 259.035284 241.247355 
L 272.681427 241.247355 
L 286.327571 227.229587 
L 299.973715 227.229587 
L 313.619858 241.247355 
" clip-path="url(#p070a013ed3)" style="fill: none; stroke: #000000; stroke-opacity: 0.836364; stroke-width: 1.5; stroke-linecap: square"/>
   </g>
  </g>
  <g id="axes_18">
   <g id="FillBetweenPolyCollection_17">
    <defs>
     <path id="me6ca20f361" d="M 25.395357 -84.475713 
L 25.395357 -84.475713 
L 38.986102 -84.475713 
L 52.576846 -84.475713 
L 66.167591 -84.475713 
L 79.758335 -84.475713 
L 93.34908 -84.475713 
L 106.939825 -84.475713 
L 120.530569 -84.475713 
L 134.121314 -84.475713 
L 147.712058 -84.475713 
L 161.302803 -84.475713 
L 174.893547 -84.475713 
L 188.484292 -84.475713 
L 202.075036 -84.475713 
L 215.665781 -84.475713 
L 229.256525 -84.475713 
L 242.84727 -84.475713 
L 256.438015 -84.475713 
L 270.028759 -84.475713 
L 283.619504 -84.475713 
L 297.210248 -84.475713 
L 310.800993 -84.475713 
L 310.800993 -84.475713 
L 310.800993 -84.475713 
L 297.210248 -103.166071 
L 283.619504 -84.475713 
L 270.028759 -103.166071 
L 256.438015 -103.166071 
L 242.84727 -84.475713 
L 229.256525 -84.475713 
L 215.665781 -103.166071 
L 202.075036 -103.166071 
L 188.484292 -84.475713 
L 174.893547 -103.166071 
L 161.302803 -84.475713 
L 147.712058 -121.856429 
L 134.121314 -103.166071 
L 120.530569 -103.166071 
L 106.939825 -84.475713 
L 93.34908 -121.856429 
L 79.758335 -140.546787 
L 66.167591 -121.856429 
L 52.576846 -121.856429 
L 38.986102 -103.166071 
L 25.395357 -84.475713 
z
" style="stroke: #924bce; stroke-opacity: 0.863636"/>
    </defs>
    <g clip-path="url(#p0052a24960)">
     <use xlink:href="#me6ca20f361" x="0" y="337.40125" style="fill: #924bce; fill-opacity: 0.863636; stroke: #924bce; stroke-opacity: 0.863636"/>
    </g>
   </g>
   <g id="line2d_39">
    <path d="M 25.395357 252.925537 
L 38.986102 252.925537 
L 52.576846 252.925537 
L 66.167591 252.925537 
L 79.758335 252.925537 
L 93.34908 252.925537 
L 106.939825 252.925537 
L 120.530569 252.925537 
L 134.121314 252.925537 
L 147.712058 252.925537 
L 161.302803 252.925537 
L 174.893547 252.925537 
L 188.484292 252.925537 
L 202.075036 252.925537 
L 215.665781 252.925537 
L 229.256525 252.925537 
L 242.84727 252.925537 
L 256.438015 252.925537 
L 270.028759 252.925537 
L 283.619504 252.925537 
L 297.210248 252.925537 
L 310.800993 252.925537 
" clip-path="url(#p0052a24960)" style="fill: none; stroke: #924bce; stroke-opacity: 0.863636; stroke-width: 1.5; stroke-linecap: square"/>
   </g>
   <g id="line2d_40">
    <path d="M 25.395357 252.925537 
L 38.986102 234.235179 
L 52.576846 215.544821 
L 66.167591 215.544821 
L 79.758335 196.854463 
L 93.34908 215.544821 
L 106.939825 252.925537 
L 120.530569 234.235179 
L 134.121314 234.235179 
L 147.712058 215.544821 
L 161.302803 252.925537 
L 174.893547 234.235179 
L 188.484292 252.925537 
L 202.075036 234.235179 
L 215.665781 234.235179 
L 229.256525 252.925537 
L 242.84727 252.925537 
L 256.438015 234.235179 
L 270.028759 234.235179 
L 283.619504 252.925537 
L 297.210248 234.235179 
L 310.800993 252.925537 
" clip-path="url(#p0052a24960)" style="fill: none; stroke: #000000; stroke-opacity: 0.863636; stroke-width: 1.5; stroke-linecap: square"/>
   </g>
  </g>
  <g id="axes_19">
   <g id="FillBetweenPolyCollection_18">
    <defs>
     <path id="ma53d9ce96a" d="M 27.828176 -72.797531 
L 27.828176 -72.797531 
L 40.736913 -72.797531 
L 53.64565 -72.797531 
L 66.554386 -72.797531 
L 79.463123 -72.797531 
L 92.37186 -72.797531 
L 105.280597 -72.797531 
L 118.189334 -72.797531 
L 131.09807 -72.797531 
L 144.006807 -72.797531 
L 156.915544 -72.797531 
L 169.824281 -72.797531 
L 182.733018 -72.797531 
L 195.641755 -72.797531 
L 208.550491 -72.797531 
L 221.459228 -72.797531 
L 234.367965 -72.797531 
L 247.276702 -72.797531 
L 260.185439 -72.797531 
L 273.094175 -72.797531 
L 286.002912 -72.797531 
L 298.911649 -72.797531 
L 298.911649 -72.797531 
L 298.911649 -72.797531 
L 286.002912 -91.487889 
L 273.094175 -72.797531 
L 260.185439 -110.178247 
L 247.276702 -72.797531 
L 234.367965 -72.797531 
L 221.459228 -91.487889 
L 208.550491 -72.797531 
L 195.641755 -91.487889 
L 182.733018 -72.797531 
L 169.824281 -91.487889 
L 156.915544 -91.487889 
L 144.006807 -110.178247 
L 131.09807 -72.797531 
L 118.189334 -72.797531 
L 105.280597 -110.178247 
L 92.37186 -128.868605 
L 79.463123 -128.868605 
L 66.554386 -72.797531 
L 53.64565 -110.178247 
L 40.736913 -91.487889 
L 27.828176 -72.797531 
z
" style="stroke: #924bce; stroke-opacity: 0.890909"/>
    </defs>
    <g clip-path="url(#p171dd07618)">
     <use xlink:href="#ma53d9ce96a" x="0" y="337.40125" style="fill: #924bce; fill-opacity: 0.890909; stroke: #924bce; stroke-opacity: 0.890909"/>
    </g>
   </g>
   <g id="line2d_41">
    <path d="M 27.828176 264.603719 
L 40.736913 264.603719 
L 53.64565 264.603719 
L 66.554386 264.603719 
L 79.463123 264.603719 
L 92.37186 264.603719 
L 105.280597 264.603719 
L 118.189334 264.603719 
L 131.09807 264.603719 
L 144.006807 264.603719 
L 156.915544 264.603719 
L 169.824281 264.603719 
L 182.733018 264.603719 
L 195.641755 264.603719 
L 208.550491 264.603719 
L 221.459228 264.603719 
L 234.367965 264.603719 
L 247.276702 264.603719 
L 260.185439 264.603719 
L 273.094175 264.603719 
L 286.002912 264.603719 
L 298.911649 264.603719 
" clip-path="url(#p171dd07618)" style="fill: none; stroke: #924bce; stroke-opacity: 0.890909; stroke-width: 1.5; stroke-linecap: square"/>
   </g>
   <g id="line2d_42">
    <path d="M 27.828176 264.603719 
L 40.736913 245.913361 
L 53.64565 227.223003 
L 66.554386 264.603719 
L 79.463123 208.532645 
L 92.37186 208.532645 
L 105.280597 227.223003 
L 118.189334 264.603719 
L 131.09807 264.603719 
L 144.006807 227.223003 
L 156.915544 245.913361 
L 169.824281 245.913361 
L 182.733018 264.603719 
L 195.641755 245.913361 
L 208.550491 264.603719 
L 221.459228 245.913361 
L 234.367965 264.603719 
L 247.276702 264.603719 
L 260.185439 227.223003 
L 273.094175 264.603719 
L 286.002912 245.913361 
L 298.911649 264.603719 
" clip-path="url(#p171dd07618)" style="fill: none; stroke: #000000; stroke-opacity: 0.890909; stroke-width: 1.5; stroke-linecap: square"/>
   </g>
  </g>
  <g id="axes_20">
   <g id="FillBetweenPolyCollection_19">
    <defs>
     <path id="maa1a914e4a" d="M 68.811775 -61.119349 
L 68.811775 -61.119349 
L 81.730244 -61.119349 
L 94.648713 -61.119349 
L 107.567182 -61.119349 
L 120.485651 -61.119349 
L 133.40412 -61.119349 
L 146.322589 -61.119349 
L 159.241058 -61.119349 
L 172.159527 -61.119349 
L 185.077996 -61.119349 
L 197.996465 -61.119349 
L 210.914935 -61.119349 
L 223.833404 -61.119349 
L 236.751873 -61.119349 
L 249.670342 -61.119349 
L 262.588811 -61.119349 
L 275.50728 -61.119349 
L 288.425749 -61.119349 
L 301.344218 -61.119349 
L 314.262687 -61.119349 
L 327.181156 -61.119349 
L 340.099625 -61.119349 
L 340.099625 -61.119349 
L 340.099625 -61.119349 
L 327.181156 -75.137118 
L 314.262687 -61.119349 
L 301.344218 -61.119349 
L 288.425749 -61.119349 
L 275.50728 -89.154886 
L 262.588811 -61.119349 
L 249.670342 -61.119349 
L 236.751873 -75.137118 
L 223.833404 -75.137118 
L 210.914935 -61.119349 
L 197.996465 -61.119349 
L 185.077996 -75.137118 
L 172.159527 -61.119349 
L 159.241058 -75.137118 
L 146.322589 -117.190424 
L 133.40412 -75.137118 
L 120.485651 -89.154886 
L 107.567182 -103.172655 
L 94.648713 -89.154886 
L 81.730244 -75.137118 
L 68.811775 -61.119349 
z
" style="stroke: #924bce; stroke-opacity: 0.918182"/>
    </defs>
    <g clip-path="url(#p41910b7140)">
     <use xlink:href="#maa1a914e4a" x="0" y="337.40125" style="fill: #924bce; fill-opacity: 0.918182; stroke: #924bce; stroke-opacity: 0.918182"/>
    </g>
   </g>
   <g id="line2d_43">
    <path d="M 68.811775 276.281901 
L 81.730244 276.281901 
L 94.648713 276.281901 
L 107.567182 276.281901 
L 120.485651 276.281901 
L 133.40412 276.281901 
L 146.322589 276.281901 
L 159.241058 276.281901 
L 172.159527 276.281901 
L 185.077996 276.281901 
L 197.996465 276.281901 
L 210.914935 276.281901 
L 223.833404 276.281901 
L 236.751873 276.281901 
L 249.670342 276.281901 
L 262.588811 276.281901 
L 275.50728 276.281901 
L 288.425749 276.281901 
L 301.344218 276.281901 
L 314.262687 276.281901 
L 327.181156 276.281901 
L 340.099625 276.281901 
" clip-path="url(#p41910b7140)" style="fill: none; stroke: #924bce; stroke-opacity: 0.918182; stroke-width: 1.5; stroke-linecap: square"/>
   </g>
   <g id="line2d_44">
    <path d="M 68.811775 276.281901 
L 81.730244 262.264132 
L 94.648713 248.246364 
L 107.567182 234.228595 
L 120.485651 248.246364 
L 133.40412 262.264132 
L 146.322589 220.210826 
L 159.241058 262.264132 
L 172.159527 276.281901 
L 185.077996 262.264132 
L 197.996465 276.281901 
L 210.914935 276.281901 
L 223.833404 262.264132 
L 236.751873 262.264132 
L 249.670342 276.281901 
L 262.588811 276.281901 
L 275.50728 248.246364 
L 288.425749 276.281901 
L 301.344218 276.281901 
L 314.262687 276.281901 
L 327.181156 262.264132 
L 340.099625 276.281901 
" clip-path="url(#p41910b7140)" style="fill: none; stroke: #000000; stroke-opacity: 0.918182; stroke-width: 1.5; stroke-linecap: square"/>
   </g>
  </g>
  <g id="axes_21">
   <g id="FillBetweenPolyCollection_20">
    <defs>
     <path id="me79c8e8403" d="M 19.543017 -49.441167 
L 19.543017 -49.441167 
L 39.293542 -49.441167 
L 59.044066 -49.441167 
L 78.794591 -49.441167 
L 98.545115 -49.441167 
L 118.29564 -49.441167 
L 138.046165 -49.441167 
L 157.796689 -49.441167 
L 177.547214 -49.441167 
L 197.297738 -49.441167 
L 217.048263 -49.441167 
L 236.798787 -49.441167 
L 256.549312 -49.441167 
L 276.299836 -49.441167 
L 296.050361 -49.441167 
L 315.800885 -49.441167 
L 335.55141 -49.441167 
L 355.301935 -49.441167 
L 375.052459 -49.441167 
L 394.802984 -49.441167 
L 414.553508 -49.441167 
L 434.304033 -49.441167 
L 434.304033 -49.441167 
L 434.304033 -49.441167 
L 414.553508 -63.458936 
L 394.802984 -49.441167 
L 375.052459 -49.441167 
L 355.301935 -49.441167 
L 335.55141 -63.458936 
L 315.800885 -49.441167 
L 296.050361 -49.441167 
L 276.299836 -77.476705 
L 256.549312 -49.441167 
L 236.798787 -77.476705 
L 217.048263 -49.441167 
L 197.297738 -63.458936 
L 177.547214 -63.458936 
L 157.796689 -63.458936 
L 138.046165 -105.512242 
L 118.29564 -105.512242 
L 98.545115 -49.441167 
L 78.794591 -63.458936 
L 59.044066 -49.441167 
L 39.293542 -77.476705 
L 19.543017 -49.441167 
z
" style="stroke: #924bce; stroke-opacity: 0.945455"/>
    </defs>
    <g clip-path="url(#p6017db76f3)">
     <use xlink:href="#me79c8e8403" x="0" y="337.40125" style="fill: #924bce; fill-opacity: 0.945455; stroke: #924bce; stroke-opacity: 0.945455"/>
    </g>
   </g>
   <g id="line2d_45">
    <path d="M 19.543017 287.960083 
L 39.293542 287.960083 
L 59.044066 287.960083 
L 78.794591 287.960083 
L 98.545115 287.960083 
L 118.29564 287.960083 
L 138.046165 287.960083 
L 157.796689 287.960083 
L 177.547214 287.960083 
L 197.297738 287.960083 
L 217.048263 287.960083 
L 236.798787 287.960083 
L 256.549312 287.960083 
L 276.299836 287.960083 
L 296.050361 287.960083 
L 315.800885 287.960083 
L 335.55141 287.960083 
L 355.301935 287.960083 
L 375.052459 287.960083 
L 394.802984 287.960083 
L 414.553508 287.960083 
L 434.304033 287.960083 
" clip-path="url(#p6017db76f3)" style="fill: none; stroke: #924bce; stroke-opacity: 0.945455; stroke-width: 1.5; stroke-linecap: square"/>
   </g>
   <g id="line2d_46">
    <path d="M 19.543017 287.960083 
L 39.293542 259.924545 
L 59.044066 287.960083 
L 78.794591 273.942314 
L 98.545115 287.960083 
L 118.29564 231.889008 
L 138.046165 231.889008 
L 157.796689 273.942314 
L 177.547214 273.942314 
L 197.297738 273.942314 
L 217.048263 287.960083 
L 236.798787 259.924545 
L 256.549312 287.960083 
L 276.299836 259.924545 
L 296.050361 287.960083 
L 315.800885 287.960083 
L 335.55141 273.942314 
L 355.301935 287.960083 
L 375.052459 287.960083 
L 394.802984 287.960083 
L 414.553508 273.942314 
L 434.304033 287.960083 
" clip-path="url(#p6017db76f3)" style="fill: none; stroke: #000000; stroke-opacity: 0.945455; stroke-width: 1.5; stroke-linecap: square"/>
   </g>
  </g>
  <g id="axes_22">
   <g id="FillBetweenPolyCollection_21">
    <defs>
     <path id="m8ece79a44d" d="M 54.651817 -37.762986 
L 54.651817 -37.762986 
L 71.221385 -37.762986 
L 87.790954 -37.762986 
L 104.360523 -37.762986 
L 120.930091 -37.762986 
L 137.49966 -37.762986 
L 154.069229 -37.762986 
L 170.638797 -37.762986 
L 187.208366 -37.762986 
L 203.777935 -37.762986 
L 220.347503 -37.762986 
L 236.917072 -37.762986 
L 253.48664 -37.762986 
L 270.056209 -37.762986 
L 286.625778 -37.762986 
L 303.195346 -37.762986 
L 319.764915 -37.762986 
L 336.334484 -37.762986 
L 352.904052 -37.762986 
L 369.473621 -37.762986 
L 386.04319 -37.762986 
L 402.612758 -37.762986 
L 402.612758 -37.762986 
L 402.612758 -37.762986 
L 386.04319 -56.453344 
L 369.473621 -37.762986 
L 352.904052 -37.762986 
L 336.334484 -56.453344 
L 319.764915 -56.453344 
L 303.195346 -37.762986 
L 286.625778 -37.762986 
L 270.056209 -56.453344 
L 253.48664 -37.762986 
L 236.917072 -56.453344 
L 220.347503 -56.453344 
L 203.777935 -37.762986 
L 187.208366 -93.83406 
L 170.638797 -37.762986 
L 154.069229 -75.143702 
L 137.49966 -56.453344 
L 120.930091 -93.83406 
L 104.360523 -75.143702 
L 87.790954 -75.143702 
L 71.221385 -56.453344 
L 54.651817 -37.762986 
z
" style="stroke: #924bce; stroke-opacity: 0.972727"/>
    </defs>
    <g clip-path="url(#pa18f07196a)">
     <use xlink:href="#m8ece79a44d" x="0" y="337.40125" style="fill: #924bce; fill-opacity: 0.972727; stroke: #924bce; stroke-opacity: 0.972727"/>
    </g>
   </g>
   <g id="line2d_47">
    <path d="M 54.651817 299.638264 
L 71.221385 299.638264 
L 87.790954 299.638264 
L 104.360523 299.638264 
L 120.930091 299.638264 
L 137.49966 299.638264 
L 154.069229 299.638264 
L 170.638797 299.638264 
L 187.208366 299.638264 
L 203.777935 299.638264 
L 220.347503 299.638264 
L 236.917072 299.638264 
L 253.48664 299.638264 
L 270.056209 299.638264 
L 286.625778 299.638264 
L 303.195346 299.638264 
L 319.764915 299.638264 
L 336.334484 299.638264 
L 352.904052 299.638264 
L 369.473621 299.638264 
L 386.04319 299.638264 
L 402.612758 299.638264 
" clip-path="url(#pa18f07196a)" style="fill: none; stroke: #924bce; stroke-opacity: 0.972727; stroke-width: 1.5; stroke-linecap: square"/>
   </g>
   <g id="line2d_48">
    <path d="M 54.651817 299.638264 
L 71.221385 280.947906 
L 87.790954 262.257548 
L 104.360523 262.257548 
L 120.930091 243.56719 
L 137.49966 280.947906 
L 154.069229 262.257548 
L 170.638797 299.638264 
L 187.208366 243.56719 
L 203.777935 299.638264 
L 220.347503 280.947906 
L 236.917072 280.947906 
L 253.48664 299.638264 
L 270.056209 280.947906 
L 286.625778 299.638264 
L 303.195346 299.638264 
L 319.764915 280.947906 
L 336.334484 280.947906 
L 352.904052 299.638264 
L 369.473621 299.638264 
L 386.04319 280.947906 
L 402.612758 299.638264 
" clip-path="url(#pa18f07196a)" style="fill: none; stroke: #000000; stroke-opacity: 0.972727; stroke-width: 1.5; stroke-linecap: square"/>
   </g>
  </g>
  <g id="axes_23">
   <g id="FillBetweenPolyCollection_22">
    <defs>
     <path id="m07c8dad8fc" d="M 53.824324 -26.084804 
L 53.824324 -26.084804 
L 69.738087 -26.084804 
L 85.65185 -26.084804 
L 101.565614 -26.084804 
L 117.479377 -26.084804 
L 133.39314 -26.084804 
L 149.306903 -26.084804 
L 165.220666 -26.084804 
L 181.13443 -26.084804 
L 197.048193 -26.084804 
L 212.961956 -26.084804 
L 228.875719 -26.084804 
L 244.789482 -26.084804 
L 260.703245 -26.084804 
L 276.617009 -26.084804 
L 292.530772 -26.084804 
L 308.444535 -26.084804 
L 324.358298 -26.084804 
L 340.272061 -26.084804 
L 356.185825 -26.084804 
L 372.099588 -26.084804 
L 388.013351 -26.084804 
L 388.013351 -26.084804 
L 388.013351 -26.084804 
L 372.099588 -40.102572 
L 356.185825 -26.084804 
L 340.272061 -40.102572 
L 324.358298 -54.120341 
L 308.444535 -26.084804 
L 292.530772 -26.084804 
L 276.617009 -26.084804 
L 260.703245 -40.102572 
L 244.789482 -26.084804 
L 228.875719 -26.084804 
L 212.961956 -54.120341 
L 197.048193 -26.084804 
L 181.13443 -40.102572 
L 165.220666 -26.084804 
L 149.306903 -54.120341 
L 133.39314 -68.13811 
L 117.479377 -82.155878 
L 101.565614 -54.120341 
L 85.65185 -26.084804 
L 69.738087 -40.102572 
L 53.824324 -26.084804 
z
" style="stroke: #924bce"/>
    </defs>
    <g clip-path="url(#p12ac76629e)">
     <use xlink:href="#m07c8dad8fc" x="0" y="337.40125" style="fill: #924bce; stroke: #924bce"/>
    </g>
   </g>
   <g id="line2d_49">
    <path d="M 53.824324 311.316446 
L 69.738087 311.316446 
L 85.65185 311.316446 
L 101.565614 311.316446 
L 117.479377 311.316446 
L 133.39314 311.316446 
L 149.306903 311.316446 
L 165.220666 311.316446 
L 181.13443 311.316446 
L 197.048193 311.316446 
L 212.961956 311.316446 
L 228.875719 311.316446 
L 244.789482 311.316446 
L 260.703245 311.316446 
L 276.617009 311.316446 
L 292.530772 311.316446 
L 308.444535 311.316446 
L 324.358298 311.316446 
L 340.272061 311.316446 
L 356.185825 311.316446 
L 372.099588 311.316446 
L 388.013351 311.316446 
" clip-path="url(#p12ac76629e)" style="fill: none; stroke: #924bce; stroke-width: 1.5; stroke-linecap: square"/>
   </g>
   <g id="line2d_50">
    <path d="M 53.824324 311.316446 
L 69.738087 297.298678 
L 85.65185 311.316446 
L 101.565614 283.280909 
L 117.479377 255.245372 
L 133.39314 269.26314 
L 149.306903 283.280909 
L 165.220666 311.316446 
L 181.13443 297.298678 
L 197.048193 311.316446 
L 212.961956 283.280909 
L 228.875719 311.316446 
L 244.789482 311.316446 
L 260.703245 297.298678 
L 276.617009 311.316446 
L 292.530772 311.316446 
L 308.444535 311.316446 
L 324.358298 283.280909 
L 340.272061 297.298678 
L 356.185825 311.316446 
L 372.099588 297.298678 
L 388.013351 311.316446 
" clip-path="url(#p12ac76629e)" style="fill: none; stroke: #000000; stroke-width: 1.5; stroke-linecap: square"/>
   </g>
  </g>
  <g id="text_7">
   <!-- Premier League -->
   <g style="fill: #924bce" transform="translate(226.8 100.08) scale(0.18 -0.18)">
    <defs>
     <path id="Lato-Regular-50" d="M 1238 1715 
L 1238 0 
L 621 0 
L 621 4586 
L 1974 4586 
Q 2410 4586 2731 4485 
Q 3053 4384 3264 4198 
Q 3475 4013 3579 3750 
Q 3683 3488 3683 3165 
Q 3683 2845 3571 2579 
Q 3459 2314 3243 2122 
Q 3027 1930 2707 1822 
Q 2387 1715 1974 1715 
L 1238 1715 
z
M 1238 2208 
L 1974 2208 
Q 2240 2208 2443 2278 
Q 2646 2349 2784 2475 
Q 2922 2602 2992 2778 
Q 3062 2954 3062 3165 
Q 3062 3603 2792 3849 
Q 2522 4096 1974 4096 
L 1238 4096 
L 1238 2208 
z
" transform="scale(0.015625)"/>
     <path id="Lato-Regular-72" d="M 467 0 
L 467 3242 
L 794 3242 
Q 886 3242 921 3206 
Q 957 3171 970 3085 
L 1008 2579 
Q 1174 2918 1419 3108 
Q 1664 3299 1994 3299 
Q 2128 3299 2237 3268 
Q 2346 3238 2438 3184 
L 2365 2758 
Q 2342 2678 2266 2678 
Q 2221 2678 2128 2708 
Q 2035 2739 1869 2739 
Q 1571 2739 1371 2566 
Q 1171 2394 1037 2064 
L 1037 0 
L 467 0 
z
" transform="scale(0.015625)"/>
     <path id="Lato-Regular-65" d="M 1750 3293 
Q 2042 3293 2288 3195 
Q 2534 3098 2713 2914 
Q 2893 2730 2993 2459 
Q 3094 2189 3094 1843 
Q 3094 1709 3065 1664 
Q 3037 1619 2957 1619 
L 800 1619 
Q 806 1312 883 1085 
Q 960 858 1094 706 
Q 1229 554 1414 478 
Q 1600 403 1830 403 
Q 2045 403 2200 452 
Q 2355 502 2467 560 
Q 2579 618 2654 667 
Q 2730 717 2784 717 
Q 2854 717 2893 662 
L 3053 454 
Q 2947 326 2800 232 
Q 2653 138 2485 77 
Q 2317 16 2137 -14 
Q 1958 -45 1782 -45 
Q 1446 -45 1163 68 
Q 880 182 673 401 
Q 467 621 352 944 
Q 237 1267 237 1686 
Q 237 2026 341 2320 
Q 445 2614 640 2830 
Q 835 3046 1116 3169 
Q 1398 3293 1750 3293 
z
M 1763 2874 
Q 1350 2874 1113 2635 
Q 877 2397 819 1974 
L 2582 1974 
Q 2582 2173 2528 2337 
Q 2474 2502 2368 2622 
Q 2262 2742 2110 2808 
Q 1958 2874 1763 2874 
z
" transform="scale(0.015625)"/>
     <path id="Lato-Regular-6d" d="M 467 0 
L 467 3242 
L 806 3242 
Q 928 3242 960 3123 
L 1002 2790 
Q 1181 3011 1403 3152 
Q 1626 3293 1920 3293 
Q 2250 3293 2453 3110 
Q 2656 2928 2746 2618 
Q 2813 2794 2923 2922 
Q 3034 3050 3171 3133 
Q 3309 3216 3464 3254 
Q 3619 3293 3779 3293 
Q 4035 3293 4235 3211 
Q 4435 3130 4574 2973 
Q 4714 2816 4787 2587 
Q 4861 2358 4861 2064 
L 4861 0 
L 4291 0 
L 4291 2064 
Q 4291 2445 4124 2641 
Q 3958 2838 3642 2838 
Q 3501 2838 3374 2788 
Q 3248 2739 3152 2643 
Q 3056 2547 3000 2401 
Q 2944 2256 2944 2064 
L 2944 0 
L 2374 0 
L 2374 2064 
Q 2374 2454 2217 2646 
Q 2061 2838 1760 2838 
Q 1549 2838 1368 2724 
Q 1187 2611 1037 2416 
L 1037 0 
L 467 0 
z
" transform="scale(0.015625)"/>
     <path id="Lato-Regular-69" d="M 1101 3242 
L 1101 0 
L 531 0 
L 531 3242 
L 1101 3242 
z
M 1229 4259 
Q 1229 4176 1195 4104 
Q 1162 4032 1106 3976 
Q 1050 3920 976 3888 
Q 902 3856 819 3856 
Q 736 3856 664 3888 
Q 592 3920 536 3976 
Q 480 4032 448 4104 
Q 416 4176 416 4259 
Q 416 4342 448 4417 
Q 480 4493 536 4549 
Q 592 4605 664 4637 
Q 736 4669 819 4669 
Q 902 4669 976 4637 
Q 1050 4605 1106 4549 
Q 1162 4493 1195 4417 
Q 1229 4342 1229 4259 
z
" transform="scale(0.015625)"/>
     <path id="Lato-Regular-20" transform="scale(0.015625)"/>
     <path id="Lato-Regular-4c" d="M 1178 522 
L 3162 522 
L 3162 0 
L 557 0 
L 557 4586 
L 1178 4586 
L 1178 522 
z
" transform="scale(0.015625)"/>
     <path id="Lato-Regular-61" d="M 2848 0 
L 2595 0 
Q 2512 0 2461 25 
Q 2410 51 2394 134 
L 2330 435 
Q 2202 320 2080 229 
Q 1958 138 1824 75 
Q 1690 13 1538 -19 
Q 1386 -51 1200 -51 
Q 1011 -51 846 1 
Q 682 54 560 160 
Q 438 266 366 427 
Q 294 589 294 810 
Q 294 1002 400 1179 
Q 506 1357 741 1494 
Q 976 1632 1357 1720 
Q 1738 1808 2288 1821 
L 2288 2074 
Q 2288 2451 2126 2644 
Q 1965 2838 1648 2838 
Q 1440 2838 1297 2785 
Q 1155 2733 1051 2667 
Q 947 2602 872 2549 
Q 797 2496 723 2496 
Q 666 2496 622 2526 
Q 579 2557 554 2602 
L 451 2784 
Q 720 3043 1030 3171 
Q 1341 3299 1718 3299 
Q 1990 3299 2201 3209 
Q 2413 3120 2557 2960 
Q 2701 2800 2774 2573 
Q 2848 2346 2848 2074 
L 2848 0 
z
M 1370 349 
Q 1520 349 1645 379 
Q 1770 410 1880 466 
Q 1990 522 2091 602 
Q 2192 682 2288 784 
L 2288 1459 
Q 1894 1446 1619 1396 
Q 1344 1347 1171 1267 
Q 998 1187 920 1078 
Q 842 970 842 835 
Q 842 707 883 614 
Q 925 522 995 462 
Q 1066 403 1162 376 
Q 1258 349 1370 349 
z
" transform="scale(0.015625)"/>
     <path id="Lato-Regular-67" d="M 1558 3296 
Q 1770 3296 1954 3249 
Q 2138 3203 2288 3114 
L 3168 3114 
L 3168 2902 
Q 3168 2797 3034 2768 
L 2666 2717 
Q 2774 2509 2774 2253 
Q 2774 2016 2683 1822 
Q 2592 1629 2430 1491 
Q 2269 1354 2046 1280 
Q 1824 1206 1558 1206 
Q 1331 1206 1130 1261 
Q 1027 1197 974 1123 
Q 922 1050 922 979 
Q 922 864 1014 805 
Q 1107 746 1260 720 
Q 1414 694 1609 688 
Q 1805 682 2008 667 
Q 2211 653 2406 617 
Q 2602 582 2755 502 
Q 2909 422 3001 281 
Q 3094 141 3094 -83 
Q 3094 -291 2990 -486 
Q 2886 -682 2691 -834 
Q 2496 -986 2214 -1077 
Q 1933 -1168 1578 -1168 
Q 1222 -1168 955 -1097 
Q 688 -1027 512 -908 
Q 336 -790 248 -635 
Q 160 -480 160 -310 
Q 160 -70 312 98 
Q 464 266 730 365 
Q 592 429 510 536 
Q 429 643 429 822 
Q 429 893 454 968 
Q 480 1043 533 1116 
Q 586 1190 662 1257 
Q 739 1325 842 1376 
Q 602 1510 466 1732 
Q 330 1955 330 2253 
Q 330 2490 421 2683 
Q 512 2877 675 3013 
Q 838 3149 1064 3222 
Q 1290 3296 1558 3296 
z
M 2570 -176 
Q 2570 -54 2502 19 
Q 2435 93 2320 133 
Q 2205 173 2054 192 
Q 1904 211 1737 219 
Q 1571 227 1398 236 
Q 1226 246 1069 272 
Q 886 186 772 61 
Q 659 -64 659 -237 
Q 659 -346 715 -440 
Q 771 -534 886 -603 
Q 1002 -672 1176 -712 
Q 1350 -752 1587 -752 
Q 1818 -752 2000 -710 
Q 2182 -669 2308 -592 
Q 2435 -515 2502 -409 
Q 2570 -304 2570 -176 
z
M 1558 1584 
Q 1731 1584 1864 1632 
Q 1997 1680 2086 1766 
Q 2176 1853 2221 1973 
Q 2266 2093 2266 2237 
Q 2266 2534 2085 2710 
Q 1904 2886 1558 2886 
Q 1216 2886 1035 2710 
Q 854 2534 854 2237 
Q 854 2093 900 1973 
Q 947 1853 1036 1766 
Q 1126 1680 1257 1632 
Q 1389 1584 1558 1584 
z
" transform="scale(0.015625)"/>
     <path id="Lato-Regular-75" d="M 960 3242 
L 960 1174 
Q 960 806 1129 604 
Q 1299 403 1642 403 
Q 1891 403 2112 521 
Q 2333 640 2518 851 
L 2518 3242 
L 3088 3242 
L 3088 0 
L 2749 0 
Q 2627 0 2595 118 
L 2550 467 
Q 2339 234 2076 91 
Q 1814 -51 1475 -51 
Q 1210 -51 1006 37 
Q 803 125 665 285 
Q 528 445 459 672 
Q 390 899 390 1174 
L 390 3242 
L 960 3242 
z
" transform="scale(0.015625)"/>
    </defs>
    <use xlink:href="#Lato-Regular-50"/>
    <use xlink:href="#Lato-Regular-72" transform="translate(61.100006 0)"/>
    <use xlink:href="#Lato-Regular-65" transform="translate(101.400009 0)"/>
    <use xlink:href="#Lato-Regular-6d" transform="translate(153.800018 0)"/>
    <use xlink:href="#Lato-Regular-69" transform="translate(235.900024 0)"/>
    <use xlink:href="#Lato-Regular-65" transform="translate(261.500031 0)"/>
    <use xlink:href="#Lato-Regular-72" transform="translate(313.90004 0)"/>
    <use xlink:href="#Lato-Regular-20" transform="translate(354.200043 0)"/>
    <use xlink:href="#Lato-Regular-4c" transform="translate(373.500046 0)"/>
    <use xlink:href="#Lato-Regular-65" transform="translate(424.900055 0)"/>
    <use xlink:href="#Lato-Regular-61" transform="translate(477.300064 0)"/>
    <use xlink:href="#Lato-Regular-67" transform="translate(528.000076 0)"/>
    <use xlink:href="#Lato-Regular-75" transform="translate(579.100082 0)"/>
    <use xlink:href="#Lato-Regular-65" transform="translate(634.700089 0)"/>
   </g>
  </g>
 </g>
 <defs>
  <clipPath id="p64820f8df5">
   <rect x="7.2" y="7.2" width="439.2" height="61.678182"/>
  </clipPath>
  <clipPath id="pa335aec7f1">
   <rect x="7.2" y="18.878182" width="439.2" height="61.678182"/>
  </clipPath>
  <clipPath id="p43538348ae">
   <rect x="7.2" y="30.556364" width="439.2" height="61.678182"/>
  </clipPath>
  <clipPath id="p77b3bfdb22">
   <rect x="7.2" y="42.234545" width="439.2" height="61.678182"/>
  </clipPath>
  <clipPath id="p2cf7ebd2c2">
   <rect x="7.2" y="53.912727" width="439.2" height="61.678182"/>
  </clipPath>
  <clipPath id="p82148c8240">
   <rect x="7.2" y="65.590909" width="439.2" height="61.678182"/>
  </clipPath>
  <clipPath id="p78ce5f5e2e">
   <rect x="7.2" y="77.269091" width="439.2" height="61.678182"/>
  </clipPath>
  <clipPath id="p30875034c2">
   <rect x="7.2" y="88.947273" width="439.2" height="61.678182"/>
  </clipPath>
  <clipPath id="pd569f48ff9">
   <rect x="7.2" y="100.625455" width="439.2" height="61.678182"/>
  </clipPath>
  <clipPath id="p653b1d2d51">
   <rect x="7.2" y="112.303636" width="439.2" height="61.678182"/>
  </clipPath>
  <clipPath id="pb08249bc89">
   <rect x="7.2" y="123.981818" width="439.2" height="61.678182"/>
  </clipPath>
  <clipPath id="pcff5e989b1">
   <rect x="7.2" y="135.66" width="439.2" height="61.678182"/>
  </clipPath>
  <clipPath id="p11a01fa41b">
   <rect x="7.2" y="147.338182" width="439.2" height="61.678182"/>
  </clipPath>
  <clipPath id="p0cb6ae775c">
   <rect x="7.2" y="159.016364" width="439.2" height="61.678182"/>
  </clipPath>
  <clipPath id="p56736c0745">
   <rect x="7.2" y="170.694545" width="439.2" height="61.678182"/>
  </clipPath>
  <clipPath id="p070a013ed3">
   <rect x="7.2" y="182.372727" width="439.2" height="61.678182"/>
  </clipPath>
  <clipPath id="p0052a24960">
   <rect x="7.2" y="194.050909" width="439.2" height="61.678182"/>
  </clipPath>
  <clipPath id="p171dd07618">
   <rect x="7.2" y="205.729091" width="439.2" height="61.678182"/>
  </clipPath>
  <clipPath id="p41910b7140">
   <rect x="7.2" y="217.407273" width="439.2" height="61.678182"/>
  </clipPath>
  <clipPath id="p6017db76f3">
   <rect x="7.2" y="229.085455" width="439.2" height="61.678182"/>
  </clipPath>
  <clipPath id="pa18f07196a">
   <rect x="7.2" y="240.763636" width="439.2" height="61.678182"/>
  </clipPath>
  <clipPath id="p12ac76629e">
   <rect x="7.2" y="252.441818" width="439.2" height="61.678182"/>
  </clipPath>
 </defs>
</svg>
