<?xml version="1.0" encoding="utf-8" standalone="no"?>
<!DOCTYPE svg PUBLIC "-//W3C//DTD SVG 1.1//EN"
  "http://www.w3.org/Graphics/SVG/1.1/DTD/svg11.dtd">
<svg xmlns:xlink="http://www.w3.org/1999/xlink" width="452.801254pt" height="337.40125pt" viewBox="0 0 452.801254 337.40125" xmlns="http://www.w3.org/2000/svg" version="1.1">
 <metadata>
  <rdf:RDF xmlns:dc="http://purl.org/dc/elements/1.1/" xmlns:cc="http://creativecommons.org/ns#" xmlns:rdf="http://www.w3.org/1999/02/22-rdf-syntax-ns#">
   <cc:Work>
    <dc:type rdf:resource="http://purl.org/dc/dcmitype/StillImage"/>
    <dc:date>2025-12-01T11:21:24.308728</dc:date>
    <dc:format>image/svg+xml</dc:format>
    <dc:creator>
     <cc:Agent>
      <dc:title>Matplotlib v3.10.5, https://matplotlib.org/</dc:title>
     </cc:Agent>
    </dc:creator>
   </cc:Work>
  </rdf:RDF>
 </metadata>
 <defs>
  <style type="text/css">*{stroke-linejoin: round; stroke-linecap: butt}</style>
 </defs>
 <g id="figure_1">
  <g id="patch_1">
   <path d="M 0 337.40125 
L 452.801254 337.40125 
L 452.801254 0 
L 0 0 
z
" style="fill: #f5f5dc"/>
  </g>
  <g id="axes_1">
   <g id="patch_2">
    <path d="M 7.378117 314.12 
L 445.601254 314.12 
L 445.601254 7.2 
L 7.378117 7.2 
z
" style="fill: #f5f5dc"/>
   </g>
   <g id="matplotlib.axis_1">
    <g id="xtick_1">
     <g id="line2d_1">
      <defs>
       <path id="maca5ada766" d="M 0 0 
L 0 3.5 
" style="stroke: #808080; stroke-width: 0.8"/>
      </defs>
      <g>
       <use xlink:href="#maca5ada766" x="10.1" y="314.12" style="fill: #808080; stroke: #808080; stroke-width: 0.8"/>
      </g>
     </g>
     <g id="text_1">
      <!-- 0 -->
      <g style="fill: #808080" transform="translate(7.2 328.485625) scale(0.1 -0.1)">
       <defs>
        <path id="Lato-Regular-30" d="M 3520 2291 
Q 3520 1690 3390 1250 
Q 3261 810 3037 522 
Q 2813 234 2507 93 
Q 2202 -48 1853 -48 
Q 1501 -48 1198 93 
Q 896 234 672 522 
Q 448 810 320 1250 
Q 192 1690 192 2291 
Q 192 2893 320 3334 
Q 448 3776 672 4065 
Q 896 4355 1198 4496 
Q 1501 4637 1853 4637 
Q 2202 4637 2507 4496 
Q 2813 4355 3037 4065 
Q 3261 3776 3390 3334 
Q 3520 2893 3520 2291 
z
M 2928 2291 
Q 2928 2816 2840 3173 
Q 2752 3530 2603 3747 
Q 2454 3965 2259 4059 
Q 2064 4154 1853 4154 
Q 1642 4154 1446 4059 
Q 1251 3965 1104 3747 
Q 957 3530 869 3173 
Q 781 2816 781 2291 
Q 781 1766 869 1411 
Q 957 1056 1104 838 
Q 1251 621 1446 526 
Q 1642 432 1853 432 
Q 2064 432 2259 526 
Q 2454 621 2603 838 
Q 2752 1056 2840 1411 
Q 2928 1766 2928 2291 
z
" transform="scale(0.015625)"/>
       </defs>
       <use xlink:href="#Lato-Regular-30"/>
      </g>
     </g>
    </g>
    <g id="xtick_2">
     <g id="line2d_2">
      <g>
       <use xlink:href="#maca5ada766" x="78.147071" y="314.12" style="fill: #808080; stroke: #808080; stroke-width: 0.8"/>
      </g>
     </g>
     <g id="text_2">
      <!-- €250M -->
      <g style="fill: #808080" transform="translate(61.947071 328.485625) scale(0.1 -0.1)">
       <defs>
        <path id="Lato-Regular-20ac" d="M 109 2877 
L 579 2877 
Q 643 3280 795 3605 
Q 947 3930 1172 4158 
Q 1398 4387 1692 4508 
Q 1987 4630 2333 4630 
Q 2762 4630 3066 4470 
Q 3370 4310 3594 4029 
L 3398 3811 
Q 3373 3782 3347 3761 
Q 3322 3741 3277 3741 
Q 3222 3741 3163 3801 
Q 3104 3862 3005 3936 
Q 2906 4010 2750 4070 
Q 2595 4131 2355 4131 
Q 1888 4131 1579 3811 
Q 1270 3491 1168 2877 
L 2918 2877 
L 2918 2701 
Q 2918 2643 2875 2596 
Q 2832 2550 2755 2550 
L 1130 2550 
Q 1126 2486 1124 2422 
Q 1123 2358 1123 2291 
Q 1123 2240 1123 2192 
Q 1123 2144 1126 2096 
L 2621 2096 
L 2621 1917 
Q 2621 1862 2576 1816 
Q 2531 1770 2454 1770 
L 1155 1770 
Q 1245 1110 1552 780 
Q 1859 451 2326 451 
Q 2499 451 2630 484 
Q 2762 518 2858 569 
Q 2954 621 3022 680 
Q 3091 739 3142 790 
Q 3194 842 3234 875 
Q 3274 909 3312 909 
Q 3338 909 3357 897 
Q 3376 886 3402 864 
L 3642 640 
Q 3418 314 3085 133 
Q 2752 -48 2294 -48 
Q 1923 -48 1625 78 
Q 1328 205 1110 440 
Q 893 675 753 1012 
Q 614 1350 563 1770 
L 109 1770 
L 109 2096 
L 538 2096 
Q 534 2144 534 2192 
Q 534 2240 534 2291 
Q 534 2355 536 2420 
Q 538 2486 541 2550 
L 109 2550 
L 109 2877 
z
" transform="scale(0.015625)"/>
        <path id="Lato-Regular-32" d="M 1923 4637 
Q 2214 4637 2467 4550 
Q 2720 4464 2904 4299 
Q 3088 4134 3193 3897 
Q 3299 3661 3299 3360 
Q 3299 3104 3222 2886 
Q 3146 2669 3014 2469 
Q 2883 2269 2712 2081 
Q 2541 1894 2349 1699 
L 1142 464 
Q 1270 499 1401 520 
Q 1533 541 1654 541 
L 3190 541 
Q 3283 541 3337 486 
Q 3392 432 3392 346 
L 3392 0 
L 333 0 
L 333 195 
Q 333 256 357 320 
Q 381 384 435 438 
L 1904 1914 
Q 2086 2099 2236 2270 
Q 2387 2442 2494 2614 
Q 2602 2787 2659 2964 
Q 2717 3142 2717 3344 
Q 2717 3546 2653 3698 
Q 2589 3850 2477 3949 
Q 2365 4048 2214 4097 
Q 2064 4147 1891 4147 
Q 1718 4147 1571 4096 
Q 1424 4045 1310 3953 
Q 1197 3862 1118 3737 
Q 1040 3613 1008 3462 
Q 982 3370 931 3328 
Q 880 3286 797 3286 
Q 781 3286 763 3288 
Q 746 3290 723 3293 
L 426 3344 
Q 470 3658 598 3899 
Q 726 4141 923 4304 
Q 1120 4467 1374 4552 
Q 1629 4637 1923 4637 
z
" transform="scale(0.015625)"/>
        <path id="Lato-Regular-35" d="M 3130 4336 
Q 3130 4214 3053 4136 
Q 2976 4058 2794 4058 
L 1354 4058 
L 1142 2854 
Q 1501 2931 1805 2931 
Q 2163 2931 2436 2825 
Q 2710 2720 2896 2534 
Q 3082 2349 3176 2096 
Q 3270 1843 3270 1546 
Q 3270 1181 3142 886 
Q 3014 592 2792 382 
Q 2570 173 2269 61 
Q 1968 -51 1619 -51 
Q 1418 -51 1232 -11 
Q 1046 29 886 96 
Q 726 163 588 249 
Q 451 336 346 432 
L 518 675 
Q 576 758 672 758 
Q 733 758 814 708 
Q 896 659 1011 598 
Q 1126 538 1281 488 
Q 1437 438 1651 438 
Q 1891 438 2083 515 
Q 2275 592 2411 734 
Q 2547 877 2620 1075 
Q 2694 1274 2694 1520 
Q 2694 1734 2632 1907 
Q 2570 2080 2443 2201 
Q 2317 2323 2128 2390 
Q 1939 2458 1686 2458 
Q 1514 2458 1328 2429 
Q 1142 2400 944 2336 
L 586 2442 
L 957 4586 
L 3130 4586 
L 3130 4336 
z
" transform="scale(0.015625)"/>
        <path id="Lato-Regular-4d" d="M 2813 1658 
Q 2858 1581 2891 1496 
Q 2925 1411 2957 1325 
Q 2989 1414 3024 1496 
Q 3059 1578 3104 1661 
L 4656 4480 
Q 4698 4554 4742 4570 
Q 4787 4586 4870 4586 
L 5328 4586 
L 5328 0 
L 4784 0 
L 4784 3370 
Q 4784 3437 4787 3513 
Q 4790 3590 4797 3670 
L 3226 803 
Q 3146 659 3002 659 
L 2912 659 
Q 2768 659 2688 803 
L 1082 3680 
Q 1091 3597 1096 3517 
Q 1101 3437 1101 3370 
L 1101 0 
L 557 0 
L 557 4586 
L 1014 4586 
Q 1098 4586 1142 4570 
Q 1187 4554 1229 4480 
L 2813 1658 
L 2813 1658 
z
" transform="scale(0.015625)"/>
       </defs>
       <use xlink:href="#Lato-Regular-20ac"/>
       <use xlink:href="#Lato-Regular-32" transform="translate(58 0)"/>
       <use xlink:href="#Lato-Regular-35" transform="translate(116 0)"/>
       <use xlink:href="#Lato-Regular-30" transform="translate(174 0)"/>
       <use xlink:href="#Lato-Regular-4d" transform="translate(232 0)"/>
      </g>
     </g>
    </g>
    <g id="xtick_3">
     <g id="line2d_3">
      <g>
       <use xlink:href="#maca5ada766" x="146.194142" y="314.12" style="fill: #808080; stroke: #808080; stroke-width: 0.8"/>
      </g>
     </g>
     <g id="text_3">
      <!-- €500M -->
      <g style="fill: #808080" transform="translate(129.994142 328.485625) scale(0.1 -0.1)">
       <use xlink:href="#Lato-Regular-20ac"/>
       <use xlink:href="#Lato-Regular-35" transform="translate(58 0)"/>
       <use xlink:href="#Lato-Regular-30" transform="translate(116 0)"/>
       <use xlink:href="#Lato-Regular-30" transform="translate(174 0)"/>
       <use xlink:href="#Lato-Regular-4d" transform="translate(232 0)"/>
      </g>
     </g>
    </g>
    <g id="xtick_4">
     <g id="line2d_4">
      <g>
       <use xlink:href="#maca5ada766" x="214.241213" y="314.12" style="fill: #808080; stroke: #808080; stroke-width: 0.8"/>
      </g>
     </g>
     <g id="text_4">
      <!-- €750M -->
      <g style="fill: #808080" transform="translate(198.041213 328.485625) scale(0.1 -0.1)">
       <defs>
        <path id="Lato-Regular-37" d="M 3469 4586 
L 3469 4330 
Q 3469 4221 3445 4150 
Q 3421 4080 3395 4032 
L 1498 202 
Q 1456 118 1382 59 
Q 1309 0 1184 0 
L 778 0 
L 2704 3782 
Q 2746 3862 2789 3929 
Q 2832 3997 2886 4058 
L 493 4058 
Q 438 4058 395 4101 
Q 352 4144 352 4198 
L 352 4586 
L 3469 4586 
z
" transform="scale(0.015625)"/>
       </defs>
       <use xlink:href="#Lato-Regular-20ac"/>
       <use xlink:href="#Lato-Regular-37" transform="translate(58 0)"/>
       <use xlink:href="#Lato-Regular-35" transform="translate(116 0)"/>
       <use xlink:href="#Lato-Regular-30" transform="translate(174 0)"/>
       <use xlink:href="#Lato-Regular-4d" transform="translate(232 0)"/>
      </g>
     </g>
    </g>
    <g id="xtick_5">
     <g id="line2d_5">
      <g>
       <use xlink:href="#maca5ada766" x="282.288284" y="314.12" style="fill: #808080; stroke: #808080; stroke-width: 0.8"/>
      </g>
     </g>
     <g id="text_5">
      <!-- €1B -->
      <g style="fill: #808080" transform="translate(273.253127 328.485625) scale(0.1 -0.1)">
       <defs>
        <path id="Lato-Regular-31" d="M 918 435 
L 1904 435 
L 1904 3562 
Q 1904 3702 1914 3846 
L 1094 3146 
Q 1062 3120 1030 3109 
Q 998 3098 970 3098 
Q 922 3098 883 3118 
Q 845 3139 826 3168 
L 646 3414 
L 2010 4595 
L 2474 4595 
L 2474 435 
L 3376 435 
L 3376 0 
L 918 0 
L 918 435 
z
" transform="scale(0.015625)"/>
        <path id="Lato-Regular-42" d="M 557 0 
L 557 4586 
L 2019 4586 
Q 2442 4586 2747 4502 
Q 3053 4419 3249 4265 
Q 3446 4112 3540 3889 
Q 3635 3667 3635 3389 
Q 3635 3219 3582 3062 
Q 3530 2906 3422 2771 
Q 3315 2637 3153 2531 
Q 2992 2426 2774 2358 
Q 3277 2259 3533 1996 
Q 3789 1734 3789 1306 
Q 3789 1014 3681 774 
Q 3574 534 3368 361 
Q 3162 189 2862 94 
Q 2563 0 2179 0 
L 557 0 
z
M 1178 2090 
L 1178 493 
L 2170 493 
Q 2435 493 2625 553 
Q 2816 614 2939 724 
Q 3062 835 3120 987 
Q 3178 1139 3178 1322 
Q 3178 1677 2926 1883 
Q 2675 2090 2166 2090 
L 1178 2090 
z
M 1178 2531 
L 1997 2531 
Q 2259 2531 2451 2588 
Q 2643 2646 2769 2748 
Q 2896 2851 2957 2996 
Q 3018 3142 3018 3315 
Q 3018 3718 2774 3907 
Q 2531 4096 2019 4096 
L 1178 4096 
L 1178 2531 
z
" transform="scale(0.015625)"/>
       </defs>
       <use xlink:href="#Lato-Regular-20ac"/>
       <use xlink:href="#Lato-Regular-31" transform="translate(58 0)"/>
       <use xlink:href="#Lato-Regular-42" transform="translate(116 0)"/>
      </g>
     </g>
    </g>
    <g id="xtick_6">
     <g id="line2d_6">
      <g>
       <use xlink:href="#maca5ada766" x="350.335355" y="314.12" style="fill: #808080; stroke: #808080; stroke-width: 0.8"/>
      </g>
     </g>
     <g id="text_6">
      <!-- €1.25B -->
      <g style="fill: #808080" transform="translate(334.440042 328.485625) scale(0.1 -0.1)">
       <defs>
        <path id="Lato-Regular-2e" d="M 282 352 
Q 282 435 312 508 
Q 342 582 395 636 
Q 448 691 521 723 
Q 595 755 678 755 
Q 762 755 835 723 
Q 909 691 963 636 
Q 1018 582 1048 508 
Q 1078 435 1078 352 
Q 1078 266 1048 194 
Q 1018 122 963 67 
Q 909 13 835 -17 
Q 762 -48 678 -48 
Q 595 -48 521 -17 
Q 448 13 395 67 
Q 342 122 312 194 
Q 282 266 282 352 
z
" transform="scale(0.015625)"/>
       </defs>
       <use xlink:href="#Lato-Regular-20ac"/>
       <use xlink:href="#Lato-Regular-31" transform="translate(58 0)"/>
       <use xlink:href="#Lato-Regular-2e" transform="translate(116 0)"/>
       <use xlink:href="#Lato-Regular-32" transform="translate(137.199997 0)"/>
       <use xlink:href="#Lato-Regular-35" transform="translate(195.199997 0)"/>
       <use xlink:href="#Lato-Regular-42" transform="translate(253.199997 0)"/>
      </g>
     </g>
    </g>
    <g id="xtick_7">
     <g id="line2d_7">
      <g>
       <use xlink:href="#maca5ada766" x="418.382425" y="314.12" style="fill: #808080; stroke: #808080; stroke-width: 0.8"/>
      </g>
     </g>
     <g id="text_7">
      <!-- €1.5B -->
      <g style="fill: #808080" transform="translate(405.387113 328.485625) scale(0.1 -0.1)">
       <use xlink:href="#Lato-Regular-20ac"/>
       <use xlink:href="#Lato-Regular-31" transform="translate(58 0)"/>
       <use xlink:href="#Lato-Regular-2e" transform="translate(116 0)"/>
       <use xlink:href="#Lato-Regular-35" transform="translate(137.199997 0)"/>
       <use xlink:href="#Lato-Regular-42" transform="translate(195.199997 0)"/>
      </g>
     </g>
    </g>
   </g>
  </g>
  <g id="axes_2">
   <g id="FillBetweenPolyCollection_1">
    <defs>
     <path id="m1ef0121a1d" d="M 16.192594 -265.85968 
L 16.192594 -265.85968 
L 19.652244 -265.85968 
L 23.111893 -265.85968 
L 26.571542 -265.85968 
L 30.031191 -265.85968 
L 33.49084 -265.85968 
L 36.95049 -265.85968 
L 40.410139 -265.85968 
L 43.869788 -265.85968 
L 47.329437 -265.85968 
L 50.789086 -265.85968 
L 54.248735 -265.85968 
L 57.708385 -265.85968 
L 61.168034 -265.85968 
L 64.627683 -265.85968 
L 68.087332 -265.85968 
L 71.546981 -265.85968 
L 75.006631 -265.85968 
L 78.46628 -265.85968 
L 81.925929 -265.85968 
L 85.385578 -265.85968 
L 88.845227 -265.85968 
L 92.304876 -265.85968 
L 95.764526 -265.85968 
L 99.224175 -265.85968 
L 102.683824 -265.85968 
L 102.683824 -265.85968 
L 102.683824 -265.85968 
L 99.224175 -281.179101 
L 95.764526 -265.85968 
L 92.304876 -265.85968 
L 88.845227 -281.179101 
L 85.385578 -265.85968 
L 81.925929 -265.85968 
L 78.46628 -281.179101 
L 75.006631 -265.85968 
L 71.546981 -281.179101 
L 68.087332 -265.85968 
L 64.627683 -265.85968 
L 61.168034 -265.85968 
L 57.708385 -265.85968 
L 54.248735 -265.85968 
L 50.789086 -265.85968 
L 47.329437 -265.85968 
L 43.869788 -296.498523 
L 40.410139 -281.179101 
L 36.95049 -296.498523 
L 33.49084 -296.498523 
L 30.031191 -296.498523 
L 26.571542 -327.137366 
L 23.111893 -281.179101 
L 19.652244 -296.498523 
L 16.192594 -265.85968 
z
" style="stroke: #924bce; stroke-opacity: 0.427273"/>
    </defs>
    <g clip-path="url(#pd26c6dd3d2)">
     <use xlink:href="#m1ef0121a1d" x="0" y="337.40125" style="fill: #924bce; fill-opacity: 0.427273; stroke: #924bce; stroke-opacity: 0.427273"/>
    </g>
   </g>
   <g id="line2d_8">
    <path d="M 16.192594 71.54157 
L 19.652244 71.54157 
L 23.111893 71.54157 
L 26.571542 71.54157 
L 30.031191 71.54157 
L 33.49084 71.54157 
L 36.95049 71.54157 
L 40.410139 71.54157 
L 43.869788 71.54157 
L 47.329437 71.54157 
L 50.789086 71.54157 
L 54.248735 71.54157 
L 57.708385 71.54157 
L 61.168034 71.54157 
L 64.627683 71.54157 
L 68.087332 71.54157 
L 71.546981 71.54157 
L 75.006631 71.54157 
L 78.46628 71.54157 
L 81.925929 71.54157 
L 85.385578 71.54157 
L 88.845227 71.54157 
L 92.304876 71.54157 
L 95.764526 71.54157 
L 99.224175 71.54157 
L 102.683824 71.54157 
" clip-path="url(#pd26c6dd3d2)" style="fill: none; stroke: #924bce; stroke-opacity: 0.427273; stroke-width: 1.5; stroke-linecap: square"/>
   </g>
   <g id="line2d_9">
    <path d="M 16.192594 71.54157 
L 19.652244 40.902727 
L 23.111893 56.222149 
L 26.571542 10.263884 
L 30.031191 40.902727 
L 33.49084 40.902727 
L 36.95049 40.902727 
L 40.410139 56.222149 
L 43.869788 40.902727 
L 47.329437 71.54157 
L 50.789086 71.54157 
L 54.248735 71.54157 
L 57.708385 71.54157 
L 61.168034 71.54157 
L 64.627683 71.54157 
L 68.087332 71.54157 
L 71.546981 56.222149 
L 75.006631 71.54157 
L 78.46628 56.222149 
L 81.925929 71.54157 
L 85.385578 71.54157 
L 88.845227 56.222149 
L 92.304876 71.54157 
L 95.764526 71.54157 
L 99.224175 56.222149 
L 102.683824 71.54157 
" clip-path="url(#pd26c6dd3d2)" style="fill: none; stroke: #000000; stroke-opacity: 0.427273; stroke-width: 1.5; stroke-linecap: square"/>
   </g>
  </g>
  <g id="axes_3">
   <g id="FillBetweenPolyCollection_2">
    <defs>
     <path id="m56f7168c34" d="M 16.865868 -254.454225 
L 16.865868 -254.454225 
L 20.655441 -254.454225 
L 24.445013 -254.454225 
L 28.234586 -254.454225 
L 32.024159 -254.454225 
L 35.813732 -254.454225 
L 39.603305 -254.454225 
L 43.392877 -254.454225 
L 47.18245 -254.454225 
L 50.972023 -254.454225 
L 54.761596 -254.454225 
L 58.551169 -254.454225 
L 62.340741 -254.454225 
L 66.130314 -254.454225 
L 69.919887 -254.454225 
L 73.70946 -254.454225 
L 77.499032 -254.454225 
L 81.288605 -254.454225 
L 85.078178 -254.454225 
L 88.867751 -254.454225 
L 92.657324 -254.454225 
L 96.446896 -254.454225 
L 100.236469 -254.454225 
L 104.026042 -254.454225 
L 107.815615 -254.454225 
L 111.605188 -254.454225 
L 111.605188 -254.454225 
L 111.605188 -254.454225 
L 107.815615 -266.709762 
L 104.026042 -254.454225 
L 100.236469 -254.454225 
L 96.446896 -254.454225 
L 92.657324 -254.454225 
L 88.867751 -254.454225 
L 85.078178 -254.454225 
L 81.288605 -254.454225 
L 77.499032 -266.709762 
L 73.70946 -266.709762 
L 69.919887 -266.709762 
L 66.130314 -254.454225 
L 62.340741 -254.454225 
L 58.551169 -254.454225 
L 54.761596 -254.454225 
L 50.972023 -278.9653 
L 47.18245 -254.454225 
L 43.392877 -254.454225 
L 39.603305 -254.454225 
L 35.813732 -303.476374 
L 32.024159 -291.220837 
L 28.234586 -315.731911 
L 24.445013 -266.709762 
L 20.655441 -266.709762 
L 16.865868 -254.454225 
z
" style="stroke: #924bce; stroke-opacity: 0.454545"/>
    </defs>
    <g clip-path="url(#p8f47d10284)">
     <use xlink:href="#m56f7168c34" x="0" y="337.40125" style="fill: #924bce; fill-opacity: 0.454545; stroke: #924bce; stroke-opacity: 0.454545"/>
    </g>
   </g>
   <g id="line2d_10">
    <path d="M 16.865868 82.947025 
L 20.655441 82.947025 
L 24.445013 82.947025 
L 28.234586 82.947025 
L 32.024159 82.947025 
L 35.813732 82.947025 
L 39.603305 82.947025 
L 43.392877 82.947025 
L 47.18245 82.947025 
L 50.972023 82.947025 
L 54.761596 82.947025 
L 58.551169 82.947025 
L 62.340741 82.947025 
L 66.130314 82.947025 
L 69.919887 82.947025 
L 73.70946 82.947025 
L 77.499032 82.947025 
L 81.288605 82.947025 
L 85.078178 82.947025 
L 88.867751 82.947025 
L 92.657324 82.947025 
L 96.446896 82.947025 
L 100.236469 82.947025 
L 104.026042 82.947025 
L 107.815615 82.947025 
L 111.605188 82.947025 
" clip-path="url(#p8f47d10284)" style="fill: none; stroke: #924bce; stroke-opacity: 0.454545; stroke-width: 1.5; stroke-linecap: square"/>
   </g>
   <g id="line2d_11">
    <path d="M 16.865868 82.947025 
L 20.655441 70.691488 
L 24.445013 70.691488 
L 28.234586 21.669339 
L 32.024159 46.180413 
L 35.813732 33.924876 
L 39.603305 82.947025 
L 43.392877 82.947025 
L 47.18245 82.947025 
L 50.972023 58.43595 
L 54.761596 82.947025 
L 58.551169 82.947025 
L 62.340741 82.947025 
L 66.130314 82.947025 
L 69.919887 70.691488 
L 73.70946 70.691488 
L 77.499032 70.691488 
L 81.288605 82.947025 
L 85.078178 82.947025 
L 88.867751 82.947025 
L 92.657324 82.947025 
L 96.446896 82.947025 
L 100.236469 82.947025 
L 104.026042 82.947025 
L 107.815615 70.691488 
L 111.605188 82.947025 
" clip-path="url(#p8f47d10284)" style="fill: none; stroke: #000000; stroke-opacity: 0.454545; stroke-width: 1.5; stroke-linecap: square"/>
   </g>
  </g>
  <g id="axes_4">
   <g id="FillBetweenPolyCollection_3">
    <defs>
     <path id="m84e1193a0a" d="M 16.035484 -243.048771 
L 16.035484 -243.048771 
L 20.456115 -243.048771 
L 24.876746 -243.048771 
L 29.297377 -243.048771 
L 33.718008 -243.048771 
L 38.138639 -243.048771 
L 42.559269 -243.048771 
L 46.9799 -243.048771 
L 51.400531 -243.048771 
L 55.821162 -243.048771 
L 60.241793 -243.048771 
L 64.662424 -243.048771 
L 69.083054 -243.048771 
L 73.503685 -243.048771 
L 77.924316 -243.048771 
L 82.344947 -243.048771 
L 86.765578 -243.048771 
L 91.186209 -243.048771 
L 95.60684 -243.048771 
L 100.02747 -243.048771 
L 104.448101 -243.048771 
L 108.868732 -243.048771 
L 113.289363 -243.048771 
L 117.709994 -243.048771 
L 122.130625 -243.048771 
L 126.551256 -243.048771 
L 126.551256 -243.048771 
L 126.551256 -243.048771 
L 122.130625 -255.304308 
L 117.709994 -243.048771 
L 113.289363 -243.048771 
L 108.868732 -243.048771 
L 104.448101 -243.048771 
L 100.02747 -243.048771 
L 95.60684 -243.048771 
L 91.186209 -243.048771 
L 86.765578 -255.304308 
L 82.344947 -255.304308 
L 77.924316 -243.048771 
L 73.503685 -255.304308 
L 69.083054 -243.048771 
L 64.662424 -243.048771 
L 60.241793 -243.048771 
L 55.821162 -255.304308 
L 51.400531 -255.304308 
L 46.9799 -243.048771 
L 42.559269 -243.048771 
L 38.138639 -304.326457 
L 33.718008 -279.815382 
L 29.297377 -279.815382 
L 24.876746 -243.048771 
L 20.456115 -279.815382 
L 16.035484 -243.048771 
z
" style="stroke: #924bce; stroke-opacity: 0.481818"/>
    </defs>
    <g clip-path="url(#pd393b0c171)">
     <use xlink:href="#m84e1193a0a" x="0" y="337.40125" style="fill: #924bce; fill-opacity: 0.481818; stroke: #924bce; stroke-opacity: 0.481818"/>
    </g>
   </g>
   <g id="line2d_12">
    <path d="M 16.035484 94.352479 
L 20.456115 94.352479 
L 24.876746 94.352479 
L 29.297377 94.352479 
L 33.718008 94.352479 
L 38.138639 94.352479 
L 42.559269 94.352479 
L 46.9799 94.352479 
L 51.400531 94.352479 
L 55.821162 94.352479 
L 60.241793 94.352479 
L 64.662424 94.352479 
L 69.083054 94.352479 
L 73.503685 94.352479 
L 77.924316 94.352479 
L 82.344947 94.352479 
L 86.765578 94.352479 
L 91.186209 94.352479 
L 95.60684 94.352479 
L 100.02747 94.352479 
L 104.448101 94.352479 
L 108.868732 94.352479 
L 113.289363 94.352479 
L 117.709994 94.352479 
L 122.130625 94.352479 
L 126.551256 94.352479 
" clip-path="url(#pd393b0c171)" style="fill: none; stroke: #924bce; stroke-opacity: 0.481818; stroke-width: 1.5; stroke-linecap: square"/>
   </g>
   <g id="line2d_13">
    <path d="M 16.035484 94.352479 
L 20.456115 57.585868 
L 24.876746 94.352479 
L 29.297377 57.585868 
L 33.718008 57.585868 
L 38.138639 33.074793 
L 42.559269 94.352479 
L 46.9799 94.352479 
L 51.400531 82.096942 
L 55.821162 82.096942 
L 60.241793 94.352479 
L 64.662424 94.352479 
L 69.083054 94.352479 
L 73.503685 82.096942 
L 77.924316 94.352479 
L 82.344947 82.096942 
L 86.765578 82.096942 
L 91.186209 94.352479 
L 95.60684 94.352479 
L 100.02747 94.352479 
L 104.448101 94.352479 
L 108.868732 94.352479 
L 113.289363 94.352479 
L 117.709994 94.352479 
L 122.130625 82.096942 
L 126.551256 94.352479 
" clip-path="url(#pd393b0c171)" style="fill: none; stroke: #000000; stroke-opacity: 0.481818; stroke-width: 1.5; stroke-linecap: square"/>
   </g>
  </g>
  <g id="axes_5">
   <g id="FillBetweenPolyCollection_4">
    <defs>
     <path id="m076bd7bb2f" d="M 20.803673 -231.643316 
L 20.803673 -231.643316 
L 25.22511 -231.643316 
L 29.646547 -231.643316 
L 34.067984 -231.643316 
L 38.489421 -231.643316 
L 42.910858 -231.643316 
L 47.332295 -231.643316 
L 51.753732 -231.643316 
L 56.175169 -231.643316 
L 60.596606 -231.643316 
L 65.018043 -231.643316 
L 69.43948 -231.643316 
L 73.860917 -231.643316 
L 78.282354 -231.643316 
L 82.703791 -231.643316 
L 87.125228 -231.643316 
L 91.546665 -231.643316 
L 95.968102 -231.643316 
L 100.389538 -231.643316 
L 104.810975 -231.643316 
L 109.232412 -231.643316 
L 113.653849 -231.643316 
L 118.075286 -231.643316 
L 122.496723 -231.643316 
L 126.91816 -231.643316 
L 131.339597 -231.643316 
L 131.339597 -231.643316 
L 131.339597 -231.643316 
L 126.91816 -252.069211 
L 122.496723 -231.643316 
L 118.075286 -231.643316 
L 113.653849 -231.643316 
L 109.232412 -231.643316 
L 104.810975 -252.069211 
L 100.389538 -231.643316 
L 95.968102 -231.643316 
L 91.546665 -252.069211 
L 87.125228 -231.643316 
L 82.703791 -252.069211 
L 78.282354 -231.643316 
L 73.860917 -231.643316 
L 69.43948 -252.069211 
L 65.018043 -231.643316 
L 60.596606 -231.643316 
L 56.175169 -231.643316 
L 51.753732 -272.495107 
L 47.332295 -272.495107 
L 42.910858 -272.495107 
L 38.489421 -292.921002 
L 34.067984 -292.921002 
L 29.646547 -272.495107 
L 25.22511 -252.069211 
L 20.803673 -231.643316 
z
" style="stroke: #924bce; stroke-opacity: 0.509091"/>
    </defs>
    <g clip-path="url(#pdea614043a)">
     <use xlink:href="#m076bd7bb2f" x="0" y="337.40125" style="fill: #924bce; fill-opacity: 0.509091; stroke: #924bce; stroke-opacity: 0.509091"/>
    </g>
   </g>
   <g id="line2d_14">
    <path d="M 20.803673 105.757934 
L 25.22511 105.757934 
L 29.646547 105.757934 
L 34.067984 105.757934 
L 38.489421 105.757934 
L 42.910858 105.757934 
L 47.332295 105.757934 
L 51.753732 105.757934 
L 56.175169 105.757934 
L 60.596606 105.757934 
L 65.018043 105.757934 
L 69.43948 105.757934 
L 73.860917 105.757934 
L 78.282354 105.757934 
L 82.703791 105.757934 
L 87.125228 105.757934 
L 91.546665 105.757934 
L 95.968102 105.757934 
L 100.389538 105.757934 
L 104.810975 105.757934 
L 109.232412 105.757934 
L 113.653849 105.757934 
L 118.075286 105.757934 
L 122.496723 105.757934 
L 126.91816 105.757934 
L 131.339597 105.757934 
" clip-path="url(#pdea614043a)" style="fill: none; stroke: #924bce; stroke-opacity: 0.509091; stroke-width: 1.5; stroke-linecap: square"/>
   </g>
   <g id="line2d_15">
    <path d="M 20.803673 105.757934 
L 25.22511 85.332039 
L 29.646547 64.906143 
L 34.067984 44.480248 
L 38.489421 44.480248 
L 42.910858 64.906143 
L 47.332295 64.906143 
L 51.753732 64.906143 
L 56.175169 105.757934 
L 60.596606 105.757934 
L 65.018043 105.757934 
L 69.43948 85.332039 
L 73.860917 105.757934 
L 78.282354 105.757934 
L 82.703791 85.332039 
L 87.125228 105.757934 
L 91.546665 85.332039 
L 95.968102 105.757934 
L 100.389538 105.757934 
L 104.810975 85.332039 
L 109.232412 105.757934 
L 113.653849 105.757934 
L 118.075286 105.757934 
L 122.496723 105.757934 
L 126.91816 85.332039 
L 131.339597 105.757934 
" clip-path="url(#pdea614043a)" style="fill: none; stroke: #000000; stroke-opacity: 0.509091; stroke-width: 1.5; stroke-linecap: square"/>
   </g>
  </g>
  <g id="axes_6">
   <g id="FillBetweenPolyCollection_5">
    <defs>
     <path id="m3c45074382" d="M 24.346701 -220.237862 
L 24.346701 -220.237862 
L 28.781381 -220.237862 
L 33.216061 -220.237862 
L 37.650741 -220.237862 
L 42.085421 -220.237862 
L 46.520101 -220.237862 
L 50.954781 -220.237862 
L 55.389461 -220.237862 
L 59.824141 -220.237862 
L 64.258821 -220.237862 
L 68.693501 -220.237862 
L 73.128181 -220.237862 
L 77.562861 -220.237862 
L 81.997541 -220.237862 
L 86.432221 -220.237862 
L 90.8669 -220.237862 
L 95.30158 -220.237862 
L 99.73626 -220.237862 
L 104.17094 -220.237862 
L 108.60562 -220.237862 
L 113.0403 -220.237862 
L 117.47498 -220.237862 
L 121.90966 -220.237862 
L 126.34434 -220.237862 
L 130.77902 -220.237862 
L 135.2137 -220.237862 
L 135.2137 -220.237862 
L 135.2137 -220.237862 
L 130.77902 -235.557283 
L 126.34434 -235.557283 
L 121.90966 -220.237862 
L 117.47498 -220.237862 
L 113.0403 -220.237862 
L 108.60562 -220.237862 
L 104.17094 -235.557283 
L 99.73626 -220.237862 
L 95.30158 -235.557283 
L 90.8669 -220.237862 
L 86.432221 -235.557283 
L 81.997541 -235.557283 
L 77.562861 -220.237862 
L 73.128181 -220.237862 
L 68.693501 -220.237862 
L 64.258821 -220.237862 
L 59.824141 -235.557283 
L 55.389461 -220.237862 
L 50.954781 -250.876705 
L 46.520101 -250.876705 
L 42.085421 -235.557283 
L 37.650741 -235.557283 
L 33.216061 -281.515548 
L 28.781381 -266.196126 
L 24.346701 -220.237862 
z
" style="stroke: #924bce; stroke-opacity: 0.536364"/>
    </defs>
    <g clip-path="url(#pf29955ba21)">
     <use xlink:href="#m3c45074382" x="0" y="337.40125" style="fill: #924bce; fill-opacity: 0.536364; stroke: #924bce; stroke-opacity: 0.536364"/>
    </g>
   </g>
   <g id="line2d_16">
    <path d="M 24.346701 117.163388 
L 28.781381 117.163388 
L 33.216061 117.163388 
L 37.650741 117.163388 
L 42.085421 117.163388 
L 46.520101 117.163388 
L 50.954781 117.163388 
L 55.389461 117.163388 
L 59.824141 117.163388 
L 64.258821 117.163388 
L 68.693501 117.163388 
L 73.128181 117.163388 
L 77.562861 117.163388 
L 81.997541 117.163388 
L 86.432221 117.163388 
L 90.8669 117.163388 
L 95.30158 117.163388 
L 99.73626 117.163388 
L 104.17094 117.163388 
L 108.60562 117.163388 
L 113.0403 117.163388 
L 117.47498 117.163388 
L 121.90966 117.163388 
L 126.34434 117.163388 
L 130.77902 117.163388 
L 135.2137 117.163388 
" clip-path="url(#pf29955ba21)" style="fill: none; stroke: #924bce; stroke-opacity: 0.536364; stroke-width: 1.5; stroke-linecap: square"/>
   </g>
   <g id="line2d_17">
    <path d="M 24.346701 117.163388 
L 28.781381 71.205124 
L 33.216061 55.885702 
L 37.650741 101.843967 
L 42.085421 101.843967 
L 46.520101 86.524545 
L 50.954781 86.524545 
L 55.389461 117.163388 
L 59.824141 101.843967 
L 64.258821 117.163388 
L 68.693501 117.163388 
L 73.128181 117.163388 
L 77.562861 117.163388 
L 81.997541 101.843967 
L 86.432221 101.843967 
L 90.8669 117.163388 
L 95.30158 101.843967 
L 99.73626 117.163388 
L 104.17094 101.843967 
L 108.60562 117.163388 
L 113.0403 117.163388 
L 117.47498 117.163388 
L 121.90966 117.163388 
L 126.34434 101.843967 
L 130.77902 101.843967 
L 135.2137 117.163388 
" clip-path="url(#pf29955ba21)" style="fill: none; stroke: #000000; stroke-opacity: 0.536364; stroke-width: 1.5; stroke-linecap: square"/>
   </g>
  </g>
  <g id="axes_7">
   <g id="FillBetweenPolyCollection_6">
    <defs>
     <path id="m62dc553c43" d="M 20.035396 -208.832407 
L 20.035396 -208.832407 
L 24.685419 -208.832407 
L 29.335441 -208.832407 
L 33.985464 -208.832407 
L 38.635487 -208.832407 
L 43.28551 -208.832407 
L 47.935532 -208.832407 
L 52.585555 -208.832407 
L 57.235578 -208.832407 
L 61.885601 -208.832407 
L 66.535623 -208.832407 
L 71.185646 -208.832407 
L 75.835669 -208.832407 
L 80.485692 -208.832407 
L 85.135714 -208.832407 
L 89.785737 -208.832407 
L 94.43576 -208.832407 
L 99.085783 -208.832407 
L 103.735806 -208.832407 
L 108.385828 -208.832407 
L 113.035851 -208.832407 
L 117.685874 -208.832407 
L 122.335897 -208.832407 
L 126.985919 -208.832407 
L 131.635942 -208.832407 
L 136.285965 -208.832407 
L 136.285965 -208.832407 
L 136.285965 -208.832407 
L 131.635942 -224.151829 
L 126.985919 -208.832407 
L 122.335897 -208.832407 
L 117.685874 -208.832407 
L 113.035851 -224.151829 
L 108.385828 -208.832407 
L 103.735806 -208.832407 
L 99.085783 -224.151829 
L 94.43576 -239.47125 
L 89.785737 -208.832407 
L 85.135714 -208.832407 
L 80.485692 -224.151829 
L 75.835669 -208.832407 
L 71.185646 -224.151829 
L 66.535623 -208.832407 
L 61.885601 -208.832407 
L 57.235578 -224.151829 
L 52.585555 -208.832407 
L 47.935532 -224.151829 
L 43.28551 -224.151829 
L 38.635487 -239.47125 
L 33.985464 -254.790671 
L 29.335441 -270.110093 
L 24.685419 -224.151829 
L 20.035396 -208.832407 
z
" style="stroke: #924bce; stroke-opacity: 0.563636"/>
    </defs>
    <g clip-path="url(#p10f4a75396)">
     <use xlink:href="#m62dc553c43" x="0" y="337.40125" style="fill: #924bce; fill-opacity: 0.563636; stroke: #924bce; stroke-opacity: 0.563636"/>
    </g>
   </g>
   <g id="line2d_18">
    <path d="M 20.035396 128.568843 
L 24.685419 128.568843 
L 29.335441 128.568843 
L 33.985464 128.568843 
L 38.635487 128.568843 
L 43.28551 128.568843 
L 47.935532 128.568843 
L 52.585555 128.568843 
L 57.235578 128.568843 
L 61.885601 128.568843 
L 66.535623 128.568843 
L 71.185646 128.568843 
L 75.835669 128.568843 
L 80.485692 128.568843 
L 85.135714 128.568843 
L 89.785737 128.568843 
L 94.43576 128.568843 
L 99.085783 128.568843 
L 103.735806 128.568843 
L 108.385828 128.568843 
L 113.035851 128.568843 
L 117.685874 128.568843 
L 122.335897 128.568843 
L 126.985919 128.568843 
L 131.635942 128.568843 
L 136.285965 128.568843 
" clip-path="url(#p10f4a75396)" style="fill: none; stroke: #924bce; stroke-opacity: 0.563636; stroke-width: 1.5; stroke-linecap: square"/>
   </g>
   <g id="line2d_19">
    <path d="M 20.035396 128.568843 
L 24.685419 113.249421 
L 29.335441 67.291157 
L 33.985464 82.610579 
L 38.635487 97.93 
L 43.28551 113.249421 
L 47.935532 113.249421 
L 52.585555 128.568843 
L 57.235578 113.249421 
L 61.885601 128.568843 
L 66.535623 128.568843 
L 71.185646 113.249421 
L 75.835669 128.568843 
L 80.485692 113.249421 
L 85.135714 128.568843 
L 89.785737 128.568843 
L 94.43576 97.93 
L 99.085783 113.249421 
L 103.735806 128.568843 
L 108.385828 128.568843 
L 113.035851 113.249421 
L 117.685874 128.568843 
L 122.335897 128.568843 
L 126.985919 128.568843 
L 131.635942 113.249421 
L 136.285965 128.568843 
" clip-path="url(#p10f4a75396)" style="fill: none; stroke: #000000; stroke-opacity: 0.563636; stroke-width: 1.5; stroke-linecap: square"/>
   </g>
  </g>
  <g id="axes_8">
   <g id="FillBetweenPolyCollection_7">
    <defs>
     <path id="m45483d7ede" d="M 20.780537 -197.426952 
L 20.780537 -197.426952 
L 25.0882 -197.426952 
L 29.395862 -197.426952 
L 33.703524 -197.426952 
L 38.011186 -197.426952 
L 42.318849 -197.426952 
L 46.626511 -197.426952 
L 50.934173 -197.426952 
L 55.241835 -197.426952 
L 59.549498 -197.426952 
L 63.85716 -197.426952 
L 68.164822 -197.426952 
L 72.472484 -197.426952 
L 76.780147 -197.426952 
L 81.087809 -197.426952 
L 85.395471 -197.426952 
L 89.703133 -197.426952 
L 94.010796 -197.426952 
L 98.318458 -197.426952 
L 102.62612 -197.426952 
L 106.933782 -197.426952 
L 111.241445 -197.426952 
L 115.549107 -197.426952 
L 119.856769 -197.426952 
L 124.164431 -197.426952 
L 128.472094 -197.426952 
L 128.472094 -197.426952 
L 128.472094 -197.426952 
L 124.164431 -209.68249 
L 119.856769 -209.68249 
L 115.549107 -209.68249 
L 111.241445 -197.426952 
L 106.933782 -197.426952 
L 102.62612 -209.68249 
L 98.318458 -209.68249 
L 94.010796 -209.68249 
L 89.703133 -197.426952 
L 85.395471 -197.426952 
L 81.087809 -197.426952 
L 76.780147 -197.426952 
L 72.472484 -197.426952 
L 68.164822 -197.426952 
L 63.85716 -209.68249 
L 59.549498 -209.68249 
L 55.241835 -197.426952 
L 50.934173 -209.68249 
L 46.626511 -209.68249 
L 42.318849 -209.68249 
L 38.011186 -234.193564 
L 33.703524 -258.704638 
L 29.395862 -197.426952 
L 25.0882 -209.68249 
L 20.780537 -197.426952 
z
" style="stroke: #924bce; stroke-opacity: 0.590909"/>
    </defs>
    <g clip-path="url(#p934b914748)">
     <use xlink:href="#m45483d7ede" x="0" y="337.40125" style="fill: #924bce; fill-opacity: 0.590909; stroke: #924bce; stroke-opacity: 0.590909"/>
    </g>
   </g>
   <g id="line2d_20">
    <path d="M 20.780537 139.974298 
L 25.0882 139.974298 
L 29.395862 139.974298 
L 33.703524 139.974298 
L 38.011186 139.974298 
L 42.318849 139.974298 
L 46.626511 139.974298 
L 50.934173 139.974298 
L 55.241835 139.974298 
L 59.549498 139.974298 
L 63.85716 139.974298 
L 68.164822 139.974298 
L 72.472484 139.974298 
L 76.780147 139.974298 
L 81.087809 139.974298 
L 85.395471 139.974298 
L 89.703133 139.974298 
L 94.010796 139.974298 
L 98.318458 139.974298 
L 102.62612 139.974298 
L 106.933782 139.974298 
L 111.241445 139.974298 
L 115.549107 139.974298 
L 119.856769 139.974298 
L 124.164431 139.974298 
L 128.472094 139.974298 
" clip-path="url(#p934b914748)" style="fill: none; stroke: #924bce; stroke-opacity: 0.590909; stroke-width: 1.5; stroke-linecap: square"/>
   </g>
   <g id="line2d_21">
    <path d="M 20.780537 139.974298 
L 25.0882 127.71876 
L 29.395862 139.974298 
L 33.703524 78.696612 
L 38.011186 103.207686 
L 42.318849 127.71876 
L 46.626511 127.71876 
L 50.934173 127.71876 
L 55.241835 139.974298 
L 59.549498 127.71876 
L 63.85716 127.71876 
L 68.164822 139.974298 
L 72.472484 139.974298 
L 76.780147 139.974298 
L 81.087809 139.974298 
L 85.395471 139.974298 
L 89.703133 139.974298 
L 94.010796 127.71876 
L 98.318458 127.71876 
L 102.62612 127.71876 
L 106.933782 139.974298 
L 111.241445 139.974298 
L 115.549107 127.71876 
L 119.856769 127.71876 
L 124.164431 127.71876 
L 128.472094 139.974298 
" clip-path="url(#p934b914748)" style="fill: none; stroke: #000000; stroke-opacity: 0.590909; stroke-width: 1.5; stroke-linecap: square"/>
   </g>
  </g>
  <g id="axes_9">
   <g id="FillBetweenPolyCollection_8">
    <defs>
     <path id="m5034d1fcd4" d="M 22.637542 -186.021498 
L 22.637542 -186.021498 
L 27.702704 -186.021498 
L 32.767866 -186.021498 
L 37.833029 -186.021498 
L 42.898191 -186.021498 
L 47.963353 -186.021498 
L 53.028515 -186.021498 
L 58.093678 -186.021498 
L 63.15884 -186.021498 
L 68.224002 -186.021498 
L 73.289164 -186.021498 
L 78.354327 -186.021498 
L 83.419489 -186.021498 
L 88.484651 -186.021498 
L 93.549813 -186.021498 
L 98.614976 -186.021498 
L 103.680138 -186.021498 
L 108.7453 -186.021498 
L 113.810462 -186.021498 
L 118.875624 -186.021498 
L 123.940787 -186.021498 
L 129.005949 -186.021498 
L 134.071111 -186.021498 
L 139.136273 -186.021498 
L 144.201436 -186.021498 
L 149.266598 -186.021498 
L 149.266598 -186.021498 
L 149.266598 -186.021498 
L 144.201436 -194.775453 
L 139.136273 -186.021498 
L 134.071111 -186.021498 
L 129.005949 -186.021498 
L 123.940787 -186.021498 
L 118.875624 -194.775453 
L 113.810462 -194.775453 
L 108.7453 -194.775453 
L 103.680138 -186.021498 
L 98.614976 -194.775453 
L 93.549813 -186.021498 
L 88.484651 -186.021498 
L 83.419489 -186.021498 
L 78.354327 -186.021498 
L 73.289164 -194.775453 
L 68.224002 -186.021498 
L 63.15884 -186.021498 
L 58.093678 -194.775453 
L 53.028515 -194.775453 
L 47.963353 -186.021498 
L 42.898191 -203.529408 
L 37.833029 -194.775453 
L 32.767866 -247.299184 
L 27.702704 -203.529408 
L 22.637542 -186.021498 
z
" style="stroke: #924bce; stroke-opacity: 0.618182"/>
    </defs>
    <g clip-path="url(#p8acdf6b5f6)">
     <use xlink:href="#m5034d1fcd4" x="0" y="337.40125" style="fill: #924bce; fill-opacity: 0.618182; stroke: #924bce; stroke-opacity: 0.618182"/>
    </g>
   </g>
   <g id="line2d_22">
    <path d="M 22.637542 151.379752 
L 27.702704 151.379752 
L 32.767866 151.379752 
L 37.833029 151.379752 
L 42.898191 151.379752 
L 47.963353 151.379752 
L 53.028515 151.379752 
L 58.093678 151.379752 
L 63.15884 151.379752 
L 68.224002 151.379752 
L 73.289164 151.379752 
L 78.354327 151.379752 
L 83.419489 151.379752 
L 88.484651 151.379752 
L 93.549813 151.379752 
L 98.614976 151.379752 
L 103.680138 151.379752 
L 108.7453 151.379752 
L 113.810462 151.379752 
L 118.875624 151.379752 
L 123.940787 151.379752 
L 129.005949 151.379752 
L 134.071111 151.379752 
L 139.136273 151.379752 
L 144.201436 151.379752 
L 149.266598 151.379752 
" clip-path="url(#p8acdf6b5f6)" style="fill: none; stroke: #924bce; stroke-opacity: 0.618182; stroke-width: 1.5; stroke-linecap: square"/>
   </g>
   <g id="line2d_23">
    <path d="M 22.637542 151.379752 
L 27.702704 133.871842 
L 32.767866 90.102066 
L 37.833029 142.625797 
L 42.898191 133.871842 
L 47.963353 151.379752 
L 53.028515 142.625797 
L 58.093678 142.625797 
L 63.15884 151.379752 
L 68.224002 151.379752 
L 73.289164 142.625797 
L 78.354327 151.379752 
L 83.419489 151.379752 
L 88.484651 151.379752 
L 93.549813 151.379752 
L 98.614976 142.625797 
L 103.680138 151.379752 
L 108.7453 142.625797 
L 113.810462 142.625797 
L 118.875624 142.625797 
L 123.940787 151.379752 
L 129.005949 151.379752 
L 134.071111 151.379752 
L 139.136273 151.379752 
L 144.201436 142.625797 
L 149.266598 151.379752 
" clip-path="url(#p8acdf6b5f6)" style="fill: none; stroke: #000000; stroke-opacity: 0.618182; stroke-width: 1.5; stroke-linecap: square"/>
   </g>
  </g>
  <g id="axes_10">
   <g id="FillBetweenPolyCollection_9">
    <defs>
     <path id="m20be1b1ee9" d="M 19.109563 -174.616043 
L 19.109563 -174.616043 
L 24.358976 -174.616043 
L 29.608389 -174.616043 
L 34.857801 -174.616043 
L 40.107214 -174.616043 
L 45.356627 -174.616043 
L 50.60604 -174.616043 
L 55.855452 -174.616043 
L 61.104865 -174.616043 
L 66.354278 -174.616043 
L 71.603691 -174.616043 
L 76.853104 -174.616043 
L 82.102516 -174.616043 
L 87.351929 -174.616043 
L 92.601342 -174.616043 
L 97.850755 -174.616043 
L 103.100167 -174.616043 
L 108.34958 -174.616043 
L 113.598993 -174.616043 
L 118.848406 -174.616043 
L 124.097818 -174.616043 
L 129.347231 -174.616043 
L 134.596644 -174.616043 
L 139.846057 -174.616043 
L 145.09547 -174.616043 
L 150.344882 -174.616043 
L 150.344882 -174.616043 
L 150.344882 -174.616043 
L 145.09547 -186.871581 
L 139.846057 -174.616043 
L 134.596644 -199.127118 
L 129.347231 -174.616043 
L 124.097818 -174.616043 
L 118.848406 -174.616043 
L 113.598993 -174.616043 
L 108.34958 -174.616043 
L 103.100167 -174.616043 
L 97.850755 -174.616043 
L 92.601342 -199.127118 
L 87.351929 -186.871581 
L 82.102516 -174.616043 
L 76.853104 -174.616043 
L 71.603691 -174.616043 
L 66.354278 -186.871581 
L 61.104865 -174.616043 
L 55.855452 -174.616043 
L 50.60604 -186.871581 
L 45.356627 -199.127118 
L 40.107214 -235.893729 
L 34.857801 -211.382655 
L 29.608389 -186.871581 
L 24.358976 -186.871581 
L 19.109563 -174.616043 
z
" style="stroke: #924bce; stroke-opacity: 0.645455"/>
    </defs>
    <g clip-path="url(#pa1351ec40c)">
     <use xlink:href="#m20be1b1ee9" x="0" y="337.40125" style="fill: #924bce; fill-opacity: 0.645455; stroke: #924bce; stroke-opacity: 0.645455"/>
    </g>
   </g>
   <g id="line2d_24">
    <path d="M 19.109563 162.785207 
L 24.358976 162.785207 
L 29.608389 162.785207 
L 34.857801 162.785207 
L 40.107214 162.785207 
L 45.356627 162.785207 
L 50.60604 162.785207 
L 55.855452 162.785207 
L 61.104865 162.785207 
L 66.354278 162.785207 
L 71.603691 162.785207 
L 76.853104 162.785207 
L 82.102516 162.785207 
L 87.351929 162.785207 
L 92.601342 162.785207 
L 97.850755 162.785207 
L 103.100167 162.785207 
L 108.34958 162.785207 
L 113.598993 162.785207 
L 118.848406 162.785207 
L 124.097818 162.785207 
L 129.347231 162.785207 
L 134.596644 162.785207 
L 139.846057 162.785207 
L 145.09547 162.785207 
L 150.344882 162.785207 
" clip-path="url(#pa1351ec40c)" style="fill: none; stroke: #924bce; stroke-opacity: 0.645455; stroke-width: 1.5; stroke-linecap: square"/>
   </g>
   <g id="line2d_25">
    <path d="M 19.109563 162.785207 
L 24.358976 150.529669 
L 29.608389 150.529669 
L 34.857801 126.018595 
L 40.107214 101.507521 
L 45.356627 138.274132 
L 50.60604 150.529669 
L 55.855452 162.785207 
L 61.104865 162.785207 
L 66.354278 150.529669 
L 71.603691 162.785207 
L 76.853104 162.785207 
L 82.102516 162.785207 
L 87.351929 150.529669 
L 92.601342 138.274132 
L 97.850755 162.785207 
L 103.100167 162.785207 
L 108.34958 162.785207 
L 113.598993 162.785207 
L 118.848406 162.785207 
L 124.097818 162.785207 
L 129.347231 162.785207 
L 134.596644 138.274132 
L 139.846057 162.785207 
L 145.09547 150.529669 
L 150.344882 162.785207 
" clip-path="url(#pa1351ec40c)" style="fill: none; stroke: #000000; stroke-opacity: 0.645455; stroke-width: 1.5; stroke-linecap: square"/>
   </g>
  </g>
  <g id="axes_11">
   <g id="FillBetweenPolyCollection_10">
    <defs>
     <path id="m01f806de4d" d="M 24.597821 -163.210589 
L 24.597821 -163.210589 
L 30.540476 -163.210589 
L 36.483132 -163.210589 
L 42.425787 -163.210589 
L 48.368443 -163.210589 
L 54.311098 -163.210589 
L 60.253753 -163.210589 
L 66.196409 -163.210589 
L 72.139064 -163.210589 
L 78.08172 -163.210589 
L 84.024375 -163.210589 
L 89.96703 -163.210589 
L 95.909686 -163.210589 
L 101.852341 -163.210589 
L 107.794996 -163.210589 
L 113.737652 -163.210589 
L 119.680307 -163.210589 
L 125.622963 -163.210589 
L 131.565618 -163.210589 
L 137.508273 -163.210589 
L 143.450929 -163.210589 
L 149.393584 -163.210589 
L 155.33624 -163.210589 
L 161.278895 -163.210589 
L 167.22155 -163.210589 
L 173.164206 -163.210589 
L 173.164206 -163.210589 
L 173.164206 -163.210589 
L 167.22155 -175.466126 
L 161.278895 -163.210589 
L 155.33624 -163.210589 
L 149.393584 -163.210589 
L 143.450929 -163.210589 
L 137.508273 -163.210589 
L 131.565618 -175.466126 
L 125.622963 -163.210589 
L 119.680307 -175.466126 
L 113.737652 -175.466126 
L 107.794996 -163.210589 
L 101.852341 -163.210589 
L 95.909686 -175.466126 
L 89.96703 -175.466126 
L 84.024375 -163.210589 
L 78.08172 -163.210589 
L 72.139064 -163.210589 
L 66.196409 -175.466126 
L 60.253753 -163.210589 
L 54.311098 -175.466126 
L 48.368443 -175.466126 
L 42.425787 -224.488275 
L 36.483132 -212.232738 
L 30.540476 -187.721663 
L 24.597821 -163.210589 
z
" style="stroke: #924bce; stroke-opacity: 0.672727"/>
    </defs>
    <g clip-path="url(#p69e2a4b6c4)">
     <use xlink:href="#m01f806de4d" x="0" y="337.40125" style="fill: #924bce; fill-opacity: 0.672727; stroke: #924bce; stroke-opacity: 0.672727"/>
    </g>
   </g>
   <g id="line2d_26">
    <path d="M 24.597821 174.190661 
L 30.540476 174.190661 
L 36.483132 174.190661 
L 42.425787 174.190661 
L 48.368443 174.190661 
L 54.311098 174.190661 
L 60.253753 174.190661 
L 66.196409 174.190661 
L 72.139064 174.190661 
L 78.08172 174.190661 
L 84.024375 174.190661 
L 89.96703 174.190661 
L 95.909686 174.190661 
L 101.852341 174.190661 
L 107.794996 174.190661 
L 113.737652 174.190661 
L 119.680307 174.190661 
L 125.622963 174.190661 
L 131.565618 174.190661 
L 137.508273 174.190661 
L 143.450929 174.190661 
L 149.393584 174.190661 
L 155.33624 174.190661 
L 161.278895 174.190661 
L 167.22155 174.190661 
L 173.164206 174.190661 
" clip-path="url(#p69e2a4b6c4)" style="fill: none; stroke: #924bce; stroke-opacity: 0.672727; stroke-width: 1.5; stroke-linecap: square"/>
   </g>
   <g id="line2d_27">
    <path d="M 24.597821 174.190661 
L 30.540476 149.679587 
L 36.483132 125.168512 
L 42.425787 112.912975 
L 48.368443 161.935124 
L 54.311098 161.935124 
L 60.253753 174.190661 
L 66.196409 161.935124 
L 72.139064 174.190661 
L 78.08172 174.190661 
L 84.024375 174.190661 
L 89.96703 161.935124 
L 95.909686 161.935124 
L 101.852341 174.190661 
L 107.794996 174.190661 
L 113.737652 161.935124 
L 119.680307 161.935124 
L 125.622963 174.190661 
L 131.565618 161.935124 
L 137.508273 174.190661 
L 143.450929 174.190661 
L 149.393584 174.190661 
L 155.33624 174.190661 
L 161.278895 174.190661 
L 167.22155 161.935124 
L 173.164206 174.190661 
" clip-path="url(#p69e2a4b6c4)" style="fill: none; stroke: #000000; stroke-opacity: 0.672727; stroke-width: 1.5; stroke-linecap: square"/>
   </g>
  </g>
  <g id="axes_12">
   <g id="FillBetweenPolyCollection_11">
    <defs>
     <path id="m7f72e0e08d" d="M 20.440799 -151.805134 
L 20.440799 -151.805134 
L 26.252752 -151.805134 
L 32.064705 -151.805134 
L 37.876657 -151.805134 
L 43.68861 -151.805134 
L 49.500563 -151.805134 
L 55.312515 -151.805134 
L 61.124468 -151.805134 
L 66.936421 -151.805134 
L 72.748373 -151.805134 
L 78.560326 -151.805134 
L 84.372279 -151.805134 
L 90.184231 -151.805134 
L 95.996184 -151.805134 
L 101.808137 -151.805134 
L 107.620089 -151.805134 
L 113.432042 -151.805134 
L 119.243995 -151.805134 
L 125.055947 -151.805134 
L 130.8679 -151.805134 
L 136.679853 -151.805134 
L 142.491805 -151.805134 
L 148.303758 -151.805134 
L 154.115711 -151.805134 
L 159.927663 -151.805134 
L 165.739616 -151.805134 
L 165.739616 -151.805134 
L 165.739616 -151.805134 
L 159.927663 -167.124556 
L 154.115711 -151.805134 
L 148.303758 -167.124556 
L 142.491805 -151.805134 
L 136.679853 -151.805134 
L 130.8679 -167.124556 
L 125.055947 -167.124556 
L 119.243995 -151.805134 
L 113.432042 -151.805134 
L 107.620089 -151.805134 
L 101.808137 -151.805134 
L 95.996184 -167.124556 
L 90.184231 -167.124556 
L 84.372279 -151.805134 
L 78.560326 -151.805134 
L 72.748373 -151.805134 
L 66.936421 -167.124556 
L 61.124468 -167.124556 
L 55.312515 -151.805134 
L 49.500563 -182.443977 
L 43.68861 -197.763399 
L 37.876657 -213.08282 
L 32.064705 -167.124556 
L 26.252752 -182.443977 
L 20.440799 -151.805134 
z
" style="stroke: #924bce; stroke-opacity: 0.7"/>
    </defs>
    <g clip-path="url(#p002c4de5bc)">
     <use xlink:href="#m7f72e0e08d" x="0" y="337.40125" style="fill: #924bce; fill-opacity: 0.7; stroke: #924bce; stroke-opacity: 0.7"/>
    </g>
   </g>
   <g id="line2d_28">
    <path d="M 20.440799 185.596116 
L 26.252752 185.596116 
L 32.064705 185.596116 
L 37.876657 185.596116 
L 43.68861 185.596116 
L 49.500563 185.596116 
L 55.312515 185.596116 
L 61.124468 185.596116 
L 66.936421 185.596116 
L 72.748373 185.596116 
L 78.560326 185.596116 
L 84.372279 185.596116 
L 90.184231 185.596116 
L 95.996184 185.596116 
L 101.808137 185.596116 
L 107.620089 185.596116 
L 113.432042 185.596116 
L 119.243995 185.596116 
L 125.055947 185.596116 
L 130.8679 185.596116 
L 136.679853 185.596116 
L 142.491805 185.596116 
L 148.303758 185.596116 
L 154.115711 185.596116 
L 159.927663 185.596116 
L 165.739616 185.596116 
" clip-path="url(#p002c4de5bc)" style="fill: none; stroke: #924bce; stroke-opacity: 0.7; stroke-width: 1.5; stroke-linecap: square"/>
   </g>
   <g id="line2d_29">
    <path d="M 20.440799 185.596116 
L 26.252752 154.957273 
L 32.064705 170.276694 
L 37.876657 124.31843 
L 43.68861 139.637851 
L 49.500563 154.957273 
L 55.312515 185.596116 
L 61.124468 170.276694 
L 66.936421 170.276694 
L 72.748373 185.596116 
L 78.560326 185.596116 
L 84.372279 185.596116 
L 90.184231 170.276694 
L 95.996184 170.276694 
L 101.808137 185.596116 
L 107.620089 185.596116 
L 113.432042 185.596116 
L 119.243995 185.596116 
L 125.055947 170.276694 
L 130.8679 170.276694 
L 136.679853 185.596116 
L 142.491805 185.596116 
L 148.303758 170.276694 
L 154.115711 185.596116 
L 159.927663 170.276694 
L 165.739616 185.596116 
" clip-path="url(#p002c4de5bc)" style="fill: none; stroke: #000000; stroke-opacity: 0.7; stroke-width: 1.5; stroke-linecap: square"/>
   </g>
  </g>
  <g id="axes_13">
   <g id="FillBetweenPolyCollection_12">
    <defs>
     <path id="m608175b6d6" d="M 33.730131 -140.39968 
L 33.730131 -140.39968 
L 38.953633 -140.39968 
L 44.177136 -140.39968 
L 49.400638 -140.39968 
L 54.624141 -140.39968 
L 59.847643 -140.39968 
L 65.071146 -140.39968 
L 70.294648 -140.39968 
L 75.518151 -140.39968 
L 80.741653 -140.39968 
L 85.965156 -140.39968 
L 91.188658 -140.39968 
L 96.412161 -140.39968 
L 101.635664 -140.39968 
L 106.859166 -140.39968 
L 112.082669 -140.39968 
L 117.306171 -140.39968 
L 122.529674 -140.39968 
L 127.753176 -140.39968 
L 132.976679 -140.39968 
L 138.200181 -140.39968 
L 143.423684 -140.39968 
L 148.647186 -140.39968 
L 153.870689 -140.39968 
L 159.094191 -140.39968 
L 164.317694 -140.39968 
L 164.317694 -140.39968 
L 164.317694 -140.39968 
L 159.094191 -155.719101 
L 153.870689 -140.39968 
L 148.647186 -140.39968 
L 143.423684 -155.719101 
L 138.200181 -140.39968 
L 132.976679 -155.719101 
L 127.753176 -155.719101 
L 122.529674 -140.39968 
L 117.306171 -140.39968 
L 112.082669 -171.038523 
L 106.859166 -140.39968 
L 101.635664 -140.39968 
L 96.412161 -140.39968 
L 91.188658 -140.39968 
L 85.965156 -140.39968 
L 80.741653 -140.39968 
L 75.518151 -155.719101 
L 70.294648 -155.719101 
L 65.071146 -171.038523 
L 59.847643 -140.39968 
L 54.624141 -155.719101 
L 49.400638 -201.677366 
L 44.177136 -171.038523 
L 38.953633 -186.357944 
L 33.730131 -140.39968 
z
" style="stroke: #924bce; stroke-opacity: 0.727273"/>
    </defs>
    <g clip-path="url(#p36fa4674a0)">
     <use xlink:href="#m608175b6d6" x="0" y="337.40125" style="fill: #924bce; fill-opacity: 0.727273; stroke: #924bce; stroke-opacity: 0.727273"/>
    </g>
   </g>
   <g id="line2d_30">
    <path d="M 33.730131 197.00157 
L 38.953633 197.00157 
L 44.177136 197.00157 
L 49.400638 197.00157 
L 54.624141 197.00157 
L 59.847643 197.00157 
L 65.071146 197.00157 
L 70.294648 197.00157 
L 75.518151 197.00157 
L 80.741653 197.00157 
L 85.965156 197.00157 
L 91.188658 197.00157 
L 96.412161 197.00157 
L 101.635664 197.00157 
L 106.859166 197.00157 
L 112.082669 197.00157 
L 117.306171 197.00157 
L 122.529674 197.00157 
L 127.753176 197.00157 
L 132.976679 197.00157 
L 138.200181 197.00157 
L 143.423684 197.00157 
L 148.647186 197.00157 
L 153.870689 197.00157 
L 159.094191 197.00157 
L 164.317694 197.00157 
" clip-path="url(#p36fa4674a0)" style="fill: none; stroke: #924bce; stroke-opacity: 0.727273; stroke-width: 1.5; stroke-linecap: square"/>
   </g>
   <g id="line2d_31">
    <path d="M 33.730131 197.00157 
L 38.953633 151.043306 
L 44.177136 166.362727 
L 49.400638 135.723884 
L 54.624141 181.682149 
L 59.847643 197.00157 
L 65.071146 166.362727 
L 70.294648 181.682149 
L 75.518151 181.682149 
L 80.741653 197.00157 
L 85.965156 197.00157 
L 91.188658 197.00157 
L 96.412161 197.00157 
L 101.635664 197.00157 
L 106.859166 197.00157 
L 112.082669 166.362727 
L 117.306171 197.00157 
L 122.529674 197.00157 
L 127.753176 181.682149 
L 132.976679 181.682149 
L 138.200181 197.00157 
L 143.423684 181.682149 
L 148.647186 197.00157 
L 153.870689 197.00157 
L 159.094191 181.682149 
L 164.317694 197.00157 
" clip-path="url(#p36fa4674a0)" style="fill: none; stroke: #000000; stroke-opacity: 0.727273; stroke-width: 1.5; stroke-linecap: square"/>
   </g>
  </g>
  <g id="axes_14">
   <g id="FillBetweenPolyCollection_13">
    <defs>
     <path id="maf486fcf48" d="M 34.72299 -128.994225 
L 34.72299 -128.994225 
L 41.396544 -128.994225 
L 48.070098 -128.994225 
L 54.743652 -128.994225 
L 61.417206 -128.994225 
L 68.090761 -128.994225 
L 74.764315 -128.994225 
L 81.437869 -128.994225 
L 88.111423 -128.994225 
L 94.784978 -128.994225 
L 101.458532 -128.994225 
L 108.132086 -128.994225 
L 114.80564 -128.994225 
L 121.479194 -128.994225 
L 128.152749 -128.994225 
L 134.826303 -128.994225 
L 141.499857 -128.994225 
L 148.173411 -128.994225 
L 154.846965 -128.994225 
L 161.52052 -128.994225 
L 168.194074 -128.994225 
L 174.867628 -128.994225 
L 181.541182 -128.994225 
L 188.214737 -128.994225 
L 194.888291 -128.994225 
L 201.561845 -128.994225 
L 201.561845 -128.994225 
L 201.561845 -128.994225 
L 194.888291 -144.313647 
L 188.214737 -128.994225 
L 181.541182 -128.994225 
L 174.867628 -128.994225 
L 168.194074 -144.313647 
L 161.52052 -128.994225 
L 154.846965 -174.95249 
L 148.173411 -128.994225 
L 141.499857 -128.994225 
L 134.826303 -128.994225 
L 128.152749 -144.313647 
L 121.479194 -128.994225 
L 114.80564 -128.994225 
L 108.132086 -128.994225 
L 101.458532 -128.994225 
L 94.784978 -144.313647 
L 88.111423 -128.994225 
L 81.437869 -159.633068 
L 74.764315 -144.313647 
L 68.090761 -144.313647 
L 61.417206 -144.313647 
L 54.743652 -159.633068 
L 48.070098 -190.271911 
L 41.396544 -159.633068 
L 34.72299 -128.994225 
z
" style="stroke: #924bce; stroke-opacity: 0.754545"/>
    </defs>
    <g clip-path="url(#p1e59ac2162)">
     <use xlink:href="#maf486fcf48" x="0" y="337.40125" style="fill: #924bce; fill-opacity: 0.754545; stroke: #924bce; stroke-opacity: 0.754545"/>
    </g>
   </g>
   <g id="line2d_32">
    <path d="M 34.72299 208.407025 
L 41.396544 208.407025 
L 48.070098 208.407025 
L 54.743652 208.407025 
L 61.417206 208.407025 
L 68.090761 208.407025 
L 74.764315 208.407025 
L 81.437869 208.407025 
L 88.111423 208.407025 
L 94.784978 208.407025 
L 101.458532 208.407025 
L 108.132086 208.407025 
L 114.80564 208.407025 
L 121.479194 208.407025 
L 128.152749 208.407025 
L 134.826303 208.407025 
L 141.499857 208.407025 
L 148.173411 208.407025 
L 154.846965 208.407025 
L 161.52052 208.407025 
L 168.194074 208.407025 
L 174.867628 208.407025 
L 181.541182 208.407025 
L 188.214737 208.407025 
L 194.888291 208.407025 
L 201.561845 208.407025 
" clip-path="url(#p1e59ac2162)" style="fill: none; stroke: #924bce; stroke-opacity: 0.754545; stroke-width: 1.5; stroke-linecap: square"/>
   </g>
   <g id="line2d_33">
    <path d="M 34.72299 208.407025 
L 41.396544 177.768182 
L 48.070098 147.129339 
L 54.743652 177.768182 
L 61.417206 193.087603 
L 68.090761 193.087603 
L 74.764315 193.087603 
L 81.437869 177.768182 
L 88.111423 208.407025 
L 94.784978 193.087603 
L 101.458532 208.407025 
L 108.132086 208.407025 
L 114.80564 208.407025 
L 121.479194 208.407025 
L 128.152749 193.087603 
L 134.826303 208.407025 
L 141.499857 208.407025 
L 148.173411 208.407025 
L 154.846965 162.44876 
L 161.52052 208.407025 
L 168.194074 193.087603 
L 174.867628 208.407025 
L 181.541182 208.407025 
L 188.214737 208.407025 
L 194.888291 193.087603 
L 201.561845 208.407025 
" clip-path="url(#p1e59ac2162)" style="fill: none; stroke: #000000; stroke-opacity: 0.754545; stroke-width: 1.5; stroke-linecap: square"/>
   </g>
  </g>
  <g id="axes_15">
   <g id="FillBetweenPolyCollection_14">
    <defs>
     <path id="m26b7c7b9c7" d="M 31.868127 -117.588771 
L 31.868127 -117.588771 
L 42.277706 -117.588771 
L 52.687285 -117.588771 
L 63.096865 -117.588771 
L 73.506444 -117.588771 
L 83.916023 -117.588771 
L 94.325602 -117.588771 
L 104.735181 -117.588771 
L 115.144761 -117.588771 
L 125.55434 -117.588771 
L 135.963919 -117.588771 
L 146.373498 -117.588771 
L 156.783077 -117.588771 
L 167.192657 -117.588771 
L 177.602236 -117.588771 
L 188.011815 -117.588771 
L 198.421394 -117.588771 
L 208.830973 -117.588771 
L 219.240553 -117.588771 
L 229.650132 -117.588771 
L 240.059711 -117.588771 
L 250.46929 -117.588771 
L 260.878869 -117.588771 
L 271.288448 -117.588771 
L 281.698028 -117.588771 
L 292.107607 -117.588771 
L 292.107607 -117.588771 
L 292.107607 -117.588771 
L 281.698028 -129.844308 
L 271.288448 -117.588771 
L 260.878869 -117.588771 
L 250.46929 -129.844308 
L 240.059711 -154.355382 
L 229.650132 -117.588771 
L 219.240553 -117.588771 
L 208.830973 -117.588771 
L 198.421394 -129.844308 
L 188.011815 -117.588771 
L 177.602236 -117.588771 
L 167.192657 -117.588771 
L 156.783077 -117.588771 
L 146.373498 -117.588771 
L 135.963919 -117.588771 
L 125.55434 -117.588771 
L 115.144761 -129.844308 
L 104.735181 -117.588771 
L 94.325602 -142.099845 
L 83.916023 -129.844308 
L 73.506444 -129.844308 
L 63.096865 -154.355382 
L 52.687285 -178.866457 
L 42.277706 -129.844308 
L 31.868127 -117.588771 
z
" style="stroke: #924bce; stroke-opacity: 0.781818"/>
    </defs>
    <g clip-path="url(#pd0c7288ca3)">
     <use xlink:href="#m26b7c7b9c7" x="0" y="337.40125" style="fill: #924bce; fill-opacity: 0.781818; stroke: #924bce; stroke-opacity: 0.781818"/>
    </g>
   </g>
   <g id="line2d_34">
    <path d="M 31.868127 219.812479 
L 42.277706 219.812479 
L 52.687285 219.812479 
L 63.096865 219.812479 
L 73.506444 219.812479 
L 83.916023 219.812479 
L 94.325602 219.812479 
L 104.735181 219.812479 
L 115.144761 219.812479 
L 125.55434 219.812479 
L 135.963919 219.812479 
L 146.373498 219.812479 
L 156.783077 219.812479 
L 167.192657 219.812479 
L 177.602236 219.812479 
L 188.011815 219.812479 
L 198.421394 219.812479 
L 208.830973 219.812479 
L 219.240553 219.812479 
L 229.650132 219.812479 
L 240.059711 219.812479 
L 250.46929 219.812479 
L 260.878869 219.812479 
L 271.288448 219.812479 
L 281.698028 219.812479 
L 292.107607 219.812479 
" clip-path="url(#pd0c7288ca3)" style="fill: none; stroke: #924bce; stroke-opacity: 0.781818; stroke-width: 1.5; stroke-linecap: square"/>
   </g>
   <g id="line2d_35">
    <path d="M 31.868127 219.812479 
L 42.277706 207.556942 
L 52.687285 158.534793 
L 63.096865 183.045868 
L 73.506444 207.556942 
L 83.916023 207.556942 
L 94.325602 195.301405 
L 104.735181 219.812479 
L 115.144761 207.556942 
L 125.55434 219.812479 
L 135.963919 219.812479 
L 146.373498 219.812479 
L 156.783077 219.812479 
L 167.192657 219.812479 
L 177.602236 219.812479 
L 188.011815 219.812479 
L 198.421394 207.556942 
L 208.830973 219.812479 
L 219.240553 219.812479 
L 229.650132 219.812479 
L 240.059711 183.045868 
L 250.46929 207.556942 
L 260.878869 219.812479 
L 271.288448 219.812479 
L 281.698028 207.556942 
L 292.107607 219.812479 
" clip-path="url(#pd0c7288ca3)" style="fill: none; stroke: #000000; stroke-opacity: 0.781818; stroke-width: 1.5; stroke-linecap: square"/>
   </g>
  </g>
  <g id="axes_16">
   <g id="FillBetweenPolyCollection_15">
    <defs>
     <path id="m562120ea55" d="M 32.322603 -106.183316 
L 32.322603 -106.183316 
L 44.840123 -106.183316 
L 57.357644 -106.183316 
L 69.875164 -106.183316 
L 82.392685 -106.183316 
L 94.910205 -106.183316 
L 107.427726 -106.183316 
L 119.945246 -106.183316 
L 132.462766 -106.183316 
L 144.980287 -106.183316 
L 157.497807 -106.183316 
L 170.015328 -106.183316 
L 182.532848 -106.183316 
L 195.050368 -106.183316 
L 207.567889 -106.183316 
L 220.085409 -106.183316 
L 232.60293 -106.183316 
L 245.12045 -106.183316 
L 257.63797 -106.183316 
L 270.155491 -106.183316 
L 282.673011 -106.183316 
L 295.190532 -106.183316 
L 307.708052 -106.183316 
L 320.225573 -106.183316 
L 332.743093 -106.183316 
L 345.260613 -106.183316 
L 345.260613 -106.183316 
L 345.260613 -106.183316 
L 332.743093 -152.141581 
L 320.225573 -106.183316 
L 307.708052 -106.183316 
L 295.190532 -106.183316 
L 282.673011 -106.183316 
L 270.155491 -106.183316 
L 257.63797 -121.502738 
L 245.12045 -106.183316 
L 232.60293 -121.502738 
L 220.085409 -106.183316 
L 207.567889 -106.183316 
L 195.050368 -121.502738 
L 182.532848 -106.183316 
L 170.015328 -106.183316 
L 157.497807 -121.502738 
L 144.980287 -106.183316 
L 132.462766 -121.502738 
L 119.945246 -106.183316 
L 107.427726 -121.502738 
L 94.910205 -167.461002 
L 82.392685 -136.822159 
L 69.875164 -136.822159 
L 57.357644 -121.502738 
L 44.840123 -136.822159 
L 32.322603 -106.183316 
z
" style="stroke: #924bce; stroke-opacity: 0.809091"/>
    </defs>
    <g clip-path="url(#p6e1de6e64a)">
     <use xlink:href="#m562120ea55" x="0" y="337.40125" style="fill: #924bce; fill-opacity: 0.809091; stroke: #924bce; stroke-opacity: 0.809091"/>
    </g>
   </g>
   <g id="line2d_36">
    <path d="M 32.322603 231.217934 
L 44.840123 231.217934 
L 57.357644 231.217934 
L 69.875164 231.217934 
L 82.392685 231.217934 
L 94.910205 231.217934 
L 107.427726 231.217934 
L 119.945246 231.217934 
L 132.462766 231.217934 
L 144.980287 231.217934 
L 157.497807 231.217934 
L 170.015328 231.217934 
L 182.532848 231.217934 
L 195.050368 231.217934 
L 207.567889 231.217934 
L 220.085409 231.217934 
L 232.60293 231.217934 
L 245.12045 231.217934 
L 257.63797 231.217934 
L 270.155491 231.217934 
L 282.673011 231.217934 
L 295.190532 231.217934 
L 307.708052 231.217934 
L 320.225573 231.217934 
L 332.743093 231.217934 
L 345.260613 231.217934 
" clip-path="url(#p6e1de6e64a)" style="fill: none; stroke: #924bce; stroke-opacity: 0.809091; stroke-width: 1.5; stroke-linecap: square"/>
   </g>
   <g id="line2d_37">
    <path d="M 32.322603 231.217934 
L 44.840123 200.579091 
L 57.357644 215.898512 
L 69.875164 200.579091 
L 82.392685 200.579091 
L 94.910205 169.940248 
L 107.427726 215.898512 
L 119.945246 231.217934 
L 132.462766 215.898512 
L 144.980287 231.217934 
L 157.497807 215.898512 
L 170.015328 231.217934 
L 182.532848 231.217934 
L 195.050368 215.898512 
L 207.567889 231.217934 
L 220.085409 231.217934 
L 232.60293 215.898512 
L 245.12045 231.217934 
L 257.63797 215.898512 
L 270.155491 231.217934 
L 282.673011 231.217934 
L 295.190532 231.217934 
L 307.708052 231.217934 
L 320.225573 231.217934 
L 332.743093 185.259669 
L 345.260613 231.217934 
" clip-path="url(#p6e1de6e64a)" style="fill: none; stroke: #000000; stroke-opacity: 0.809091; stroke-width: 1.5; stroke-linecap: square"/>
   </g>
  </g>
  <g id="axes_17">
   <g id="FillBetweenPolyCollection_16">
    <defs>
     <path id="m2d51beb192" d="M 40.669361 -94.777862 
L 40.669361 -94.777862 
L 51.164732 -94.777862 
L 61.660103 -94.777862 
L 72.155474 -94.777862 
L 82.650845 -94.777862 
L 93.146216 -94.777862 
L 103.641586 -94.777862 
L 114.136957 -94.777862 
L 124.632328 -94.777862 
L 135.127699 -94.777862 
L 145.62307 -94.777862 
L 156.118441 -94.777862 
L 166.613812 -94.777862 
L 177.109182 -94.777862 
L 187.604553 -94.777862 
L 198.099924 -94.777862 
L 208.595295 -94.777862 
L 219.090666 -94.777862 
L 229.586037 -94.777862 
L 240.081407 -94.777862 
L 250.576778 -94.777862 
L 261.072149 -94.777862 
L 271.56752 -94.777862 
L 282.062891 -94.777862 
L 292.558262 -94.777862 
L 303.053632 -94.777862 
L 303.053632 -94.777862 
L 303.053632 -94.777862 
L 292.558262 -115.203757 
L 282.062891 -115.203757 
L 271.56752 -94.777862 
L 261.072149 -94.777862 
L 250.576778 -94.777862 
L 240.081407 -94.777862 
L 229.586037 -115.203757 
L 219.090666 -94.777862 
L 208.595295 -94.777862 
L 198.099924 -115.203757 
L 187.604553 -115.203757 
L 177.109182 -115.203757 
L 166.613812 -94.777862 
L 156.118441 -94.777862 
L 145.62307 -94.777862 
L 135.127699 -94.777862 
L 124.632328 -135.629652 
L 114.136957 -94.777862 
L 103.641586 -94.777862 
L 93.146216 -135.629652 
L 82.650845 -135.629652 
L 72.155474 -135.629652 
L 61.660103 -156.055548 
L 51.164732 -156.055548 
L 40.669361 -94.777862 
z
" style="stroke: #924bce; stroke-opacity: 0.836364"/>
    </defs>
    <g clip-path="url(#p5cae5b4092)">
     <use xlink:href="#m2d51beb192" x="0" y="337.40125" style="fill: #924bce; fill-opacity: 0.836364; stroke: #924bce; stroke-opacity: 0.836364"/>
    </g>
   </g>
   <g id="line2d_38">
    <path d="M 40.669361 242.623388 
L 51.164732 242.623388 
L 61.660103 242.623388 
L 72.155474 242.623388 
L 82.650845 242.623388 
L 93.146216 242.623388 
L 103.641586 242.623388 
L 114.136957 242.623388 
L 124.632328 242.623388 
L 135.127699 242.623388 
L 145.62307 242.623388 
L 156.118441 242.623388 
L 166.613812 242.623388 
L 177.109182 242.623388 
L 187.604553 242.623388 
L 198.099924 242.623388 
L 208.595295 242.623388 
L 219.090666 242.623388 
L 229.586037 242.623388 
L 240.081407 242.623388 
L 250.576778 242.623388 
L 261.072149 242.623388 
L 271.56752 242.623388 
L 282.062891 242.623388 
L 292.558262 242.623388 
L 303.053632 242.623388 
" clip-path="url(#p5cae5b4092)" style="fill: none; stroke: #924bce; stroke-opacity: 0.836364; stroke-width: 1.5; stroke-linecap: square"/>
   </g>
   <g id="line2d_39">
    <path d="M 40.669361 242.623388 
L 51.164732 181.345702 
L 61.660103 181.345702 
L 72.155474 201.771598 
L 82.650845 201.771598 
L 93.146216 201.771598 
L 103.641586 242.623388 
L 114.136957 242.623388 
L 124.632328 201.771598 
L 135.127699 242.623388 
L 145.62307 242.623388 
L 156.118441 242.623388 
L 166.613812 242.623388 
L 177.109182 222.197493 
L 187.604553 222.197493 
L 198.099924 222.197493 
L 208.595295 242.623388 
L 219.090666 242.623388 
L 229.586037 222.197493 
L 240.081407 242.623388 
L 250.576778 242.623388 
L 261.072149 242.623388 
L 271.56752 242.623388 
L 282.062891 222.197493 
L 292.558262 222.197493 
L 303.053632 242.623388 
" clip-path="url(#p5cae5b4092)" style="fill: none; stroke: #000000; stroke-opacity: 0.836364; stroke-width: 1.5; stroke-linecap: square"/>
   </g>
  </g>
  <g id="axes_18">
   <g id="FillBetweenPolyCollection_17">
    <defs>
     <path id="mb5fe57f871" d="M 38.983626 -83.372407 
L 38.983626 -83.372407 
L 49.436389 -83.372407 
L 59.889152 -83.372407 
L 70.341915 -83.372407 
L 80.794678 -83.372407 
L 91.247441 -83.372407 
L 101.700204 -83.372407 
L 112.152966 -83.372407 
L 122.605729 -83.372407 
L 133.058492 -83.372407 
L 143.511255 -83.372407 
L 153.964018 -83.372407 
L 164.416781 -83.372407 
L 174.869544 -83.372407 
L 185.322307 -83.372407 
L 195.77507 -83.372407 
L 206.227833 -83.372407 
L 216.680596 -83.372407 
L 227.133358 -83.372407 
L 237.586121 -83.372407 
L 248.038884 -83.372407 
L 258.491647 -83.372407 
L 268.94441 -83.372407 
L 279.397173 -83.372407 
L 289.849936 -83.372407 
L 300.302699 -83.372407 
L 300.302699 -83.372407 
L 300.302699 -83.372407 
L 289.849936 -103.798302 
L 279.397173 -83.372407 
L 268.94441 -103.798302 
L 258.491647 -83.372407 
L 248.038884 -103.798302 
L 237.586121 -83.372407 
L 227.133358 -83.372407 
L 216.680596 -103.798302 
L 206.227833 -103.798302 
L 195.77507 -83.372407 
L 185.322307 -83.372407 
L 174.869544 -103.798302 
L 164.416781 -83.372407 
L 153.964018 -124.224198 
L 143.511255 -83.372407 
L 133.058492 -103.798302 
L 122.605729 -103.798302 
L 112.152966 -83.372407 
L 101.700204 -103.798302 
L 91.247441 -124.224198 
L 80.794678 -103.798302 
L 70.341915 -124.224198 
L 59.889152 -103.798302 
L 49.436389 -144.650093 
L 38.983626 -83.372407 
z
" style="stroke: #924bce; stroke-opacity: 0.863636"/>
    </defs>
    <g clip-path="url(#p21434a8348)">
     <use xlink:href="#mb5fe57f871" x="0" y="337.40125" style="fill: #924bce; fill-opacity: 0.863636; stroke: #924bce; stroke-opacity: 0.863636"/>
    </g>
   </g>
   <g id="line2d_40">
    <path d="M 38.983626 254.028843 
L 49.436389 254.028843 
L 59.889152 254.028843 
L 70.341915 254.028843 
L 80.794678 254.028843 
L 91.247441 254.028843 
L 101.700204 254.028843 
L 112.152966 254.028843 
L 122.605729 254.028843 
L 133.058492 254.028843 
L 143.511255 254.028843 
L 153.964018 254.028843 
L 164.416781 254.028843 
L 174.869544 254.028843 
L 185.322307 254.028843 
L 195.77507 254.028843 
L 206.227833 254.028843 
L 216.680596 254.028843 
L 227.133358 254.028843 
L 237.586121 254.028843 
L 248.038884 254.028843 
L 258.491647 254.028843 
L 268.94441 254.028843 
L 279.397173 254.028843 
L 289.849936 254.028843 
L 300.302699 254.028843 
" clip-path="url(#p21434a8348)" style="fill: none; stroke: #924bce; stroke-opacity: 0.863636; stroke-width: 1.5; stroke-linecap: square"/>
   </g>
   <g id="line2d_41">
    <path d="M 38.983626 254.028843 
L 49.436389 192.751157 
L 59.889152 233.602948 
L 70.341915 213.177052 
L 80.794678 233.602948 
L 91.247441 213.177052 
L 101.700204 233.602948 
L 112.152966 254.028843 
L 122.605729 233.602948 
L 133.058492 233.602948 
L 143.511255 254.028843 
L 153.964018 213.177052 
L 164.416781 254.028843 
L 174.869544 233.602948 
L 185.322307 254.028843 
L 195.77507 254.028843 
L 206.227833 233.602948 
L 216.680596 233.602948 
L 227.133358 254.028843 
L 237.586121 254.028843 
L 248.038884 233.602948 
L 258.491647 254.028843 
L 268.94441 233.602948 
L 279.397173 254.028843 
L 289.849936 233.602948 
L 300.302699 254.028843 
" clip-path="url(#p21434a8348)" style="fill: none; stroke: #000000; stroke-opacity: 0.863636; stroke-width: 1.5; stroke-linecap: square"/>
   </g>
  </g>
  <g id="axes_19">
   <g id="FillBetweenPolyCollection_18">
    <defs>
     <path id="m5473e773c0" d="M 40.851911 -71.966952 
L 40.851911 -71.966952 
L 50.780135 -71.966952 
L 60.70836 -71.966952 
L 70.636585 -71.966952 
L 80.56481 -71.966952 
L 90.493034 -71.966952 
L 100.421259 -71.966952 
L 110.349484 -71.966952 
L 120.277708 -71.966952 
L 130.205933 -71.966952 
L 140.134158 -71.966952 
L 150.062382 -71.966952 
L 159.990607 -71.966952 
L 169.918832 -71.966952 
L 179.847056 -71.966952 
L 189.775281 -71.966952 
L 199.703506 -71.966952 
L 209.63173 -71.966952 
L 219.559955 -71.966952 
L 229.48818 -71.966952 
L 239.416404 -71.966952 
L 249.344629 -71.966952 
L 259.272854 -71.966952 
L 269.201078 -71.966952 
L 279.129303 -71.966952 
L 289.057528 -71.966952 
L 289.057528 -71.966952 
L 289.057528 -71.966952 
L 279.129303 -92.392848 
L 269.201078 -71.966952 
L 259.272854 -112.818743 
L 249.344629 -71.966952 
L 239.416404 -71.966952 
L 229.48818 -71.966952 
L 219.559955 -92.392848 
L 209.63173 -71.966952 
L 199.703506 -92.392848 
L 189.775281 -71.966952 
L 179.847056 -92.392848 
L 169.918832 -71.966952 
L 159.990607 -71.966952 
L 150.062382 -92.392848 
L 140.134158 -112.818743 
L 130.205933 -71.966952 
L 120.277708 -71.966952 
L 110.349484 -112.818743 
L 100.421259 -112.818743 
L 90.493034 -92.392848 
L 80.56481 -133.244638 
L 70.636585 -71.966952 
L 60.70836 -71.966952 
L 50.780135 -133.244638 
L 40.851911 -71.966952 
z
" style="stroke: #924bce; stroke-opacity: 0.890909"/>
    </defs>
    <g clip-path="url(#p20c5c6301f)">
     <use xlink:href="#m5473e773c0" x="0" y="337.40125" style="fill: #924bce; fill-opacity: 0.890909; stroke: #924bce; stroke-opacity: 0.890909"/>
    </g>
   </g>
   <g id="line2d_42">
    <path d="M 40.851911 265.434298 
L 50.780135 265.434298 
L 60.70836 265.434298 
L 70.636585 265.434298 
L 80.56481 265.434298 
L 90.493034 265.434298 
L 100.421259 265.434298 
L 110.349484 265.434298 
L 120.277708 265.434298 
L 130.205933 265.434298 
L 140.134158 265.434298 
L 150.062382 265.434298 
L 159.990607 265.434298 
L 169.918832 265.434298 
L 179.847056 265.434298 
L 189.775281 265.434298 
L 199.703506 265.434298 
L 209.63173 265.434298 
L 219.559955 265.434298 
L 229.48818 265.434298 
L 239.416404 265.434298 
L 249.344629 265.434298 
L 259.272854 265.434298 
L 269.201078 265.434298 
L 279.129303 265.434298 
L 289.057528 265.434298 
" clip-path="url(#p20c5c6301f)" style="fill: none; stroke: #924bce; stroke-opacity: 0.890909; stroke-width: 1.5; stroke-linecap: square"/>
   </g>
   <g id="line2d_43">
    <path d="M 40.851911 265.434298 
L 50.780135 204.156612 
L 60.70836 265.434298 
L 70.636585 265.434298 
L 80.56481 204.156612 
L 90.493034 245.008402 
L 100.421259 224.582507 
L 110.349484 224.582507 
L 120.277708 265.434298 
L 130.205933 265.434298 
L 140.134158 224.582507 
L 150.062382 245.008402 
L 159.990607 265.434298 
L 169.918832 265.434298 
L 179.847056 245.008402 
L 189.775281 265.434298 
L 199.703506 245.008402 
L 209.63173 265.434298 
L 219.559955 245.008402 
L 229.48818 265.434298 
L 239.416404 265.434298 
L 249.344629 265.434298 
L 259.272854 224.582507 
L 269.201078 265.434298 
L 279.129303 245.008402 
L 289.057528 265.434298 
" clip-path="url(#p20c5c6301f)" style="fill: none; stroke: #000000; stroke-opacity: 0.890909; stroke-width: 1.5; stroke-linecap: square"/>
   </g>
  </g>
  <g id="axes_20">
   <g id="FillBetweenPolyCollection_19">
    <defs>
     <path id="m8bca970a7b" d="M 81.498127 -60.561498 
L 81.498127 -60.561498 
L 91.433837 -60.561498 
L 101.369547 -60.561498 
L 111.305257 -60.561498 
L 121.240967 -60.561498 
L 131.176677 -60.561498 
L 141.112387 -60.561498 
L 151.048096 -60.561498 
L 160.983806 -60.561498 
L 170.919516 -60.561498 
L 180.855226 -60.561498 
L 190.790936 -60.561498 
L 200.726646 -60.561498 
L 210.662356 -60.561498 
L 220.598065 -60.561498 
L 230.533775 -60.561498 
L 240.469485 -60.561498 
L 250.405195 -60.561498 
L 260.340905 -60.561498 
L 270.276615 -60.561498 
L 280.212325 -60.561498 
L 290.148034 -60.561498 
L 300.083744 -60.561498 
L 310.019454 -60.561498 
L 319.955164 -60.561498 
L 329.890874 -60.561498 
L 329.890874 -60.561498 
L 329.890874 -60.561498 
L 319.955164 -80.987393 
L 310.019454 -60.561498 
L 300.083744 -60.561498 
L 290.148034 -60.561498 
L 280.212325 -101.413289 
L 270.276615 -60.561498 
L 260.340905 -60.561498 
L 250.405195 -60.561498 
L 240.469485 -80.987393 
L 230.533775 -80.987393 
L 220.598065 -60.561498 
L 210.662356 -60.561498 
L 200.726646 -60.561498 
L 190.790936 -80.987393 
L 180.855226 -60.561498 
L 170.919516 -60.561498 
L 160.983806 -80.987393 
L 151.048096 -101.413289 
L 141.112387 -121.839184 
L 131.176677 -60.561498 
L 121.240967 -101.413289 
L 111.305257 -101.413289 
L 101.369547 -101.413289 
L 91.433837 -101.413289 
L 81.498127 -60.561498 
z
" style="stroke: #924bce; stroke-opacity: 0.918182"/>
    </defs>
    <g clip-path="url(#p31d532b68a)">
     <use xlink:href="#m8bca970a7b" x="0" y="337.40125" style="fill: #924bce; fill-opacity: 0.918182; stroke: #924bce; stroke-opacity: 0.918182"/>
    </g>
   </g>
   <g id="line2d_44">
    <path d="M 81.498127 276.839752 
L 91.433837 276.839752 
L 101.369547 276.839752 
L 111.305257 276.839752 
L 121.240967 276.839752 
L 131.176677 276.839752 
L 141.112387 276.839752 
L 151.048096 276.839752 
L 160.983806 276.839752 
L 170.919516 276.839752 
L 180.855226 276.839752 
L 190.790936 276.839752 
L 200.726646 276.839752 
L 210.662356 276.839752 
L 220.598065 276.839752 
L 230.533775 276.839752 
L 240.469485 276.839752 
L 250.405195 276.839752 
L 260.340905 276.839752 
L 270.276615 276.839752 
L 280.212325 276.839752 
L 290.148034 276.839752 
L 300.083744 276.839752 
L 310.019454 276.839752 
L 319.955164 276.839752 
L 329.890874 276.839752 
" clip-path="url(#p31d532b68a)" style="fill: none; stroke: #924bce; stroke-opacity: 0.918182; stroke-width: 1.5; stroke-linecap: square"/>
   </g>
   <g id="line2d_45">
    <path d="M 81.498127 276.839752 
L 91.433837 235.987961 
L 101.369547 235.987961 
L 111.305257 235.987961 
L 121.240967 235.987961 
L 131.176677 276.839752 
L 141.112387 215.562066 
L 151.048096 235.987961 
L 160.983806 256.413857 
L 170.919516 276.839752 
L 180.855226 276.839752 
L 190.790936 256.413857 
L 200.726646 276.839752 
L 210.662356 276.839752 
L 220.598065 276.839752 
L 230.533775 256.413857 
L 240.469485 256.413857 
L 250.405195 276.839752 
L 260.340905 276.839752 
L 270.276615 276.839752 
L 280.212325 235.987961 
L 290.148034 276.839752 
L 300.083744 276.839752 
L 310.019454 276.839752 
L 319.955164 256.413857 
L 329.890874 276.839752 
" clip-path="url(#p31d532b68a)" style="fill: none; stroke: #000000; stroke-opacity: 0.918182; stroke-width: 1.5; stroke-linecap: square"/>
   </g>
  </g>
  <g id="axes_21">
   <g id="FillBetweenPolyCollection_20">
    <defs>
     <path id="mb730568eae" d="M 38.094303 -49.156043 
L 38.094303 -49.156043 
L 53.284608 -49.156043 
L 68.474913 -49.156043 
L 83.665217 -49.156043 
L 98.855522 -49.156043 
L 114.045827 -49.156043 
L 129.236131 -49.156043 
L 144.426436 -49.156043 
L 159.616741 -49.156043 
L 174.807045 -49.156043 
L 189.99735 -49.156043 
L 205.187655 -49.156043 
L 220.377959 -49.156043 
L 235.568264 -49.156043 
L 250.758569 -49.156043 
L 265.948873 -49.156043 
L 281.139178 -49.156043 
L 296.329483 -49.156043 
L 311.519787 -49.156043 
L 326.710092 -49.156043 
L 341.900397 -49.156043 
L 357.090701 -49.156043 
L 372.281006 -49.156043 
L 387.471311 -49.156043 
L 402.661615 -49.156043 
L 417.85192 -49.156043 
L 417.85192 -49.156043 
L 417.85192 -49.156043 
L 402.661615 -69.581939 
L 387.471311 -49.156043 
L 372.281006 -49.156043 
L 357.090701 -49.156043 
L 341.900397 -69.581939 
L 326.710092 -49.156043 
L 311.519787 -49.156043 
L 296.329483 -49.156043 
L 281.139178 -69.581939 
L 265.948873 -69.581939 
L 250.758569 -49.156043 
L 235.568264 -90.007834 
L 220.377959 -49.156043 
L 205.187655 -69.581939 
L 189.99735 -69.581939 
L 174.807045 -49.156043 
L 159.616741 -69.581939 
L 144.426436 -90.007834 
L 129.236131 -110.433729 
L 114.045827 -110.433729 
L 98.855522 -49.156043 
L 83.665217 -69.581939 
L 68.474913 -49.156043 
L 53.284608 -90.007834 
L 38.094303 -49.156043 
z
" style="stroke: #924bce; stroke-opacity: 0.945455"/>
    </defs>
    <g clip-path="url(#pbe34500cd4)">
     <use xlink:href="#mb730568eae" x="0" y="337.40125" style="fill: #924bce; fill-opacity: 0.945455; stroke: #924bce; stroke-opacity: 0.945455"/>
    </g>
   </g>
   <g id="line2d_46">
    <path d="M 38.094303 288.245207 
L 53.284608 288.245207 
L 68.474913 288.245207 
L 83.665217 288.245207 
L 98.855522 288.245207 
L 114.045827 288.245207 
L 129.236131 288.245207 
L 144.426436 288.245207 
L 159.616741 288.245207 
L 174.807045 288.245207 
L 189.99735 288.245207 
L 205.187655 288.245207 
L 220.377959 288.245207 
L 235.568264 288.245207 
L 250.758569 288.245207 
L 265.948873 288.245207 
L 281.139178 288.245207 
L 296.329483 288.245207 
L 311.519787 288.245207 
L 326.710092 288.245207 
L 341.900397 288.245207 
L 357.090701 288.245207 
L 372.281006 288.245207 
L 387.471311 288.245207 
L 402.661615 288.245207 
L 417.85192 288.245207 
" clip-path="url(#pbe34500cd4)" style="fill: none; stroke: #924bce; stroke-opacity: 0.945455; stroke-width: 1.5; stroke-linecap: square"/>
   </g>
   <g id="line2d_47">
    <path d="M 38.094303 288.245207 
L 53.284608 247.393416 
L 68.474913 288.245207 
L 83.665217 267.819311 
L 98.855522 288.245207 
L 114.045827 226.967521 
L 129.236131 226.967521 
L 144.426436 247.393416 
L 159.616741 267.819311 
L 174.807045 288.245207 
L 189.99735 267.819311 
L 205.187655 267.819311 
L 220.377959 288.245207 
L 235.568264 247.393416 
L 250.758569 288.245207 
L 265.948873 267.819311 
L 281.139178 267.819311 
L 296.329483 288.245207 
L 311.519787 288.245207 
L 326.710092 288.245207 
L 341.900397 267.819311 
L 357.090701 288.245207 
L 372.281006 288.245207 
L 387.471311 288.245207 
L 402.661615 267.819311 
L 417.85192 288.245207 
" clip-path="url(#pbe34500cd4)" style="fill: none; stroke: #000000; stroke-opacity: 0.945455; stroke-width: 1.5; stroke-linecap: square"/>
   </g>
  </g>
  <g id="axes_22">
   <g id="FillBetweenPolyCollection_21">
    <defs>
     <path id="ma638b250f0" d="M 70.369945 -37.750589 
L 70.369945 -37.750589 
L 83.113748 -37.750589 
L 95.857551 -37.750589 
L 108.601354 -37.750589 
L 121.345157 -37.750589 
L 134.08896 -37.750589 
L 146.832764 -37.750589 
L 159.576567 -37.750589 
L 172.32037 -37.750589 
L 185.064173 -37.750589 
L 197.807976 -37.750589 
L 210.551779 -37.750589 
L 223.295582 -37.750589 
L 236.039385 -37.750589 
L 248.783188 -37.750589 
L 261.526991 -37.750589 
L 274.270795 -37.750589 
L 287.014598 -37.750589 
L 299.758401 -37.750589 
L 312.502204 -37.750589 
L 325.246007 -37.750589 
L 337.98981 -37.750589 
L 350.733613 -37.750589 
L 363.477416 -37.750589 
L 376.221219 -37.750589 
L 388.965022 -37.750589 
L 388.965022 -37.750589 
L 388.965022 -37.750589 
L 376.221219 -58.176484 
L 363.477416 -37.750589 
L 350.733613 -37.750589 
L 337.98981 -58.176484 
L 325.246007 -58.176484 
L 312.502204 -37.750589 
L 299.758401 -37.750589 
L 287.014598 -37.750589 
L 274.270795 -58.176484 
L 261.526991 -37.750589 
L 248.783188 -37.750589 
L 236.039385 -58.176484 
L 223.295582 -58.176484 
L 210.551779 -37.750589 
L 197.807976 -99.028275 
L 185.064173 -37.750589 
L 172.32037 -37.750589 
L 159.576567 -58.176484 
L 146.832764 -78.602379 
L 134.08896 -58.176484 
L 121.345157 -78.602379 
L 108.601354 -78.602379 
L 95.857551 -58.176484 
L 83.113748 -78.602379 
L 70.369945 -37.750589 
z
" style="stroke: #924bce; stroke-opacity: 0.972727"/>
    </defs>
    <g clip-path="url(#pb0fc3a43e9)">
     <use xlink:href="#ma638b250f0" x="0" y="337.40125" style="fill: #924bce; fill-opacity: 0.972727; stroke: #924bce; stroke-opacity: 0.972727"/>
    </g>
   </g>
   <g id="line2d_48">
    <path d="M 70.369945 299.650661 
L 83.113748 299.650661 
L 95.857551 299.650661 
L 108.601354 299.650661 
L 121.345157 299.650661 
L 134.08896 299.650661 
L 146.832764 299.650661 
L 159.576567 299.650661 
L 172.32037 299.650661 
L 185.064173 299.650661 
L 197.807976 299.650661 
L 210.551779 299.650661 
L 223.295582 299.650661 
L 236.039385 299.650661 
L 248.783188 299.650661 
L 261.526991 299.650661 
L 274.270795 299.650661 
L 287.014598 299.650661 
L 299.758401 299.650661 
L 312.502204 299.650661 
L 325.246007 299.650661 
L 337.98981 299.650661 
L 350.733613 299.650661 
L 363.477416 299.650661 
L 376.221219 299.650661 
L 388.965022 299.650661 
" clip-path="url(#pb0fc3a43e9)" style="fill: none; stroke: #924bce; stroke-opacity: 0.972727; stroke-width: 1.5; stroke-linecap: square"/>
   </g>
   <g id="line2d_49">
    <path d="M 70.369945 299.650661 
L 83.113748 258.798871 
L 95.857551 279.224766 
L 108.601354 258.798871 
L 121.345157 258.798871 
L 134.08896 279.224766 
L 146.832764 258.798871 
L 159.576567 279.224766 
L 172.32037 299.650661 
L 185.064173 299.650661 
L 197.807976 238.372975 
L 210.551779 299.650661 
L 223.295582 279.224766 
L 236.039385 279.224766 
L 248.783188 299.650661 
L 261.526991 299.650661 
L 274.270795 279.224766 
L 287.014598 299.650661 
L 299.758401 299.650661 
L 312.502204 299.650661 
L 325.246007 279.224766 
L 337.98981 279.224766 
L 350.733613 299.650661 
L 363.477416 299.650661 
L 376.221219 279.224766 
L 388.965022 299.650661 
" clip-path="url(#pb0fc3a43e9)" style="fill: none; stroke: #000000; stroke-opacity: 0.972727; stroke-width: 1.5; stroke-linecap: square"/>
   </g>
  </g>
  <g id="axes_23">
   <g id="FillBetweenPolyCollection_22">
    <defs>
     <path id="mf0c63fda06" d="M 69.026277 -26.345134 
L 69.026277 -26.345134 
L 81.265694 -26.345134 
L 93.505112 -26.345134 
L 105.744529 -26.345134 
L 117.983946 -26.345134 
L 130.223363 -26.345134 
L 142.462781 -26.345134 
L 154.702198 -26.345134 
L 166.941615 -26.345134 
L 179.181032 -26.345134 
L 191.42045 -26.345134 
L 203.659867 -26.345134 
L 215.899284 -26.345134 
L 228.138702 -26.345134 
L 240.378119 -26.345134 
L 252.617536 -26.345134 
L 264.856953 -26.345134 
L 277.096371 -26.345134 
L 289.335788 -26.345134 
L 301.575205 -26.345134 
L 313.814622 -26.345134 
L 326.05404 -26.345134 
L 338.293457 -26.345134 
L 350.532874 -26.345134 
L 362.772292 -26.345134 
L 375.011709 -26.345134 
L 375.011709 -26.345134 
L 375.011709 -26.345134 
L 362.772292 -41.664556 
L 350.532874 -26.345134 
L 338.293457 -41.664556 
L 326.05404 -56.983977 
L 313.814622 -26.345134 
L 301.575205 -26.345134 
L 289.335788 -26.345134 
L 277.096371 -26.345134 
L 264.856953 -41.664556 
L 252.617536 -26.345134 
L 240.378119 -26.345134 
L 228.138702 -26.345134 
L 215.899284 -41.664556 
L 203.659867 -41.664556 
L 191.42045 -41.664556 
L 179.181032 -26.345134 
L 166.941615 -26.345134 
L 154.702198 -56.983977 
L 142.462781 -41.664556 
L 130.223363 -56.983977 
L 117.983946 -87.62282 
L 105.744529 -41.664556 
L 93.505112 -41.664556 
L 81.265694 -41.664556 
L 69.026277 -26.345134 
z
" style="stroke: #924bce"/>
    </defs>
    <g clip-path="url(#p11f0685a6e)">
     <use xlink:href="#mf0c63fda06" x="0" y="337.40125" style="fill: #924bce; stroke: #924bce"/>
    </g>
   </g>
   <g id="line2d_50">
    <path d="M 69.026277 311.056116 
L 81.265694 311.056116 
L 93.505112 311.056116 
L 105.744529 311.056116 
L 117.983946 311.056116 
L 130.223363 311.056116 
L 142.462781 311.056116 
L 154.702198 311.056116 
L 166.941615 311.056116 
L 179.181032 311.056116 
L 191.42045 311.056116 
L 203.659867 311.056116 
L 215.899284 311.056116 
L 228.138702 311.056116 
L 240.378119 311.056116 
L 252.617536 311.056116 
L 264.856953 311.056116 
L 277.096371 311.056116 
L 289.335788 311.056116 
L 301.575205 311.056116 
L 313.814622 311.056116 
L 326.05404 311.056116 
L 338.293457 311.056116 
L 350.532874 311.056116 
L 362.772292 311.056116 
L 375.011709 311.056116 
" clip-path="url(#p11f0685a6e)" style="fill: none; stroke: #924bce; stroke-width: 1.5; stroke-linecap: square"/>
   </g>
   <g id="line2d_51">
    <path d="M 69.026277 311.056116 
L 81.265694 295.736694 
L 93.505112 295.736694 
L 105.744529 295.736694 
L 117.983946 249.77843 
L 130.223363 280.417273 
L 142.462781 295.736694 
L 154.702198 280.417273 
L 166.941615 311.056116 
L 179.181032 311.056116 
L 191.42045 295.736694 
L 203.659867 295.736694 
L 215.899284 295.736694 
L 228.138702 311.056116 
L 240.378119 311.056116 
L 252.617536 311.056116 
L 264.856953 295.736694 
L 277.096371 311.056116 
L 289.335788 311.056116 
L 301.575205 311.056116 
L 313.814622 311.056116 
L 326.05404 280.417273 
L 338.293457 295.736694 
L 350.532874 311.056116 
L 362.772292 295.736694 
L 375.011709 311.056116 
" clip-path="url(#p11f0685a6e)" style="fill: none; stroke: #000000; stroke-width: 1.5; stroke-linecap: square"/>
   </g>
  </g>
  <g id="text_8">
   <!-- Premier League -->
   <g style="fill: #924bce" transform="translate(226.001254 100.08) scale(0.18 -0.18)">
    <defs>
     <path id="Lato-Regular-50" d="M 1238 1715 
L 1238 0 
L 621 0 
L 621 4586 
L 1974 4586 
Q 2410 4586 2731 4485 
Q 3053 4384 3264 4198 
Q 3475 4013 3579 3750 
Q 3683 3488 3683 3165 
Q 3683 2845 3571 2579 
Q 3459 2314 3243 2122 
Q 3027 1930 2707 1822 
Q 2387 1715 1974 1715 
L 1238 1715 
z
M 1238 2208 
L 1974 2208 
Q 2240 2208 2443 2278 
Q 2646 2349 2784 2475 
Q 2922 2602 2992 2778 
Q 3062 2954 3062 3165 
Q 3062 3603 2792 3849 
Q 2522 4096 1974 4096 
L 1238 4096 
L 1238 2208 
z
" transform="scale(0.015625)"/>
     <path id="Lato-Regular-72" d="M 467 0 
L 467 3242 
L 794 3242 
Q 886 3242 921 3206 
Q 957 3171 970 3085 
L 1008 2579 
Q 1174 2918 1419 3108 
Q 1664 3299 1994 3299 
Q 2128 3299 2237 3268 
Q 2346 3238 2438 3184 
L 2365 2758 
Q 2342 2678 2266 2678 
Q 2221 2678 2128 2708 
Q 2035 2739 1869 2739 
Q 1571 2739 1371 2566 
Q 1171 2394 1037 2064 
L 1037 0 
L 467 0 
z
" transform="scale(0.015625)"/>
     <path id="Lato-Regular-65" d="M 1750 3293 
Q 2042 3293 2288 3195 
Q 2534 3098 2713 2914 
Q 2893 2730 2993 2459 
Q 3094 2189 3094 1843 
Q 3094 1709 3065 1664 
Q 3037 1619 2957 1619 
L 800 1619 
Q 806 1312 883 1085 
Q 960 858 1094 706 
Q 1229 554 1414 478 
Q 1600 403 1830 403 
Q 2045 403 2200 452 
Q 2355 502 2467 560 
Q 2579 618 2654 667 
Q 2730 717 2784 717 
Q 2854 717 2893 662 
L 3053 454 
Q 2947 326 2800 232 
Q 2653 138 2485 77 
Q 2317 16 2137 -14 
Q 1958 -45 1782 -45 
Q 1446 -45 1163 68 
Q 880 182 673 401 
Q 467 621 352 944 
Q 237 1267 237 1686 
Q 237 2026 341 2320 
Q 445 2614 640 2830 
Q 835 3046 1116 3169 
Q 1398 3293 1750 3293 
z
M 1763 2874 
Q 1350 2874 1113 2635 
Q 877 2397 819 1974 
L 2582 1974 
Q 2582 2173 2528 2337 
Q 2474 2502 2368 2622 
Q 2262 2742 2110 2808 
Q 1958 2874 1763 2874 
z
" transform="scale(0.015625)"/>
     <path id="Lato-Regular-6d" d="M 467 0 
L 467 3242 
L 806 3242 
Q 928 3242 960 3123 
L 1002 2790 
Q 1181 3011 1403 3152 
Q 1626 3293 1920 3293 
Q 2250 3293 2453 3110 
Q 2656 2928 2746 2618 
Q 2813 2794 2923 2922 
Q 3034 3050 3171 3133 
Q 3309 3216 3464 3254 
Q 3619 3293 3779 3293 
Q 4035 3293 4235 3211 
Q 4435 3130 4574 2973 
Q 4714 2816 4787 2587 
Q 4861 2358 4861 2064 
L 4861 0 
L 4291 0 
L 4291 2064 
Q 4291 2445 4124 2641 
Q 3958 2838 3642 2838 
Q 3501 2838 3374 2788 
Q 3248 2739 3152 2643 
Q 3056 2547 3000 2401 
Q 2944 2256 2944 2064 
L 2944 0 
L 2374 0 
L 2374 2064 
Q 2374 2454 2217 2646 
Q 2061 2838 1760 2838 
Q 1549 2838 1368 2724 
Q 1187 2611 1037 2416 
L 1037 0 
L 467 0 
z
" transform="scale(0.015625)"/>
     <path id="Lato-Regular-69" d="M 1101 3242 
L 1101 0 
L 531 0 
L 531 3242 
L 1101 3242 
z
M 1229 4259 
Q 1229 4176 1195 4104 
Q 1162 4032 1106 3976 
Q 1050 3920 976 3888 
Q 902 3856 819 3856 
Q 736 3856 664 3888 
Q 592 3920 536 3976 
Q 480 4032 448 4104 
Q 416 4176 416 4259 
Q 416 4342 448 4417 
Q 480 4493 536 4549 
Q 592 4605 664 4637 
Q 736 4669 819 4669 
Q 902 4669 976 4637 
Q 1050 4605 1106 4549 
Q 1162 4493 1195 4417 
Q 1229 4342 1229 4259 
z
" transform="scale(0.015625)"/>
     <path id="Lato-Regular-20" transform="scale(0.015625)"/>
     <path id="Lato-Regular-4c" d="M 1178 522 
L 3162 522 
L 3162 0 
L 557 0 
L 557 4586 
L 1178 4586 
L 1178 522 
z
" transform="scale(0.015625)"/>
     <path id="Lato-Regular-61" d="M 2848 0 
L 2595 0 
Q 2512 0 2461 25 
Q 2410 51 2394 134 
L 2330 435 
Q 2202 320 2080 229 
Q 1958 138 1824 75 
Q 1690 13 1538 -19 
Q 1386 -51 1200 -51 
Q 1011 -51 846 1 
Q 682 54 560 160 
Q 438 266 366 427 
Q 294 589 294 810 
Q 294 1002 400 1179 
Q 506 1357 741 1494 
Q 976 1632 1357 1720 
Q 1738 1808 2288 1821 
L 2288 2074 
Q 2288 2451 2126 2644 
Q 1965 2838 1648 2838 
Q 1440 2838 1297 2785 
Q 1155 2733 1051 2667 
Q 947 2602 872 2549 
Q 797 2496 723 2496 
Q 666 2496 622 2526 
Q 579 2557 554 2602 
L 451 2784 
Q 720 3043 1030 3171 
Q 1341 3299 1718 3299 
Q 1990 3299 2201 3209 
Q 2413 3120 2557 2960 
Q 2701 2800 2774 2573 
Q 2848 2346 2848 2074 
L 2848 0 
z
M 1370 349 
Q 1520 349 1645 379 
Q 1770 410 1880 466 
Q 1990 522 2091 602 
Q 2192 682 2288 784 
L 2288 1459 
Q 1894 1446 1619 1396 
Q 1344 1347 1171 1267 
Q 998 1187 920 1078 
Q 842 970 842 835 
Q 842 707 883 614 
Q 925 522 995 462 
Q 1066 403 1162 376 
Q 1258 349 1370 349 
z
" transform="scale(0.015625)"/>
     <path id="Lato-Regular-67" d="M 1558 3296 
Q 1770 3296 1954 3249 
Q 2138 3203 2288 3114 
L 3168 3114 
L 3168 2902 
Q 3168 2797 3034 2768 
L 2666 2717 
Q 2774 2509 2774 2253 
Q 2774 2016 2683 1822 
Q 2592 1629 2430 1491 
Q 2269 1354 2046 1280 
Q 1824 1206 1558 1206 
Q 1331 1206 1130 1261 
Q 1027 1197 974 1123 
Q 922 1050 922 979 
Q 922 864 1014 805 
Q 1107 746 1260 720 
Q 1414 694 1609 688 
Q 1805 682 2008 667 
Q 2211 653 2406 617 
Q 2602 582 2755 502 
Q 2909 422 3001 281 
Q 3094 141 3094 -83 
Q 3094 -291 2990 -486 
Q 2886 -682 2691 -834 
Q 2496 -986 2214 -1077 
Q 1933 -1168 1578 -1168 
Q 1222 -1168 955 -1097 
Q 688 -1027 512 -908 
Q 336 -790 248 -635 
Q 160 -480 160 -310 
Q 160 -70 312 98 
Q 464 266 730 365 
Q 592 429 510 536 
Q 429 643 429 822 
Q 429 893 454 968 
Q 480 1043 533 1116 
Q 586 1190 662 1257 
Q 739 1325 842 1376 
Q 602 1510 466 1732 
Q 330 1955 330 2253 
Q 330 2490 421 2683 
Q 512 2877 675 3013 
Q 838 3149 1064 3222 
Q 1290 3296 1558 3296 
z
M 2570 -176 
Q 2570 -54 2502 19 
Q 2435 93 2320 133 
Q 2205 173 2054 192 
Q 1904 211 1737 219 
Q 1571 227 1398 236 
Q 1226 246 1069 272 
Q 886 186 772 61 
Q 659 -64 659 -237 
Q 659 -346 715 -440 
Q 771 -534 886 -603 
Q 1002 -672 1176 -712 
Q 1350 -752 1587 -752 
Q 1818 -752 2000 -710 
Q 2182 -669 2308 -592 
Q 2435 -515 2502 -409 
Q 2570 -304 2570 -176 
z
M 1558 1584 
Q 1731 1584 1864 1632 
Q 1997 1680 2086 1766 
Q 2176 1853 2221 1973 
Q 2266 2093 2266 2237 
Q 2266 2534 2085 2710 
Q 1904 2886 1558 2886 
Q 1216 2886 1035 2710 
Q 854 2534 854 2237 
Q 854 2093 900 1973 
Q 947 1853 1036 1766 
Q 1126 1680 1257 1632 
Q 1389 1584 1558 1584 
z
" transform="scale(0.015625)"/>
     <path id="Lato-Regular-75" d="M 960 3242 
L 960 1174 
Q 960 806 1129 604 
Q 1299 403 1642 403 
Q 1891 403 2112 521 
Q 2333 640 2518 851 
L 2518 3242 
L 3088 3242 
L 3088 0 
L 2749 0 
Q 2627 0 2595 118 
L 2550 467 
Q 2339 234 2076 91 
Q 1814 -51 1475 -51 
Q 1210 -51 1006 37 
Q 803 125 665 285 
Q 528 445 459 672 
Q 390 899 390 1174 
L 390 3242 
L 960 3242 
z
" transform="scale(0.015625)"/>
    </defs>
    <use xlink:href="#Lato-Regular-50"/>
    <use xlink:href="#Lato-Regular-72" transform="translate(61.100006 0)"/>
    <use xlink:href="#Lato-Regular-65" transform="translate(101.400009 0)"/>
    <use xlink:href="#Lato-Regular-6d" transform="translate(153.800018 0)"/>
    <use xlink:href="#Lato-Regular-69" transform="translate(235.900024 0)"/>
    <use xlink:href="#Lato-Regular-65" transform="translate(261.500031 0)"/>
    <use xlink:href="#Lato-Regular-72" transform="translate(313.90004 0)"/>
    <use xlink:href="#Lato-Regular-20" transform="translate(354.200043 0)"/>
    <use xlink:href="#Lato-Regular-4c" transform="translate(373.500046 0)"/>
    <use xlink:href="#Lato-Regular-65" transform="translate(424.900055 0)"/>
    <use xlink:href="#Lato-Regular-61" transform="translate(477.300064 0)"/>
    <use xlink:href="#Lato-Regular-67" transform="translate(528.000076 0)"/>
    <use xlink:href="#Lato-Regular-75" transform="translate(579.100082 0)"/>
    <use xlink:href="#Lato-Regular-65" transform="translate(634.700089 0)"/>
   </g>
  </g>
 </g>
 <defs>
  <clipPath id="pd26c6dd3d2">
   <rect x="7.378117" y="7.2" width="438.223137" height="67.405455"/>
  </clipPath>
  <clipPath id="p8f47d10284">
   <rect x="7.378117" y="18.605455" width="438.223137" height="67.405455"/>
  </clipPath>
  <clipPath id="pd393b0c171">
   <rect x="7.378117" y="30.010909" width="438.223137" height="67.405455"/>
  </clipPath>
  <clipPath id="pdea614043a">
   <rect x="7.378117" y="41.416364" width="438.223137" height="67.405455"/>
  </clipPath>
  <clipPath id="pf29955ba21">
   <rect x="7.378117" y="52.821818" width="438.223137" height="67.405455"/>
  </clipPath>
  <clipPath id="p10f4a75396">
   <rect x="7.378117" y="64.227273" width="438.223137" height="67.405455"/>
  </clipPath>
  <clipPath id="p934b914748">
   <rect x="7.378117" y="75.632727" width="438.223137" height="67.405455"/>
  </clipPath>
  <clipPath id="p8acdf6b5f6">
   <rect x="7.378117" y="87.038182" width="438.223137" height="67.405455"/>
  </clipPath>
  <clipPath id="pa1351ec40c">
   <rect x="7.378117" y="98.443636" width="438.223137" height="67.405455"/>
  </clipPath>
  <clipPath id="p69e2a4b6c4">
   <rect x="7.378117" y="109.849091" width="438.223137" height="67.405455"/>
  </clipPath>
  <clipPath id="p002c4de5bc">
   <rect x="7.378117" y="121.254545" width="438.223137" height="67.405455"/>
  </clipPath>
  <clipPath id="p36fa4674a0">
   <rect x="7.378117" y="132.66" width="438.223137" height="67.405455"/>
  </clipPath>
  <clipPath id="p1e59ac2162">
   <rect x="7.378117" y="144.065455" width="438.223137" height="67.405455"/>
  </clipPath>
  <clipPath id="pd0c7288ca3">
   <rect x="7.378117" y="155.470909" width="438.223137" height="67.405455"/>
  </clipPath>
  <clipPath id="p6e1de6e64a">
   <rect x="7.378117" y="166.876364" width="438.223137" height="67.405455"/>
  </clipPath>
  <clipPath id="p5cae5b4092">
   <rect x="7.378117" y="178.281818" width="438.223137" height="67.405455"/>
  </clipPath>
  <clipPath id="p21434a8348">
   <rect x="7.378117" y="189.687273" width="438.223137" height="67.405455"/>
  </clipPath>
  <clipPath id="p20c5c6301f">
   <rect x="7.378117" y="201.092727" width="438.223137" height="67.405455"/>
  </clipPath>
  <clipPath id="p31d532b68a">
   <rect x="7.378117" y="212.498182" width="438.223137" height="67.405455"/>
  </clipPath>
  <clipPath id="pbe34500cd4">
   <rect x="7.378117" y="223.903636" width="438.223137" height="67.405455"/>
  </clipPath>
  <clipPath id="pb0fc3a43e9">
   <rect x="7.378117" y="235.309091" width="438.223137" height="67.405455"/>
  </clipPath>
  <clipPath id="p11f0685a6e">
   <rect x="7.378117" y="246.714545" width="438.223137" height="67.405455"/>
  </clipPath>
 </defs>
</svg>
