<?xml version="1.0" encoding="utf-8" standalone="no"?>
<!DOCTYPE svg PUBLIC "-//W3C//DTD SVG 1.1//EN"
  "http://www.w3.org/Graphics/SVG/1.1/DTD/svg11.dtd">
<svg xmlns:xlink="http://www.w3.org/1999/xlink" width="453.6pt" height="337.40125pt" viewBox="0 0 453.6 337.40125" xmlns="http://www.w3.org/2000/svg" version="1.1">
 <metadata>
  <rdf:RDF xmlns:dc="http://purl.org/dc/elements/1.1/" xmlns:cc="http://creativecommons.org/ns#" xmlns:rdf="http://www.w3.org/1999/02/22-rdf-syntax-ns#">
   <cc:Work>
    <dc:type rdf:resource="http://purl.org/dc/dcmitype/StillImage"/>
    <dc:date>2025-11-27T18:45:00.453684</dc:date>
    <dc:format>image/svg+xml</dc:format>
    <dc:creator>
     <cc:Agent>
      <dc:title>Matplotlib v3.10.5, https://matplotlib.org/</dc:title>
     </cc:Agent>
    </dc:creator>
   </cc:Work>
  </rdf:RDF>
 </metadata>
 <defs>
  <style type="text/css">*{stroke-linejoin: round; stroke-linecap: butt}</style>
 </defs>
 <g id="figure_1">
  <g id="patch_1">
   <path d="M 0 337.40125 
L 453.6 337.40125 
L 453.6 0 
L 0 0 
z
" style="fill: #f5f5dc"/>
  </g>
  <g id="axes_1">
   <g id="patch_2">
    <path d="M 7.2 314.12 
L 446.4 314.12 
L 446.4 7.2 
L 7.2 7.2 
z
" style="fill: #f5f5dc"/>
   </g>
   <g id="matplotlib.axis_1">
    <g id="xtick_1">
     <g id="line2d_1">
      <defs>
       <path id="m14ea6a2fcc" d="M 0 0 
L 0 3.5 
" style="stroke: #000000; stroke-width: 0.8"/>
      </defs>
      <g>
       <use xlink:href="#m14ea6a2fcc" x="75.825" y="314.12" style="stroke: #000000; stroke-width: 0.8"/>
      </g>
     </g>
     <g id="text_1">
      <!-- €250M -->
      <g transform="translate(59.625 328.485625) scale(0.1 -0.1)">
       <defs>
        <path id="Lato-Regular-20ac" d="M 109 2877 
L 579 2877 
Q 643 3280 795 3605 
Q 947 3930 1172 4158 
Q 1398 4387 1692 4508 
Q 1987 4630 2333 4630 
Q 2762 4630 3066 4470 
Q 3370 4310 3594 4029 
L 3398 3811 
Q 3373 3782 3347 3761 
Q 3322 3741 3277 3741 
Q 3222 3741 3163 3801 
Q 3104 3862 3005 3936 
Q 2906 4010 2750 4070 
Q 2595 4131 2355 4131 
Q 1888 4131 1579 3811 
Q 1270 3491 1168 2877 
L 2918 2877 
L 2918 2701 
Q 2918 2643 2875 2596 
Q 2832 2550 2755 2550 
L 1130 2550 
Q 1126 2486 1124 2422 
Q 1123 2358 1123 2291 
Q 1123 2240 1123 2192 
Q 1123 2144 1126 2096 
L 2621 2096 
L 2621 1917 
Q 2621 1862 2576 1816 
Q 2531 1770 2454 1770 
L 1155 1770 
Q 1245 1110 1552 780 
Q 1859 451 2326 451 
Q 2499 451 2630 484 
Q 2762 518 2858 569 
Q 2954 621 3022 680 
Q 3091 739 3142 790 
Q 3194 842 3234 875 
Q 3274 909 3312 909 
Q 3338 909 3357 897 
Q 3376 886 3402 864 
L 3642 640 
Q 3418 314 3085 133 
Q 2752 -48 2294 -48 
Q 1923 -48 1625 78 
Q 1328 205 1110 440 
Q 893 675 753 1012 
Q 614 1350 563 1770 
L 109 1770 
L 109 2096 
L 538 2096 
Q 534 2144 534 2192 
Q 534 2240 534 2291 
Q 534 2355 536 2420 
Q 538 2486 541 2550 
L 109 2550 
L 109 2877 
z
" transform="scale(0.015625)"/>
        <path id="Lato-Regular-32" d="M 1923 4637 
Q 2214 4637 2467 4550 
Q 2720 4464 2904 4299 
Q 3088 4134 3193 3897 
Q 3299 3661 3299 3360 
Q 3299 3104 3222 2886 
Q 3146 2669 3014 2469 
Q 2883 2269 2712 2081 
Q 2541 1894 2349 1699 
L 1142 464 
Q 1270 499 1401 520 
Q 1533 541 1654 541 
L 3190 541 
Q 3283 541 3337 486 
Q 3392 432 3392 346 
L 3392 0 
L 333 0 
L 333 195 
Q 333 256 357 320 
Q 381 384 435 438 
L 1904 1914 
Q 2086 2099 2236 2270 
Q 2387 2442 2494 2614 
Q 2602 2787 2659 2964 
Q 2717 3142 2717 3344 
Q 2717 3546 2653 3698 
Q 2589 3850 2477 3949 
Q 2365 4048 2214 4097 
Q 2064 4147 1891 4147 
Q 1718 4147 1571 4096 
Q 1424 4045 1310 3953 
Q 1197 3862 1118 3737 
Q 1040 3613 1008 3462 
Q 982 3370 931 3328 
Q 880 3286 797 3286 
Q 781 3286 763 3288 
Q 746 3290 723 3293 
L 426 3344 
Q 470 3658 598 3899 
Q 726 4141 923 4304 
Q 1120 4467 1374 4552 
Q 1629 4637 1923 4637 
z
" transform="scale(0.015625)"/>
        <path id="Lato-Regular-35" d="M 3130 4336 
Q 3130 4214 3053 4136 
Q 2976 4058 2794 4058 
L 1354 4058 
L 1142 2854 
Q 1501 2931 1805 2931 
Q 2163 2931 2436 2825 
Q 2710 2720 2896 2534 
Q 3082 2349 3176 2096 
Q 3270 1843 3270 1546 
Q 3270 1181 3142 886 
Q 3014 592 2792 382 
Q 2570 173 2269 61 
Q 1968 -51 1619 -51 
Q 1418 -51 1232 -11 
Q 1046 29 886 96 
Q 726 163 588 249 
Q 451 336 346 432 
L 518 675 
Q 576 758 672 758 
Q 733 758 814 708 
Q 896 659 1011 598 
Q 1126 538 1281 488 
Q 1437 438 1651 438 
Q 1891 438 2083 515 
Q 2275 592 2411 734 
Q 2547 877 2620 1075 
Q 2694 1274 2694 1520 
Q 2694 1734 2632 1907 
Q 2570 2080 2443 2201 
Q 2317 2323 2128 2390 
Q 1939 2458 1686 2458 
Q 1514 2458 1328 2429 
Q 1142 2400 944 2336 
L 586 2442 
L 957 4586 
L 3130 4586 
L 3130 4336 
z
" transform="scale(0.015625)"/>
        <path id="Lato-Regular-30" d="M 3520 2291 
Q 3520 1690 3390 1250 
Q 3261 810 3037 522 
Q 2813 234 2507 93 
Q 2202 -48 1853 -48 
Q 1501 -48 1198 93 
Q 896 234 672 522 
Q 448 810 320 1250 
Q 192 1690 192 2291 
Q 192 2893 320 3334 
Q 448 3776 672 4065 
Q 896 4355 1198 4496 
Q 1501 4637 1853 4637 
Q 2202 4637 2507 4496 
Q 2813 4355 3037 4065 
Q 3261 3776 3390 3334 
Q 3520 2893 3520 2291 
z
M 2928 2291 
Q 2928 2816 2840 3173 
Q 2752 3530 2603 3747 
Q 2454 3965 2259 4059 
Q 2064 4154 1853 4154 
Q 1642 4154 1446 4059 
Q 1251 3965 1104 3747 
Q 957 3530 869 3173 
Q 781 2816 781 2291 
Q 781 1766 869 1411 
Q 957 1056 1104 838 
Q 1251 621 1446 526 
Q 1642 432 1853 432 
Q 2064 432 2259 526 
Q 2454 621 2603 838 
Q 2752 1056 2840 1411 
Q 2928 1766 2928 2291 
z
" transform="scale(0.015625)"/>
        <path id="Lato-Regular-4d" d="M 2813 1658 
Q 2858 1581 2891 1496 
Q 2925 1411 2957 1325 
Q 2989 1414 3024 1496 
Q 3059 1578 3104 1661 
L 4656 4480 
Q 4698 4554 4742 4570 
Q 4787 4586 4870 4586 
L 5328 4586 
L 5328 0 
L 4784 0 
L 4784 3370 
Q 4784 3437 4787 3513 
Q 4790 3590 4797 3670 
L 3226 803 
Q 3146 659 3002 659 
L 2912 659 
Q 2768 659 2688 803 
L 1082 3680 
Q 1091 3597 1096 3517 
Q 1101 3437 1101 3370 
L 1101 0 
L 557 0 
L 557 4586 
L 1014 4586 
Q 1098 4586 1142 4570 
Q 1187 4554 1229 4480 
L 2813 1658 
L 2813 1658 
z
" transform="scale(0.015625)"/>
       </defs>
       <use xlink:href="#Lato-Regular-20ac"/>
       <use xlink:href="#Lato-Regular-32" transform="translate(58 0)"/>
       <use xlink:href="#Lato-Regular-35" transform="translate(116 0)"/>
       <use xlink:href="#Lato-Regular-30" transform="translate(174 0)"/>
       <use xlink:href="#Lato-Regular-4d" transform="translate(232 0)"/>
      </g>
     </g>
    </g>
    <g id="xtick_2">
     <g id="line2d_2">
      <g>
       <use xlink:href="#m14ea6a2fcc" x="144.45" y="314.12" style="stroke: #000000; stroke-width: 0.8"/>
      </g>
     </g>
     <g id="text_2">
      <!-- €500M -->
      <g transform="translate(128.25 328.485625) scale(0.1 -0.1)">
       <use xlink:href="#Lato-Regular-20ac"/>
       <use xlink:href="#Lato-Regular-35" transform="translate(58 0)"/>
       <use xlink:href="#Lato-Regular-30" transform="translate(116 0)"/>
       <use xlink:href="#Lato-Regular-30" transform="translate(174 0)"/>
       <use xlink:href="#Lato-Regular-4d" transform="translate(232 0)"/>
      </g>
     </g>
    </g>
    <g id="xtick_3">
     <g id="line2d_3">
      <g>
       <use xlink:href="#m14ea6a2fcc" x="213.075" y="314.12" style="stroke: #000000; stroke-width: 0.8"/>
      </g>
     </g>
     <g id="text_3">
      <!-- €750M -->
      <g transform="translate(196.875 328.485625) scale(0.1 -0.1)">
       <defs>
        <path id="Lato-Regular-37" d="M 3469 4586 
L 3469 4330 
Q 3469 4221 3445 4150 
Q 3421 4080 3395 4032 
L 1498 202 
Q 1456 118 1382 59 
Q 1309 0 1184 0 
L 778 0 
L 2704 3782 
Q 2746 3862 2789 3929 
Q 2832 3997 2886 4058 
L 493 4058 
Q 438 4058 395 4101 
Q 352 4144 352 4198 
L 352 4586 
L 3469 4586 
z
" transform="scale(0.015625)"/>
       </defs>
       <use xlink:href="#Lato-Regular-20ac"/>
       <use xlink:href="#Lato-Regular-37" transform="translate(58 0)"/>
       <use xlink:href="#Lato-Regular-35" transform="translate(116 0)"/>
       <use xlink:href="#Lato-Regular-30" transform="translate(174 0)"/>
       <use xlink:href="#Lato-Regular-4d" transform="translate(232 0)"/>
      </g>
     </g>
    </g>
    <g id="xtick_4">
     <g id="line2d_4">
      <g>
       <use xlink:href="#m14ea6a2fcc" x="281.7" y="314.12" style="stroke: #000000; stroke-width: 0.8"/>
      </g>
     </g>
     <g id="text_4">
      <!-- €1B -->
      <g transform="translate(272.664844 328.485625) scale(0.1 -0.1)">
       <defs>
        <path id="Lato-Regular-31" d="M 918 435 
L 1904 435 
L 1904 3562 
Q 1904 3702 1914 3846 
L 1094 3146 
Q 1062 3120 1030 3109 
Q 998 3098 970 3098 
Q 922 3098 883 3118 
Q 845 3139 826 3168 
L 646 3414 
L 2010 4595 
L 2474 4595 
L 2474 435 
L 3376 435 
L 3376 0 
L 918 0 
L 918 435 
z
" transform="scale(0.015625)"/>
        <path id="Lato-Regular-42" d="M 557 0 
L 557 4586 
L 2019 4586 
Q 2442 4586 2747 4502 
Q 3053 4419 3249 4265 
Q 3446 4112 3540 3889 
Q 3635 3667 3635 3389 
Q 3635 3219 3582 3062 
Q 3530 2906 3422 2771 
Q 3315 2637 3153 2531 
Q 2992 2426 2774 2358 
Q 3277 2259 3533 1996 
Q 3789 1734 3789 1306 
Q 3789 1014 3681 774 
Q 3574 534 3368 361 
Q 3162 189 2862 94 
Q 2563 0 2179 0 
L 557 0 
z
M 1178 2090 
L 1178 493 
L 2170 493 
Q 2435 493 2625 553 
Q 2816 614 2939 724 
Q 3062 835 3120 987 
Q 3178 1139 3178 1322 
Q 3178 1677 2926 1883 
Q 2675 2090 2166 2090 
L 1178 2090 
z
M 1178 2531 
L 1997 2531 
Q 2259 2531 2451 2588 
Q 2643 2646 2769 2748 
Q 2896 2851 2957 2996 
Q 3018 3142 3018 3315 
Q 3018 3718 2774 3907 
Q 2531 4096 2019 4096 
L 1178 4096 
L 1178 2531 
z
" transform="scale(0.015625)"/>
       </defs>
       <use xlink:href="#Lato-Regular-20ac"/>
       <use xlink:href="#Lato-Regular-31" transform="translate(58 0)"/>
       <use xlink:href="#Lato-Regular-42" transform="translate(116 0)"/>
      </g>
     </g>
    </g>
    <g id="xtick_5">
     <g id="line2d_5">
      <g>
       <use xlink:href="#m14ea6a2fcc" x="350.325" y="314.12" style="stroke: #000000; stroke-width: 0.8"/>
      </g>
     </g>
     <g id="text_5">
      <!-- €1.25B -->
      <g transform="translate(334.429688 328.485625) scale(0.1 -0.1)">
       <defs>
        <path id="Lato-Regular-2e" d="M 282 352 
Q 282 435 312 508 
Q 342 582 395 636 
Q 448 691 521 723 
Q 595 755 678 755 
Q 762 755 835 723 
Q 909 691 963 636 
Q 1018 582 1048 508 
Q 1078 435 1078 352 
Q 1078 266 1048 194 
Q 1018 122 963 67 
Q 909 13 835 -17 
Q 762 -48 678 -48 
Q 595 -48 521 -17 
Q 448 13 395 67 
Q 342 122 312 194 
Q 282 266 282 352 
z
" transform="scale(0.015625)"/>
       </defs>
       <use xlink:href="#Lato-Regular-20ac"/>
       <use xlink:href="#Lato-Regular-31" transform="translate(58 0)"/>
       <use xlink:href="#Lato-Regular-2e" transform="translate(116 0)"/>
       <use xlink:href="#Lato-Regular-32" transform="translate(137.199997 0)"/>
       <use xlink:href="#Lato-Regular-35" transform="translate(195.199997 0)"/>
       <use xlink:href="#Lato-Regular-42" transform="translate(253.199997 0)"/>
      </g>
     </g>
    </g>
    <g id="xtick_6">
     <g id="line2d_6">
      <g>
       <use xlink:href="#m14ea6a2fcc" x="418.95" y="314.12" style="stroke: #000000; stroke-width: 0.8"/>
      </g>
     </g>
     <g id="text_6">
      <!-- €1.5B -->
      <g transform="translate(405.954688 328.485625) scale(0.1 -0.1)">
       <use xlink:href="#Lato-Regular-20ac"/>
       <use xlink:href="#Lato-Regular-31" transform="translate(58 0)"/>
       <use xlink:href="#Lato-Regular-2e" transform="translate(116 0)"/>
       <use xlink:href="#Lato-Regular-35" transform="translate(137.199997 0)"/>
       <use xlink:href="#Lato-Regular-42" transform="translate(195.199997 0)"/>
      </g>
     </g>
    </g>
   </g>
  </g>
  <g id="axes_2">
   <g id="FillBetweenPolyCollection_1">
    <defs>
     <path id="m220cc21514" d="M 8.150768 -271.326622 
L 8.150768 -271.326622 
L 12.358105 -271.326622 
L 16.565441 -271.326622 
L 20.772777 -271.326622 
L 24.980114 -271.326622 
L 29.18745 -271.326622 
L 33.394786 -271.326622 
L 37.602123 -271.326622 
L 41.809459 -271.326622 
L 46.016795 -271.326622 
L 50.224132 -271.326622 
L 54.431468 -271.326622 
L 58.638805 -271.326622 
L 62.846141 -271.326622 
L 67.053477 -271.326622 
L 71.260814 -271.326622 
L 75.46815 -271.326622 
L 79.675486 -271.326622 
L 83.882823 -271.326622 
L 88.090159 -271.326622 
L 92.297495 -271.326622 
L 96.504832 -271.326622 
L 96.504832 -271.326622 
L 96.504832 -271.326622 
L 92.297495 -282.540837 
L 88.090159 -271.326622 
L 83.882823 -282.540837 
L 79.675486 -271.326622 
L 75.46815 -271.326622 
L 71.260814 -282.540837 
L 67.053477 -271.326622 
L 62.846141 -282.540837 
L 58.638805 -271.326622 
L 54.431468 -271.326622 
L 50.224132 -271.326622 
L 46.016795 -271.326622 
L 41.809459 -271.326622 
L 37.602123 -293.755052 
L 33.394786 -271.326622 
L 29.18745 -304.969267 
L 24.980114 -271.326622 
L 20.772777 -327.397696 
L 16.565441 -316.183481 
L 12.358105 -293.755052 
L 8.150768 -271.326622 
z
" style="stroke: #0578ff; stroke-opacity: 0.427273"/>
    </defs>
    <g clip-path="url(#p21828c9301)">
     <use xlink:href="#m220cc21514" x="0" y="337.40125" style="fill: #0578ff; fill-opacity: 0.427273; stroke: #0578ff; stroke-opacity: 0.427273"/>
    </g>
   </g>
   <g id="line2d_7">
    <path d="M 8.150768 66.074628 
L 12.358105 66.074628 
L 16.565441 66.074628 
L 20.772777 66.074628 
L 24.980114 66.074628 
L 29.18745 66.074628 
L 33.394786 66.074628 
L 37.602123 66.074628 
L 41.809459 66.074628 
L 46.016795 66.074628 
L 50.224132 66.074628 
L 54.431468 66.074628 
L 58.638805 66.074628 
L 62.846141 66.074628 
L 67.053477 66.074628 
L 71.260814 66.074628 
L 75.46815 66.074628 
L 79.675486 66.074628 
L 83.882823 66.074628 
L 88.090159 66.074628 
L 92.297495 66.074628 
L 96.504832 66.074628 
" clip-path="url(#p21828c9301)" style="fill: none; stroke: #0578ff; stroke-opacity: 0.427273; stroke-width: 1.5; stroke-linecap: square"/>
   </g>
   <g id="line2d_8">
    <path d="M 8.150768 66.074628 
L 12.358105 43.646198 
L 16.565441 21.217769 
L 20.772777 10.003554 
L 24.980114 66.074628 
L 29.18745 32.431983 
L 33.394786 66.074628 
L 37.602123 43.646198 
L 41.809459 66.074628 
L 46.016795 66.074628 
L 50.224132 66.074628 
L 54.431468 66.074628 
L 58.638805 66.074628 
L 62.846141 54.860413 
L 67.053477 66.074628 
L 71.260814 54.860413 
L 75.46815 66.074628 
L 79.675486 66.074628 
L 83.882823 54.860413 
L 88.090159 66.074628 
L 92.297495 54.860413 
L 96.504832 66.074628 
" clip-path="url(#p21828c9301)" style="fill: none; stroke: #000000; stroke-opacity: 0.427273; stroke-width: 1.5; stroke-linecap: square"/>
   </g>
  </g>
  <g id="axes_3">
   <g id="FillBetweenPolyCollection_2">
    <defs>
     <path id="ma12ac54e5e" d="M 7.961962 -259.64844 
L 7.961962 -259.64844 
L 12.234729 -259.64844 
L 16.507496 -259.64844 
L 20.780264 -259.64844 
L 25.053031 -259.64844 
L 29.325798 -259.64844 
L 33.598565 -259.64844 
L 37.871332 -259.64844 
L 42.1441 -259.64844 
L 46.416867 -259.64844 
L 50.689634 -259.64844 
L 54.962401 -259.64844 
L 59.235168 -259.64844 
L 63.507935 -259.64844 
L 67.780703 -259.64844 
L 72.05347 -259.64844 
L 76.326237 -259.64844 
L 80.599004 -259.64844 
L 84.871771 -259.64844 
L 89.144539 -259.64844 
L 93.417306 -259.64844 
L 97.690073 -259.64844 
L 97.690073 -259.64844 
L 97.690073 -259.64844 
L 93.417306 -270.862655 
L 89.144539 -259.64844 
L 84.871771 -259.64844 
L 80.599004 -270.862655 
L 76.326237 -259.64844 
L 72.05347 -270.862655 
L 67.780703 -259.64844 
L 63.507935 -259.64844 
L 59.235168 -270.862655 
L 54.962401 -259.64844 
L 50.689634 -259.64844 
L 46.416867 -270.862655 
L 42.1441 -259.64844 
L 37.871332 -259.64844 
L 33.598565 -282.07687 
L 29.325798 -270.862655 
L 25.053031 -270.862655 
L 20.780264 -315.719514 
L 16.507496 -304.5053 
L 12.234729 -282.07687 
L 7.961962 -259.64844 
z
" style="stroke: #0578ff; stroke-opacity: 0.454545"/>
    </defs>
    <g clip-path="url(#p5e70c33f07)">
     <use xlink:href="#ma12ac54e5e" x="0" y="337.40125" style="fill: #0578ff; fill-opacity: 0.454545; stroke: #0578ff; stroke-opacity: 0.454545"/>
    </g>
   </g>
   <g id="line2d_9">
    <path d="M 7.961962 77.75281 
L 12.234729 77.75281 
L 16.507496 77.75281 
L 20.780264 77.75281 
L 25.053031 77.75281 
L 29.325798 77.75281 
L 33.598565 77.75281 
L 37.871332 77.75281 
L 42.1441 77.75281 
L 46.416867 77.75281 
L 50.689634 77.75281 
L 54.962401 77.75281 
L 59.235168 77.75281 
L 63.507935 77.75281 
L 67.780703 77.75281 
L 72.05347 77.75281 
L 76.326237 77.75281 
L 80.599004 77.75281 
L 84.871771 77.75281 
L 89.144539 77.75281 
L 93.417306 77.75281 
L 97.690073 77.75281 
" clip-path="url(#p5e70c33f07)" style="fill: none; stroke: #0578ff; stroke-opacity: 0.454545; stroke-width: 1.5; stroke-linecap: square"/>
   </g>
   <g id="line2d_10">
    <path d="M 7.961962 77.75281 
L 12.234729 55.32438 
L 16.507496 32.89595 
L 20.780264 21.681736 
L 25.053031 66.538595 
L 29.325798 66.538595 
L 33.598565 55.32438 
L 37.871332 77.75281 
L 42.1441 77.75281 
L 46.416867 66.538595 
L 50.689634 77.75281 
L 54.962401 77.75281 
L 59.235168 66.538595 
L 63.507935 77.75281 
L 67.780703 77.75281 
L 72.05347 66.538595 
L 76.326237 77.75281 
L 80.599004 66.538595 
L 84.871771 77.75281 
L 89.144539 77.75281 
L 93.417306 66.538595 
L 97.690073 77.75281 
" clip-path="url(#p5e70c33f07)" style="fill: none; stroke: #000000; stroke-opacity: 0.454545; stroke-width: 1.5; stroke-linecap: square"/>
   </g>
  </g>
  <g id="axes_4">
   <g id="FillBetweenPolyCollection_3">
    <defs>
     <path id="meee6115d31" d="M 9.320138 -247.970258 
L 9.320138 -247.970258 
L 13.04161 -247.970258 
L 16.763081 -247.970258 
L 20.484552 -247.970258 
L 24.206024 -247.970258 
L 27.927495 -247.970258 
L 31.648966 -247.970258 
L 35.370438 -247.970258 
L 39.091909 -247.970258 
L 42.81338 -247.970258 
L 46.534852 -247.970258 
L 50.256323 -247.970258 
L 53.977795 -247.970258 
L 57.699266 -247.970258 
L 61.420737 -247.970258 
L 65.142209 -247.970258 
L 68.86368 -247.970258 
L 72.585151 -247.970258 
L 76.306623 -247.970258 
L 80.028094 -247.970258 
L 83.749565 -247.970258 
L 87.471037 -247.970258 
L 87.471037 -247.970258 
L 87.471037 -247.970258 
L 83.749565 -257.315437 
L 80.028094 -257.315437 
L 76.306623 -247.970258 
L 72.585151 -247.970258 
L 68.86368 -257.315437 
L 65.142209 -247.970258 
L 61.420737 -247.970258 
L 57.699266 -247.970258 
L 53.977795 -247.970258 
L 50.256323 -257.315437 
L 46.534852 -247.970258 
L 42.81338 -257.315437 
L 39.091909 -247.970258 
L 35.370438 -266.660616 
L 31.648966 -257.315437 
L 27.927495 -257.315437 
L 24.206024 -266.660616 
L 20.484552 -304.041333 
L 16.763081 -266.660616 
L 13.04161 -257.315437 
L 9.320138 -247.970258 
z
" style="stroke: #0578ff; stroke-opacity: 0.481818"/>
    </defs>
    <g clip-path="url(#pa9f8a9a000)">
     <use xlink:href="#meee6115d31" x="0" y="337.40125" style="fill: #0578ff; fill-opacity: 0.481818; stroke: #0578ff; stroke-opacity: 0.481818"/>
    </g>
   </g>
   <g id="line2d_11">
    <path d="M 9.320138 89.430992 
L 13.04161 89.430992 
L 16.763081 89.430992 
L 20.484552 89.430992 
L 24.206024 89.430992 
L 27.927495 89.430992 
L 31.648966 89.430992 
L 35.370438 89.430992 
L 39.091909 89.430992 
L 42.81338 89.430992 
L 46.534852 89.430992 
L 50.256323 89.430992 
L 53.977795 89.430992 
L 57.699266 89.430992 
L 61.420737 89.430992 
L 65.142209 89.430992 
L 68.86368 89.430992 
L 72.585151 89.430992 
L 76.306623 89.430992 
L 80.028094 89.430992 
L 83.749565 89.430992 
L 87.471037 89.430992 
" clip-path="url(#pa9f8a9a000)" style="fill: none; stroke: #0578ff; stroke-opacity: 0.481818; stroke-width: 1.5; stroke-linecap: square"/>
   </g>
   <g id="line2d_12">
    <path d="M 9.320138 89.430992 
L 13.04161 80.085813 
L 16.763081 70.740634 
L 20.484552 33.359917 
L 24.206024 70.740634 
L 27.927495 80.085813 
L 31.648966 80.085813 
L 35.370438 70.740634 
L 39.091909 89.430992 
L 42.81338 80.085813 
L 46.534852 89.430992 
L 50.256323 80.085813 
L 53.977795 89.430992 
L 57.699266 89.430992 
L 61.420737 89.430992 
L 65.142209 89.430992 
L 68.86368 80.085813 
L 72.585151 89.430992 
L 76.306623 89.430992 
L 80.028094 80.085813 
L 83.749565 80.085813 
L 87.471037 89.430992 
" clip-path="url(#pa9f8a9a000)" style="fill: none; stroke: #000000; stroke-opacity: 0.481818; stroke-width: 1.5; stroke-linecap: square"/>
   </g>
  </g>
  <g id="axes_5">
   <g id="FillBetweenPolyCollection_4">
    <defs>
     <path id="ma1d2c9714b" d="M 13.143175 -236.292076 
L 13.143175 -236.292076 
L 17.167844 -236.292076 
L 21.192513 -236.292076 
L 25.217182 -236.292076 
L 29.241851 -236.292076 
L 33.26652 -236.292076 
L 37.291189 -236.292076 
L 41.315858 -236.292076 
L 45.340527 -236.292076 
L 49.365196 -236.292076 
L 53.389865 -236.292076 
L 57.414535 -236.292076 
L 61.439204 -236.292076 
L 65.463873 -236.292076 
L 69.488542 -236.292076 
L 73.513211 -236.292076 
L 77.53788 -236.292076 
L 81.562549 -236.292076 
L 85.587218 -236.292076 
L 89.611887 -236.292076 
L 93.636556 -236.292076 
L 97.661225 -236.292076 
L 97.661225 -236.292076 
L 97.661225 -236.292076 
L 93.636556 -247.506291 
L 89.611887 -236.292076 
L 85.587218 -247.506291 
L 81.562549 -236.292076 
L 77.53788 -236.292076 
L 73.513211 -258.720506 
L 69.488542 -236.292076 
L 65.463873 -236.292076 
L 61.439204 -236.292076 
L 57.414535 -236.292076 
L 53.389865 -247.506291 
L 49.365196 -236.292076 
L 45.340527 -236.292076 
L 41.315858 -236.292076 
L 37.291189 -269.934721 
L 33.26652 -236.292076 
L 29.241851 -258.720506 
L 25.217182 -269.934721 
L 21.192513 -292.363151 
L 17.167844 -258.720506 
L 13.143175 -236.292076 
z
" style="stroke: #0578ff; stroke-opacity: 0.509091"/>
    </defs>
    <g clip-path="url(#p5979d8fb1d)">
     <use xlink:href="#ma1d2c9714b" x="0" y="337.40125" style="fill: #0578ff; fill-opacity: 0.509091; stroke: #0578ff; stroke-opacity: 0.509091"/>
    </g>
   </g>
   <g id="line2d_13">
    <path d="M 13.143175 101.109174 
L 17.167844 101.109174 
L 21.192513 101.109174 
L 25.217182 101.109174 
L 29.241851 101.109174 
L 33.26652 101.109174 
L 37.291189 101.109174 
L 41.315858 101.109174 
L 45.340527 101.109174 
L 49.365196 101.109174 
L 53.389865 101.109174 
L 57.414535 101.109174 
L 61.439204 101.109174 
L 65.463873 101.109174 
L 69.488542 101.109174 
L 73.513211 101.109174 
L 77.53788 101.109174 
L 81.562549 101.109174 
L 85.587218 101.109174 
L 89.611887 101.109174 
L 93.636556 101.109174 
L 97.661225 101.109174 
" clip-path="url(#p5979d8fb1d)" style="fill: none; stroke: #0578ff; stroke-opacity: 0.509091; stroke-width: 1.5; stroke-linecap: square"/>
   </g>
   <g id="line2d_14">
    <path d="M 13.143175 101.109174 
L 17.167844 78.680744 
L 21.192513 45.038099 
L 25.217182 67.466529 
L 29.241851 78.680744 
L 33.26652 101.109174 
L 37.291189 67.466529 
L 41.315858 101.109174 
L 45.340527 101.109174 
L 49.365196 101.109174 
L 53.389865 89.894959 
L 57.414535 101.109174 
L 61.439204 101.109174 
L 65.463873 101.109174 
L 69.488542 101.109174 
L 73.513211 78.680744 
L 77.53788 101.109174 
L 81.562549 101.109174 
L 85.587218 89.894959 
L 89.611887 101.109174 
L 93.636556 89.894959 
L 97.661225 101.109174 
" clip-path="url(#p5979d8fb1d)" style="fill: none; stroke: #000000; stroke-opacity: 0.509091; stroke-width: 1.5; stroke-linecap: square"/>
   </g>
  </g>
  <g id="axes_6">
   <g id="FillBetweenPolyCollection_5">
    <defs>
     <path id="m245601d460" d="M 11.210445 -224.613895 
L 11.210445 -224.613895 
L 15.58323 -224.613895 
L 19.956015 -224.613895 
L 24.3288 -224.613895 
L 28.701585 -224.613895 
L 33.07437 -224.613895 
L 37.447155 -224.613895 
L 41.81994 -224.613895 
L 46.192725 -224.613895 
L 50.56551 -224.613895 
L 54.938295 -224.613895 
L 59.31108 -224.613895 
L 63.683865 -224.613895 
L 68.05665 -224.613895 
L 72.429435 -224.613895 
L 76.80222 -224.613895 
L 81.175005 -224.613895 
L 85.54779 -224.613895 
L 89.920575 -224.613895 
L 94.29336 -224.613895 
L 98.666145 -224.613895 
L 103.03893 -224.613895 
L 103.03893 -224.613895 
L 103.03893 -224.613895 
L 98.666145 -235.82811 
L 94.29336 -235.82811 
L 89.920575 -224.613895 
L 85.54779 -224.613895 
L 81.175005 -235.82811 
L 76.80222 -235.82811 
L 72.429435 -224.613895 
L 68.05665 -224.613895 
L 63.683865 -224.613895 
L 59.31108 -235.82811 
L 54.938295 -224.613895 
L 50.56551 -224.613895 
L 46.192725 -224.613895 
L 41.81994 -235.82811 
L 37.447155 -247.042324 
L 33.07437 -258.256539 
L 28.701585 -224.613895 
L 24.3288 -247.042324 
L 19.956015 -280.684969 
L 15.58323 -247.042324 
L 11.210445 -224.613895 
z
" style="stroke: #0578ff; stroke-opacity: 0.536364"/>
    </defs>
    <g clip-path="url(#p5d2bfa57d0)">
     <use xlink:href="#m245601d460" x="0" y="337.40125" style="fill: #0578ff; fill-opacity: 0.536364; stroke: #0578ff; stroke-opacity: 0.536364"/>
    </g>
   </g>
   <g id="line2d_15">
    <path d="M 11.210445 112.787355 
L 15.58323 112.787355 
L 19.956015 112.787355 
L 24.3288 112.787355 
L 28.701585 112.787355 
L 33.07437 112.787355 
L 37.447155 112.787355 
L 41.81994 112.787355 
L 46.192725 112.787355 
L 50.56551 112.787355 
L 54.938295 112.787355 
L 59.31108 112.787355 
L 63.683865 112.787355 
L 68.05665 112.787355 
L 72.429435 112.787355 
L 76.80222 112.787355 
L 81.175005 112.787355 
L 85.54779 112.787355 
L 89.920575 112.787355 
L 94.29336 112.787355 
L 98.666145 112.787355 
L 103.03893 112.787355 
" clip-path="url(#p5d2bfa57d0)" style="fill: none; stroke: #0578ff; stroke-opacity: 0.536364; stroke-width: 1.5; stroke-linecap: square"/>
   </g>
   <g id="line2d_16">
    <path d="M 11.210445 112.787355 
L 15.58323 90.358926 
L 19.956015 56.716281 
L 24.3288 90.358926 
L 28.701585 112.787355 
L 33.07437 79.144711 
L 37.447155 90.358926 
L 41.81994 101.57314 
L 46.192725 112.787355 
L 50.56551 112.787355 
L 54.938295 112.787355 
L 59.31108 101.57314 
L 63.683865 112.787355 
L 68.05665 112.787355 
L 72.429435 112.787355 
L 76.80222 101.57314 
L 81.175005 101.57314 
L 85.54779 112.787355 
L 89.920575 112.787355 
L 94.29336 101.57314 
L 98.666145 101.57314 
L 103.03893 112.787355 
" clip-path="url(#p5d2bfa57d0)" style="fill: none; stroke: #000000; stroke-opacity: 0.536364; stroke-width: 1.5; stroke-linecap: square"/>
   </g>
  </g>
  <g id="axes_7">
   <g id="FillBetweenPolyCollection_6">
    <defs>
     <path id="me4523b4c8f" d="M 11.439877 -212.935713 
L 11.439877 -212.935713 
L 16.758489 -212.935713 
L 22.077101 -212.935713 
L 27.395714 -212.935713 
L 32.714326 -212.935713 
L 38.032938 -212.935713 
L 43.35155 -212.935713 
L 48.670162 -212.935713 
L 53.988775 -212.935713 
L 59.307387 -212.935713 
L 64.625999 -212.935713 
L 69.944611 -212.935713 
L 75.263223 -212.935713 
L 80.581835 -212.935713 
L 85.900448 -212.935713 
L 91.21906 -212.935713 
L 96.537672 -212.935713 
L 101.856284 -212.935713 
L 107.174896 -212.935713 
L 112.493509 -212.935713 
L 117.812121 -212.935713 
L 123.130733 -212.935713 
L 123.130733 -212.935713 
L 123.130733 -212.935713 
L 117.812121 -224.149928 
L 112.493509 -212.935713 
L 107.174896 -212.935713 
L 101.856284 -212.935713 
L 96.537672 -212.935713 
L 91.21906 -212.935713 
L 85.900448 -212.935713 
L 80.581835 -224.149928 
L 75.263223 -235.364143 
L 69.944611 -212.935713 
L 64.625999 -224.149928 
L 59.307387 -212.935713 
L 53.988775 -212.935713 
L 48.670162 -224.149928 
L 43.35155 -246.578357 
L 38.032938 -235.364143 
L 32.714326 -212.935713 
L 27.395714 -246.578357 
L 22.077101 -269.006787 
L 16.758489 -224.149928 
L 11.439877 -212.935713 
z
" style="stroke: #0578ff; stroke-opacity: 0.563636"/>
    </defs>
    <g clip-path="url(#p7048f05922)">
     <use xlink:href="#me4523b4c8f" x="0" y="337.40125" style="fill: #0578ff; fill-opacity: 0.563636; stroke: #0578ff; stroke-opacity: 0.563636"/>
    </g>
   </g>
   <g id="line2d_17">
    <path d="M 11.439877 124.465537 
L 16.758489 124.465537 
L 22.077101 124.465537 
L 27.395714 124.465537 
L 32.714326 124.465537 
L 38.032938 124.465537 
L 43.35155 124.465537 
L 48.670162 124.465537 
L 53.988775 124.465537 
L 59.307387 124.465537 
L 64.625999 124.465537 
L 69.944611 124.465537 
L 75.263223 124.465537 
L 80.581835 124.465537 
L 85.900448 124.465537 
L 91.21906 124.465537 
L 96.537672 124.465537 
L 101.856284 124.465537 
L 107.174896 124.465537 
L 112.493509 124.465537 
L 117.812121 124.465537 
L 123.130733 124.465537 
" clip-path="url(#p7048f05922)" style="fill: none; stroke: #0578ff; stroke-opacity: 0.563636; stroke-width: 1.5; stroke-linecap: square"/>
   </g>
   <g id="line2d_18">
    <path d="M 11.439877 124.465537 
L 16.758489 113.251322 
L 22.077101 68.394463 
L 27.395714 90.822893 
L 32.714326 124.465537 
L 38.032938 102.037107 
L 43.35155 90.822893 
L 48.670162 113.251322 
L 53.988775 124.465537 
L 59.307387 124.465537 
L 64.625999 113.251322 
L 69.944611 124.465537 
L 75.263223 102.037107 
L 80.581835 113.251322 
L 85.900448 124.465537 
L 91.21906 124.465537 
L 96.537672 124.465537 
L 101.856284 124.465537 
L 107.174896 124.465537 
L 112.493509 124.465537 
L 117.812121 113.251322 
L 123.130733 124.465537 
" clip-path="url(#p7048f05922)" style="fill: none; stroke: #000000; stroke-opacity: 0.563636; stroke-width: 1.5; stroke-linecap: square"/>
   </g>
  </g>
  <g id="axes_8">
   <g id="FillBetweenPolyCollection_7">
    <defs>
     <path id="m2ea5b157b1" d="M 9.902577 -201.257531 
L 9.902577 -201.257531 
L 14.607757 -201.257531 
L 19.312936 -201.257531 
L 24.018116 -201.257531 
L 28.723295 -201.257531 
L 33.428475 -201.257531 
L 38.133655 -201.257531 
L 42.838834 -201.257531 
L 47.544014 -201.257531 
L 52.249193 -201.257531 
L 56.954373 -201.257531 
L 61.659552 -201.257531 
L 66.364732 -201.257531 
L 71.069911 -201.257531 
L 75.775091 -201.257531 
L 80.48027 -201.257531 
L 85.18545 -201.257531 
L 89.89063 -201.257531 
L 94.595809 -201.257531 
L 99.300989 -201.257531 
L 104.006168 -201.257531 
L 108.711348 -201.257531 
L 108.711348 -201.257531 
L 108.711348 -201.257531 
L 104.006168 -219.947889 
L 99.300989 -201.257531 
L 94.595809 -201.257531 
L 89.89063 -201.257531 
L 85.18545 -219.947889 
L 80.48027 -219.947889 
L 75.775091 -201.257531 
L 71.069911 -201.257531 
L 66.364732 -201.257531 
L 61.659552 -201.257531 
L 56.954373 -238.638247 
L 52.249193 -238.638247 
L 47.544014 -201.257531 
L 42.838834 -257.328605 
L 38.133655 -219.947889 
L 33.428475 -201.257531 
L 28.723295 -238.638247 
L 24.018116 -257.328605 
L 19.312936 -257.328605 
L 14.607757 -219.947889 
L 9.902577 -201.257531 
z
" style="stroke: #0578ff; stroke-opacity: 0.590909"/>
    </defs>
    <g clip-path="url(#p14671c46bc)">
     <use xlink:href="#m2ea5b157b1" x="0" y="337.40125" style="fill: #0578ff; fill-opacity: 0.590909; stroke: #0578ff; stroke-opacity: 0.590909"/>
    </g>
   </g>
   <g id="line2d_19">
    <path d="M 9.902577 136.143719 
L 14.607757 136.143719 
L 19.312936 136.143719 
L 24.018116 136.143719 
L 28.723295 136.143719 
L 33.428475 136.143719 
L 38.133655 136.143719 
L 42.838834 136.143719 
L 47.544014 136.143719 
L 52.249193 136.143719 
L 56.954373 136.143719 
L 61.659552 136.143719 
L 66.364732 136.143719 
L 71.069911 136.143719 
L 75.775091 136.143719 
L 80.48027 136.143719 
L 85.18545 136.143719 
L 89.89063 136.143719 
L 94.595809 136.143719 
L 99.300989 136.143719 
L 104.006168 136.143719 
L 108.711348 136.143719 
" clip-path="url(#p14671c46bc)" style="fill: none; stroke: #0578ff; stroke-opacity: 0.590909; stroke-width: 1.5; stroke-linecap: square"/>
   </g>
   <g id="line2d_20">
    <path d="M 9.902577 136.143719 
L 14.607757 117.453361 
L 19.312936 80.072645 
L 24.018116 80.072645 
L 28.723295 98.763003 
L 33.428475 136.143719 
L 38.133655 117.453361 
L 42.838834 80.072645 
L 47.544014 136.143719 
L 52.249193 98.763003 
L 56.954373 98.763003 
L 61.659552 136.143719 
L 66.364732 136.143719 
L 71.069911 136.143719 
L 75.775091 136.143719 
L 80.48027 117.453361 
L 85.18545 117.453361 
L 89.89063 136.143719 
L 94.595809 136.143719 
L 99.300989 136.143719 
L 104.006168 117.453361 
L 108.711348 136.143719 
" clip-path="url(#p14671c46bc)" style="fill: none; stroke: #000000; stroke-opacity: 0.590909; stroke-width: 1.5; stroke-linecap: square"/>
   </g>
  </g>
  <g id="axes_9">
   <g id="FillBetweenPolyCollection_8">
    <defs>
     <path id="m2c04cf9c83" d="M 9.521621 -189.579349 
L 9.521621 -189.579349 
L 13.633432 -189.579349 
L 17.745242 -189.579349 
L 21.857052 -189.579349 
L 25.968863 -189.579349 
L 30.080673 -189.579349 
L 34.192483 -189.579349 
L 38.304294 -189.579349 
L 42.416104 -189.579349 
L 46.527914 -189.579349 
L 50.639725 -189.579349 
L 54.751535 -189.579349 
L 58.863346 -189.579349 
L 62.975156 -189.579349 
L 67.086966 -189.579349 
L 71.198777 -189.579349 
L 75.310587 -189.579349 
L 79.422397 -189.579349 
L 83.534208 -189.579349 
L 87.646018 -189.579349 
L 91.757828 -189.579349 
L 95.869639 -189.579349 
L 95.869639 -189.579349 
L 95.869639 -189.579349 
L 91.757828 -203.597118 
L 87.646018 -189.579349 
L 83.534208 -203.597118 
L 79.422397 -203.597118 
L 75.310587 -189.579349 
L 71.198777 -189.579349 
L 67.086966 -189.579349 
L 62.975156 -203.597118 
L 58.863346 -189.579349 
L 54.751535 -203.597118 
L 50.639725 -189.579349 
L 46.527914 -203.597118 
L 42.416104 -203.597118 
L 38.304294 -217.614886 
L 34.192483 -203.597118 
L 30.080673 -203.597118 
L 25.968863 -231.632655 
L 21.857052 -203.597118 
L 17.745242 -245.650424 
L 13.633432 -203.597118 
L 9.521621 -189.579349 
z
" style="stroke: #0578ff; stroke-opacity: 0.618182"/>
    </defs>
    <g clip-path="url(#p881ffa312d)">
     <use xlink:href="#m2c04cf9c83" x="0" y="337.40125" style="fill: #0578ff; fill-opacity: 0.618182; stroke: #0578ff; stroke-opacity: 0.618182"/>
    </g>
   </g>
   <g id="line2d_21">
    <path d="M 9.521621 147.821901 
L 13.633432 147.821901 
L 17.745242 147.821901 
L 21.857052 147.821901 
L 25.968863 147.821901 
L 30.080673 147.821901 
L 34.192483 147.821901 
L 38.304294 147.821901 
L 42.416104 147.821901 
L 46.527914 147.821901 
L 50.639725 147.821901 
L 54.751535 147.821901 
L 58.863346 147.821901 
L 62.975156 147.821901 
L 67.086966 147.821901 
L 71.198777 147.821901 
L 75.310587 147.821901 
L 79.422397 147.821901 
L 83.534208 147.821901 
L 87.646018 147.821901 
L 91.757828 147.821901 
L 95.869639 147.821901 
" clip-path="url(#p881ffa312d)" style="fill: none; stroke: #0578ff; stroke-opacity: 0.618182; stroke-width: 1.5; stroke-linecap: square"/>
   </g>
   <g id="line2d_22">
    <path d="M 9.521621 147.821901 
L 13.633432 133.804132 
L 17.745242 91.750826 
L 21.857052 133.804132 
L 25.968863 105.768595 
L 30.080673 133.804132 
L 34.192483 133.804132 
L 38.304294 119.786364 
L 42.416104 133.804132 
L 46.527914 133.804132 
L 50.639725 147.821901 
L 54.751535 133.804132 
L 58.863346 147.821901 
L 62.975156 133.804132 
L 67.086966 147.821901 
L 71.198777 147.821901 
L 75.310587 147.821901 
L 79.422397 133.804132 
L 83.534208 133.804132 
L 87.646018 147.821901 
L 91.757828 133.804132 
L 95.869639 147.821901 
" clip-path="url(#p881ffa312d)" style="fill: none; stroke: #000000; stroke-opacity: 0.618182; stroke-width: 1.5; stroke-linecap: square"/>
   </g>
  </g>
  <g id="axes_10">
   <g id="FillBetweenPolyCollection_9">
    <defs>
     <path id="m5d4c31b837" d="M 14.435421 -177.901167 
L 14.435421 -177.901167 
L 18.7838 -177.901167 
L 23.13218 -177.901167 
L 27.480559 -177.901167 
L 31.828939 -177.901167 
L 36.177318 -177.901167 
L 40.525697 -177.901167 
L 44.874077 -177.901167 
L 49.222456 -177.901167 
L 53.570836 -177.901167 
L 57.919215 -177.901167 
L 62.267595 -177.901167 
L 66.615974 -177.901167 
L 70.964354 -177.901167 
L 75.312733 -177.901167 
L 79.661113 -177.901167 
L 84.009492 -177.901167 
L 88.357871 -177.901167 
L 92.706251 -177.901167 
L 97.05463 -177.901167 
L 101.40301 -177.901167 
L 105.751389 -177.901167 
L 105.751389 -177.901167 
L 105.751389 -177.901167 
L 101.40301 -189.115382 
L 97.05463 -177.901167 
L 92.706251 -177.901167 
L 88.357871 -177.901167 
L 84.009492 -177.901167 
L 79.661113 -177.901167 
L 75.312733 -189.115382 
L 70.964354 -200.329597 
L 66.615974 -189.115382 
L 62.267595 -177.901167 
L 57.919215 -177.901167 
L 53.570836 -189.115382 
L 49.222456 -177.901167 
L 44.874077 -189.115382 
L 40.525697 -189.115382 
L 36.177318 -189.115382 
L 31.828939 -200.329597 
L 27.480559 -233.972242 
L 23.13218 -200.329597 
L 18.7838 -200.329597 
L 14.435421 -177.901167 
z
" style="stroke: #0578ff; stroke-opacity: 0.645455"/>
    </defs>
    <g clip-path="url(#p384ead098a)">
     <use xlink:href="#m5d4c31b837" x="0" y="337.40125" style="fill: #0578ff; fill-opacity: 0.645455; stroke: #0578ff; stroke-opacity: 0.645455"/>
    </g>
   </g>
   <g id="line2d_23">
    <path d="M 14.435421 159.500083 
L 18.7838 159.500083 
L 23.13218 159.500083 
L 27.480559 159.500083 
L 31.828939 159.500083 
L 36.177318 159.500083 
L 40.525697 159.500083 
L 44.874077 159.500083 
L 49.222456 159.500083 
L 53.570836 159.500083 
L 57.919215 159.500083 
L 62.267595 159.500083 
L 66.615974 159.500083 
L 70.964354 159.500083 
L 75.312733 159.500083 
L 79.661113 159.500083 
L 84.009492 159.500083 
L 88.357871 159.500083 
L 92.706251 159.500083 
L 97.05463 159.500083 
L 101.40301 159.500083 
L 105.751389 159.500083 
" clip-path="url(#p384ead098a)" style="fill: none; stroke: #0578ff; stroke-opacity: 0.645455; stroke-width: 1.5; stroke-linecap: square"/>
   </g>
   <g id="line2d_24">
    <path d="M 14.435421 159.500083 
L 18.7838 137.071653 
L 23.13218 137.071653 
L 27.480559 103.429008 
L 31.828939 137.071653 
L 36.177318 148.285868 
L 40.525697 148.285868 
L 44.874077 148.285868 
L 49.222456 159.500083 
L 53.570836 148.285868 
L 57.919215 159.500083 
L 62.267595 159.500083 
L 66.615974 148.285868 
L 70.964354 137.071653 
L 75.312733 148.285868 
L 79.661113 159.500083 
L 84.009492 159.500083 
L 88.357871 159.500083 
L 92.706251 159.500083 
L 97.05463 159.500083 
L 101.40301 148.285868 
L 105.751389 159.500083 
" clip-path="url(#p384ead098a)" style="fill: none; stroke: #000000; stroke-opacity: 0.645455; stroke-width: 1.5; stroke-linecap: square"/>
   </g>
  </g>
  <g id="axes_11">
   <g id="FillBetweenPolyCollection_10">
    <defs>
     <path id="mde5bc5b072" d="M 19.152578 -166.222986 
L 19.152578 -166.222986 
L 24.008533 -166.222986 
L 28.864488 -166.222986 
L 33.720443 -166.222986 
L 38.576398 -166.222986 
L 43.432353 -166.222986 
L 48.288308 -166.222986 
L 53.144263 -166.222986 
L 58.000218 -166.222986 
L 62.856173 -166.222986 
L 67.712128 -166.222986 
L 72.568082 -166.222986 
L 77.424037 -166.222986 
L 82.279992 -166.222986 
L 87.135947 -166.222986 
L 91.991902 -166.222986 
L 96.847857 -166.222986 
L 101.703812 -166.222986 
L 106.559767 -166.222986 
L 111.415722 -166.222986 
L 116.271677 -166.222986 
L 121.127632 -166.222986 
L 121.127632 -166.222986 
L 121.127632 -166.222986 
L 116.271677 -175.568165 
L 111.415722 -166.222986 
L 106.559767 -166.222986 
L 101.703812 -166.222986 
L 96.847857 -166.222986 
L 91.991902 -166.222986 
L 87.135947 -175.568165 
L 82.279992 -175.568165 
L 77.424037 -184.913344 
L 72.568082 -175.568165 
L 67.712128 -166.222986 
L 62.856173 -166.222986 
L 58.000218 -166.222986 
L 53.144263 -175.568165 
L 48.288308 -166.222986 
L 43.432353 -175.568165 
L 38.576398 -166.222986 
L 33.720443 -194.258523 
L 28.864488 -222.29406 
L 24.008533 -194.258523 
L 19.152578 -166.222986 
z
" style="stroke: #0578ff; stroke-opacity: 0.672727"/>
    </defs>
    <g clip-path="url(#p8fc10b447e)">
     <use xlink:href="#mde5bc5b072" x="0" y="337.40125" style="fill: #0578ff; fill-opacity: 0.672727; stroke: #0578ff; stroke-opacity: 0.672727"/>
    </g>
   </g>
   <g id="line2d_25">
    <path d="M 19.152578 171.178264 
L 24.008533 171.178264 
L 28.864488 171.178264 
L 33.720443 171.178264 
L 38.576398 171.178264 
L 43.432353 171.178264 
L 48.288308 171.178264 
L 53.144263 171.178264 
L 58.000218 171.178264 
L 62.856173 171.178264 
L 67.712128 171.178264 
L 72.568082 171.178264 
L 77.424037 171.178264 
L 82.279992 171.178264 
L 87.135947 171.178264 
L 91.991902 171.178264 
L 96.847857 171.178264 
L 101.703812 171.178264 
L 106.559767 171.178264 
L 111.415722 171.178264 
L 116.271677 171.178264 
L 121.127632 171.178264 
" clip-path="url(#p8fc10b447e)" style="fill: none; stroke: #0578ff; stroke-opacity: 0.672727; stroke-width: 1.5; stroke-linecap: square"/>
   </g>
   <g id="line2d_26">
    <path d="M 19.152578 171.178264 
L 24.008533 143.142727 
L 28.864488 115.10719 
L 33.720443 143.142727 
L 38.576398 171.178264 
L 43.432353 161.833085 
L 48.288308 171.178264 
L 53.144263 161.833085 
L 58.000218 171.178264 
L 62.856173 171.178264 
L 67.712128 171.178264 
L 72.568082 161.833085 
L 77.424037 152.487906 
L 82.279992 161.833085 
L 87.135947 161.833085 
L 91.991902 171.178264 
L 96.847857 171.178264 
L 101.703812 171.178264 
L 106.559767 171.178264 
L 111.415722 171.178264 
L 116.271677 161.833085 
L 121.127632 171.178264 
" clip-path="url(#p8fc10b447e)" style="fill: none; stroke: #000000; stroke-opacity: 0.672727; stroke-width: 1.5; stroke-linecap: square"/>
   </g>
  </g>
  <g id="axes_12">
   <g id="FillBetweenPolyCollection_11">
    <defs>
     <path id="m05badd4357" d="M 10.687897 -154.544804 
L 10.687897 -154.544804 
L 15.102605 -154.544804 
L 19.517314 -154.544804 
L 23.932023 -154.544804 
L 28.346731 -154.544804 
L 32.76144 -154.544804 
L 37.176149 -154.544804 
L 41.590857 -154.544804 
L 46.005566 -154.544804 
L 50.420275 -154.544804 
L 54.834983 -154.544804 
L 59.249692 -154.544804 
L 63.6644 -154.544804 
L 68.079109 -154.544804 
L 72.493818 -154.544804 
L 76.908526 -154.544804 
L 81.323235 -154.544804 
L 85.737944 -154.544804 
L 90.152652 -154.544804 
L 94.567361 -154.544804 
L 98.98207 -154.544804 
L 103.396778 -154.544804 
L 103.396778 -154.544804 
L 103.396778 -154.544804 
L 98.98207 -173.235162 
L 94.567361 -154.544804 
L 90.152652 -154.544804 
L 85.737944 -154.544804 
L 81.323235 -191.92552 
L 76.908526 -173.235162 
L 72.493818 -173.235162 
L 68.079109 -173.235162 
L 63.6644 -154.544804 
L 59.249692 -154.544804 
L 54.834983 -173.235162 
L 50.420275 -154.544804 
L 46.005566 -154.544804 
L 41.590857 -191.92552 
L 37.176149 -173.235162 
L 32.76144 -191.92552 
L 28.346731 -210.615878 
L 23.932023 -210.615878 
L 19.517314 -173.235162 
L 15.102605 -173.235162 
L 10.687897 -154.544804 
z
" style="stroke: #0578ff; stroke-opacity: 0.7"/>
    </defs>
    <g clip-path="url(#p614faf628f)">
     <use xlink:href="#m05badd4357" x="0" y="337.40125" style="fill: #0578ff; fill-opacity: 0.7; stroke: #0578ff; stroke-opacity: 0.7"/>
    </g>
   </g>
   <g id="line2d_27">
    <path d="M 10.687897 182.856446 
L 15.102605 182.856446 
L 19.517314 182.856446 
L 23.932023 182.856446 
L 28.346731 182.856446 
L 32.76144 182.856446 
L 37.176149 182.856446 
L 41.590857 182.856446 
L 46.005566 182.856446 
L 50.420275 182.856446 
L 54.834983 182.856446 
L 59.249692 182.856446 
L 63.6644 182.856446 
L 68.079109 182.856446 
L 72.493818 182.856446 
L 76.908526 182.856446 
L 81.323235 182.856446 
L 85.737944 182.856446 
L 90.152652 182.856446 
L 94.567361 182.856446 
L 98.98207 182.856446 
L 103.396778 182.856446 
" clip-path="url(#p614faf628f)" style="fill: none; stroke: #0578ff; stroke-opacity: 0.7; stroke-width: 1.5; stroke-linecap: square"/>
   </g>
   <g id="line2d_28">
    <path d="M 10.687897 182.856446 
L 15.102605 164.166088 
L 19.517314 164.166088 
L 23.932023 126.785372 
L 28.346731 126.785372 
L 32.76144 145.47573 
L 37.176149 164.166088 
L 41.590857 145.47573 
L 46.005566 182.856446 
L 50.420275 182.856446 
L 54.834983 164.166088 
L 59.249692 182.856446 
L 63.6644 182.856446 
L 68.079109 164.166088 
L 72.493818 164.166088 
L 76.908526 164.166088 
L 81.323235 145.47573 
L 85.737944 182.856446 
L 90.152652 182.856446 
L 94.567361 182.856446 
L 98.98207 164.166088 
L 103.396778 182.856446 
" clip-path="url(#p614faf628f)" style="fill: none; stroke: #000000; stroke-opacity: 0.7; stroke-width: 1.5; stroke-linecap: square"/>
   </g>
  </g>
  <g id="axes_13">
   <g id="FillBetweenPolyCollection_12">
    <defs>
     <path id="m6b34277723" d="M 9.693957 -142.866622 
L 9.693957 -142.866622 
L 15.708502 -142.866622 
L 21.723046 -142.866622 
L 27.737591 -142.866622 
L 33.752135 -142.866622 
L 39.76668 -142.866622 
L 45.781225 -142.866622 
L 51.795769 -142.866622 
L 57.810314 -142.866622 
L 63.824858 -142.866622 
L 69.839403 -142.866622 
L 75.853947 -142.866622 
L 81.868492 -142.866622 
L 87.883036 -142.866622 
L 93.897581 -142.866622 
L 99.912125 -142.866622 
L 105.92667 -142.866622 
L 111.941215 -142.866622 
L 117.955759 -142.866622 
L 123.970304 -142.866622 
L 129.984848 -142.866622 
L 135.999393 -142.866622 
L 135.999393 -142.866622 
L 135.999393 -142.866622 
L 129.984848 -156.88439 
L 123.970304 -142.866622 
L 117.955759 -142.866622 
L 111.941215 -142.866622 
L 105.92667 -142.866622 
L 99.912125 -156.88439 
L 93.897581 -156.88439 
L 87.883036 -156.88439 
L 81.868492 -142.866622 
L 75.853947 -142.866622 
L 69.839403 -142.866622 
L 63.824858 -156.88439 
L 57.810314 -170.902159 
L 51.795769 -142.866622 
L 45.781225 -142.866622 
L 39.76668 -170.902159 
L 33.752135 -184.919928 
L 27.737591 -198.937696 
L 21.723046 -184.919928 
L 15.708502 -156.88439 
L 9.693957 -142.866622 
z
" style="stroke: #0578ff; stroke-opacity: 0.727273"/>
    </defs>
    <g clip-path="url(#p937f1180e2)">
     <use xlink:href="#m6b34277723" x="0" y="337.40125" style="fill: #0578ff; fill-opacity: 0.727273; stroke: #0578ff; stroke-opacity: 0.727273"/>
    </g>
   </g>
   <g id="line2d_29">
    <path d="M 9.693957 194.534628 
L 15.708502 194.534628 
L 21.723046 194.534628 
L 27.737591 194.534628 
L 33.752135 194.534628 
L 39.76668 194.534628 
L 45.781225 194.534628 
L 51.795769 194.534628 
L 57.810314 194.534628 
L 63.824858 194.534628 
L 69.839403 194.534628 
L 75.853947 194.534628 
L 81.868492 194.534628 
L 87.883036 194.534628 
L 93.897581 194.534628 
L 99.912125 194.534628 
L 105.92667 194.534628 
L 111.941215 194.534628 
L 117.955759 194.534628 
L 123.970304 194.534628 
L 129.984848 194.534628 
L 135.999393 194.534628 
" clip-path="url(#p937f1180e2)" style="fill: none; stroke: #0578ff; stroke-opacity: 0.727273; stroke-width: 1.5; stroke-linecap: square"/>
   </g>
   <g id="line2d_30">
    <path d="M 9.693957 194.534628 
L 15.708502 180.51686 
L 21.723046 152.481322 
L 27.737591 138.463554 
L 33.752135 152.481322 
L 39.76668 166.499091 
L 45.781225 194.534628 
L 51.795769 194.534628 
L 57.810314 166.499091 
L 63.824858 180.51686 
L 69.839403 194.534628 
L 75.853947 194.534628 
L 81.868492 194.534628 
L 87.883036 180.51686 
L 93.897581 180.51686 
L 99.912125 180.51686 
L 105.92667 194.534628 
L 111.941215 194.534628 
L 117.955759 194.534628 
L 123.970304 194.534628 
L 129.984848 180.51686 
L 135.999393 194.534628 
" clip-path="url(#p937f1180e2)" style="fill: none; stroke: #000000; stroke-opacity: 0.727273; stroke-width: 1.5; stroke-linecap: square"/>
   </g>
  </g>
  <g id="axes_14">
   <g id="FillBetweenPolyCollection_13">
    <defs>
     <path id="mf065e8dfaa" d="M 8.081295 -131.18844 
L 8.081295 -131.18844 
L 14.975936 -131.18844 
L 21.870578 -131.18844 
L 28.765219 -131.18844 
L 35.659861 -131.18844 
L 42.554502 -131.18844 
L 49.449143 -131.18844 
L 56.343785 -131.18844 
L 63.238426 -131.18844 
L 70.133068 -131.18844 
L 77.027709 -131.18844 
L 83.922351 -131.18844 
L 90.816992 -131.18844 
L 97.711634 -131.18844 
L 104.606275 -131.18844 
L 111.500917 -131.18844 
L 118.395558 -131.18844 
L 125.290199 -131.18844 
L 132.184841 -131.18844 
L 139.079482 -131.18844 
L 145.974124 -131.18844 
L 152.868765 -131.18844 
L 152.868765 -131.18844 
L 152.868765 -131.18844 
L 145.974124 -142.402655 
L 139.079482 -131.18844 
L 132.184841 -131.18844 
L 125.290199 -131.18844 
L 118.395558 -131.18844 
L 111.500917 -142.402655 
L 104.606275 -142.402655 
L 97.711634 -142.402655 
L 90.816992 -131.18844 
L 83.922351 -131.18844 
L 77.027709 -142.402655 
L 70.133068 -153.61687 
L 63.238426 -131.18844 
L 56.343785 -131.18844 
L 49.449143 -164.831085 
L 42.554502 -142.402655 
L 35.659861 -164.831085 
L 28.765219 -131.18844 
L 21.870578 -187.259514 
L 14.975936 -142.402655 
L 8.081295 -131.18844 
z
" style="stroke: #0578ff; stroke-opacity: 0.754545"/>
    </defs>
    <g clip-path="url(#p35aa2ffd7a)">
     <use xlink:href="#mf065e8dfaa" x="0" y="337.40125" style="fill: #0578ff; fill-opacity: 0.754545; stroke: #0578ff; stroke-opacity: 0.754545"/>
    </g>
   </g>
   <g id="line2d_31">
    <path d="M 8.081295 206.21281 
L 14.975936 206.21281 
L 21.870578 206.21281 
L 28.765219 206.21281 
L 35.659861 206.21281 
L 42.554502 206.21281 
L 49.449143 206.21281 
L 56.343785 206.21281 
L 63.238426 206.21281 
L 70.133068 206.21281 
L 77.027709 206.21281 
L 83.922351 206.21281 
L 90.816992 206.21281 
L 97.711634 206.21281 
L 104.606275 206.21281 
L 111.500917 206.21281 
L 118.395558 206.21281 
L 125.290199 206.21281 
L 132.184841 206.21281 
L 139.079482 206.21281 
L 145.974124 206.21281 
L 152.868765 206.21281 
" clip-path="url(#p35aa2ffd7a)" style="fill: none; stroke: #0578ff; stroke-opacity: 0.754545; stroke-width: 1.5; stroke-linecap: square"/>
   </g>
   <g id="line2d_32">
    <path d="M 8.081295 206.21281 
L 14.975936 194.998595 
L 21.870578 150.141736 
L 28.765219 206.21281 
L 35.659861 172.570165 
L 42.554502 194.998595 
L 49.449143 172.570165 
L 56.343785 206.21281 
L 63.238426 206.21281 
L 70.133068 183.78438 
L 77.027709 194.998595 
L 83.922351 206.21281 
L 90.816992 206.21281 
L 97.711634 194.998595 
L 104.606275 194.998595 
L 111.500917 194.998595 
L 118.395558 206.21281 
L 125.290199 206.21281 
L 132.184841 206.21281 
L 139.079482 206.21281 
L 145.974124 194.998595 
L 152.868765 206.21281 
" clip-path="url(#p35aa2ffd7a)" style="fill: none; stroke: #000000; stroke-opacity: 0.754545; stroke-width: 1.5; stroke-linecap: square"/>
   </g>
  </g>
  <g id="axes_15">
   <g id="FillBetweenPolyCollection_14">
    <defs>
     <path id="m5cbcb95b77" d="M 8.25967 -119.510258 
L 8.25967 -119.510258 
L 17.322212 -119.510258 
L 26.384755 -119.510258 
L 35.447298 -119.510258 
L 44.50984 -119.510258 
L 53.572383 -119.510258 
L 62.634926 -119.510258 
L 71.697468 -119.510258 
L 80.760011 -119.510258 
L 89.822554 -119.510258 
L 98.885096 -119.510258 
L 107.947639 -119.510258 
L 117.010181 -119.510258 
L 126.072724 -119.510258 
L 135.135267 -119.510258 
L 144.197809 -119.510258 
L 153.260352 -119.510258 
L 162.322895 -119.510258 
L 171.385437 -119.510258 
L 180.44798 -119.510258 
L 189.510523 -119.510258 
L 198.573065 -119.510258 
L 198.573065 -119.510258 
L 198.573065 -119.510258 
L 189.510523 -133.528027 
L 180.44798 -119.510258 
L 171.385437 -119.510258 
L 162.322895 -119.510258 
L 153.260352 -119.510258 
L 144.197809 -147.545795 
L 135.135267 -133.528027 
L 126.072724 -119.510258 
L 117.010181 -147.545795 
L 107.947639 -119.510258 
L 98.885096 -119.510258 
L 89.822554 -119.510258 
L 80.760011 -119.510258 
L 71.697468 -133.528027 
L 62.634926 -147.545795 
L 53.572383 -133.528027 
L 44.50984 -147.545795 
L 35.447298 -161.563564 
L 26.384755 -175.581333 
L 17.322212 -133.528027 
L 8.25967 -119.510258 
z
" style="stroke: #0578ff; stroke-opacity: 0.781818"/>
    </defs>
    <g clip-path="url(#p982f2bf398)">
     <use xlink:href="#m5cbcb95b77" x="0" y="337.40125" style="fill: #0578ff; fill-opacity: 0.781818; stroke: #0578ff; stroke-opacity: 0.781818"/>
    </g>
   </g>
   <g id="line2d_33">
    <path d="M 8.25967 217.890992 
L 17.322212 217.890992 
L 26.384755 217.890992 
L 35.447298 217.890992 
L 44.50984 217.890992 
L 53.572383 217.890992 
L 62.634926 217.890992 
L 71.697468 217.890992 
L 80.760011 217.890992 
L 89.822554 217.890992 
L 98.885096 217.890992 
L 107.947639 217.890992 
L 117.010181 217.890992 
L 126.072724 217.890992 
L 135.135267 217.890992 
L 144.197809 217.890992 
L 153.260352 217.890992 
L 162.322895 217.890992 
L 171.385437 217.890992 
L 180.44798 217.890992 
L 189.510523 217.890992 
L 198.573065 217.890992 
" clip-path="url(#p982f2bf398)" style="fill: none; stroke: #0578ff; stroke-opacity: 0.781818; stroke-width: 1.5; stroke-linecap: square"/>
   </g>
   <g id="line2d_34">
    <path d="M 8.25967 217.890992 
L 17.322212 203.873223 
L 26.384755 161.819917 
L 35.447298 175.837686 
L 44.50984 189.855455 
L 53.572383 203.873223 
L 62.634926 189.855455 
L 71.697468 203.873223 
L 80.760011 217.890992 
L 89.822554 217.890992 
L 98.885096 217.890992 
L 107.947639 217.890992 
L 117.010181 189.855455 
L 126.072724 217.890992 
L 135.135267 203.873223 
L 144.197809 189.855455 
L 153.260352 217.890992 
L 162.322895 217.890992 
L 171.385437 217.890992 
L 180.44798 217.890992 
L 189.510523 203.873223 
L 198.573065 217.890992 
" clip-path="url(#p982f2bf398)" style="fill: none; stroke: #000000; stroke-opacity: 0.781818; stroke-width: 1.5; stroke-linecap: square"/>
   </g>
  </g>
  <g id="axes_16">
   <g id="FillBetweenPolyCollection_15">
    <defs>
     <path id="m630a9cd4cd" d="M 5.867777 -107.832076 
L 5.867777 -107.832076 
L 18.093308 -107.832076 
L 30.318839 -107.832076 
L 42.54437 -107.832076 
L 54.769902 -107.832076 
L 66.995433 -107.832076 
L 79.220964 -107.832076 
L 91.446496 -107.832076 
L 103.672027 -107.832076 
L 115.897558 -107.832076 
L 128.123089 -107.832076 
L 140.348621 -107.832076 
L 152.574152 -107.832076 
L 164.799683 -107.832076 
L 177.025214 -107.832076 
L 189.250746 -107.832076 
L 201.476277 -107.832076 
L 213.701808 -107.832076 
L 225.92734 -107.832076 
L 238.152871 -107.832076 
L 250.378402 -107.832076 
L 262.603933 -107.832076 
L 262.603933 -107.832076 
L 262.603933 -107.832076 
L 250.378402 -126.522435 
L 238.152871 -107.832076 
L 225.92734 -107.832076 
L 213.701808 -107.832076 
L 201.476277 -107.832076 
L 189.250746 -126.522435 
L 177.025214 -126.522435 
L 164.799683 -126.522435 
L 152.574152 -107.832076 
L 140.348621 -107.832076 
L 128.123089 -126.522435 
L 115.897558 -107.832076 
L 103.672027 -126.522435 
L 91.446496 -145.212793 
L 79.220964 -126.522435 
L 66.995433 -163.903151 
L 54.769902 -145.212793 
L 42.54437 -126.522435 
L 30.318839 -163.903151 
L 18.093308 -145.212793 
L 5.867777 -107.832076 
z
" style="stroke: #0578ff; stroke-opacity: 0.809091"/>
    </defs>
    <g clip-path="url(#p432317e5f3)">
     <use xlink:href="#m630a9cd4cd" x="0" y="337.40125" style="fill: #0578ff; fill-opacity: 0.809091; stroke: #0578ff; stroke-opacity: 0.809091"/>
    </g>
   </g>
   <g id="line2d_35">
    <path d="M 5.867777 229.569174 
L 18.093308 229.569174 
L 30.318839 229.569174 
L 42.54437 229.569174 
L 54.769902 229.569174 
L 66.995433 229.569174 
L 79.220964 229.569174 
L 91.446496 229.569174 
L 103.672027 229.569174 
L 115.897558 229.569174 
L 128.123089 229.569174 
L 140.348621 229.569174 
L 152.574152 229.569174 
L 164.799683 229.569174 
L 177.025214 229.569174 
L 189.250746 229.569174 
L 201.476277 229.569174 
L 213.701808 229.569174 
L 225.92734 229.569174 
L 238.152871 229.569174 
L 250.378402 229.569174 
L 262.603933 229.569174 
" clip-path="url(#p432317e5f3)" style="fill: none; stroke: #0578ff; stroke-opacity: 0.809091; stroke-width: 1.5; stroke-linecap: square"/>
   </g>
   <g id="line2d_36">
    <path d="M 5.867777 229.569174 
L 18.093308 192.188457 
L 30.318839 173.498099 
L 42.54437 210.878815 
L 54.769902 192.188457 
L 66.995433 173.498099 
L 79.220964 210.878815 
L 91.446496 192.188457 
L 103.672027 210.878815 
L 115.897558 229.569174 
L 128.123089 210.878815 
L 140.348621 229.569174 
L 152.574152 229.569174 
L 164.799683 210.878815 
L 177.025214 210.878815 
L 189.250746 210.878815 
L 201.476277 229.569174 
L 213.701808 229.569174 
L 225.92734 229.569174 
L 238.152871 229.569174 
L 250.378402 210.878815 
L 262.603933 229.569174 
" clip-path="url(#p432317e5f3)" style="fill: none; stroke: #000000; stroke-opacity: 0.809091; stroke-width: 1.5; stroke-linecap: square"/>
   </g>
  </g>
  <g id="axes_17">
   <g id="FillBetweenPolyCollection_16">
    <defs>
     <path id="m5b9c1fc6ec" d="M 9.39575 -96.153895 
L 9.39575 -96.153895 
L 18.522376 -96.153895 
L 27.649002 -96.153895 
L 36.775628 -96.153895 
L 45.902254 -96.153895 
L 55.02888 -96.153895 
L 64.155506 -96.153895 
L 73.282132 -96.153895 
L 82.408758 -96.153895 
L 91.535384 -96.153895 
L 100.66201 -96.153895 
L 109.788635 -96.153895 
L 118.915261 -96.153895 
L 128.041887 -96.153895 
L 137.168513 -96.153895 
L 146.295139 -96.153895 
L 155.421765 -96.153895 
L 164.548391 -96.153895 
L 173.675017 -96.153895 
L 182.801643 -96.153895 
L 191.928269 -96.153895 
L 201.054895 -96.153895 
L 201.054895 -96.153895 
L 201.054895 -96.153895 
L 191.928269 -110.171663 
L 182.801643 -96.153895 
L 173.675017 -110.171663 
L 164.548391 -96.153895 
L 155.421765 -110.171663 
L 146.295139 -96.153895 
L 137.168513 -96.153895 
L 128.041887 -96.153895 
L 118.915261 -124.189432 
L 109.788635 -96.153895 
L 100.66201 -96.153895 
L 91.535384 -138.2072 
L 82.408758 -96.153895 
L 73.282132 -96.153895 
L 64.155506 -96.153895 
L 55.02888 -138.2072 
L 45.902254 -152.224969 
L 36.775628 -124.189432 
L 27.649002 -124.189432 
L 18.522376 -110.171663 
L 9.39575 -96.153895 
z
" style="stroke: #0578ff; stroke-opacity: 0.836364"/>
    </defs>
    <g clip-path="url(#pe3b705a39c)">
     <use xlink:href="#m5b9c1fc6ec" x="0" y="337.40125" style="fill: #0578ff; fill-opacity: 0.836364; stroke: #0578ff; stroke-opacity: 0.836364"/>
    </g>
   </g>
   <g id="line2d_37">
    <path d="M 9.39575 241.247355 
L 18.522376 241.247355 
L 27.649002 241.247355 
L 36.775628 241.247355 
L 45.902254 241.247355 
L 55.02888 241.247355 
L 64.155506 241.247355 
L 73.282132 241.247355 
L 82.408758 241.247355 
L 91.535384 241.247355 
L 100.66201 241.247355 
L 109.788635 241.247355 
L 118.915261 241.247355 
L 128.041887 241.247355 
L 137.168513 241.247355 
L 146.295139 241.247355 
L 155.421765 241.247355 
L 164.548391 241.247355 
L 173.675017 241.247355 
L 182.801643 241.247355 
L 191.928269 241.247355 
L 201.054895 241.247355 
" clip-path="url(#pe3b705a39c)" style="fill: none; stroke: #0578ff; stroke-opacity: 0.836364; stroke-width: 1.5; stroke-linecap: square"/>
   </g>
   <g id="line2d_38">
    <path d="M 9.39575 241.247355 
L 18.522376 227.229587 
L 27.649002 213.211818 
L 36.775628 213.211818 
L 45.902254 185.176281 
L 55.02888 199.19405 
L 64.155506 241.247355 
L 73.282132 241.247355 
L 82.408758 241.247355 
L 91.535384 199.19405 
L 100.66201 241.247355 
L 109.788635 241.247355 
L 118.915261 213.211818 
L 128.041887 241.247355 
L 137.168513 241.247355 
L 146.295139 241.247355 
L 155.421765 227.229587 
L 164.548391 241.247355 
L 173.675017 227.229587 
L 182.801643 241.247355 
L 191.928269 227.229587 
L 201.054895 241.247355 
" clip-path="url(#pe3b705a39c)" style="fill: none; stroke: #000000; stroke-opacity: 0.836364; stroke-width: 1.5; stroke-linecap: square"/>
   </g>
  </g>
  <g id="axes_18">
   <g id="FillBetweenPolyCollection_17">
    <defs>
     <path id="mafbcdd84fb" d="M 8.707604 -84.475713 
L 8.707604 -84.475713 
L 17.897415 -84.475713 
L 27.087226 -84.475713 
L 36.277036 -84.475713 
L 45.466847 -84.475713 
L 54.656658 -84.475713 
L 63.846469 -84.475713 
L 73.03628 -84.475713 
L 82.22609 -84.475713 
L 91.415901 -84.475713 
L 100.605712 -84.475713 
L 109.795523 -84.475713 
L 118.985334 -84.475713 
L 128.175145 -84.475713 
L 137.364955 -84.475713 
L 146.554766 -84.475713 
L 155.744577 -84.475713 
L 164.934388 -84.475713 
L 174.124199 -84.475713 
L 183.314009 -84.475713 
L 192.50382 -84.475713 
L 201.693631 -84.475713 
L 201.693631 -84.475713 
L 201.693631 -84.475713 
L 192.50382 -98.493481 
L 183.314009 -98.493481 
L 174.124199 -84.475713 
L 164.934388 -84.475713 
L 155.744577 -112.51125 
L 146.554766 -84.475713 
L 137.364955 -84.475713 
L 128.175145 -98.493481 
L 118.985334 -98.493481 
L 109.795523 -84.475713 
L 100.605712 -98.493481 
L 91.415901 -84.475713 
L 82.22609 -98.493481 
L 73.03628 -98.493481 
L 63.846469 -84.475713 
L 54.656658 -140.546787 
L 45.466847 -126.529019 
L 36.277036 -98.493481 
L 27.087226 -98.493481 
L 17.897415 -112.51125 
L 8.707604 -84.475713 
z
" style="stroke: #0578ff; stroke-opacity: 0.863636"/>
    </defs>
    <g clip-path="url(#pbf59214bc5)">
     <use xlink:href="#mafbcdd84fb" x="0" y="337.40125" style="fill: #0578ff; fill-opacity: 0.863636; stroke: #0578ff; stroke-opacity: 0.863636"/>
    </g>
   </g>
   <g id="line2d_39">
    <path d="M 8.707604 252.925537 
L 17.897415 252.925537 
L 27.087226 252.925537 
L 36.277036 252.925537 
L 45.466847 252.925537 
L 54.656658 252.925537 
L 63.846469 252.925537 
L 73.03628 252.925537 
L 82.22609 252.925537 
L 91.415901 252.925537 
L 100.605712 252.925537 
L 109.795523 252.925537 
L 118.985334 252.925537 
L 128.175145 252.925537 
L 137.364955 252.925537 
L 146.554766 252.925537 
L 155.744577 252.925537 
L 164.934388 252.925537 
L 174.124199 252.925537 
L 183.314009 252.925537 
L 192.50382 252.925537 
L 201.693631 252.925537 
" clip-path="url(#pbf59214bc5)" style="fill: none; stroke: #0578ff; stroke-opacity: 0.863636; stroke-width: 1.5; stroke-linecap: square"/>
   </g>
   <g id="line2d_40">
    <path d="M 8.707604 252.925537 
L 17.897415 224.89 
L 27.087226 238.907769 
L 36.277036 238.907769 
L 45.466847 210.872231 
L 54.656658 196.854463 
L 63.846469 252.925537 
L 73.03628 238.907769 
L 82.22609 238.907769 
L 91.415901 252.925537 
L 100.605712 238.907769 
L 109.795523 252.925537 
L 118.985334 238.907769 
L 128.175145 238.907769 
L 137.364955 252.925537 
L 146.554766 252.925537 
L 155.744577 224.89 
L 164.934388 252.925537 
L 174.124199 252.925537 
L 183.314009 238.907769 
L 192.50382 238.907769 
L 201.693631 252.925537 
" clip-path="url(#pbf59214bc5)" style="fill: none; stroke: #000000; stroke-opacity: 0.863636; stroke-width: 1.5; stroke-linecap: square"/>
   </g>
  </g>
  <g id="axes_19">
   <g id="FillBetweenPolyCollection_18">
    <defs>
     <path id="m0f185b8cee" d="M 15.150718 -72.797531 
L 15.150718 -72.797531 
L 23.714219 -72.797531 
L 32.277721 -72.797531 
L 40.841223 -72.797531 
L 49.404724 -72.797531 
L 57.968226 -72.797531 
L 66.531728 -72.797531 
L 75.095229 -72.797531 
L 83.658731 -72.797531 
L 92.222233 -72.797531 
L 100.785734 -72.797531 
L 109.349236 -72.797531 
L 117.912737 -72.797531 
L 126.476239 -72.797531 
L 135.039741 -72.797531 
L 143.603242 -72.797531 
L 152.166744 -72.797531 
L 160.730246 -72.797531 
L 169.293747 -72.797531 
L 177.857249 -72.797531 
L 186.420751 -72.797531 
L 194.984252 -72.797531 
L 194.984252 -72.797531 
L 194.984252 -72.797531 
L 186.420751 -86.8153 
L 177.857249 -72.797531 
L 169.293747 -72.797531 
L 160.730246 -100.833068 
L 152.166744 -72.797531 
L 143.603242 -72.797531 
L 135.039741 -86.8153 
L 126.476239 -72.797531 
L 117.912737 -86.8153 
L 109.349236 -86.8153 
L 100.785734 -86.8153 
L 92.222233 -72.797531 
L 83.658731 -86.8153 
L 75.095229 -86.8153 
L 66.531728 -86.8153 
L 57.968226 -86.8153 
L 49.404724 -100.833068 
L 40.841223 -128.868605 
L 32.277721 -100.833068 
L 23.714219 -86.8153 
L 15.150718 -72.797531 
z
" style="stroke: #0578ff; stroke-opacity: 0.890909"/>
    </defs>
    <g clip-path="url(#p2741045e47)">
     <use xlink:href="#m0f185b8cee" x="0" y="337.40125" style="fill: #0578ff; fill-opacity: 0.890909; stroke: #0578ff; stroke-opacity: 0.890909"/>
    </g>
   </g>
   <g id="line2d_41">
    <path d="M 15.150718 264.603719 
L 23.714219 264.603719 
L 32.277721 264.603719 
L 40.841223 264.603719 
L 49.404724 264.603719 
L 57.968226 264.603719 
L 66.531728 264.603719 
L 75.095229 264.603719 
L 83.658731 264.603719 
L 92.222233 264.603719 
L 100.785734 264.603719 
L 109.349236 264.603719 
L 117.912737 264.603719 
L 126.476239 264.603719 
L 135.039741 264.603719 
L 143.603242 264.603719 
L 152.166744 264.603719 
L 160.730246 264.603719 
L 169.293747 264.603719 
L 177.857249 264.603719 
L 186.420751 264.603719 
L 194.984252 264.603719 
" clip-path="url(#p2741045e47)" style="fill: none; stroke: #0578ff; stroke-opacity: 0.890909; stroke-width: 1.5; stroke-linecap: square"/>
   </g>
   <g id="line2d_42">
    <path d="M 15.150718 264.603719 
L 23.714219 250.58595 
L 32.277721 236.568182 
L 40.841223 208.532645 
L 49.404724 236.568182 
L 57.968226 250.58595 
L 66.531728 250.58595 
L 75.095229 250.58595 
L 83.658731 250.58595 
L 92.222233 264.603719 
L 100.785734 250.58595 
L 109.349236 250.58595 
L 117.912737 250.58595 
L 126.476239 264.603719 
L 135.039741 250.58595 
L 143.603242 264.603719 
L 152.166744 264.603719 
L 160.730246 236.568182 
L 169.293747 264.603719 
L 177.857249 264.603719 
L 186.420751 250.58595 
L 194.984252 264.603719 
" clip-path="url(#p2741045e47)" style="fill: none; stroke: #000000; stroke-opacity: 0.890909; stroke-width: 1.5; stroke-linecap: square"/>
   </g>
  </g>
  <g id="axes_20">
   <g id="FillBetweenPolyCollection_19">
    <defs>
     <path id="m994f8ee59c" d="M 18.570888 -61.119349 
L 18.570888 -61.119349 
L 27.122112 -61.119349 
L 35.673336 -61.119349 
L 44.22456 -61.119349 
L 52.775784 -61.119349 
L 61.327008 -61.119349 
L 69.878232 -61.119349 
L 78.429456 -61.119349 
L 86.98068 -61.119349 
L 95.531904 -61.119349 
L 104.083128 -61.119349 
L 112.634352 -61.119349 
L 121.185576 -61.119349 
L 129.7368 -61.119349 
L 138.288024 -61.119349 
L 146.839248 -61.119349 
L 155.390472 -61.119349 
L 163.941696 -61.119349 
L 172.49292 -61.119349 
L 181.044144 -61.119349 
L 189.595368 -61.119349 
L 198.146592 -61.119349 
L 198.146592 -61.119349 
L 198.146592 -61.119349 
L 189.595368 -79.809707 
L 181.044144 -61.119349 
L 172.49292 -61.119349 
L 163.941696 -79.809707 
L 155.390472 -79.809707 
L 146.839248 -61.119349 
L 138.288024 -79.809707 
L 129.7368 -61.119349 
L 121.185576 -61.119349 
L 112.634352 -61.119349 
L 104.083128 -98.500065 
L 95.531904 -61.119349 
L 86.98068 -61.119349 
L 78.429456 -98.500065 
L 69.878232 -79.809707 
L 61.327008 -98.500065 
L 52.775784 -79.809707 
L 44.22456 -117.190424 
L 35.673336 -117.190424 
L 27.122112 -98.500065 
L 18.570888 -61.119349 
z
" style="stroke: #0578ff; stroke-opacity: 0.918182"/>
    </defs>
    <g clip-path="url(#pae859032f0)">
     <use xlink:href="#m994f8ee59c" x="0" y="337.40125" style="fill: #0578ff; fill-opacity: 0.918182; stroke: #0578ff; stroke-opacity: 0.918182"/>
    </g>
   </g>
   <g id="line2d_43">
    <path d="M 18.570888 276.281901 
L 27.122112 276.281901 
L 35.673336 276.281901 
L 44.22456 276.281901 
L 52.775784 276.281901 
L 61.327008 276.281901 
L 69.878232 276.281901 
L 78.429456 276.281901 
L 86.98068 276.281901 
L 95.531904 276.281901 
L 104.083128 276.281901 
L 112.634352 276.281901 
L 121.185576 276.281901 
L 129.7368 276.281901 
L 138.288024 276.281901 
L 146.839248 276.281901 
L 155.390472 276.281901 
L 163.941696 276.281901 
L 172.49292 276.281901 
L 181.044144 276.281901 
L 189.595368 276.281901 
L 198.146592 276.281901 
" clip-path="url(#pae859032f0)" style="fill: none; stroke: #0578ff; stroke-opacity: 0.918182; stroke-width: 1.5; stroke-linecap: square"/>
   </g>
   <g id="line2d_44">
    <path d="M 18.570888 276.281901 
L 27.122112 238.901185 
L 35.673336 220.210826 
L 44.22456 220.210826 
L 52.775784 257.591543 
L 61.327008 238.901185 
L 69.878232 257.591543 
L 78.429456 238.901185 
L 86.98068 276.281901 
L 95.531904 276.281901 
L 104.083128 238.901185 
L 112.634352 276.281901 
L 121.185576 276.281901 
L 129.7368 276.281901 
L 138.288024 257.591543 
L 146.839248 276.281901 
L 155.390472 257.591543 
L 163.941696 257.591543 
L 172.49292 276.281901 
L 181.044144 276.281901 
L 189.595368 257.591543 
L 198.146592 276.281901 
" clip-path="url(#pae859032f0)" style="fill: none; stroke: #000000; stroke-opacity: 0.918182; stroke-width: 1.5; stroke-linecap: square"/>
   </g>
  </g>
  <g id="axes_21">
   <g id="FillBetweenPolyCollection_20">
    <defs>
     <path id="m9ab296ea60" d="M 21.285194 -49.441167 
L 21.285194 -49.441167 
L 29.70915 -49.441167 
L 38.133106 -49.441167 
L 46.557061 -49.441167 
L 54.981017 -49.441167 
L 63.404973 -49.441167 
L 71.828929 -49.441167 
L 80.252885 -49.441167 
L 88.67684 -49.441167 
L 97.100796 -49.441167 
L 105.524752 -49.441167 
L 113.948708 -49.441167 
L 122.372664 -49.441167 
L 130.79662 -49.441167 
L 139.220575 -49.441167 
L 147.644531 -49.441167 
L 156.068487 -49.441167 
L 164.492443 -49.441167 
L 172.916399 -49.441167 
L 181.340354 -49.441167 
L 189.76431 -49.441167 
L 198.188266 -49.441167 
L 198.188266 -49.441167 
L 198.188266 -49.441167 
L 189.76431 -68.131525 
L 181.340354 -49.441167 
L 172.916399 -49.441167 
L 164.492443 -68.131525 
L 156.068487 -49.441167 
L 147.644531 -86.821884 
L 139.220575 -49.441167 
L 130.79662 -68.131525 
L 122.372664 -49.441167 
L 113.948708 -49.441167 
L 105.524752 -68.131525 
L 97.100796 -68.131525 
L 88.67684 -68.131525 
L 80.252885 -49.441167 
L 71.828929 -86.821884 
L 63.404973 -68.131525 
L 54.981017 -68.131525 
L 46.557061 -105.512242 
L 38.133106 -105.512242 
L 29.70915 -86.821884 
L 21.285194 -49.441167 
z
" style="stroke: #0578ff; stroke-opacity: 0.945455"/>
    </defs>
    <g clip-path="url(#pbe75705710)">
     <use xlink:href="#m9ab296ea60" x="0" y="337.40125" style="fill: #0578ff; fill-opacity: 0.945455; stroke: #0578ff; stroke-opacity: 0.945455"/>
    </g>
   </g>
   <g id="line2d_45">
    <path d="M 21.285194 287.960083 
L 29.70915 287.960083 
L 38.133106 287.960083 
L 46.557061 287.960083 
L 54.981017 287.960083 
L 63.404973 287.960083 
L 71.828929 287.960083 
L 80.252885 287.960083 
L 88.67684 287.960083 
L 97.100796 287.960083 
L 105.524752 287.960083 
L 113.948708 287.960083 
L 122.372664 287.960083 
L 130.79662 287.960083 
L 139.220575 287.960083 
L 147.644531 287.960083 
L 156.068487 287.960083 
L 164.492443 287.960083 
L 172.916399 287.960083 
L 181.340354 287.960083 
L 189.76431 287.960083 
L 198.188266 287.960083 
" clip-path="url(#pbe75705710)" style="fill: none; stroke: #0578ff; stroke-opacity: 0.945455; stroke-width: 1.5; stroke-linecap: square"/>
   </g>
   <g id="line2d_46">
    <path d="M 21.285194 287.960083 
L 29.70915 250.579366 
L 38.133106 231.889008 
L 46.557061 231.889008 
L 54.981017 269.269725 
L 63.404973 269.269725 
L 71.828929 250.579366 
L 80.252885 287.960083 
L 88.67684 269.269725 
L 97.100796 269.269725 
L 105.524752 269.269725 
L 113.948708 287.960083 
L 122.372664 287.960083 
L 130.79662 269.269725 
L 139.220575 287.960083 
L 147.644531 250.579366 
L 156.068487 287.960083 
L 164.492443 269.269725 
L 172.916399 287.960083 
L 181.340354 287.960083 
L 189.76431 269.269725 
L 198.188266 287.960083 
" clip-path="url(#pbe75705710)" style="fill: none; stroke: #000000; stroke-opacity: 0.945455; stroke-width: 1.5; stroke-linecap: square"/>
   </g>
  </g>
  <g id="axes_22">
   <g id="FillBetweenPolyCollection_21">
    <defs>
     <path id="m54acfa05ce" d="M 19.960607 -37.762986 
L 19.960607 -37.762986 
L 29.666228 -37.762986 
L 39.371849 -37.762986 
L 49.07747 -37.762986 
L 58.783092 -37.762986 
L 68.488713 -37.762986 
L 78.194334 -37.762986 
L 87.899956 -37.762986 
L 97.605577 -37.762986 
L 107.311198 -37.762986 
L 117.016819 -37.762986 
L 126.722441 -37.762986 
L 136.428062 -37.762986 
L 146.133683 -37.762986 
L 155.839304 -37.762986 
L 165.544926 -37.762986 
L 175.250547 -37.762986 
L 184.956168 -37.762986 
L 194.66179 -37.762986 
L 204.367411 -37.762986 
L 214.073032 -37.762986 
L 223.778653 -37.762986 
L 223.778653 -37.762986 
L 223.778653 -37.762986 
L 214.073032 -51.780754 
L 204.367411 -37.762986 
L 194.66179 -37.762986 
L 184.956168 -37.762986 
L 175.250547 -51.780754 
L 165.544926 -51.780754 
L 155.839304 -37.762986 
L 146.133683 -65.798523 
L 136.428062 -37.762986 
L 126.722441 -37.762986 
L 117.016819 -51.780754 
L 107.311198 -51.780754 
L 97.605577 -51.780754 
L 87.899956 -51.780754 
L 78.194334 -37.762986 
L 68.488713 -51.780754 
L 58.783092 -93.83406 
L 49.07747 -37.762986 
L 39.371849 -79.816291 
L 29.666228 -79.816291 
L 19.960607 -37.762986 
z
" style="stroke: #0578ff; stroke-opacity: 0.972727"/>
    </defs>
    <g clip-path="url(#p61c5addfdc)">
     <use xlink:href="#m54acfa05ce" x="0" y="337.40125" style="fill: #0578ff; fill-opacity: 0.972727; stroke: #0578ff; stroke-opacity: 0.972727"/>
    </g>
   </g>
   <g id="line2d_47">
    <path d="M 19.960607 299.638264 
L 29.666228 299.638264 
L 39.371849 299.638264 
L 49.07747 299.638264 
L 58.783092 299.638264 
L 68.488713 299.638264 
L 78.194334 299.638264 
L 87.899956 299.638264 
L 97.605577 299.638264 
L 107.311198 299.638264 
L 117.016819 299.638264 
L 126.722441 299.638264 
L 136.428062 299.638264 
L 146.133683 299.638264 
L 155.839304 299.638264 
L 165.544926 299.638264 
L 175.250547 299.638264 
L 184.956168 299.638264 
L 194.66179 299.638264 
L 204.367411 299.638264 
L 214.073032 299.638264 
L 223.778653 299.638264 
" clip-path="url(#p61c5addfdc)" style="fill: none; stroke: #0578ff; stroke-opacity: 0.972727; stroke-width: 1.5; stroke-linecap: square"/>
   </g>
   <g id="line2d_48">
    <path d="M 19.960607 299.638264 
L 29.666228 257.584959 
L 39.371849 257.584959 
L 49.07747 299.638264 
L 58.783092 243.56719 
L 68.488713 285.620496 
L 78.194334 299.638264 
L 87.899956 285.620496 
L 97.605577 285.620496 
L 107.311198 285.620496 
L 117.016819 285.620496 
L 126.722441 299.638264 
L 136.428062 299.638264 
L 146.133683 271.602727 
L 155.839304 299.638264 
L 165.544926 285.620496 
L 175.250547 285.620496 
L 184.956168 299.638264 
L 194.66179 299.638264 
L 204.367411 299.638264 
L 214.073032 285.620496 
L 223.778653 299.638264 
" clip-path="url(#p61c5addfdc)" style="fill: none; stroke: #000000; stroke-opacity: 0.972727; stroke-width: 1.5; stroke-linecap: square"/>
   </g>
  </g>
  <g id="axes_23">
   <g id="FillBetweenPolyCollection_22">
    <defs>
     <path id="mdd6188fecd" d="M 15.545898 -26.084804 
L 15.545898 -26.084804 
L 24.805332 -26.084804 
L 34.064766 -26.084804 
L 43.3242 -26.084804 
L 52.583634 -26.084804 
L 61.843068 -26.084804 
L 71.102502 -26.084804 
L 80.361936 -26.084804 
L 89.62137 -26.084804 
L 98.880804 -26.084804 
L 108.140238 -26.084804 
L 117.399672 -26.084804 
L 126.659106 -26.084804 
L 135.91854 -26.084804 
L 145.177974 -26.084804 
L 154.437408 -26.084804 
L 163.696842 -26.084804 
L 172.956276 -26.084804 
L 182.21571 -26.084804 
L 191.475144 -26.084804 
L 200.734578 -26.084804 
L 209.994012 -26.084804 
L 209.994012 -26.084804 
L 209.994012 -26.084804 
L 200.734578 -40.102572 
L 191.475144 -26.084804 
L 182.21571 -26.084804 
L 172.956276 -40.102572 
L 163.696842 -26.084804 
L 154.437408 -26.084804 
L 145.177974 -40.102572 
L 135.91854 -54.120341 
L 126.659106 -26.084804 
L 117.399672 -40.102572 
L 108.140238 -26.084804 
L 98.880804 -26.084804 
L 89.62137 -54.120341 
L 80.361936 -54.120341 
L 71.102502 -26.084804 
L 61.843068 -26.084804 
L 52.583634 -82.155878 
L 43.3242 -40.102572 
L 34.064766 -68.13811 
L 24.805332 -54.120341 
L 15.545898 -26.084804 
z
" style="stroke: #0578ff"/>
    </defs>
    <g clip-path="url(#p5600b0d5ff)">
     <use xlink:href="#mdd6188fecd" x="0" y="337.40125" style="fill: #0578ff; stroke: #0578ff"/>
    </g>
   </g>
   <g id="line2d_49">
    <path d="M 15.545898 311.316446 
L 24.805332 311.316446 
L 34.064766 311.316446 
L 43.3242 311.316446 
L 52.583634 311.316446 
L 61.843068 311.316446 
L 71.102502 311.316446 
L 80.361936 311.316446 
L 89.62137 311.316446 
L 98.880804 311.316446 
L 108.140238 311.316446 
L 117.399672 311.316446 
L 126.659106 311.316446 
L 135.91854 311.316446 
L 145.177974 311.316446 
L 154.437408 311.316446 
L 163.696842 311.316446 
L 172.956276 311.316446 
L 182.21571 311.316446 
L 191.475144 311.316446 
L 200.734578 311.316446 
L 209.994012 311.316446 
" clip-path="url(#p5600b0d5ff)" style="fill: none; stroke: #0578ff; stroke-width: 1.5; stroke-linecap: square"/>
   </g>
   <g id="line2d_50">
    <path d="M 15.545898 311.316446 
L 24.805332 283.280909 
L 34.064766 269.26314 
L 43.3242 297.298678 
L 52.583634 255.245372 
L 61.843068 311.316446 
L 71.102502 311.316446 
L 80.361936 283.280909 
L 89.62137 283.280909 
L 98.880804 311.316446 
L 108.140238 311.316446 
L 117.399672 297.298678 
L 126.659106 311.316446 
L 135.91854 283.280909 
L 145.177974 297.298678 
L 154.437408 311.316446 
L 163.696842 311.316446 
L 172.956276 297.298678 
L 182.21571 311.316446 
L 191.475144 311.316446 
L 200.734578 297.298678 
L 209.994012 311.316446 
" clip-path="url(#p5600b0d5ff)" style="fill: none; stroke: #000000; stroke-width: 1.5; stroke-linecap: square"/>
   </g>
  </g>
  <g id="text_7">
   <!-- Serie A -->
   <g style="fill: #0578ff" transform="translate(226.8 100.08) scale(0.18 -0.18)">
    <defs>
     <path id="Lato-Regular-53" d="M 2906 3869 
Q 2877 3821 2845 3797 
Q 2813 3773 2762 3773 
Q 2707 3773 2635 3827 
Q 2563 3882 2452 3947 
Q 2342 4013 2187 4067 
Q 2032 4122 1811 4122 
Q 1603 4122 1443 4066 
Q 1283 4010 1176 3914 
Q 1069 3818 1014 3688 
Q 960 3558 960 3408 
Q 960 3216 1054 3089 
Q 1149 2963 1304 2873 
Q 1459 2784 1656 2718 
Q 1853 2653 2059 2582 
Q 2266 2512 2462 2424 
Q 2659 2336 2814 2201 
Q 2970 2067 3064 1872 
Q 3158 1677 3158 1392 
Q 3158 1091 3056 827 
Q 2954 563 2757 368 
Q 2560 173 2273 61 
Q 1987 -51 1622 -51 
Q 1178 -51 811 110 
Q 445 272 186 547 
L 365 842 
Q 390 877 427 901 
Q 464 925 509 925 
Q 576 925 662 853 
Q 749 781 878 694 
Q 1008 608 1192 536 
Q 1376 464 1642 464 
Q 1862 464 2035 525 
Q 2208 586 2328 696 
Q 2448 806 2512 960 
Q 2576 1114 2576 1302 
Q 2576 1510 2481 1643 
Q 2387 1776 2233 1865 
Q 2080 1955 1883 2017 
Q 1686 2080 1480 2145 
Q 1274 2211 1077 2297 
Q 880 2384 726 2521 
Q 573 2659 478 2865 
Q 384 3072 384 3376 
Q 384 3619 478 3846 
Q 573 4074 752 4250 
Q 931 4426 1195 4531 
Q 1459 4637 1802 4637 
Q 2186 4637 2502 4515 
Q 2819 4394 3056 4163 
L 2906 3869 
z
" transform="scale(0.015625)"/>
     <path id="Lato-Regular-65" d="M 1750 3293 
Q 2042 3293 2288 3195 
Q 2534 3098 2713 2914 
Q 2893 2730 2993 2459 
Q 3094 2189 3094 1843 
Q 3094 1709 3065 1664 
Q 3037 1619 2957 1619 
L 800 1619 
Q 806 1312 883 1085 
Q 960 858 1094 706 
Q 1229 554 1414 478 
Q 1600 403 1830 403 
Q 2045 403 2200 452 
Q 2355 502 2467 560 
Q 2579 618 2654 667 
Q 2730 717 2784 717 
Q 2854 717 2893 662 
L 3053 454 
Q 2947 326 2800 232 
Q 2653 138 2485 77 
Q 2317 16 2137 -14 
Q 1958 -45 1782 -45 
Q 1446 -45 1163 68 
Q 880 182 673 401 
Q 467 621 352 944 
Q 237 1267 237 1686 
Q 237 2026 341 2320 
Q 445 2614 640 2830 
Q 835 3046 1116 3169 
Q 1398 3293 1750 3293 
z
M 1763 2874 
Q 1350 2874 1113 2635 
Q 877 2397 819 1974 
L 2582 1974 
Q 2582 2173 2528 2337 
Q 2474 2502 2368 2622 
Q 2262 2742 2110 2808 
Q 1958 2874 1763 2874 
z
" transform="scale(0.015625)"/>
     <path id="Lato-Regular-72" d="M 467 0 
L 467 3242 
L 794 3242 
Q 886 3242 921 3206 
Q 957 3171 970 3085 
L 1008 2579 
Q 1174 2918 1419 3108 
Q 1664 3299 1994 3299 
Q 2128 3299 2237 3268 
Q 2346 3238 2438 3184 
L 2365 2758 
Q 2342 2678 2266 2678 
Q 2221 2678 2128 2708 
Q 2035 2739 1869 2739 
Q 1571 2739 1371 2566 
Q 1171 2394 1037 2064 
L 1037 0 
L 467 0 
z
" transform="scale(0.015625)"/>
     <path id="Lato-Regular-69" d="M 1101 3242 
L 1101 0 
L 531 0 
L 531 3242 
L 1101 3242 
z
M 1229 4259 
Q 1229 4176 1195 4104 
Q 1162 4032 1106 3976 
Q 1050 3920 976 3888 
Q 902 3856 819 3856 
Q 736 3856 664 3888 
Q 592 3920 536 3976 
Q 480 4032 448 4104 
Q 416 4176 416 4259 
Q 416 4342 448 4417 
Q 480 4493 536 4549 
Q 592 4605 664 4637 
Q 736 4669 819 4669 
Q 902 4669 976 4637 
Q 1050 4605 1106 4549 
Q 1162 4493 1195 4417 
Q 1229 4342 1229 4259 
z
" transform="scale(0.015625)"/>
     <path id="Lato-Regular-20" transform="scale(0.015625)"/>
     <path id="Lato-Regular-41" d="M 4330 0 
L 3850 0 
Q 3766 0 3715 41 
Q 3664 83 3638 147 
L 3210 1254 
L 1152 1254 
L 723 147 
Q 701 90 646 45 
Q 592 0 512 0 
L 32 0 
L 1866 4586 
L 2496 4586 
L 4330 0 
z
M 1325 1702 
L 3037 1702 
L 2317 3568 
Q 2246 3741 2179 4000 
Q 2144 3869 2110 3758 
Q 2077 3648 2045 3565 
L 1325 1702 
z
" transform="scale(0.015625)"/>
    </defs>
    <use xlink:href="#Lato-Regular-53"/>
    <use xlink:href="#Lato-Regular-65" transform="translate(53 0)"/>
    <use xlink:href="#Lato-Regular-72" transform="translate(105.400009 0)"/>
    <use xlink:href="#Lato-Regular-69" transform="translate(145.700012 0)"/>
    <use xlink:href="#Lato-Regular-65" transform="translate(171.300018 0)"/>
    <use xlink:href="#Lato-Regular-20" transform="translate(223.700027 0)"/>
    <use xlink:href="#Lato-Regular-41" transform="translate(243.000031 0)"/>
   </g>
  </g>
 </g>
 <defs>
  <clipPath id="p21828c9301">
   <rect x="7.2" y="7.2" width="439.2" height="61.678182"/>
  </clipPath>
  <clipPath id="p5e70c33f07">
   <rect x="7.2" y="18.878182" width="439.2" height="61.678182"/>
  </clipPath>
  <clipPath id="pa9f8a9a000">
   <rect x="7.2" y="30.556364" width="439.2" height="61.678182"/>
  </clipPath>
  <clipPath id="p5979d8fb1d">
   <rect x="7.2" y="42.234545" width="439.2" height="61.678182"/>
  </clipPath>
  <clipPath id="p5d2bfa57d0">
   <rect x="7.2" y="53.912727" width="439.2" height="61.678182"/>
  </clipPath>
  <clipPath id="p7048f05922">
   <rect x="7.2" y="65.590909" width="439.2" height="61.678182"/>
  </clipPath>
  <clipPath id="p14671c46bc">
   <rect x="7.2" y="77.269091" width="439.2" height="61.678182"/>
  </clipPath>
  <clipPath id="p881ffa312d">
   <rect x="7.2" y="88.947273" width="439.2" height="61.678182"/>
  </clipPath>
  <clipPath id="p384ead098a">
   <rect x="7.2" y="100.625455" width="439.2" height="61.678182"/>
  </clipPath>
  <clipPath id="p8fc10b447e">
   <rect x="7.2" y="112.303636" width="439.2" height="61.678182"/>
  </clipPath>
  <clipPath id="p614faf628f">
   <rect x="7.2" y="123.981818" width="439.2" height="61.678182"/>
  </clipPath>
  <clipPath id="p937f1180e2">
   <rect x="7.2" y="135.66" width="439.2" height="61.678182"/>
  </clipPath>
  <clipPath id="p35aa2ffd7a">
   <rect x="7.2" y="147.338182" width="439.2" height="61.678182"/>
  </clipPath>
  <clipPath id="p982f2bf398">
   <rect x="7.2" y="159.016364" width="439.2" height="61.678182"/>
  </clipPath>
  <clipPath id="p432317e5f3">
   <rect x="7.2" y="170.694545" width="439.2" height="61.678182"/>
  </clipPath>
  <clipPath id="pe3b705a39c">
   <rect x="7.2" y="182.372727" width="439.2" height="61.678182"/>
  </clipPath>
  <clipPath id="pbf59214bc5">
   <rect x="7.2" y="194.050909" width="439.2" height="61.678182"/>
  </clipPath>
  <clipPath id="p2741045e47">
   <rect x="7.2" y="205.729091" width="439.2" height="61.678182"/>
  </clipPath>
  <clipPath id="pae859032f0">
   <rect x="7.2" y="217.407273" width="439.2" height="61.678182"/>
  </clipPath>
  <clipPath id="pbe75705710">
   <rect x="7.2" y="229.085455" width="439.2" height="61.678182"/>
  </clipPath>
  <clipPath id="p61c5addfdc">
   <rect x="7.2" y="240.763636" width="439.2" height="61.678182"/>
  </clipPath>
  <clipPath id="p5600b0d5ff">
   <rect x="7.2" y="252.441818" width="439.2" height="61.678182"/>
  </clipPath>
 </defs>
</svg>
