<?xml version="1.0" encoding="utf-8" standalone="no"?>
<!DOCTYPE svg PUBLIC "-//W3C//DTD SVG 1.1//EN"
  "http://www.w3.org/Graphics/SVG/1.1/DTD/svg11.dtd">
<svg xmlns:xlink="http://www.w3.org/1999/xlink" width="453.6pt" height="337.40125pt" viewBox="0 0 453.6 337.40125" xmlns="http://www.w3.org/2000/svg" version="1.1">
 <metadata>
  <rdf:RDF xmlns:dc="http://purl.org/dc/elements/1.1/" xmlns:cc="http://creativecommons.org/ns#" xmlns:rdf="http://www.w3.org/1999/02/22-rdf-syntax-ns#">
   <cc:Work>
    <dc:type rdf:resource="http://purl.org/dc/dcmitype/StillImage"/>
    <dc:date>2025-11-26T11:50:00.646809</dc:date>
    <dc:format>image/svg+xml</dc:format>
    <dc:creator>
     <cc:Agent>
      <dc:title>Matplotlib v3.10.5, https://matplotlib.org/</dc:title>
     </cc:Agent>
    </dc:creator>
   </cc:Work>
  </rdf:RDF>
 </metadata>
 <defs>
  <style type="text/css">*{stroke-linejoin: round; stroke-linecap: butt}</style>
 </defs>
 <g id="figure_1">
  <g id="patch_1">
   <path d="M 0 337.40125 
L 453.6 337.40125 
L 453.6 0 
L 0 0 
z
" style="fill: #f5f5dc"/>
  </g>
  <g id="axes_1">
   <g id="patch_2">
    <path d="M 7.2 314.12 
L 446.4 314.12 
L 446.4 7.2 
L 7.2 7.2 
z
" style="fill: #f5f5dc"/>
   </g>
   <g id="matplotlib.axis_1">
    <g id="xtick_1">
     <g id="line2d_1">
      <defs>
       <path id="m6c98a343be" d="M 0 0 
L 0 3.5 
" style="stroke: #000000; stroke-width: 0.8"/>
      </defs>
      <g>
       <use xlink:href="#m6c98a343be" x="75.825" y="314.12" style="stroke: #000000; stroke-width: 0.8"/>
      </g>
     </g>
     <g id="text_1">
      <!-- €250M -->
      <g transform="translate(59.625 328.485625) scale(0.1 -0.1)">
       <defs>
        <path id="Lato-Regular-20ac" d="M 109 2877 
L 579 2877 
Q 643 3280 795 3605 
Q 947 3930 1172 4158 
Q 1398 4387 1692 4508 
Q 1987 4630 2333 4630 
Q 2762 4630 3066 4470 
Q 3370 4310 3594 4029 
L 3398 3811 
Q 3373 3782 3347 3761 
Q 3322 3741 3277 3741 
Q 3222 3741 3163 3801 
Q 3104 3862 3005 3936 
Q 2906 4010 2750 4070 
Q 2595 4131 2355 4131 
Q 1888 4131 1579 3811 
Q 1270 3491 1168 2877 
L 2918 2877 
L 2918 2701 
Q 2918 2643 2875 2596 
Q 2832 2550 2755 2550 
L 1130 2550 
Q 1126 2486 1124 2422 
Q 1123 2358 1123 2291 
Q 1123 2240 1123 2192 
Q 1123 2144 1126 2096 
L 2621 2096 
L 2621 1917 
Q 2621 1862 2576 1816 
Q 2531 1770 2454 1770 
L 1155 1770 
Q 1245 1110 1552 780 
Q 1859 451 2326 451 
Q 2499 451 2630 484 
Q 2762 518 2858 569 
Q 2954 621 3022 680 
Q 3091 739 3142 790 
Q 3194 842 3234 875 
Q 3274 909 3312 909 
Q 3338 909 3357 897 
Q 3376 886 3402 864 
L 3642 640 
Q 3418 314 3085 133 
Q 2752 -48 2294 -48 
Q 1923 -48 1625 78 
Q 1328 205 1110 440 
Q 893 675 753 1012 
Q 614 1350 563 1770 
L 109 1770 
L 109 2096 
L 538 2096 
Q 534 2144 534 2192 
Q 534 2240 534 2291 
Q 534 2355 536 2420 
Q 538 2486 541 2550 
L 109 2550 
L 109 2877 
z
" transform="scale(0.015625)"/>
        <path id="Lato-Regular-32" d="M 1923 4637 
Q 2214 4637 2467 4550 
Q 2720 4464 2904 4299 
Q 3088 4134 3193 3897 
Q 3299 3661 3299 3360 
Q 3299 3104 3222 2886 
Q 3146 2669 3014 2469 
Q 2883 2269 2712 2081 
Q 2541 1894 2349 1699 
L 1142 464 
Q 1270 499 1401 520 
Q 1533 541 1654 541 
L 3190 541 
Q 3283 541 3337 486 
Q 3392 432 3392 346 
L 3392 0 
L 333 0 
L 333 195 
Q 333 256 357 320 
Q 381 384 435 438 
L 1904 1914 
Q 2086 2099 2236 2270 
Q 2387 2442 2494 2614 
Q 2602 2787 2659 2964 
Q 2717 3142 2717 3344 
Q 2717 3546 2653 3698 
Q 2589 3850 2477 3949 
Q 2365 4048 2214 4097 
Q 2064 4147 1891 4147 
Q 1718 4147 1571 4096 
Q 1424 4045 1310 3953 
Q 1197 3862 1118 3737 
Q 1040 3613 1008 3462 
Q 982 3370 931 3328 
Q 880 3286 797 3286 
Q 781 3286 763 3288 
Q 746 3290 723 3293 
L 426 3344 
Q 470 3658 598 3899 
Q 726 4141 923 4304 
Q 1120 4467 1374 4552 
Q 1629 4637 1923 4637 
z
" transform="scale(0.015625)"/>
        <path id="Lato-Regular-35" d="M 3130 4336 
Q 3130 4214 3053 4136 
Q 2976 4058 2794 4058 
L 1354 4058 
L 1142 2854 
Q 1501 2931 1805 2931 
Q 2163 2931 2436 2825 
Q 2710 2720 2896 2534 
Q 3082 2349 3176 2096 
Q 3270 1843 3270 1546 
Q 3270 1181 3142 886 
Q 3014 592 2792 382 
Q 2570 173 2269 61 
Q 1968 -51 1619 -51 
Q 1418 -51 1232 -11 
Q 1046 29 886 96 
Q 726 163 588 249 
Q 451 336 346 432 
L 518 675 
Q 576 758 672 758 
Q 733 758 814 708 
Q 896 659 1011 598 
Q 1126 538 1281 488 
Q 1437 438 1651 438 
Q 1891 438 2083 515 
Q 2275 592 2411 734 
Q 2547 877 2620 1075 
Q 2694 1274 2694 1520 
Q 2694 1734 2632 1907 
Q 2570 2080 2443 2201 
Q 2317 2323 2128 2390 
Q 1939 2458 1686 2458 
Q 1514 2458 1328 2429 
Q 1142 2400 944 2336 
L 586 2442 
L 957 4586 
L 3130 4586 
L 3130 4336 
z
" transform="scale(0.015625)"/>
        <path id="Lato-Regular-30" d="M 3520 2291 
Q 3520 1690 3390 1250 
Q 3261 810 3037 522 
Q 2813 234 2507 93 
Q 2202 -48 1853 -48 
Q 1501 -48 1198 93 
Q 896 234 672 522 
Q 448 810 320 1250 
Q 192 1690 192 2291 
Q 192 2893 320 3334 
Q 448 3776 672 4065 
Q 896 4355 1198 4496 
Q 1501 4637 1853 4637 
Q 2202 4637 2507 4496 
Q 2813 4355 3037 4065 
Q 3261 3776 3390 3334 
Q 3520 2893 3520 2291 
z
M 2928 2291 
Q 2928 2816 2840 3173 
Q 2752 3530 2603 3747 
Q 2454 3965 2259 4059 
Q 2064 4154 1853 4154 
Q 1642 4154 1446 4059 
Q 1251 3965 1104 3747 
Q 957 3530 869 3173 
Q 781 2816 781 2291 
Q 781 1766 869 1411 
Q 957 1056 1104 838 
Q 1251 621 1446 526 
Q 1642 432 1853 432 
Q 2064 432 2259 526 
Q 2454 621 2603 838 
Q 2752 1056 2840 1411 
Q 2928 1766 2928 2291 
z
" transform="scale(0.015625)"/>
        <path id="Lato-Regular-4d" d="M 2813 1658 
Q 2858 1581 2891 1496 
Q 2925 1411 2957 1325 
Q 2989 1414 3024 1496 
Q 3059 1578 3104 1661 
L 4656 4480 
Q 4698 4554 4742 4570 
Q 4787 4586 4870 4586 
L 5328 4586 
L 5328 0 
L 4784 0 
L 4784 3370 
Q 4784 3437 4787 3513 
Q 4790 3590 4797 3670 
L 3226 803 
Q 3146 659 3002 659 
L 2912 659 
Q 2768 659 2688 803 
L 1082 3680 
Q 1091 3597 1096 3517 
Q 1101 3437 1101 3370 
L 1101 0 
L 557 0 
L 557 4586 
L 1014 4586 
Q 1098 4586 1142 4570 
Q 1187 4554 1229 4480 
L 2813 1658 
L 2813 1658 
z
" transform="scale(0.015625)"/>
       </defs>
       <use xlink:href="#Lato-Regular-20ac"/>
       <use xlink:href="#Lato-Regular-32" transform="translate(58 0)"/>
       <use xlink:href="#Lato-Regular-35" transform="translate(116 0)"/>
       <use xlink:href="#Lato-Regular-30" transform="translate(174 0)"/>
       <use xlink:href="#Lato-Regular-4d" transform="translate(232 0)"/>
      </g>
     </g>
    </g>
    <g id="xtick_2">
     <g id="line2d_2">
      <g>
       <use xlink:href="#m6c98a343be" x="144.45" y="314.12" style="stroke: #000000; stroke-width: 0.8"/>
      </g>
     </g>
     <g id="text_2">
      <!-- €500M -->
      <g transform="translate(128.25 328.485625) scale(0.1 -0.1)">
       <use xlink:href="#Lato-Regular-20ac"/>
       <use xlink:href="#Lato-Regular-35" transform="translate(58 0)"/>
       <use xlink:href="#Lato-Regular-30" transform="translate(116 0)"/>
       <use xlink:href="#Lato-Regular-30" transform="translate(174 0)"/>
       <use xlink:href="#Lato-Regular-4d" transform="translate(232 0)"/>
      </g>
     </g>
    </g>
    <g id="xtick_3">
     <g id="line2d_3">
      <g>
       <use xlink:href="#m6c98a343be" x="213.075" y="314.12" style="stroke: #000000; stroke-width: 0.8"/>
      </g>
     </g>
     <g id="text_3">
      <!-- €750M -->
      <g transform="translate(196.875 328.485625) scale(0.1 -0.1)">
       <defs>
        <path id="Lato-Regular-37" d="M 3469 4586 
L 3469 4330 
Q 3469 4221 3445 4150 
Q 3421 4080 3395 4032 
L 1498 202 
Q 1456 118 1382 59 
Q 1309 0 1184 0 
L 778 0 
L 2704 3782 
Q 2746 3862 2789 3929 
Q 2832 3997 2886 4058 
L 493 4058 
Q 438 4058 395 4101 
Q 352 4144 352 4198 
L 352 4586 
L 3469 4586 
z
" transform="scale(0.015625)"/>
       </defs>
       <use xlink:href="#Lato-Regular-20ac"/>
       <use xlink:href="#Lato-Regular-37" transform="translate(58 0)"/>
       <use xlink:href="#Lato-Regular-35" transform="translate(116 0)"/>
       <use xlink:href="#Lato-Regular-30" transform="translate(174 0)"/>
       <use xlink:href="#Lato-Regular-4d" transform="translate(232 0)"/>
      </g>
     </g>
    </g>
    <g id="xtick_4">
     <g id="line2d_4">
      <g>
       <use xlink:href="#m6c98a343be" x="281.7" y="314.12" style="stroke: #000000; stroke-width: 0.8"/>
      </g>
     </g>
     <g id="text_4">
      <!-- €1B -->
      <g transform="translate(272.664844 328.485625) scale(0.1 -0.1)">
       <defs>
        <path id="Lato-Regular-31" d="M 918 435 
L 1904 435 
L 1904 3562 
Q 1904 3702 1914 3846 
L 1094 3146 
Q 1062 3120 1030 3109 
Q 998 3098 970 3098 
Q 922 3098 883 3118 
Q 845 3139 826 3168 
L 646 3414 
L 2010 4595 
L 2474 4595 
L 2474 435 
L 3376 435 
L 3376 0 
L 918 0 
L 918 435 
z
" transform="scale(0.015625)"/>
        <path id="Lato-Regular-42" d="M 557 0 
L 557 4586 
L 2019 4586 
Q 2442 4586 2747 4502 
Q 3053 4419 3249 4265 
Q 3446 4112 3540 3889 
Q 3635 3667 3635 3389 
Q 3635 3219 3582 3062 
Q 3530 2906 3422 2771 
Q 3315 2637 3153 2531 
Q 2992 2426 2774 2358 
Q 3277 2259 3533 1996 
Q 3789 1734 3789 1306 
Q 3789 1014 3681 774 
Q 3574 534 3368 361 
Q 3162 189 2862 94 
Q 2563 0 2179 0 
L 557 0 
z
M 1178 2090 
L 1178 493 
L 2170 493 
Q 2435 493 2625 553 
Q 2816 614 2939 724 
Q 3062 835 3120 987 
Q 3178 1139 3178 1322 
Q 3178 1677 2926 1883 
Q 2675 2090 2166 2090 
L 1178 2090 
z
M 1178 2531 
L 1997 2531 
Q 2259 2531 2451 2588 
Q 2643 2646 2769 2748 
Q 2896 2851 2957 2996 
Q 3018 3142 3018 3315 
Q 3018 3718 2774 3907 
Q 2531 4096 2019 4096 
L 1178 4096 
L 1178 2531 
z
" transform="scale(0.015625)"/>
       </defs>
       <use xlink:href="#Lato-Regular-20ac"/>
       <use xlink:href="#Lato-Regular-31" transform="translate(58 0)"/>
       <use xlink:href="#Lato-Regular-42" transform="translate(116 0)"/>
      </g>
     </g>
    </g>
    <g id="xtick_5">
     <g id="line2d_5">
      <g>
       <use xlink:href="#m6c98a343be" x="350.325" y="314.12" style="stroke: #000000; stroke-width: 0.8"/>
      </g>
     </g>
     <g id="text_5">
      <!-- €1.25B -->
      <g transform="translate(334.429688 328.485625) scale(0.1 -0.1)">
       <defs>
        <path id="Lato-Regular-2e" d="M 282 352 
Q 282 435 312 508 
Q 342 582 395 636 
Q 448 691 521 723 
Q 595 755 678 755 
Q 762 755 835 723 
Q 909 691 963 636 
Q 1018 582 1048 508 
Q 1078 435 1078 352 
Q 1078 266 1048 194 
Q 1018 122 963 67 
Q 909 13 835 -17 
Q 762 -48 678 -48 
Q 595 -48 521 -17 
Q 448 13 395 67 
Q 342 122 312 194 
Q 282 266 282 352 
z
" transform="scale(0.015625)"/>
       </defs>
       <use xlink:href="#Lato-Regular-20ac"/>
       <use xlink:href="#Lato-Regular-31" transform="translate(58 0)"/>
       <use xlink:href="#Lato-Regular-2e" transform="translate(116 0)"/>
       <use xlink:href="#Lato-Regular-32" transform="translate(137.199997 0)"/>
       <use xlink:href="#Lato-Regular-35" transform="translate(195.199997 0)"/>
       <use xlink:href="#Lato-Regular-42" transform="translate(253.199997 0)"/>
      </g>
     </g>
    </g>
    <g id="xtick_6">
     <g id="line2d_6">
      <g>
       <use xlink:href="#m6c98a343be" x="418.95" y="314.12" style="stroke: #000000; stroke-width: 0.8"/>
      </g>
     </g>
     <g id="text_6">
      <!-- €1.5B -->
      <g transform="translate(405.954688 328.485625) scale(0.1 -0.1)">
       <use xlink:href="#Lato-Regular-20ac"/>
       <use xlink:href="#Lato-Regular-31" transform="translate(58 0)"/>
       <use xlink:href="#Lato-Regular-2e" transform="translate(116 0)"/>
       <use xlink:href="#Lato-Regular-35" transform="translate(137.199997 0)"/>
       <use xlink:href="#Lato-Regular-42" transform="translate(195.199997 0)"/>
      </g>
     </g>
    </g>
   </g>
  </g>
  <g id="axes_2">
   <g id="FillBetweenPolyCollection_1">
    <defs>
     <path id="m80e259950d" d="M 8.150768 -271.708913 
L 8.150768 -271.708913 
L 12.358105 -271.708913 
L 16.565441 -271.708913 
L 20.772777 -271.708913 
L 24.980114 -271.708913 
L 29.18745 -271.708913 
L 33.394786 -271.708913 
L 37.602123 -271.708913 
L 41.809459 -271.708913 
L 46.016795 -271.708913 
L 50.224132 -271.708913 
L 54.431468 -271.708913 
L 58.638805 -271.708913 
L 62.846141 -271.708913 
L 67.053477 -271.708913 
L 71.260814 -271.708913 
L 75.46815 -271.708913 
L 79.675486 -271.708913 
L 83.882823 -271.708913 
L 88.090159 -271.708913 
L 92.297495 -271.708913 
L 96.504832 -271.708913 
L 96.504832 -271.708913 
L 96.504832 -271.708913 
L 92.297495 -280.993411 
L 88.090159 -271.708913 
L 83.882823 -280.993411 
L 79.675486 -271.708913 
L 75.46815 -271.708913 
L 71.260814 -280.993411 
L 67.053477 -271.708913 
L 62.846141 -280.993411 
L 58.638805 -271.708913 
L 54.431468 -271.708913 
L 50.224132 -271.708913 
L 46.016795 -271.708913 
L 41.809459 -271.708913 
L 37.602123 -290.277909 
L 33.394786 -271.708913 
L 29.18745 -299.562407 
L 24.980114 -271.708913 
L 20.772777 -318.131403 
L 16.565441 -308.846905 
L 12.358105 -290.277909 
L 8.150768 -271.708913 
z
" style="stroke: #0578ff; stroke-opacity: 0.427273"/>
    </defs>
    <g clip-path="url(#p93a0a05191)">
     <use xlink:href="#m80e259950d" x="0" y="337.40125" style="fill: #0578ff; fill-opacity: 0.427273; stroke: #0578ff; stroke-opacity: 0.427273"/>
    </g>
   </g>
   <g id="line2d_7">
    <path d="M 8.150768 65.692337 
L 12.358105 65.692337 
L 16.565441 65.692337 
L 20.772777 65.692337 
L 24.980114 65.692337 
L 29.18745 65.692337 
L 33.394786 65.692337 
L 37.602123 65.692337 
L 41.809459 65.692337 
L 46.016795 65.692337 
L 50.224132 65.692337 
L 54.431468 65.692337 
L 58.638805 65.692337 
L 62.846141 65.692337 
L 67.053477 65.692337 
L 71.260814 65.692337 
L 75.46815 65.692337 
L 79.675486 65.692337 
L 83.882823 65.692337 
L 88.090159 65.692337 
L 92.297495 65.692337 
L 96.504832 65.692337 
" clip-path="url(#p93a0a05191)" style="fill: none; stroke: #0578ff; stroke-opacity: 0.427273; stroke-width: 1.5; stroke-linecap: square"/>
   </g>
   <g id="line2d_8">
    <path d="M 8.150768 65.692337 
L 12.358105 47.123341 
L 16.565441 28.554345 
L 20.772777 19.269847 
L 24.980114 65.692337 
L 29.18745 37.838843 
L 33.394786 65.692337 
L 37.602123 47.123341 
L 41.809459 65.692337 
L 46.016795 65.692337 
L 50.224132 65.692337 
L 54.431468 65.692337 
L 58.638805 65.692337 
L 62.846141 56.407839 
L 67.053477 65.692337 
L 71.260814 56.407839 
L 75.46815 65.692337 
L 79.675486 65.692337 
L 83.882823 56.407839 
L 88.090159 65.692337 
L 92.297495 56.407839 
L 96.504832 65.692337 
" clip-path="url(#p93a0a05191)" style="fill: none; stroke: #000000; stroke-opacity: 0.427273; stroke-width: 1.5; stroke-linecap: square"/>
   </g>
  </g>
  <g id="axes_3">
   <g id="FillBetweenPolyCollection_2">
    <defs>
     <path id="m7474f1122c" d="M 7.961962 -260.303459 
L 7.961962 -260.303459 
L 12.234729 -260.303459 
L 16.507496 -260.303459 
L 20.780264 -260.303459 
L 25.053031 -260.303459 
L 29.325798 -260.303459 
L 33.598565 -260.303459 
L 37.871332 -260.303459 
L 42.1441 -260.303459 
L 46.416867 -260.303459 
L 50.689634 -260.303459 
L 54.962401 -260.303459 
L 59.235168 -260.303459 
L 63.507935 -260.303459 
L 67.780703 -260.303459 
L 72.05347 -260.303459 
L 76.326237 -260.303459 
L 80.599004 -260.303459 
L 84.871771 -260.303459 
L 89.144539 -260.303459 
L 93.417306 -260.303459 
L 97.690073 -260.303459 
L 97.690073 -260.303459 
L 97.690073 -260.303459 
L 93.417306 -269.587957 
L 89.144539 -260.303459 
L 84.871771 -260.303459 
L 80.599004 -269.587957 
L 76.326237 -260.303459 
L 72.05347 -269.587957 
L 67.780703 -260.303459 
L 63.507935 -260.303459 
L 59.235168 -269.587957 
L 54.962401 -260.303459 
L 50.689634 -260.303459 
L 46.416867 -269.587957 
L 42.1441 -260.303459 
L 37.871332 -260.303459 
L 33.598565 -278.872455 
L 29.325798 -269.587957 
L 25.053031 -269.587957 
L 20.780264 -306.725948 
L 16.507496 -297.44145 
L 12.234729 -278.872455 
L 7.961962 -260.303459 
z
" style="stroke: #0578ff; stroke-opacity: 0.454545"/>
    </defs>
    <g clip-path="url(#p5c493fff0f)">
     <use xlink:href="#m7474f1122c" x="0" y="337.40125" style="fill: #0578ff; fill-opacity: 0.454545; stroke: #0578ff; stroke-opacity: 0.454545"/>
    </g>
   </g>
   <g id="line2d_9">
    <path d="M 7.961962 77.097791 
L 12.234729 77.097791 
L 16.507496 77.097791 
L 20.780264 77.097791 
L 25.053031 77.097791 
L 29.325798 77.097791 
L 33.598565 77.097791 
L 37.871332 77.097791 
L 42.1441 77.097791 
L 46.416867 77.097791 
L 50.689634 77.097791 
L 54.962401 77.097791 
L 59.235168 77.097791 
L 63.507935 77.097791 
L 67.780703 77.097791 
L 72.05347 77.097791 
L 76.326237 77.097791 
L 80.599004 77.097791 
L 84.871771 77.097791 
L 89.144539 77.097791 
L 93.417306 77.097791 
L 97.690073 77.097791 
" clip-path="url(#p5c493fff0f)" style="fill: none; stroke: #0578ff; stroke-opacity: 0.454545; stroke-width: 1.5; stroke-linecap: square"/>
   </g>
   <g id="line2d_10">
    <path d="M 7.961962 77.097791 
L 12.234729 58.528795 
L 16.507496 39.9598 
L 20.780264 30.675302 
L 25.053031 67.813293 
L 29.325798 67.813293 
L 33.598565 58.528795 
L 37.871332 77.097791 
L 42.1441 77.097791 
L 46.416867 67.813293 
L 50.689634 77.097791 
L 54.962401 77.097791 
L 59.235168 67.813293 
L 63.507935 77.097791 
L 67.780703 77.097791 
L 72.05347 67.813293 
L 76.326237 77.097791 
L 80.599004 67.813293 
L 84.871771 77.097791 
L 89.144539 77.097791 
L 93.417306 67.813293 
L 97.690073 77.097791 
" clip-path="url(#p5c493fff0f)" style="fill: none; stroke: #000000; stroke-opacity: 0.454545; stroke-width: 1.5; stroke-linecap: square"/>
   </g>
  </g>
  <g id="axes_4">
   <g id="FillBetweenPolyCollection_3">
    <defs>
     <path id="m0476b4ebff" d="M 9.320138 -248.898004 
L 9.320138 -248.898004 
L 13.04161 -248.898004 
L 16.763081 -248.898004 
L 20.484552 -248.898004 
L 24.206024 -248.898004 
L 27.927495 -248.898004 
L 31.648966 -248.898004 
L 35.370438 -248.898004 
L 39.091909 -248.898004 
L 42.81338 -248.898004 
L 46.534852 -248.898004 
L 50.256323 -248.898004 
L 53.977795 -248.898004 
L 57.699266 -248.898004 
L 61.420737 -248.898004 
L 65.142209 -248.898004 
L 68.86368 -248.898004 
L 72.585151 -248.898004 
L 76.306623 -248.898004 
L 80.028094 -248.898004 
L 83.749565 -248.898004 
L 87.471037 -248.898004 
L 87.471037 -248.898004 
L 87.471037 -248.898004 
L 83.749565 -258.182502 
L 80.028094 -258.182502 
L 76.306623 -248.898004 
L 72.585151 -248.898004 
L 68.86368 -258.182502 
L 65.142209 -248.898004 
L 61.420737 -248.898004 
L 57.699266 -248.898004 
L 53.977795 -248.898004 
L 50.256323 -258.182502 
L 46.534852 -248.898004 
L 42.81338 -258.182502 
L 39.091909 -248.898004 
L 35.370438 -267.467 
L 31.648966 -258.182502 
L 27.927495 -258.182502 
L 24.206024 -267.467 
L 20.484552 -304.604992 
L 16.763081 -267.467 
L 13.04161 -258.182502 
L 9.320138 -248.898004 
z
" style="stroke: #0578ff; stroke-opacity: 0.481818"/>
    </defs>
    <g clip-path="url(#pd46e9fccd4)">
     <use xlink:href="#m0476b4ebff" x="0" y="337.40125" style="fill: #0578ff; fill-opacity: 0.481818; stroke: #0578ff; stroke-opacity: 0.481818"/>
    </g>
   </g>
   <g id="line2d_11">
    <path d="M 9.320138 88.503246 
L 13.04161 88.503246 
L 16.763081 88.503246 
L 20.484552 88.503246 
L 24.206024 88.503246 
L 27.927495 88.503246 
L 31.648966 88.503246 
L 35.370438 88.503246 
L 39.091909 88.503246 
L 42.81338 88.503246 
L 46.534852 88.503246 
L 50.256323 88.503246 
L 53.977795 88.503246 
L 57.699266 88.503246 
L 61.420737 88.503246 
L 65.142209 88.503246 
L 68.86368 88.503246 
L 72.585151 88.503246 
L 76.306623 88.503246 
L 80.028094 88.503246 
L 83.749565 88.503246 
L 87.471037 88.503246 
" clip-path="url(#pd46e9fccd4)" style="fill: none; stroke: #0578ff; stroke-opacity: 0.481818; stroke-width: 1.5; stroke-linecap: square"/>
   </g>
   <g id="line2d_12">
    <path d="M 9.320138 88.503246 
L 13.04161 79.218748 
L 16.763081 69.93425 
L 20.484552 32.796258 
L 24.206024 69.93425 
L 27.927495 79.218748 
L 31.648966 79.218748 
L 35.370438 69.93425 
L 39.091909 88.503246 
L 42.81338 79.218748 
L 46.534852 88.503246 
L 50.256323 79.218748 
L 53.977795 88.503246 
L 57.699266 88.503246 
L 61.420737 88.503246 
L 65.142209 88.503246 
L 68.86368 79.218748 
L 72.585151 88.503246 
L 76.306623 88.503246 
L 80.028094 79.218748 
L 83.749565 79.218748 
L 87.471037 88.503246 
" clip-path="url(#pd46e9fccd4)" style="fill: none; stroke: #000000; stroke-opacity: 0.481818; stroke-width: 1.5; stroke-linecap: square"/>
   </g>
  </g>
  <g id="axes_5">
   <g id="FillBetweenPolyCollection_4">
    <defs>
     <path id="mca49ea69ff" d="M 13.143175 -237.49255 
L 13.143175 -237.49255 
L 17.167844 -237.49255 
L 21.192513 -237.49255 
L 25.217182 -237.49255 
L 29.241851 -237.49255 
L 33.26652 -237.49255 
L 37.291189 -237.49255 
L 41.315858 -237.49255 
L 45.340527 -237.49255 
L 49.365196 -237.49255 
L 53.389865 -237.49255 
L 57.414535 -237.49255 
L 61.439204 -237.49255 
L 65.463873 -237.49255 
L 69.488542 -237.49255 
L 73.513211 -237.49255 
L 77.53788 -237.49255 
L 81.562549 -237.49255 
L 85.587218 -237.49255 
L 89.611887 -237.49255 
L 93.636556 -237.49255 
L 97.661225 -237.49255 
L 97.661225 -237.49255 
L 97.661225 -237.49255 
L 93.636556 -246.777048 
L 89.611887 -237.49255 
L 85.587218 -246.777048 
L 81.562549 -237.49255 
L 77.53788 -237.49255 
L 73.513211 -256.061546 
L 69.488542 -237.49255 
L 65.463873 -237.49255 
L 61.439204 -237.49255 
L 57.414535 -237.49255 
L 53.389865 -246.777048 
L 49.365196 -237.49255 
L 45.340527 -237.49255 
L 41.315858 -237.49255 
L 37.291189 -265.346043 
L 33.26652 -237.49255 
L 29.241851 -256.061546 
L 25.217182 -265.346043 
L 21.192513 -283.915039 
L 17.167844 -256.061546 
L 13.143175 -237.49255 
z
" style="stroke: #0578ff; stroke-opacity: 0.509091"/>
    </defs>
    <g clip-path="url(#p694fdce88c)">
     <use xlink:href="#mca49ea69ff" x="0" y="337.40125" style="fill: #0578ff; fill-opacity: 0.509091; stroke: #0578ff; stroke-opacity: 0.509091"/>
    </g>
   </g>
   <g id="line2d_13">
    <path d="M 13.143175 99.9087 
L 17.167844 99.9087 
L 21.192513 99.9087 
L 25.217182 99.9087 
L 29.241851 99.9087 
L 33.26652 99.9087 
L 37.291189 99.9087 
L 41.315858 99.9087 
L 45.340527 99.9087 
L 49.365196 99.9087 
L 53.389865 99.9087 
L 57.414535 99.9087 
L 61.439204 99.9087 
L 65.463873 99.9087 
L 69.488542 99.9087 
L 73.513211 99.9087 
L 77.53788 99.9087 
L 81.562549 99.9087 
L 85.587218 99.9087 
L 89.611887 99.9087 
L 93.636556 99.9087 
L 97.661225 99.9087 
" clip-path="url(#p694fdce88c)" style="fill: none; stroke: #0578ff; stroke-opacity: 0.509091; stroke-width: 1.5; stroke-linecap: square"/>
   </g>
   <g id="line2d_14">
    <path d="M 13.143175 99.9087 
L 17.167844 81.339704 
L 21.192513 53.486211 
L 25.217182 72.055207 
L 29.241851 81.339704 
L 33.26652 99.9087 
L 37.291189 72.055207 
L 41.315858 99.9087 
L 45.340527 99.9087 
L 49.365196 99.9087 
L 53.389865 90.624202 
L 57.414535 99.9087 
L 61.439204 99.9087 
L 65.463873 99.9087 
L 69.488542 99.9087 
L 73.513211 81.339704 
L 77.53788 99.9087 
L 81.562549 99.9087 
L 85.587218 90.624202 
L 89.611887 99.9087 
L 93.636556 90.624202 
L 97.661225 99.9087 
" clip-path="url(#p694fdce88c)" style="fill: none; stroke: #000000; stroke-opacity: 0.509091; stroke-width: 1.5; stroke-linecap: square"/>
   </g>
  </g>
  <g id="axes_6">
   <g id="FillBetweenPolyCollection_5">
    <defs>
     <path id="m7f3253c413" d="M 11.210445 -226.087095 
L 11.210445 -226.087095 
L 15.58323 -226.087095 
L 19.956015 -226.087095 
L 24.3288 -226.087095 
L 28.701585 -226.087095 
L 33.07437 -226.087095 
L 37.447155 -226.087095 
L 41.81994 -226.087095 
L 46.192725 -226.087095 
L 50.56551 -226.087095 
L 54.938295 -226.087095 
L 59.31108 -226.087095 
L 63.683865 -226.087095 
L 68.05665 -226.087095 
L 72.429435 -226.087095 
L 76.80222 -226.087095 
L 81.175005 -226.087095 
L 85.54779 -226.087095 
L 89.920575 -226.087095 
L 94.29336 -226.087095 
L 98.666145 -226.087095 
L 103.03893 -226.087095 
L 103.03893 -226.087095 
L 103.03893 -226.087095 
L 98.666145 -235.371593 
L 94.29336 -235.371593 
L 89.920575 -226.087095 
L 85.54779 -226.087095 
L 81.175005 -235.371593 
L 76.80222 -235.371593 
L 72.429435 -226.087095 
L 68.05665 -226.087095 
L 63.683865 -226.087095 
L 59.31108 -235.371593 
L 54.938295 -226.087095 
L 50.56551 -226.087095 
L 46.192725 -226.087095 
L 41.81994 -235.371593 
L 37.447155 -244.656091 
L 33.07437 -253.940589 
L 28.701585 -226.087095 
L 24.3288 -244.656091 
L 19.956015 -272.509585 
L 15.58323 -244.656091 
L 11.210445 -226.087095 
z
" style="stroke: #0578ff; stroke-opacity: 0.536364"/>
    </defs>
    <g clip-path="url(#p34514500af)">
     <use xlink:href="#m7f3253c413" x="0" y="337.40125" style="fill: #0578ff; fill-opacity: 0.536364; stroke: #0578ff; stroke-opacity: 0.536364"/>
    </g>
   </g>
   <g id="line2d_15">
    <path d="M 11.210445 111.314155 
L 15.58323 111.314155 
L 19.956015 111.314155 
L 24.3288 111.314155 
L 28.701585 111.314155 
L 33.07437 111.314155 
L 37.447155 111.314155 
L 41.81994 111.314155 
L 46.192725 111.314155 
L 50.56551 111.314155 
L 54.938295 111.314155 
L 59.31108 111.314155 
L 63.683865 111.314155 
L 68.05665 111.314155 
L 72.429435 111.314155 
L 76.80222 111.314155 
L 81.175005 111.314155 
L 85.54779 111.314155 
L 89.920575 111.314155 
L 94.29336 111.314155 
L 98.666145 111.314155 
L 103.03893 111.314155 
" clip-path="url(#p34514500af)" style="fill: none; stroke: #0578ff; stroke-opacity: 0.536364; stroke-width: 1.5; stroke-linecap: square"/>
   </g>
   <g id="line2d_16">
    <path d="M 11.210445 111.314155 
L 15.58323 92.745159 
L 19.956015 64.891665 
L 24.3288 92.745159 
L 28.701585 111.314155 
L 33.07437 83.460661 
L 37.447155 92.745159 
L 41.81994 102.029657 
L 46.192725 111.314155 
L 50.56551 111.314155 
L 54.938295 111.314155 
L 59.31108 102.029657 
L 63.683865 111.314155 
L 68.05665 111.314155 
L 72.429435 111.314155 
L 76.80222 102.029657 
L 81.175005 102.029657 
L 85.54779 111.314155 
L 89.920575 111.314155 
L 94.29336 102.029657 
L 98.666145 102.029657 
L 103.03893 111.314155 
" clip-path="url(#p34514500af)" style="fill: none; stroke: #000000; stroke-opacity: 0.536364; stroke-width: 1.5; stroke-linecap: square"/>
   </g>
  </g>
  <g id="axes_7">
   <g id="FillBetweenPolyCollection_6">
    <defs>
     <path id="m7766b5c48e" d="M 11.439877 -214.681641 
L 11.439877 -214.681641 
L 16.758489 -214.681641 
L 22.077101 -214.681641 
L 27.395714 -214.681641 
L 32.714326 -214.681641 
L 38.032938 -214.681641 
L 43.35155 -214.681641 
L 48.670162 -214.681641 
L 53.988775 -214.681641 
L 59.307387 -214.681641 
L 64.625999 -214.681641 
L 69.944611 -214.681641 
L 75.263223 -214.681641 
L 80.581835 -214.681641 
L 85.900448 -214.681641 
L 91.21906 -214.681641 
L 96.537672 -214.681641 
L 101.856284 -214.681641 
L 107.174896 -214.681641 
L 112.493509 -214.681641 
L 117.812121 -214.681641 
L 123.130733 -214.681641 
L 123.130733 -214.681641 
L 123.130733 -214.681641 
L 117.812121 -223.966139 
L 112.493509 -214.681641 
L 107.174896 -214.681641 
L 101.856284 -214.681641 
L 96.537672 -214.681641 
L 91.21906 -214.681641 
L 85.900448 -214.681641 
L 80.581835 -223.966139 
L 75.263223 -233.250636 
L 69.944611 -214.681641 
L 64.625999 -223.966139 
L 59.307387 -214.681641 
L 53.988775 -214.681641 
L 48.670162 -223.966139 
L 43.35155 -242.535134 
L 38.032938 -233.250636 
L 32.714326 -214.681641 
L 27.395714 -242.535134 
L 22.077101 -261.10413 
L 16.758489 -223.966139 
L 11.439877 -214.681641 
z
" style="stroke: #0578ff; stroke-opacity: 0.563636"/>
    </defs>
    <g clip-path="url(#p3d9fa8d080)">
     <use xlink:href="#m7766b5c48e" x="0" y="337.40125" style="fill: #0578ff; fill-opacity: 0.563636; stroke: #0578ff; stroke-opacity: 0.563636"/>
    </g>
   </g>
   <g id="line2d_17">
    <path d="M 11.439877 122.719609 
L 16.758489 122.719609 
L 22.077101 122.719609 
L 27.395714 122.719609 
L 32.714326 122.719609 
L 38.032938 122.719609 
L 43.35155 122.719609 
L 48.670162 122.719609 
L 53.988775 122.719609 
L 59.307387 122.719609 
L 64.625999 122.719609 
L 69.944611 122.719609 
L 75.263223 122.719609 
L 80.581835 122.719609 
L 85.900448 122.719609 
L 91.21906 122.719609 
L 96.537672 122.719609 
L 101.856284 122.719609 
L 107.174896 122.719609 
L 112.493509 122.719609 
L 117.812121 122.719609 
L 123.130733 122.719609 
" clip-path="url(#p3d9fa8d080)" style="fill: none; stroke: #0578ff; stroke-opacity: 0.563636; stroke-width: 1.5; stroke-linecap: square"/>
   </g>
   <g id="line2d_18">
    <path d="M 11.439877 122.719609 
L 16.758489 113.435111 
L 22.077101 76.29712 
L 27.395714 94.866116 
L 32.714326 122.719609 
L 38.032938 104.150614 
L 43.35155 94.866116 
L 48.670162 113.435111 
L 53.988775 122.719609 
L 59.307387 122.719609 
L 64.625999 113.435111 
L 69.944611 122.719609 
L 75.263223 104.150614 
L 80.581835 113.435111 
L 85.900448 122.719609 
L 91.21906 122.719609 
L 96.537672 122.719609 
L 101.856284 122.719609 
L 107.174896 122.719609 
L 112.493509 122.719609 
L 117.812121 113.435111 
L 123.130733 122.719609 
" clip-path="url(#p3d9fa8d080)" style="fill: none; stroke: #000000; stroke-opacity: 0.563636; stroke-width: 1.5; stroke-linecap: square"/>
   </g>
  </g>
  <g id="axes_8">
   <g id="FillBetweenPolyCollection_7">
    <defs>
     <path id="m2177b8b648" d="M 9.902577 -203.276186 
L 9.902577 -203.276186 
L 14.607757 -203.276186 
L 19.312936 -203.276186 
L 24.018116 -203.276186 
L 28.723295 -203.276186 
L 33.428475 -203.276186 
L 38.133655 -203.276186 
L 42.838834 -203.276186 
L 47.544014 -203.276186 
L 52.249193 -203.276186 
L 56.954373 -203.276186 
L 61.659552 -203.276186 
L 66.364732 -203.276186 
L 71.069911 -203.276186 
L 75.775091 -203.276186 
L 80.48027 -203.276186 
L 85.18545 -203.276186 
L 89.89063 -203.276186 
L 94.595809 -203.276186 
L 99.300989 -203.276186 
L 104.006168 -203.276186 
L 108.711348 -203.276186 
L 108.711348 -203.276186 
L 108.711348 -203.276186 
L 104.006168 -212.560684 
L 99.300989 -203.276186 
L 94.595809 -203.276186 
L 89.89063 -203.276186 
L 85.18545 -212.560684 
L 80.48027 -212.560684 
L 75.775091 -203.276186 
L 71.069911 -203.276186 
L 66.364732 -203.276186 
L 61.659552 -203.276186 
L 56.954373 -221.845182 
L 52.249193 -221.845182 
L 47.544014 -203.276186 
L 42.838834 -231.12968 
L 38.133655 -212.560684 
L 33.428475 -203.276186 
L 28.723295 -221.845182 
L 24.018116 -231.12968 
L 19.312936 -231.12968 
L 14.607757 -212.560684 
L 9.902577 -203.276186 
z
" style="stroke: #0578ff; stroke-opacity: 0.590909"/>
    </defs>
    <g clip-path="url(#p1a65e5471f)">
     <use xlink:href="#m2177b8b648" x="0" y="337.40125" style="fill: #0578ff; fill-opacity: 0.590909; stroke: #0578ff; stroke-opacity: 0.590909"/>
    </g>
   </g>
   <g id="line2d_19">
    <path d="M 9.902577 134.125064 
L 14.607757 134.125064 
L 19.312936 134.125064 
L 24.018116 134.125064 
L 28.723295 134.125064 
L 33.428475 134.125064 
L 38.133655 134.125064 
L 42.838834 134.125064 
L 47.544014 134.125064 
L 52.249193 134.125064 
L 56.954373 134.125064 
L 61.659552 134.125064 
L 66.364732 134.125064 
L 71.069911 134.125064 
L 75.775091 134.125064 
L 80.48027 134.125064 
L 85.18545 134.125064 
L 89.89063 134.125064 
L 94.595809 134.125064 
L 99.300989 134.125064 
L 104.006168 134.125064 
L 108.711348 134.125064 
" clip-path="url(#p1a65e5471f)" style="fill: none; stroke: #0578ff; stroke-opacity: 0.590909; stroke-width: 1.5; stroke-linecap: square"/>
   </g>
   <g id="line2d_20">
    <path d="M 9.902577 134.125064 
L 14.607757 124.840566 
L 19.312936 106.27157 
L 24.018116 106.27157 
L 28.723295 115.556068 
L 33.428475 134.125064 
L 38.133655 124.840566 
L 42.838834 106.27157 
L 47.544014 134.125064 
L 52.249193 115.556068 
L 56.954373 115.556068 
L 61.659552 134.125064 
L 66.364732 134.125064 
L 71.069911 134.125064 
L 75.775091 134.125064 
L 80.48027 124.840566 
L 85.18545 124.840566 
L 89.89063 134.125064 
L 94.595809 134.125064 
L 99.300989 134.125064 
L 104.006168 124.840566 
L 108.711348 134.125064 
" clip-path="url(#p1a65e5471f)" style="fill: none; stroke: #000000; stroke-opacity: 0.590909; stroke-width: 1.5; stroke-linecap: square"/>
   </g>
  </g>
  <g id="axes_9">
   <g id="FillBetweenPolyCollection_8">
    <defs>
     <path id="m765da4fc52" d="M 9.521621 -191.870732 
L 9.521621 -191.870732 
L 13.633432 -191.870732 
L 17.745242 -191.870732 
L 21.857052 -191.870732 
L 25.968863 -191.870732 
L 30.080673 -191.870732 
L 34.192483 -191.870732 
L 38.304294 -191.870732 
L 42.416104 -191.870732 
L 46.527914 -191.870732 
L 50.639725 -191.870732 
L 54.751535 -191.870732 
L 58.863346 -191.870732 
L 62.975156 -191.870732 
L 67.086966 -191.870732 
L 71.198777 -191.870732 
L 75.310587 -191.870732 
L 79.422397 -191.870732 
L 83.534208 -191.870732 
L 87.646018 -191.870732 
L 91.757828 -191.870732 
L 95.869639 -191.870732 
L 95.869639 -191.870732 
L 95.869639 -191.870732 
L 91.757828 -201.155229 
L 87.646018 -191.870732 
L 83.534208 -201.155229 
L 79.422397 -201.155229 
L 75.310587 -191.870732 
L 71.198777 -191.870732 
L 67.086966 -191.870732 
L 62.975156 -201.155229 
L 58.863346 -191.870732 
L 54.751535 -201.155229 
L 50.639725 -191.870732 
L 46.527914 -201.155229 
L 42.416104 -201.155229 
L 38.304294 -210.439727 
L 34.192483 -201.155229 
L 30.080673 -201.155229 
L 25.968863 -219.724225 
L 21.857052 -201.155229 
L 17.745242 -229.008723 
L 13.633432 -201.155229 
L 9.521621 -191.870732 
z
" style="stroke: #0578ff; stroke-opacity: 0.618182"/>
    </defs>
    <g clip-path="url(#p96c84d7c71)">
     <use xlink:href="#m765da4fc52" x="0" y="337.40125" style="fill: #0578ff; fill-opacity: 0.618182; stroke: #0578ff; stroke-opacity: 0.618182"/>
    </g>
   </g>
   <g id="line2d_21">
    <path d="M 9.521621 145.530518 
L 13.633432 145.530518 
L 17.745242 145.530518 
L 21.857052 145.530518 
L 25.968863 145.530518 
L 30.080673 145.530518 
L 34.192483 145.530518 
L 38.304294 145.530518 
L 42.416104 145.530518 
L 46.527914 145.530518 
L 50.639725 145.530518 
L 54.751535 145.530518 
L 58.863346 145.530518 
L 62.975156 145.530518 
L 67.086966 145.530518 
L 71.198777 145.530518 
L 75.310587 145.530518 
L 79.422397 145.530518 
L 83.534208 145.530518 
L 87.646018 145.530518 
L 91.757828 145.530518 
L 95.869639 145.530518 
" clip-path="url(#p96c84d7c71)" style="fill: none; stroke: #0578ff; stroke-opacity: 0.618182; stroke-width: 1.5; stroke-linecap: square"/>
   </g>
   <g id="line2d_22">
    <path d="M 9.521621 145.530518 
L 13.633432 136.246021 
L 17.745242 108.392527 
L 21.857052 136.246021 
L 25.968863 117.677025 
L 30.080673 136.246021 
L 34.192483 136.246021 
L 38.304294 126.961523 
L 42.416104 136.246021 
L 46.527914 136.246021 
L 50.639725 145.530518 
L 54.751535 136.246021 
L 58.863346 145.530518 
L 62.975156 136.246021 
L 67.086966 145.530518 
L 71.198777 145.530518 
L 75.310587 145.530518 
L 79.422397 136.246021 
L 83.534208 136.246021 
L 87.646018 145.530518 
L 91.757828 136.246021 
L 95.869639 145.530518 
" clip-path="url(#p96c84d7c71)" style="fill: none; stroke: #000000; stroke-opacity: 0.618182; stroke-width: 1.5; stroke-linecap: square"/>
   </g>
  </g>
  <g id="axes_10">
   <g id="FillBetweenPolyCollection_9">
    <defs>
     <path id="m9c1d91090a" d="M 14.435421 -180.465277 
L 14.435421 -180.465277 
L 18.7838 -180.465277 
L 23.13218 -180.465277 
L 27.480559 -180.465277 
L 31.828939 -180.465277 
L 36.177318 -180.465277 
L 40.525697 -180.465277 
L 44.874077 -180.465277 
L 49.222456 -180.465277 
L 53.570836 -180.465277 
L 57.919215 -180.465277 
L 62.267595 -180.465277 
L 66.615974 -180.465277 
L 70.964354 -180.465277 
L 75.312733 -180.465277 
L 79.661113 -180.465277 
L 84.009492 -180.465277 
L 88.357871 -180.465277 
L 92.706251 -180.465277 
L 97.05463 -180.465277 
L 101.40301 -180.465277 
L 105.751389 -180.465277 
L 105.751389 -180.465277 
L 105.751389 -180.465277 
L 101.40301 -189.749775 
L 97.05463 -180.465277 
L 92.706251 -180.465277 
L 88.357871 -180.465277 
L 84.009492 -180.465277 
L 79.661113 -180.465277 
L 75.312733 -189.749775 
L 70.964354 -199.034273 
L 66.615974 -189.749775 
L 62.267595 -180.465277 
L 57.919215 -180.465277 
L 53.570836 -189.749775 
L 49.222456 -180.465277 
L 44.874077 -189.749775 
L 40.525697 -189.749775 
L 36.177318 -189.749775 
L 31.828939 -199.034273 
L 27.480559 -226.887766 
L 23.13218 -199.034273 
L 18.7838 -199.034273 
L 14.435421 -180.465277 
z
" style="stroke: #0578ff; stroke-opacity: 0.645455"/>
    </defs>
    <g clip-path="url(#p8440283af5)">
     <use xlink:href="#m9c1d91090a" x="0" y="337.40125" style="fill: #0578ff; fill-opacity: 0.645455; stroke: #0578ff; stroke-opacity: 0.645455"/>
    </g>
   </g>
   <g id="line2d_23">
    <path d="M 14.435421 156.935973 
L 18.7838 156.935973 
L 23.13218 156.935973 
L 27.480559 156.935973 
L 31.828939 156.935973 
L 36.177318 156.935973 
L 40.525697 156.935973 
L 44.874077 156.935973 
L 49.222456 156.935973 
L 53.570836 156.935973 
L 57.919215 156.935973 
L 62.267595 156.935973 
L 66.615974 156.935973 
L 70.964354 156.935973 
L 75.312733 156.935973 
L 79.661113 156.935973 
L 84.009492 156.935973 
L 88.357871 156.935973 
L 92.706251 156.935973 
L 97.05463 156.935973 
L 101.40301 156.935973 
L 105.751389 156.935973 
" clip-path="url(#p8440283af5)" style="fill: none; stroke: #0578ff; stroke-opacity: 0.645455; stroke-width: 1.5; stroke-linecap: square"/>
   </g>
   <g id="line2d_24">
    <path d="M 14.435421 156.935973 
L 18.7838 138.366977 
L 23.13218 138.366977 
L 27.480559 110.513484 
L 31.828939 138.366977 
L 36.177318 147.651475 
L 40.525697 147.651475 
L 44.874077 147.651475 
L 49.222456 156.935973 
L 53.570836 147.651475 
L 57.919215 156.935973 
L 62.267595 156.935973 
L 66.615974 147.651475 
L 70.964354 138.366977 
L 75.312733 147.651475 
L 79.661113 156.935973 
L 84.009492 156.935973 
L 88.357871 156.935973 
L 92.706251 156.935973 
L 97.05463 156.935973 
L 101.40301 147.651475 
L 105.751389 156.935973 
" clip-path="url(#p8440283af5)" style="fill: none; stroke: #000000; stroke-opacity: 0.645455; stroke-width: 1.5; stroke-linecap: square"/>
   </g>
  </g>
  <g id="axes_11">
   <g id="FillBetweenPolyCollection_10">
    <defs>
     <path id="me38c55395a" d="M 19.152578 -169.059823 
L 19.152578 -169.059823 
L 24.008533 -169.059823 
L 28.864488 -169.059823 
L 33.720443 -169.059823 
L 38.576398 -169.059823 
L 43.432353 -169.059823 
L 48.288308 -169.059823 
L 53.144263 -169.059823 
L 58.000218 -169.059823 
L 62.856173 -169.059823 
L 67.712128 -169.059823 
L 72.568082 -169.059823 
L 77.424037 -169.059823 
L 82.279992 -169.059823 
L 87.135947 -169.059823 
L 91.991902 -169.059823 
L 96.847857 -169.059823 
L 101.703812 -169.059823 
L 106.559767 -169.059823 
L 111.415722 -169.059823 
L 116.271677 -169.059823 
L 121.127632 -169.059823 
L 121.127632 -169.059823 
L 121.127632 -169.059823 
L 116.271677 -178.34432 
L 111.415722 -169.059823 
L 106.559767 -169.059823 
L 101.703812 -169.059823 
L 96.847857 -169.059823 
L 91.991902 -169.059823 
L 87.135947 -178.34432 
L 82.279992 -178.34432 
L 77.424037 -187.628818 
L 72.568082 -178.34432 
L 67.712128 -169.059823 
L 62.856173 -169.059823 
L 58.000218 -169.059823 
L 53.144263 -178.34432 
L 48.288308 -169.059823 
L 43.432353 -178.34432 
L 38.576398 -169.059823 
L 33.720443 -196.913316 
L 28.864488 -224.76681 
L 24.008533 -196.913316 
L 19.152578 -169.059823 
z
" style="stroke: #0578ff; stroke-opacity: 0.672727"/>
    </defs>
    <g clip-path="url(#p6ebc288c40)">
     <use xlink:href="#me38c55395a" x="0" y="337.40125" style="fill: #0578ff; fill-opacity: 0.672727; stroke: #0578ff; stroke-opacity: 0.672727"/>
    </g>
   </g>
   <g id="line2d_25">
    <path d="M 19.152578 168.341427 
L 24.008533 168.341427 
L 28.864488 168.341427 
L 33.720443 168.341427 
L 38.576398 168.341427 
L 43.432353 168.341427 
L 48.288308 168.341427 
L 53.144263 168.341427 
L 58.000218 168.341427 
L 62.856173 168.341427 
L 67.712128 168.341427 
L 72.568082 168.341427 
L 77.424037 168.341427 
L 82.279992 168.341427 
L 87.135947 168.341427 
L 91.991902 168.341427 
L 96.847857 168.341427 
L 101.703812 168.341427 
L 106.559767 168.341427 
L 111.415722 168.341427 
L 116.271677 168.341427 
L 121.127632 168.341427 
" clip-path="url(#p6ebc288c40)" style="fill: none; stroke: #0578ff; stroke-opacity: 0.672727; stroke-width: 1.5; stroke-linecap: square"/>
   </g>
   <g id="line2d_26">
    <path d="M 19.152578 168.341427 
L 24.008533 140.487934 
L 28.864488 112.63444 
L 33.720443 140.487934 
L 38.576398 168.341427 
L 43.432353 159.05693 
L 48.288308 168.341427 
L 53.144263 159.05693 
L 58.000218 168.341427 
L 62.856173 168.341427 
L 67.712128 168.341427 
L 72.568082 159.05693 
L 77.424037 149.772432 
L 82.279992 159.05693 
L 87.135947 159.05693 
L 91.991902 168.341427 
L 96.847857 168.341427 
L 101.703812 168.341427 
L 106.559767 168.341427 
L 111.415722 168.341427 
L 116.271677 159.05693 
L 121.127632 168.341427 
" clip-path="url(#p6ebc288c40)" style="fill: none; stroke: #000000; stroke-opacity: 0.672727; stroke-width: 1.5; stroke-linecap: square"/>
   </g>
  </g>
  <g id="axes_12">
   <g id="FillBetweenPolyCollection_11">
    <defs>
     <path id="m6373004ceb" d="M 10.687897 -157.654368 
L 10.687897 -157.654368 
L 15.102605 -157.654368 
L 19.517314 -157.654368 
L 23.932023 -157.654368 
L 28.346731 -157.654368 
L 32.76144 -157.654368 
L 37.176149 -157.654368 
L 41.590857 -157.654368 
L 46.005566 -157.654368 
L 50.420275 -157.654368 
L 54.834983 -157.654368 
L 59.249692 -157.654368 
L 63.6644 -157.654368 
L 68.079109 -157.654368 
L 72.493818 -157.654368 
L 76.908526 -157.654368 
L 81.323235 -157.654368 
L 85.737944 -157.654368 
L 90.152652 -157.654368 
L 94.567361 -157.654368 
L 98.98207 -157.654368 
L 103.396778 -157.654368 
L 103.396778 -157.654368 
L 103.396778 -157.654368 
L 98.98207 -166.938866 
L 94.567361 -157.654368 
L 90.152652 -157.654368 
L 85.737944 -157.654368 
L 81.323235 -176.223364 
L 76.908526 -166.938866 
L 72.493818 -166.938866 
L 68.079109 -166.938866 
L 63.6644 -157.654368 
L 59.249692 -157.654368 
L 54.834983 -166.938866 
L 50.420275 -157.654368 
L 46.005566 -157.654368 
L 41.590857 -176.223364 
L 37.176149 -166.938866 
L 32.76144 -176.223364 
L 28.346731 -185.507862 
L 23.932023 -185.507862 
L 19.517314 -166.938866 
L 15.102605 -166.938866 
L 10.687897 -157.654368 
z
" style="stroke: #0578ff; stroke-opacity: 0.7"/>
    </defs>
    <g clip-path="url(#p44f76baaa9)">
     <use xlink:href="#m6373004ceb" x="0" y="337.40125" style="fill: #0578ff; fill-opacity: 0.7; stroke: #0578ff; stroke-opacity: 0.7"/>
    </g>
   </g>
   <g id="line2d_27">
    <path d="M 10.687897 179.746882 
L 15.102605 179.746882 
L 19.517314 179.746882 
L 23.932023 179.746882 
L 28.346731 179.746882 
L 32.76144 179.746882 
L 37.176149 179.746882 
L 41.590857 179.746882 
L 46.005566 179.746882 
L 50.420275 179.746882 
L 54.834983 179.746882 
L 59.249692 179.746882 
L 63.6644 179.746882 
L 68.079109 179.746882 
L 72.493818 179.746882 
L 76.908526 179.746882 
L 81.323235 179.746882 
L 85.737944 179.746882 
L 90.152652 179.746882 
L 94.567361 179.746882 
L 98.98207 179.746882 
L 103.396778 179.746882 
" clip-path="url(#p44f76baaa9)" style="fill: none; stroke: #0578ff; stroke-opacity: 0.7; stroke-width: 1.5; stroke-linecap: square"/>
   </g>
   <g id="line2d_28">
    <path d="M 10.687897 179.746882 
L 15.102605 170.462384 
L 19.517314 170.462384 
L 23.932023 151.893388 
L 28.346731 151.893388 
L 32.76144 161.177886 
L 37.176149 170.462384 
L 41.590857 161.177886 
L 46.005566 179.746882 
L 50.420275 179.746882 
L 54.834983 170.462384 
L 59.249692 179.746882 
L 63.6644 179.746882 
L 68.079109 170.462384 
L 72.493818 170.462384 
L 76.908526 170.462384 
L 81.323235 161.177886 
L 85.737944 179.746882 
L 90.152652 179.746882 
L 94.567361 179.746882 
L 98.98207 170.462384 
L 103.396778 179.746882 
" clip-path="url(#p44f76baaa9)" style="fill: none; stroke: #000000; stroke-opacity: 0.7; stroke-width: 1.5; stroke-linecap: square"/>
   </g>
  </g>
  <g id="axes_13">
   <g id="FillBetweenPolyCollection_12">
    <defs>
     <path id="m558ee45ddb" d="M 9.693957 -146.248913 
L 9.693957 -146.248913 
L 15.708502 -146.248913 
L 21.723046 -146.248913 
L 27.737591 -146.248913 
L 33.752135 -146.248913 
L 39.76668 -146.248913 
L 45.781225 -146.248913 
L 51.795769 -146.248913 
L 57.810314 -146.248913 
L 63.824858 -146.248913 
L 69.839403 -146.248913 
L 75.853947 -146.248913 
L 81.868492 -146.248913 
L 87.883036 -146.248913 
L 93.897581 -146.248913 
L 99.912125 -146.248913 
L 105.92667 -146.248913 
L 111.941215 -146.248913 
L 117.955759 -146.248913 
L 123.970304 -146.248913 
L 129.984848 -146.248913 
L 135.999393 -146.248913 
L 135.999393 -146.248913 
L 135.999393 -146.248913 
L 129.984848 -155.533411 
L 123.970304 -146.248913 
L 117.955759 -146.248913 
L 111.941215 -146.248913 
L 105.92667 -146.248913 
L 99.912125 -155.533411 
L 93.897581 -155.533411 
L 87.883036 -155.533411 
L 81.868492 -146.248913 
L 75.853947 -146.248913 
L 69.839403 -146.248913 
L 63.824858 -155.533411 
L 57.810314 -164.817909 
L 51.795769 -146.248913 
L 45.781225 -146.248913 
L 39.76668 -164.817909 
L 33.752135 -174.102407 
L 27.737591 -183.386905 
L 21.723046 -174.102407 
L 15.708502 -155.533411 
L 9.693957 -146.248913 
z
" style="stroke: #0578ff; stroke-opacity: 0.727273"/>
    </defs>
    <g clip-path="url(#pd8c2a3c225)">
     <use xlink:href="#m558ee45ddb" x="0" y="337.40125" style="fill: #0578ff; fill-opacity: 0.727273; stroke: #0578ff; stroke-opacity: 0.727273"/>
    </g>
   </g>
   <g id="line2d_29">
    <path d="M 9.693957 191.152337 
L 15.708502 191.152337 
L 21.723046 191.152337 
L 27.737591 191.152337 
L 33.752135 191.152337 
L 39.76668 191.152337 
L 45.781225 191.152337 
L 51.795769 191.152337 
L 57.810314 191.152337 
L 63.824858 191.152337 
L 69.839403 191.152337 
L 75.853947 191.152337 
L 81.868492 191.152337 
L 87.883036 191.152337 
L 93.897581 191.152337 
L 99.912125 191.152337 
L 105.92667 191.152337 
L 111.941215 191.152337 
L 117.955759 191.152337 
L 123.970304 191.152337 
L 129.984848 191.152337 
L 135.999393 191.152337 
" clip-path="url(#pd8c2a3c225)" style="fill: none; stroke: #0578ff; stroke-opacity: 0.727273; stroke-width: 1.5; stroke-linecap: square"/>
   </g>
   <g id="line2d_30">
    <path d="M 9.693957 191.152337 
L 15.708502 181.867839 
L 21.723046 163.298843 
L 27.737591 154.014345 
L 33.752135 163.298843 
L 39.76668 172.583341 
L 45.781225 191.152337 
L 51.795769 191.152337 
L 57.810314 172.583341 
L 63.824858 181.867839 
L 69.839403 191.152337 
L 75.853947 191.152337 
L 81.868492 191.152337 
L 87.883036 181.867839 
L 93.897581 181.867839 
L 99.912125 181.867839 
L 105.92667 191.152337 
L 111.941215 191.152337 
L 117.955759 191.152337 
L 123.970304 191.152337 
L 129.984848 181.867839 
L 135.999393 191.152337 
" clip-path="url(#pd8c2a3c225)" style="fill: none; stroke: #000000; stroke-opacity: 0.727273; stroke-width: 1.5; stroke-linecap: square"/>
   </g>
  </g>
  <g id="axes_14">
   <g id="FillBetweenPolyCollection_13">
    <defs>
     <path id="md10ae0580a" d="M 8.081295 -134.843459 
L 8.081295 -134.843459 
L 14.975936 -134.843459 
L 21.870578 -134.843459 
L 28.765219 -134.843459 
L 35.659861 -134.843459 
L 42.554502 -134.843459 
L 49.449143 -134.843459 
L 56.343785 -134.843459 
L 63.238426 -134.843459 
L 70.133068 -134.843459 
L 77.027709 -134.843459 
L 83.922351 -134.843459 
L 90.816992 -134.843459 
L 97.711634 -134.843459 
L 104.606275 -134.843459 
L 111.500917 -134.843459 
L 118.395558 -134.843459 
L 125.290199 -134.843459 
L 132.184841 -134.843459 
L 139.079482 -134.843459 
L 145.974124 -134.843459 
L 152.868765 -134.843459 
L 152.868765 -134.843459 
L 152.868765 -134.843459 
L 145.974124 -144.127957 
L 139.079482 -134.843459 
L 132.184841 -134.843459 
L 125.290199 -134.843459 
L 118.395558 -134.843459 
L 111.500917 -144.127957 
L 104.606275 -144.127957 
L 97.711634 -144.127957 
L 90.816992 -134.843459 
L 83.922351 -134.843459 
L 77.027709 -144.127957 
L 70.133068 -153.412455 
L 63.238426 -134.843459 
L 56.343785 -134.843459 
L 49.449143 -162.696952 
L 42.554502 -144.127957 
L 35.659861 -162.696952 
L 28.765219 -134.843459 
L 21.870578 -181.265948 
L 14.975936 -144.127957 
L 8.081295 -134.843459 
z
" style="stroke: #0578ff; stroke-opacity: 0.754545"/>
    </defs>
    <g clip-path="url(#p774bec2d68)">
     <use xlink:href="#md10ae0580a" x="0" y="337.40125" style="fill: #0578ff; fill-opacity: 0.754545; stroke: #0578ff; stroke-opacity: 0.754545"/>
    </g>
   </g>
   <g id="line2d_31">
    <path d="M 8.081295 202.557791 
L 14.975936 202.557791 
L 21.870578 202.557791 
L 28.765219 202.557791 
L 35.659861 202.557791 
L 42.554502 202.557791 
L 49.449143 202.557791 
L 56.343785 202.557791 
L 63.238426 202.557791 
L 70.133068 202.557791 
L 77.027709 202.557791 
L 83.922351 202.557791 
L 90.816992 202.557791 
L 97.711634 202.557791 
L 104.606275 202.557791 
L 111.500917 202.557791 
L 118.395558 202.557791 
L 125.290199 202.557791 
L 132.184841 202.557791 
L 139.079482 202.557791 
L 145.974124 202.557791 
L 152.868765 202.557791 
" clip-path="url(#p774bec2d68)" style="fill: none; stroke: #0578ff; stroke-opacity: 0.754545; stroke-width: 1.5; stroke-linecap: square"/>
   </g>
   <g id="line2d_32">
    <path d="M 8.081295 202.557791 
L 14.975936 193.273293 
L 21.870578 156.135302 
L 28.765219 202.557791 
L 35.659861 174.704298 
L 42.554502 193.273293 
L 49.449143 174.704298 
L 56.343785 202.557791 
L 63.238426 202.557791 
L 70.133068 183.988795 
L 77.027709 193.273293 
L 83.922351 202.557791 
L 90.816992 202.557791 
L 97.711634 193.273293 
L 104.606275 193.273293 
L 111.500917 193.273293 
L 118.395558 202.557791 
L 125.290199 202.557791 
L 132.184841 202.557791 
L 139.079482 202.557791 
L 145.974124 193.273293 
L 152.868765 202.557791 
" clip-path="url(#p774bec2d68)" style="fill: none; stroke: #000000; stroke-opacity: 0.754545; stroke-width: 1.5; stroke-linecap: square"/>
   </g>
  </g>
  <g id="axes_15">
   <g id="FillBetweenPolyCollection_14">
    <defs>
     <path id="m2d13fa2ef1" d="M 8.25967 -123.438004 
L 8.25967 -123.438004 
L 17.322212 -123.438004 
L 26.384755 -123.438004 
L 35.447298 -123.438004 
L 44.50984 -123.438004 
L 53.572383 -123.438004 
L 62.634926 -123.438004 
L 71.697468 -123.438004 
L 80.760011 -123.438004 
L 89.822554 -123.438004 
L 98.885096 -123.438004 
L 107.947639 -123.438004 
L 117.010181 -123.438004 
L 126.072724 -123.438004 
L 135.135267 -123.438004 
L 144.197809 -123.438004 
L 153.260352 -123.438004 
L 162.322895 -123.438004 
L 171.385437 -123.438004 
L 180.44798 -123.438004 
L 189.510523 -123.438004 
L 198.573065 -123.438004 
L 198.573065 -123.438004 
L 198.573065 -123.438004 
L 189.510523 -132.722502 
L 180.44798 -123.438004 
L 171.385437 -123.438004 
L 162.322895 -123.438004 
L 153.260352 -123.438004 
L 144.197809 -142.007 
L 135.135267 -132.722502 
L 126.072724 -123.438004 
L 117.010181 -142.007 
L 107.947639 -123.438004 
L 98.885096 -123.438004 
L 89.822554 -123.438004 
L 80.760011 -123.438004 
L 71.697468 -132.722502 
L 62.634926 -142.007 
L 53.572383 -132.722502 
L 44.50984 -142.007 
L 35.447298 -151.291498 
L 26.384755 -160.575996 
L 17.322212 -132.722502 
L 8.25967 -123.438004 
z
" style="stroke: #0578ff; stroke-opacity: 0.781818"/>
    </defs>
    <g clip-path="url(#pe3be288c90)">
     <use xlink:href="#m2d13fa2ef1" x="0" y="337.40125" style="fill: #0578ff; fill-opacity: 0.781818; stroke: #0578ff; stroke-opacity: 0.781818"/>
    </g>
   </g>
   <g id="line2d_33">
    <path d="M 8.25967 213.963246 
L 17.322212 213.963246 
L 26.384755 213.963246 
L 35.447298 213.963246 
L 44.50984 213.963246 
L 53.572383 213.963246 
L 62.634926 213.963246 
L 71.697468 213.963246 
L 80.760011 213.963246 
L 89.822554 213.963246 
L 98.885096 213.963246 
L 107.947639 213.963246 
L 117.010181 213.963246 
L 126.072724 213.963246 
L 135.135267 213.963246 
L 144.197809 213.963246 
L 153.260352 213.963246 
L 162.322895 213.963246 
L 171.385437 213.963246 
L 180.44798 213.963246 
L 189.510523 213.963246 
L 198.573065 213.963246 
" clip-path="url(#pe3be288c90)" style="fill: none; stroke: #0578ff; stroke-opacity: 0.781818; stroke-width: 1.5; stroke-linecap: square"/>
   </g>
   <g id="line2d_34">
    <path d="M 8.25967 213.963246 
L 17.322212 204.678748 
L 26.384755 176.825254 
L 35.447298 186.109752 
L 44.50984 195.39425 
L 53.572383 204.678748 
L 62.634926 195.39425 
L 71.697468 204.678748 
L 80.760011 213.963246 
L 89.822554 213.963246 
L 98.885096 213.963246 
L 107.947639 213.963246 
L 117.010181 195.39425 
L 126.072724 213.963246 
L 135.135267 204.678748 
L 144.197809 195.39425 
L 153.260352 213.963246 
L 162.322895 213.963246 
L 171.385437 213.963246 
L 180.44798 213.963246 
L 189.510523 204.678748 
L 198.573065 213.963246 
" clip-path="url(#pe3be288c90)" style="fill: none; stroke: #000000; stroke-opacity: 0.781818; stroke-width: 1.5; stroke-linecap: square"/>
   </g>
  </g>
  <g id="axes_16">
   <g id="FillBetweenPolyCollection_15">
    <defs>
     <path id="meb27bebc16" d="M 5.867777 -112.03255 
L 5.867777 -112.03255 
L 18.093308 -112.03255 
L 30.318839 -112.03255 
L 42.54437 -112.03255 
L 54.769902 -112.03255 
L 66.995433 -112.03255 
L 79.220964 -112.03255 
L 91.446496 -112.03255 
L 103.672027 -112.03255 
L 115.897558 -112.03255 
L 128.123089 -112.03255 
L 140.348621 -112.03255 
L 152.574152 -112.03255 
L 164.799683 -112.03255 
L 177.025214 -112.03255 
L 189.250746 -112.03255 
L 201.476277 -112.03255 
L 213.701808 -112.03255 
L 225.92734 -112.03255 
L 238.152871 -112.03255 
L 250.378402 -112.03255 
L 262.603933 -112.03255 
L 262.603933 -112.03255 
L 262.603933 -112.03255 
L 250.378402 -121.317048 
L 238.152871 -112.03255 
L 225.92734 -112.03255 
L 213.701808 -112.03255 
L 201.476277 -112.03255 
L 189.250746 -121.317048 
L 177.025214 -121.317048 
L 164.799683 -121.317048 
L 152.574152 -112.03255 
L 140.348621 -112.03255 
L 128.123089 -121.317048 
L 115.897558 -112.03255 
L 103.672027 -121.317048 
L 91.446496 -130.601546 
L 79.220964 -121.317048 
L 66.995433 -139.886043 
L 54.769902 -130.601546 
L 42.54437 -121.317048 
L 30.318839 -139.886043 
L 18.093308 -130.601546 
L 5.867777 -112.03255 
z
" style="stroke: #0578ff; stroke-opacity: 0.809091"/>
    </defs>
    <g clip-path="url(#pf650f4df82)">
     <use xlink:href="#meb27bebc16" x="0" y="337.40125" style="fill: #0578ff; fill-opacity: 0.809091; stroke: #0578ff; stroke-opacity: 0.809091"/>
    </g>
   </g>
   <g id="line2d_35">
    <path d="M 5.867777 225.3687 
L 18.093308 225.3687 
L 30.318839 225.3687 
L 42.54437 225.3687 
L 54.769902 225.3687 
L 66.995433 225.3687 
L 79.220964 225.3687 
L 91.446496 225.3687 
L 103.672027 225.3687 
L 115.897558 225.3687 
L 128.123089 225.3687 
L 140.348621 225.3687 
L 152.574152 225.3687 
L 164.799683 225.3687 
L 177.025214 225.3687 
L 189.250746 225.3687 
L 201.476277 225.3687 
L 213.701808 225.3687 
L 225.92734 225.3687 
L 238.152871 225.3687 
L 250.378402 225.3687 
L 262.603933 225.3687 
" clip-path="url(#pf650f4df82)" style="fill: none; stroke: #0578ff; stroke-opacity: 0.809091; stroke-width: 1.5; stroke-linecap: square"/>
   </g>
   <g id="line2d_36">
    <path d="M 5.867777 225.3687 
L 18.093308 206.799704 
L 30.318839 197.515207 
L 42.54437 216.084202 
L 54.769902 206.799704 
L 66.995433 197.515207 
L 79.220964 216.084202 
L 91.446496 206.799704 
L 103.672027 216.084202 
L 115.897558 225.3687 
L 128.123089 216.084202 
L 140.348621 225.3687 
L 152.574152 225.3687 
L 164.799683 216.084202 
L 177.025214 216.084202 
L 189.250746 216.084202 
L 201.476277 225.3687 
L 213.701808 225.3687 
L 225.92734 225.3687 
L 238.152871 225.3687 
L 250.378402 216.084202 
L 262.603933 225.3687 
" clip-path="url(#pf650f4df82)" style="fill: none; stroke: #000000; stroke-opacity: 0.809091; stroke-width: 1.5; stroke-linecap: square"/>
   </g>
  </g>
  <g id="axes_17">
   <g id="FillBetweenPolyCollection_16">
    <defs>
     <path id="m306cb7f2f4" d="M 9.39575 -100.627095 
L 9.39575 -100.627095 
L 18.522376 -100.627095 
L 27.649002 -100.627095 
L 36.775628 -100.627095 
L 45.902254 -100.627095 
L 55.02888 -100.627095 
L 64.155506 -100.627095 
L 73.282132 -100.627095 
L 82.408758 -100.627095 
L 91.535384 -100.627095 
L 100.66201 -100.627095 
L 109.788635 -100.627095 
L 118.915261 -100.627095 
L 128.041887 -100.627095 
L 137.168513 -100.627095 
L 146.295139 -100.627095 
L 155.421765 -100.627095 
L 164.548391 -100.627095 
L 173.675017 -100.627095 
L 182.801643 -100.627095 
L 191.928269 -100.627095 
L 201.054895 -100.627095 
L 201.054895 -100.627095 
L 201.054895 -100.627095 
L 191.928269 -109.911593 
L 182.801643 -100.627095 
L 173.675017 -109.911593 
L 164.548391 -100.627095 
L 155.421765 -109.911593 
L 146.295139 -100.627095 
L 137.168513 -100.627095 
L 128.041887 -100.627095 
L 118.915261 -119.196091 
L 109.788635 -100.627095 
L 100.66201 -100.627095 
L 91.535384 -128.480589 
L 82.408758 -100.627095 
L 73.282132 -100.627095 
L 64.155506 -100.627095 
L 55.02888 -128.480589 
L 45.902254 -137.765087 
L 36.775628 -119.196091 
L 27.649002 -119.196091 
L 18.522376 -109.911593 
L 9.39575 -100.627095 
z
" style="stroke: #0578ff; stroke-opacity: 0.836364"/>
    </defs>
    <g clip-path="url(#p25c0a370a1)">
     <use xlink:href="#m306cb7f2f4" x="0" y="337.40125" style="fill: #0578ff; fill-opacity: 0.836364; stroke: #0578ff; stroke-opacity: 0.836364"/>
    </g>
   </g>
   <g id="line2d_37">
    <path d="M 9.39575 236.774155 
L 18.522376 236.774155 
L 27.649002 236.774155 
L 36.775628 236.774155 
L 45.902254 236.774155 
L 55.02888 236.774155 
L 64.155506 236.774155 
L 73.282132 236.774155 
L 82.408758 236.774155 
L 91.535384 236.774155 
L 100.66201 236.774155 
L 109.788635 236.774155 
L 118.915261 236.774155 
L 128.041887 236.774155 
L 137.168513 236.774155 
L 146.295139 236.774155 
L 155.421765 236.774155 
L 164.548391 236.774155 
L 173.675017 236.774155 
L 182.801643 236.774155 
L 191.928269 236.774155 
L 201.054895 236.774155 
" clip-path="url(#p25c0a370a1)" style="fill: none; stroke: #0578ff; stroke-opacity: 0.836364; stroke-width: 1.5; stroke-linecap: square"/>
   </g>
   <g id="line2d_38">
    <path d="M 9.39575 236.774155 
L 18.522376 227.489657 
L 27.649002 218.205159 
L 36.775628 218.205159 
L 45.902254 199.636163 
L 55.02888 208.920661 
L 64.155506 236.774155 
L 73.282132 236.774155 
L 82.408758 236.774155 
L 91.535384 208.920661 
L 100.66201 236.774155 
L 109.788635 236.774155 
L 118.915261 218.205159 
L 128.041887 236.774155 
L 137.168513 236.774155 
L 146.295139 236.774155 
L 155.421765 227.489657 
L 164.548391 236.774155 
L 173.675017 227.489657 
L 182.801643 236.774155 
L 191.928269 227.489657 
L 201.054895 236.774155 
" clip-path="url(#p25c0a370a1)" style="fill: none; stroke: #000000; stroke-opacity: 0.836364; stroke-width: 1.5; stroke-linecap: square"/>
   </g>
  </g>
  <g id="axes_18">
   <g id="FillBetweenPolyCollection_17">
    <defs>
     <path id="m02e7cc793d" d="M 8.707604 -89.221641 
L 8.707604 -89.221641 
L 17.897415 -89.221641 
L 27.087226 -89.221641 
L 36.277036 -89.221641 
L 45.466847 -89.221641 
L 54.656658 -89.221641 
L 63.846469 -89.221641 
L 73.03628 -89.221641 
L 82.22609 -89.221641 
L 91.415901 -89.221641 
L 100.605712 -89.221641 
L 109.795523 -89.221641 
L 118.985334 -89.221641 
L 128.175145 -89.221641 
L 137.364955 -89.221641 
L 146.554766 -89.221641 
L 155.744577 -89.221641 
L 164.934388 -89.221641 
L 174.124199 -89.221641 
L 183.314009 -89.221641 
L 192.50382 -89.221641 
L 201.693631 -89.221641 
L 201.693631 -89.221641 
L 201.693631 -89.221641 
L 192.50382 -98.506139 
L 183.314009 -98.506139 
L 174.124199 -89.221641 
L 164.934388 -89.221641 
L 155.744577 -107.790636 
L 146.554766 -89.221641 
L 137.364955 -89.221641 
L 128.175145 -98.506139 
L 118.985334 -98.506139 
L 109.795523 -89.221641 
L 100.605712 -98.506139 
L 91.415901 -89.221641 
L 82.22609 -98.506139 
L 73.03628 -98.506139 
L 63.846469 -89.221641 
L 54.656658 -126.359632 
L 45.466847 -117.075134 
L 36.277036 -98.506139 
L 27.087226 -98.506139 
L 17.897415 -107.790636 
L 8.707604 -89.221641 
z
" style="stroke: #0578ff; stroke-opacity: 0.863636"/>
    </defs>
    <g clip-path="url(#pb6367d84fc)">
     <use xlink:href="#m02e7cc793d" x="0" y="337.40125" style="fill: #0578ff; fill-opacity: 0.863636; stroke: #0578ff; stroke-opacity: 0.863636"/>
    </g>
   </g>
   <g id="line2d_39">
    <path d="M 8.707604 248.179609 
L 17.897415 248.179609 
L 27.087226 248.179609 
L 36.277036 248.179609 
L 45.466847 248.179609 
L 54.656658 248.179609 
L 63.846469 248.179609 
L 73.03628 248.179609 
L 82.22609 248.179609 
L 91.415901 248.179609 
L 100.605712 248.179609 
L 109.795523 248.179609 
L 118.985334 248.179609 
L 128.175145 248.179609 
L 137.364955 248.179609 
L 146.554766 248.179609 
L 155.744577 248.179609 
L 164.934388 248.179609 
L 174.124199 248.179609 
L 183.314009 248.179609 
L 192.50382 248.179609 
L 201.693631 248.179609 
" clip-path="url(#pb6367d84fc)" style="fill: none; stroke: #0578ff; stroke-opacity: 0.863636; stroke-width: 1.5; stroke-linecap: square"/>
   </g>
   <g id="line2d_40">
    <path d="M 8.707604 248.179609 
L 17.897415 229.610614 
L 27.087226 238.895111 
L 36.277036 238.895111 
L 45.466847 220.326116 
L 54.656658 211.041618 
L 63.846469 248.179609 
L 73.03628 238.895111 
L 82.22609 238.895111 
L 91.415901 248.179609 
L 100.605712 238.895111 
L 109.795523 248.179609 
L 118.985334 238.895111 
L 128.175145 238.895111 
L 137.364955 248.179609 
L 146.554766 248.179609 
L 155.744577 229.610614 
L 164.934388 248.179609 
L 174.124199 248.179609 
L 183.314009 238.895111 
L 192.50382 238.895111 
L 201.693631 248.179609 
" clip-path="url(#pb6367d84fc)" style="fill: none; stroke: #000000; stroke-opacity: 0.863636; stroke-width: 1.5; stroke-linecap: square"/>
   </g>
  </g>
  <g id="axes_19">
   <g id="FillBetweenPolyCollection_18">
    <defs>
     <path id="ma867f6dd61" d="M 15.150718 -77.816186 
L 15.150718 -77.816186 
L 23.714219 -77.816186 
L 32.277721 -77.816186 
L 40.841223 -77.816186 
L 49.404724 -77.816186 
L 57.968226 -77.816186 
L 66.531728 -77.816186 
L 75.095229 -77.816186 
L 83.658731 -77.816186 
L 92.222233 -77.816186 
L 100.785734 -77.816186 
L 109.349236 -77.816186 
L 117.912737 -77.816186 
L 126.476239 -77.816186 
L 135.039741 -77.816186 
L 143.603242 -77.816186 
L 152.166744 -77.816186 
L 160.730246 -77.816186 
L 169.293747 -77.816186 
L 177.857249 -77.816186 
L 186.420751 -77.816186 
L 194.984252 -77.816186 
L 194.984252 -77.816186 
L 194.984252 -77.816186 
L 186.420751 -87.100684 
L 177.857249 -77.816186 
L 169.293747 -77.816186 
L 160.730246 -96.385182 
L 152.166744 -77.816186 
L 143.603242 -77.816186 
L 135.039741 -87.100684 
L 126.476239 -77.816186 
L 117.912737 -87.100684 
L 109.349236 -87.100684 
L 100.785734 -87.100684 
L 92.222233 -77.816186 
L 83.658731 -87.100684 
L 75.095229 -87.100684 
L 66.531728 -87.100684 
L 57.968226 -87.100684 
L 49.404724 -96.385182 
L 40.841223 -114.954178 
L 32.277721 -96.385182 
L 23.714219 -87.100684 
L 15.150718 -77.816186 
z
" style="stroke: #0578ff; stroke-opacity: 0.890909"/>
    </defs>
    <g clip-path="url(#p963649dffc)">
     <use xlink:href="#ma867f6dd61" x="0" y="337.40125" style="fill: #0578ff; fill-opacity: 0.890909; stroke: #0578ff; stroke-opacity: 0.890909"/>
    </g>
   </g>
   <g id="line2d_41">
    <path d="M 15.150718 259.585064 
L 23.714219 259.585064 
L 32.277721 259.585064 
L 40.841223 259.585064 
L 49.404724 259.585064 
L 57.968226 259.585064 
L 66.531728 259.585064 
L 75.095229 259.585064 
L 83.658731 259.585064 
L 92.222233 259.585064 
L 100.785734 259.585064 
L 109.349236 259.585064 
L 117.912737 259.585064 
L 126.476239 259.585064 
L 135.039741 259.585064 
L 143.603242 259.585064 
L 152.166744 259.585064 
L 160.730246 259.585064 
L 169.293747 259.585064 
L 177.857249 259.585064 
L 186.420751 259.585064 
L 194.984252 259.585064 
" clip-path="url(#p963649dffc)" style="fill: none; stroke: #0578ff; stroke-opacity: 0.890909; stroke-width: 1.5; stroke-linecap: square"/>
   </g>
   <g id="line2d_42">
    <path d="M 15.150718 259.585064 
L 23.714219 250.300566 
L 32.277721 241.016068 
L 40.841223 222.447072 
L 49.404724 241.016068 
L 57.968226 250.300566 
L 66.531728 250.300566 
L 75.095229 250.300566 
L 83.658731 250.300566 
L 92.222233 259.585064 
L 100.785734 250.300566 
L 109.349236 250.300566 
L 117.912737 250.300566 
L 126.476239 259.585064 
L 135.039741 250.300566 
L 143.603242 259.585064 
L 152.166744 259.585064 
L 160.730246 241.016068 
L 169.293747 259.585064 
L 177.857249 259.585064 
L 186.420751 250.300566 
L 194.984252 259.585064 
" clip-path="url(#p963649dffc)" style="fill: none; stroke: #000000; stroke-opacity: 0.890909; stroke-width: 1.5; stroke-linecap: square"/>
   </g>
  </g>
  <g id="axes_20">
   <g id="FillBetweenPolyCollection_19">
    <defs>
     <path id="m78412d5cbf" d="M 18.570888 -66.410732 
L 18.570888 -66.410732 
L 27.122112 -66.410732 
L 35.673336 -66.410732 
L 44.22456 -66.410732 
L 52.775784 -66.410732 
L 61.327008 -66.410732 
L 69.878232 -66.410732 
L 78.429456 -66.410732 
L 86.98068 -66.410732 
L 95.531904 -66.410732 
L 104.083128 -66.410732 
L 112.634352 -66.410732 
L 121.185576 -66.410732 
L 129.7368 -66.410732 
L 138.288024 -66.410732 
L 146.839248 -66.410732 
L 155.390472 -66.410732 
L 163.941696 -66.410732 
L 172.49292 -66.410732 
L 181.044144 -66.410732 
L 189.595368 -66.410732 
L 198.146592 -66.410732 
L 198.146592 -66.410732 
L 198.146592 -66.410732 
L 189.595368 -75.695229 
L 181.044144 -66.410732 
L 172.49292 -66.410732 
L 163.941696 -75.695229 
L 155.390472 -75.695229 
L 146.839248 -66.410732 
L 138.288024 -75.695229 
L 129.7368 -66.410732 
L 121.185576 -66.410732 
L 112.634352 -66.410732 
L 104.083128 -84.979727 
L 95.531904 -66.410732 
L 86.98068 -66.410732 
L 78.429456 -84.979727 
L 69.878232 -75.695229 
L 61.327008 -84.979727 
L 52.775784 -75.695229 
L 44.22456 -94.264225 
L 35.673336 -94.264225 
L 27.122112 -84.979727 
L 18.570888 -66.410732 
z
" style="stroke: #0578ff; stroke-opacity: 0.918182"/>
    </defs>
    <g clip-path="url(#p2801bb6cae)">
     <use xlink:href="#m78412d5cbf" x="0" y="337.40125" style="fill: #0578ff; fill-opacity: 0.918182; stroke: #0578ff; stroke-opacity: 0.918182"/>
    </g>
   </g>
   <g id="line2d_43">
    <path d="M 18.570888 270.990518 
L 27.122112 270.990518 
L 35.673336 270.990518 
L 44.22456 270.990518 
L 52.775784 270.990518 
L 61.327008 270.990518 
L 69.878232 270.990518 
L 78.429456 270.990518 
L 86.98068 270.990518 
L 95.531904 270.990518 
L 104.083128 270.990518 
L 112.634352 270.990518 
L 121.185576 270.990518 
L 129.7368 270.990518 
L 138.288024 270.990518 
L 146.839248 270.990518 
L 155.390472 270.990518 
L 163.941696 270.990518 
L 172.49292 270.990518 
L 181.044144 270.990518 
L 189.595368 270.990518 
L 198.146592 270.990518 
" clip-path="url(#p2801bb6cae)" style="fill: none; stroke: #0578ff; stroke-opacity: 0.918182; stroke-width: 1.5; stroke-linecap: square"/>
   </g>
   <g id="line2d_44">
    <path d="M 18.570888 270.990518 
L 27.122112 252.421523 
L 35.673336 243.137025 
L 44.22456 243.137025 
L 52.775784 261.706021 
L 61.327008 252.421523 
L 69.878232 261.706021 
L 78.429456 252.421523 
L 86.98068 270.990518 
L 95.531904 270.990518 
L 104.083128 252.421523 
L 112.634352 270.990518 
L 121.185576 270.990518 
L 129.7368 270.990518 
L 138.288024 261.706021 
L 146.839248 270.990518 
L 155.390472 261.706021 
L 163.941696 261.706021 
L 172.49292 270.990518 
L 181.044144 270.990518 
L 189.595368 261.706021 
L 198.146592 270.990518 
" clip-path="url(#p2801bb6cae)" style="fill: none; stroke: #000000; stroke-opacity: 0.918182; stroke-width: 1.5; stroke-linecap: square"/>
   </g>
  </g>
  <g id="axes_21">
   <g id="FillBetweenPolyCollection_20">
    <defs>
     <path id="m89c7735862" d="M 21.285194 -55.005277 
L 21.285194 -55.005277 
L 29.70915 -55.005277 
L 38.133106 -55.005277 
L 46.557061 -55.005277 
L 54.981017 -55.005277 
L 63.404973 -55.005277 
L 71.828929 -55.005277 
L 80.252885 -55.005277 
L 88.67684 -55.005277 
L 97.100796 -55.005277 
L 105.524752 -55.005277 
L 113.948708 -55.005277 
L 122.372664 -55.005277 
L 130.79662 -55.005277 
L 139.220575 -55.005277 
L 147.644531 -55.005277 
L 156.068487 -55.005277 
L 164.492443 -55.005277 
L 172.916399 -55.005277 
L 181.340354 -55.005277 
L 189.76431 -55.005277 
L 198.188266 -55.005277 
L 198.188266 -55.005277 
L 198.188266 -55.005277 
L 189.76431 -64.289775 
L 181.340354 -55.005277 
L 172.916399 -55.005277 
L 164.492443 -64.289775 
L 156.068487 -55.005277 
L 147.644531 -73.574273 
L 139.220575 -55.005277 
L 130.79662 -64.289775 
L 122.372664 -55.005277 
L 113.948708 -55.005277 
L 105.524752 -64.289775 
L 97.100796 -64.289775 
L 88.67684 -64.289775 
L 80.252885 -55.005277 
L 71.828929 -73.574273 
L 63.404973 -64.289775 
L 54.981017 -64.289775 
L 46.557061 -82.858771 
L 38.133106 -82.858771 
L 29.70915 -73.574273 
L 21.285194 -55.005277 
z
" style="stroke: #0578ff; stroke-opacity: 0.945455"/>
    </defs>
    <g clip-path="url(#pa2b7c990a5)">
     <use xlink:href="#m89c7735862" x="0" y="337.40125" style="fill: #0578ff; fill-opacity: 0.945455; stroke: #0578ff; stroke-opacity: 0.945455"/>
    </g>
   </g>
   <g id="line2d_45">
    <path d="M 21.285194 282.395973 
L 29.70915 282.395973 
L 38.133106 282.395973 
L 46.557061 282.395973 
L 54.981017 282.395973 
L 63.404973 282.395973 
L 71.828929 282.395973 
L 80.252885 282.395973 
L 88.67684 282.395973 
L 97.100796 282.395973 
L 105.524752 282.395973 
L 113.948708 282.395973 
L 122.372664 282.395973 
L 130.79662 282.395973 
L 139.220575 282.395973 
L 147.644531 282.395973 
L 156.068487 282.395973 
L 164.492443 282.395973 
L 172.916399 282.395973 
L 181.340354 282.395973 
L 189.76431 282.395973 
L 198.188266 282.395973 
" clip-path="url(#pa2b7c990a5)" style="fill: none; stroke: #0578ff; stroke-opacity: 0.945455; stroke-width: 1.5; stroke-linecap: square"/>
   </g>
   <g id="line2d_46">
    <path d="M 21.285194 282.395973 
L 29.70915 263.826977 
L 38.133106 254.542479 
L 46.557061 254.542479 
L 54.981017 273.111475 
L 63.404973 273.111475 
L 71.828929 263.826977 
L 80.252885 282.395973 
L 88.67684 273.111475 
L 97.100796 273.111475 
L 105.524752 273.111475 
L 113.948708 282.395973 
L 122.372664 282.395973 
L 130.79662 273.111475 
L 139.220575 282.395973 
L 147.644531 263.826977 
L 156.068487 282.395973 
L 164.492443 273.111475 
L 172.916399 282.395973 
L 181.340354 282.395973 
L 189.76431 273.111475 
L 198.188266 282.395973 
" clip-path="url(#pa2b7c990a5)" style="fill: none; stroke: #000000; stroke-opacity: 0.945455; stroke-width: 1.5; stroke-linecap: square"/>
   </g>
  </g>
  <g id="axes_22">
   <g id="FillBetweenPolyCollection_21">
    <defs>
     <path id="m959f4f1167" d="M 19.960607 -43.599823 
L 19.960607 -43.599823 
L 29.666228 -43.599823 
L 39.371849 -43.599823 
L 49.07747 -43.599823 
L 58.783092 -43.599823 
L 68.488713 -43.599823 
L 78.194334 -43.599823 
L 87.899956 -43.599823 
L 97.605577 -43.599823 
L 107.311198 -43.599823 
L 117.016819 -43.599823 
L 126.722441 -43.599823 
L 136.428062 -43.599823 
L 146.133683 -43.599823 
L 155.839304 -43.599823 
L 165.544926 -43.599823 
L 175.250547 -43.599823 
L 184.956168 -43.599823 
L 194.66179 -43.599823 
L 204.367411 -43.599823 
L 214.073032 -43.599823 
L 223.778653 -43.599823 
L 223.778653 -43.599823 
L 223.778653 -43.599823 
L 214.073032 -52.88432 
L 204.367411 -43.599823 
L 194.66179 -43.599823 
L 184.956168 -43.599823 
L 175.250547 -52.88432 
L 165.544926 -52.88432 
L 155.839304 -43.599823 
L 146.133683 -62.168818 
L 136.428062 -43.599823 
L 126.722441 -43.599823 
L 117.016819 -52.88432 
L 107.311198 -52.88432 
L 97.605577 -52.88432 
L 87.899956 -52.88432 
L 78.194334 -43.599823 
L 68.488713 -52.88432 
L 58.783092 -80.737814 
L 49.07747 -43.599823 
L 39.371849 -71.453316 
L 29.666228 -71.453316 
L 19.960607 -43.599823 
z
" style="stroke: #0578ff; stroke-opacity: 0.972727"/>
    </defs>
    <g clip-path="url(#p4bc73162c5)">
     <use xlink:href="#m959f4f1167" x="0" y="337.40125" style="fill: #0578ff; fill-opacity: 0.972727; stroke: #0578ff; stroke-opacity: 0.972727"/>
    </g>
   </g>
   <g id="line2d_47">
    <path d="M 19.960607 293.801427 
L 29.666228 293.801427 
L 39.371849 293.801427 
L 49.07747 293.801427 
L 58.783092 293.801427 
L 68.488713 293.801427 
L 78.194334 293.801427 
L 87.899956 293.801427 
L 97.605577 293.801427 
L 107.311198 293.801427 
L 117.016819 293.801427 
L 126.722441 293.801427 
L 136.428062 293.801427 
L 146.133683 293.801427 
L 155.839304 293.801427 
L 165.544926 293.801427 
L 175.250547 293.801427 
L 184.956168 293.801427 
L 194.66179 293.801427 
L 204.367411 293.801427 
L 214.073032 293.801427 
L 223.778653 293.801427 
" clip-path="url(#p4bc73162c5)" style="fill: none; stroke: #0578ff; stroke-opacity: 0.972727; stroke-width: 1.5; stroke-linecap: square"/>
   </g>
   <g id="line2d_48">
    <path d="M 19.960607 293.801427 
L 29.666228 265.947934 
L 39.371849 265.947934 
L 49.07747 293.801427 
L 58.783092 256.663436 
L 68.488713 284.51693 
L 78.194334 293.801427 
L 87.899956 284.51693 
L 97.605577 284.51693 
L 107.311198 284.51693 
L 117.016819 284.51693 
L 126.722441 293.801427 
L 136.428062 293.801427 
L 146.133683 275.232432 
L 155.839304 293.801427 
L 165.544926 284.51693 
L 175.250547 284.51693 
L 184.956168 293.801427 
L 194.66179 293.801427 
L 204.367411 293.801427 
L 214.073032 284.51693 
L 223.778653 293.801427 
" clip-path="url(#p4bc73162c5)" style="fill: none; stroke: #000000; stroke-opacity: 0.972727; stroke-width: 1.5; stroke-linecap: square"/>
   </g>
  </g>
  <g id="axes_23">
   <g id="FillBetweenPolyCollection_22">
    <defs>
     <path id="m574f37cb29" d="M 15.545898 -32.194368 
L 15.545898 -32.194368 
L 24.805332 -32.194368 
L 34.064766 -32.194368 
L 43.3242 -32.194368 
L 52.583634 -32.194368 
L 61.843068 -32.194368 
L 71.102502 -32.194368 
L 80.361936 -32.194368 
L 89.62137 -32.194368 
L 98.880804 -32.194368 
L 108.140238 -32.194368 
L 117.399672 -32.194368 
L 126.659106 -32.194368 
L 135.91854 -32.194368 
L 145.177974 -32.194368 
L 154.437408 -32.194368 
L 163.696842 -32.194368 
L 172.956276 -32.194368 
L 182.21571 -32.194368 
L 191.475144 -32.194368 
L 200.734578 -32.194368 
L 209.994012 -32.194368 
L 209.994012 -32.194368 
L 209.994012 -32.194368 
L 200.734578 -41.478866 
L 191.475144 -32.194368 
L 182.21571 -32.194368 
L 172.956276 -41.478866 
L 163.696842 -32.194368 
L 154.437408 -32.194368 
L 145.177974 -41.478866 
L 135.91854 -50.763364 
L 126.659106 -32.194368 
L 117.399672 -41.478866 
L 108.140238 -32.194368 
L 98.880804 -32.194368 
L 89.62137 -50.763364 
L 80.361936 -50.763364 
L 71.102502 -32.194368 
L 61.843068 -32.194368 
L 52.583634 -69.332359 
L 43.3242 -41.478866 
L 34.064766 -60.047862 
L 24.805332 -50.763364 
L 15.545898 -32.194368 
z
" style="stroke: #0578ff"/>
    </defs>
    <g clip-path="url(#p49894fea50)">
     <use xlink:href="#m574f37cb29" x="0" y="337.40125" style="fill: #0578ff; stroke: #0578ff"/>
    </g>
   </g>
   <g id="line2d_49">
    <path d="M 15.545898 305.206882 
L 24.805332 305.206882 
L 34.064766 305.206882 
L 43.3242 305.206882 
L 52.583634 305.206882 
L 61.843068 305.206882 
L 71.102502 305.206882 
L 80.361936 305.206882 
L 89.62137 305.206882 
L 98.880804 305.206882 
L 108.140238 305.206882 
L 117.399672 305.206882 
L 126.659106 305.206882 
L 135.91854 305.206882 
L 145.177974 305.206882 
L 154.437408 305.206882 
L 163.696842 305.206882 
L 172.956276 305.206882 
L 182.21571 305.206882 
L 191.475144 305.206882 
L 200.734578 305.206882 
L 209.994012 305.206882 
" clip-path="url(#p49894fea50)" style="fill: none; stroke: #0578ff; stroke-width: 1.5; stroke-linecap: square"/>
   </g>
   <g id="line2d_50">
    <path d="M 15.545898 305.206882 
L 24.805332 286.637886 
L 34.064766 277.353388 
L 43.3242 295.922384 
L 52.583634 268.068891 
L 61.843068 305.206882 
L 71.102502 305.206882 
L 80.361936 286.637886 
L 89.62137 286.637886 
L 98.880804 305.206882 
L 108.140238 305.206882 
L 117.399672 295.922384 
L 126.659106 305.206882 
L 135.91854 286.637886 
L 145.177974 295.922384 
L 154.437408 305.206882 
L 163.696842 305.206882 
L 172.956276 295.922384 
L 182.21571 305.206882 
L 191.475144 305.206882 
L 200.734578 295.922384 
L 209.994012 305.206882 
" clip-path="url(#p49894fea50)" style="fill: none; stroke: #000000; stroke-width: 1.5; stroke-linecap: square"/>
   </g>
  </g>
  <g id="text_7">
   <!-- Serie A -->
   <g style="fill: #0578ff" transform="translate(226.8 100.08) scale(0.18 -0.18)">
    <defs>
     <path id="Lato-Regular-53" d="M 2906 3869 
Q 2877 3821 2845 3797 
Q 2813 3773 2762 3773 
Q 2707 3773 2635 3827 
Q 2563 3882 2452 3947 
Q 2342 4013 2187 4067 
Q 2032 4122 1811 4122 
Q 1603 4122 1443 4066 
Q 1283 4010 1176 3914 
Q 1069 3818 1014 3688 
Q 960 3558 960 3408 
Q 960 3216 1054 3089 
Q 1149 2963 1304 2873 
Q 1459 2784 1656 2718 
Q 1853 2653 2059 2582 
Q 2266 2512 2462 2424 
Q 2659 2336 2814 2201 
Q 2970 2067 3064 1872 
Q 3158 1677 3158 1392 
Q 3158 1091 3056 827 
Q 2954 563 2757 368 
Q 2560 173 2273 61 
Q 1987 -51 1622 -51 
Q 1178 -51 811 110 
Q 445 272 186 547 
L 365 842 
Q 390 877 427 901 
Q 464 925 509 925 
Q 576 925 662 853 
Q 749 781 878 694 
Q 1008 608 1192 536 
Q 1376 464 1642 464 
Q 1862 464 2035 525 
Q 2208 586 2328 696 
Q 2448 806 2512 960 
Q 2576 1114 2576 1302 
Q 2576 1510 2481 1643 
Q 2387 1776 2233 1865 
Q 2080 1955 1883 2017 
Q 1686 2080 1480 2145 
Q 1274 2211 1077 2297 
Q 880 2384 726 2521 
Q 573 2659 478 2865 
Q 384 3072 384 3376 
Q 384 3619 478 3846 
Q 573 4074 752 4250 
Q 931 4426 1195 4531 
Q 1459 4637 1802 4637 
Q 2186 4637 2502 4515 
Q 2819 4394 3056 4163 
L 2906 3869 
z
" transform="scale(0.015625)"/>
     <path id="Lato-Regular-65" d="M 1750 3293 
Q 2042 3293 2288 3195 
Q 2534 3098 2713 2914 
Q 2893 2730 2993 2459 
Q 3094 2189 3094 1843 
Q 3094 1709 3065 1664 
Q 3037 1619 2957 1619 
L 800 1619 
Q 806 1312 883 1085 
Q 960 858 1094 706 
Q 1229 554 1414 478 
Q 1600 403 1830 403 
Q 2045 403 2200 452 
Q 2355 502 2467 560 
Q 2579 618 2654 667 
Q 2730 717 2784 717 
Q 2854 717 2893 662 
L 3053 454 
Q 2947 326 2800 232 
Q 2653 138 2485 77 
Q 2317 16 2137 -14 
Q 1958 -45 1782 -45 
Q 1446 -45 1163 68 
Q 880 182 673 401 
Q 467 621 352 944 
Q 237 1267 237 1686 
Q 237 2026 341 2320 
Q 445 2614 640 2830 
Q 835 3046 1116 3169 
Q 1398 3293 1750 3293 
z
M 1763 2874 
Q 1350 2874 1113 2635 
Q 877 2397 819 1974 
L 2582 1974 
Q 2582 2173 2528 2337 
Q 2474 2502 2368 2622 
Q 2262 2742 2110 2808 
Q 1958 2874 1763 2874 
z
" transform="scale(0.015625)"/>
     <path id="Lato-Regular-72" d="M 467 0 
L 467 3242 
L 794 3242 
Q 886 3242 921 3206 
Q 957 3171 970 3085 
L 1008 2579 
Q 1174 2918 1419 3108 
Q 1664 3299 1994 3299 
Q 2128 3299 2237 3268 
Q 2346 3238 2438 3184 
L 2365 2758 
Q 2342 2678 2266 2678 
Q 2221 2678 2128 2708 
Q 2035 2739 1869 2739 
Q 1571 2739 1371 2566 
Q 1171 2394 1037 2064 
L 1037 0 
L 467 0 
z
" transform="scale(0.015625)"/>
     <path id="Lato-Regular-69" d="M 1101 3242 
L 1101 0 
L 531 0 
L 531 3242 
L 1101 3242 
z
M 1229 4259 
Q 1229 4176 1195 4104 
Q 1162 4032 1106 3976 
Q 1050 3920 976 3888 
Q 902 3856 819 3856 
Q 736 3856 664 3888 
Q 592 3920 536 3976 
Q 480 4032 448 4104 
Q 416 4176 416 4259 
Q 416 4342 448 4417 
Q 480 4493 536 4549 
Q 592 4605 664 4637 
Q 736 4669 819 4669 
Q 902 4669 976 4637 
Q 1050 4605 1106 4549 
Q 1162 4493 1195 4417 
Q 1229 4342 1229 4259 
z
" transform="scale(0.015625)"/>
     <path id="Lato-Regular-20" transform="scale(0.015625)"/>
     <path id="Lato-Regular-41" d="M 4330 0 
L 3850 0 
Q 3766 0 3715 41 
Q 3664 83 3638 147 
L 3210 1254 
L 1152 1254 
L 723 147 
Q 701 90 646 45 
Q 592 0 512 0 
L 32 0 
L 1866 4586 
L 2496 4586 
L 4330 0 
z
M 1325 1702 
L 3037 1702 
L 2317 3568 
Q 2246 3741 2179 4000 
Q 2144 3869 2110 3758 
Q 2077 3648 2045 3565 
L 1325 1702 
z
" transform="scale(0.015625)"/>
    </defs>
    <use xlink:href="#Lato-Regular-53"/>
    <use xlink:href="#Lato-Regular-65" transform="translate(53 0)"/>
    <use xlink:href="#Lato-Regular-72" transform="translate(105.400009 0)"/>
    <use xlink:href="#Lato-Regular-69" transform="translate(145.700012 0)"/>
    <use xlink:href="#Lato-Regular-65" transform="translate(171.300018 0)"/>
    <use xlink:href="#Lato-Regular-20" transform="translate(223.700027 0)"/>
    <use xlink:href="#Lato-Regular-41" transform="translate(243.000031 0)"/>
   </g>
  </g>
 </g>
 <defs>
  <clipPath id="p93a0a05191">
   <rect x="7.2" y="7.2" width="439.2" height="67.405455"/>
  </clipPath>
  <clipPath id="p5c493fff0f">
   <rect x="7.2" y="18.605455" width="439.2" height="67.405455"/>
  </clipPath>
  <clipPath id="pd46e9fccd4">
   <rect x="7.2" y="30.010909" width="439.2" height="67.405455"/>
  </clipPath>
  <clipPath id="p694fdce88c">
   <rect x="7.2" y="41.416364" width="439.2" height="67.405455"/>
  </clipPath>
  <clipPath id="p34514500af">
   <rect x="7.2" y="52.821818" width="439.2" height="67.405455"/>
  </clipPath>
  <clipPath id="p3d9fa8d080">
   <rect x="7.2" y="64.227273" width="439.2" height="67.405455"/>
  </clipPath>
  <clipPath id="p1a65e5471f">
   <rect x="7.2" y="75.632727" width="439.2" height="67.405455"/>
  </clipPath>
  <clipPath id="p96c84d7c71">
   <rect x="7.2" y="87.038182" width="439.2" height="67.405455"/>
  </clipPath>
  <clipPath id="p8440283af5">
   <rect x="7.2" y="98.443636" width="439.2" height="67.405455"/>
  </clipPath>
  <clipPath id="p6ebc288c40">
   <rect x="7.2" y="109.849091" width="439.2" height="67.405455"/>
  </clipPath>
  <clipPath id="p44f76baaa9">
   <rect x="7.2" y="121.254545" width="439.2" height="67.405455"/>
  </clipPath>
  <clipPath id="pd8c2a3c225">
   <rect x="7.2" y="132.66" width="439.2" height="67.405455"/>
  </clipPath>
  <clipPath id="p774bec2d68">
   <rect x="7.2" y="144.065455" width="439.2" height="67.405455"/>
  </clipPath>
  <clipPath id="pe3be288c90">
   <rect x="7.2" y="155.470909" width="439.2" height="67.405455"/>
  </clipPath>
  <clipPath id="pf650f4df82">
   <rect x="7.2" y="166.876364" width="439.2" height="67.405455"/>
  </clipPath>
  <clipPath id="p25c0a370a1">
   <rect x="7.2" y="178.281818" width="439.2" height="67.405455"/>
  </clipPath>
  <clipPath id="pb6367d84fc">
   <rect x="7.2" y="189.687273" width="439.2" height="67.405455"/>
  </clipPath>
  <clipPath id="p963649dffc">
   <rect x="7.2" y="201.092727" width="439.2" height="67.405455"/>
  </clipPath>
  <clipPath id="p2801bb6cae">
   <rect x="7.2" y="212.498182" width="439.2" height="67.405455"/>
  </clipPath>
  <clipPath id="pa2b7c990a5">
   <rect x="7.2" y="223.903636" width="439.2" height="67.405455"/>
  </clipPath>
  <clipPath id="p4bc73162c5">
   <rect x="7.2" y="235.309091" width="439.2" height="67.405455"/>
  </clipPath>
  <clipPath id="p49894fea50">
   <rect x="7.2" y="246.714545" width="439.2" height="67.405455"/>
  </clipPath>
 </defs>
</svg>
